<svg width="39" height="39" viewBox="0 0 39 39" fill="none" xmlns="http://www.w3.org/2000/svg">
<rect width="39" height="39" rx="8" fill="#F0F3F5"/>
<rect x="9.75" y="12.75" width="20.5" height="13.625" rx="1.25" stroke="#911336" stroke-width="1.5"/>
<mask id="path-3-inside-1_620_231" fill="white">
<path d="M26.7602 15H26.3096V24H26.7602V15Z"/>
</mask>
<path d="M26.7602 15H26.3096V24H26.7602V15Z" fill="#911336"/>
<path d="M26.3096 15V12H23.3096V15H26.3096ZM26.7602 15H29.7602V12H26.7602V15ZM26.7602 24V27H29.7602V24H26.7602ZM26.3096 24H23.3096V27H26.3096V24ZM26.3096 18H26.7602V12H26.3096V18ZM23.7602 15V24H29.7602V15H23.7602ZM26.7602 21H26.3096V27H26.7602V21ZM29.3096 24V15H23.3096V24H29.3096Z" fill="#911336" mask="url(#path-3-inside-1_620_231)"/>
<mask id="path-5-inside-2_620_231" fill="white">
<path d="M25.9615 15H25.5928V24H25.9615V15Z"/>
</mask>
<path d="M25.9615 15H25.5928V24H25.9615V15Z" fill="#911336"/>
<path d="M25.5928 15V12H22.5928V15H25.5928ZM25.9615 15H28.9615V12H25.9615V15ZM25.9615 24V27H28.9615V24H25.9615ZM25.5928 24H22.5928V27H25.5928V24ZM25.5928 18H25.9615V12H25.5928V18ZM22.9615 15V24H28.9615V15H22.9615ZM25.9615 21H25.5928V27H25.9615V21ZM28.5928 24V15H22.5928V24H28.5928Z" fill="#911336" mask="url(#path-5-inside-2_620_231)"/>
<mask id="path-7-inside-3_620_231" fill="white">
<path d="M24.1597 15H23.791V24H24.1597V15Z"/>
</mask>
<path d="M24.1597 15H23.791V24H24.1597V15Z" fill="#911336"/>
<path d="M23.791 15V12H20.791V15H23.791ZM24.1597 15H27.1597V12H24.1597V15ZM24.1597 24V27H27.1597V24H24.1597ZM23.791 24H20.791V27H23.791V24ZM23.791 18H24.1597V12H23.791V18ZM21.1597 15V24H27.1597V15H21.1597ZM24.1597 21H23.791V27H24.1597V21ZM26.791 24V15H20.791V24H26.791Z" fill="#911336" mask="url(#path-7-inside-3_620_231)"/>
<mask id="path-9-inside-4_620_231" fill="white">
<path d="M24.609 15H24.3223V24H24.609V15Z"/>
</mask>
<path d="M24.609 15H24.3223V24H24.609V15Z" fill="#911336"/>
<path d="M24.3223 15V12H21.3223V15H24.3223ZM24.609 15H27.609V12H24.609V15ZM24.609 24V27H27.609V24H24.609ZM24.3223 24H21.3223V27H24.3223V24ZM24.3223 18H24.609V12H24.3223V18ZM21.609 15V24H27.609V15H21.609ZM24.609 21H24.3223V27H24.609V21ZM27.3223 24V15H21.3223V24H27.3223Z" fill="#911336" mask="url(#path-9-inside-4_620_231)"/>
<mask id="path-11-inside-5_620_231" fill="white">
<path d="M25.3268 15H25.04V24H25.3268V15Z"/>
</mask>
<path d="M25.3268 15H25.04V24H25.3268V15Z" fill="#911336"/>
<path d="M25.04 15V12H22.04V15H25.04ZM25.3268 15H28.3268V12H25.3268V15ZM25.3268 24V27H28.3268V24H25.3268ZM25.04 24H22.04V27H25.04V24ZM25.04 18H25.3268V12H25.04V18ZM22.3268 15V24H28.3268V15H22.3268ZM25.3268 21H25.04V27H25.3268V21ZM28.04 24V15H22.04V24H28.04Z" fill="#911336" mask="url(#path-11-inside-5_620_231)"/>
<mask id="path-13-inside-6_620_231" fill="white">
<path d="M22.3365 15H21.9678V24H22.3365V15Z"/>
</mask>
<path d="M22.3365 15H21.9678V24H22.3365V15Z" fill="#911336"/>
<path d="M21.9678 15V12H18.9678V15H21.9678ZM22.3365 15H25.3365V12H22.3365V15ZM22.3365 24V27H25.3365V24H22.3365ZM21.9678 24H18.9678V27H21.9678V24ZM21.9678 18H22.3365V12H21.9678V18ZM19.3365 15V24H25.3365V15H19.3365ZM22.3365 21H21.9678V27H22.3365V21ZM24.9678 24V15H18.9678V24H24.9678Z" fill="#911336" mask="url(#path-13-inside-6_620_231)"/>
<mask id="path-15-inside-7_620_231" fill="white">
<path d="M19.8785 15H19.5098V24H19.8785V15Z"/>
</mask>
<path d="M19.8785 15H19.5098V24H19.8785V15Z" fill="#911336"/>
<path d="M19.5098 15V12H16.5098V15H19.5098ZM19.8785 15H22.8785V12H19.8785V15ZM19.8785 24V27H22.8785V24H19.8785ZM19.5098 24H16.5098V27H19.5098V24ZM19.5098 18H19.8785V12H19.5098V18ZM16.8785 15V24H22.8785V15H16.8785ZM19.8785 21H19.5098V27H19.8785V21ZM22.5098 24V15H16.5098V24H22.5098Z" fill="#911336" mask="url(#path-15-inside-7_620_231)"/>
<mask id="path-17-inside-8_620_231" fill="white">
<path d="M18.9773 15H18.793V24H18.9773V15Z"/>
</mask>
<path d="M18.9773 15H18.793V24H18.9773V15Z" fill="#911336"/>
<path d="M18.793 15V12H15.793V15H18.793ZM18.9773 15H21.9773V12H18.9773V15ZM18.9773 24V27H21.9773V24H18.9773ZM18.793 24H15.793V27H18.793V24ZM18.793 18H18.9773V12H18.793V18ZM15.9773 15V24H21.9773V15H15.9773ZM18.9773 21H18.793V27H18.9773V21ZM21.793 24V15H15.793V24H21.793Z" fill="#911336" mask="url(#path-17-inside-8_620_231)"/>
<mask id="path-19-inside-9_620_231" fill="white">
<path d="M17.6668 15H17.4824V24H17.6668V15Z"/>
</mask>
<path d="M17.6668 15H17.4824V24H17.6668V15Z" fill="#911336"/>
<path d="M17.4824 15V12H14.4824V15H17.4824ZM17.6668 15H20.6668V12H17.6668V15ZM17.6668 24V27H20.6668V24H17.6668ZM17.4824 24H14.4824V27H17.4824V24ZM17.4824 18H17.6668V12H17.4824V18ZM14.6668 15V24H20.6668V15H14.6668ZM17.6668 21H17.4824V27H17.6668V21ZM20.4824 24V15H14.4824V24H20.4824Z" fill="#911336" mask="url(#path-19-inside-9_620_231)"/>
<mask id="path-21-inside-10_620_231" fill="white">
<path d="M17.2156 15H17.0312V24H17.2156V15Z"/>
</mask>
<path d="M17.2156 15H17.0312V24H17.2156V15Z" fill="#911336"/>
<path d="M17.0312 15V12H14.0312V15H17.0312ZM17.2156 15H20.2156V12H17.2156V15ZM17.2156 24V27H20.2156V24H17.2156ZM17.0312 24H14.0312V27H17.0312V24ZM17.0312 18H17.2156V12H17.0312V18ZM14.2156 15V24H20.2156V15H14.2156ZM17.2156 21H17.0312V27H17.2156V21ZM20.0312 24V15H14.0312V24H20.0312Z" fill="#911336" mask="url(#path-21-inside-10_620_231)"/>
<mask id="path-23-inside-11_620_231" fill="white">
<path d="M21.2908 15H21.1064V24H21.2908V15Z"/>
</mask>
<path d="M21.2908 15H21.1064V24H21.2908V15Z" fill="#911336"/>
<path d="M21.1064 15V12H18.1064V15H21.1064ZM21.2908 15H24.2908V12H21.2908V15ZM21.2908 24V27H24.2908V24H21.2908ZM21.1064 24H18.1064V27H21.1064V24ZM21.1064 18H21.2908V12H21.1064V18ZM18.2908 15V24H24.2908V15H18.2908ZM21.2908 21H21.1064V27H21.2908V21ZM24.1064 24V15H18.1064V24H24.1064Z" fill="#911336" mask="url(#path-23-inside-11_620_231)"/>
<mask id="path-25-inside-12_620_231" fill="white">
<path d="M18.465 15H17.8301V24H18.465V15Z"/>
</mask>
<path d="M18.465 15H17.8301V24H18.465V15Z" fill="#911336"/>
<path d="M17.8301 15V12H14.8301V15H17.8301ZM18.465 15H21.465V12H18.465V15ZM18.465 24V27H21.465V24H18.465ZM17.8301 24H14.8301V27H17.8301V24ZM17.8301 18H18.465V12H17.8301V18ZM15.465 15V24H21.465V15H15.465ZM18.465 21H17.8301V27H18.465V21ZM20.8301 24V15H14.8301V24H20.8301Z" fill="#911336" mask="url(#path-25-inside-12_620_231)"/>
<mask id="path-27-inside-13_620_231" fill="white">
<path d="M23.176 15H22.541V24H23.176V15Z"/>
</mask>
<path d="M23.176 15H22.541V24H23.176V15Z" fill="#911336"/>
<path d="M22.541 15V12H19.541V15H22.541ZM23.176 15H26.176V12H23.176V15ZM23.176 24V27H26.176V24H23.176ZM22.541 24H19.541V27H22.541V24ZM22.541 18H23.176V12H22.541V18ZM20.176 15V24H26.176V15H20.176ZM23.176 21H22.541V27H23.176V21ZM25.541 24V15H19.541V24H25.541Z" fill="#911336" mask="url(#path-27-inside-13_620_231)"/>
<mask id="path-29-inside-14_620_231" fill="white">
<path d="M16.3345 15H15.9658V24H16.3345V15Z"/>
</mask>
<path d="M16.3345 15H15.9658V24H16.3345V15Z" fill="#911336"/>
<path d="M15.9658 15V12H12.9658V15H15.9658ZM16.3345 15H19.3345V12H16.3345V15ZM16.3345 24V27H19.3345V24H16.3345ZM15.9658 24H12.9658V27H15.9658V24ZM15.9658 18H16.3345V12H15.9658V18ZM13.3345 15V24H19.3345V15H13.3345ZM16.3345 21H15.9658V27H16.3345V21ZM18.9658 24V15H12.9658V24H18.9658Z" fill="#911336" mask="url(#path-29-inside-14_620_231)"/>
<mask id="path-31-inside-15_620_231" fill="white">
<path d="M15.5159 15H14.9834V24H15.5159V15Z"/>
</mask>
<path d="M15.5159 15H14.9834V24H15.5159V15Z" fill="#911336"/>
<path d="M14.9834 15V12H11.9834V15H14.9834ZM15.5159 15H18.5159V12H15.5159V15ZM15.5159 24V27H18.5159V24H15.5159ZM14.9834 24H11.9834V27H14.9834V24ZM14.9834 18H15.5159V12H14.9834V18ZM12.5159 15V24H18.5159V15H12.5159ZM15.5159 21H14.9834V27H15.5159V21ZM17.9834 24V15H11.9834V24H17.9834Z" fill="#911336" mask="url(#path-31-inside-15_620_231)"/>
<mask id="path-33-inside-16_620_231" fill="white">
<path d="M14.3482 15H13.9795V24H14.3482V15Z"/>
</mask>
<path d="M14.3482 15H13.9795V24H14.3482V15Z" fill="#911336"/>
<path d="M13.9795 15V12H10.9795V15H13.9795ZM14.3482 15H17.3482V12H14.3482V15ZM14.3482 24V27H17.3482V24H14.3482ZM13.9795 24H10.9795V27H13.9795V24ZM13.9795 18H14.3482V12H13.9795V18ZM11.3482 15V24H17.3482V15H11.3482ZM14.3482 21H13.9795V27H14.3482V21ZM16.9795 24V15H10.9795V24H16.9795Z" fill="#911336" mask="url(#path-33-inside-16_620_231)"/>
<mask id="path-35-inside-17_620_231" fill="white">
<path d="M13.5696 15H12.9961V24H13.5696V15Z"/>
</mask>
<path d="M13.5696 15H12.9961V24H13.5696V15Z" fill="#911336"/>
<path d="M12.9961 15V12H9.99609V15H12.9961ZM13.5696 15H16.5696V12H13.5696V15ZM13.5696 24V27H16.5696V24H13.5696ZM12.9961 24H9.99609V27H12.9961V24ZM12.9961 18H13.5696V12H12.9961V18ZM10.5696 15V24H16.5696V15H10.5696ZM13.5696 21H12.9961V27H13.5696V21ZM15.9961 24V15H9.99609V24H15.9961Z" fill="#911336" mask="url(#path-35-inside-17_620_231)"/>
<mask id="path-37-inside-18_620_231" fill="white">
<path d="M20.5747 15H20.2061V24H20.5747V15Z"/>
</mask>
<path d="M20.5747 15H20.2061V24H20.5747V15Z" fill="#911336"/>
<path d="M20.2061 15V12H17.2061V15H20.2061ZM20.5747 15H23.5747V12H20.5747V15ZM20.5747 24V27H23.5747V24H20.5747ZM20.2061 24H17.2061V27H20.2061V24ZM20.2061 18H20.5747V12H20.2061V18ZM17.5747 15V24H23.5747V15H17.5747ZM20.5747 21H20.2061V27H20.5747V21ZM23.2061 24V15H17.2061V24H23.2061Z" fill="#911336" mask="url(#path-37-inside-18_620_231)"/>
</svg>
