<svg xmlns="http://www.w3.org/2000/svg" width="20" height="20" viewBox="0 0 20 20">
    <g fill="#ccc">
        <path  d="M12.602 14.777c-1.97 0-3.825-.767-5.223-2.165-2.874-2.874-2.874-7.563 0-10.437 2.873-2.874 7.563-2.874 10.437 0 2.873 2.874 2.873 7.563 0 10.437-1.389 1.398-3.243 2.165-5.214 2.165zm0-13.583c-1.592 0-3.175.602-4.388 1.816-2.418 2.417-2.418 6.359 0 8.776 1.174 1.175 2.728 1.816 4.388 1.816 1.66 0 3.214-.64 4.388-1.816 2.418-2.417 2.418-6.359 0-8.776-1.204-1.214-2.796-1.816-4.388-1.816z" transform="matrix(-1 0 0 1 20 0)"/>
        <path d="M5.592 15c-.145 0-.3-.058-.417-.175-.233-.233-.233-.602 0-.835l2.213-2.213c.233-.233.602-.233.835 0 .233.233.233.602 0 .835L6.01 14.825c-.117.117-.272.175-.418.175z" transform="matrix(-1 0 0 1 20 0)"/>
        <path d="M2.087 19.98c-.534 0-1.068-.203-1.466-.611-.805-.806-.805-2.126 0-2.932l3.496-3.495c.233-.233.601-.233.834 0l2.107 2.107c.107.106.175.262.175.417 0 .155-.058.301-.175.417L3.563 19.38c-.408.398-.942.602-1.476.602zm2.447-5.796l-3.078 3.088c-.35.35-.35.922 0 1.272s.923.35 1.272 0l3.088-3.088-1.282-1.272zM9.69 5.068c-.146 0-.302-.058-.418-.175-.233-.233-.233-.602 0-.835.893-.893 2.068-1.378 3.33-1.378s2.437.485 3.33 1.378c.233.233.233.602 0 .835-.233.233-.602.233-.835 0-.67-.67-1.553-1.039-2.505-1.039-.942 0-1.835.37-2.505 1.04-.097.116-.252.174-.398.174z" transform="matrix(-1 0 0 1 20 0)"/>
    </g>
</svg>
