<svg width="29" height="28" viewBox="0 0 29 28" fill="none" xmlns="http://www.w3.org/2000/svg">
<path d="M2.7952 9.71803H26.7282C27.2402 9.71803 27.7313 9.92144 28.0933 10.2835C28.4554 10.6456 28.6588 11.1366 28.6588 11.6487V14.0992C28.6588 14.3528 28.6089 14.6038 28.5118 14.838C28.4148 15.0723 28.2726 15.2851 28.0933 15.4644C27.914 15.6437 27.7012 15.7859 27.467 15.8829C27.2327 15.9799 26.9817 16.0299 26.7282 16.0299H26.0535L24.117 25.2333C24.0386 25.5868 23.8819 25.9181 23.6584 26.203C23.424 26.5018 23.1405 26.7585 22.8201 26.9624C22.4818 27.1795 22.1138 27.3467 21.7278 27.4589C21.3181 27.5797 20.8931 27.6407 20.466 27.64H9.0749C8.65267 27.6393 8.23271 27.5783 7.82772 27.4589C7.44164 27.3467 7.07373 27.1795 6.73534 26.9624C6.4149 26.7586 6.13144 26.5018 5.89708 26.203C5.66834 25.9195 5.50659 25.588 5.42391 25.2333L3.48743 16.0299H2.81272C2.55919 16.0299 2.30813 15.9799 2.0739 15.8829C1.83966 15.7859 1.62683 15.6437 1.44755 15.4644C1.26828 15.2851 1.12607 15.0723 1.02904 14.838C0.932018 14.6038 0.88208 14.3528 0.88208 14.0992V11.6487C0.88208 11.1366 1.08549 10.6456 1.44755 10.2835C1.80962 9.92144 2.30068 9.71803 2.81272 9.71803H2.7952ZM18.4886 23.3202C18.4826 23.3964 18.4924 23.473 18.5173 23.5453C18.5423 23.6176 18.582 23.6839 18.6338 23.7401C18.6856 23.7964 18.7485 23.8413 18.8186 23.872C18.8886 23.9028 18.9642 23.9188 19.0406 23.9189H20.1914C20.3245 23.919 20.4531 23.8712 20.5539 23.7844C20.6547 23.6975 20.7209 23.5773 20.7405 23.4458L21.6869 17.2099C21.6991 17.1307 21.694 17.0498 21.6721 16.9728C21.6501 16.8958 21.6117 16.8245 21.5595 16.7637C21.5073 16.7029 21.4426 16.6542 21.3698 16.6208C21.297 16.5874 21.2179 16.5701 21.1378 16.5702H19.5401C19.4007 16.5705 19.2665 16.6233 19.1642 16.718C19.062 16.8127 18.9991 16.9424 18.9881 17.0813L18.4886 23.3202ZM13.348 17.1485L13.5729 23.3844C13.5782 23.528 13.639 23.664 13.7425 23.7637C13.846 23.8634 13.9842 23.919 14.1279 23.9189H15.413C15.5567 23.919 15.6949 23.8634 15.7984 23.7637C15.9019 23.664 15.9627 23.528 15.968 23.3844L16.1929 17.1485C16.1968 17.0732 16.1854 16.9979 16.1593 16.9272C16.1332 16.8564 16.093 16.7918 16.041 16.7371C15.9891 16.6824 15.9266 16.6389 15.8573 16.6092C15.7879 16.5795 15.7133 16.5643 15.6379 16.5644H13.8942C13.8195 16.5654 13.7459 16.5816 13.6776 16.6118C13.6093 16.642 13.5478 16.6857 13.4968 16.7402C13.4458 16.7948 13.4064 16.8591 13.3808 16.9292C13.3552 16.9994 13.3441 17.074 13.348 17.1485ZM7.85401 17.2128L8.80034 23.4487C8.81995 23.5803 8.88618 23.7004 8.98697 23.7873C9.08776 23.8741 9.2164 23.9219 9.34945 23.9218H10.5002C10.5767 23.9217 10.6523 23.9057 10.7223 23.8749C10.7923 23.8442 10.8552 23.7993 10.9071 23.7431C10.9589 23.6868 10.9986 23.6205 11.0235 23.5482C11.0485 23.476 11.0583 23.3993 11.0523 23.3231L10.5557 17.0872C10.5447 16.9482 10.4818 16.8185 10.3796 16.7238C10.2773 16.6291 10.1431 16.5763 10.0037 16.576H8.40312C8.32359 16.5761 8.245 16.5932 8.17267 16.6263C8.10035 16.6593 8.03596 16.7075 7.98389 16.7676C7.93182 16.8277 7.89327 16.8983 7.87086 16.9746C7.84846 17.0509 7.84271 17.1311 7.85401 17.2099V17.2128Z" fill="white"/>
<path d="M6.96317 7.74942H10.0972L13 0H10L6.96317 7.74942Z" fill="white"/>
<path d="M23 7.74942H19.866L16.9632 0H19.9632L23 7.74942Z" fill="white"/>
</svg>
