<svg width="21" height="21" viewBox="0 0 21 21" fill="none" xmlns="http://www.w3.org/2000/svg">
<mask id="mask0" mask-type="alpha" maskUnits="userSpaceOnUse" x="0" y="0" width="21" height="21">
<circle cx="10.5" cy="10.5" r="10.5" fill="#911436"/>
</mask>
<g mask="url(#mask0)">
<circle cx="10.5" cy="10.5" r="9.5" stroke="#911436" stroke-width="2"/>
<path d="M10.5621 10.8725C12.4518 10.8725 13.9838 9.33403 13.9838 7.43624C13.9838 5.53846 12.4518 4 10.5621 4C8.67235 4 7.14041 5.53846 7.14041 7.43624C7.14041 9.33403 8.67235 10.8725 10.5621 10.8725Z" fill="#911436"/>
<path d="M3.00706 18.3318C3.47395 14.9402 6.67837 12.3154 10.5619 12.3154C14.4457 12.3154 17.6501 14.9402 18.117 18.3318C18.1817 18.802 17.7924 19.1881 17.3201 19.1881L10.5619 23.2499L3.80394 19.1881C3.33147 19.1883 2.94233 18.802 3.00706 18.3318Z" fill="#911436"/>
</g>
</svg>
