<svg id="Layer_1" data-name="Layer 1" xmlns="http://www.w3.org/2000/svg" xmlns:xlink="http://www.w3.org/1999/xlink" viewBox="0 0 128 128"><defs><style>.cls-1,.cls-2,.cls-3{fill:#8a9297;}.cls-1{clip-rule:evenodd;}.cls-3{fill-rule:evenodd;}.cls-4{clip-path:url(#clip-path);}.cls-5{clip-path:url(#clip-path-2);}.cls-6{clip-path:url(#clip-path-3);}.cls-7{clip-path:url(#clip-path-4);}.cls-8{clip-path:url(#clip-path-5);}.cls-9{clip-path:url(#clip-path-6);}.cls-10{clip-path:url(#clip-path-7);}.cls-11{clip-path:url(#clip-path-8);}.cls-12{clip-path:url(#clip-path-9);}.cls-13{clip-path:url(#clip-path-10);}.cls-14{clip-path:url(#clip-path-11);}.cls-15{clip-path:url(#clip-path-12);}.cls-16{clip-path:url(#clip-path-13);}.cls-17{clip-path:url(#clip-path-14);}.cls-18{clip-path:url(#clip-path-15);}.cls-19{clip-path:url(#clip-path-16);}.cls-20{clip-path:url(#clip-path-17);}.cls-21{clip-path:url(#clip-path-18);}.cls-22{clip-path:url(#clip-path-19);}.cls-23{clip-path:url(#clip-path-20);}.cls-24{clip-path:url(#clip-path-21);}.cls-25{clip-path:url(#clip-path-22);}.cls-26{clip-path:url(#clip-path-23);}.cls-27{clip-path:url(#clip-path-24);}.cls-28{clip-path:url(#clip-path-25);}.cls-29{clip-path:url(#clip-path-26);}.cls-30{clip-path:url(#clip-path-27);}.cls-31{clip-path:url(#clip-path-28);}.cls-32{clip-path:url(#clip-path-29);}</style><clipPath id="clip-path"><path class="cls-1" d="M902.57-1135.07h-.16l-11-.92a1.87,1.87,0,0,1-1.72-1.87v-44.32a6.45,6.45,0,0,0-1.71-4.92,6.64,6.64,0,0,0-4.5-1.45h-.17l-47.55-.53v46.91a1.88,1.88,0,0,1-.61,1.38,1.91,1.91,0,0,1-1.42.49l-9.25-.73a1.89,1.89,0,0,1-1.74-1.89c0-.3.28-29.77.22-36.75a14.71,14.71,0,0,1,3.35-9.34h-5.9a3.56,3.56,0,0,1-3.26-2.65,1.77,1.77,0,0,1-.08-.56v-6.09c0-3.06,1.89-4.32,3-4.58a1.92,1.92,0,0,1,.41,0l67.22-.92.26,0c15.86,2,16.65,15.93,16.66,16.07v.09l-.18,50.73a1.85,1.85,0,0,1-.61,1.38A1.88,1.88,0,0,1,902.57-1135.07Zm-9.11-4.53,7.23.6.18-48.64c0-.78-1-10.83-13.25-12.45l-66.6.91a1.54,1.54,0,0,0-.18.87v5.53H831a1.87,1.87,0,0,1,1.43.66l.18-.2a1.85,1.85,0,0,1,1.35-.55l49.38.55a10.38,10.38,0,0,1,7.22,2.42c2,1.79,3,4.38,3,7.71Zm-66.93-5,5.47.43v-45.12h0s-5.32,3.68-5.27,9.62S826.59-1151.13,826.53-1144.64Z"/></clipPath><clipPath id="clip-path-2"><path class="cls-1" d="M907.68-1138.54h-3.76v-49.62c-.09-1-1.31-11.3-12-12.12l.29-3.75c11.42.87,15.13,10.62,15.5,15.65v49.84Z"/></clipPath><clipPath id="clip-path-3"><path class="cls-1" d="M828.08-1206.08a1.88,1.88,0,0,1-1.88-1.87l-.12-19.84a1.87,1.87,0,0,1,1.82-1.89l9.65-.31h.09l3.42.06a1.89,1.89,0,0,1,1.85,1.92,1.88,1.88,0,0,1-1.92,1.85l-3.37-.06-7.77.24.12,18a1.88,1.88,0,0,1-1.87,1.89Z"/></clipPath><clipPath id="clip-path-4"><path class="cls-1" d="M843.72-1213.16h-.46a5,5,0,0,1-4.15-1.76,4.52,4.52,0,0,1-.8-3.49l.83-9.68c-.07-2.54.62-4.44,2.07-5.65a6,6,0,0,1,4.69-1.2l41.85-2,.23,0c2.51.51,4.26,1.53,5.19,3a4.38,4.38,0,0,1,.64,3.1c-.11,1.42-.78,9.74-1.45,12.36a5.74,5.74,0,0,1-4.77,4.33h-.18c-1.59,0-37.92.92-43.69.92m1.2-18.08a2,2,0,0,0-1.31.39,3.61,3.61,0,0,0-.7,2.73v.12l-.91,10.28a.92.92,0,0,0,.08.5,1.87,1.87,0,0,0,1.24.3c3.65.07,41.35-.85,43.87-.91a2,2,0,0,0,1.53-1.52c.52-2,1.15-9.23,1.35-11.83l0-.31c0-.55-.81-1.27-2.65-1.68l-41.83,2-.23,0a4.69,4.69,0,0,0-.48,0"/></clipPath><clipPath id="clip-path-5"><path class="cls-1" d="M880.4-1228.06a1.16,1.16,0,0,0-.93-.27,1.68,1.68,0,0,0-1,.4,2.1,2.1,0,0,0-.61,1.24s0,.1,0,.17l2-.06c.51,0,.79-.16.86-.61a1,1,0,0,0-.2-.87m1.83,1a1.43,1.43,0,0,1-.61,1.07,2.62,2.62,0,0,1-1.42.41,9.83,9.83,0,0,1-1.86,0c-.39-.08-.51-.66-.56-.82a3.89,3.89,0,0,0-.08,1.09,1.17,1.17,0,0,0,.5,1,2.16,2.16,0,0,0,1.22.24c.32,0,.66,0,1-.07s.53-.07.81-.12h0c.06,0,.14,0,.12.12l-.1.82c0,.06,0,.1-.11.14a8.22,8.22,0,0,1-1.06.25,8.42,8.42,0,0,1-1.08.11,4.64,4.64,0,0,1-1.53-.16,2,2,0,0,1-1-.58,2.16,2.16,0,0,1-.46-1,4.76,4.76,0,0,1,0-1.37l0-.4a3.89,3.89,0,0,1,1-2.33,3.62,3.62,0,0,1,2.51-.92,2.53,2.53,0,0,1,2.07.63,2.36,2.36,0,0,1,.47,1.93m-22.44-1.74-4.45.17c-.29,0-.39.2-.43.49s-.08.58-.11.82.09.32.3.31l.38,0,1.4,0c.12,0,0,0,0,0a2.36,2.36,0,0,0-1.28,1.9c0,.21-.34,2.66-.34,2.66a.88.88,0,0,0,0,.16c0,.23.14.28.23.28l.89,0h.09c.35,0,.44-.11.49-.47.06-.51.53-4.28.57-4.56l1.05,0c.48,0,1-.07,1.33.26s.22.71.15,1.26l-.37,3s0,.11,0,.16c0,.23.14.28.23.28l.89,0h.08c.35,0,.45-.11.49-.47,0-.12.48-3.76.51-4a1.87,1.87,0,0,0-2.08-2.07m25.06-.34c0-.24,0-.65-.48-.63l-.81,0a.42.42,0,0,0-.4.35l-.72,5.89c-.06.32,0,.44.21.43l1.17,0a.33.33,0,0,0,.32-.28l.09-.7s.23-1.92.43-3.51a.3.3,0,0,0-.34-.36l-1,0h-.11s0,0,0,0c.51-.1,1.49-.54,1.57-1.2m-20.64,1.93-1,0h-.11s0,0,0,0c.51-.09,1.48-.53,1.56-1.19,0-.24,0-.66-.47-.64l-.81,0a.42.42,0,0,0-.4.36l-.73,5.88c-.05.32.06.44.21.44l1.18,0a.33.33,0,0,0,.31-.29l.1-.7s.23-1.91.43-3.5a.31.31,0,0,0-.35-.37m11.31-2a3.67,3.67,0,0,0-.9-.18,9.6,9.6,0,0,0-1.08,0,3.86,3.86,0,0,0-1,.15,2.35,2.35,0,0,0-.8.36,1.89,1.89,0,0,0-.56.6,2.24,2.24,0,0,0-.29.86,1.49,1.49,0,0,0,.25,1.12,2.47,2.47,0,0,0,1.05.69l1,.38a1.75,1.75,0,0,1,.46.26.49.49,0,0,1,.14.43.62.62,0,0,1-.31.49,1.66,1.66,0,0,1-.75.17h-1.05a8.22,8.22,0,0,1-1-.06h0a.1.1,0,0,0-.11.09v0l-.12.93a.14.14,0,0,0,.13.17c.35.07.73.13,1.11.17s.81,0,1.24,0a3.24,3.24,0,0,0,1.84-.57,2,2,0,0,0,.83-1.43,1.56,1.56,0,0,0-.24-1.14,2.2,2.2,0,0,0-1-.72l-1-.41a2.35,2.35,0,0,1-.45-.22.41.41,0,0,1-.15-.42.56.56,0,0,1,.3-.47,1.93,1.93,0,0,1,.7-.13h.88a8.09,8.09,0,0,1,.86.07h.07a.12.12,0,0,0,.09-.09c0-.06,0,0,0,0l.11-.92c0-.12-.07-.16-.14-.18m-5.38,1.34a.1.1,0,0,1-.09.09H870c-.28,0-.57,0-.86-.06h-.88a1.69,1.69,0,0,0-.69.13.55.55,0,0,0-.31.47.4.4,0,0,0,.15.41,2.29,2.29,0,0,0,.45.23l1,.4a2.16,2.16,0,0,1,1,.73,1.5,1.5,0,0,1,.24,1.13,2,2,0,0,1-.82,1.44,3.3,3.3,0,0,1-1.85.56,8.25,8.25,0,0,1-1.23,0,9.43,9.43,0,0,1-1.12-.16.14.14,0,0,1-.13-.18l.12-.93v0a.1.1,0,0,1,.12-.09h0c.31,0,.66,0,1,.06s.73,0,1,0a1.76,1.76,0,0,0,.76-.16.63.63,0,0,0,.3-.49.44.44,0,0,0-.14-.43,1.51,1.51,0,0,0-.46-.27l-.95-.38a2.4,2.4,0,0,1-1.05-.69,1.38,1.38,0,0,1-.25-1.11,2.08,2.08,0,0,1,.28-.86,2,2,0,0,1,.56-.6,2.46,2.46,0,0,1,.8-.37,5.14,5.14,0,0,1,1-.15,9.6,9.6,0,0,1,1.08,0,4.76,4.76,0,0,1,.9.18c.07,0,.16.06.15.18l-.12.93v0"/></clipPath><clipPath id="clip-path-6"><path class="cls-1" d="M865-1219.87c-.37,0-.45.12-.46.25s0,.15.17.14l.24,0Zm-.35.63c-.31,0-.46-.11-.42-.36s.27-.45.8-.51h0v0a.38.38,0,0,0,0-.18s-.07-.06-.15-.06a.93.93,0,0,0-.46.18l-.05,0,0-.29h0a1.22,1.22,0,0,1,.54-.16c.2,0,.32,0,.37.16a.62.62,0,0,1,0,.31l-.11.84h-.07Z"/></clipPath><clipPath id="clip-path-7"><path class="cls-1" d="M865.82-1220.83l0-.34h.35l-.05.34Zm-.19,1.53.17-1.33h.33l-.18,1.33Z"/></clipPath><clipPath id="clip-path-8"><path class="cls-1" d="M866.67-1219.3a.92.92,0,0,1-.36-.07h0l0-.33,0,0a.43.43,0,0,0,.32.1c.13,0,.22-.06.23-.14a.11.11,0,0,0-.06-.12.66.66,0,0,0-.17-.08c-.24-.11-.31-.21-.29-.38a.54.54,0,0,1,.57-.42.76.76,0,0,1,.34.06h0l0,.3,0,0a.44.44,0,0,0-.29-.08c-.13,0-.22,0-.23.13s0,.09.19.17a.63.63,0,0,1,.25.15.27.27,0,0,1,.08.26.57.57,0,0,1-.59.43"/></clipPath><clipPath id="clip-path-9"><path class="cls-1" d="M869-1220.52a.5.5,0,0,0-.54.46c0,.27.09.41.37.4a.64.64,0,0,0,.2,0l.11-.82Zm-.09,1.75.09-.67a.77.77,0,0,1-.25,0c-.44,0-.68-.22-.62-.63a.88.88,0,0,1,.94-.75l.4,0h0l-.26,2Z"/></clipPath><clipPath id="clip-path-10"><path class="cls-1" d="M870.31-1219.46a.6.6,0,0,1-.44-.11c-.09-.07-.11-.18-.08-.39l.11-.83h.32l-.1.81c0,.22,0,.28.26.27a.91.91,0,0,0,.23,0l.14-1.07h.33l-.17,1.28h0a3.51,3.51,0,0,1-.57.08"/></clipPath><clipPath id="clip-path-11"><path class="cls-1" d="M872.31-1220.41c0-.16-.09-.23-.26-.23a.39.39,0,0,0-.36.26Zm-.38.9c-.44,0-.67-.22-.62-.64a.81.81,0,0,1,.78-.74.49.49,0,0,1,.47.21.58.58,0,0,1,.05.41v.09l-1,0v0c0,.23.12.36.38.35a.76.76,0,0,0,.46-.16l0,0,0,.29h0A1,1,0,0,1,871.93-1219.51Z"/></clipPath><clipPath id="clip-path-12"><path class="cls-1" d="M873.52-1219.6l.14-1.05h-.22l0-.25h.22v0a.79.79,0,0,1,.26-.57.77.77,0,0,1,.43-.17h.17l0,.25h-.14a.3.3,0,0,0-.23.11.54.54,0,0,0-.12.36v0h.35l0,.24H874l-.14,1.06Z"/></clipPath><clipPath id="clip-path-13"><path class="cls-1" d="M875.18-1220.26c-.37,0-.45.13-.47.25s0,.15.18.14l.24,0Zm-.35.63c-.32,0-.46-.11-.43-.36s.28-.44.81-.51h0c0-.12,0-.16,0-.19s-.06-.06-.14,0a.8.8,0,0,0-.46.17l-.06,0,0-.3h0a1.32,1.32,0,0,1,.54-.16c.2,0,.32,0,.37.16a.81.81,0,0,1,0,.32l-.11.83h-.08A4.11,4.11,0,0,1,874.83-1219.63Z"/></clipPath><clipPath id="clip-path-14"><path class="cls-1" d="M875.8-1219.69l.16-1.24h0a1.87,1.87,0,0,1,.56-.12.69.69,0,0,1,.25,0h0l0,.27,0,0a.71.71,0,0,0-.21,0l-.26.06-.14,1Z"/></clipPath><clipPath id="clip-path-15"><path class="cls-1" d="M878.54-1219.79l.11-.84c0-.19,0-.26-.22-.25a.79.79,0,0,0-.25.05.47.47,0,0,1,0,.2l-.11.86h-.32l.11-.84c0-.19,0-.26-.25-.25l-.25,0-.14,1.06h-.32l.16-1.26h0a2,2,0,0,1,.6-.11.62.62,0,0,1,.37.07,1.08,1.08,0,0,1,.45-.1.48.48,0,0,1,.41.12.4.4,0,0,1,.07.35l-.12.86Z"/></clipPath><clipPath id="clip-path-16"><path class="cls-1" d="M863.49-1219.22l.11-.83c0-.19,0-.26-.22-.26a.77.77,0,0,0-.24.06,1.49,1.49,0,0,1,0,.19l-.11.86h-.33l.11-.83c0-.2,0-.26-.24-.25a.73.73,0,0,0-.25,0l-.14,1.06h-.33l.17-1.25h0a2.39,2.39,0,0,1,.61-.11.66.66,0,0,1,.36.07,1.52,1.52,0,0,1,.46-.1.5.5,0,0,1,.41.13c.07.07.08.17.06.34l-.11.86Z"/></clipPath><clipPath id="clip-path-17"><path class="cls-1" d="M879.74-1221.32l.56-.59.3,0-.63.6Zm.26.88c-.36,0-.45.12-.46.24s0,.15.17.15a.9.9,0,0,0,.24,0Zm-.35.63c-.31,0-.46-.11-.42-.36s.27-.45.8-.51h0v0a.38.38,0,0,0,0-.18s-.07-.06-.15-.06a.93.93,0,0,0-.46.18l0,0,0-.29h0a1.22,1.22,0,0,1,.55-.16c.19,0,.31,0,.36.16a.52.52,0,0,1,0,.31l-.11.83-.07,0Z"/></clipPath><clipPath id="clip-path-18"><path class="cls-1" d="M881.24-1219.87c-.44,0-.69-.23-.63-.64a.84.84,0,0,1,.83-.74.84.84,0,0,1,.35.07h0l0,.3,0,0a.37.37,0,0,0-.29-.08.48.48,0,0,0-.49.45c0,.28.1.43.37.42a.7.7,0,0,0,.34-.12l.05,0,0,.28h0a1,1,0,0,1-.41.11"/></clipPath><clipPath id="clip-path-19"><path class="cls-1" d="M882.11-1221.45l0-.34h.34l0,.33Zm-.19,1.53.18-1.33.32,0-.17,1.34Z"/></clipPath><clipPath id="clip-path-20"><path class="cls-1" d="M883.39-1220.57c-.37,0-.45.12-.47.25s0,.15.18.14l.24,0Zm-.35.63c-.32,0-.46-.11-.43-.36s.28-.45.81-.51h0v0c0-.11,0-.16,0-.18s-.06-.06-.14-.06a.9.9,0,0,0-.46.18l-.06,0,0-.29h0a1.18,1.18,0,0,1,.54-.16c.2,0,.32,0,.37.16a.77.77,0,0,1,0,.31l-.11.83-.08,0Z"/></clipPath><clipPath id="clip-path-21"><path class="cls-1" d="M851.82-1224.85l-.55,3.11a4.37,4.37,0,0,0,2.8-3.19Z"/></clipPath><clipPath id="clip-path-22"><path class="cls-1" d="M852.2-1226.86l1.67-.06a4.08,4.08,0,0,0-1.35-1.74Z"/></clipPath><clipPath id="clip-path-23"><path class="cls-1" d="M849.44-1223.07c.13-.51.3-1.37,1.88-1.71.13,0,.12,0,0,0l-5.1.19c0-.27.19-1.1.25-1.41.1-.5.36-.6.83-.62l2.78-.11.51-2.77a5.63,5.63,0,0,0-1.49-.14c-2.68.1-4.78,2-4.69,4.35s2.14,3.93,4.67,4Z"/></clipPath><clipPath id="clip-path-24"><polygon class="cls-1" points="865.44 -1139.59 834.9 -1141.99 835.2 -1145.74 861.67 -1143.66 861.58 -1190.8 865.35 -1190.81 865.44 -1139.59"/></clipPath><clipPath id="clip-path-25"><rect class="cls-2" x="875.59" y="-1154.53" width="3.76" height="27.92" transform="translate(1948.6 -179.55) rotate(-85.67)"/></clipPath><clipPath id="clip-path-26"><path class="cls-1" d="M869.11-1156.26a1.89,1.89,0,0,1-1.62-.92,1.88,1.88,0,0,1,.66-2.58l1-.61v-1.9l-1.52-1.26a1.88,1.88,0,0,1-.24-2.65,1.88,1.88,0,0,1,2.65-.24l2.19,1.83a1.89,1.89,0,0,1,.68,1.44v3.85a1.88,1.88,0,0,1-.92,1.62l-1.95,1.16a1.88,1.88,0,0,1-1,.26"/></clipPath><clipPath id="clip-path-27"><path class="cls-1" d="M857.37-1156.8a1.9,1.9,0,0,1-1-.26l-1.95-1.16a1.88,1.88,0,0,1-.92-1.62v-3.84a1.89,1.89,0,0,1,.68-1.45l2.19-1.83a1.88,1.88,0,0,1,2.65.24,1.88,1.88,0,0,1-.24,2.65l-1.52,1.27v1.89l1,.62a1.87,1.87,0,0,1,.66,2.57,1.85,1.85,0,0,1-1.62.92"/></clipPath><clipPath id="clip-path-28"><path class="cls-2" d="M548.44-766.13H464.92l35.55-33.82a3.29,3.29,0,0,0,0-4.93,3.7,3.7,0,0,0-5.18,0l-42,39.81a3.29,3.29,0,0,0,0,4.93l41.85,39.81a3.71,3.71,0,0,0,5.19,0,3.29,3.29,0,0,0,0-4.93l-35.37-33.82h83.52a3.63,3.63,0,0,0,3.7-3.52A3.63,3.63,0,0,0,548.44-766.13Z"/></clipPath><clipPath id="clip-path-29"><path class="cls-2" d="M307.84-766.13h83.52l-35.55-33.82a3.28,3.28,0,0,1,0-4.93,3.7,3.7,0,0,1,5.18,0l42,39.81a3.29,3.29,0,0,1,0,4.93l-41.85,39.81a3.71,3.71,0,0,1-5.19,0,3.29,3.29,0,0,1,0-4.93l35.37-33.82H307.84a3.63,3.63,0,0,1-3.7-3.52A3.63,3.63,0,0,1,307.84-766.13Z"/></clipPath></defs><title>icon</title><path class="cls-2" d="M34.69,88.39a28.5,28.5,0,0,1,6.2,2.37A43,43,0,0,0,53.54,95v3.09H34.69V88.39m-7-7.92v24.6H60.54V88.61a36.41,36.41,0,0,1-16.42-4.07,36.58,36.58,0,0,0-16.43-4.07Z"/><path class="cls-2" d="M111.72,82.43S94,90.6,88.32,91c-2.36.17-7.58-2.25-14.53-6.23,1.24-.33,2.46-.68,3.59-1a34.49,34.49,0,0,1,5.68-1.36c1,0,2-.05,3-.05a87.19,87.19,0,0,1,16,1.47,3,3,0,0,0,.61.06,3.15,3.15,0,0,0,.63-6.24,92.89,92.89,0,0,0-17-1.58c-1.15,0-2.31,0-3.46.07h-.13a35.88,35.88,0,0,0-7,1.64c-5.54,1.66-8.23,2-9.51,2a4,4,0,0,1-.54,0L65,79.39a3.42,3.42,0,0,1-.25-2.93c.43-1.13,2.24-4,9.71-5.65a66.27,66.27,0,0,1,9.82-1.46c2.12-.2,4.44-.42,7.63-.84a12.85,12.85,0,0,0,4.24-1.81l.48-.27a46.26,46.26,0,0,1,17.49-6.91,3.15,3.15,0,1,0-1-6.23S101.36,55.77,93.44,61a13.92,13.92,0,0,1-2.58,1.31c-2.8.37-4.91.58-7.2.79-1.31.12-2.35.23-3.41.35C78.79,62.74,77.36,62,76,61.19A24.69,24.69,0,0,0,56.44,43.81V29.09A2,2,0,0,0,54.38,27H48.22V14.71H81.08a4.11,4.11,0,1,0,0-8.21H31.79a4.11,4.11,0,0,0,0,8.21H40V27H33.85a2,2,0,0,0-2.06,2.05V43.81a24.68,24.68,0,0,0-20.53,24.3V121.5H77V93.63c4.35,2.11,8.52,3.68,11.35,3.68,3.89,0,12.56-3,25.75-9a3.21,3.21,0,0,0,1.76-4.12A3.14,3.14,0,0,0,111.72,82.43ZM65.55,68.81c-5.49-3-8.51-5-10.69-6.41a35.46,35.46,0,0,0-7.68-4.11A17.2,17.2,0,0,0,40.3,56.8a11.78,11.78,0,0,1,9,.66c2.73,1.37,5.56,3.12,8,4.68,1.78,1.07,3.36,2.09,4.76,2.85,1.06.58,3.49,1.72,5.65,2.73A22.16,22.16,0,0,0,65.55,68.81Zm-3.09,2.34a9.73,9.73,0,0,0-2.36,3.57,7.92,7.92,0,0,0-.53,2.72c-9.78-6.7-18.33-13.58-19.34-15.9a3.15,3.15,0,0,1-.29-1.09c.45-.19,2.21-.28,6,1.17a31.45,31.45,0,0,1,7,3.77C55,66.74,57.73,68.53,62.46,71.15ZM73.32,66l-.55.14c-1.78-.81-7.28-3.35-8.91-4.26-1-.52-2.08-1.19-3.28-1.93v-.07a3.67,3.67,0,0,1,1-.11c1.72,0,7.65,3.31,11.2,5.28l1.38.77Zm-4.56,47.32H19.47V68.11A16.45,16.45,0,0,1,35.9,51.68,4.11,4.11,0,0,0,40,47.57V35.25h8.21V47.57a4.11,4.11,0,0,0,4.11,4.11A16.33,16.33,0,0,1,62,54.85c-.15,0-.3,0-.44,0a6.65,6.65,0,0,0-4.48,1.37c-1.66-1-3.63-2.15-5.59-3.13A16.53,16.53,0,0,0,44,51.3a15,15,0,0,0-7.54,1.88,5,5,0,0,0-2.41,3.54.17.17,0,0,0,0,.07,6.46,6.46,0,0,0,1,4.07,7.69,7.69,0,0,0,.69,2.66c1.68,3.91,13.86,13.36,25.05,20.7a5.89,5.89,0,0,0,1.92,1.23c1.74,1.12,3.83,2.41,6.07,3.73Z"/><path class="cls-2" d="M94.3,37.37c-.08-2.65-2-5.21-4-7.91A30.6,30.6,0,0,1,87.67,25a3.39,3.39,0,0,0-2.4-2.24,2.73,2.73,0,0,0-.57,0c-1.28.06-2.2.89-2.71,2.45a30.75,30.75,0,0,1-2.42,4.6c-1.83,2.82-3.56,5.48-3.48,8.13a9.14,9.14,0,0,0,7.51,8.71,8.87,8.87,0,0,0,1.86.13,9.1,9.1,0,0,0,8.84-9.37Zm-6.69,2.55a3.27,3.27,0,0,1-2.32,1,3.07,3.07,0,0,1-.68-.05,3.33,3.33,0,0,1-2.74-3.18c0-.85,1.63-3.4,2.53-4.78l0,0L85,32l.46.62.2.28c1,1.33,2.81,3.81,2.83,4.66A3.29,3.29,0,0,1,87.61,39.92Z"/><path class="cls-3" d="M902.57-1135.07h-.16l-11-.92a1.87,1.87,0,0,1-1.72-1.87v-44.32a6.45,6.45,0,0,0-1.71-4.92,6.64,6.64,0,0,0-4.5-1.45h-.17l-47.55-.53v46.91a1.88,1.88,0,0,1-.61,1.38,1.91,1.91,0,0,1-1.42.49l-9.25-.73a1.89,1.89,0,0,1-1.74-1.89c0-.3.28-29.77.22-36.75a14.71,14.71,0,0,1,3.35-9.34h-5.9a3.56,3.56,0,0,1-3.26-2.65,1.77,1.77,0,0,1-.08-.56v-6.09c0-3.06,1.89-4.32,3-4.58a1.92,1.92,0,0,1,.41,0l67.22-.92.26,0c15.86,2,16.65,15.93,16.66,16.07v.09l-.18,50.73a1.85,1.85,0,0,1-.61,1.38A1.88,1.88,0,0,1,902.57-1135.07Zm-9.11-4.53,7.23.6.18-48.64c0-.78-1-10.83-13.25-12.45l-66.6.91a1.54,1.54,0,0,0-.18.87v5.53H831a1.87,1.87,0,0,1,1.43.66l.18-.2a1.85,1.85,0,0,1,1.35-.55l49.38.55a10.38,10.38,0,0,1,7.22,2.42c2,1.79,3,4.38,3,7.71Zm-66.93-5,5.47.43v-45.12h0s-5.32,3.68-5.27,9.62S826.59-1151.13,826.53-1144.64Z"/><g class="cls-4"><rect class="cls-2" x="-3680.7" y="-3719" width="6348.4" height="5052.27"/></g><path class="cls-3" d="M907.68-1138.54h-3.76v-49.62c-.09-1-1.31-11.3-12-12.12l.29-3.75c11.42.87,15.13,10.62,15.5,15.65v49.84Z"/><g class="cls-5"><rect class="cls-2" x="-3680.7" y="-3719" width="6348.4" height="5052.27"/></g><path class="cls-3" d="M828.08-1206.08a1.88,1.88,0,0,1-1.88-1.87l-.12-19.84a1.87,1.87,0,0,1,1.82-1.89l9.65-.31h.09l3.42.06a1.89,1.89,0,0,1,1.85,1.92,1.88,1.88,0,0,1-1.92,1.85l-3.37-.06-7.77.24.12,18a1.88,1.88,0,0,1-1.87,1.89Z"/><g class="cls-6"><rect class="cls-2" x="-3680.7" y="-3719" width="6348.4" height="5052.27"/></g><path class="cls-3" d="M843.72-1213.16h-.46a5,5,0,0,1-4.15-1.76,4.52,4.52,0,0,1-.8-3.49l.83-9.68c-.07-2.54.62-4.44,2.07-5.65a6,6,0,0,1,4.69-1.2l41.85-2,.23,0c2.51.51,4.26,1.53,5.19,3a4.38,4.38,0,0,1,.64,3.1c-.11,1.42-.78,9.74-1.45,12.36a5.74,5.74,0,0,1-4.77,4.33h-.18c-1.59,0-37.92.92-43.69.92m1.2-18.08a2,2,0,0,0-1.31.39,3.61,3.61,0,0,0-.7,2.73v.12l-.91,10.28a.92.92,0,0,0,.08.5,1.87,1.87,0,0,0,1.24.3c3.65.07,41.35-.85,43.87-.91a2,2,0,0,0,1.53-1.52c.52-2,1.15-9.23,1.35-11.83l0-.31c0-.55-.81-1.27-2.65-1.68l-41.83,2-.23,0a4.69,4.69,0,0,0-.48,0"/><g class="cls-7"><rect class="cls-2" x="-3680.7" y="-3719" width="6348.4" height="5052.27"/></g><path class="cls-3" d="M880.4-1228.06a1.16,1.16,0,0,0-.93-.27,1.68,1.68,0,0,0-1,.4,2.1,2.1,0,0,0-.61,1.24s0,.1,0,.17l2-.06c.51,0,.79-.16.86-.61a1,1,0,0,0-.2-.87m1.83,1a1.43,1.43,0,0,1-.61,1.07,2.62,2.62,0,0,1-1.42.41,9.83,9.83,0,0,1-1.86,0c-.39-.08-.51-.66-.56-.82a3.89,3.89,0,0,0-.08,1.09,1.17,1.17,0,0,0,.5,1,2.16,2.16,0,0,0,1.22.24c.32,0,.66,0,1-.07s.53-.07.81-.12h0c.06,0,.14,0,.12.12l-.1.82c0,.06,0,.1-.11.14a8.22,8.22,0,0,1-1.06.25,8.42,8.42,0,0,1-1.08.11,4.64,4.64,0,0,1-1.53-.16,2,2,0,0,1-1-.58,2.16,2.16,0,0,1-.46-1,4.76,4.76,0,0,1,0-1.37l0-.4a3.89,3.89,0,0,1,1-2.33,3.62,3.62,0,0,1,2.51-.92,2.53,2.53,0,0,1,2.07.63,2.36,2.36,0,0,1,.47,1.93m-22.44-1.74-4.45.17c-.29,0-.39.2-.43.49s-.08.58-.11.82.09.32.3.31l.38,0,1.4,0c.12,0,0,0,0,0a2.36,2.36,0,0,0-1.28,1.9c0,.21-.34,2.66-.34,2.66a.88.88,0,0,0,0,.16c0,.23.14.28.23.28l.89,0h.09c.35,0,.44-.11.49-.47.06-.51.53-4.28.57-4.56l1.05,0c.48,0,1-.07,1.33.26s.22.71.15,1.26l-.37,3s0,.11,0,.16c0,.23.14.28.23.28l.89,0h.08c.35,0,.45-.11.49-.47,0-.12.48-3.76.51-4a1.87,1.87,0,0,0-2.08-2.07m25.06-.34c0-.24,0-.65-.48-.63l-.81,0a.42.42,0,0,0-.4.35l-.72,5.89c-.06.32,0,.44.21.43l1.17,0a.33.33,0,0,0,.32-.28l.09-.7s.23-1.92.43-3.51a.3.3,0,0,0-.34-.36l-1,0h-.11s0,0,0,0c.51-.1,1.49-.54,1.57-1.2m-20.64,1.93-1,0h-.11s0,0,0,0c.51-.09,1.48-.53,1.56-1.19,0-.24,0-.66-.47-.64l-.81,0a.42.42,0,0,0-.4.36l-.73,5.88c-.05.32.06.44.21.44l1.18,0a.33.33,0,0,0,.31-.29l.1-.7s.23-1.91.43-3.5a.31.31,0,0,0-.35-.37m11.31-2a3.67,3.67,0,0,0-.9-.18,9.6,9.6,0,0,0-1.08,0,3.86,3.86,0,0,0-1,.15,2.35,2.35,0,0,0-.8.36,1.89,1.89,0,0,0-.56.6,2.24,2.24,0,0,0-.29.86,1.49,1.49,0,0,0,.25,1.12,2.47,2.47,0,0,0,1.05.69l1,.38a1.75,1.75,0,0,1,.46.26.49.49,0,0,1,.14.43.62.62,0,0,1-.31.49,1.66,1.66,0,0,1-.75.17h-1.05a8.22,8.22,0,0,1-1-.06h0a.1.1,0,0,0-.11.09v0l-.12.93a.14.14,0,0,0,.13.17c.35.07.73.13,1.11.17s.81,0,1.24,0a3.24,3.24,0,0,0,1.84-.57,2,2,0,0,0,.83-1.43,1.56,1.56,0,0,0-.24-1.14,2.2,2.2,0,0,0-1-.72l-1-.41a2.35,2.35,0,0,1-.45-.22.41.41,0,0,1-.15-.42.56.56,0,0,1,.3-.47,1.93,1.93,0,0,1,.7-.13h.88a8.09,8.09,0,0,1,.86.07h.07a.12.12,0,0,0,.09-.09c0-.06,0,0,0,0l.11-.92c0-.12-.07-.16-.14-.18m-5.38,1.34a.1.1,0,0,1-.09.09H870c-.28,0-.57,0-.86-.06h-.88a1.69,1.69,0,0,0-.69.13.55.55,0,0,0-.31.47.4.4,0,0,0,.15.41,2.29,2.29,0,0,0,.45.23l1,.4a2.16,2.16,0,0,1,1,.73,1.5,1.5,0,0,1,.24,1.13,2,2,0,0,1-.82,1.44,3.3,3.3,0,0,1-1.85.56,8.25,8.25,0,0,1-1.23,0,9.43,9.43,0,0,1-1.12-.16.14.14,0,0,1-.13-.18l.12-.93v0a.1.1,0,0,1,.12-.09h0c.31,0,.66,0,1,.06s.73,0,1,0a1.76,1.76,0,0,0,.76-.16.63.63,0,0,0,.3-.49.44.44,0,0,0-.14-.43,1.51,1.51,0,0,0-.46-.27l-.95-.38a2.4,2.4,0,0,1-1.05-.69,1.38,1.38,0,0,1-.25-1.11,2.08,2.08,0,0,1,.28-.86,2,2,0,0,1,.56-.6,2.46,2.46,0,0,1,.8-.37,5.14,5.14,0,0,1,1-.15,9.6,9.6,0,0,1,1.08,0,4.76,4.76,0,0,1,.9.18c.07,0,.16.06.15.18l-.12.93v0"/><g class="cls-8"><rect class="cls-2" x="-3680.7" y="-3719" width="6348.4" height="5052.27"/></g><path class="cls-3" d="M865-1219.87c-.37,0-.45.12-.46.25s0,.15.17.14l.24,0Zm-.35.63c-.31,0-.46-.11-.42-.36s.27-.45.8-.51h0v0a.38.38,0,0,0,0-.18s-.07-.06-.15-.06a.93.93,0,0,0-.46.18l-.05,0,0-.29h0a1.22,1.22,0,0,1,.54-.16c.2,0,.32,0,.37.16a.62.62,0,0,1,0,.31l-.11.84h-.07Z"/><g class="cls-9"><rect class="cls-2" x="-3680.7" y="-3719" width="6348.4" height="5052.27"/></g><path class="cls-3" d="M865.82-1220.83l0-.34h.35l-.05.34Zm-.19,1.53.17-1.33h.33l-.18,1.33Z"/><g class="cls-10"><rect class="cls-2" x="-3680.7" y="-3719" width="6348.4" height="5052.27"/></g><path class="cls-3" d="M866.67-1219.3a.92.92,0,0,1-.36-.07h0l0-.33,0,0a.43.43,0,0,0,.32.1c.13,0,.22-.06.23-.14a.11.11,0,0,0-.06-.12.66.66,0,0,0-.17-.08c-.24-.11-.31-.21-.29-.38a.54.54,0,0,1,.57-.42.76.76,0,0,1,.34.06h0l0,.3,0,0a.44.44,0,0,0-.29-.08c-.13,0-.22,0-.23.13s0,.09.19.17a.63.63,0,0,1,.25.15.27.27,0,0,1,.08.26.57.57,0,0,1-.59.43"/><g class="cls-11"><rect class="cls-2" x="-3680.7" y="-3719" width="6348.4" height="5052.27"/></g><path class="cls-3" d="M869-1220.52a.5.5,0,0,0-.54.46c0,.27.09.41.37.4a.64.64,0,0,0,.2,0l.11-.82Zm-.09,1.75.09-.67a.77.77,0,0,1-.25,0c-.44,0-.68-.22-.62-.63a.88.88,0,0,1,.94-.75l.4,0h0l-.26,2Z"/><g class="cls-12"><rect class="cls-2" x="-3680.7" y="-3719" width="6348.4" height="5052.27"/></g><path class="cls-3" d="M870.31-1219.46a.6.6,0,0,1-.44-.11c-.09-.07-.11-.18-.08-.39l.11-.83h.32l-.1.81c0,.22,0,.28.26.27a.91.91,0,0,0,.23,0l.14-1.07h.33l-.17,1.28h0a3.51,3.51,0,0,1-.57.08"/><g class="cls-13"><rect class="cls-2" x="-3680.7" y="-3719" width="6348.4" height="5052.27"/></g><path class="cls-3" d="M872.31-1220.41c0-.16-.09-.23-.26-.23a.39.39,0,0,0-.36.26Zm-.38.9c-.44,0-.67-.22-.62-.64a.81.81,0,0,1,.78-.74.49.49,0,0,1,.47.21.58.58,0,0,1,.05.41v.09l-1,0v0c0,.23.12.36.38.35a.76.76,0,0,0,.46-.16l0,0,0,.29h0A1,1,0,0,1,871.93-1219.51Z"/><g class="cls-14"><rect class="cls-2" x="-3680.7" y="-3719" width="6348.4" height="5052.27"/></g><path class="cls-3" d="M873.52-1219.6l.14-1.05h-.22l0-.25h.22v0a.79.79,0,0,1,.26-.57.77.77,0,0,1,.43-.17h.17l0,.25h-.14a.3.3,0,0,0-.23.11.54.54,0,0,0-.12.36v0h.35l0,.24H874l-.14,1.06Z"/><g class="cls-15"><rect class="cls-2" x="-3680.7" y="-3719" width="6348.4" height="5052.27"/></g><path class="cls-3" d="M875.18-1220.26c-.37,0-.45.13-.47.25s0,.15.18.14l.24,0Zm-.35.63c-.32,0-.46-.11-.43-.36s.28-.44.81-.51h0c0-.12,0-.16,0-.19s-.06-.06-.14,0a.8.8,0,0,0-.46.17l-.06,0,0-.3h0a1.32,1.32,0,0,1,.54-.16c.2,0,.32,0,.37.16a.81.81,0,0,1,0,.32l-.11.83h-.08A4.11,4.11,0,0,1,874.83-1219.63Z"/><g class="cls-16"><rect class="cls-2" x="-3680.7" y="-3719" width="6348.4" height="5052.27"/></g><path class="cls-3" d="M875.8-1219.69l.16-1.24h0a1.87,1.87,0,0,1,.56-.12.69.69,0,0,1,.25,0h0l0,.27,0,0a.71.71,0,0,0-.21,0l-.26.06-.14,1Z"/><g class="cls-17"><rect class="cls-2" x="-3680.7" y="-3719" width="6348.4" height="5052.27"/></g><path class="cls-3" d="M878.54-1219.79l.11-.84c0-.19,0-.26-.22-.25a.79.79,0,0,0-.25.05.47.47,0,0,1,0,.2l-.11.86h-.32l.11-.84c0-.19,0-.26-.25-.25l-.25,0-.14,1.06h-.32l.16-1.26h0a2,2,0,0,1,.6-.11.62.62,0,0,1,.37.07,1.08,1.08,0,0,1,.45-.1.48.48,0,0,1,.41.12.4.4,0,0,1,.07.35l-.12.86Z"/><g class="cls-18"><rect class="cls-2" x="-3680.7" y="-3719" width="6348.4" height="5052.27"/></g><path class="cls-3" d="M863.49-1219.22l.11-.83c0-.19,0-.26-.22-.26a.77.77,0,0,0-.24.06,1.49,1.49,0,0,1,0,.19l-.11.86h-.33l.11-.83c0-.2,0-.26-.24-.25a.73.73,0,0,0-.25,0l-.14,1.06h-.33l.17-1.25h0a2.39,2.39,0,0,1,.61-.11.66.66,0,0,1,.36.07,1.52,1.52,0,0,1,.46-.1.5.5,0,0,1,.41.13c.07.07.08.17.06.34l-.11.86Z"/><g class="cls-19"><rect class="cls-2" x="-3680.7" y="-3719" width="6348.4" height="5052.27"/></g><path class="cls-3" d="M879.74-1221.32l.56-.59.3,0-.63.6Zm.26.88c-.36,0-.45.12-.46.24s0,.15.17.15a.9.9,0,0,0,.24,0Zm-.35.63c-.31,0-.46-.11-.42-.36s.27-.45.8-.51h0v0a.38.38,0,0,0,0-.18s-.07-.06-.15-.06a.93.93,0,0,0-.46.18l0,0,0-.29h0a1.22,1.22,0,0,1,.55-.16c.19,0,.31,0,.36.16a.52.52,0,0,1,0,.31l-.11.83-.07,0Z"/><g class="cls-20"><rect class="cls-2" x="-3680.7" y="-3719" width="6348.4" height="5052.27"/></g><path class="cls-3" d="M881.24-1219.87c-.44,0-.69-.23-.63-.64a.84.84,0,0,1,.83-.74.84.84,0,0,1,.35.07h0l0,.3,0,0a.37.37,0,0,0-.29-.08.48.48,0,0,0-.49.45c0,.28.1.43.37.42a.7.7,0,0,0,.34-.12l.05,0,0,.28h0a1,1,0,0,1-.41.11"/><g class="cls-21"><rect class="cls-2" x="-3680.7" y="-3719" width="6348.4" height="5052.27"/></g><path class="cls-3" d="M882.11-1221.45l0-.34h.34l0,.33Zm-.19,1.53.18-1.33.32,0-.17,1.34Z"/><g class="cls-22"><rect class="cls-2" x="-3680.7" y="-3719" width="6348.4" height="5052.27"/></g><path class="cls-3" d="M883.39-1220.57c-.37,0-.45.12-.47.25s0,.15.18.14l.24,0Zm-.35.63c-.32,0-.46-.11-.43-.36s.28-.45.81-.51h0v0c0-.11,0-.16,0-.18s-.06-.06-.14-.06a.9.9,0,0,0-.46.18l-.06,0,0-.29h0a1.18,1.18,0,0,1,.54-.16c.2,0,.32,0,.37.16a.77.77,0,0,1,0,.31l-.11.83-.08,0Z"/><g class="cls-23"><rect class="cls-2" x="-3680.7" y="-3719" width="6348.4" height="5052.27"/></g><path class="cls-3" d="M851.82-1224.85l-.55,3.11a4.37,4.37,0,0,0,2.8-3.19Z"/><g class="cls-24"><rect class="cls-2" x="-3680.7" y="-3719" width="6348.4" height="5052.27"/></g><path class="cls-3" d="M852.2-1226.86l1.67-.06a4.08,4.08,0,0,0-1.35-1.74Z"/><g class="cls-25"><rect class="cls-2" x="-3680.7" y="-3719" width="6348.4" height="5052.27"/></g><path class="cls-3" d="M849.44-1223.07c.13-.51.3-1.37,1.88-1.71.13,0,.12,0,0,0l-5.1.19c0-.27.19-1.1.25-1.41.1-.5.36-.6.83-.62l2.78-.11.51-2.77a5.63,5.63,0,0,0-1.49-.14c-2.68.1-4.78,2-4.69,4.35s2.14,3.93,4.67,4Z"/><g class="cls-26"><rect class="cls-2" x="-3680.7" y="-3719" width="6348.4" height="5052.27"/></g><polygon class="cls-3" points="865.44 -1139.59 834.9 -1141.99 835.2 -1145.74 861.67 -1143.66 861.58 -1190.8 865.35 -1190.81 865.44 -1139.59"/><g class="cls-27"><rect class="cls-2" x="-3680.7" y="-3719" width="6348.4" height="5052.27"/></g><rect class="cls-2" x="875.59" y="-1154.53" width="3.76" height="27.92" transform="translate(1948.6 -179.55) rotate(-85.67)"/><g class="cls-28"><rect class="cls-2" x="-3680.7" y="-3719" width="6348.4" height="5052.27"/></g><path class="cls-3" d="M869.11-1156.26a1.89,1.89,0,0,1-1.62-.92,1.88,1.88,0,0,1,.66-2.58l1-.61v-1.9l-1.52-1.26a1.88,1.88,0,0,1-.24-2.65,1.88,1.88,0,0,1,2.65-.24l2.19,1.83a1.89,1.89,0,0,1,.68,1.44v3.85a1.88,1.88,0,0,1-.92,1.62l-1.95,1.16a1.88,1.88,0,0,1-1,.26"/><g class="cls-29"><rect class="cls-2" x="-3680.7" y="-3719" width="6348.4" height="5052.27"/></g><path class="cls-3" d="M857.37-1156.8a1.9,1.9,0,0,1-1-.26l-1.95-1.16a1.88,1.88,0,0,1-.92-1.62v-3.84a1.89,1.89,0,0,1,.68-1.45l2.19-1.83a1.88,1.88,0,0,1,2.65.24,1.88,1.88,0,0,1-.24,2.65l-1.52,1.27v1.89l1,.62a1.87,1.87,0,0,1,.66,2.57,1.85,1.85,0,0,1-1.62.92"/><g class="cls-30"><rect class="cls-2" x="-3680.7" y="-3719" width="6348.4" height="5052.27"/></g><path class="cls-2" d="M548.44-766.13H464.92l35.55-33.82a3.29,3.29,0,0,0,0-4.93,3.7,3.7,0,0,0-5.18,0l-42,39.81a3.29,3.29,0,0,0,0,4.93l41.85,39.81a3.71,3.71,0,0,0,5.19,0,3.29,3.29,0,0,0,0-4.93l-35.37-33.82h83.52a3.63,3.63,0,0,0,3.7-3.52A3.63,3.63,0,0,0,548.44-766.13Z"/><g class="cls-31"><rect class="cls-2" x="-247.86" y="-3499.27" width="9600" height="25640"/></g><path class="cls-2" d="M307.84-766.13h83.52l-35.55-33.82a3.28,3.28,0,0,1,0-4.93,3.7,3.7,0,0,1,5.18,0l42,39.81a3.29,3.29,0,0,1,0,4.93l-41.85,39.81a3.71,3.71,0,0,1-5.19,0,3.29,3.29,0,0,1,0-4.93l35.37-33.82H307.84a3.63,3.63,0,0,1-3.7-3.52A3.63,3.63,0,0,1,307.84-766.13Z"/><g class="cls-32"><rect class="cls-2" x="-8495.86" y="-3499.27" width="9600" height="25640"/></g></svg>