<svg width="18" height="19" viewBox="0 0 18 19" fill="none" xmlns="http://www.w3.org/2000/svg">
<path d="M1.23975 7.02604H16.7489C17.0807 7.02604 17.3989 7.15785 17.6336 7.39248C17.8682 7.62711 18 7.94533 18 8.27714V9.86516C18 10.0295 17.9676 10.1921 17.9048 10.3439C17.8419 10.4957 17.7497 10.6336 17.6336 10.7498C17.5174 10.866 17.3795 10.9582 17.2277 11.021C17.0759 11.0839 16.9132 11.1163 16.7489 11.1163H16.3117L15.0568 17.0803C15.006 17.3094 14.9045 17.5241 14.7596 17.7087C14.6077 17.9023 14.424 18.0687 14.2164 18.2008C13.9971 18.3415 13.7587 18.4499 13.5085 18.5226C13.243 18.6008 12.9676 18.6404 12.6909 18.6399H5.30915C5.03554 18.6395 4.76339 18.5999 4.50095 18.5226C4.25075 18.4499 4.01234 18.3415 3.79306 18.2008C3.5854 18.0687 3.40171 17.9023 3.24984 17.7087C3.10162 17.525 2.9968 17.3102 2.94322 17.0803L1.68833 11.1163H1.2511C1.08681 11.1163 0.924118 11.0839 0.772327 11.021C0.620536 10.9582 0.482616 10.866 0.36644 10.7498C0.250264 10.6336 0.158108 10.4957 0.0952346 10.3439C0.0323607 10.1921 0 10.0295 0 9.86516V8.27714C0 7.94533 0.131812 7.62711 0.36644 7.39248C0.601067 7.15785 0.919291 7.02604 1.2511 7.02604H1.23975ZM11.4095 15.8406C11.4056 15.8899 11.4119 15.9396 11.4281 15.9865C11.4443 16.0333 11.47 16.0763 11.5036 16.1127C11.5372 16.1491 11.5779 16.1782 11.6233 16.1982C11.6686 16.2181 11.7176 16.2285 11.7672 16.2286H12.5129C12.5992 16.2286 12.6825 16.1977 12.7478 16.1414C12.8131 16.0851 12.8561 16.0072 12.8688 15.9219L13.482 11.8809C13.4899 11.8296 13.4867 11.7772 13.4724 11.7273C13.4582 11.6774 13.4333 11.6312 13.3995 11.5918C13.3657 11.5524 13.3237 11.5208 13.2766 11.4992C13.2294 11.4775 13.1781 11.4664 13.1262 11.4664H12.0909C12.0005 11.4666 11.9136 11.5008 11.8473 11.5622C11.781 11.6235 11.7403 11.7076 11.7331 11.7976L11.4095 15.8406ZM8.07823 11.8412L8.22397 15.8822C8.22741 15.9753 8.2668 16.0634 8.33388 16.128C8.40095 16.1926 8.49047 16.2286 8.5836 16.2286H9.4164C9.50953 16.2286 9.59905 16.1926 9.66612 16.128C9.7332 16.0634 9.77259 15.9753 9.77602 15.8822L9.92177 11.8412C9.92434 11.7924 9.91694 11.7436 9.90002 11.6977C9.8831 11.6519 9.85702 11.61 9.82337 11.5746C9.78971 11.5391 9.7492 11.5109 9.70428 11.4917C9.65937 11.4725 9.61101 11.4626 9.56215 11.4626H8.43218C8.38379 11.4633 8.33605 11.4738 8.2918 11.4934C8.24756 11.513 8.20772 11.5413 8.17467 11.5766C8.14162 11.612 8.11605 11.6536 8.09948 11.6991C8.08291 11.7445 8.07568 11.7929 8.07823 11.8412ZM4.51798 11.8828L5.13123 15.9238C5.14394 16.0091 5.18686 16.087 5.25217 16.1433C5.31749 16.1995 5.40085 16.2305 5.48707 16.2305H6.23281C6.28236 16.2303 6.33136 16.22 6.37672 16.2001C6.42209 16.1801 6.46285 16.151 6.49644 16.1146C6.53003 16.0782 6.55572 16.0352 6.57192 15.9883C6.58811 15.9415 6.59445 15.8918 6.59054 15.8424L6.26877 11.8014C6.26164 11.7114 6.22088 11.6273 6.1546 11.5659C6.08832 11.5046 6.00137 11.4704 5.91104 11.4702H4.87382C4.82228 11.4702 4.77136 11.4813 4.72449 11.5027C4.67761 11.5242 4.63589 11.5554 4.60215 11.5943C4.56841 11.6333 4.54343 11.679 4.5289 11.7285C4.51438 11.7779 4.51066 11.8299 4.51798 11.8809V11.8828Z" fill="#911436"/>
<path d="M3.94069 5.75033H5.97161L7.85271 0.728516H5.90864L3.94069 5.75033Z" fill="#911436"/>
<path d="M14.333 5.75033H12.302L10.4209 0.728516H12.365L14.333 5.75033Z" fill="#911436"/>
</svg>
