<?xml version="1.0" encoding="utf-8"?>
<!-- Generator: Adobe Illustrator 23.0.6, SVG Export Plug-In . SVG Version: 6.00 Build 0)  -->
<svg version="1.1" id="Layer_1" xmlns="http://www.w3.org/2000/svg" xmlns:xlink="http://www.w3.org/1999/xlink" x="0px" y="0px"
	 viewBox="0 0 128 128" style="enable-background:new 0 0 128 128;" xml:space="preserve">
<style type="text/css">
	.st0{fill:#73818F;}
</style>
<title>icon_venda-mais</title>
<path class="st0" d="M100.5,44.5H84.2V30.6C83.8,19.9,74.7,11.6,64,12.1c-10,0.5-18,8.5-18.5,18.5v13.9H29.3
	c-10.7-0.3-18.6,8-19,18.7c-0.3,10.5,6.7,19.3,17.1,20c0.6,0,1.2,0,1.9,0h16.3V97c0.5,10.7,9.5,18.9,20.2,18.5
	c10-0.5,18-8.5,18.5-18.5V83.2h16.3c10.7-0.5,18.9-9.5,18.5-20.2C118.5,53,110.5,45,100.5,44.5L100.5,44.5z M45.5,77.8H29.2
	c-7.7-0.3-13.7-6.9-13.4-14.6c0.3-6.8,5.5-12.4,12.3-13.3h17.4L45.5,77.8z M51,44.5V30.6c0.7-7.7,7.5-13.4,15.2-12.6
	c6.7,0.6,12,5.9,12.6,12.6v33.2H51V44.5z M100.6,77.8H84.2V49.9h16.3c7.7,0.3,13.7,6.9,13.4,14.6c-0.3,6.8-5.5,12.4-12.3,13.3
	C101.3,77.8,100.9,77.8,100.6,77.8L100.6,77.8z"/>
</svg>
