<svg id="Layer_1" data-name="Layer 1" xmlns="http://www.w3.org/2000/svg" xmlns:xlink="http://www.w3.org/1999/xlink" viewBox="0 0 128 128"><defs><style>.cls-1{fill:url(#linear-gradient);}</style><linearGradient id="linear-gradient" x1="64.7" y1="115.51" x2="64.7" y2="12.08" gradientUnits="userSpaceOnUse"><stop offset="0" stop-color="#ed3244"/><stop offset="1" stop-color="#f94661"/></linearGradient></defs><title>icon-submenu-header_venda-mais_hover</title><path class="cls-1" d="M100.5,44.5H84.2V30.6A19.29,19.29,0,0,0,64,12.1,19.5,19.5,0,0,0,45.5,30.6V44.5H29.3c-10.7-.3-18.6,8-19,18.7C10,73.7,17,82.5,27.4,83.2H45.6V97a19.37,19.37,0,0,0,38.7,0V83.2h16.3A19.42,19.42,0,0,0,119.1,63a19.67,19.67,0,0,0-18.6-18.5Zm-55,33.3H29.2a14,14,0,0,1-1.1-27.9H45.5ZM51,44.5V30.6a14,14,0,0,1,27.8,0V63.8H51Zm49.6,33.3H84.2V49.9h16.3a14,14,0,0,1,1.1,27.9Z"/></svg>