<svg id="Layer_1" data-name="Layer 1" xmlns="http://www.w3.org/2000/svg" viewBox="0 0 128 128"><defs><style>.cls-1{fill:#20a8d8;}</style></defs><title>icon-submenu-header_support_hover</title><path class="cls-1" d="M35.9,92.1H32.8A18.27,18.27,0,0,1,14,74.2h0v-.8A18.46,18.46,0,0,1,31.9,54.6h4Zm-6.2-31a12.15,12.15,0,0,0-9.4,12.2,12,12,0,0,0,9.4,12.2Z"/><path class="cls-1" d="M95.2,92.1H92.1V54.6h3.1A18.46,18.46,0,0,1,114,72.5v1A18.31,18.31,0,0,1,96.1,92.2h0Zm3.1-31V85.4a12.55,12.55,0,0,0,0-24.3Z"/><path class="cls-1" d="M101.5,98.3a2.84,2.84,0,0,1-2.5,3.2H86.9a9.42,9.42,0,1,0,0,6.2H98.3a9.18,9.18,0,0,0,9.5-8.9h0v-.5Zm-23.2,9.4a3.16,3.16,0,0,1-.5-6.3,3,3,0,0,1,3.3,2.8v.3A3,3,0,0,1,78.3,107.7Z"/><path class="cls-1" d="M98.3,48.4H92.1a28.1,28.1,0,1,0-56.2,0H29.7a34.4,34.4,0,0,1,68.8,0Z"/></svg>