<?xml version="1.0" encoding="utf-8"?>
<!-- Generator: Adobe Illustrator 23.0.6, SVG Export Plug-In . SVG Version: 6.00 Build 0)  -->
<svg version="1.1" id="Layer_1" xmlns="http://www.w3.org/2000/svg" xmlns:xlink="http://www.w3.org/1999/xlink" x="0px" y="0px"
	 viewBox="0 0 128 128" style="enable-background:new 0 0 128 128;" xml:space="preserve">
<style type="text/css">
	.st0{fill:#73818F;}
</style>
<title>icons-submenu-header</title>
<path class="st0" d="M28.1,121.5h71.6c3.9,0,5.9-1.5,7.1-5.2l0.1-0.2v-81c-0.1-0.1-0.2-0.2-0.3-0.3L78.6,6.8
	c-0.1-0.1-0.2-0.2-0.3-0.3H26.5l-0.6,0.2C25.5,6.8,25,7,24.7,7.2c-2.2,1-3.6,3.1-3.6,5.5c0,0.2,0,0.5,0,0.7v101.2
	C21.1,119,23.6,121.5,28.1,121.5z M77.7,34.8V14.1l1.6,1.6l9.5,9.5l8.7,8.7l1.6,1.7H77.7V34.8z M26.5,115.1V11.9h45.8v8.3
	c0,4.7,0,9.4,0,14.3c-0.1,3.1,1.8,5.8,4.8,6.4c0.7,0.1,1.4,0.2,2.1,0.2h22.2v75H26.5V115.1z"/>
<path class="st0" d="M57.4,68.1v5.3c0,0.9,0.7,1.6,1.6,1.6h6.8c0.9,0,1.6-0.7,1.6-1.6v-5.3h5.3c0.9,0,1.6-0.7,1.6-1.6l0,0v-6.8
	c0-0.9-0.7-1.6-1.6-1.6l0,0h-5.3v-5.3c0-0.9-0.7-1.6-1.6-1.6H59c-0.9,0-1.6,0.7-1.6,1.6v5.3h-5.3c-0.9,0-1.6,0.7-1.6,1.6l0,0v6.8
	c0,0.9,0.7,1.6,1.6,1.6l0,0H57.4z M53.8,61.4h6.9v-6.9h3.6v6.9h6.9v3.6h-6.9v6.9h-3.6v-6.9h-6.9V61.4z"/>
<path class="st0" d="M62.4,82.7c10.8,0,19.6-8.7,19.6-19.5s-8.7-19.5-19.6-19.5s-19.5,8.7-19.5,19.5l0,0
	C42.8,74,51.6,82.7,62.4,82.7z M47,63.2c0-8.5,6.9-15.4,15.4-15.4s15.4,6.9,15.4,15.4s-6.9,15.4-15.4,15.4l0,0
	C53.9,78.5,47,71.6,47,63.2z"/>
<path class="st0" d="M47.2,89.2h-5.8c-1.2-0.1-2.2,0.8-2.2,2c-0.1,1.2,0.8,2.2,2,2.2c0.1,0,0.2,0,0.2,0h5.8c1.1-0.1,2.1-1,2-2.2
	C49,90.1,48.2,89.3,47.2,89.2z"/>
<path class="st0" d="M53,91.3c0,1.2,0.9,2.1,2.1,2.1h28.3c1.1-0.1,2.1-1,2-2.2c-0.1-1-0.9-1.8-2-2H55C53.9,89.2,53,90.1,53,91.3z"/>
<path class="st0" d="M47.2,97.2h-5.8c-1.2-0.1-2.2,0.8-2.2,2c-0.1,1.2,0.8,2.2,2,2.2c0.1,0,0.2,0,0.2,0h5.8c1.1-0.1,2.1-1,2-2.2
	C49,98.2,48.2,97.3,47.2,97.2z"/>
<path class="st0" d="M83.3,97.2H55c-1.2-0.1-2.2,0.8-2.2,2c-0.1,1.2,0.8,2.2,2,2.2c0.1,0,0.2,0,0.2,0h28.3c1.1-0.1,2.1-1,2-2.2
	C85.2,98.2,84.3,97.3,83.3,97.2z"/>
<path class="st0" d="M47.2,105.3h-5.8c-1.2-0.1-2.2,0.8-2.2,2c-0.1,1.2,0.8,2.2,2,2.2c0.1,0,0.2,0,0.2,0h5.8c1.1-0.1,2.1-1,2-2.2
	C49,106.2,48.2,105.3,47.2,105.3z"/>
<path class="st0" d="M83.3,105.3H55c-1.2-0.1-2.2,0.8-2.2,2c-0.1,1.2,0.8,2.2,2,2.2c0.1,0,0.2,0,0.2,0h28.3c1.1-0.1,2.1-1,2-2.2
	C85.2,106.2,84.3,105.3,83.3,105.3z"/>
</svg>
