<svg width="29" height="27" viewBox="0 0 29 27" fill="none" xmlns="http://www.w3.org/2000/svg">
<rect x="0.873047" width="27.254" height="26.4524" rx="5" fill="#F7BF20"/>
<g clip-path="url(#clip0)">
<path d="M23.3015 9.99428C23.262 9.05727 23.1174 8.41309 22.9102 7.85489C22.6965 7.26238 22.3676 6.7319 21.9368 6.29092C21.5158 5.84307 21.0061 5.49507 20.4471 5.27464C19.9112 5.05758 19.2995 4.90606 18.4051 4.86474C17.504 4.81993 17.2179 4.80957 14.9325 4.80957C12.647 4.80957 12.361 4.81993 11.4632 4.86125C10.5688 4.90256 9.95388 5.05422 9.42119 5.27115C8.85548 5.49507 8.34912 5.83957 7.92817 6.29092C7.50068 6.7319 7.16863 7.26588 6.95809 7.85153C6.7509 8.41309 6.60626 9.05377 6.56683 9.99079C6.52405 10.9348 6.51416 11.2345 6.51416 13.6288C6.51416 16.023 6.52405 16.3227 6.56349 17.2632C6.60292 18.2002 6.74769 18.8444 6.95488 19.4026C7.16863 19.9951 7.50068 20.5256 7.92817 20.9666C8.34912 21.4144 8.85882 21.7624 9.41785 21.9829C9.95388 22.1999 10.5655 22.3514 11.46 22.3928C12.3576 22.4342 12.6438 22.4444 14.9293 22.4444C17.2147 22.4444 17.5008 22.4342 18.3985 22.3928C19.293 22.3514 19.9079 22.1999 20.4406 21.9829C21.5718 21.5247 22.4663 20.5876 22.9037 19.4026C23.1107 18.8411 23.2555 18.2002 23.2949 17.2632C23.3344 16.3227 23.3442 16.023 23.3442 13.6288C23.3442 11.2345 23.3409 10.9348 23.3015 9.99428ZM21.7856 17.1943C21.7494 18.0556 21.6113 18.5206 21.4962 18.8307C21.2133 19.599 20.6313 20.2087 19.898 20.505C19.602 20.6256 19.1549 20.7703 18.336 20.8081C17.4481 20.8495 17.1818 20.8597 14.9358 20.8597C12.6898 20.8597 12.4202 20.8495 11.5355 20.8081C10.7134 20.7703 10.2695 20.6256 9.97354 20.505C9.6086 20.3637 9.27642 20.1398 9.0068 19.847C8.72728 19.561 8.51354 19.2165 8.37866 18.8342C8.26357 18.5241 8.12548 18.0556 8.08938 17.1978C8.04982 16.2677 8.04006 15.9886 8.04006 13.6356C8.04006 11.2827 8.04982 11.0002 8.08938 10.0735C8.12548 9.2123 8.26357 8.74722 8.37866 8.43717C8.51354 8.05473 8.72728 7.70686 9.01014 7.42427C9.28297 7.13144 9.61181 6.90752 9.97688 6.76635C10.2728 6.64578 10.7201 6.50112 11.5389 6.46317C12.4267 6.42185 12.6932 6.41149 14.939 6.41149C17.1884 6.41149 17.4547 6.42185 18.3393 6.46317C19.1614 6.50112 19.6054 6.64578 19.9013 6.76635C20.2662 6.90752 20.5984 7.13144 20.8681 7.42427C21.1476 7.71023 21.3613 8.05473 21.4962 8.43717C21.6113 8.74722 21.7494 9.21566 21.7856 10.0735C21.825 11.0037 21.8349 11.2827 21.8349 13.6356C21.8349 15.9886 21.825 16.2642 21.7856 17.1943Z" fill="white"/>
<path d="M14.9322 9.09863C12.5449 9.09863 10.6079 11.1277 10.6079 13.6288C10.6079 16.1299 12.5449 18.159 14.9322 18.159C17.3196 18.159 19.2564 16.1299 19.2564 13.6288C19.2564 11.1277 17.3196 9.09863 14.9322 9.09863ZM14.9322 16.5674C13.3834 16.5674 12.1271 15.2514 12.1271 13.6288C12.1271 12.0062 13.3834 10.6902 14.9322 10.6902C16.481 10.6902 17.7372 12.0062 17.7372 13.6288C17.7372 15.2514 16.481 16.5674 14.9322 16.5674V16.5674Z" fill="white"/>
<path d="M20.4371 8.91941C20.4371 9.50344 19.9851 9.97699 19.4275 9.97699C18.87 9.97699 18.418 9.50344 18.418 8.91941C18.418 8.33524 18.87 7.86182 19.4275 7.86182C19.9851 7.86182 20.4371 8.33524 20.4371 8.91941V8.91941Z" fill="white"/>
</g>
<defs>
<clipPath id="clip0">
<rect width="16.8333" height="17.6349" fill="white" transform="translate(6.48438 4.80957)"/>
</clipPath>
</defs>
</svg>
