<svg width="31" height="31" viewBox="0 0 31 31" fill="none" xmlns="http://www.w3.org/2000/svg">
<rect width="31" height="31" rx="7" fill="#911436"/>
<path d="M23.4107 6H8.08929C7.53517 6 7.00375 6.22012 6.61194 6.61194C6.22012 7.00375 6 7.53517 6 8.08929V19.9286C6 20.4827 6.22012 21.0141 6.61194 21.4059C7.00375 21.7977 7.53517 22.0179 8.08929 22.0179H13.5075L13.0896 24.1071H11.5714C11.3867 24.1071 11.2096 24.1805 11.079 24.3111C10.9484 24.4417 10.875 24.6189 10.875 24.8036C10.875 24.9883 10.9484 25.1654 11.079 25.296C11.2096 25.4266 11.3867 25.5 11.5714 25.5H19.9286C20.1133 25.5 20.2904 25.4266 20.421 25.296C20.5516 25.1654 20.625 24.9883 20.625 24.8036C20.625 24.6189 20.5516 24.4417 20.421 24.3111C20.2904 24.1805 20.1133 24.1071 19.9286 24.1071H18.4104L17.9925 22.0179H23.4107C23.9648 22.0179 24.4962 21.7977 24.8881 21.4059C25.2799 21.0141 25.5 20.4827 25.5 19.9286V8.08929C25.5 7.53517 25.2799 7.00375 24.8881 6.61194C24.4962 6.22012 23.9648 6 23.4107 6ZM14.5104 24.1071L14.9282 22.0179H16.5718L16.9896 24.1071H14.5104ZM24.1071 19.9286C24.1071 20.1133 24.0338 20.2904 23.9032 20.421C23.7726 20.5516 23.5954 20.625 23.4107 20.625H8.08929C7.90458 20.625 7.72744 20.5516 7.59684 20.421C7.46623 20.2904 7.39286 20.1133 7.39286 19.9286V19.2321H24.1071V19.9286ZM24.1071 17.8393H7.39286V8.08929C7.39286 7.90458 7.46623 7.72744 7.59684 7.59684C7.72744 7.46623 7.90458 7.39286 8.08929 7.39286H23.4107C23.5954 7.39286 23.7726 7.46623 23.9032 7.59684C24.0338 7.72744 24.1071 7.90458 24.1071 8.08929V17.8393Z" fill="white"/>
<path d="M17.8394 12.2675H16.4465V10.8747C16.4465 10.6899 16.3731 10.5128 16.2425 10.3822C16.1119 10.2516 15.9348 10.1782 15.7501 10.1782C15.5654 10.1782 15.3882 10.2516 15.2576 10.3822C15.127 10.5128 15.0536 10.6899 15.0536 10.8747V12.2675H13.6608C13.4761 12.2675 13.2989 12.3409 13.1683 12.4715C13.0377 12.6021 12.9644 12.7792 12.9644 12.9639C12.9644 13.1486 13.0377 13.3258 13.1683 13.4564C13.2989 13.587 13.4761 13.6604 13.6608 13.6604H15.0536V15.0532C15.0536 15.2379 15.127 15.4151 15.2576 15.5457C15.3882 15.6763 15.5654 15.7497 15.7501 15.7497C15.9348 15.7497 16.1119 15.6763 16.2425 15.5457C16.3731 15.4151 16.4465 15.2379 16.4465 15.0532V13.6604H17.8394C18.0241 13.6604 18.2012 13.587 18.3318 13.4564C18.4624 13.3258 18.5358 13.1486 18.5358 12.9639C18.5358 12.7792 18.4624 12.6021 18.3318 12.4715C18.2012 12.3409 18.0241 12.2675 17.8394 12.2675Z" fill="white"/>
</svg>
