<svg width="25" height="26" viewBox="0 0 25 26" fill="none" xmlns="http://www.w3.org/2000/svg">
<path d="M16.9636 15.7857C16.4298 15.7857 15.896 15.7857 15.3622 15.7857C14.9445 15.7857 14.5268 15.7857 14.109 15.7857C14.109 19.1239 14.109 22.4382 14.109 25.7524C20.236 24.9599 24.9704 19.5562 24.9704 13.0238C24.9704 5.93896 19.4237 0.175049 12.5541 0.175049C5.68445 0.175049 0.137695 5.91495 0.137695 13.0238C0.137695 19.3641 4.59366 24.6477 10.4421 25.6804C10.4421 22.4622 10.4421 19.244 10.4421 16.0258C10.4421 15.8577 10.3957 15.7857 10.2332 15.7857C9.37454 15.7857 8.51584 15.7857 7.65714 15.7857C7.58751 15.7857 7.49468 15.7857 7.40185 15.7857C7.40185 14.5608 7.40185 13.36 7.40185 12.1352C8.42301 12.1352 9.42096 12.1352 10.4189 12.1352C10.4189 11.2466 10.4189 10.406 10.4189 9.56543C10.4189 8.62879 10.535 7.71617 10.9759 6.89962C11.7186 5.43462 12.9718 4.73815 14.5268 4.6661C15.5247 4.61807 16.4994 4.71413 17.4974 4.76216C17.6366 4.76216 17.6831 4.83421 17.6831 4.97831C17.6831 5.91495 17.6831 6.8756 17.6831 7.81224C17.6831 7.88428 17.6831 7.95633 17.6599 8.02838C17.567 8.02838 17.4742 8.02838 17.4046 8.02838C16.7547 8.02838 16.1049 8.02838 15.4551 8.0524C14.9677 8.07642 14.5035 8.22051 14.2715 8.72486C14.1554 8.98904 14.0858 9.27723 14.0858 9.56543C14.0626 10.382 14.0626 11.1985 14.0626 12.0151C14.0626 12.0391 14.0858 12.0871 14.0858 12.1352C15.2462 12.1352 16.3834 12.1352 17.5438 12.1352C17.5438 12.1832 17.5438 12.1832 17.5438 12.2072C17.4046 13.36 17.2653 14.4888 17.1261 15.6416C17.1493 15.7857 17.0564 15.7857 16.9636 15.7857Z" fill="#FFCB05"/>
</svg>
