<svg width="26" height="26" viewBox="0 0 26 26" fill="none" xmlns="http://www.w3.org/2000/svg">
<path d="M13.5572 10.7041C12.2945 10.7041 11.2891 11.7397 11.2891 13.0162C11.2891 14.3409 12.2945 15.3765 13.604 15.3765C14.8199 15.3765 15.8254 14.3168 15.8254 13.0644C15.8254 11.7397 14.8199 10.7041 13.5572 10.7041Z" fill="#FFCB05"/>
<path d="M19.1455 11.3066C19.1221 10.7527 19.1221 10.1987 19.052 9.64478C19.0052 9.11493 18.8181 8.60915 18.4674 8.19972C17.9764 7.62169 17.3216 7.38085 16.5968 7.35676C15.0067 7.30859 13.4167 7.30859 11.8266 7.30859C11.3122 7.30859 10.7978 7.33268 10.2834 7.40493C9.09084 7.54944 8.29582 8.29605 8.10875 9.50028C8.01522 10.1265 7.99184 10.7527 7.99184 11.3789C7.96845 12.6313 7.99184 13.8836 7.99184 15.136C7.99184 15.6418 8.01522 16.1476 8.10875 16.6534C8.27243 17.5926 8.76347 18.2911 9.67541 18.5801C9.97939 18.6764 10.3067 18.7487 10.6107 18.7728C11.3122 18.8209 12.0137 18.8209 12.6918 18.8209C14.0013 18.8209 15.3107 18.7969 16.6201 18.7487C17.1813 18.7246 17.7425 18.556 18.1868 18.1707C18.7948 17.6649 19.052 16.9664 19.0754 16.1957C19.1221 15.1601 19.1455 14.1245 19.1689 13.0648H19.1455C19.1455 12.4627 19.1689 11.8846 19.1455 11.3066ZM13.557 16.6534C11.6396 16.6534 10.0729 15.0638 10.0495 13.0889C10.0262 11.0658 11.5928 9.42802 13.557 9.42802C15.4978 9.42802 17.0644 11.0417 17.0644 13.0166C17.0878 15.0156 15.5211 16.6293 13.557 16.6534ZM17.2047 10.1265C16.7371 10.1265 16.3863 9.76521 16.3863 9.28352C16.3863 8.80183 16.7371 8.44056 17.2047 8.44056C17.6724 8.44056 18.0231 8.82591 18.0231 9.28352C18.0231 9.76521 17.649 10.1265 17.2047 10.1265Z" fill="#FFCB05"/>
<path d="M13.3714 0.419189C6.52023 0.419189 0.955078 6.15117 0.955078 13.2078C0.955078 20.2644 6.52023 25.9964 13.3714 25.9964C20.2227 25.9964 25.7878 20.2644 25.7878 13.2078C25.7644 6.15117 20.2227 0.419189 13.3714 0.419189ZM20.3162 16.2183C20.2694 17.278 19.9187 18.2413 19.1237 18.9879C18.5157 19.5659 17.7908 19.879 16.9724 19.9513C16.3177 20.0235 15.6864 20.0476 15.0316 20.0476C13.8391 20.0476 12.6232 20.0717 11.4307 20.0235C10.8461 19.9995 10.2615 19.9754 9.70032 19.8549C8.06351 19.4937 7.03465 18.2895 6.84759 16.5554C6.77744 15.857 6.75406 15.1586 6.75406 14.4601C6.73068 13.2319 6.75406 12.0277 6.75406 10.7994C6.75406 10.125 6.77744 9.42659 6.96451 8.75224C7.40878 7.23495 8.41425 6.34385 9.91076 6.10301C10.6356 5.98259 11.3605 5.98259 12.1088 5.9585C13.3013 5.93442 14.4938 5.9585 15.6864 5.9585C16.3645 5.9585 17.066 5.98259 17.7207 6.19934C19.1704 6.68102 20.0122 7.69255 20.246 9.20984C20.363 9.98053 20.363 10.7512 20.3863 11.5219C20.4097 12.0517 20.3863 12.5816 20.3863 13.1355H20.4097C20.3863 14.1952 20.3863 15.2067 20.3162 16.2183Z" fill="#FFCB05"/>
</svg>
