<?xml version="1.0" encoding="utf-8"?>
<!-- Generator: Adobe Illustrator 25.0.1, SVG Export Plug-In . SVG Version: 6.00 Build 0)  -->
<svg version="1.1" id="Layer_1" xmlns="http://www.w3.org/2000/svg" xmlns:xlink="http://www.w3.org/1999/xlink" x="0px" y="0px"
	 viewBox="0 0 128 128" style="enable-background:new 0 0 128 128;" xml:space="preserve">
<style type="text/css">
	.st0{fill:#73818F;}
</style>
<g>
	<path class="st0" d="M109.1,93.3H45.8c-1.1-1.6-2.5-3-4.1-4.1V25c0-7.6-6.2-13.8-13.8-13.8H19c-4.6,0-8.4,3.8-8.4,8.4
		S14.3,28,19,28h5.9v61.3c-4,2.7-6.6,7.3-6.6,12.5c0,8.3,6.8,15.1,15.1,15.1c5.2,0,9.8-2.7,12.5-6.7h63.2c4.6,0,8.4-3.8,8.4-8.4
		C117.4,97,113.7,93.3,109.1,93.3z M27.9,22H19c-1.3,0-2.4-1.1-2.4-2.4s1.1-2.4,2.4-2.4h8.9c4.3,0,7.8,3.5,7.8,7.8v61.9
		c-0.8-0.1-1.5-0.2-2.3-0.2c-0.8,0-1.7,0.1-2.5,0.2V25C30.9,23.3,29.5,22,27.9,22z M33.3,110.8c-5,0-9.1-4.1-9.1-9.1
		s4.1-9.1,9.1-9.1s9.1,4.1,9.1,9.1S38.3,110.8,33.3,110.8z M109.1,104.1H48.2c0.1-0.8,0.2-1.5,0.2-2.3c0-0.8-0.1-1.7-0.2-2.5h60.9
		c1.3,0,2.4,1.1,2.4,2.4C111.4,103,110.4,104.1,109.1,104.1z"/>
	<path class="st0" d="M33.3,98.1c-2,0-3.6,1.6-3.6,3.6s1.6,3.6,3.6,3.6s3.6-1.6,3.6-3.6S35.4,98.1,33.3,98.1z"/>
	<path class="st0" d="M53.2,87.9h51.3c3.5,0,6.3-2.8,6.3-6.3V28.4c0-3.5-2.8-6.3-6.3-6.3H86.9H70.5H53.2c-3.5,0-6.3,2.8-6.3,6.3
		v53.2C46.9,85.1,49.7,87.9,53.2,87.9z M83.9,28.1v15.4l-2.6-2.1c-0.7-0.6-1.7-0.9-2.6-0.9c-0.9,0-1.8,0.3-2.6,0.9l-2.6,2.1V28.1
		H83.9z M52.9,28.4c0-0.2,0.2-0.3,0.3-0.3h14.3v19.3c0,1.6,0.9,3,2.3,3.7c0.6,0.3,1.2,0.4,1.8,0.4c0.9,0,1.8-0.3,2.6-0.9l4.5-3.6
		l4.5,3.6c1.2,1,2.9,1.2,4.3,0.5c1.4-0.7,2.3-2.1,2.3-3.7V28.1h14.6c0.2,0,0.3,0.2,0.3,0.3v53.2c0,0.2-0.2,0.3-0.3,0.3H53.2
		c-0.2,0-0.3-0.2-0.3-0.3V28.4z"/>
	<path class="st0" d="M88.3,78.4h9.1c2.3,0,4.2-1.9,4.2-4.2v-3.3c0-0.8-0.7-1.5-1.5-1.5s-1.5,0.7-1.5,1.5v3.3c0,0.6-0.5,1.2-1.2,1.2
		h-9.1c-0.8,0-1.5,0.7-1.5,1.5S87.4,78.4,88.3,78.4z"/>
</g>
</svg>
