<svg id="Layer_1" data-name="Layer 1" xmlns="http://www.w3.org/2000/svg" viewBox="0 0 128 128"><defs><style>.cls-1{fill:#00b1d5;}.cls-2{fill:#00d898;}</style></defs><title>icon-submenu-header_memed_hover</title><path class="cls-1" d="M28.1,121.5H99.7c3.9,0,5.9-1.5,7.1-5.2l.1-.2v-81l-.3-.3-28-28-.3-.3H26.5l-.6.2a4.33,4.33,0,0,0-1.2.5,6,6,0,0,0-3.6,5.5V114.6C21.1,119,23.6,121.5,28.1,121.5ZM77.7,34.8V14.1l1.6,1.6,9.5,9.5,8.7,8.7,1.6,1.7H77.7ZM26.5,115.1V11.9H72.3V34.5a6.11,6.11,0,0,0,4.8,6.4,14.92,14.92,0,0,0,2.1.2h22.2v75H26.5Z"/><path class="cls-2" d="M57.4,68.1v5.3A1.58,1.58,0,0,0,59,75h6.8a1.58,1.58,0,0,0,1.6-1.6V68.1h5.3a1.58,1.58,0,0,0,1.6-1.6h0V59.7a1.58,1.58,0,0,0-1.6-1.6H67.4V52.8a1.58,1.58,0,0,0-1.6-1.6H59a1.58,1.58,0,0,0-1.6,1.6v5.3H52.1a1.58,1.58,0,0,0-1.6,1.6h0v6.8a1.58,1.58,0,0,0,1.6,1.6h5.3Zm-3.6-6.7h6.9V54.5h3.6v6.9h6.9V65H64.3v6.9H60.7V65H53.8Z"/><path class="cls-2" d="M62.4,82.7A19.5,19.5,0,1,0,42.9,63.2h0A19.4,19.4,0,0,0,62.4,82.7ZM47,63.2A15.4,15.4,0,1,1,62.4,78.6h0A15.54,15.54,0,0,1,47,63.2Z"/><path class="cls-2" d="M47.2,89.2H41.4a2.1,2.1,0,0,0-.2,4.2h6a2.12,2.12,0,0,0,2-2.2A2.33,2.33,0,0,0,47.2,89.2Z"/><path class="cls-2" d="M53,91.3a2.05,2.05,0,0,0,2.1,2.1H83.4a2.12,2.12,0,0,0,2-2.2,2.33,2.33,0,0,0-2-2H55A2,2,0,0,0,53,91.3Z"/><path class="cls-2" d="M47.2,97.2H41.4a2.1,2.1,0,0,0-.2,4.2h6a2.12,2.12,0,0,0,2-2.2A2.44,2.44,0,0,0,47.2,97.2Z"/><path class="cls-2" d="M83.3,97.2H55a2.1,2.1,0,0,0-.2,4.2H83.3a2.12,2.12,0,0,0,2-2.2A2.33,2.33,0,0,0,83.3,97.2Z"/><path class="cls-2" d="M47.2,105.3H41.4a2.1,2.1,0,0,0-.2,4.2h6a2.12,2.12,0,0,0,2-2.2A2.23,2.23,0,0,0,47.2,105.3Z"/><path class="cls-2" d="M83.3,105.3H55a2.1,2.1,0,0,0-.2,4.2H83.3a2.12,2.12,0,0,0,2-2.2A2.15,2.15,0,0,0,83.3,105.3Z"/></svg>