<svg id="Layer_1" data-name="Layer 1" xmlns="http://www.w3.org/2000/svg" xmlns:xlink="http://www.w3.org/1999/xlink" viewBox="0 0 128 128"><defs><style>.cls-1{fill:url(#linear-gradient);}.cls-2{fill:url(#linear-gradient-2);}.cls-3{fill:url(#linear-gradient-3);}</style><linearGradient id="linear-gradient" x1="38.75" y1="19" x2="38.75" y2="109" gradientUnits="userSpaceOnUse"><stop offset="0" stop-color="#00b2eb"/><stop offset="1" stop-color="#1d60b3"/></linearGradient><linearGradient id="linear-gradient-2" x1="89.1" x2="89.1" y2="57.3" xlink:href="#linear-gradient"/><linearGradient id="linear-gradient-3" x1="88.6" y1="68.3" x2="88.6" y2="109" xlink:href="#linear-gradient"/></defs><title>icon-submenu-header_bo_hover</title><path class="cls-1" d="M19,109H58.5V19H19Zm6.8-82.5H51v75.2H25.8Z"/><path class="cls-2" d="M69.2,19V57.3H109V19Zm32.3,30.8H76.6V26.5h24.9Z"/><path class="cls-3" d="M88.6,68.3A20.35,20.35,0,1,0,109,88.7,20.36,20.36,0,0,0,88.6,68.3Zm0,33.3a12.9,12.9,0,1,1,12.9-12.9A12.93,12.93,0,0,1,88.6,101.6Z"/></svg>