<svg id="Layer_1" data-name="Layer 1" xmlns="http://www.w3.org/2000/svg" viewBox="0 0 128 128"><defs><style>.cls-1{fill:#73818f;}</style></defs><title>icon-submenu-header_ecom</title><path class="cls-1" d="M87.72,23H18.82c-3.33,0-4.18,2.17-4.28,5.39-.08,2.73-.08,6.61-.06,9.34,0,2.54,1.44,3.64,3.86,3.64H38.69c1.29,0,.57.44.17.58-3.11,1-12.08,7.29-12.1,21,0,2.41-.14,38-.14,38a12.27,12.27,0,0,0,.06,1.74c.33,2.67,2,3.3,3,3.3h10.2l.92,0c4-.19,4.95-1,5-5.1,0-5.77.18-56.28.18-59.53l30,0c5.49,0,12-.36,15.6,3.5S95.18,53,95.17,59.28c0,.1-.06,41.71-.06,41.71a11,11,0,0,0,.06,1.74c.33,2.67,2,3.3,3,3.3h10.19l.93,0c4-.19,5-1,5-5.1,0-1.43.2-50.43.21-53.41C114.53,28.22,95.4,23,87.72,23"/></svg>