<svg id="Layer_1" data-name="Layer 1" xmlns="http://www.w3.org/2000/svg" viewBox="0 0 128 128"><defs><style>.cls-1{fill:#ffd300;}</style></defs><title>icon-submenu-header_ecom_hover</title><path class="cls-1" d="M87.25,22.48c-7.68,0-63,0-68.89,0-3.34,0-4.18,2.17-4.29,5.39C14,30.6,14,34.48,14,37.22c0,2.54,1.43,3.63,3.86,3.63H38.22c1.29,0,.58.45.17.58-3.11,1-12.08,7.3-12.1,21,0,2.41-.14,38-.14,38a12.14,12.14,0,0,0,.07,1.73c.32,2.67,2,3.3,3,3.3H39.42l.93,0c4-.18,4.94-1,5-5.09,0-5.78.17-56.29.17-59.54h30c5.49,0,12-.37,15.6,3.5s3.59,8.18,3.58,14.44c0,.1-.06,41.71-.06,41.71a12.18,12.18,0,0,0,.06,1.73c.33,2.67,2,3.3,3,3.3H107.9l.93,0c4-.18,5-1,5-5.09C113.79,99,114,50,114,47c.06-19.27-19.07-24.5-26.75-24.5"/></svg>