<svg xmlns="http://www.w3.org/2000/svg" viewBox="0 0 128 128"><defs><style>.cls-1{isolation:isolate;}.cls-2,.cls-3{fill:#73818f;}.cls-2{mix-blend-mode:multiply;}</style></defs><title>icon-submenu-header_universidade</title><g class="cls-1"><g id="Layer_1" data-name="Layer 1"><path class="cls-2" d="M107.65,38.38c-4.14,0-38.57,0-41.73,0-1.8,0-2.26,1.17-2.31,2.9,0,1.47,0,3.57,0,5s.77,2,2.08,2h8.63c.7,0,.31.24.09.31-1.67.55-6.51,3.94-6.52,11.34,0,1.3-.07,27.43-.07,27.43a5.63,5.63,0,0,0,0,.93c.18,1.44,1.06,1.78,1.62,1.78h5.5l.5,0c2.14-.1,2.67-.56,2.67-2.75,0-3.11.1-37.27.1-39h23.12c3,0,6.47-.2,8.41,1.89s1.93,4.41,1.93,7.79c0,0,0,29.41,0,29.41a6.93,6.93,0,0,0,0,.93c.17,1.44,1.06,1.78,1.62,1.78h5.5l.5,0c2.14-.1,2.67-.56,2.67-2.75,0-.77.11-34.11.11-35.72,0-10.38-10.28-13.2-14.42-13.2"/><path class="cls-2" d="M61.29,41.64c0-2.18-.53-2.64-2.67-2.74l-.5,0h-5.5c-.55,0-1.44.34-1.62,1.78a5.8,5.8,0,0,0,0,.94S51,71,51,71.06c0,3.37,0,5.68-1.93,7.78s-5.45,1.89-8.41,1.89h-13c-3,0-6.47.2-8.41-1.89s-1.93-4.41-1.93-7.78c0-.06,0-29.41,0-29.41a7.16,7.16,0,0,0,0-.94c-.17-1.44-1.06-1.78-1.62-1.78h-5.5l-.5,0c-2.14.1-2.66.57-2.67,2.75,0,.77-.11,34.12-.11,35.72,0,10.39,10.28,13.21,14.42,13.21H47c4.14,0,14.46-2.82,14.43-13.21C61.4,75.82,61.3,42.42,61.29,41.64Z"/><path class="cls-3" d="M122.14,39.4a21.51,21.51,0,0,0-14.49-5.95H99c-11.75,0-46.42.12-46.42.12-2.77,0-6,2.29-6.51,6.49A12.32,12.32,0,0,0,46,41.68c0,1.72,0,29.15,0,29.37v0c0,3.06-.08,3.8-.58,4.36a9.91,9.91,0,0,1-3.22.35H26.92c-1.22,0-3.46,0-4.08-.36-.49-.55-.59-1.3-.58-4.4,0-.22,0-27.59,0-29.31a10.88,10.88,0,0,0-.07-1.63A6.59,6.59,0,0,0,15.71,34H8.91l-.06.07c-4.4.42-6.72,3-6.74,7.61,0,.4,0,9.79-.06,18.85L2,77.4A16.58,16.58,0,0,0,6.86,89.61a21.51,21.51,0,0,0,14.49,5.94H47a21.49,21.49,0,0,0,14.49-5.94A15.72,15.72,0,0,0,62.86,88c0,.3,0,.6.07.86A6.59,6.59,0,0,0,69.44,95h5.5l.73,0C80.48,94.75,83,92.1,83,87.32v-1.8c0-15.72.07-26.53.08-32.32h18.95c1.13,0,3.47,0,4.09.35.49.56.59,1.3.58,4.39l0,29.33a11,11,0,0,0,.07,1.63,6.59,6.59,0,0,0,6.51,6.1h5.47l.76,0c4.8-.22,7.35-2.87,7.37-7.65L127,51.6A16.55,16.55,0,0,0,122.14,39.4Zm2.09,47.91c0,3.35-1.45,4.85-4.84,5-.54,0-6.1,0-6.1,0a3.94,3.94,0,0,1-3.88-3.77c0-.38,0-30.49,0-30.62,0-3.35,0-4.87-1.32-6.24-1.1-1.19-3.71-1.18-6-1.17H80.48c0,4.69-.09,36.76-.09,36.76,0,3.35-1.46,4.85-4.85,5-.46,0-6.1,0-6.1,0a3.94,3.94,0,0,1-3.88-3.77c0-.38,0-27.37,0-28.64a15.45,15.45,0,0,1,2.93-9.38s-4.47-.06-4.92-.19c0,4.25.09,27.05.09,27.05A14,14,0,0,1,59.6,87.73,19.1,19.1,0,0,1,47,92.9H21.35A19.06,19.06,0,0,1,8.74,87.73,14,14,0,0,1,4.65,77.41s.11-35.2.12-35.72c0-3.35,1.45-4.85,4.84-5,.54,0,6.1,0,6.1,0a4,4,0,0,1,3.88,3.77c.05.38,0,30.41,0,30.62,0,3.35,0,4.87,1.32,6.25,1.1,1.19,20.45,1.16,20.45,1.16,2.31,0,4.92,0,6-1.16,1.28-1.38,1.33-2.9,1.33-6.21v0c0-.21,0-30.29,0-30.67.33-2.61,2.18-4.16,3.88-4.16,0,0,5.56,0,6.11,0a6,6,0,0,1,3.18,1.26,4.13,4.13,0,0,1,3.38-1.41h42.36a19.06,19.06,0,0,1,12.61,5.17,14,14,0,0,1,4.09,10.32S124.24,86.94,124.23,87.31Z"/></g></g></svg>