<?xml version="1.0" encoding="utf-8"?>
<!-- Generator: Adobe Illustrator 23.0.6, SVG Export Plug-In . SVG Version: 6.00 Build 0)  -->
<svg version="1.1" id="Layer_1" xmlns="http://www.w3.org/2000/svg" xmlns:xlink="http://www.w3.org/1999/xlink" x="0px" y="0px"
	 viewBox="0 0 128 128" style="enable-background:new 0 0 128 128;" xml:space="preserve">
<style type="text/css">
	.st0{fill:#005A8F;}
</style>
<title>icon-submenu-header_indicadores_hover</title>
<path class="st0" d="M35.6,62.1H21.4c-1.5,0-2.8,1.3-2.8,2.8v41.6c0,1.5,1.3,2.8,2.8,2.8h14.2c1.5,0,2.8-1.2,2.8-2.8V64.9
	C38.4,63.4,37.1,62.1,35.6,62.1z M34.6,105.6H22.3V65.9h12.3V105.6z"/>
<path class="st0" d="M26.4,102.3c0.6,0,1.1-0.5,1.1-1.1l0,0l0,0v-17c-0.1-0.6-0.6-1-1.2-1c-0.5,0-0.9,0.5-1,1v17
	C25.3,101.9,25.8,102.3,26.4,102.3C26.4,102.3,26.4,102.3,26.4,102.3z"/>
<path class="st0" d="M26.4,80.3c0.6,0,1.1-0.5,1.1-1.1l0,0l0,0v-5.9c-0.1-0.6-0.6-1-1.2-1c-0.5,0-0.9,0.5-1,1v5.9
	C25.3,79.8,25.8,80.3,26.4,80.3L26.4,80.3L26.4,80.3z"/>
<path class="st0" d="M59.2,81.8H45.1c-1.5,0-2.8,1.3-2.8,2.8c0,0,0,0,0,0l0,0l0.1,22c0,1.5,1.3,2.8,2.8,2.8h14.2
	c1.5,0,2.8-1.3,2.8-2.8l-0.1-22C62,83,60.8,81.8,59.2,81.8z M46.1,105.6L46,85.5h12.3l0.1,20.1H46.1z"/>
<path class="st0" d="M50.2,94.3c-0.6,0-1.1,0.5-1.1,1.1l0,0l0,0v5.9c-0.1,0.6,0.4,1.1,1,1.2s1.1-0.4,1.2-1c0,0,0,0,0,0
	c0-0.1,0-0.1,0-0.2v-5.9C51.2,94.8,50.8,94.3,50.2,94.3L50.2,94.3L50.2,94.3z"/>
<path class="st0" d="M50.2,87.9c-0.6,0-1.1,0.5-1.1,1.1l0,0l0,0v3.1c0.1,0.6,0.6,1,1.2,1c0.5,0,0.9-0.5,1-1v-3.1
	C51.2,88.4,50.8,87.9,50.2,87.9L50.2,87.9L50.2,87.9z"/>
<path class="st0" d="M83,52.9H68.9c-1.5,0-2.8,1.2-2.8,2.8v50.8c0,1.5,1.3,2.8,2.8,2.8H83c1.5,0,2.8-1.2,2.8-2.8V55.8
	C85.8,54.2,84.6,53,83,52.9z M82.1,105.6H69.8V56.7h12.3V105.6z"/>
<path class="st0" d="M73.8,102.3c0.6,0,1.1-0.5,1.1-1.1l0,0l0,0V75.1c0-0.6-0.5-1.1-1.1-1.1s-1.1,0.5-1.1,1.1v26.1
	C72.8,101.9,73.2,102.3,73.8,102.3C73.8,102.3,73.8,102.3,73.8,102.3L73.8,102.3z"/>
<path class="st0" d="M73.8,69.3c0.6,0,1.1-0.5,1.1-1.1l0,0l0,0v-6.8c0-0.6-0.5-1.1-1.1-1.1s-1.1,0.5-1.1,1.1v6.8
	C72.8,68.8,73.2,69.3,73.8,69.3L73.8,69.3z"/>
<path class="st0" d="M106.7,73.9H92.5c-1.5,0-2.8,1.3-2.8,2.8l0.1,29.9c0,1.5,1.2,2.8,2.8,2.8h14.2c1.5,0,2.8-1.2,2.8-2.8l-0.1-29.9
	C109.5,75.1,108.2,73.9,106.7,73.9z M93.6,105.6l-0.1-28h12.3l0.1,28L93.6,105.6z"/>
<path class="st0" d="M97.6,88.8c-0.6,0-1.1,0.5-1.1,1.1l0,0l0,0v11.4c0,0.6,0.5,1.1,1.1,1.1c0.6,0,1.1-0.5,1.1-1.1l0,0l0,0V89.8
	C98.7,89.3,98.2,88.8,97.6,88.8C97.6,88.8,97.6,88.8,97.6,88.8z"/>
<path class="st0" d="M97.6,80.5c-0.6,0-1.1,0.5-1.1,1.1l0,0l0,0v4.1c0,0.6,0.5,1.1,1.1,1.1c0.6,0,1.1-0.5,1.1-1.1v-4.1
	C98.7,81,98.2,80.5,97.6,80.5C97.6,80.5,97.6,80.5,97.6,80.5z"/>
<path class="st0" d="M113.8,30.1c-0.4-0.6-1.2-0.8-1.8-0.4l-7,4.3c-2.7-3-7.3-3.2-10.2-0.5c0,0,0,0,0,0c-0.3,0.2-0.5,0.5-0.7,0.8
	l-11.3-6.1c0.2-0.7,0.4-1.5,0.4-2.3c0-4-3.3-7.2-7.3-7.2s-7.2,3.3-7.2,7.3c0,1.1,0.3,2.2,0.8,3.3L57,38.8c-3-2.7-7.5-2.4-10.2,0.5
	c0,0,0,0,0,0l-0.2,0.2l-11.2-6.3c0.2-0.7,0.4-1.4,0.4-2.1c0-4-3.2-7.3-7.3-7.3s-7.3,3.2-7.3,7.3c0,0.7,0.1,1.5,0.3,2.2l-6.9,3.5
	c-0.7,0.3-0.9,1.2-0.6,1.8c0.2,0.4,0.7,0.7,1.2,0.7c0.2,0,0.4,0,0.6-0.1l6.9-3.6c2.5,3.1,7,3.6,10.2,1.1c0.4-0.3,0.8-0.7,1.1-1.1
	l11.2,6.3c-1.3,3.8,0.7,7.9,4.5,9.2c3.8,1.3,7.9-0.7,9.2-4.5c0.3-0.7,0.4-1.5,0.4-2.3c0-1.1-0.3-2.3-0.8-3.3l12.4-9.7
	c2.9,2.7,7.5,2.4,10.2-0.5c0.1-0.1,0.2-0.2,0.3-0.3l11.3,6.1c-0.2,0.7-0.4,1.5-0.4,2.3c0,4,3.2,7.3,7.2,7.3c4,0,7.3-3.2,7.3-7.2
	c0-0.9-0.2-1.8-0.5-2.7l6.9-4.3C114,31.6,114.2,30.8,113.8,30.1L113.8,30.1z M28.5,34.7c-2,0-3.5-1.6-3.5-3.5s1.6-3.5,3.5-3.5
	c2,0,3.5,1.6,3.5,3.5l0,0C32,33.1,30.4,34.6,28.5,34.7z M52.2,47.7c-1.9,0-3.5-1.6-3.5-3.5s1.6-3.5,3.5-3.5s3.5,1.6,3.5,3.5
	S54.2,47.7,52.2,47.7L52.2,47.7z M75.9,29.4c-1.9,0-3.5-1.6-3.5-3.5s1.6-3.5,3.5-3.5c1.9,0,3.5,1.6,3.5,3.5S77.9,29.4,75.9,29.4
	L75.9,29.4z M99.7,42.4c-2,0-3.5-1.6-3.5-3.5s1.6-3.5,3.5-3.5c2,0,3.5,1.6,3.5,3.5l0,0C103.2,40.8,101.6,42.4,99.7,42.4
	C99.7,42.4,99.7,42.4,99.7,42.4z"/>
</svg>
