<?xml version="1.0" encoding="utf-8"?>
<!-- Generator: Adobe Illustrator 25.0.1, SVG Export Plug-In . SVG Version: 6.00 Build 0)  -->
<svg version="1.1" id="Layer_1" xmlns="http://www.w3.org/2000/svg" xmlns:xlink="http://www.w3.org/1999/xlink" x="0px" y="0px"
	 viewBox="0 0 128 128" style="enable-background:new 0 0 128 128;" xml:space="preserve">
<style type="text/css">
	.st0{fill:url(#SVGID_1_);}
	.st1{fill:url(#SVGID_2_);}
	.st2{fill:url(#SVGID_3_);}
	.st3{fill:url(#SVGID_4_);}
</style>
<g>
	<linearGradient id="SVGID_1_" gradientUnits="userSpaceOnUse" x1="64.5" y1="116.8364" x2="64.5" y2="11.1636">
		<stop  offset="0" style="stop-color:#E26D29"/>
		<stop  offset="1" style="stop-color:#EA9054"/>
	</linearGradient>
	<path class="st0" d="M109.6,93.3H46.3c-1.1-1.6-2.5-3-4.1-4.1V25c0-7.6-6.2-13.8-13.8-13.8h-8.9c-4.6,0-8.4,3.8-8.4,8.4
		s3.8,8.4,8.4,8.4h5.9v61.3c-4,2.7-6.6,7.3-6.6,12.5c0,8.3,6.8,15.1,15.1,15.1c5.2,0,9.8-2.7,12.5-6.7h63.2c4.6,0,8.4-3.8,8.4-8.4
		C117.9,97,114.2,93.3,109.6,93.3z M28.4,22h-8.9c-1.3,0-2.4-1.1-2.4-2.4s1.1-2.4,2.4-2.4h8.9c4.3,0,7.8,3.5,7.8,7.8v61.9
		c-0.8-0.1-1.5-0.2-2.3-0.2c-0.8,0-1.7,0.1-2.5,0.2V25C31.4,23.3,30,22,28.4,22z M33.8,110.8c-5,0-9.1-4.1-9.1-9.1s4.1-9.1,9.1-9.1
		s9.1,4.1,9.1,9.1S38.8,110.8,33.8,110.8z M109.6,104.1H48.7c0.1-0.8,0.2-1.5,0.2-2.3c0-0.8-0.1-1.7-0.2-2.5h60.9
		c1.3,0,2.4,1.1,2.4,2.4C111.9,103,110.9,104.1,109.6,104.1z"/>
	<linearGradient id="SVGID_2_" gradientUnits="userSpaceOnUse" x1="33.8446" y1="105.4042" x2="33.8446" y2="98.1295">
		<stop  offset="0" style="stop-color:#E26D29"/>
		<stop  offset="1" style="stop-color:#EA9054"/>
	</linearGradient>
	<path class="st1" d="M33.8,98.1c-2,0-3.6,1.6-3.6,3.6s1.6,3.6,3.6,3.6s3.6-1.6,3.6-3.6S35.9,98.1,33.8,98.1z"/>
	<linearGradient id="SVGID_3_" gradientUnits="userSpaceOnUse" x1="79.3545" y1="87.937" x2="79.3545" y2="22.104">
		<stop  offset="0" style="stop-color:#E26D29"/>
		<stop  offset="1" style="stop-color:#EA9054"/>
	</linearGradient>
	<path class="st2" d="M53.7,87.9H105c3.5,0,6.3-2.8,6.3-6.3V28.4c0-3.5-2.8-6.3-6.3-6.3H87.4H71H53.7c-3.5,0-6.3,2.8-6.3,6.3v53.2
		C47.4,85.1,50.2,87.9,53.7,87.9z M84.4,28.1v15.4l-2.6-2.1c-0.7-0.6-1.7-0.9-2.6-0.9c-0.9,0-1.8,0.3-2.6,0.9L74,43.5V28.1H84.4z
		 M53.4,28.4c0-0.2,0.2-0.3,0.3-0.3H68v19.3c0,1.6,0.9,3,2.3,3.7c0.6,0.3,1.2,0.4,1.8,0.4c0.9,0,1.8-0.3,2.6-0.9l4.5-3.6l4.5,3.6
		c1.2,1,2.9,1.2,4.3,0.5c1.4-0.7,2.3-2.1,2.3-3.7V28.1H105c0.2,0,0.3,0.2,0.3,0.3v53.2c0,0.2-0.2,0.3-0.3,0.3H53.7
		c-0.2,0-0.3-0.2-0.3-0.3V28.4z"/>
	<linearGradient id="SVGID_4_" gradientUnits="userSpaceOnUse" x1="94.6157" y1="78.3677" x2="94.6157" y2="69.3921">
		<stop  offset="0" style="stop-color:#E26D29"/>
		<stop  offset="1" style="stop-color:#EA9054"/>
	</linearGradient>
	<path class="st3" d="M88.8,78.4h9.1c2.3,0,4.2-1.9,4.2-4.2v-3.3c0-0.8-0.7-1.5-1.5-1.5S99,70.1,99,70.9v3.3c0,0.6-0.5,1.2-1.2,1.2
		h-9.1c-0.8,0-1.5,0.7-1.5,1.5S87.9,78.4,88.8,78.4z"/>
</g>
</svg>
