<?xml version="1.0" encoding="utf-8"?>
<!-- Generator: Adobe Illustrator 23.0.6, SVG Export Plug-In . SVG Version: 6.00 Build 0)  -->
<svg version="1.1" id="Layer_1" xmlns="http://www.w3.org/2000/svg" xmlns:xlink="http://www.w3.org/1999/xlink" x="0px" y="0px"
	 viewBox="0 0 128 128" style="enable-background:new 0 0 128 128;" xml:space="preserve">
<style type="text/css">
	.st0{fill:#73818F;}
</style>
<title>icon_support-muted</title>
<path class="st0" d="M35.9,92.1h-3.1C22.6,92.4,14.2,84.3,14,74.2c0,0,0,0,0,0v-0.8c-0.2-10.1,7.8-18.5,17.9-18.8c0,0,0,0,0,0h4
	V92.1z M29.7,61.1c-5.6,1.3-9.6,6.4-9.4,12.2c-0.2,5.8,3.7,10.9,9.4,12.2V61.1z"/>
<path class="st0" d="M95.2,92.1h-3.1V54.6h3.1c10.1-0.2,18.5,7.8,18.8,17.9c0,0,0,0,0,0.1v0.9c0.2,10.1-7.8,18.5-17.9,18.7
	c0,0,0,0,0,0L95.2,92.1z M98.3,61.1v24.3c5.6-1.3,9.6-6.4,9.4-12.1C107.9,67.5,103.9,62.4,98.3,61.1z"/>
<path class="st0" d="M101.5,98.3c0.2,1.6-0.9,3-2.5,3.2c-0.2,0-0.5,0-0.7,0H86.9c-1.7-4.9-7.1-7.5-12-5.8c-4.9,1.7-7.5,7.1-5.8,12
	c1.7,4.9,7.1,7.5,12,5.8c2.7-0.9,4.8-3.1,5.8-5.8h11.4c5.1,0.2,9.3-3.8,9.5-8.9c0,0,0,0,0,0v-0.5H101.5z M78.3,107.7
	c-1.7,0.1-3.2-1.1-3.4-2.9c-0.1-1.7,1.1-3.2,2.9-3.4c1.7-0.1,3.2,1.1,3.3,2.8v0.3C81.1,106.3,79.9,107.6,78.3,107.7z"/>
<path class="st0" d="M98.3,48.4h-6.2c0-15.5-12.6-28.1-28.1-28.1S35.9,32.8,35.9,48.4h-6.2c0-19,15.4-34.4,34.4-34.4
	s34.4,15.4,34.4,34.4H98.3z"/>
</svg>
