<svg width="406" height="428" viewBox="0 0 406 428" fill="none" xmlns="http://www.w3.org/2000/svg">
<path d="M327.057 167.524L315.436 155.947C315.262 155.765 315.052 155.62 314.82 155.52C314.588 155.421 314.339 155.37 314.086 155.37C313.834 155.37 313.584 155.421 313.352 155.52C313.12 155.62 312.91 155.765 312.736 155.947L311.225 157.453L305.165 155.826C304.926 155.759 304.676 155.742 304.43 155.774C304.184 155.806 303.947 155.888 303.734 156.014C303.52 156.135 303.332 156.298 303.182 156.491C303.031 156.685 302.921 156.907 302.857 157.144L299.658 168.963L297.903 170.724C297.549 171.083 297.351 171.566 297.35 172.069L297.579 183.565C297.579 183.565 297.579 183.659 297.579 183.713L296.648 184.641C296.446 184.842 296.333 185.116 296.333 185.4C296.333 185.685 296.446 185.958 296.648 186.16C296.852 186.365 297.128 186.481 297.417 186.483C297.561 186.483 297.703 186.454 297.835 186.399C297.967 186.343 298.086 186.262 298.187 186.16L299.024 185.34C299.163 185.354 299.303 185.354 299.442 185.34L310.82 185.447C311.07 185.449 311.318 185.4 311.55 185.306C311.781 185.211 311.992 185.072 312.17 184.896L327.016 170.106C327.352 169.762 327.543 169.303 327.551 168.823C327.558 168.343 327.381 167.878 327.057 167.524ZM304.922 157.991L309.497 159.214L305.893 162.804L302.776 165.937L304.922 157.991ZM310.766 183.336L301.183 183.256L302.465 181.978C302.75 182.085 303.052 182.14 303.356 182.14C303.697 182.142 304.035 182.076 304.35 181.947C304.665 181.818 304.951 181.628 305.192 181.388C305.433 181.148 305.624 180.862 305.754 180.548C305.883 180.234 305.949 179.898 305.947 179.558C305.949 179.18 305.867 178.806 305.708 178.463C305.548 178.12 305.315 177.816 305.025 177.572C304.735 177.329 304.394 177.152 304.027 177.054C303.661 176.956 303.277 176.939 302.903 177.005C302.53 177.071 302.175 177.218 301.865 177.436C301.554 177.654 301.296 177.937 301.107 178.265C300.919 178.593 300.805 178.958 300.773 179.335C300.742 179.712 300.795 180.091 300.927 180.446L299.752 181.615L299.563 172.203L313.681 158.098L314.113 157.681L325.315 168.842L310.766 183.336ZM303.059 179.854C303.02 179.815 302.989 179.769 302.968 179.718C302.946 179.668 302.935 179.613 302.935 179.558C302.935 179.503 302.946 179.449 302.968 179.398C302.989 179.347 303.02 179.301 303.059 179.262C303.098 179.223 303.144 179.192 303.195 179.171C303.246 179.15 303.301 179.139 303.356 179.139C303.411 179.139 303.466 179.15 303.517 179.171C303.568 179.192 303.614 179.223 303.653 179.262C303.692 179.301 303.723 179.347 303.744 179.398C303.766 179.449 303.777 179.503 303.777 179.558C303.777 179.613 303.766 179.668 303.744 179.718C303.723 179.769 303.692 179.815 303.653 179.854C303.614 179.893 303.568 179.924 303.517 179.945C303.466 179.966 303.411 179.977 303.356 179.977C303.301 179.977 303.246 179.966 303.195 179.945C303.144 179.924 303.098 179.893 303.059 179.854Z" fill="#B6B6B6"/>
<path d="M309.362 168.868L310.86 176.775L311.657 175.981L310.159 168.062L309.362 168.868Z" fill="#B6B6B6"/>
<path d="M306.501 171.611C306.21 171.845 305.996 172.161 305.889 172.518C305.782 172.875 305.786 173.256 305.901 173.611C306.016 173.966 306.236 174.277 306.532 174.505C306.828 174.732 307.186 174.865 307.56 174.885C307.933 174.906 308.304 174.813 308.624 174.619C308.943 174.425 309.196 174.139 309.349 173.799C309.501 173.459 309.547 173.08 309.48 172.714C309.412 172.347 309.235 172.01 308.971 171.746C308.824 171.566 308.64 171.419 308.433 171.314C308.225 171.209 307.998 171.148 307.766 171.135C307.533 171.123 307.301 171.158 307.083 171.24C306.865 171.322 306.667 171.449 306.501 171.611ZM308.552 173.655C308.255 173.951 307.81 173.897 307.311 173.4C306.811 172.902 306.757 172.458 307.054 172.163C307.351 171.867 307.783 171.921 308.296 172.418C308.809 172.916 308.849 173.359 308.552 173.655Z" fill="#B6B6B6"/>
<path d="M311.927 170.643C311.637 170.879 311.425 171.196 311.32 171.554C311.215 171.911 311.221 172.292 311.337 172.646C311.454 173 311.676 173.311 311.973 173.537C312.271 173.763 312.63 173.894 313.003 173.912C313.377 173.93 313.747 173.835 314.066 173.639C314.384 173.444 314.635 173.156 314.786 172.815C314.937 172.474 314.981 172.096 314.911 171.73C314.842 171.363 314.662 171.027 314.397 170.764C314.25 170.584 314.066 170.436 313.858 170.331C313.65 170.226 313.422 170.166 313.189 170.154C312.956 170.143 312.723 170.181 312.505 170.265C312.288 170.349 312.091 170.478 311.927 170.643ZM313.978 172.687C313.681 172.97 313.236 172.929 312.737 172.432C312.237 171.934 312.183 171.477 312.48 171.195C312.777 170.912 313.222 170.953 313.722 171.45C314.221 171.948 314.275 172.391 313.978 172.66V172.687Z" fill="#B6B6B6"/>
<path d="M312.332 162.67C312.254 162.744 312.193 162.833 312.151 162.931C312.109 163.029 312.088 163.135 312.088 163.241C312.088 163.348 312.109 163.454 312.151 163.552C312.193 163.65 312.254 163.739 312.332 163.813L313.29 164.767C313.442 164.919 313.648 165.004 313.863 165.004C314.079 165.004 314.285 164.919 314.437 164.767C314.589 164.616 314.675 164.41 314.675 164.196C314.675 163.982 314.589 163.776 314.437 163.624L313.479 162.67C313.405 162.593 313.315 162.532 313.217 162.49C313.118 162.448 313.012 162.427 312.905 162.427C312.798 162.427 312.692 162.448 312.594 162.49C312.495 162.532 312.406 162.593 312.332 162.67Z" fill="#B6B6B6"/>
<path d="M319.161 170.617C319.235 170.693 319.324 170.755 319.423 170.796C319.522 170.838 319.628 170.86 319.735 170.86C319.842 170.86 319.948 170.838 320.046 170.796C320.145 170.755 320.234 170.693 320.308 170.617C320.458 170.463 320.541 170.258 320.541 170.045C320.541 169.832 320.458 169.627 320.308 169.474L319.35 168.519C319.275 168.444 319.185 168.384 319.087 168.344C318.988 168.303 318.883 168.282 318.776 168.282C318.67 168.282 318.564 168.303 318.466 168.344C318.367 168.384 318.278 168.444 318.203 168.519C318.127 168.594 318.068 168.683 318.027 168.781C317.986 168.879 317.965 168.984 317.965 169.09C317.965 169.197 317.986 169.302 318.027 169.4C318.068 169.498 318.127 169.587 318.203 169.662L319.161 170.617Z" fill="#B6B6B6"/>
<path d="M316.219 167.699C316.372 167.847 316.578 167.931 316.792 167.931C317.006 167.931 317.212 167.847 317.366 167.699C317.443 167.624 317.505 167.534 317.547 167.434C317.589 167.335 317.611 167.228 317.611 167.121C317.611 167.013 317.589 166.906 317.547 166.807C317.505 166.708 317.443 166.618 317.366 166.542L316.408 165.588C316.254 165.439 316.048 165.356 315.834 165.356C315.62 165.356 315.414 165.439 315.26 165.588C315.11 165.743 315.026 165.95 315.026 166.166C315.026 166.382 315.11 166.589 315.26 166.744L316.219 167.699Z" fill="#B6B6B6"/>
<path d="M41.6514 172.889C41.4966 172.661 41.2974 172.466 41.0655 172.315C40.8337 172.165 40.5739 172.063 40.3017 172.015L22.3103 168.317C21.8177 168.212 21.3033 168.29 20.8652 168.538C20.4271 168.786 20.096 169.186 19.9349 169.662C19.9044 169.721 19.8817 169.785 19.8674 169.85L18.8821 174.65L17.8833 179.397C17.8833 179.397 17.8833 179.504 17.8833 179.558L17.5324 181.266C17.4284 181.795 17.537 182.343 17.8348 182.794C18.1327 183.244 18.596 183.559 19.1251 183.673L28.114 185.528L37.1299 187.451C37.663 187.558 38.2171 187.452 38.672 187.155C39.1269 186.858 39.4458 186.394 39.5594 185.864L41.9348 174.449C41.9965 174.183 42.0032 173.908 41.9545 173.64C41.9058 173.371 41.8026 173.116 41.6514 172.889ZM39.141 173.386L29.9091 178.039C29.8437 178.069 29.7705 178.077 29.7001 178.062C29.6297 178.048 29.5658 178.011 29.5177 177.958L22.8907 170.011L39.141 173.386ZM37.4538 185.864L32.9459 184.95L28.4514 184.022L23.9569 183.094L19.449 182.18C19.3303 182.151 19.2274 182.078 19.162 181.975C19.0966 181.872 19.0736 181.748 19.0981 181.629L20.4478 175.013L21.3386 170.724L28.222 178.993C28.5083 179.328 28.8972 179.56 29.3287 179.652C29.7549 179.736 30.1972 179.675 30.5839 179.477L40.2207 174.583L37.9397 185.515C37.9143 185.621 37.8512 185.715 37.762 185.779C37.6728 185.844 37.5634 185.874 37.4538 185.864Z" fill="#B6B6B6"/>
<path d="M110.013 85.9603C110.19 85.9224 110.358 85.85 110.508 85.7474C110.657 85.6447 110.784 85.5138 110.883 85.3621C110.981 85.2104 111.048 85.0409 111.081 84.8632C111.114 84.6855 111.111 84.5032 111.073 84.3267C111.035 84.1501 110.962 83.9827 110.859 83.8341C110.756 83.6855 110.624 83.5586 110.472 83.4605C110.32 83.3625 110.15 83.2954 109.971 83.2629C109.793 83.2304 109.61 83.2332 109.433 83.2711L107.651 83.6611C107.57 83.3518 107.489 83.0694 107.408 82.7871L108.758 82.4913C109.116 82.4164 109.429 82.2029 109.629 81.8978C109.829 81.5927 109.899 81.2209 109.824 80.8643C109.749 80.5077 109.535 80.1954 109.229 79.9962C108.922 79.797 108.549 79.7272 108.191 79.8021L106.383 80.1786L105.978 79.3449L107.557 79.0088C107.734 78.9717 107.902 78.9002 108.052 78.7983C108.201 78.6965 108.329 78.5663 108.428 78.4153C108.527 78.2642 108.595 78.0952 108.629 77.9178C108.662 77.7405 108.66 77.5584 108.623 77.3818C108.586 77.2052 108.514 77.0377 108.412 76.8887C108.31 76.7398 108.179 76.6123 108.027 76.5137C107.876 76.4151 107.706 76.3472 107.528 76.3138C107.35 76.2805 107.167 76.2825 106.99 76.3195L104.817 76.7767L104.533 76.1448C104.409 75.8277 104.168 75.5695 103.86 75.4223C103.552 75.2751 103.199 75.2497 102.873 75.3514C102.589 75.4402 102.342 75.6202 102.171 75.8635C102 76.1067 101.915 76.3994 101.929 76.696C101.929 76.9246 101.929 77.1667 101.929 77.3952L99.7691 77.8524C99.4201 77.9451 99.1223 78.1722 98.9413 78.4836C98.7604 78.795 98.711 79.1653 98.804 79.513C98.8971 79.8607 99.125 80.1573 99.4376 80.3376C99.7502 80.5179 100.122 80.5671 100.471 80.4744L101.929 80.1517C101.929 80.4609 101.929 80.7567 101.929 81.066L100.066 81.4694C99.7188 81.5603 99.4221 81.7849 99.2411 82.0938C99.0601 82.4027 99.0097 82.7706 99.101 83.1165C99.1923 83.4624 99.4177 83.758 99.7278 83.9383C100.038 84.1186 100.407 84.1688 100.754 84.0779L102.104 83.7821C102.104 84.0779 102.185 84.3737 102.239 84.683L100.336 85.0863C100.164 85.1314 100.003 85.2097 99.8611 85.3168C99.7196 85.424 99.6006 85.5579 99.511 85.7108C99.4214 85.8638 99.3629 86.0328 99.3389 86.2083C99.3148 86.3837 99.3257 86.5622 99.3709 86.7335C99.4161 86.9048 99.4947 87.0655 99.6023 87.2065C99.7098 87.3475 99.8442 87.466 99.9977 87.5553C100.151 87.6446 100.321 87.7029 100.497 87.7268C100.673 87.7508 100.852 87.7399 101.024 87.6949L102.86 87.3049C102.941 87.6008 103.022 87.8966 103.116 88.1789L101.537 88.5151C101.365 88.5601 101.204 88.6384 101.062 88.7456C100.921 88.8527 100.802 88.9866 100.712 89.1395C100.623 89.2925 100.564 89.4615 100.54 89.637C100.516 89.8125 100.527 89.9909 100.572 90.1622C100.617 90.3335 100.696 90.4942 100.804 90.6352C100.911 90.7763 101.045 90.8948 101.199 90.984C101.352 91.0733 101.522 91.1316 101.698 91.1555C101.874 91.1795 102.054 91.1686 102.226 91.1236L104.156 90.7068C104.291 91.0026 104.426 91.2715 104.547 91.5539L102.738 91.9438C102.375 92.0562 102.071 92.3077 101.894 92.643C101.717 92.9784 101.681 93.3702 101.794 93.7321C101.906 94.0941 102.159 94.3966 102.495 94.5731C102.832 94.7496 103.225 94.7857 103.589 94.6734L105.829 94.2296L107.354 101.275L105.019 101.773C104.699 101.875 104.428 102.094 104.261 102.385C104.094 102.676 104.042 103.019 104.115 103.346L106.477 114.358C106.686 115.363 107.282 116.246 108.137 116.819C108.549 117.073 109.008 117.243 109.487 117.316C109.63 117.336 109.775 117.336 109.919 117.316L114.305 116.375C114.465 116.336 114.616 116.267 114.751 116.174C115.129 115.91 115.458 115.583 115.722 115.205C116.253 114.33 116.422 113.284 116.195 112.288L113.819 101.289C113.784 101.113 113.714 100.946 113.613 100.797C113.512 100.649 113.382 100.522 113.231 100.424C113.08 100.327 112.911 100.26 112.734 100.228C112.557 100.197 112.375 100.201 112.2 100.24L110 100.724L108.475 93.6784L110.688 93.2077C110.865 93.1707 111.033 93.0992 111.183 92.9973C111.332 92.8955 111.46 92.7653 111.559 92.6143C111.658 92.4632 111.727 92.2942 111.76 92.1168C111.793 91.9395 111.792 91.7573 111.754 91.5808C111.717 91.4042 111.645 91.2367 111.543 91.0877C111.441 90.9388 111.31 90.8113 111.159 90.7127C111.007 90.6141 110.837 90.5461 110.659 90.5128C110.481 90.4795 110.298 90.4815 110.121 90.5185L108.421 90.8816C108.421 90.5858 108.421 90.2765 108.421 89.9673L110.351 89.5504C110.709 89.4755 111.022 89.2621 111.222 88.9569C111.422 88.6518 111.492 88.2801 111.417 87.9235C111.342 87.5669 111.127 87.2546 110.821 87.0554C110.515 86.8562 110.142 86.7863 109.784 86.8612L108.326 87.1839C108.326 86.8881 108.245 86.5923 108.205 86.283L110.013 85.9603ZM111.363 103.158L113.441 112.839C113.487 112.999 113.498 113.168 113.472 113.332C113.446 113.497 113.385 113.655 113.293 113.794L109.595 114.587C109.451 114.498 109.328 114.381 109.233 114.242C109.137 114.103 109.072 113.946 109.041 113.78L107.003 104.086L111.363 103.158Z" fill="#B6B6B6"/>
<path d="M391.18 99.9039L390.033 100.348L390.748 98.7072C390.83 98.5217 390.835 98.3115 390.762 98.1225C390.688 97.9335 390.543 97.7812 390.357 97.6988C390.261 97.6585 390.158 97.6377 390.053 97.6377C389.949 97.6377 389.846 97.6585 389.75 97.6988C389.657 97.7323 389.572 97.7858 389.502 97.8555C389.432 97.9253 389.378 98.0094 389.345 98.1021L387.914 101.396C387.871 101.489 387.848 101.59 387.848 101.692C387.848 101.794 387.871 101.895 387.914 101.988C387.988 102.178 388.133 102.332 388.319 102.418C388.413 102.458 388.514 102.479 388.616 102.479C388.718 102.479 388.819 102.458 388.913 102.418L390.047 101.975L389.345 103.588C389.262 103.776 389.257 103.988 389.33 104.179C389.404 104.37 389.549 104.525 389.736 104.61C389.83 104.65 389.931 104.671 390.033 104.671C390.135 104.671 390.236 104.65 390.33 104.61C390.517 104.535 390.667 104.391 390.748 104.207L392.193 100.899C392.275 100.711 392.28 100.499 392.207 100.308C392.134 100.117 391.988 99.9622 391.801 99.877C391.702 99.8374 391.595 99.8193 391.488 99.824C391.381 99.8286 391.276 99.8558 391.18 99.9039Z" fill="#B6B6B6"/>
<path d="M383.136 97.8867L382.461 98.1557C382.393 98.1811 382.33 98.2197 382.277 98.2693C382.224 98.3189 382.181 98.3786 382.151 98.4448C382.12 98.5111 382.104 98.5826 382.102 98.6553C382.099 98.7279 382.112 98.8003 382.137 98.8683C382.192 99.0069 382.299 99.1185 382.435 99.1789C382.572 99.2394 382.727 99.2437 382.866 99.191L383.541 98.9221C383.61 98.8967 383.672 98.8581 383.726 98.8084C383.779 98.7588 383.822 98.6992 383.852 98.6329C383.882 98.5667 383.899 98.4952 383.901 98.4225C383.903 98.3498 383.891 98.2774 383.865 98.2094C383.807 98.0738 383.702 97.9638 383.568 97.9002C383.432 97.8391 383.276 97.8342 383.136 97.8867Z" fill="#B6B6B6"/>
<path d="M385.215 97.0668L384.54 97.3357C384.472 97.3611 384.409 97.3997 384.356 97.4494C384.302 97.499 384.259 97.5587 384.229 97.6249C384.199 97.6911 384.182 97.7626 384.18 97.8353C384.178 97.908 384.19 97.9804 384.216 98.0484C384.242 98.1165 384.28 98.1789 384.33 98.2321C384.38 98.2852 384.44 98.328 384.506 98.358C384.573 98.388 384.645 98.4046 384.718 98.4069C384.791 98.4091 384.863 98.3969 384.931 98.3711L385.62 98.1022C385.755 98.0482 385.864 97.9431 385.922 97.8096C385.981 97.6761 385.983 97.5251 385.93 97.3895C385.878 97.2548 385.777 97.1444 385.647 97.0803C385.51 97.0219 385.355 97.0171 385.215 97.0668Z" fill="#B6B6B6"/>
<path d="M386.983 97.5641L387.658 97.3086C387.797 97.2545 387.909 97.1479 387.97 97.0119C388.03 96.876 388.035 96.7216 387.982 96.5825C387.924 96.4468 387.818 96.3369 387.685 96.2733C387.55 96.2201 387.401 96.2201 387.266 96.2733L386.592 96.5422C386.456 96.5961 386.347 96.7013 386.289 96.8348C386.231 96.9683 386.228 97.1193 386.281 97.2548C386.335 97.3868 386.439 97.4927 386.569 97.5503C386.7 97.608 386.849 97.6129 386.983 97.5641Z" fill="#B6B6B6"/>
<path d="M389.048 96.7442L389.723 96.4753C389.86 96.4184 389.969 96.3115 390.03 96.1764C390.09 96.0414 390.096 95.8885 390.047 95.7492C389.989 95.6135 389.883 95.5035 389.75 95.4399C389.611 95.3859 389.457 95.3859 389.318 95.4399L388.643 95.7088C388.575 95.7344 388.512 95.7732 388.459 95.8229C388.406 95.8725 388.363 95.9322 388.333 95.9983C388.303 96.0645 388.286 96.1359 388.284 96.2085C388.281 96.2811 388.293 96.3535 388.319 96.4215C388.345 96.4895 388.384 96.5517 388.434 96.6047C388.483 96.6578 388.543 96.7005 388.61 96.7304C388.676 96.7604 388.748 96.777 388.821 96.7794C388.894 96.7818 388.966 96.7698 389.034 96.7442H389.048Z" fill="#B6B6B6"/>
<path d="M391.423 94.6732L390.748 94.9421C390.611 94.9939 390.499 95.098 390.438 95.2316C390.378 95.3653 390.373 95.5175 390.425 95.6548C390.476 95.7921 390.581 95.9032 390.715 95.9638C390.849 96.0243 391.002 96.0292 391.14 95.9775L391.815 95.7086C391.883 95.6832 391.946 95.6446 391.999 95.5949C392.053 95.5453 392.095 95.4857 392.126 95.4194C392.156 95.3532 392.172 95.2817 392.175 95.209C392.177 95.1363 392.165 95.0639 392.139 94.9959C392.117 94.927 392.08 94.8636 392.031 94.8102C391.982 94.7567 391.922 94.7146 391.855 94.6867C391.788 94.6549 391.715 94.6373 391.641 94.635C391.566 94.6327 391.492 94.6457 391.423 94.6732Z" fill="#B6B6B6"/>
<path d="M393.502 93.7993L392.827 94.0682C392.691 94.1224 392.582 94.2268 392.521 94.3596C392.461 94.4925 392.454 94.6434 392.503 94.7809C392.529 94.8506 392.568 94.9146 392.619 94.9688C392.669 95.0231 392.731 95.0666 392.799 95.0967C392.867 95.1269 392.94 95.143 393.015 95.1442C393.089 95.1454 393.163 95.1316 393.232 95.1036L393.907 94.8347C393.975 94.8093 394.038 94.7706 394.091 94.721C394.145 94.6714 394.188 94.6117 394.218 94.5455C394.248 94.4793 394.264 94.4077 394.267 94.3351C394.269 94.2624 394.257 94.19 394.231 94.122C394.206 94.0526 394.167 93.9891 394.115 93.9358C394.064 93.8825 394.002 93.8406 393.934 93.8128C393.867 93.7784 393.794 93.7594 393.719 93.7571C393.645 93.7548 393.57 93.7692 393.502 93.7993Z" fill="#B6B6B6"/>
<path d="M386.916 107.42L386.241 107.689C386.105 107.743 385.995 107.848 385.935 107.981C385.874 108.114 385.868 108.264 385.917 108.402C385.942 108.47 385.981 108.533 386.031 108.586C386.081 108.639 386.14 108.682 386.207 108.712C386.273 108.742 386.345 108.758 386.418 108.76C386.491 108.763 386.564 108.75 386.632 108.725L387.307 108.456C387.375 108.43 387.438 108.392 387.491 108.342C387.545 108.292 387.588 108.233 387.618 108.167C387.648 108.1 387.665 108.029 387.667 107.956C387.669 107.883 387.657 107.811 387.631 107.743C387.606 107.674 387.567 107.61 387.516 107.557C387.464 107.504 387.402 107.462 387.334 107.434C387.269 107.404 387.198 107.387 387.126 107.385C387.054 107.383 386.983 107.395 386.916 107.42Z" fill="#B6B6B6"/>
<path d="M388.994 106.6L388.319 106.869C388.18 106.923 388.068 107.03 388.007 107.166C387.947 107.302 387.942 107.456 387.995 107.595C388.021 107.663 388.059 107.725 388.109 107.778C388.16 107.831 388.22 107.873 388.287 107.902C388.354 107.931 388.426 107.946 388.498 107.946C388.571 107.947 388.643 107.932 388.711 107.904L389.385 107.635C389.454 107.61 389.517 107.571 389.57 107.522C389.623 107.472 389.666 107.412 389.696 107.346C389.726 107.28 389.743 107.208 389.745 107.136C389.748 107.063 389.735 106.991 389.709 106.923C389.684 106.855 389.645 106.792 389.595 106.739C389.546 106.686 389.486 106.643 389.419 106.613C389.353 106.583 389.281 106.566 389.208 106.564C389.135 106.562 389.062 106.574 388.994 106.6Z" fill="#B6B6B6"/>
<path d="M391.072 105.78L390.398 106.035C390.261 106.092 390.151 106.199 390.091 106.334C390.03 106.469 390.024 106.622 390.074 106.761C390.128 106.9 390.235 107.012 390.371 107.072C390.508 107.132 390.663 107.137 390.802 107.084L391.477 106.815C391.546 106.79 391.608 106.751 391.662 106.702C391.715 106.652 391.758 106.592 391.788 106.526C391.818 106.46 391.835 106.388 391.837 106.316C391.839 106.243 391.827 106.17 391.801 106.103C391.743 105.967 391.638 105.857 391.504 105.793C391.368 105.732 391.212 105.727 391.072 105.78Z" fill="#B6B6B6"/>
<path d="M393.137 104.959L392.463 105.228C392.394 105.254 392.332 105.292 392.278 105.342C392.225 105.392 392.182 105.451 392.152 105.517C392.122 105.584 392.105 105.655 392.103 105.728C392.101 105.801 392.113 105.873 392.139 105.941C392.164 106.009 392.203 106.071 392.253 106.125C392.303 106.178 392.362 106.221 392.429 106.251C392.495 106.281 392.567 106.297 392.64 106.299C392.713 106.302 392.786 106.289 392.854 106.264L393.542 105.995C393.678 105.941 393.787 105.836 393.845 105.702C393.903 105.569 393.906 105.418 393.853 105.282C393.829 105.214 393.792 105.151 393.743 105.098C393.695 105.045 393.635 105.002 393.569 104.973C393.432 104.914 393.278 104.91 393.137 104.959Z" fill="#B6B6B6"/>
<path d="M395.216 104.086L394.528 104.355C394.392 104.409 394.283 104.514 394.225 104.647C394.167 104.781 394.164 104.932 394.217 105.067C394.243 105.135 394.281 105.198 394.331 105.251C394.381 105.304 394.441 105.347 394.507 105.377C394.574 105.407 394.646 105.423 394.719 105.426C394.792 105.428 394.864 105.416 394.932 105.39L395.607 105.134C395.746 105.08 395.859 104.974 395.919 104.838C395.98 104.702 395.984 104.548 395.931 104.408C395.873 104.273 395.768 104.163 395.634 104.099C395.502 104.042 395.352 104.037 395.216 104.086Z" fill="#B6B6B6"/>
<path d="M397.281 103.333L396.606 103.602C396.468 103.653 396.357 103.758 396.296 103.891C396.235 104.025 396.23 104.177 396.282 104.314C396.334 104.452 396.439 104.563 396.573 104.623C396.707 104.684 396.86 104.689 396.998 104.637L397.672 104.368C397.809 104.311 397.919 104.204 397.979 104.069C398.04 103.934 398.046 103.781 397.996 103.642C397.938 103.506 397.833 103.396 397.699 103.333C397.564 103.282 397.416 103.282 397.281 103.333Z" fill="#B6B6B6"/>
<path d="M393.016 89.5103C393.137 89.2128 393.137 88.8801 393.016 88.5825L392.611 87.5472C392.474 87.2363 392.224 86.9886 391.911 86.8539C391.598 86.7192 391.245 86.7075 390.924 86.8211L388.697 87.6951L388.09 87.9371L379.533 91.3121C379.221 91.4487 378.972 91.698 378.837 92.0098C378.702 92.3216 378.69 92.6728 378.804 92.9928L379.209 94.0282C379.332 94.3054 379.546 94.5329 379.816 94.6736C379.549 95.2489 379.403 95.8724 379.387 96.506C379.371 97.1395 379.485 97.7697 379.722 98.3578L380.612 100.603L382.259 104.718L382.408 105.108L383.015 106.614L384.108 109.303C384.468 110.371 385.239 111.254 386.25 111.758C387.262 112.261 388.433 112.346 389.507 111.992L397.807 108.725C398.843 108.275 399.659 107.438 400.081 106.394C400.502 105.35 400.495 104.183 400.061 103.145L395.675 92.1323C395.439 91.535 395.081 90.9933 394.623 90.5418C394.165 90.0903 393.618 89.739 393.016 89.5103ZM380.221 92.6298L388.603 89.2952L389.21 89.0532L391.275 88.2329L391.545 88.9187L390.195 89.47L381.895 92.7374L380.545 93.2887L380.221 92.6298ZM397.295 107.42L389.007 110.701C388.323 110.916 387.583 110.861 386.938 110.548C386.292 110.236 385.792 109.689 385.539 109.02C385.568 108.953 385.584 108.879 385.584 108.805C385.584 108.731 385.568 108.658 385.539 108.59C385.514 108.521 385.475 108.457 385.423 108.404C385.372 108.351 385.31 108.309 385.242 108.281L384.392 106.156L383.865 104.624L383.703 104.234L382.003 100.052L381.746 99.4335C381.776 99.3634 381.792 99.2879 381.792 99.2116C381.792 99.1354 381.776 99.0599 381.746 98.9898C381.722 98.922 381.685 98.8596 381.636 98.8065C381.587 98.7534 381.528 98.7106 381.463 98.6805L381.125 97.8334C380.812 97.1628 380.778 96.3957 381.031 95.7002C381.284 95.0046 381.803 94.4373 382.475 94.1223L390.762 90.8415C391.469 90.6207 392.235 90.6859 392.894 91.0231C393.553 91.3602 394.053 91.9422 394.285 92.6432L394.622 93.5038C394.592 93.5739 394.577 93.6494 394.577 93.7256C394.577 93.8019 394.592 93.8774 394.622 93.9475C394.65 94.0196 394.693 94.0848 394.749 94.1382C394.805 94.1917 394.873 94.2322 394.946 94.2568L398.442 103.024C398.408 103.093 398.391 103.169 398.391 103.245C398.391 103.322 398.408 103.398 398.442 103.467C398.466 103.541 398.507 103.607 398.561 103.663C398.614 103.719 398.68 103.762 398.752 103.79C399.037 104.453 399.051 105.2 398.791 105.873C398.532 106.546 398.019 107.091 397.362 107.394L397.295 107.42Z" fill="#B6B6B6"/>
<path d="M162.516 182.583C162.383 182.535 162.236 182.537 162.105 182.589C161.973 182.642 161.865 182.74 161.801 182.866L161.031 184.304C160.988 184.367 160.959 184.437 160.945 184.512C160.931 184.586 160.933 184.663 160.951 184.737C160.968 184.81 161.002 184.879 161.048 184.939C161.095 184.999 161.153 185.049 161.22 185.084C161.291 185.123 161.368 185.147 161.448 185.154C161.528 185.161 161.608 185.152 161.684 185.127C161.76 185.101 161.83 185.061 161.89 185.007C161.949 184.954 161.997 184.888 162.03 184.815C162.287 184.358 162.516 183.901 162.759 183.471C162.759 183.39 162.759 183.296 162.853 183.229C162.883 183.099 162.865 182.963 162.803 182.845C162.741 182.727 162.64 182.634 162.516 182.583Z" fill="#B6B6B6"/>
<path d="M164.797 182.852C164.73 182.821 164.657 182.802 164.582 182.799C164.508 182.795 164.433 182.806 164.363 182.831C164.293 182.856 164.228 182.894 164.173 182.944C164.118 182.994 164.073 183.054 164.041 183.121C163.758 183.619 163.488 184.13 163.231 184.641C163.192 184.722 163.174 184.811 163.18 184.901C163.185 184.991 163.214 185.077 163.262 185.153C163.311 185.229 163.379 185.291 163.458 185.333C163.538 185.375 163.627 185.396 163.717 185.394C163.829 185.408 163.942 185.386 164.04 185.33C164.137 185.274 164.214 185.188 164.257 185.085C164.514 184.6 164.784 184.13 165.026 183.646C165.1 183.51 165.116 183.351 165.074 183.203C165.031 183.054 164.932 182.929 164.797 182.852Z" fill="#B6B6B6"/>
<path d="M167.051 183.108C166.916 183.041 166.761 183.029 166.617 183.074C166.474 183.119 166.353 183.218 166.282 183.35C165.998 183.847 165.728 184.345 165.472 184.869C165.431 184.946 165.411 185.033 165.412 185.12C165.413 185.207 165.436 185.293 165.479 185.369C165.522 185.445 165.583 185.509 165.658 185.556C165.732 185.602 165.816 185.63 165.904 185.635C166.02 185.656 166.139 185.638 166.244 185.585C166.349 185.531 166.433 185.445 166.484 185.34C166.754 184.856 167.011 184.372 167.253 183.874C167.324 183.745 167.342 183.593 167.305 183.451C167.267 183.308 167.176 183.186 167.051 183.108Z" fill="#B6B6B6"/>
<path d="M169.048 183.229C168.887 183.323 168.644 183.39 168.563 183.538C168.243 184.059 167.955 184.597 167.699 185.152C167.646 185.276 167.641 185.415 167.686 185.542C167.731 185.669 167.822 185.774 167.942 185.838C168.062 185.898 168.201 185.914 168.332 185.882C168.463 185.85 168.578 185.772 168.657 185.663C168.968 185.125 169.251 184.587 169.521 184.036C169.547 183.952 169.556 183.863 169.546 183.776C169.536 183.689 169.508 183.604 169.463 183.528C169.419 183.453 169.359 183.387 169.288 183.335C169.216 183.284 169.135 183.247 169.048 183.229Z" fill="#B6B6B6"/>
<path d="M171.518 183.592C171.444 183.557 171.362 183.537 171.279 183.535C171.196 183.532 171.114 183.546 171.037 183.576C170.96 183.606 170.89 183.652 170.831 183.71C170.772 183.769 170.726 183.838 170.695 183.915L169.993 185.259C169.993 185.34 169.926 185.434 169.899 185.501C169.868 185.628 169.886 185.761 169.948 185.876C170.01 185.99 170.113 186.077 170.236 186.12C170.369 186.171 170.517 186.171 170.649 186.118C170.782 186.066 170.89 185.966 170.952 185.838C171.208 185.38 171.451 184.91 171.694 184.493C171.748 184.425 171.787 184.345 171.808 184.261C171.828 184.176 171.83 184.088 171.814 184.002C171.797 183.917 171.762 183.836 171.711 183.765C171.66 183.694 171.594 183.635 171.518 183.592Z" fill="#B6B6B6"/>
<path d="M173.746 183.834C173.671 183.801 173.591 183.783 173.51 183.781C173.428 183.78 173.348 183.794 173.272 183.825C173.197 183.855 173.128 183.9 173.07 183.957C173.012 184.014 172.967 184.082 172.936 184.157C172.693 184.6 172.463 185.044 172.234 185.501C172.192 185.579 172.155 185.66 172.126 185.743C172.096 185.871 172.115 186.006 172.18 186.121C172.245 186.235 172.351 186.321 172.477 186.362C172.606 186.413 172.751 186.414 172.881 186.364C173.011 186.314 173.117 186.218 173.179 186.093C173.435 185.622 173.692 185.152 173.934 184.748C173.988 184.678 174.026 184.597 174.046 184.511C174.066 184.424 174.067 184.335 174.049 184.248C174.031 184.162 173.995 184.08 173.942 184.008C173.89 183.937 173.823 183.877 173.746 183.834Z" fill="#B6B6B6"/>
<path d="M165.215 205.294C165.348 205.309 165.483 205.297 165.612 205.26C165.74 205.222 165.86 205.16 165.964 205.076C166.068 204.992 166.155 204.889 166.219 204.772C166.282 204.654 166.322 204.526 166.336 204.393L166.767 200.507L170.668 200.937C170.937 200.968 171.206 200.89 171.417 200.723C171.629 200.555 171.765 200.311 171.795 200.043C171.826 199.776 171.748 199.507 171.58 199.296C171.411 199.086 171.166 198.951 170.898 198.92L166.997 198.503L167.429 194.604C167.443 194.472 167.431 194.338 167.393 194.21C167.355 194.082 167.293 193.963 167.209 193.86C167.125 193.756 167.021 193.67 166.904 193.606C166.786 193.542 166.657 193.502 166.525 193.488C166.392 193.474 166.257 193.486 166.129 193.524C166.001 193.561 165.881 193.624 165.777 193.707C165.673 193.791 165.587 193.894 165.523 194.011C165.459 194.128 165.418 194.257 165.404 194.389L164.972 198.275L161.072 197.845C160.939 197.831 160.804 197.843 160.676 197.88C160.548 197.918 160.428 197.98 160.324 198.064C160.22 198.148 160.134 198.251 160.07 198.368C160.006 198.485 159.966 198.613 159.952 198.746C159.937 198.878 159.95 199.012 159.987 199.14C160.025 199.267 160.088 199.386 160.172 199.49C160.256 199.594 160.359 199.68 160.477 199.744C160.594 199.807 160.723 199.847 160.856 199.862L164.756 200.292L164.325 204.178C164.294 204.443 164.371 204.71 164.538 204.919C164.705 205.129 164.949 205.263 165.215 205.294Z" fill="#B6B6B6"/>
<path d="M179.225 213.993C179.05 213.576 178.793 213.198 178.468 212.881C178.144 212.565 177.759 212.317 177.336 212.151L166.916 207.97C166.49 207.768 166.028 207.655 165.556 207.638C165.085 207.62 164.615 207.7 164.176 207.87C163.736 208.041 163.337 208.299 163.001 208.63C162.666 208.96 162.402 209.355 162.226 209.791C162.049 210.227 161.965 210.694 161.976 211.163C161.988 211.633 162.096 212.095 162.294 212.522C162.492 212.948 162.776 213.33 163.127 213.643C163.479 213.956 163.891 214.195 164.338 214.343L174.771 218.525C175.059 218.646 175.364 218.723 175.676 218.753C176.264 218.824 176.861 218.736 177.403 218.498C178.243 218.14 178.906 217.464 179.248 216.62C179.589 215.776 179.581 214.832 179.225 213.993ZM164.811 213.187C164.544 213.08 164.3 212.922 164.095 212.722C163.889 212.522 163.725 212.283 163.612 212.019C163.5 211.756 163.44 211.473 163.437 211.186C163.434 210.9 163.488 210.615 163.596 210.35C163.7 210.081 163.858 209.837 164.06 209.631C164.262 209.426 164.503 209.263 164.77 209.153C165.115 209.007 165.491 208.951 165.863 208.992C166.062 209.009 166.258 209.054 166.444 209.126L171.06 210.982L169.386 215.015L164.811 213.187ZM178.092 216.158C177.985 216.423 177.826 216.664 177.624 216.868C177.422 217.071 177.182 217.232 176.917 217.342C176.377 217.563 175.771 217.563 175.23 217.342L170.547 215.459L172.22 211.425L176.877 213.281C177.146 213.39 177.392 213.551 177.599 213.755C177.806 213.959 177.97 214.201 178.083 214.469C178.196 214.736 178.255 215.023 178.256 215.313C178.258 215.603 178.202 215.89 178.092 216.158Z" fill="#B6B6B6"/>
<path d="M170.614 217.866L165.823 215.943H165.742L163.731 215.687L157.657 215.015C157.274 214.986 156.901 214.878 156.561 214.7C156.221 214.521 155.922 214.275 155.681 213.976C155.441 213.677 155.264 213.332 155.163 212.963C155.062 212.593 155.038 212.207 155.093 211.828C155.093 211.492 155.093 211.169 155.201 210.847C155.309 210.524 155.201 210.242 155.309 209.932C155.714 206.235 156.658 197.562 157.185 192.95C157.198 192.519 157.332 192.099 157.57 191.738C157.808 191.378 158.142 191.09 158.534 190.906L159.304 190.53L160.357 190.019C160.516 189.941 160.692 189.904 160.869 189.911L166.7 190.543L169.656 190.879L170.547 190.974H171.249C171.464 190.974 171.694 190.974 171.91 190.974C172.183 190.996 172.452 191.059 172.706 191.162C173.116 191.365 173.49 191.633 173.813 191.955C174.01 192.145 174.217 192.325 174.434 192.493C174.832 192.771 175.141 193.157 175.326 193.605C175.51 194.053 175.561 194.545 175.473 195.021C175.163 197.71 174.852 200.493 174.569 203.156C174.447 204.204 174.339 205.253 174.218 206.302C174.137 207.068 174.056 207.821 173.961 208.588L173.88 209.408C173.871 209.473 173.884 209.54 173.919 209.597C173.953 209.653 174.006 209.696 174.069 209.717L175.419 210.282H175.5C175.53 210.295 175.562 210.302 175.595 210.302C175.627 210.302 175.659 210.295 175.689 210.282C175.73 210.258 175.764 210.225 175.79 210.185C175.816 210.145 175.832 210.1 175.837 210.053L177.106 198.544V198.315L177.471 195.061C177.575 194.35 177.496 193.623 177.241 192.95C176.986 192.278 176.564 191.681 176.013 191.216L175.217 190.57L174.407 189.911L174.339 189.844C174.339 189.508 174.339 189.172 174.434 188.849V188.795C174.956 188.727 175.437 188.473 175.786 188.081C176.136 187.688 176.332 187.182 176.337 186.657V186.012C176.404 185.434 176.458 184.856 176.526 184.277V184.197C176.54 183.959 176.54 183.721 176.526 183.484C176.488 183.089 176.342 182.713 176.104 182.395C175.866 182.077 175.545 181.831 175.176 181.682H175.068L160.464 180.069H160.37C159.909 180.129 159.48 180.337 159.148 180.662C158.817 180.988 158.601 181.412 158.534 181.871C158.413 182.825 158.305 183.847 158.184 185.071C158.116 185.45 158.178 185.842 158.359 186.183C158.54 186.524 158.829 186.795 159.182 186.953C159.614 187.128 159.641 187.276 159.533 187.814C159.527 187.876 159.527 187.939 159.533 188.002C159.533 188.002 159.533 188.083 159.533 188.096C159.498 188.189 159.448 188.275 159.385 188.352C158.953 188.58 158.494 188.795 158.035 188.997L157.765 189.118C157.015 189.432 156.366 189.945 155.89 190.603C155.414 191.26 155.129 192.035 155.066 192.843C154.715 196.137 154.121 201.488 153.716 205.791L153.244 209.946C153.176 210.537 153.109 211.156 153.055 211.775C152.974 212.409 153.021 213.053 153.193 213.668C153.366 214.284 153.66 214.859 154.058 215.36C154.457 215.861 154.952 216.278 155.514 216.586C156.077 216.894 156.695 217.086 157.333 217.153L163.771 217.879L170.142 218.551H170.425C170.497 218.553 170.567 218.53 170.624 218.486C170.681 218.442 170.72 218.379 170.736 218.309C170.761 218.274 170.779 218.232 170.787 218.189C170.795 218.146 170.793 218.101 170.781 218.059C170.77 218.016 170.748 217.977 170.72 217.943C170.691 217.91 170.655 217.883 170.614 217.866ZM172.423 188.621V189.185L161.747 188.015V187.451L172.423 188.621ZM174.623 183.847C174.528 184.667 174.434 185.555 174.326 186.536C174.333 186.612 174.333 186.689 174.326 186.765C174.25 186.777 174.172 186.777 174.096 186.765L170.844 186.415L169.102 186.227L167.348 186.025L165.674 185.851L163.69 185.622L160.667 185.299H160.37C160.37 185.299 160.37 185.178 160.37 184.99V184.6C160.451 183.861 160.532 183.121 160.626 182.382C160.615 182.31 160.615 182.238 160.626 182.166H160.829L167.577 182.906L174.326 183.645C174.393 183.634 174.461 183.634 174.528 183.645C174.583 183.705 174.629 183.773 174.663 183.847H174.623Z" fill="#B6B6B6"/>
<path fill-rule="evenodd" clip-rule="evenodd" d="M242.647 93.7457L241.405 89.443C241.349 89.2442 241.229 89.0693 241.063 88.9454C240.897 88.8215 240.695 88.7554 240.488 88.7572H239.543V86.8344C239.626 86.0945 239.513 85.3459 239.218 84.6622C238.922 83.9785 238.453 83.3833 237.856 82.9351C237.33 82.5997 236.711 82.4396 236.088 82.4779H230.001C229.617 82.5302 229.227 82.5022 228.855 82.3957C228.483 82.2892 228.138 82.1065 227.841 81.8594C227.75 81.7533 227.686 81.6275 227.653 81.492C227.62 81.3565 227.62 81.2152 227.652 81.0795C227.828 80.0845 226.91 79.7349 226.221 80.1383C225.693 80.4555 225.211 80.8447 224.791 81.2947C223.935 82.0361 223.4 83.0792 223.299 84.2049C223.199 85.3306 223.54 86.4514 224.251 87.3319V88.7572H223.293C223.085 88.7554 222.883 88.8215 222.717 88.9454C222.551 89.0693 222.431 89.2442 222.375 89.443L221.147 93.7457C220.866 94.7103 220.814 95.7269 220.996 96.7149C221.178 97.7028 221.589 98.6349 222.195 99.4374C222.802 100.24 223.587 100.891 224.49 101.338C225.393 101.785 226.387 102.017 227.396 102.015H236.344C237.351 102.014 238.345 101.781 239.246 101.333C240.147 100.884 240.932 100.234 241.538 99.432C242.143 98.6303 242.554 97.6994 242.737 96.7126C242.92 95.7259 242.871 94.7102 242.593 93.7457H242.647ZM226.208 87.7891H237.64V88.7303H226.208V87.7891ZM226.208 82.6393C226.623 83.2442 227.195 83.7252 227.863 84.0308C228.531 84.3364 229.27 84.455 230.001 84.3738H236.169C236.389 84.3779 236.604 84.4431 236.79 84.5621C237 84.7206 237.173 84.9231 237.297 85.1554C237.42 85.3877 237.491 85.6441 237.505 85.9067H225.574C225.254 85.3817 225.141 84.7576 225.255 84.1544C225.37 83.5512 225.705 83.0116 226.194 82.6393H226.208ZM240.353 97.887C239.946 98.5672 239.369 99.1305 238.678 99.5218C237.987 99.913 237.206 100.119 236.412 100.119H227.463C226.751 100.117 226.049 99.9504 225.412 99.6329C224.776 99.3155 224.221 98.8555 223.793 98.2891C223.364 97.7227 223.073 97.0652 222.941 96.368C222.81 95.6707 222.843 94.9527 223.036 94.2701L224.062 90.6397H239.772L240.798 94.2701C240.976 94.8719 241.028 95.5039 240.949 96.1264C240.87 96.7489 240.662 97.3484 240.339 97.887H240.353Z" fill="#B6B6B6"/>
<path d="M322.616 17.8834C322.259 16.9278 321.636 16.0931 320.821 15.4765C320.395 15.0633 320.007 14.6134 319.66 14.1319C319.566 13.9605 319.43 13.8153 319.265 13.7096C319.1 13.6039 318.911 13.541 318.716 13.5269H318.527C318.308 13.5831 318.114 13.7099 317.975 13.8874C317.835 14.0649 317.759 14.2832 317.757 14.5084C317.636 15.0841 317.46 15.6469 317.231 16.1892C316.729 17.0771 316.49 18.089 316.543 19.107C316.691 19.8009 317.073 20.4236 317.625 20.8712C318.178 21.3189 318.867 21.5646 319.579 21.5676C319.793 21.5718 320.006 21.5492 320.214 21.5003C320.614 21.4196 320.994 21.2588 321.33 21.0277C321.667 20.7966 321.953 20.5 322.171 20.1557C322.613 19.486 322.773 18.6697 322.616 17.8834ZM320.524 19.1204C320.444 19.2463 320.339 19.355 320.216 19.4404C320.094 19.5258 319.955 19.5861 319.809 19.6179H319.579C319.319 19.6171 319.067 19.5271 318.866 19.3631C318.664 19.199 318.525 18.9709 318.473 18.717C318.564 18.1117 318.756 17.5256 319.039 16.9825C319.039 16.8615 319.134 16.7539 319.188 16.6329L319.377 16.8077L319.458 16.8884C319.938 17.267 320.353 17.7212 320.686 18.233C320.723 18.3839 320.728 18.541 320.7 18.6939C320.672 18.8469 320.612 18.9922 320.524 19.1204Z" fill="#B6B6B6"/>
<path d="M317.96 10.9587L317.029 10.0309C316.96 9.96355 316.868 9.92578 316.772 9.92578C316.676 9.92578 316.584 9.96355 316.516 10.0309L310.118 16.3774L310.024 16.4715L309.929 16.3774L307.878 14.3336C307.688 14.1448 307.431 14.0387 307.162 14.0387C306.894 14.0387 306.637 14.1448 306.447 14.3336L293.733 26.9998L293.638 27.0939L293.544 26.9998L292.721 26.193C292.69 26.1596 292.652 26.1329 292.61 26.1144C292.569 26.0959 292.523 26.086 292.478 26.0854C292.381 26.0861 292.289 26.1248 292.221 26.193L291.29 27.1208C291.255 27.1538 291.228 27.1935 291.209 27.2374C291.191 27.2813 291.182 27.3286 291.182 27.3762C291.183 27.4218 291.193 27.4667 291.211 27.5083C291.23 27.5499 291.256 27.5873 291.29 27.6183L292.64 28.9629L293.436 29.7696L295.015 31.3428L295.11 31.4369L295.015 31.5311L293.436 33.037L293.341 33.1311L293.247 33.037L290.548 30.3478C290.517 30.3144 290.479 30.2877 290.437 30.2692C290.395 30.2507 290.35 30.2408 290.305 30.2402C290.257 30.2398 290.209 30.2491 290.165 30.2676C290.121 30.2861 290.081 30.3134 290.048 30.3478L289.117 31.2756C289.049 31.3436 289.011 31.4354 289.011 31.5311C289.011 31.6267 289.049 31.7186 289.117 31.7865L296.135 38.8188C296.204 38.8861 296.296 38.9239 296.392 38.9239C296.488 38.9239 296.58 38.8861 296.648 38.8188L297.58 37.891C297.644 37.8215 297.68 37.7302 297.68 37.6355C297.68 37.5408 297.644 37.4496 297.58 37.3801L294.88 34.6909L294.786 34.5968L294.88 34.5026L296.473 32.9294L296.567 32.8353L296.662 32.9294L299.037 35.3094L299.172 35.4439L300.333 36.6002C300.401 36.6675 300.493 36.7053 300.589 36.7053C300.685 36.7053 300.778 36.6675 300.846 36.6002L301.777 35.6724C301.845 35.6045 301.883 35.5126 301.883 35.417C301.883 35.3213 301.845 35.2295 301.777 35.1615L300.967 34.3547L300.859 34.2606L300.967 34.1665L313.681 21.4869C313.868 21.2961 313.972 21.0404 313.972 20.7742C313.972 20.5081 313.868 20.2524 313.681 20.0616L311.589 18.0313L311.495 17.9371L311.589 17.8296L317.96 11.4562C318.023 11.3888 318.059 11.2999 318.059 11.2074C318.059 11.115 318.023 11.026 317.96 10.9587ZM311.346 20.8818L299.483 32.7009L299.388 32.795L299.294 32.7009L297.242 30.6571L296.77 30.1865L295.177 28.6536L295.083 28.5595L295.177 28.4654L297.053 26.5964L297.714 25.9375L297.809 25.8434L297.903 25.9375L300.603 28.6267L302.155 27.067L299.456 24.3778L299.361 24.2837L299.456 24.1895L300.427 23.2349L301.075 22.576L301.17 22.4819L301.278 22.576L302.884 24.1895L304.449 22.6432L302.83 21.0297L302.735 20.9356L302.83 20.8415V20.7742L304.328 19.2952L305.259 18.3674L307 16.6194L307.095 16.5253L307.189 16.6194L311.238 20.6532L311.333 20.7474L311.346 20.8818Z" fill="#B6B6B6"/>
<path d="M24.9152 38.0925C24.7645 38.0414 24.6265 37.9589 24.5103 37.8505C24.3743 37.7194 24.279 37.5521 24.2359 37.3684C24.1928 37.1848 24.2038 36.9928 24.2674 36.8152L25.1312 34.4218L22.9042 33.7495C22.5735 33.6511 22.2681 33.4825 22.0091 33.2552C21.7501 33.028 21.5436 32.7476 21.4038 32.4332C21.264 32.1189 21.1942 31.7781 21.1992 31.4343C21.2043 31.0905 21.284 30.7519 21.433 30.4418L26.1974 20.4379C26.4419 19.9195 26.8658 19.5063 27.3914 19.2741C27.917 19.0419 28.509 19.0064 29.0588 19.174L45.6329 24.2163C45.9636 24.3147 46.269 24.4833 46.528 24.7105C46.787 24.9377 46.9935 25.2182 47.1333 25.5325C47.2731 25.8469 47.3429 26.1876 47.3379 26.5314C47.3328 26.8752 47.2531 27.2138 47.1041 27.524L42.3937 37.5278C42.1467 38.0473 41.7203 38.4609 41.1924 38.6929C40.6646 38.925 40.0705 38.9601 39.5188 38.7917L30.8133 36.1025L25.5901 38.0388C25.3759 38.1247 25.1404 38.1435 24.9152 38.0925ZM28.4784 21.0564C28.3813 21.0234 28.2754 21.0271 28.1808 21.0667C28.0863 21.1064 28.0096 21.1793 27.9655 21.2716L23.2281 31.2889C23.2018 31.3434 23.1881 31.4031 23.1881 31.4637C23.1881 31.5242 23.2018 31.5839 23.2281 31.6385C23.2849 31.7466 23.3817 31.8286 23.498 31.867L26.7103 32.8486C26.8377 32.8864 26.956 32.9498 27.0579 33.0349C27.1598 33.12 27.243 33.2251 27.3025 33.3436C27.3619 33.4621 27.3963 33.5914 27.4036 33.7237C27.4109 33.856 27.3908 33.9883 27.3446 34.1125L26.8588 35.4571L30.4084 34.1125C30.6146 34.0457 30.8367 34.0457 31.0428 34.1125L40.0722 36.8017C40.1693 36.8347 40.2752 36.8311 40.3698 36.7914C40.4643 36.7517 40.541 36.6789 40.5851 36.5866L45.3225 26.5693C45.3497 26.5174 45.3639 26.4598 45.3639 26.4012C45.3639 26.3427 45.3497 26.285 45.3225 26.2332C45.2616 26.1661 45.1815 26.1192 45.0931 26.0987L28.4784 21.0564Z" fill="#B6B6B6"/>
<path d="M187.431 34.005C188.259 34.005 188.929 33.3368 188.929 32.5125C188.929 31.6882 188.259 31.02 187.431 31.02C186.604 31.02 185.933 31.6882 185.933 32.5125C185.933 33.3368 186.604 34.005 187.431 34.005Z" stroke="#B6B6B6" stroke-width="0.81" stroke-miterlimit="10"/>
<path d="M379.587 191.498C382.479 191.498 384.823 189.162 384.823 186.281C384.823 183.4 382.479 181.064 379.587 181.064C376.694 181.064 374.35 183.4 374.35 186.281C374.35 189.162 376.694 191.498 379.587 191.498Z" stroke="#B6B6B6" stroke-width="2.44" stroke-miterlimit="10"/>
<path d="M402.126 7.16671C403.96 7.16671 405.447 5.68579 405.447 3.85899C405.447 2.03219 403.96 0.55127 402.126 0.55127C400.293 0.55127 398.806 2.03219 398.806 3.85899C398.806 5.68579 400.293 7.16671 402.126 7.16671Z" stroke="#B6B6B6" stroke-width="0.81" stroke-miterlimit="10"/>
<path d="M4.77799 110.728C7.11114 110.728 9.00252 108.844 9.00252 106.519C9.00252 104.195 7.11114 102.311 4.77799 102.311C2.44485 102.311 0.553467 104.195 0.553467 106.519C0.553467 108.844 2.44485 110.728 4.77799 110.728Z" stroke="#B6B6B6" stroke-width="0.81" stroke-miterlimit="10"/>
<path d="M315.031 285.983H280.344L317.298 249.168C319.191 247.202 320.232 244.575 320.2 241.851C320.167 239.128 319.063 236.526 317.125 234.605C315.186 232.685 312.568 231.599 309.834 231.581C307.1 231.564 304.469 232.616 302.506 234.512L250.813 286.024H135.401L83.6943 234.512C81.7156 232.677 79.0994 231.68 76.3969 231.728C73.6943 231.777 71.1163 232.869 69.2059 234.774C67.2955 236.679 66.2017 239.249 66.155 241.941C66.1084 244.633 67.1124 247.239 68.9557 249.208L105.91 286.024H71.2231V286.252C68.7513 286.836 66.5783 288.299 65.1118 290.365C63.6452 292.432 62.986 294.96 63.2576 297.477C63.5292 299.993 64.7131 302.324 66.5872 304.033C68.4612 305.741 70.8967 306.71 73.4366 306.757H75.0158L92.0758 401.511C93.4103 408.944 97.3279 415.671 103.142 420.514C108.956 425.357 116.296 428.007 123.875 428H262.393C269.972 428.007 277.312 425.357 283.126 420.514C288.94 415.671 292.857 408.944 294.192 401.511L311.292 306.757H314.829C317.533 306.692 320.106 305.584 322.005 303.665C323.904 301.747 324.982 299.169 325.01 296.474C325.038 293.78 324.014 291.18 322.155 289.223C320.296 287.265 317.747 286.104 315.045 285.983H315.031ZM273.65 397.841C273.18 400.478 271.794 402.867 269.733 404.589C267.672 406.31 265.069 407.253 262.38 407.253H123.875C121.185 407.253 118.582 406.31 116.521 404.589C114.461 402.867 113.074 400.478 112.605 397.841L96.1654 306.757H290.048L273.65 397.841Z" fill="#B6B6B6"/>
<path d="M193.1 383.548C195.867 383.548 198.521 382.453 200.477 380.503C202.434 378.554 203.533 375.911 203.533 373.154V339.62C203.583 338.224 203.351 336.833 202.85 335.529C202.349 334.225 201.589 333.035 200.615 332.03C199.642 331.025 198.476 330.225 197.186 329.679C195.896 329.133 194.508 328.852 193.107 328.852C191.705 328.852 190.318 329.133 189.028 329.679C187.737 330.225 186.571 331.025 185.598 332.03C184.625 333.035 183.865 334.225 183.364 335.529C182.862 336.833 182.63 338.224 182.68 339.62V373.154C182.68 375.908 183.778 378.55 185.731 380.499C187.685 382.447 190.335 383.544 193.1 383.548Z" fill="#B6B6B6"/>
<path d="M233.78 383.346C234.437 383.479 235.106 383.546 235.777 383.548C238.196 383.545 240.539 382.706 242.405 381.173C244.271 379.64 245.545 377.509 246.008 375.144L252.567 341.596C252.829 340.258 252.823 338.881 252.55 337.545C252.278 336.208 251.744 334.939 250.979 333.808C250.213 332.678 249.232 331.708 248.091 330.955C246.95 330.203 245.671 329.681 244.327 329.421C242.984 329.16 241.602 329.166 240.261 329.438C238.92 329.709 237.645 330.241 236.51 331.003C235.375 331.766 234.402 332.743 233.647 333.88C232.891 335.017 232.367 336.291 232.106 337.629L225.533 371.164C225.27 372.503 225.275 373.881 225.548 375.219C225.82 376.556 226.355 377.827 227.121 378.959C227.886 380.09 228.869 381.06 230.012 381.813C231.154 382.566 232.435 383.087 233.78 383.346Z" fill="#B6B6B6"/>
<path d="M140.206 375.144C140.668 377.507 141.94 379.636 143.803 381.169C145.667 382.701 148.006 383.542 150.423 383.548C151.098 383.546 151.772 383.479 152.434 383.346C153.779 383.087 155.059 382.566 156.201 381.813C157.343 381.06 158.324 380.089 159.089 378.958C159.854 377.826 160.387 376.555 160.658 375.217C160.929 373.88 160.932 372.502 160.667 371.164L154.108 337.629C153.516 334.987 151.913 332.679 149.639 331.197C147.365 329.714 144.601 329.173 141.933 329.69C139.266 330.207 136.906 331.74 135.356 333.964C133.806 336.187 133.187 338.925 133.633 341.596L140.206 375.144Z" fill="#B6B6B6"/>
</svg>
