<svg width="43" height="43" viewBox="0 0 43 43" fill="none" xmlns="http://www.w3.org/2000/svg">
    <rect width="43" height="43" rx="4" fill="#F4F4F4"/>
    <path fill-rule="evenodd" clip-rule="evenodd" d="M18.247 10.654v2.837H15.41V9.403c0-.875.71-1.585 1.585-1.585h8.927c.875 0 1.585.71 1.585 1.585v6.09h6.09c.875 0 1.585.71 1.585 1.585v8.092c0 .876-.71 1.585-1.585 1.585h-11.68V23.92h10.428v-5.59h-6.09c-.875 0-1.585-.71-1.585-1.585v-6.09h-6.423z" fill="#911436"/>
    <path fill-rule="evenodd" clip-rule="evenodd" d="M24.754 32.345v-2.836h2.836v4.087c0 .876-.71 1.586-1.585 1.586H17.08c-.876 0-1.586-.71-1.586-1.586v-6.09h-6.09c-.875 0-1.585-.71-1.585-1.585V17.83c0-.876.71-1.585 1.585-1.585h11.68v2.836H10.655v5.59h6.09c.875 0 1.585.71 1.585 1.585v6.09h6.424z" fill="#911436"/>
</svg>
