<svg xmlns="http://www.w3.org/2000/svg" width="20" height="16" viewBox="0 0 20 16">
    <path fill="#fff" fill-rule="evenodd" d="M8.923.26c.325.347.325.915 0 1.262L6.178 4.446h7.644l-2.745-2.924c-.325-.347-.325-.915 0-1.262.326-.347.853-.347 1.179 0l3.922 4.186h2.989c.46 0 .833.4.833.889s-.373.889-.833.889h-.139l-1.293 7.59c-.216 1.262-1.25 2.186-2.46 2.186H4.726c-1.21 0-2.244-.924-2.46-2.186L.972 6.224H.833c-.46 0-.833-.4-.833-.89 0-.488.373-.888.833-.888h2.989L7.744.26c.326-.347.853-.347 1.179 0zM2.665 6.224l1.24 7.27c.07.417.417.728.82.728h10.55c.403 0 .748-.31.82-.728l1.24-7.27H2.665zM6.112 8.01c.455-.08.885.249.96.738l.416 2.666c.076.48-.23.942-.684 1.022-.454.08-.884-.249-.959-.738l-.417-2.666c-.076-.48.231-.942.684-1.022zm7.776 0c.453.08.76.542.684 1.022l-.417 2.666c-.075.49-.505.818-.96.738-.453-.08-.76-.542-.683-1.022l.416-2.666c.075-.49.505-.818.96-.738zM10 8.001c.46 0 .833.4.833.889v2.666c0 .489-.373.889-.833.889-.46 0-.833-.4-.833-.889V8.89C9.167 8.4 9.54 8 10 8z"/>
</svg>
