<svg id="Layer_1" data-name="Layer 1" xmlns="http://www.w3.org/2000/svg" viewBox="0 0 100 60.26"><defs><style>.cls-1{fill:#3e6fb6;}.cls-2{fill:#fff;}.cls-3{fill:#ee3a42;}</style></defs><title>24h</title><rect class="cls-1" width="100" height="60.26" rx="9.89"/><path class="cls-2" d="M338,168.39c.49-.41,1.48-1.13,3-2.15a19.52,19.52,0,0,0,5.15-4.84,8.46,8.46,0,0,0,1.42-4.62,7.21,7.21,0,0,0-1.24-4.11A7.37,7.37,0,0,0,342.9,150a16.47,16.47,0,0,0-6-.88A14.81,14.81,0,0,0,331,150a7.37,7.37,0,0,0-3.25,2.67,11.75,11.75,0,0,0-1.59,4.85l7.36.59a5.49,5.49,0,0,1,1.2-3.12,3.15,3.15,0,0,1,2.31-.88,3.09,3.09,0,0,1,2.24.85,2.75,2.75,0,0,1,.9,2.07,4.07,4.07,0,0,1-.91,2.37,21.51,21.51,0,0,1-4.13,3.64q-5.3,3.92-7.21,6.8a13.81,13.81,0,0,0-2.3,6.15h22.06v-6H336.23C336.9,169.33,337.49,168.8,338,168.39Z" transform="translate(-315 -132.37)"/><path class="cls-2" d="M367.68,165.33V149.07h-6.41L347.87,165v6h13.4v5h6.41v-5H371v-5.71Zm-6.41,0h-7.08l7.08-8.32Z" transform="translate(-315 -132.37)"/><path class="cls-3" d="M390.44,154.12l-.93,4.21H393A12.1,12.1,0,0,0,390.44,154.12Z" transform="translate(-315 -132.37)"/><path class="cls-3" d="M388.19,164.34l-1.89,8.59a12.86,12.86,0,0,0,7.12-8.59Z" transform="translate(-315 -132.37)"/><path class="cls-3" d="M379.23,169.43c.46-1.53,1.08-4.09,5.87-4.93.4-.07.36-.16.09-.16H369.82c.16-.81.69-3.29.91-4.23.36-1.5,1.15-1.78,2.57-1.78h8.4l1.85-8.29a17,17,0,0,0-4.5-.61c-8.07,0-14.62,5.63-14.62,12.58,0,6.65,6,12.1,13.62,12.54Z" transform="translate(-315 -132.37)"/><path class="cls-2" d="M403.1,149l-5.28,0a1.24,1.24,0,0,0-1.19,1l-1.86,8.33h-5.26l1.73-7.83A1.24,1.24,0,0,0,390,149l-5.29,0a1.24,1.24,0,0,0-1.19,1v0h0l-1.85,8.29H373a2,2,0,0,0-2.31,1.77c-.22.94-.75,3.42-.91,4.23h15.37c.27,0,.31.09-.09.16-4.79.84-5.41,3.4-5.87,4.93l-.92,4-.24,1.08c-.14.61,0,1.43.8,1.43h5.34c1,0,1.46-.18,1.61-.9l2.37-10.73h5.24l-2.28,10.19c-.13.61,0,1.43.8,1.43h5.35c1,0,1.45-.18,1.61-.9l5.41-24.56A1.24,1.24,0,0,0,403.1,149Z" transform="translate(-315 -132.37)"/></svg>