<svg width="34" height="25" viewBox="0 0 34 25" fill="none" xmlns="http://www.w3.org/2000/svg">
    <path fill-rule="evenodd" clip-rule="evenodd" d="M15.42 1.202a1.15 1.15 0 0 1-.029 1.626l-5.294 5.104h14.24l-5.295-5.104a1.15 1.15 0 1 1 1.596-1.656l7.012 6.76h4.259a1.15 1.15 0 0 1 0 2.3h-1.137L28.908 20.66a5.15 5.15 0 0 1-5.07 4.243H10.48a5.15 5.15 0 0 1-5.035-4.07l-2.275-10.6H2a1.15 1.15 0 0 1 0-2.3h4.784l7.012-6.76a1.15 1.15 0 0 1 1.626.03zm-9.899 9.03L7.693 20.35a2.85 2.85 0 0 0 2.787 2.252h13.358a2.85 2.85 0 0 0 2.806-2.348l1.792-10.022H5.52zm5.11 2.796a1.15 1.15 0 0 1 1.402.824l1.05 4.047a1.15 1.15 0 0 1-2.227.577l-1.05-4.046a1.15 1.15 0 0 1 .825-1.402zM23.661 13a1.15 1.15 0 0 1 .993 1.289l-.525 4.047a1.15 1.15 0 0 1-2.281-.296l.525-4.047A1.15 1.15 0 0 1 23.66 13zm-6.445-.01c.636 0 1.15.516 1.15 1.15v4.048a1.15 1.15 0 0 1-2.3 0V14.14c0-.635.515-1.15 1.15-1.15z" fill="#911436"/>
</svg>
