<svg width="60" height="57" viewBox="0 0 60 57" fill="none" xmlns="http://www.w3.org/2000/svg">
    <rect y=".904" width="59.172" height="55.227" rx="10" fill="#911436"/>
    <path d="m15.175 24.63 2.854 13.301a4 4 0 0 0 3.911 3.161h15.796a4 4 0 0 0 3.937-3.296l2.292-12.814a.3.3 0 0 0-.295-.353h-2.586m-25.91 0H12.82h5.889m-3.533 0h3.533m27.676 0h-5.3m-14.132-7.947-8.244 7.947m0 0h22.376m-8.244-7.947 8.244 7.947M22.83 30.306l1.177 4.541m5.889-4.54v4.54m7.066-4.54-.589 4.54" stroke="#fff" stroke-width="3" stroke-linecap="round" stroke-linejoin="round"/>
</svg>
