<svg width="31" height="59" viewBox="0 0 31 59" fill="none" xmlns="http://www.w3.org/2000/svg">
<path d="M-9.85105e-05 29.5C-9.70862e-05 13.2076 14.7076 -1.42433e-06 31 0L31 8.28676L31 28L30.9999 45L30.9999 59C14.7075 59 -9.99348e-05 45.7924 -9.85105e-05 29.5Z" fill="#F7BF20"/>
<path d="M15.2805 41C14.6377 41 14.0195 40.758 13.525 40.2981C12.5608 39.3541 12.5608 37.8051 13.525 36.8611L21.0167 29.503L13.5003 22.145C12.536 21.201 12.536 19.6519 13.5003 18.708C14.4646 17.764 16.047 17.764 17.0113 18.708L26.2831 27.7845C26.7529 28.2444 27.0002 28.8495 27.0002 29.503C27.0002 30.1565 26.7282 30.7616 26.2831 31.2215L17.036 40.2981C16.5415 40.758 15.8986 41 15.2805 41Z" fill="white"/>
</svg>
