<svg width="31" height="59" viewBox="0 0 31 59" fill="none" xmlns="http://www.w3.org/2000/svg">
<path d="M31.0002 29.5C31.0002 45.7924 16.2925 59 0.00012207 59L0.000125408 50.7132L0.00012207 31L0.000216007 14L0.000207424 0C16.2926 0 31.0002 13.2076 31.0002 29.5Z" fill="#F7BF20"/>
<path d="M15.7197 18C16.3626 18 16.9807 18.242 17.4752 18.7019C18.4395 19.6459 18.4395 21.1949 17.4752 22.1389L9.98354 29.497L17.4999 36.855C18.4642 37.799 18.4642 39.3481 17.4999 40.292C16.5357 41.236 14.9533 41.236 13.989 40.292L4.71711 31.2155C4.24733 30.7556 4.00009 30.1505 4.00009 29.497C4.00009 28.8435 4.27206 28.2384 4.71711 27.7785L13.9643 18.7019C14.4588 18.242 15.1016 18 15.7197 18Z" fill="white"/>
</svg>
