<svg width="19" height="22" viewBox="0 0 19 22" fill="none" xmlns="http://www.w3.org/2000/svg">
<path d="M16.2419 2.57258H13.6677C13.6065 1.15323 12.4113 0 10.9097 0H8.09032C6.61936 0 5.39355 1.15323 5.33226 2.57258H2.75806C1.22581 2.57258 0 3.75538 0 5.23387V5.88441C0 7.00807 0.735484 7.98387 1.77742 8.36828V17.8602C1.77742 20.1371 3.70806 22 6.06774 22H12.9323C15.2919 22 17.2226 20.1371 17.2226 17.8602V8.36828C18.2645 7.98387 19 7.00807 19 5.88441V5.23387C19 3.75538 17.7435 2.57258 16.2419 2.57258ZM8.09032 1.77419H10.9097C11.3694 1.77419 11.7677 2.12903 11.829 2.57258H7.17097C7.23226 2.12903 7.63065 1.77419 8.09032 1.77419ZM1.83871 5.23387C1.83871 4.73118 2.2371 4.34677 2.75806 4.34677H16.2419C16.7629 4.34677 17.1613 4.73118 17.1613 5.23387V5.88441C17.1613 6.3871 16.7629 6.77151 16.2419 6.77151H2.75806C2.2371 6.77151 1.83871 6.3871 1.83871 5.88441V5.23387ZM12.9323 20.2258H6.06774C4.71935 20.2258 3.61613 19.1613 3.61613 17.8602V8.5457H15.3839V17.8602C15.3839 19.1613 14.2806 20.2258 12.9323 20.2258Z" fill="#787878"/>
</svg>
