<svg id="Layer_1" data-name="Layer 1" xmlns="http://www.w3.org/2000/svg" xmlns:xlink="http://www.w3.org/1999/xlink" viewBox="0 0 127.75 127.75"><defs><style>.cls-1,.cls-2,.cls-3{fill:#8a9297;}.cls-1{clip-rule:evenodd;}.cls-3{fill-rule:evenodd;}.cls-4{clip-path:url(#clip-path);}.cls-5{clip-path:url(#clip-path-2);}.cls-6{clip-path:url(#clip-path-3);}.cls-7{clip-path:url(#clip-path-4);}.cls-8{clip-path:url(#clip-path-5);}.cls-9{clip-path:url(#clip-path-6);}.cls-10{clip-path:url(#clip-path-7);}.cls-11{clip-path:url(#clip-path-8);}.cls-12{clip-path:url(#clip-path-9);}.cls-13{clip-path:url(#clip-path-10);}.cls-14{clip-path:url(#clip-path-11);}.cls-15{clip-path:url(#clip-path-12);}.cls-16{clip-path:url(#clip-path-13);}.cls-17{clip-path:url(#clip-path-14);}.cls-18{clip-path:url(#clip-path-15);}.cls-19{clip-path:url(#clip-path-16);}.cls-20{clip-path:url(#clip-path-17);}.cls-21{clip-path:url(#clip-path-18);}.cls-22{clip-path:url(#clip-path-19);}.cls-23{clip-path:url(#clip-path-20);}.cls-24{clip-path:url(#clip-path-21);}.cls-25{clip-path:url(#clip-path-22);}.cls-26{clip-path:url(#clip-path-23);}.cls-27{clip-path:url(#clip-path-24);}.cls-28{clip-path:url(#clip-path-25);}.cls-29{clip-path:url(#clip-path-26);}.cls-30{clip-path:url(#clip-path-27);}.cls-31{clip-path:url(#clip-path-28);}.cls-32{clip-path:url(#clip-path-29);}</style><clipPath id="clip-path"><path class="cls-1" d="M-198.27-298.16h-.16l-11-.91a1.88,1.88,0,0,1-1.72-1.88v-44.32a6.43,6.43,0,0,0-1.71-4.91,6.62,6.62,0,0,0-4.5-1.46h-.17l-47.55-.53v46.91a1.88,1.88,0,0,1-.61,1.38,1.85,1.85,0,0,1-1.42.49l-9.25-.73a1.87,1.87,0,0,1-1.73-1.89c0-.3.27-29.77.21-36.75a14.85,14.85,0,0,1,3.35-9.34h-5.9a3.56,3.56,0,0,1-3.26-2.65,2.1,2.1,0,0,1-.08-.56v-6.09c0-3.05,1.89-4.32,3-4.58a1.75,1.75,0,0,1,.4,0l67.22-.91h.26c15.86,2,16.66,15.93,16.66,16.07v.09l-.18,50.73a1.85,1.85,0,0,1-.61,1.38A1.83,1.83,0,0,1-198.27-298.16Zm-9.11-4.53,7.24.6.17-48.64c-.05-.78-.94-10.82-13.24-12.45l-66.61.91a1.66,1.66,0,0,0-.18.87v5.54h10.12a1.89,1.89,0,0,1,1.42.65l.18-.2a1.86,1.86,0,0,1,1.35-.54l49.38.54a10.37,10.37,0,0,1,7.22,2.42c2,1.79,3,4.39,3,7.71Zm-66.93-5,5.48.43v-45.12h0c-.05,0-5.32,3.68-5.27,9.63S-274.25-314.22-274.31-307.73Z"/></clipPath><clipPath id="clip-path-2"><path class="cls-1" d="M-193.15-301.63h-3.77v-49.62c-.09-1-1.31-11.3-12-12.12l.28-3.75c11.42.87,15.13,10.62,15.5,15.66v49.83Z"/></clipPath><clipPath id="clip-path-3"><path class="cls-1" d="M-272.75-369.16a1.88,1.88,0,0,1-1.88-1.87l-.13-19.85a1.89,1.89,0,0,1,1.83-1.89l9.64-.3h.09l3.42.06a1.88,1.88,0,0,1,1.85,1.91,1.88,1.88,0,0,1-1.91,1.85l-3.38-.06-7.76.25.11,18a1.89,1.89,0,0,1-1.87,1.9Z"/></clipPath><clipPath id="clip-path-4"><path class="cls-1" d="M-257.12-376.24h-.46a5,5,0,0,1-4.15-1.76,4.52,4.52,0,0,1-.8-3.49l.84-9.68c-.08-2.54.61-4.44,2.06-5.65a6.06,6.06,0,0,1,4.7-1.2l41.85-2,.23,0c2.51.51,4.25,1.53,5.19,3a4.38,4.38,0,0,1,.63,3.09c-.11,1.42-.77,9.74-1.44,12.36a5.77,5.77,0,0,1-4.77,4.33l-.19,0c-1.59,0-37.91.92-43.69.92m1.2-18.09a2.08,2.08,0,0,0-1.31.39,3.62,3.62,0,0,0-.7,2.73v.12l-.91,10.29a.83.83,0,0,0,.09.49c.1.13.49.29,1.23.3,3.65.07,41.35-.85,43.87-.91a2,2,0,0,0,1.53-1.52c.52-2,1.15-9.22,1.35-11.83l0-.31c0-.54-.81-1.27-2.65-1.68l-41.83,2-.22-.05s-.23,0-.49,0"/></clipPath><clipPath id="clip-path-5"><path class="cls-1" d="M-220.44-391.15a1.21,1.21,0,0,0-.93-.27,1.72,1.72,0,0,0-1,.4,2.19,2.19,0,0,0-.61,1.24s0,.1,0,.17,1.1,0,2-.06c.5,0,.79-.16.85-.6a1,1,0,0,0-.2-.88m1.83,1a1.43,1.43,0,0,1-.61,1.08,2.71,2.71,0,0,1-1.42.4,9.83,9.83,0,0,1-1.86,0c-.38-.08-.51-.65-.56-.81a4.08,4.08,0,0,0-.07,1.09,1.11,1.11,0,0,0,.49,1,2.16,2.16,0,0,0,1.22.24c.33,0,.66,0,1-.07l.81-.11h0c.06,0,.14,0,.13.12l-.11.83c0,.06,0,.1-.11.13a6.84,6.84,0,0,1-1.06.25,8.27,8.27,0,0,1-1.07.11,4.7,4.7,0,0,1-1.54-.16,2,2,0,0,1-.95-.58,2,2,0,0,1-.45-1,4.08,4.08,0,0,1,0-1.36l.05-.41a3.91,3.91,0,0,1,1-2.33,3.64,3.64,0,0,1,2.51-.92,2.56,2.56,0,0,1,2.07.63,2.29,2.29,0,0,1,.47,1.93M-241-391.84l-4.46.17c-.29,0-.39.21-.43.49s-.08.58-.1.82.08.32.29.31h.39l1.4-.06c.11,0,0,0,0,.05a2.38,2.38,0,0,0-1.28,1.9c0,.21-.34,2.66-.34,2.66a.86.86,0,0,0,0,.16c0,.23.13.28.22.28l.9,0h.08c.35,0,.44-.11.49-.47.06-.51.54-4.27.57-4.56l1,0c.48,0,1.06-.07,1.33.25s.23.71.16,1.27l-.37,3a.89.89,0,0,0,0,.15c0,.23.14.28.23.28l.89,0h.09c.34,0,.44-.11.48-.47,0-.12.48-3.76.52-4a1.88,1.88,0,0,0-2.08-2.07m25-.33c0-.24,0-.66-.47-.64l-.82,0a.42.42,0,0,0-.39.35l-.73,5.89c0,.32.06.44.21.43l1.17,0a.35.35,0,0,0,.32-.29l.09-.7.44-3.51a.31.31,0,0,0-.35-.36l-.95,0h-.08c.5-.09,1.48-.53,1.56-1.19m-20.63,1.92-1,0h-.1s0,0,0,0c.51-.1,1.48-.54,1.57-1.2,0-.24,0-.66-.48-.64l-.81,0a.44.44,0,0,0-.4.36l-.73,5.88c-.05.33.06.44.22.44l1.17-.05a.32.32,0,0,0,.31-.28l.1-.71s.23-1.91.43-3.5a.31.31,0,0,0-.34-.37m11.3-2.05a4.76,4.76,0,0,0-.9-.18,9.6,9.6,0,0,0-1.08,0,3.93,3.93,0,0,0-1,.15,2.56,2.56,0,0,0-.8.37,1.9,1.9,0,0,0-.56.6,2.08,2.08,0,0,0-.28.86,1.38,1.38,0,0,0,.25,1.11,2.4,2.4,0,0,0,1,.69l1,.38a1.75,1.75,0,0,1,.46.26.44.44,0,0,1,.14.43.61.61,0,0,1-.3.49,1.61,1.61,0,0,1-.76.17h-1.05c-.38,0-.73,0-1-.06h0a.1.1,0,0,0-.11.1s0,0,0,0l-.12.93c0,.1,0,.16.13.17a9.4,9.4,0,0,0,1.12.17,8.25,8.25,0,0,0,1.23,0,3.3,3.3,0,0,0,1.85-.57,2,2,0,0,0,.82-1.43,1.53,1.53,0,0,0-.24-1.14,2.16,2.16,0,0,0-1-.72l-1-.4a2.62,2.62,0,0,1-.45-.23.4.4,0,0,1-.15-.41.58.58,0,0,1,.31-.48,1.9,1.9,0,0,1,.69-.12,8.61,8.61,0,0,1,.88,0c.29,0,.58,0,.86.07h.07a.12.12,0,0,0,.1-.09c0-.06,0,0,0,0l.12-.93c0-.12-.08-.16-.15-.18m-5.37,1.34c0,.06-.06.1-.1.1h-.06a8.28,8.28,0,0,0-.87-.07h-.88a1.69,1.69,0,0,0-.69.13.56.56,0,0,0-.3.47.38.38,0,0,0,.14.41,2.32,2.32,0,0,0,.45.23l1,.41a2.16,2.16,0,0,1,1,.72,1.5,1.5,0,0,1,.24,1.13,2,2,0,0,1-.82,1.44,3.3,3.3,0,0,1-1.85.57,12.24,12.24,0,0,1-1.23,0c-.39,0-.76-.1-1.12-.17-.1,0-.14-.07-.12-.18l.11-.93s0,0,0,0a.09.09,0,0,1,.11-.09h0c.31,0,.66.05,1,.06s.74,0,1.05,0a1.62,1.62,0,0,0,.76-.16.67.67,0,0,0,.31-.49.46.46,0,0,0-.15-.43,1.84,1.84,0,0,0-.45-.26l-1-.38a2.4,2.4,0,0,1-1-.69,1.41,1.41,0,0,1-.25-1.12,2.08,2.08,0,0,1,.28-.86,2.14,2.14,0,0,1,.56-.6,2.8,2.8,0,0,1,.8-.37,4.46,4.46,0,0,1,1-.14,6.35,6.35,0,0,1,1.07,0,3.58,3.58,0,0,1,.9.18c.07,0,.16.06.15.17l-.12.93s0,0,0,0"/></clipPath><clipPath id="clip-path-6"><path class="cls-1" d="M-235.83-383c-.36,0-.44.13-.46.25s0,.15.17.14l.24,0Zm-.35.63q-.47,0-.42-.36c0-.3.27-.44.8-.51h0a.53.53,0,0,0,0-.19s-.07-.06-.15-.05a.82.82,0,0,0-.46.17l0,0,0-.3h0a1.36,1.36,0,0,1,.55-.16c.19,0,.31,0,.36.17a.51.51,0,0,1,0,.31l-.1.83h-.08A4.48,4.48,0,0,1-236.18-382.33Z"/></clipPath><clipPath id="clip-path-7"><path class="cls-1" d="M-235-383.92l0-.34h.35l-.05.34Zm-.19,1.53.18-1.33h.32l-.17,1.33Z"/></clipPath><clipPath id="clip-path-8"><path class="cls-1" d="M-234.17-382.39a.91.91,0,0,1-.36-.06h0l.05-.32,0,0a.45.45,0,0,0,.32.11c.13,0,.23-.06.24-.15a.13.13,0,0,0-.07-.12.91.91,0,0,0-.17-.08c-.24-.11-.31-.2-.29-.37a.55.55,0,0,1,.57-.43.81.81,0,0,1,.35.07h0l0,.3,0,0a.43.43,0,0,0-.29-.08c-.13,0-.22.06-.23.14s0,.08.2.16a.59.59,0,0,1,.25.16.31.31,0,0,1,.08.25.56.56,0,0,1-.6.43"/></clipPath><clipPath id="clip-path-9"><path class="cls-1" d="M-231.82-383.61a.52.52,0,0,0-.55.46c0,.28.09.42.38.41l.19,0,.11-.83Zm-.1,1.75.09-.67a.73.73,0,0,1-.25,0c-.44,0-.67-.22-.62-.63a.88.88,0,0,1,.95-.74,1.76,1.76,0,0,1,.39,0h0l-.26,2Z"/></clipPath><clipPath id="clip-path-10"><path class="cls-1" d="M-230.52-382.55a.62.62,0,0,1-.44-.1c-.09-.08-.12-.19-.09-.39l.11-.84h.33l-.11.81c0,.22,0,.28.26.27l.23,0,.15-1.08h.32l-.17,1.29h0a3.67,3.67,0,0,1-.57.08"/></clipPath><clipPath id="clip-path-11"><path class="cls-1" d="M-228.53-383.5c0-.16-.09-.23-.25-.23a.41.41,0,0,0-.37.26Zm-.38.9c-.44,0-.67-.22-.62-.64a.82.82,0,0,1,.78-.74.5.5,0,0,1,.48.22.57.57,0,0,1,0,.41v.09l-1,0v0c0,.23.11.37.38.36a.85.85,0,0,0,.45-.16l.06,0,0,.29h0A1.13,1.13,0,0,1-228.91-382.6Z"/></clipPath><clipPath id="clip-path-12"><path class="cls-1" d="M-227.32-382.69l.14-1.05h-.22l0-.25h.22v0a.79.79,0,0,1,.27-.57.74.74,0,0,1,.43-.17h.16l0,.24h-.14a.31.31,0,0,0-.24.1.75.75,0,0,0-.12.37v0h.34l0,.24-.35,0-.14,1.05Z"/></clipPath><clipPath id="clip-path-13"><path class="cls-1" d="M-225.66-383.34c-.36,0-.45.12-.46.24s0,.15.17.15l.24,0Zm-.35.62c-.31,0-.46-.11-.42-.35s.27-.45.8-.51h0v0a.42.42,0,0,0,0-.19s-.07,0-.15,0a1,1,0,0,0-.46.17l-.05,0,0-.3h0a1.25,1.25,0,0,1,.54-.17c.2,0,.32.05.37.17a.61.61,0,0,1,0,.31l-.11.83h-.07A3,3,0,0,1-226-382.72Z"/></clipPath><clipPath id="clip-path-14"><path class="cls-1" d="M-225-382.77l.16-1.25h0a1.68,1.68,0,0,1,.57-.13.93.93,0,0,1,.24,0h0l0,.27h0a.4.4,0,0,0-.21,0,.91.91,0,0,0-.27.05l-.14,1Z"/></clipPath><clipPath id="clip-path-15"><path class="cls-1" d="M-222.3-382.88l.11-.83c0-.19,0-.26-.22-.26l-.25.05a.66.66,0,0,1,0,.2l-.12.86h-.32l.11-.83c0-.2,0-.26-.24-.25a.73.73,0,0,0-.25,0l-.15,1.06h-.32l.16-1.25h0a2.39,2.39,0,0,1,.61-.11.6.6,0,0,1,.36.07,1.26,1.26,0,0,1,.45-.1.52.52,0,0,1,.42.13c.07.07.08.17.06.34l-.11.86Z"/></clipPath><clipPath id="clip-path-16"><path class="cls-1" d="M-237.34-382.31l.11-.83c0-.19,0-.26-.23-.25a.55.55,0,0,0-.24.05.74.74,0,0,1,0,.2l-.11.85h-.33l.11-.83c0-.19,0-.26-.24-.25a.77.77,0,0,0-.25,0l-.14,1.06-.33,0,.17-1.26h0a3,3,0,0,1,.61-.11.77.77,0,0,1,.36.07,1.52,1.52,0,0,1,.46-.1.48.48,0,0,1,.41.13.36.36,0,0,1,.06.34l-.11.86Z"/></clipPath><clipPath id="clip-path-17"><path class="cls-1" d="M-221.1-384.41l.57-.58h.3l-.64.6Zm.26.88c-.36,0-.44.13-.46.25s0,.15.17.14l.25,0Zm-.35.63q-.47,0-.42-.36c0-.3.27-.45.8-.51h0a.53.53,0,0,0,0-.19s-.07-.06-.15,0a.82.82,0,0,0-.46.17l-.05,0,0-.29h0a1.28,1.28,0,0,1,.54-.16c.19,0,.32,0,.36.16a.62.62,0,0,1,0,.32l-.11.83h-.08A4.24,4.24,0,0,1-221.19-382.9Z"/></clipPath><clipPath id="clip-path-18"><path class="cls-1" d="M-219.6-383c-.44,0-.68-.23-.63-.64a.83.83,0,0,1,.83-.73.68.68,0,0,1,.35.06h0l0,.29-.05,0a.41.41,0,0,0-.29-.08.48.48,0,0,0-.49.45c0,.28.1.43.37.42a.7.7,0,0,0,.34-.12l.06,0,0,.29h0a.86.86,0,0,1-.41.1"/></clipPath><clipPath id="clip-path-19"><path class="cls-1" d="M-218.73-384.54l0-.34h.34l0,.34Zm-.19,1.53.18-1.33h.32l-.17,1.33Z"/></clipPath><clipPath id="clip-path-20"><path class="cls-1" d="M-217.45-383.66c-.36.05-.45.13-.46.25s0,.15.17.14l.24,0Zm-.35.63c-.31,0-.46-.11-.42-.36s.27-.44.8-.51h0a.42.42,0,0,0,0-.19s-.07-.06-.15,0a.82.82,0,0,0-.46.17l0,0,0-.3h0a1.37,1.37,0,0,1,.54-.16c.2,0,.32.05.37.16a.66.66,0,0,1,0,.32l-.11.83h-.07A4.48,4.48,0,0,1-217.8-383Z"/></clipPath><clipPath id="clip-path-21"><path class="cls-1" d="M-249-387.94l-.55,3.11a4.39,4.39,0,0,0,2.81-3.19Z"/></clipPath><clipPath id="clip-path-22"><path class="cls-1" d="M-248.64-389.94-247-390a4.08,4.08,0,0,0-1.35-1.74Z"/></clipPath><clipPath id="clip-path-23"><path class="cls-1" d="M-251.4-386.16c.13-.51.3-1.36,1.88-1.7.13,0,.12-.06,0-.06l-5.1.2c.05-.27.19-1.1.25-1.42.1-.5.36-.6.83-.62l2.79-.1.5-2.77a5.21,5.21,0,0,0-1.49-.15c-2.68.1-4.78,2-4.69,4.35s2.15,3.93,4.67,4Z"/></clipPath><clipPath id="clip-path-24"><polygon class="cls-1" points="-235.4 -302.68 -265.93 -305.08 -265.64 -308.83 -239.17 -306.75 -239.25 -353.89 -235.49 -353.89 -235.4 -302.68"/></clipPath><clipPath id="clip-path-25"><rect class="cls-2" x="-225.24" y="-317.62" width="3.76" height="27.92" transform="translate(96.28 -503.48) rotate(-85.67)"/></clipPath><clipPath id="clip-path-26"><path class="cls-1" d="M-231.73-319.35a1.86,1.86,0,0,1-1.62-.92,1.88,1.88,0,0,1,.66-2.57l1-.62v-1.89l-1.52-1.27a1.88,1.88,0,0,1-.24-2.65,1.88,1.88,0,0,1,2.65-.24l2.2,1.83a1.88,1.88,0,0,1,.67,1.45v3.84a1.88,1.88,0,0,1-.92,1.62l-2,1.16a1.85,1.85,0,0,1-1,.26"/></clipPath><clipPath id="clip-path-27"><path class="cls-1" d="M-243.47-319.88a1.85,1.85,0,0,1-.95-.27l-2-1.16a1.88,1.88,0,0,1-.92-1.61v-3.85a1.89,1.89,0,0,1,.68-1.45l2.2-1.83a1.89,1.89,0,0,1,2.65.24,1.89,1.89,0,0,1-.24,2.65l-1.53,1.27v1.9l1,.61a1.87,1.87,0,0,1,.65,2.58,1.87,1.87,0,0,1-1.62.92"/></clipPath><clipPath id="clip-path-28"><path class="cls-2" d="M-552.4,70.79h-83.52L-600.36,37a3.3,3.3,0,0,0,0-4.94,3.71,3.71,0,0,0-5.19,0l-42,39.81a3.3,3.3,0,0,0,0,4.94l41.85,39.81a3.71,3.71,0,0,0,5.19,0,3.3,3.3,0,0,0,0-4.94l-35.37-33.82h83.52a3.62,3.62,0,0,0,3.7-3.52A3.62,3.62,0,0,0-552.4,70.79Z"/></clipPath><clipPath id="clip-path-29"><path class="cls-2" d="M-793,70.79h83.51L-745,37A3.3,3.3,0,0,1-745,32a3.7,3.7,0,0,1,5.18,0l42,39.81a3.3,3.3,0,0,1,0,4.94l-41.85,39.81a3.71,3.71,0,0,1-5.19,0,3.3,3.3,0,0,1,0-4.94l35.37-33.82H-793a3.63,3.63,0,0,1-3.71-3.52A3.63,3.63,0,0,1-793,70.79Z"/></clipPath></defs><title>icons</title><path class="cls-2" d="M110.85,3.75H20a4.47,4.47,0,0,0-4.41,4.42V116.94a5.78,5.78,0,0,0,9,4.92L35,114.79l12,7.95a6.28,6.28,0,0,0,3.29,1,5.52,5.52,0,0,0,3.15-1l12-7.95,12,7.95a5.92,5.92,0,0,0,6.44,0l12-7.95,10.47,7.07a5.79,5.79,0,0,0,9-4.92V8.17A4.47,4.47,0,0,0,110.85,3.75Zm-4.41,107.51-7.57-5.05a6,6,0,0,0-6.44,0l-11.86,8-12-8a5.42,5.42,0,0,0-3.15-.88,5.55,5.55,0,0,0-3.16,1l-12,7.82-11.87-8a5.94,5.94,0,0,0-6.43,0l-7.57,5.05V12.59h82Z"/><path class="cls-2" d="M43.69,70.64a3.81,3.81,0,0,0,0,7.61H87.16a3.81,3.81,0,1,0,0-7.61Z"/><path class="cls-2" d="M87.16,87.05H43.69a3.81,3.81,0,0,0,0,7.61H87.16a3.81,3.81,0,1,0,0-7.61Z"/><path class="cls-2" d="M41.18,29H51c.62,0,.27.21.08.28-1.5.49-5.83,3.51-5.84,10.14,0,1.16-.06,18.33-.06,18.33a5.69,5.69,0,0,0,0,.84c.15,1.29.95,1.59,1.45,1.59h4.91l.45,0c1.91-.09,2.39-.5,2.39-2.45,0-2.79.09-27.15.09-28.71H69c2.65,0,5.8-.18,7.53,1.69s1.73,3.94,1.72,7c0,0,0,20.11,0,20.11a5.69,5.69,0,0,0,0,.84c.16,1.29,1,1.59,1.45,1.59H84.6l.45,0c1.91-.09,2.38-.5,2.39-2.45,0-.69.1-24.33.1-25.76,0-9.29-9.2-11.81-12.9-11.81s-30.4,0-33.22,0c-1.61,0-2,1-2.07,2.6,0,1.31,0,3.18,0,4.5S40,29,41.18,29Z"/><path class="cls-3" d="M-198.27-298.16h-.16l-11-.91a1.88,1.88,0,0,1-1.72-1.88v-44.32a6.43,6.43,0,0,0-1.71-4.91,6.62,6.62,0,0,0-4.5-1.46h-.17l-47.55-.53v46.91a1.88,1.88,0,0,1-.61,1.38,1.85,1.85,0,0,1-1.42.49l-9.25-.73a1.87,1.87,0,0,1-1.73-1.89c0-.3.27-29.77.21-36.75a14.85,14.85,0,0,1,3.35-9.34h-5.9a3.56,3.56,0,0,1-3.26-2.65,2.1,2.1,0,0,1-.08-.56v-6.09c0-3.05,1.89-4.32,3-4.58a1.75,1.75,0,0,1,.4,0l67.22-.91h.26c15.86,2,16.66,15.93,16.66,16.07v.09l-.18,50.73a1.85,1.85,0,0,1-.61,1.38A1.83,1.83,0,0,1-198.27-298.16Zm-9.11-4.53,7.24.6.17-48.64c-.05-.78-.94-10.82-13.24-12.45l-66.61.91a1.66,1.66,0,0,0-.18.87v5.54h10.12a1.89,1.89,0,0,1,1.42.65l.18-.2a1.86,1.86,0,0,1,1.35-.54l49.38.54a10.37,10.37,0,0,1,7.22,2.42c2,1.79,3,4.39,3,7.71Zm-66.93-5,5.48.43v-45.12h0c-.05,0-5.32,3.68-5.27,9.63S-274.25-314.22-274.31-307.73Z"/><g class="cls-4"><rect class="cls-2" x="-4781.54" y="-2882.09" width="6348.4" height="5052.27"/></g><path class="cls-3" d="M-193.15-301.63h-3.77v-49.62c-.09-1-1.31-11.3-12-12.12l.28-3.75c11.42.87,15.13,10.62,15.5,15.66v49.83Z"/><g class="cls-5"><rect class="cls-2" x="-4781.54" y="-2882.09" width="6348.4" height="5052.27"/></g><path class="cls-3" d="M-272.75-369.16a1.88,1.88,0,0,1-1.88-1.87l-.13-19.85a1.89,1.89,0,0,1,1.83-1.89l9.64-.3h.09l3.42.06a1.88,1.88,0,0,1,1.85,1.91,1.88,1.88,0,0,1-1.91,1.85l-3.38-.06-7.76.25.11,18a1.89,1.89,0,0,1-1.87,1.9Z"/><g class="cls-6"><rect class="cls-2" x="-4781.54" y="-2882.09" width="6348.4" height="5052.27"/></g><path class="cls-3" d="M-257.12-376.24h-.46a5,5,0,0,1-4.15-1.76,4.52,4.52,0,0,1-.8-3.49l.84-9.68c-.08-2.54.61-4.44,2.06-5.65a6.06,6.06,0,0,1,4.7-1.2l41.85-2,.23,0c2.51.51,4.25,1.53,5.19,3a4.38,4.38,0,0,1,.63,3.09c-.11,1.42-.77,9.74-1.44,12.36a5.77,5.77,0,0,1-4.77,4.33l-.19,0c-1.59,0-37.91.92-43.69.92m1.2-18.09a2.08,2.08,0,0,0-1.31.39,3.62,3.62,0,0,0-.7,2.73v.12l-.91,10.29a.83.83,0,0,0,.09.49c.1.13.49.29,1.23.3,3.65.07,41.35-.85,43.87-.91a2,2,0,0,0,1.53-1.52c.52-2,1.15-9.22,1.35-11.83l0-.31c0-.54-.81-1.27-2.65-1.68l-41.83,2-.22-.05s-.23,0-.49,0"/><g class="cls-7"><rect class="cls-2" x="-4781.54" y="-2882.09" width="6348.4" height="5052.27"/></g><path class="cls-3" d="M-220.44-391.15a1.21,1.21,0,0,0-.93-.27,1.72,1.72,0,0,0-1,.4,2.19,2.19,0,0,0-.61,1.24s0,.1,0,.17,1.1,0,2-.06c.5,0,.79-.16.85-.6a1,1,0,0,0-.2-.88m1.83,1a1.43,1.43,0,0,1-.61,1.08,2.71,2.71,0,0,1-1.42.4,9.83,9.83,0,0,1-1.86,0c-.38-.08-.51-.65-.56-.81a4.08,4.08,0,0,0-.07,1.09,1.11,1.11,0,0,0,.49,1,2.16,2.16,0,0,0,1.22.24c.33,0,.66,0,1-.07l.81-.11h0c.06,0,.14,0,.13.12l-.11.83c0,.06,0,.1-.11.13a6.84,6.84,0,0,1-1.06.25,8.27,8.27,0,0,1-1.07.11,4.7,4.7,0,0,1-1.54-.16,2,2,0,0,1-.95-.58,2,2,0,0,1-.45-1,4.08,4.08,0,0,1,0-1.36l.05-.41a3.91,3.91,0,0,1,1-2.33,3.64,3.64,0,0,1,2.51-.92,2.56,2.56,0,0,1,2.07.63,2.29,2.29,0,0,1,.47,1.93M-241-391.84l-4.46.17c-.29,0-.39.21-.43.49s-.08.58-.1.82.08.32.29.31h.39l1.4-.06c.11,0,0,0,0,.05a2.38,2.38,0,0,0-1.28,1.9c0,.21-.34,2.66-.34,2.66a.86.86,0,0,0,0,.16c0,.23.13.28.22.28l.9,0h.08c.35,0,.44-.11.49-.47.06-.51.54-4.27.57-4.56l1,0c.48,0,1.06-.07,1.33.25s.23.71.16,1.27l-.37,3a.89.89,0,0,0,0,.15c0,.23.14.28.23.28l.89,0h.09c.34,0,.44-.11.48-.47,0-.12.48-3.76.52-4a1.88,1.88,0,0,0-2.08-2.07m25-.33c0-.24,0-.66-.47-.64l-.82,0a.42.42,0,0,0-.39.35l-.73,5.89c0,.32.06.44.21.43l1.17,0a.35.35,0,0,0,.32-.29l.09-.7.44-3.51a.31.31,0,0,0-.35-.36l-.95,0h-.08c.5-.09,1.48-.53,1.56-1.19m-20.63,1.92-1,0h-.1s0,0,0,0c.51-.1,1.48-.54,1.57-1.2,0-.24,0-.66-.48-.64l-.81,0a.44.44,0,0,0-.4.36l-.73,5.88c-.05.33.06.44.22.44l1.17-.05a.32.32,0,0,0,.31-.28l.1-.71s.23-1.91.43-3.5a.31.31,0,0,0-.34-.37m11.3-2.05a4.76,4.76,0,0,0-.9-.18,9.6,9.6,0,0,0-1.08,0,3.93,3.93,0,0,0-1,.15,2.56,2.56,0,0,0-.8.37,1.9,1.9,0,0,0-.56.6,2.08,2.08,0,0,0-.28.86,1.38,1.38,0,0,0,.25,1.11,2.4,2.4,0,0,0,1,.69l1,.38a1.75,1.75,0,0,1,.46.26.44.44,0,0,1,.14.43.61.61,0,0,1-.3.49,1.61,1.61,0,0,1-.76.17h-1.05c-.38,0-.73,0-1-.06h0a.1.1,0,0,0-.11.1s0,0,0,0l-.12.93c0,.1,0,.16.13.17a9.4,9.4,0,0,0,1.12.17,8.25,8.25,0,0,0,1.23,0,3.3,3.3,0,0,0,1.85-.57,2,2,0,0,0,.82-1.43,1.53,1.53,0,0,0-.24-1.14,2.16,2.16,0,0,0-1-.72l-1-.4a2.62,2.62,0,0,1-.45-.23.4.4,0,0,1-.15-.41.58.58,0,0,1,.31-.48,1.9,1.9,0,0,1,.69-.12,8.61,8.61,0,0,1,.88,0c.29,0,.58,0,.86.07h.07a.12.12,0,0,0,.1-.09c0-.06,0,0,0,0l.12-.93c0-.12-.08-.16-.15-.18m-5.37,1.34c0,.06-.06.1-.1.1h-.06a8.28,8.28,0,0,0-.87-.07h-.88a1.69,1.69,0,0,0-.69.13.56.56,0,0,0-.3.47.38.38,0,0,0,.14.41,2.32,2.32,0,0,0,.45.23l1,.41a2.16,2.16,0,0,1,1,.72,1.5,1.5,0,0,1,.24,1.13,2,2,0,0,1-.82,1.44,3.3,3.3,0,0,1-1.85.57,12.24,12.24,0,0,1-1.23,0c-.39,0-.76-.1-1.12-.17-.1,0-.14-.07-.12-.18l.11-.93s0,0,0,0a.09.09,0,0,1,.11-.09h0c.31,0,.66.05,1,.06s.74,0,1.05,0a1.62,1.62,0,0,0,.76-.16.67.67,0,0,0,.31-.49.46.46,0,0,0-.15-.43,1.84,1.84,0,0,0-.45-.26l-1-.38a2.4,2.4,0,0,1-1-.69,1.41,1.41,0,0,1-.25-1.12,2.08,2.08,0,0,1,.28-.86,2.14,2.14,0,0,1,.56-.6,2.8,2.8,0,0,1,.8-.37,4.46,4.46,0,0,1,1-.14,6.35,6.35,0,0,1,1.07,0,3.58,3.58,0,0,1,.9.18c.07,0,.16.06.15.17l-.12.93s0,0,0,0"/><g class="cls-8"><rect class="cls-2" x="-4781.54" y="-2882.09" width="6348.4" height="5052.27"/></g><path class="cls-3" d="M-235.83-383c-.36,0-.44.13-.46.25s0,.15.17.14l.24,0Zm-.35.63q-.47,0-.42-.36c0-.3.27-.44.8-.51h0a.53.53,0,0,0,0-.19s-.07-.06-.15-.05a.82.82,0,0,0-.46.17l0,0,0-.3h0a1.36,1.36,0,0,1,.55-.16c.19,0,.31,0,.36.17a.51.51,0,0,1,0,.31l-.1.83h-.08A4.48,4.48,0,0,1-236.18-382.33Z"/><g class="cls-9"><rect class="cls-2" x="-4781.54" y="-2882.09" width="6348.4" height="5052.27"/></g><path class="cls-3" d="M-235-383.92l0-.34h.35l-.05.34Zm-.19,1.53.18-1.33h.32l-.17,1.33Z"/><g class="cls-10"><rect class="cls-2" x="-4781.54" y="-2882.09" width="6348.4" height="5052.27"/></g><path class="cls-3" d="M-234.17-382.39a.91.91,0,0,1-.36-.06h0l.05-.32,0,0a.45.45,0,0,0,.32.11c.13,0,.23-.06.24-.15a.13.13,0,0,0-.07-.12.91.91,0,0,0-.17-.08c-.24-.11-.31-.2-.29-.37a.55.55,0,0,1,.57-.43.81.81,0,0,1,.35.07h0l0,.3,0,0a.43.43,0,0,0-.29-.08c-.13,0-.22.06-.23.14s0,.08.2.16a.59.59,0,0,1,.25.16.31.31,0,0,1,.08.25.56.56,0,0,1-.6.43"/><g class="cls-11"><rect class="cls-2" x="-4781.54" y="-2882.09" width="6348.4" height="5052.27"/></g><path class="cls-3" d="M-231.82-383.61a.52.52,0,0,0-.55.46c0,.28.09.42.38.41l.19,0,.11-.83Zm-.1,1.75.09-.67a.73.73,0,0,1-.25,0c-.44,0-.67-.22-.62-.63a.88.88,0,0,1,.95-.74,1.76,1.76,0,0,1,.39,0h0l-.26,2Z"/><g class="cls-12"><rect class="cls-2" x="-4781.54" y="-2882.09" width="6348.4" height="5052.27"/></g><path class="cls-3" d="M-230.52-382.55a.62.62,0,0,1-.44-.1c-.09-.08-.12-.19-.09-.39l.11-.84h.33l-.11.81c0,.22,0,.28.26.27l.23,0,.15-1.08h.32l-.17,1.29h0a3.67,3.67,0,0,1-.57.08"/><g class="cls-13"><rect class="cls-2" x="-4781.54" y="-2882.09" width="6348.4" height="5052.27"/></g><path class="cls-3" d="M-228.53-383.5c0-.16-.09-.23-.25-.23a.41.41,0,0,0-.37.26Zm-.38.9c-.44,0-.67-.22-.62-.64a.82.82,0,0,1,.78-.74.5.5,0,0,1,.48.22.57.57,0,0,1,0,.41v.09l-1,0v0c0,.23.11.37.38.36a.85.85,0,0,0,.45-.16l.06,0,0,.29h0A1.13,1.13,0,0,1-228.91-382.6Z"/><g class="cls-14"><rect class="cls-2" x="-4781.54" y="-2882.09" width="6348.4" height="5052.27"/></g><path class="cls-3" d="M-227.32-382.69l.14-1.05h-.22l0-.25h.22v0a.79.79,0,0,1,.27-.57.74.74,0,0,1,.43-.17h.16l0,.24h-.14a.31.31,0,0,0-.24.1.75.75,0,0,0-.12.37v0h.34l0,.24-.35,0-.14,1.05Z"/><g class="cls-15"><rect class="cls-2" x="-4781.54" y="-2882.09" width="6348.4" height="5052.27"/></g><path class="cls-3" d="M-225.66-383.34c-.36,0-.45.12-.46.24s0,.15.17.15l.24,0Zm-.35.62c-.31,0-.46-.11-.42-.35s.27-.45.8-.51h0v0a.42.42,0,0,0,0-.19s-.07,0-.15,0a1,1,0,0,0-.46.17l-.05,0,0-.3h0a1.25,1.25,0,0,1,.54-.17c.2,0,.32.05.37.17a.61.61,0,0,1,0,.31l-.11.83h-.07A3,3,0,0,1-226-382.72Z"/><g class="cls-16"><rect class="cls-2" x="-4781.54" y="-2882.09" width="6348.4" height="5052.27"/></g><path class="cls-3" d="M-225-382.77l.16-1.25h0a1.68,1.68,0,0,1,.57-.13.93.93,0,0,1,.24,0h0l0,.27h0a.4.4,0,0,0-.21,0,.91.91,0,0,0-.27.05l-.14,1Z"/><g class="cls-17"><rect class="cls-2" x="-4781.54" y="-2882.09" width="6348.4" height="5052.27"/></g><path class="cls-3" d="M-222.3-382.88l.11-.83c0-.19,0-.26-.22-.26l-.25.05a.66.66,0,0,1,0,.2l-.12.86h-.32l.11-.83c0-.2,0-.26-.24-.25a.73.73,0,0,0-.25,0l-.15,1.06h-.32l.16-1.25h0a2.39,2.39,0,0,1,.61-.11.6.6,0,0,1,.36.07,1.26,1.26,0,0,1,.45-.1.52.52,0,0,1,.42.13c.07.07.08.17.06.34l-.11.86Z"/><g class="cls-18"><rect class="cls-2" x="-4781.54" y="-2882.09" width="6348.4" height="5052.27"/></g><path class="cls-3" d="M-237.34-382.31l.11-.83c0-.19,0-.26-.23-.25a.55.55,0,0,0-.24.05.74.74,0,0,1,0,.2l-.11.85h-.33l.11-.83c0-.19,0-.26-.24-.25a.77.77,0,0,0-.25,0l-.14,1.06-.33,0,.17-1.26h0a3,3,0,0,1,.61-.11.77.77,0,0,1,.36.07,1.52,1.52,0,0,1,.46-.1.48.48,0,0,1,.41.13.36.36,0,0,1,.06.34l-.11.86Z"/><g class="cls-19"><rect class="cls-2" x="-4781.54" y="-2882.09" width="6348.4" height="5052.27"/></g><path class="cls-3" d="M-221.1-384.41l.57-.58h.3l-.64.6Zm.26.88c-.36,0-.44.13-.46.25s0,.15.17.14l.25,0Zm-.35.63q-.47,0-.42-.36c0-.3.27-.45.8-.51h0a.53.53,0,0,0,0-.19s-.07-.06-.15,0a.82.82,0,0,0-.46.17l-.05,0,0-.29h0a1.28,1.28,0,0,1,.54-.16c.19,0,.32,0,.36.16a.62.62,0,0,1,0,.32l-.11.83h-.08A4.24,4.24,0,0,1-221.19-382.9Z"/><g class="cls-20"><rect class="cls-2" x="-4781.54" y="-2882.09" width="6348.4" height="5052.27"/></g><path class="cls-3" d="M-219.6-383c-.44,0-.68-.23-.63-.64a.83.83,0,0,1,.83-.73.68.68,0,0,1,.35.06h0l0,.29-.05,0a.41.41,0,0,0-.29-.08.48.48,0,0,0-.49.45c0,.28.1.43.37.42a.7.7,0,0,0,.34-.12l.06,0,0,.29h0a.86.86,0,0,1-.41.1"/><g class="cls-21"><rect class="cls-2" x="-4781.54" y="-2882.09" width="6348.4" height="5052.27"/></g><path class="cls-3" d="M-218.73-384.54l0-.34h.34l0,.34Zm-.19,1.53.18-1.33h.32l-.17,1.33Z"/><g class="cls-22"><rect class="cls-2" x="-4781.54" y="-2882.09" width="6348.4" height="5052.27"/></g><path class="cls-3" d="M-217.45-383.66c-.36.05-.45.13-.46.25s0,.15.17.14l.24,0Zm-.35.63c-.31,0-.46-.11-.42-.36s.27-.44.8-.51h0a.42.42,0,0,0,0-.19s-.07-.06-.15,0a.82.82,0,0,0-.46.17l0,0,0-.3h0a1.37,1.37,0,0,1,.54-.16c.2,0,.32.05.37.16a.66.66,0,0,1,0,.32l-.11.83h-.07A4.48,4.48,0,0,1-217.8-383Z"/><g class="cls-23"><rect class="cls-2" x="-4781.54" y="-2882.09" width="6348.4" height="5052.27"/></g><path class="cls-3" d="M-249-387.94l-.55,3.11a4.39,4.39,0,0,0,2.81-3.19Z"/><g class="cls-24"><rect class="cls-2" x="-4781.54" y="-2882.09" width="6348.4" height="5052.27"/></g><path class="cls-3" d="M-248.64-389.94-247-390a4.08,4.08,0,0,0-1.35-1.74Z"/><g class="cls-25"><rect class="cls-2" x="-4781.54" y="-2882.09" width="6348.4" height="5052.27"/></g><path class="cls-3" d="M-251.4-386.16c.13-.51.3-1.36,1.88-1.7.13,0,.12-.06,0-.06l-5.1.2c.05-.27.19-1.1.25-1.42.1-.5.36-.6.83-.62l2.79-.1.5-2.77a5.21,5.21,0,0,0-1.49-.15c-2.68.1-4.78,2-4.69,4.35s2.15,3.93,4.67,4Z"/><g class="cls-26"><rect class="cls-2" x="-4781.54" y="-2882.09" width="6348.4" height="5052.27"/></g><polygon class="cls-3" points="-235.4 -302.68 -265.93 -305.08 -265.64 -308.83 -239.17 -306.75 -239.25 -353.89 -235.49 -353.89 -235.4 -302.68"/><g class="cls-27"><rect class="cls-2" x="-4781.54" y="-2882.09" width="6348.4" height="5052.27"/></g><rect class="cls-2" x="-225.24" y="-317.62" width="3.76" height="27.92" transform="translate(96.28 -503.48) rotate(-85.67)"/><g class="cls-28"><rect class="cls-2" x="-4781.54" y="-2882.09" width="6348.4" height="5052.27"/></g><path class="cls-3" d="M-231.73-319.35a1.86,1.86,0,0,1-1.62-.92,1.88,1.88,0,0,1,.66-2.57l1-.62v-1.89l-1.52-1.27a1.88,1.88,0,0,1-.24-2.65,1.88,1.88,0,0,1,2.65-.24l2.2,1.83a1.88,1.88,0,0,1,.67,1.45v3.84a1.88,1.88,0,0,1-.92,1.62l-2,1.16a1.85,1.85,0,0,1-1,.26"/><g class="cls-29"><rect class="cls-2" x="-4781.54" y="-2882.09" width="6348.4" height="5052.27"/></g><path class="cls-3" d="M-243.47-319.88a1.85,1.85,0,0,1-.95-.27l-2-1.16a1.88,1.88,0,0,1-.92-1.61v-3.85a1.89,1.89,0,0,1,.68-1.45l2.2-1.83a1.89,1.89,0,0,1,2.65.24,1.89,1.89,0,0,1-.24,2.65l-1.53,1.27v1.9l1,.61a1.87,1.87,0,0,1,.65,2.58,1.87,1.87,0,0,1-1.62.92"/><g class="cls-30"><rect class="cls-2" x="-4781.54" y="-2882.09" width="6348.4" height="5052.27"/></g><path class="cls-2" d="M-552.4,70.79h-83.52L-600.36,37a3.3,3.3,0,0,0,0-4.94,3.71,3.71,0,0,0-5.19,0l-42,39.81a3.3,3.3,0,0,0,0,4.94l41.85,39.81a3.71,3.71,0,0,0,5.19,0,3.3,3.3,0,0,0,0-4.94l-35.37-33.82h83.52a3.62,3.62,0,0,0,3.7-3.52A3.62,3.62,0,0,0-552.4,70.79Z"/><g class="cls-31"><rect class="cls-2" x="-1348.7" y="-2662.36" width="9600" height="25640"/></g><path class="cls-2" d="M-793,70.79h83.51L-745,37A3.3,3.3,0,0,1-745,32a3.7,3.7,0,0,1,5.18,0l42,39.81a3.3,3.3,0,0,1,0,4.94l-41.85,39.81a3.71,3.71,0,0,1-5.19,0,3.3,3.3,0,0,1,0-4.94l35.37-33.82H-793a3.63,3.63,0,0,1-3.71-3.52A3.63,3.63,0,0,1-793,70.79Z"/><g class="cls-32"><rect class="cls-2" x="-9596.7" y="-2662.36" width="9600" height="25640"/></g></svg>