<svg id="Layer_1" data-name="Layer 1" xmlns="http://www.w3.org/2000/svg" xmlns:xlink="http://www.w3.org/1999/xlink" viewBox="0 0 128 128"><defs><style>.cls-1{fill:#8a9297;}.cls-2{clip-path:url(#clip-path);}.cls-3{clip-path:url(#clip-path-2);}.cls-4{fill:url(#linear-gradient);}.cls-5{fill:url(#linear-gradient-2);}.cls-6{fill:url(#linear-gradient-3);}.cls-7{fill:url(#linear-gradient-4);}</style><clipPath id="clip-path"><path class="cls-1" d="M258.3-1421.19H174.78L210.33-1455a3.29,3.29,0,0,0,0-4.93,3.7,3.7,0,0,0-5.18,0l-42,39.81a3.29,3.29,0,0,0,0,4.93L205-1375.4a3.71,3.71,0,0,0,5.19,0,3.29,3.29,0,0,0,0-4.93l-35.37-33.82H258.3a3.62,3.62,0,0,0,3.7-3.52A3.62,3.62,0,0,0,258.3-1421.19Z"/></clipPath><clipPath id="clip-path-2"><path class="cls-1" d="M17.7-1421.19h83.52L65.67-1455a3.29,3.29,0,0,1,0-4.93,3.7,3.7,0,0,1,5.18,0l42,39.81a3.29,3.29,0,0,1,0,4.93L71-1375.4a3.71,3.71,0,0,1-5.19,0,3.29,3.29,0,0,1,0-4.93l35.37-33.82H17.7a3.62,3.62,0,0,1-3.7-3.52A3.62,3.62,0,0,1,17.7-1421.19Z"/></clipPath><linearGradient id="linear-gradient" x1="64" y1="124" x2="64" y2="4" gradientUnits="userSpaceOnUse"><stop offset="0" stop-color="#083050"/><stop offset="1" stop-color="#3d85c6"/></linearGradient><linearGradient id="linear-gradient-2" x1="64" y1="78.5" x2="64" y2="70.89" xlink:href="#linear-gradient"/><linearGradient id="linear-gradient-3" x1="64" y1="94.91" x2="64" y2="87.3" xlink:href="#linear-gradient"/><linearGradient id="linear-gradient-4" x1="62" y1="60.38" x2="62" y2="20.33" xlink:href="#linear-gradient"/></defs><title>icon</title><path class="cls-1" d="M258.3-1421.19H174.78L210.33-1455a3.29,3.29,0,0,0,0-4.93,3.7,3.7,0,0,0-5.18,0l-42,39.81a3.29,3.29,0,0,0,0,4.93L205-1375.4a3.71,3.71,0,0,0,5.19,0,3.29,3.29,0,0,0,0-4.93l-35.37-33.82H258.3a3.62,3.62,0,0,0,3.7-3.52A3.62,3.62,0,0,0,258.3-1421.19Z"/><g class="cls-2"><rect class="cls-1" x="-538" y="-4154.34" width="9600" height="25640"/></g><path class="cls-1" d="M17.7-1421.19h83.52L65.67-1455a3.29,3.29,0,0,1,0-4.93,3.7,3.7,0,0,1,5.18,0l42,39.81a3.29,3.29,0,0,1,0,4.93L71-1375.4a3.71,3.71,0,0,1-5.19,0,3.29,3.29,0,0,1,0-4.93l35.37-33.82H17.7a3.62,3.62,0,0,1-3.7-3.52A3.62,3.62,0,0,1,17.7-1421.19Z"/><g class="cls-3"><rect class="cls-1" x="-8786" y="-4154.34" width="9600" height="25640"/></g><path class="cls-4" d="M109.43,4H18.57a4.47,4.47,0,0,0-4.41,4.42V117.19a5.79,5.79,0,0,0,9,4.92L33.59,115l12,7.95a6.25,6.25,0,0,0,3.28,1A5.52,5.52,0,0,0,52,123L64,115,76,123a5.94,5.94,0,0,0,6.43,0l12-7.95,10.47,7.07a5.79,5.79,0,0,0,9-4.92V8.42A4.47,4.47,0,0,0,109.43,4ZM105,111.51l-7.57-5.05a6,6,0,0,0-6.44,0l-11.86,8-12-8a5.39,5.39,0,0,0-3.15-.88,5.5,5.5,0,0,0-3.15,1l-12,7.82-11.86-8a6,6,0,0,0-6.44,0L23,111.51V12.83h82Z"/><path class="cls-5" d="M42.27,70.89a3.81,3.81,0,1,0,0,7.61H85.73a3.81,3.81,0,1,0,0-7.61Z"/><path class="cls-6" d="M85.73,87.3H42.27a3.81,3.81,0,1,0,0,7.61H85.73a3.81,3.81,0,1,0,0-7.61Z"/><path class="cls-7" d="M39.76,29.19h9.81c.62,0,.27.22.08.28-1.5.49-5.83,3.52-5.84,10.14,0,1.17-.06,18.34-.06,18.34a5.74,5.74,0,0,0,0,.84c.16,1.29.95,1.59,1.45,1.59h4.92l.44,0c1.91-.09,2.39-.5,2.39-2.46,0-2.78.09-27.14.09-28.71H67.56c2.65,0,5.79-.18,7.52,1.68s1.73,3.95,1.73,7c0,0,0,20.11,0,20.11a5.74,5.74,0,0,0,0,.84c.15,1.29,1,1.59,1.45,1.59h4.91l.45,0c1.91-.09,2.39-.5,2.39-2.46,0-.69.1-24.32.1-25.75,0-9.29-9.19-11.82-12.9-11.82H40c-1.61,0-2,1.05-2.07,2.6,0,1.32,0,3.19,0,4.51S38.59,29.19,39.76,29.19Z"/></svg>