<svg width="47" height="29" viewBox="0 0 47 29" fill="none" xmlns="http://www.w3.org/2000/svg">
<path d="M43.3901 3.09197C43.3589 3.03921 43.3239 2.98884 43.2853 2.9413C42.2044 1.57219 40.665 0 38.0447 0H11.5664C10.7821 0.0232997 10.0239 0.287197 9.39468 0.755918C8.76542 1.22464 8.29551 1.87552 8.04864 2.62031L7.39356 4.80827H5.59865C5.25117 4.80827 4.91793 4.9463 4.67223 5.19201C4.42652 5.43771 4.28849 5.77095 4.28849 6.11843C4.28849 6.4659 4.42652 6.79914 4.67223 7.04485C4.91793 7.29055 5.25117 7.42858 5.59865 7.42858H6.53541L5.99169 9.17764H2.31016C1.96268 9.17764 1.62944 9.31567 1.38374 9.56138C1.13803 9.80708 1 10.1403 1 10.4878C1 10.8353 1.13803 11.1685 1.38374 11.4142C1.62944 11.6599 1.96268 11.798 2.31016 11.798H5.17285L2.61149 19.9864C2.47011 20.3748 2.42663 20.7921 2.48489 21.2013C2.54315 21.6106 2.70135 21.9991 2.94551 22.3327C3.18967 22.6662 3.51226 22.9344 3.88475 23.1136C4.25724 23.2928 4.66815 23.3775 5.08114 23.3601H7.55078C7.82312 24.6764 8.54096 25.8585 9.58329 26.7073C10.6256 27.556 11.9287 28.0195 13.2729 28.0195C14.6171 28.0195 15.9202 27.556 16.9625 26.7073C18.0048 25.8585 18.7226 24.6764 18.995 23.3601H27.57C27.8423 24.6764 28.5601 25.8585 29.6025 26.7073C30.6448 27.556 31.9479 28.0195 33.2921 28.0195C34.6362 28.0195 35.9393 27.556 36.9817 26.7073C38.024 25.8585 38.7418 24.6764 39.0142 23.3601H40.1147C40.8984 23.3373 41.656 23.0735 42.2843 22.6046C42.9126 22.1357 43.3811 21.4845 43.6259 20.7398L46.9406 10.0423C46.9947 9.869 47.0121 9.68632 46.9918 9.50589C46.9715 9.32546 46.9139 9.15122 46.8227 8.99422L43.3901 3.09197ZM40.1147 20.7398H38.9487C38.6288 19.4822 37.899 18.3672 36.8746 17.5707C35.8502 16.7743 34.5896 16.3419 33.2921 16.3419C31.9945 16.3419 30.7339 16.7743 29.7095 17.5707C28.6851 18.3672 27.9554 19.4822 27.6355 20.7398H18.9229C18.6056 19.4809 17.8771 18.364 16.8531 17.566C15.829 16.7681 14.5679 16.3347 13.2696 16.3347C11.9714 16.3347 10.7102 16.7681 9.68616 17.566C8.66209 18.364 7.93364 19.4809 7.61629 20.7398H5.12044L7.91762 11.7717H13.3351C13.6826 11.7717 14.0158 11.6337 14.2615 11.388C14.5072 11.1423 14.6453 10.8091 14.6453 10.4616C14.6453 10.1141 14.5072 9.78087 14.2615 9.53517C14.0158 9.28947 13.6826 9.15144 13.3351 9.15144H8.74957L9.29329 7.40238H16.0799C16.4274 7.40238 16.7606 7.26435 17.0063 7.01864C17.252 6.77294 17.39 6.4397 17.39 6.09222C17.39 5.74475 17.252 5.4115 17.0063 5.1658C16.7606 4.9201 16.4274 4.78207 16.0799 4.78207H10.099L10.5379 3.37365C10.6255 3.16702 10.7673 2.98792 10.9484 2.8553C11.1294 2.72269 11.343 2.64149 11.5664 2.62031H31.7625L29.6924 9.26935C29.6321 9.46477 29.6183 9.6716 29.6523 9.87329C29.6862 10.075 29.7669 10.2659 29.8879 10.4308C30.0088 10.5957 30.1667 10.73 30.3489 10.823C30.5311 10.9159 30.7325 10.9649 30.9371 10.966H43.9404L41.1235 19.9864C41.0393 20.1915 40.901 20.3699 40.7233 20.5026C40.5456 20.6353 40.3353 20.7173 40.1147 20.7398ZM36.5118 22.1809C36.5131 22.8187 36.3251 23.4424 35.9718 23.9733C35.6184 24.5042 35.1155 24.9183 34.5267 25.1632C33.9379 25.4082 33.2897 25.473 32.664 25.3493C32.0384 25.2257 31.4635 24.9193 31.0121 24.4688C30.5607 24.0183 30.2531 23.444 30.1282 22.8187C30.0033 22.1933 30.0668 21.5449 30.3105 20.9556C30.5543 20.3663 30.9674 19.8626 31.4975 19.5081C32.0277 19.1537 32.6511 18.9645 33.2888 18.9645C34.1424 18.9645 34.9612 19.3032 35.5655 19.9062C36.1697 20.5092 36.51 21.3273 36.5118 22.1809ZM16.4926 22.1809C16.4939 22.8187 16.306 23.4424 15.9526 23.9733C15.5993 24.5042 15.0963 24.9183 14.5075 25.1632C13.9187 25.4082 13.2705 25.473 12.6449 25.3493C12.0192 25.2257 11.4443 24.9193 10.9929 24.4688C10.5415 24.0183 10.2339 23.444 10.109 22.8187C9.98415 22.1933 10.0476 21.5449 10.2913 20.9556C10.5351 20.3663 10.9482 19.8626 11.4783 19.5081C12.0085 19.1537 12.6319 18.9645 13.2696 18.9645C14.1233 18.9645 14.9421 19.3032 15.5463 19.9062C16.1505 20.5092 16.4909 21.3273 16.4926 22.1809ZM41.1759 4.49383L43.4294 8.34569H32.7189L34.4941 2.62031H38.0054C39.191 2.62031 40.1081 3.16403 41.1759 4.49383Z" fill="#911436"/>
<path d="M7.34527 11.1035L4.17285 21.4138H7.34527L8.93147 20.6207V18.2414L11.3108 16.6552H15.2763L16.8625 19.0345L18.4487 21.4138H27.966L28.7591 19.8276L29.5522 18.2414H31.1384L35.1039 17.4483L38.2763 21.4138H41.4487L45.4142 9.51725H36.6901H31.1384V8.72414L33.5177 1.58621H16.8625H12.1039L9.72458 2.37932L7.34527 11.1035Z" fill="#911436" stroke="#911436"/>
<path d="M5 6H12.1033M1.79297 10.3103H12.1033" stroke="#911436" stroke-width="3" stroke-linecap="round" stroke-linejoin="round"/>
<path d="M19.6 4.848C18.144 4.848 17.442 5.888 17.442 6.928C17.442 7.981 18.144 9.021 19.6 9.021C21.043 9.021 21.758 7.981 21.758 6.928C21.758 5.888 21.043 4.848 19.6 4.848ZM24.254 4.913L18.274 14.013H20.341L26.295 4.913H24.254ZM24.995 9.918C23.552 9.918 22.837 10.958 22.837 11.998C22.837 13.051 23.552 14.091 24.995 14.091C26.438 14.091 27.153 13.051 27.153 11.998C27.153 10.958 26.438 9.918 24.995 9.918ZM24.995 11.27C25.476 11.27 25.71 11.634 25.71 12.011C25.71 12.388 25.476 12.739 24.995 12.739C24.527 12.739 24.267 12.388 24.267 12.011C24.267 11.634 24.527 11.27 24.995 11.27ZM19.6 6.174C20.094 6.174 20.328 6.551 20.328 6.928C20.328 7.305 20.094 7.669 19.6 7.669C19.106 7.669 18.859 7.305 18.859 6.928C18.859 6.551 19.106 6.174 19.6 6.174Z" fill="white"/>
</svg>
