<svg id="Layer_1" data-name="Layer 1" xmlns="http://www.w3.org/2000/svg" xmlns:xlink="http://www.w3.org/1999/xlink" viewBox="0 0 128 128"><defs><style>.cls-1{fill:#8a9297;}.cls-2{clip-path:url(#clip-path);}.cls-3{clip-path:url(#clip-path-2);}.cls-4{fill:url(#linear-gradient);}.cls-5{fill:url(#linear-gradient-2);}.cls-6{fill:url(#linear-gradient-3);}.cls-7{fill:url(#linear-gradient-4);}.cls-8{fill:url(#linear-gradient-5);}</style><clipPath id="clip-path"><path class="cls-1" d="M554.3-1271.61H470.78l35.55-33.82a3.3,3.3,0,0,0,0-4.94,3.7,3.7,0,0,0-5.18,0l-42,39.81a3.3,3.3,0,0,0,0,4.94L501-1225.81a3.71,3.71,0,0,0,5.19,0,3.3,3.3,0,0,0,0-4.94l-35.37-33.82H554.3a3.62,3.62,0,0,0,3.7-3.52A3.62,3.62,0,0,0,554.3-1271.61Z"/></clipPath><clipPath id="clip-path-2"><path class="cls-1" d="M313.7-1271.61h83.52l-35.55-33.82a3.3,3.3,0,0,1,0-4.94,3.7,3.7,0,0,1,5.18,0l42,39.81a3.3,3.3,0,0,1,0,4.94L367-1225.81a3.71,3.71,0,0,1-5.19,0,3.3,3.3,0,0,1,0-4.94l35.37-33.82H313.7a3.62,3.62,0,0,1-3.7-3.52A3.62,3.62,0,0,1,313.7-1271.61Z"/></clipPath><linearGradient id="linear-gradient" x1="89.43" y1="97.07" x2="89.43" y2="83.38" gradientUnits="userSpaceOnUse"><stop offset="0" stop-color="#083050"/><stop offset="1" stop-color="#3d85c6"/></linearGradient><linearGradient id="linear-gradient-2" x1="115.32" y1="96.49" x2="115.32" y2="89.45" xlink:href="#linear-gradient"/><linearGradient id="linear-gradient-3" x1="105.55" y1="71.5" x2="105.55" y2="50.38" xlink:href="#linear-gradient"/><linearGradient id="linear-gradient-4" x1="94.45" y1="122.91" x2="94.45" y2="38.94" xlink:href="#linear-gradient"/><linearGradient id="linear-gradient-5" x1="38.68" y1="122.91" x2="38.68" y2="5.09" xlink:href="#linear-gradient"/></defs><title>icon</title><path class="cls-1" d="M554.3-1271.61H470.78l35.55-33.82a3.3,3.3,0,0,0,0-4.94,3.7,3.7,0,0,0-5.18,0l-42,39.81a3.3,3.3,0,0,0,0,4.94L501-1225.81a3.71,3.71,0,0,0,5.19,0,3.3,3.3,0,0,0,0-4.94l-35.37-33.82H554.3a3.62,3.62,0,0,0,3.7-3.52A3.62,3.62,0,0,0,554.3-1271.61Z"/><g class="cls-2"><rect class="cls-1" x="-242" y="-4004.76" width="9600" height="25640"/></g><path class="cls-1" d="M313.7-1271.61h83.52l-35.55-33.82a3.3,3.3,0,0,1,0-4.94,3.7,3.7,0,0,1,5.18,0l42,39.81a3.3,3.3,0,0,1,0,4.94L367-1225.81a3.71,3.71,0,0,1-5.19,0,3.3,3.3,0,0,1,0-4.94l35.37-33.82H313.7a3.62,3.62,0,0,1-3.7-3.52A3.62,3.62,0,0,1,313.7-1271.61Z"/><g class="cls-3"><rect class="cls-1" x="-8490" y="-4004.76" width="9600" height="25640"/></g><path class="cls-4" d="M82.49,90.23a6.95,6.95,0,1,0,7-6.85A6.85,6.85,0,0,0,82.49,90.23Z"/><path class="cls-5" d="M102.64,93A3.35,3.35,0,0,0,106,96.49h22v-7H106A3.34,3.34,0,0,0,102.64,93Z"/><path class="cls-6" d="M91.5,53.51c-2.74,6.06-5.67,11.93-8.41,18H128v-8H95.68q1.2-2.52,2.39-5.12H128v-8H95.8C94.43,50.58,93.06,51.75,91.5,53.51Z"/><path class="cls-7" d="M117.77,39.1c-7.54,0-15.1-.05-22.8-.15H94.5c-3.9,0-8,2.67-12.35,7.93a4.16,4.16,0,0,0-.57.92l-7,15.76L65,63.4h-.16a3.89,3.89,0,0,0-2.71,1.15,4,4,0,0,0-1.19,2.85c0,5.7,2.09,9.39,6.77,11.91l-1.55,3.49a4.09,4.09,0,0,0-.34,1.62v30.2a8.31,8.31,0,0,0,8.31,8.3H88.76a8.31,8.31,0,0,0,8.3-8.3v-1.17H128v-8H93.06a4,4,0,0,0-4,4v5.17a.34.34,0,0,1-.3.3H74.1a.35.35,0,0,1-.31-.3V85.25l3.38-7.64A4,4,0,0,0,73.51,72H71a6.39,6.39,0,0,1-.74-.52l6.9.11h.06a4,4,0,0,0,3.66-2.39l7.8-17.67c3.81-4.53,5.74-4.59,5.85-4.59h.24c7.77.1,15.4.15,23,.15q5.12,0,10.23,0v-8Q122.89,39.1,117.77,39.1Z"/><path class="cls-8" d="M72.86,30.87,77.1,14.78a7.72,7.72,0,0,0-7.47-9.69H0v8H69.27L65.18,28.62h-28v86.29H19.32V28.62H0v8H11.32v86.29H45.16V36.62H65.39A7.72,7.72,0,0,0,72.86,30.87Z"/></svg>