<svg id="Layer_1" data-name="Layer 1" xmlns="http://www.w3.org/2000/svg" xmlns:xlink="http://www.w3.org/1999/xlink" viewBox="0 0 128 128"><defs><style>.cls-1,.cls-2,.cls-3{fill:#8a9297;}.cls-1{clip-rule:evenodd;}.cls-3{fill-rule:evenodd;}.cls-4{clip-path:url(#clip-path);}.cls-5{clip-path:url(#clip-path-2);}.cls-6{clip-path:url(#clip-path-3);}.cls-7{clip-path:url(#clip-path-4);}.cls-8{clip-path:url(#clip-path-5);}.cls-9{clip-path:url(#clip-path-6);}.cls-10{clip-path:url(#clip-path-7);}.cls-11{clip-path:url(#clip-path-8);}.cls-12{clip-path:url(#clip-path-9);}.cls-13{clip-path:url(#clip-path-10);}.cls-14{clip-path:url(#clip-path-11);}.cls-15{clip-path:url(#clip-path-12);}.cls-16{clip-path:url(#clip-path-13);}.cls-17{clip-path:url(#clip-path-14);}.cls-18{clip-path:url(#clip-path-15);}.cls-19{clip-path:url(#clip-path-16);}.cls-20{clip-path:url(#clip-path-17);}.cls-21{clip-path:url(#clip-path-18);}.cls-22{clip-path:url(#clip-path-19);}.cls-23{clip-path:url(#clip-path-20);}.cls-24{clip-path:url(#clip-path-21);}.cls-25{clip-path:url(#clip-path-22);}.cls-26{clip-path:url(#clip-path-23);}.cls-27{clip-path:url(#clip-path-24);}.cls-28{clip-path:url(#clip-path-25);}.cls-29{clip-path:url(#clip-path-26);}.cls-30{clip-path:url(#clip-path-27);}.cls-31{clip-path:url(#clip-path-28);}.cls-32{clip-path:url(#clip-path-29);}</style><clipPath id="clip-path"><path class="cls-1" d="M902.57,115.16h-.16l-11-.92a1.87,1.87,0,0,1-1.72-1.87V68A6.45,6.45,0,0,0,888,63.12a6.64,6.64,0,0,0-4.5-1.45h-.17l-47.55-.53v46.91a1.88,1.88,0,0,1-.61,1.38,1.91,1.91,0,0,1-1.42.49l-9.25-.73a1.89,1.89,0,0,1-1.74-1.89c0-.3.28-29.77.22-36.75a14.71,14.71,0,0,1,3.35-9.34h-5.9a3.56,3.56,0,0,1-3.26-2.65,1.77,1.77,0,0,1-.08-.56V51.92c0-3.06,1.89-4.32,3-4.58a1.92,1.92,0,0,1,.41-.05l67.22-.92.26,0c15.86,2,16.65,15.93,16.66,16.07v.09l-.18,50.73a1.85,1.85,0,0,1-.61,1.38A1.88,1.88,0,0,1,902.57,115.16Zm-9.11-4.53,7.23.6.18-48.64c0-.78-1-10.83-13.25-12.45l-66.6.91a1.54,1.54,0,0,0-.18.87v5.53H831a1.87,1.87,0,0,1,1.43.66l.18-.2a1.85,1.85,0,0,1,1.35-.55l49.38.55a10.38,10.38,0,0,1,7.22,2.42c2,1.79,3,4.38,3,7.71Zm-66.93-5L832,106V60.9h0s-5.32,3.68-5.27,9.62S826.59,99.1,826.53,105.59Z"/></clipPath><clipPath id="clip-path-2"><path class="cls-1" d="M907.68,111.69h-3.76V62.07c-.09-1-1.31-11.3-12-12.12l.29-3.75c11.42.87,15.13,10.62,15.5,15.65v49.84Z"/></clipPath><clipPath id="clip-path-3"><path class="cls-1" d="M828.08,44.15a1.88,1.88,0,0,1-1.88-1.87l-.12-19.84a1.87,1.87,0,0,1,1.82-1.89l9.65-.31h.09l3.42.06a1.89,1.89,0,1,1-.07,3.77L837.62,24l-7.77.24.12,18a1.88,1.88,0,0,1-1.87,1.89Z"/></clipPath><clipPath id="clip-path-4"><path class="cls-1" d="M843.72,37.07h-.46a5,5,0,0,1-4.15-1.76,4.52,4.52,0,0,1-.8-3.49l.83-9.68c-.07-2.54.62-4.44,2.07-5.65a6,6,0,0,1,4.69-1.2l41.85-2,.23,0c2.51.51,4.26,1.53,5.19,3a4.38,4.38,0,0,1,.64,3.1c-.11,1.42-.78,9.74-1.45,12.36a5.74,5.74,0,0,1-4.77,4.33h-.18c-1.59,0-37.92.92-43.69.92M844.92,19a2,2,0,0,0-1.31.39,3.61,3.61,0,0,0-.7,2.73v.12L842,32.51a.92.92,0,0,0,.08.5,1.87,1.87,0,0,0,1.24.3c3.65.07,41.35-.85,43.87-.91a2,2,0,0,0,1.53-1.52c.52-2,1.15-9.23,1.35-11.83l0-.31c0-.55-.81-1.27-2.65-1.68l-41.83,2L845.4,19a4.69,4.69,0,0,0-.48,0"/></clipPath><clipPath id="clip-path-5"><path class="cls-1" d="M880.4,22.17a1.16,1.16,0,0,0-.93-.27,1.68,1.68,0,0,0-1,.4,2.13,2.13,0,0,0-.61,1.24s0,.1,0,.17l2-.06c.51,0,.79-.16.86-.61a1,1,0,0,0-.2-.87m1.83,1a1.43,1.43,0,0,1-.61,1.07,2.62,2.62,0,0,1-1.42.41,9.83,9.83,0,0,1-1.86,0c-.39-.08-.51-.66-.56-.82a3.89,3.89,0,0,0-.08,1.09,1.17,1.17,0,0,0,.5,1,2.16,2.16,0,0,0,1.22.24c.32,0,.66,0,1-.07s.53-.07.81-.12h0c.06,0,.14,0,.12.12l-.1.82c0,.06,0,.1-.11.14a8.22,8.22,0,0,1-1.06.25,8.42,8.42,0,0,1-1.08.11,4.64,4.64,0,0,1-1.53-.16,2,2,0,0,1-1-.58,2.16,2.16,0,0,1-.46-1,4.76,4.76,0,0,1,0-1.37l0-.4a3.89,3.89,0,0,1,1-2.33,3.62,3.62,0,0,1,2.51-.92,2.53,2.53,0,0,1,2.07.63,2.36,2.36,0,0,1,.47,1.93m-22.44-1.74-4.45.17c-.29,0-.39.2-.43.49s-.08.58-.11.82.09.32.3.31l.38,0,1.4-.05c.12,0,0,0,0,.05a2.36,2.36,0,0,0-1.28,1.9c0,.21-.34,2.66-.34,2.66a.88.88,0,0,0,0,.16c0,.23.14.28.23.28l.89,0h.09c.35,0,.44-.11.49-.47s.53-4.28.57-4.56l1.05-.05c.48,0,1-.07,1.33.26s.22.71.15,1.26c0,0-.37,3-.37,3s0,.11,0,.16c0,.23.14.28.23.28l.89,0h.08c.35,0,.45-.11.49-.47,0-.12.48-3.76.51-4a1.87,1.87,0,0,0-2.08-2.07m25.06-.34c0-.24,0-.65-.48-.63l-.81,0a.42.42,0,0,0-.4.35l-.72,5.89c-.06.32,0,.44.21.43l1.17,0a.35.35,0,0,0,.32-.29l.09-.7s.23-1.92.43-3.51a.3.3,0,0,0-.34-.36l-1,0h-.11s0,0,0,0c.51-.1,1.49-.54,1.57-1.2m-20.64,1.93-1,0h-.08c.51-.09,1.48-.53,1.56-1.19,0-.24,0-.66-.47-.64l-.81,0a.42.42,0,0,0-.4.36l-.73,5.88c-.05.32.06.44.21.44l1.18-.05a.33.33,0,0,0,.31-.29l.1-.7s.23-1.91.43-3.5a.31.31,0,0,0-.35-.37M875.52,21a3.67,3.67,0,0,0-.9-.18,9.6,9.6,0,0,0-1.08,0,3.86,3.86,0,0,0-1,.15,2.35,2.35,0,0,0-.8.36,1.89,1.89,0,0,0-.56.6,2.24,2.24,0,0,0-.29.86,1.49,1.49,0,0,0,.25,1.12,2.47,2.47,0,0,0,1.05.69l1,.38a1.75,1.75,0,0,1,.46.26.49.49,0,0,1,.14.43.62.62,0,0,1-.31.49,1.66,1.66,0,0,1-.75.17h-1.05a8.22,8.22,0,0,1-1-.06h0a.1.1,0,0,0-.11.09v0l-.12.93c0,.1,0,.16.13.17.35.07.73.13,1.11.17s.81,0,1.24,0a3.24,3.24,0,0,0,1.84-.57,2,2,0,0,0,.83-1.43,1.56,1.56,0,0,0-.24-1.14,2.2,2.2,0,0,0-1-.72l-1-.41a2.35,2.35,0,0,1-.45-.22.41.41,0,0,1-.15-.42.56.56,0,0,1,.3-.47,1.93,1.93,0,0,1,.7-.13h.88a8.09,8.09,0,0,1,.86.07h.07a.12.12,0,0,0,.09-.09c0-.06,0,0,0,0l.11-.92c0-.12-.07-.16-.14-.18m-5.38,1.34a.1.1,0,0,1-.09.09s0,0,0,0,0,0-.06,0c-.28,0-.57-.05-.86-.06s-.59,0-.88,0a1.69,1.69,0,0,0-.69.13.55.55,0,0,0-.31.47.4.4,0,0,0,.15.41,2.29,2.29,0,0,0,.45.23l1,.4a2.16,2.16,0,0,1,1,.73,1.5,1.5,0,0,1,.24,1.13,2,2,0,0,1-.82,1.44,3.3,3.3,0,0,1-1.85.56,8.25,8.25,0,0,1-1.23,0,9.43,9.43,0,0,1-1.12-.16.14.14,0,0,1-.13-.18l.12-.93v0a.1.1,0,0,1,.12-.09h0c.31,0,.66.05,1,.06s.73,0,1,0a1.76,1.76,0,0,0,.76-.16.63.63,0,0,0,.3-.49.44.44,0,0,0-.14-.43,1.51,1.51,0,0,0-.46-.27l-.95-.38a2.4,2.4,0,0,1-1.05-.69,1.38,1.38,0,0,1-.25-1.11,2.08,2.08,0,0,1,.28-.86,2,2,0,0,1,.56-.6,2.68,2.68,0,0,1,.8-.37,5.14,5.14,0,0,1,1-.15,9.6,9.6,0,0,1,1.08,0,4.76,4.76,0,0,1,.9.18c.07,0,.16.06.15.18l-.12.93s0,0,0,0"/></clipPath><clipPath id="clip-path-6"><path class="cls-1" d="M865,30.36c-.37,0-.45.12-.46.25s0,.15.17.14l.24,0Zm-.35.63c-.31,0-.46-.11-.42-.36s.27-.45.8-.51h0v0a.38.38,0,0,0,0-.18s-.07-.06-.15-.06a.93.93,0,0,0-.46.18l-.05,0,0-.29h0a1.22,1.22,0,0,1,.54-.16c.2,0,.32.05.37.16a.62.62,0,0,1,0,.31l-.11.84h-.07Z"/></clipPath><clipPath id="clip-path-7"><path class="cls-1" d="M865.82,29.4l0-.34h.35l-.05.34Zm-.19,1.53.17-1.33h.33L866,30.92Z"/></clipPath><clipPath id="clip-path-8"><path class="cls-1" d="M866.67,30.93a.92.92,0,0,1-.36-.07h0l0-.33,0,0a.43.43,0,0,0,.32.1c.13,0,.22-.06.23-.14a.11.11,0,0,0-.06-.12.66.66,0,0,0-.17-.08c-.24-.11-.31-.21-.29-.38a.54.54,0,0,1,.57-.42.76.76,0,0,1,.34.06h0l0,.3,0,0a.44.44,0,0,0-.29-.08c-.13,0-.22.05-.23.13s0,.09.19.17a.63.63,0,0,1,.25.15.27.27,0,0,1,.08.26.57.57,0,0,1-.59.43"/></clipPath><clipPath id="clip-path-9"><path class="cls-1" d="M869,29.71a.5.5,0,0,0-.54.46c0,.27.09.41.37.4a.64.64,0,0,0,.2,0l.11-.82Zm-.09,1.75.09-.67a.77.77,0,0,1-.25,0c-.44,0-.68-.22-.62-.63a.88.88,0,0,1,.94-.75l.4,0h0l-.26,2Z"/></clipPath><clipPath id="clip-path-10"><path class="cls-1" d="M870.31,30.77a.6.6,0,0,1-.44-.11c-.09-.07-.11-.18-.08-.39l.11-.83h.32l-.1.81c0,.22,0,.28.26.27a.91.91,0,0,0,.23,0l.14-1.07h.33l-.17,1.28h0a3.51,3.51,0,0,1-.57.08"/></clipPath><clipPath id="clip-path-11"><path class="cls-1" d="M872.31,29.82c0-.16-.09-.23-.26-.23a.39.39,0,0,0-.36.26Zm-.38.9c-.44,0-.67-.22-.62-.64a.81.81,0,0,1,.78-.74.49.49,0,0,1,.47.21.58.58,0,0,1,.05.41v.09l-1,0v0c0,.23.12.36.38.35a.76.76,0,0,0,.46-.16l0,0,0,.29h0A1,1,0,0,1,871.93,30.72Z"/></clipPath><clipPath id="clip-path-12"><path class="cls-1" d="M873.52,30.63l.14-1.05h-.22l0-.25h.22v0a.79.79,0,0,1,.26-.57.77.77,0,0,1,.43-.17h.17l0,.25h-.14a.34.34,0,0,0-.23.11.54.54,0,0,0-.12.36v0h.35l0,.24H874l-.14,1.06Z"/></clipPath><clipPath id="clip-path-13"><path class="cls-1" d="M875.18,30c-.37.05-.45.13-.47.25s0,.15.18.14l.24,0Zm-.35.63c-.32,0-.46-.11-.43-.36s.28-.44.81-.51h0c0-.12,0-.16,0-.19s-.06-.06-.14-.05a.8.8,0,0,0-.46.17l-.06,0,0-.3h0a1.32,1.32,0,0,1,.54-.16c.2,0,.32.05.37.16a.81.81,0,0,1,0,.32l-.11.83h-.08A4.11,4.11,0,0,1,874.83,30.6Z"/></clipPath><clipPath id="clip-path-14"><path class="cls-1" d="M875.8,30.54,876,29.3h0a1.87,1.87,0,0,1,.56-.12.69.69,0,0,1,.25,0h0l0,.27,0,0a.71.71,0,0,0-.21,0l-.26.06-.14,1.05Z"/></clipPath><clipPath id="clip-path-15"><path class="cls-1" d="M878.54,30.44l.11-.84c0-.19,0-.26-.22-.25a.79.79,0,0,0-.25,0,.47.47,0,0,1,0,.2l-.11.86h-.32l.11-.84c0-.19,0-.26-.25-.25l-.25.05-.14,1.06h-.32l.16-1.26h0a2,2,0,0,1,.6-.11.62.62,0,0,1,.37.07,1.08,1.08,0,0,1,.45-.1.48.48,0,0,1,.41.12.4.4,0,0,1,.07.35l-.12.86Z"/></clipPath><clipPath id="clip-path-16"><path class="cls-1" d="M863.49,31l.11-.83c0-.19,0-.26-.22-.26a.77.77,0,0,0-.24.06,1.49,1.49,0,0,1,0,.19L863,31h-.33l.11-.83c0-.2,0-.26-.24-.25a.73.73,0,0,0-.25,0l-.14,1.06h-.33l.17-1.25h0a2.39,2.39,0,0,1,.61-.11.66.66,0,0,1,.36.07,1.52,1.52,0,0,1,.46-.1.5.5,0,0,1,.41.13c.07.07.08.17.06.34l-.11.86Z"/></clipPath><clipPath id="clip-path-17"><path class="cls-1" d="M879.74,28.91l.56-.59.3,0-.63.6Zm.26.88c-.36,0-.45.12-.46.24s0,.15.17.15a.9.9,0,0,0,.24,0Zm-.35.63c-.31,0-.46-.11-.42-.36s.27-.45.8-.51h0v0a.38.38,0,0,0,0-.18s-.07-.06-.15-.06a.93.93,0,0,0-.46.18l0,0,0-.29h0A1.22,1.22,0,0,1,880,29c.19,0,.31,0,.36.16a.52.52,0,0,1,0,.31l-.11.83-.07,0Z"/></clipPath><clipPath id="clip-path-18"><path class="cls-1" d="M881.24,30.36c-.44,0-.69-.23-.63-.64a.85.85,0,0,1,1.18-.67h0l0,.3,0,0a.37.37,0,0,0-.29-.08.48.48,0,0,0-.49.45c0,.28.1.43.37.42a.7.7,0,0,0,.34-.12l.05,0,0,.28h0a1,1,0,0,1-.41.11"/></clipPath><clipPath id="clip-path-19"><path class="cls-1" d="M882.11,28.78l0-.34h.34l0,.33Zm-.19,1.53L882.1,29l.32,0-.17,1.34Z"/></clipPath><clipPath id="clip-path-20"><path class="cls-1" d="M883.39,29.66c-.37,0-.45.12-.47.25s0,.15.18.14l.24,0Zm-.35.63c-.32,0-.46-.11-.43-.36s.28-.45.81-.51h0v0c0-.11,0-.16,0-.18s-.06-.06-.14-.06a.9.9,0,0,0-.46.18l-.06,0,0-.29h0a1.18,1.18,0,0,1,.54-.16c.2,0,.32.05.37.16a.77.77,0,0,1,0,.31l-.11.83-.08,0Z"/></clipPath><clipPath id="clip-path-21"><path class="cls-1" d="M851.82,25.38l-.55,3.11a4.37,4.37,0,0,0,2.8-3.19Z"/></clipPath><clipPath id="clip-path-22"><path class="cls-1" d="M852.2,23.37l1.67-.06a4.08,4.08,0,0,0-1.35-1.74Z"/></clipPath><clipPath id="clip-path-23"><path class="cls-1" d="M849.44,27.16c.13-.51.3-1.37,1.88-1.71.13,0,.12-.05,0-.05l-5.1.19c0-.27.19-1.1.25-1.41.1-.5.36-.6.83-.62l2.78-.11.51-2.77a5.63,5.63,0,0,0-1.49-.14c-2.68.1-4.78,2.05-4.69,4.35s2.14,3.93,4.67,4Z"/></clipPath><clipPath id="clip-path-24"><polygon class="cls-1" points="865.44 110.64 834.9 108.24 835.2 104.49 861.67 106.57 861.58 59.43 865.35 59.42 865.44 110.64"/></clipPath><clipPath id="clip-path-25"><rect class="cls-2" x="875.59" y="95.7" width="3.76" height="27.92" transform="translate(701.93 976.36) rotate(-85.67)"/></clipPath><clipPath id="clip-path-26"><path class="cls-1" d="M869.11,94a1.88,1.88,0,0,1-1-3.5l1-.61V88l-1.52-1.27a1.88,1.88,0,1,1,2.41-2.89l2.19,1.83a1.89,1.89,0,0,1,.68,1.44v3.85a1.88,1.88,0,0,1-.92,1.62l-1.95,1.16a1.88,1.88,0,0,1-1,.26"/></clipPath><clipPath id="clip-path-27"><path class="cls-1" d="M857.37,93.43a1.9,1.9,0,0,1-1-.26L854.46,92a1.88,1.88,0,0,1-.92-1.62V86.55a1.89,1.89,0,0,1,.68-1.45l2.19-1.83a1.88,1.88,0,1,1,2.41,2.89l-1.52,1.27v1.89l1,.62a1.88,1.88,0,0,1-1,3.49"/></clipPath><clipPath id="clip-path-28"><path class="cls-2" d="M548.44,484.1H464.92l35.55-33.82a3.29,3.29,0,0,0,0-4.93,3.7,3.7,0,0,0-5.18,0l-42,39.81a3.29,3.29,0,0,0,0,4.93L495.1,529.9a3.71,3.71,0,0,0,5.19,0,3.29,3.29,0,0,0,0-4.93l-35.37-33.82h83.52a3.53,3.53,0,1,0,0-7Z"/></clipPath><clipPath id="clip-path-29"><path class="cls-2" d="M307.84,484.1h83.52l-35.55-33.82a3.28,3.28,0,0,1,0-4.93,3.7,3.7,0,0,1,5.18,0l42,39.81a3.29,3.29,0,0,1,0,4.93L361.18,529.9a3.71,3.71,0,0,1-5.19,0,3.29,3.29,0,0,1,0-4.93l35.37-33.82H307.84a3.53,3.53,0,1,1,0-7Z"/></clipPath></defs><title>icons</title><path class="cls-3" d="M902.57,115.16h-.16l-11-.92a1.87,1.87,0,0,1-1.72-1.87V68A6.45,6.45,0,0,0,888,63.12a6.64,6.64,0,0,0-4.5-1.45h-.17l-47.55-.53v46.91a1.88,1.88,0,0,1-.61,1.38,1.91,1.91,0,0,1-1.42.49l-9.25-.73a1.89,1.89,0,0,1-1.74-1.89c0-.3.28-29.77.22-36.75a14.71,14.71,0,0,1,3.35-9.34h-5.9a3.56,3.56,0,0,1-3.26-2.65,1.77,1.77,0,0,1-.08-.56V51.92c0-3.06,1.89-4.32,3-4.58a1.92,1.92,0,0,1,.41-.05l67.22-.92.26,0c15.86,2,16.65,15.93,16.66,16.07v.09l-.18,50.73a1.85,1.85,0,0,1-.61,1.38A1.88,1.88,0,0,1,902.57,115.16Zm-9.11-4.53,7.23.6.18-48.64c0-.78-1-10.83-13.25-12.45l-66.6.91a1.54,1.54,0,0,0-.18.87v5.53H831a1.87,1.87,0,0,1,1.43.66l.18-.2a1.85,1.85,0,0,1,1.35-.55l49.38.55a10.38,10.38,0,0,1,7.22,2.42c2,1.79,3,4.38,3,7.71Zm-66.93-5L832,106V60.9h0s-5.32,3.68-5.27,9.62S826.59,99.1,826.53,105.59Z"/><g class="cls-4"><rect class="cls-2" x="-3680.7" y="-2468.77" width="6348.4" height="5052.27"/></g><path class="cls-3" d="M907.68,111.69h-3.76V62.07c-.09-1-1.31-11.3-12-12.12l.29-3.75c11.42.87,15.13,10.62,15.5,15.65v49.84Z"/><g class="cls-5"><rect class="cls-2" x="-3680.7" y="-2468.77" width="6348.4" height="5052.27"/></g><path class="cls-3" d="M828.08,44.15a1.88,1.88,0,0,1-1.88-1.87l-.12-19.84a1.87,1.87,0,0,1,1.82-1.89l9.65-.31h.09l3.42.06a1.89,1.89,0,1,1-.07,3.77L837.62,24l-7.77.24.12,18a1.88,1.88,0,0,1-1.87,1.89Z"/><g class="cls-6"><rect class="cls-2" x="-3680.7" y="-2468.77" width="6348.4" height="5052.27"/></g><path class="cls-3" d="M843.72,37.07h-.46a5,5,0,0,1-4.15-1.76,4.52,4.52,0,0,1-.8-3.49l.83-9.68c-.07-2.54.62-4.44,2.07-5.65a6,6,0,0,1,4.69-1.2l41.85-2,.23,0c2.51.51,4.26,1.53,5.19,3a4.38,4.38,0,0,1,.64,3.1c-.11,1.42-.78,9.74-1.45,12.36a5.74,5.74,0,0,1-4.77,4.33h-.18c-1.59,0-37.92.92-43.69.92M844.92,19a2,2,0,0,0-1.31.39,3.61,3.61,0,0,0-.7,2.73v.12L842,32.51a.92.92,0,0,0,.08.5,1.87,1.87,0,0,0,1.24.3c3.65.07,41.35-.85,43.87-.91a2,2,0,0,0,1.53-1.52c.52-2,1.15-9.23,1.35-11.83l0-.31c0-.55-.81-1.27-2.65-1.68l-41.83,2L845.4,19a4.69,4.69,0,0,0-.48,0"/><g class="cls-7"><rect class="cls-2" x="-3680.7" y="-2468.77" width="6348.4" height="5052.27"/></g><path class="cls-3" d="M880.4,22.17a1.16,1.16,0,0,0-.93-.27,1.68,1.68,0,0,0-1,.4,2.13,2.13,0,0,0-.61,1.24s0,.1,0,.17l2-.06c.51,0,.79-.16.86-.61a1,1,0,0,0-.2-.87m1.83,1a1.43,1.43,0,0,1-.61,1.07,2.62,2.62,0,0,1-1.42.41,9.83,9.83,0,0,1-1.86,0c-.39-.08-.51-.66-.56-.82a3.89,3.89,0,0,0-.08,1.09,1.17,1.17,0,0,0,.5,1,2.16,2.16,0,0,0,1.22.24c.32,0,.66,0,1-.07s.53-.07.81-.12h0c.06,0,.14,0,.12.12l-.1.82c0,.06,0,.1-.11.14a8.22,8.22,0,0,1-1.06.25,8.42,8.42,0,0,1-1.08.11,4.64,4.64,0,0,1-1.53-.16,2,2,0,0,1-1-.58,2.16,2.16,0,0,1-.46-1,4.76,4.76,0,0,1,0-1.37l0-.4a3.89,3.89,0,0,1,1-2.33,3.62,3.62,0,0,1,2.51-.92,2.53,2.53,0,0,1,2.07.63,2.36,2.36,0,0,1,.47,1.93m-22.44-1.74-4.45.17c-.29,0-.39.2-.43.49s-.08.58-.11.82.09.32.3.31l.38,0,1.4-.05c.12,0,0,0,0,.05a2.36,2.36,0,0,0-1.28,1.9c0,.21-.34,2.66-.34,2.66a.88.88,0,0,0,0,.16c0,.23.14.28.23.28l.89,0h.09c.35,0,.44-.11.49-.47s.53-4.28.57-4.56l1.05-.05c.48,0,1-.07,1.33.26s.22.71.15,1.26c0,0-.37,3-.37,3s0,.11,0,.16c0,.23.14.28.23.28l.89,0h.08c.35,0,.45-.11.49-.47,0-.12.48-3.76.51-4a1.87,1.87,0,0,0-2.08-2.07m25.06-.34c0-.24,0-.65-.48-.63l-.81,0a.42.42,0,0,0-.4.35l-.72,5.89c-.06.32,0,.44.21.43l1.17,0a.35.35,0,0,0,.32-.29l.09-.7s.23-1.92.43-3.51a.3.3,0,0,0-.34-.36l-1,0h-.11s0,0,0,0c.51-.1,1.49-.54,1.57-1.2m-20.64,1.93-1,0h-.08c.51-.09,1.48-.53,1.56-1.19,0-.24,0-.66-.47-.64l-.81,0a.42.42,0,0,0-.4.36l-.73,5.88c-.05.32.06.44.21.44l1.18-.05a.33.33,0,0,0,.31-.29l.1-.7s.23-1.91.43-3.5a.31.31,0,0,0-.35-.37M875.52,21a3.67,3.67,0,0,0-.9-.18,9.6,9.6,0,0,0-1.08,0,3.86,3.86,0,0,0-1,.15,2.35,2.35,0,0,0-.8.36,1.89,1.89,0,0,0-.56.6,2.24,2.24,0,0,0-.29.86,1.49,1.49,0,0,0,.25,1.12,2.47,2.47,0,0,0,1.05.69l1,.38a1.75,1.75,0,0,1,.46.26.49.49,0,0,1,.14.43.62.62,0,0,1-.31.49,1.66,1.66,0,0,1-.75.17h-1.05a8.22,8.22,0,0,1-1-.06h0a.1.1,0,0,0-.11.09v0l-.12.93c0,.1,0,.16.13.17.35.07.73.13,1.11.17s.81,0,1.24,0a3.24,3.24,0,0,0,1.84-.57,2,2,0,0,0,.83-1.43,1.56,1.56,0,0,0-.24-1.14,2.2,2.2,0,0,0-1-.72l-1-.41a2.35,2.35,0,0,1-.45-.22.41.41,0,0,1-.15-.42.56.56,0,0,1,.3-.47,1.93,1.93,0,0,1,.7-.13h.88a8.09,8.09,0,0,1,.86.07h.07a.12.12,0,0,0,.09-.09c0-.06,0,0,0,0l.11-.92c0-.12-.07-.16-.14-.18m-5.38,1.34a.1.1,0,0,1-.09.09s0,0,0,0,0,0-.06,0c-.28,0-.57-.05-.86-.06s-.59,0-.88,0a1.69,1.69,0,0,0-.69.13.55.55,0,0,0-.31.47.4.4,0,0,0,.15.41,2.29,2.29,0,0,0,.45.23l1,.4a2.16,2.16,0,0,1,1,.73,1.5,1.5,0,0,1,.24,1.13,2,2,0,0,1-.82,1.44,3.3,3.3,0,0,1-1.85.56,8.25,8.25,0,0,1-1.23,0,9.43,9.43,0,0,1-1.12-.16.14.14,0,0,1-.13-.18l.12-.93v0a.1.1,0,0,1,.12-.09h0c.31,0,.66.05,1,.06s.73,0,1,0a1.76,1.76,0,0,0,.76-.16.63.63,0,0,0,.3-.49.44.44,0,0,0-.14-.43,1.51,1.51,0,0,0-.46-.27l-.95-.38a2.4,2.4,0,0,1-1.05-.69,1.38,1.38,0,0,1-.25-1.11,2.08,2.08,0,0,1,.28-.86,2,2,0,0,1,.56-.6,2.68,2.68,0,0,1,.8-.37,5.14,5.14,0,0,1,1-.15,9.6,9.6,0,0,1,1.08,0,4.76,4.76,0,0,1,.9.18c.07,0,.16.06.15.18l-.12.93s0,0,0,0"/><g class="cls-8"><rect class="cls-2" x="-3680.7" y="-2468.77" width="6348.4" height="5052.27"/></g><path class="cls-3" d="M865,30.36c-.37,0-.45.12-.46.25s0,.15.17.14l.24,0Zm-.35.63c-.31,0-.46-.11-.42-.36s.27-.45.8-.51h0v0a.38.38,0,0,0,0-.18s-.07-.06-.15-.06a.93.93,0,0,0-.46.18l-.05,0,0-.29h0a1.22,1.22,0,0,1,.54-.16c.2,0,.32.05.37.16a.62.62,0,0,1,0,.31l-.11.84h-.07Z"/><g class="cls-9"><rect class="cls-2" x="-3680.7" y="-2468.77" width="6348.4" height="5052.27"/></g><path class="cls-3" d="M865.82,29.4l0-.34h.35l-.05.34Zm-.19,1.53.17-1.33h.33L866,30.92Z"/><g class="cls-10"><rect class="cls-2" x="-3680.7" y="-2468.77" width="6348.4" height="5052.27"/></g><path class="cls-3" d="M866.67,30.93a.92.92,0,0,1-.36-.07h0l0-.33,0,0a.43.43,0,0,0,.32.1c.13,0,.22-.06.23-.14a.11.11,0,0,0-.06-.12.66.66,0,0,0-.17-.08c-.24-.11-.31-.21-.29-.38a.54.54,0,0,1,.57-.42.76.76,0,0,1,.34.06h0l0,.3,0,0a.44.44,0,0,0-.29-.08c-.13,0-.22.05-.23.13s0,.09.19.17a.63.63,0,0,1,.25.15.27.27,0,0,1,.08.26.57.57,0,0,1-.59.43"/><g class="cls-11"><rect class="cls-2" x="-3680.7" y="-2468.77" width="6348.4" height="5052.27"/></g><path class="cls-3" d="M869,29.71a.5.5,0,0,0-.54.46c0,.27.09.41.37.4a.64.64,0,0,0,.2,0l.11-.82Zm-.09,1.75.09-.67a.77.77,0,0,1-.25,0c-.44,0-.68-.22-.62-.63a.88.88,0,0,1,.94-.75l.4,0h0l-.26,2Z"/><g class="cls-12"><rect class="cls-2" x="-3680.7" y="-2468.77" width="6348.4" height="5052.27"/></g><path class="cls-3" d="M870.31,30.77a.6.6,0,0,1-.44-.11c-.09-.07-.11-.18-.08-.39l.11-.83h.32l-.1.81c0,.22,0,.28.26.27a.91.91,0,0,0,.23,0l.14-1.07h.33l-.17,1.28h0a3.51,3.51,0,0,1-.57.08"/><g class="cls-13"><rect class="cls-2" x="-3680.7" y="-2468.77" width="6348.4" height="5052.27"/></g><path class="cls-3" d="M872.31,29.82c0-.16-.09-.23-.26-.23a.39.39,0,0,0-.36.26Zm-.38.9c-.44,0-.67-.22-.62-.64a.81.81,0,0,1,.78-.74.49.49,0,0,1,.47.21.58.58,0,0,1,.05.41v.09l-1,0v0c0,.23.12.36.38.35a.76.76,0,0,0,.46-.16l0,0,0,.29h0A1,1,0,0,1,871.93,30.72Z"/><g class="cls-14"><rect class="cls-2" x="-3680.7" y="-2468.77" width="6348.4" height="5052.27"/></g><path class="cls-3" d="M873.52,30.63l.14-1.05h-.22l0-.25h.22v0a.79.79,0,0,1,.26-.57.77.77,0,0,1,.43-.17h.17l0,.25h-.14a.34.34,0,0,0-.23.11.54.54,0,0,0-.12.36v0h.35l0,.24H874l-.14,1.06Z"/><g class="cls-15"><rect class="cls-2" x="-3680.7" y="-2468.77" width="6348.4" height="5052.27"/></g><path class="cls-3" d="M875.18,30c-.37.05-.45.13-.47.25s0,.15.18.14l.24,0Zm-.35.63c-.32,0-.46-.11-.43-.36s.28-.44.81-.51h0c0-.12,0-.16,0-.19s-.06-.06-.14-.05a.8.8,0,0,0-.46.17l-.06,0,0-.3h0a1.32,1.32,0,0,1,.54-.16c.2,0,.32.05.37.16a.81.81,0,0,1,0,.32l-.11.83h-.08A4.11,4.11,0,0,1,874.83,30.6Z"/><g class="cls-16"><rect class="cls-2" x="-3680.7" y="-2468.77" width="6348.4" height="5052.27"/></g><path class="cls-3" d="M875.8,30.54,876,29.3h0a1.87,1.87,0,0,1,.56-.12.69.69,0,0,1,.25,0h0l0,.27,0,0a.71.71,0,0,0-.21,0l-.26.06-.14,1.05Z"/><g class="cls-17"><rect class="cls-2" x="-3680.7" y="-2468.77" width="6348.4" height="5052.27"/></g><path class="cls-3" d="M878.54,30.44l.11-.84c0-.19,0-.26-.22-.25a.79.79,0,0,0-.25,0,.47.47,0,0,1,0,.2l-.11.86h-.32l.11-.84c0-.19,0-.26-.25-.25l-.25.05-.14,1.06h-.32l.16-1.26h0a2,2,0,0,1,.6-.11.62.62,0,0,1,.37.07,1.08,1.08,0,0,1,.45-.1.48.48,0,0,1,.41.12.4.4,0,0,1,.07.35l-.12.86Z"/><g class="cls-18"><rect class="cls-2" x="-3680.7" y="-2468.77" width="6348.4" height="5052.27"/></g><path class="cls-3" d="M863.49,31l.11-.83c0-.19,0-.26-.22-.26a.77.77,0,0,0-.24.06,1.49,1.49,0,0,1,0,.19L863,31h-.33l.11-.83c0-.2,0-.26-.24-.25a.73.73,0,0,0-.25,0l-.14,1.06h-.33l.17-1.25h0a2.39,2.39,0,0,1,.61-.11.66.66,0,0,1,.36.07,1.52,1.52,0,0,1,.46-.1.5.5,0,0,1,.41.13c.07.07.08.17.06.34l-.11.86Z"/><g class="cls-19"><rect class="cls-2" x="-3680.7" y="-2468.77" width="6348.4" height="5052.27"/></g><path class="cls-3" d="M879.74,28.91l.56-.59.3,0-.63.6Zm.26.88c-.36,0-.45.12-.46.24s0,.15.17.15a.9.9,0,0,0,.24,0Zm-.35.63c-.31,0-.46-.11-.42-.36s.27-.45.8-.51h0v0a.38.38,0,0,0,0-.18s-.07-.06-.15-.06a.93.93,0,0,0-.46.18l0,0,0-.29h0A1.22,1.22,0,0,1,880,29c.19,0,.31,0,.36.16a.52.52,0,0,1,0,.31l-.11.83-.07,0Z"/><g class="cls-20"><rect class="cls-2" x="-3680.7" y="-2468.77" width="6348.4" height="5052.27"/></g><path class="cls-3" d="M881.24,30.36c-.44,0-.69-.23-.63-.64a.85.85,0,0,1,1.18-.67h0l0,.3,0,0a.37.37,0,0,0-.29-.08.48.48,0,0,0-.49.45c0,.28.1.43.37.42a.7.7,0,0,0,.34-.12l.05,0,0,.28h0a1,1,0,0,1-.41.11"/><g class="cls-21"><rect class="cls-2" x="-3680.7" y="-2468.77" width="6348.4" height="5052.27"/></g><path class="cls-3" d="M882.11,28.78l0-.34h.34l0,.33Zm-.19,1.53L882.1,29l.32,0-.17,1.34Z"/><g class="cls-22"><rect class="cls-2" x="-3680.7" y="-2468.77" width="6348.4" height="5052.27"/></g><path class="cls-3" d="M883.39,29.66c-.37,0-.45.12-.47.25s0,.15.18.14l.24,0Zm-.35.63c-.32,0-.46-.11-.43-.36s.28-.45.81-.51h0v0c0-.11,0-.16,0-.18s-.06-.06-.14-.06a.9.9,0,0,0-.46.18l-.06,0,0-.29h0a1.18,1.18,0,0,1,.54-.16c.2,0,.32.05.37.16a.77.77,0,0,1,0,.31l-.11.83-.08,0Z"/><g class="cls-23"><rect class="cls-2" x="-3680.7" y="-2468.77" width="6348.4" height="5052.27"/></g><path class="cls-3" d="M851.82,25.38l-.55,3.11a4.37,4.37,0,0,0,2.8-3.19Z"/><g class="cls-24"><rect class="cls-2" x="-3680.7" y="-2468.77" width="6348.4" height="5052.27"/></g><path class="cls-3" d="M852.2,23.37l1.67-.06a4.08,4.08,0,0,0-1.35-1.74Z"/><g class="cls-25"><rect class="cls-2" x="-3680.7" y="-2468.77" width="6348.4" height="5052.27"/></g><path class="cls-3" d="M849.44,27.16c.13-.51.3-1.37,1.88-1.71.13,0,.12-.05,0-.05l-5.1.19c0-.27.19-1.1.25-1.41.1-.5.36-.6.83-.62l2.78-.11.51-2.77a5.63,5.63,0,0,0-1.49-.14c-2.68.1-4.78,2.05-4.69,4.35s2.14,3.93,4.67,4Z"/><g class="cls-26"><rect class="cls-2" x="-3680.7" y="-2468.77" width="6348.4" height="5052.27"/></g><polygon class="cls-3" points="865.44 110.64 834.9 108.24 835.2 104.49 861.67 106.57 861.58 59.43 865.35 59.42 865.44 110.64"/><g class="cls-27"><rect class="cls-2" x="-3680.7" y="-2468.77" width="6348.4" height="5052.27"/></g><rect class="cls-2" x="875.59" y="95.7" width="3.76" height="27.92" transform="translate(701.93 976.36) rotate(-85.67)"/><g class="cls-28"><rect class="cls-2" x="-3680.7" y="-2468.77" width="6348.4" height="5052.27"/></g><path class="cls-3" d="M869.11,94a1.88,1.88,0,0,1-1-3.5l1-.61V88l-1.52-1.27a1.88,1.88,0,1,1,2.41-2.89l2.19,1.83a1.89,1.89,0,0,1,.68,1.44v3.85a1.88,1.88,0,0,1-.92,1.62l-1.95,1.16a1.88,1.88,0,0,1-1,.26"/><g class="cls-29"><rect class="cls-2" x="-3680.7" y="-2468.77" width="6348.4" height="5052.27"/></g><path class="cls-3" d="M857.37,93.43a1.9,1.9,0,0,1-1-.26L854.46,92a1.88,1.88,0,0,1-.92-1.62V86.55a1.89,1.89,0,0,1,.68-1.45l2.19-1.83a1.88,1.88,0,1,1,2.41,2.89l-1.52,1.27v1.89l1,.62a1.88,1.88,0,0,1-1,3.49"/><g class="cls-30"><rect class="cls-2" x="-3680.7" y="-2468.77" width="6348.4" height="5052.27"/></g><path class="cls-2" d="M548.44,484.1H464.92l35.55-33.82a3.29,3.29,0,0,0,0-4.93,3.7,3.7,0,0,0-5.18,0l-42,39.81a3.29,3.29,0,0,0,0,4.93L495.1,529.9a3.71,3.71,0,0,0,5.19,0,3.29,3.29,0,0,0,0-4.93l-35.37-33.82h83.52a3.53,3.53,0,1,0,0-7Z"/><g class="cls-31"><rect class="cls-2" x="-247.86" y="-2249.04" width="9600" height="25640"/></g><path class="cls-2" d="M307.84,484.1h83.52l-35.55-33.82a3.28,3.28,0,0,1,0-4.93,3.7,3.7,0,0,1,5.18,0l42,39.81a3.29,3.29,0,0,1,0,4.93L361.18,529.9a3.71,3.71,0,0,1-5.19,0,3.29,3.29,0,0,1,0-4.93l35.37-33.82H307.84a3.53,3.53,0,1,1,0-7Z"/><g class="cls-32"><rect class="cls-2" x="-8495.86" y="-2249.04" width="9600" height="25640"/></g><path class="cls-2" d="M105.25,9H22.75A13.77,13.77,0,0,0,9,22.75v82.5A13.77,13.77,0,0,0,22.75,119H64V81.19H50.25V64H64V50.25A20.62,20.62,0,0,1,84.62,29.63H98.37V46.81H91.5c-3.8,0-6.88-.36-6.88,3.44V64h17.19L94.94,81.19H84.62V119h20.63A13.77,13.77,0,0,0,119,105.25V22.75A13.77,13.77,0,0,0,105.25,9Z"/></svg>