<svg id="Layer_1" data-name="Layer 1" xmlns="http://www.w3.org/2000/svg" xmlns:xlink="http://www.w3.org/1999/xlink" viewBox="0 0 128 128"><defs><style>.cls-1{fill:#8a9297;}.cls-2{clip-path:url(#clip-path);}.cls-3{clip-path:url(#clip-path-2);}.cls-4{fill:url(#linear-gradient);}.cls-5{fill:url(#linear-gradient-2);}.cls-6{fill:url(#linear-gradient-3);}</style><clipPath id="clip-path"><path class="cls-1" d="M850.3-1421.19H766.78L802.33-1455a3.29,3.29,0,0,0,0-4.93,3.7,3.7,0,0,0-5.18,0l-42,39.81a3.29,3.29,0,0,0,0,4.93L797-1375.4a3.71,3.71,0,0,0,5.19,0,3.29,3.29,0,0,0,0-4.93l-35.37-33.82H850.3a3.62,3.62,0,0,0,3.7-3.52A3.62,3.62,0,0,0,850.3-1421.19Z"/></clipPath><clipPath id="clip-path-2"><path class="cls-1" d="M609.7-1421.19h83.52L657.67-1455a3.29,3.29,0,0,1,0-4.93,3.7,3.7,0,0,1,5.18,0l42,39.81a3.29,3.29,0,0,1,0,4.93L663-1375.4a3.71,3.71,0,0,1-5.19,0,3.29,3.29,0,0,1,0-4.93l35.37-33.82H609.7a3.62,3.62,0,0,1-3.7-3.52A3.62,3.62,0,0,1,609.7-1421.19Z"/></clipPath><linearGradient id="linear-gradient" x1="42.21" y1="73.63" x2="42.21" y2="65.94" gradientUnits="userSpaceOnUse"><stop offset="0" stop-color="#083050"/><stop offset="1" stop-color="#3d85c6"/></linearGradient><linearGradient id="linear-gradient-2" x1="33.21" y1="88.24" x2="33.21" y2="80.55" xlink:href="#linear-gradient"/><linearGradient id="linear-gradient-3" x1="64" y1="108.14" x2="64" y2="19.86" xlink:href="#linear-gradient"/></defs><title>icon</title><path class="cls-1" d="M850.3-1421.19H766.78L802.33-1455a3.29,3.29,0,0,0,0-4.93,3.7,3.7,0,0,0-5.18,0l-42,39.81a3.29,3.29,0,0,0,0,4.93L797-1375.4a3.71,3.71,0,0,0,5.19,0,3.29,3.29,0,0,0,0-4.93l-35.37-33.82H850.3a3.62,3.62,0,0,0,3.7-3.52A3.62,3.62,0,0,0,850.3-1421.19Z"/><g class="cls-2"><rect class="cls-1" x="54" y="-4154.34" width="9600" height="25640"/></g><path class="cls-1" d="M609.7-1421.19h83.52L657.67-1455a3.29,3.29,0,0,1,0-4.93,3.7,3.7,0,0,1,5.18,0l42,39.81a3.29,3.29,0,0,1,0,4.93L663-1375.4a3.71,3.71,0,0,1-5.19,0,3.29,3.29,0,0,1,0-4.93l35.37-33.82H609.7a3.62,3.62,0,0,1-3.7-3.52A3.62,3.62,0,0,1,609.7-1421.19Z"/><g class="cls-3"><rect class="cls-1" x="-8194" y="-4154.34" width="9600" height="25640"/></g><rect class="cls-4" x="14" y="65.94" width="56.43" height="7.69"/><rect class="cls-5" x="14" y="80.55" width="38.42" height="7.69"/><path class="cls-6" d="M124,46.6h0V34.86a15,15,0,0,0-15-15H19a15,15,0,0,0-15,15V93.14a15,15,0,0,0,15,15h90a15,15,0,0,0,15-15V53.6h0ZM19,26.86h90a8,8,0,0,1,8,8V46.6H11V34.86A8,8,0,0,1,19,26.86Zm98,66.28a8,8,0,0,1-8,8H19a8,8,0,0,1-8-8V53.6H117Z"/></svg>