<svg width="311" height="201" viewBox="0 0 311 201" fill="none" xmlns="http://www.w3.org/2000/svg">
<rect y="63" width="163" height="19" rx="9.5" fill="#F3F3F3"/>
<rect x="121" y="130" width="163" height="19" rx="9.5" fill="#F3F3F3"/>
<rect x="70" y="11" width="130" height="12" rx="6" fill="#F3F3F3"/>
<rect x="43" y="45" width="163" height="19" rx="9.5" fill="#F3F3F3"/>
<path d="M62.748 44.9965C62.6274 45.0011 62.5046 45.0012 62.3795 44.9965H62.748C67.9332 44.7966 69.0272 36.1207 64.4336 34.1878H53.3012C53.3012 34.1878 45.8735 28.594 53.3012 23.0002H174.517C174.551 22.9999 174.586 22.9999 174.62 23.0002H174.517C168.454 23.05 168.372 31.8523 172.635 33.8089H183.699C191.127 39.4027 183.699 44.9965 183.699 44.9965H62.748Z" fill="#F3F3F3"/>
<rect x="12" y="130" width="98" height="19" rx="9.5" fill="#F3F3F3"/>
<path d="M38.497 109C55.697 98.2 45.6637 85.5 38.497 80.5H219.496C215.663 85.6667 211.396 98.6 224.996 109C238.596 119.4 230.663 130.667 224.996 135H38.497C31.3303 130.833 21.297 119.8 38.497 109Z" fill="#F3F3F3"/>
<path d="M75.497 174.5C92.697 163.7 82.6637 151 75.497 146H256.496C252.663 151.167 248.396 164.1 261.996 174.5C275.596 184.9 267.663 196.167 261.996 200.5H75.497C68.3303 196.333 58.297 185.3 75.497 174.5Z" fill="#F3F3F3"/>
<path d="M284.156 31.5196C280.536 13.5172 264.464 0.200012 245.896 0.200012C224.354 0.200012 206.833 17.6928 206.833 39.2C206.833 40.0788 206.87 40.9784 206.948 41.93C195.193 43.178 186 53.136 186 65.2C186 78.1012 196.516 88.6 209.438 88.6C210.875 88.6 212.042 87.4352 212.042 86C212.042 67.3632 227.229 52.2 245.896 52.2C264.563 52.2 279.75 67.3632 279.75 86C279.75 87.4352 280.917 88.6 282.354 88.6C298.151 88.6 311 75.7716 311 60C311 44.9668 299.323 32.6064 284.156 31.5196Z" fill="#D2D2D2"/>
<path d="M245.896 57.4C230.099 57.4 217.25 70.2284 217.25 86C217.25 101.772 230.099 114.6 245.896 114.6C261.693 114.6 274.542 101.772 274.542 86C274.542 70.2284 261.693 57.4 245.896 57.4ZM258.156 94.5592C259.172 95.5732 259.172 97.2216 258.156 98.2356C257.646 98.7452 256.979 99 256.312 99C255.646 99 254.979 98.7452 254.469 98.2408L245.896 89.6764L237.323 98.2356C236.812 98.7452 236.146 99 235.479 99C234.812 99 234.146 98.7452 233.635 98.2408C232.62 97.2268 232.62 95.5784 233.635 94.5644L242.208 86.0052L233.635 77.446C232.62 76.432 232.62 74.7836 233.635 73.7696C234.651 72.7556 236.302 72.7556 237.318 73.7696L245.891 82.3288L254.464 73.7696C255.479 72.7556 257.13 72.7556 258.146 73.7696C259.161 74.7836 259.161 76.432 258.146 77.446L249.578 86L258.156 94.5592Z" fill="#D2D2D2"/>
<rect x="98" y="64" width="131" height="25" fill="white"/>
<rect x="98" y="93" width="131" height="81" fill="white"/>
<path d="M110.64 81.9024C112.669 81.9024 114.315 80.2548 114.315 78.2224C114.315 76.19 112.669 74.5424 110.64 74.5424C108.61 74.5424 106.965 76.19 106.965 78.2224C106.965 80.2548 108.61 81.9024 110.64 81.9024Z" fill="#787878"/>
<path d="M121.372 81.9024C123.402 81.9024 125.047 80.2548 125.047 78.2224C125.047 76.19 123.402 74.5424 121.372 74.5424C119.343 74.5424 117.697 76.19 117.697 78.2224C117.697 80.2548 119.343 81.9024 121.372 81.9024Z" fill="#787878"/>
<path d="M131.954 81.9024C133.984 81.9024 135.629 80.2548 135.629 78.2224C135.629 76.19 133.984 74.5424 131.954 74.5424C129.925 74.5424 128.279 76.19 128.279 78.2224C128.279 80.2548 129.925 81.9024 131.954 81.9024Z" fill="#787878"/>
<path d="M222.948 61H102.702C97.41 61 93 65.2688 93 70.7152V170.664C93 175.963 97.263 180.379 102.702 180.379H223.095C228.387 180.379 232.797 176.11 232.797 170.664V70.7152C232.65 65.416 228.387 61 222.948 61ZM102.702 68.5072H223.095C224.271 68.5072 225.3 69.5376 225.3 70.7152V87.9376H100.497V70.7152C100.497 69.5376 101.526 68.5072 102.702 68.5072ZM222.948 172.725H102.702C101.526 172.725 100.497 171.694 100.497 170.517V95.2976H225.153V170.517C225.153 171.694 224.124 172.725 222.948 172.725Z" fill="#787878"/>
<path d="M137.542 127.682C138.277 128.418 139.159 128.712 140.188 128.712C141.217 128.712 142.099 128.418 142.834 127.682L146.95 123.56L151.066 127.682C151.801 128.418 152.683 128.712 153.712 128.712C154.741 128.712 155.623 128.418 156.358 127.682C157.828 126.21 157.828 123.854 156.358 122.382L152.242 118.261L156.358 114.139C157.828 112.667 157.828 110.312 156.358 108.84C154.888 107.368 152.536 107.368 151.066 108.84L146.95 112.962L142.834 108.84C141.364 107.368 139.012 107.368 137.542 108.84C136.072 110.312 136.072 112.667 137.542 114.139L141.658 118.261L137.542 122.382C136.072 123.854 136.072 126.21 137.542 127.682Z" fill="#787878"/>
<path d="M188.11 108.987C186.64 107.515 184.288 107.515 182.818 108.987L178.702 113.109L174.586 108.987C173.116 107.515 170.764 107.515 169.294 108.987C167.824 110.459 167.824 112.814 169.294 114.286L173.41 118.408L169.294 122.53C167.824 124.002 167.824 126.357 169.294 127.829C170.029 128.565 170.911 128.859 171.94 128.859C172.969 128.859 173.851 128.565 174.586 127.829L178.702 123.707L182.818 127.829C183.553 128.565 184.435 128.859 185.464 128.859C186.493 128.859 187.375 128.565 188.11 127.829C189.58 126.357 189.58 124.002 188.11 122.53L183.994 118.408L188.11 114.286C189.58 112.814 189.58 110.459 188.11 108.987Z" fill="#787878"/>
<path d="M184.727 138.869H140.921C138.863 138.869 137.246 140.488 137.246 142.549C137.246 144.61 138.863 146.229 140.921 146.229H161.648V153.736C161.648 159.182 166.058 163.451 171.35 163.451C176.642 163.451 181.052 159.035 181.052 153.736V146.229H184.58C186.638 146.229 188.255 144.61 188.255 142.549C188.402 140.488 186.785 138.869 184.727 138.869ZM173.702 153.883C173.702 155.208 172.673 156.238 171.35 156.238C170.027 156.238 168.998 155.208 168.998 153.883V146.376H173.555V153.883H173.702Z" fill="#787878"/>
<path d="M64.8544 54.1037C61.901 49.9196 68.0584 46.001 64.6358 41.3183C60.9987 36.3465 55.1685 37.4829 50.5739 40.89C45.9793 44.2971 43.6764 49.9887 47.8275 54.5793L53.4824 50.3859C52.1005 48.5224 52.9723 47.0791 54.386 46.0307C55.9925 44.8395 57.4546 45.1994 58.1611 46.2192C58.6531 46.9499 58.5524 47.8214 57.9769 49.1943C56.9722 51.5329 55.6296 54.2216 58.6212 58.7259L64.8544 54.1037ZM67.4011 63.9177C71.9957 60.5106 67.2937 54.2369 62.7312 57.6202C58.2331 60.9559 62.903 67.2533 67.4011 63.9177Z" fill="#D2D2D2"/>
<path d="M53.3148 118.267C56.2553 114.074 62.0236 118.546 65.2748 113.743C68.7257 108.64 65.6866 103.536 60.9277 100.363C56.1688 97.1893 50.0339 96.9444 47.1154 102.402L52.9725 106.308C54.2597 104.378 55.9126 104.711 57.3769 105.687C59.0409 106.797 59.196 108.295 58.4747 109.304C57.9532 110.014 57.099 110.214 55.6124 110.136C53.0719 109.98 50.0876 109.625 46.8587 113.962L53.3148 118.267ZM44.9381 123.98C49.697 127.153 54.0134 120.608 49.2878 117.457C44.6287 114.35 40.279 120.873 44.9381 123.98Z" fill="#D2D2D2"/>
<path d="M162.581 34.9253C163.104 29.8307 170.32 30.9226 170.817 25.1438C171.342 19.0061 166.201 16.0318 160.498 15.5811C154.796 15.1305 149.32 17.9077 149.433 24.0958L156.451 24.6505C156.634 22.3377 158.24 21.8226 159.994 21.9612C161.988 22.1188 162.854 23.3508 162.716 24.5838C162.607 25.4579 161.958 26.0487 160.622 26.7055C158.328 27.8082 155.549 28.9528 154.845 34.314L162.581 34.9253ZM158.052 43.9967C163.754 44.4474 164.332 36.6286 158.67 36.1811C153.087 35.7399 152.469 43.5555 158.052 43.9967Z" fill="#D2D2D2"/>
<path d="M275.445 159.722C273.563 154.96 280.471 152.604 278.249 147.246C275.888 141.557 269.954 141.286 264.685 143.513C259.417 145.74 255.836 150.728 258.787 156.168L265.272 153.427C264.368 151.29 265.556 150.093 267.177 149.408C269.019 148.629 270.355 149.324 270.801 150.482C271.107 151.308 270.803 152.131 269.92 153.329C268.392 155.365 266.453 157.661 268.298 162.744L275.445 159.722ZM275.605 169.86C280.874 167.633 277.784 160.427 272.553 162.639C267.395 164.819 270.447 172.041 275.605 169.86Z" fill="#D2D2D2"/>
</svg>
