<svg id="Layer_1" data-name="Layer 1" xmlns="http://www.w3.org/2000/svg" viewBox="0 0 128 128"><defs><style>.cls-1{fill:#333;}</style></defs><title>icon_dislike</title><path class="cls-1" d="M59.09,112.74c-5.3-1.2-8.3-4.6-9.4-9.7a25.61,25.61,0,0,1-.3-3.9V79.24h-1.2c-7.7,0-15.4-.1-23.1,0-5.4.1-9.4-2.3-12.4-6.6a36.36,36.36,0,0,1-5.3-13.8,49.89,49.89,0,0,1,2-26.3,26.15,26.15,0,0,1,9.7-13.4,24,24,0,0,1,10-3.5c7.8-1.3,15.4-.1,22.9,2,7,2,13.8,4.4,20.7,6.5A71.53,71.53,0,0,0,84,26.84a55.82,55.82,0,0,0,7.1.1v-2a4.22,4.22,0,0,1,3.8-4.5h22a4.15,4.15,0,0,1,4.5,3.8v50.1a4.15,4.15,0,0,1-3.8,4.5H95.49a4.17,4.17,0,0,1-4.6-3.7v-.4c0-.1-.1-.3-.1-.4-1.4.9-2.8,1.6-4.2,2.6a35.51,35.51,0,0,0-13.1,18.4,20.43,20.43,0,0,0-.5,4.4,15.31,15.31,0,0,1-2.2,7.8,11.57,11.57,0,0,1-8.3,5.4A18.3,18.3,0,0,1,59.09,112.74Zm31.8-79.8H85a9.15,9.15,0,0,1-1.6-.1c-3.3-.7-6.7-1.4-9.9-2.3-7-2.1-14-4.5-21-6.6a55.41,55.41,0,0,0-22.9-2.4c-5.1.7-9.2,2.8-11.9,7.3a33.37,33.37,0,0,0-3.3,7.2,45.76,45.76,0,0,0-.7,23.5,24.94,24.94,0,0,0,4.4,10,7.49,7.49,0,0,0,6.5,3.1c9-.1,17.8,0,26.8,0,2.8,0,4,1,4,3.9v22.6a8.52,8.52,0,0,0,1,4.7,5.23,5.23,0,0,0,7.1,2.3,4.81,4.81,0,0,0,1.9-1.6,6.37,6.37,0,0,0,1.3-4.2,26.42,26.42,0,0,1,1-7.4,42.3,42.3,0,0,1,10.2-16.8A32,32,0,0,1,89.69,68a1.48,1.48,0,0,0,1.2-1.7V32.94Zm6.2-6.3v46.1H115V26.64Z"/></svg>