<svg id="Layer_1" data-name="Layer 1" xmlns="http://www.w3.org/2000/svg" xmlns:xlink="http://www.w3.org/1999/xlink" viewBox="0 0 128 128"><defs><style>.cls-1,.cls-2,.cls-3{fill:#8a9297;}.cls-1{clip-rule:evenodd;}.cls-3{fill-rule:evenodd;}.cls-4{clip-path:url(#clip-path);}.cls-5{clip-path:url(#clip-path-2);}.cls-6{clip-path:url(#clip-path-3);}.cls-7{clip-path:url(#clip-path-4);}.cls-8{clip-path:url(#clip-path-5);}.cls-9{clip-path:url(#clip-path-6);}.cls-10{clip-path:url(#clip-path-7);}.cls-11{clip-path:url(#clip-path-8);}.cls-12{clip-path:url(#clip-path-9);}.cls-13{clip-path:url(#clip-path-10);}.cls-14{clip-path:url(#clip-path-11);}.cls-15{clip-path:url(#clip-path-12);}.cls-16{clip-path:url(#clip-path-13);}.cls-17{clip-path:url(#clip-path-14);}.cls-18{clip-path:url(#clip-path-15);}.cls-19{clip-path:url(#clip-path-16);}.cls-20{clip-path:url(#clip-path-17);}.cls-21{clip-path:url(#clip-path-18);}.cls-22{clip-path:url(#clip-path-19);}.cls-23{clip-path:url(#clip-path-20);}.cls-24{clip-path:url(#clip-path-21);}.cls-25{clip-path:url(#clip-path-22);}.cls-26{clip-path:url(#clip-path-23);}.cls-27{clip-path:url(#clip-path-24);}.cls-28{clip-path:url(#clip-path-25);}.cls-29{clip-path:url(#clip-path-26);}.cls-30{clip-path:url(#clip-path-27);}.cls-31{clip-path:url(#clip-path-28);}.cls-32{clip-path:url(#clip-path-29);}</style><clipPath id="clip-path"><path class="cls-1" d="M1050.57-162h-.16l-11-.91a1.88,1.88,0,0,1-1.72-1.88v-44.32A6.43,6.43,0,0,0,1036-214a6.68,6.68,0,0,0-4.5-1.46h-.17L983.77-216v46.91a1.86,1.86,0,0,1-.61,1.38,1.91,1.91,0,0,1-1.42.5l-9.25-.74a1.88,1.88,0,0,1-1.74-1.89c0-.3.28-29.77.22-36.75a14.73,14.73,0,0,1,3.35-9.34h-5.9a3.56,3.56,0,0,1-3.26-2.65,1.77,1.77,0,0,1-.08-.56v-6.09c0-3.05,1.89-4.31,3-4.58a2.87,2.87,0,0,1,.41-.05l67.22-.91h.26c15.86,2,16.65,15.93,16.66,16.07v.09l-.18,50.74a1.88,1.88,0,0,1-.61,1.38A1.87,1.87,0,0,1,1050.57-162Zm-9.11-4.53,7.23.61.18-48.65c0-.78-.95-10.82-13.25-12.45l-66.6.91a1.56,1.56,0,0,0-.18.87v5.54H979a1.87,1.87,0,0,1,1.43.66l.18-.21a1.84,1.84,0,0,1,1.35-.54l49.38.55a10.31,10.31,0,0,1,7.22,2.41c2,1.79,3,4.39,3,7.71Zm-66.93-5,5.47.43v-45.12h0s-5.32,3.68-5.27,9.63S974.59-178,974.53-171.53Z"/></clipPath><clipPath id="clip-path-2"><path class="cls-1" d="M1055.68-165.43h-3.76V-215c-.09-1-1.31-11.31-12-12.13l.29-3.75c11.42.87,15.13,10.62,15.5,15.66v49.83Z"/></clipPath><clipPath id="clip-path-3"><path class="cls-1" d="M976.08-233a1.89,1.89,0,0,1-1.88-1.87l-.12-19.84a1.89,1.89,0,0,1,1.82-1.9l9.65-.3h.09l3.42.06a1.88,1.88,0,0,1,1.85,1.91A1.87,1.87,0,0,1,989-253l-3.37-.06-7.77.25.12,18a1.9,1.9,0,0,1-1.87,1.9Z"/></clipPath><clipPath id="clip-path-4"><path class="cls-1" d="M991.72-240h-.46a5,5,0,0,1-4.15-1.77,4.52,4.52,0,0,1-.8-3.49l.83-9.68c-.07-2.54.62-4.44,2.07-5.65a6.09,6.09,0,0,1,4.69-1.2l41.85-2,.23,0c2.51.5,4.26,1.52,5.19,3a4.37,4.37,0,0,1,.64,3.1c-.11,1.41-.78,9.73-1.45,12.35a5.76,5.76,0,0,1-4.77,4.34h-.18c-1.59,0-37.92.92-43.69.92m1.2-18.09a2.07,2.07,0,0,0-1.31.39,3.63,3.63,0,0,0-.7,2.74v.11L990-244.6a.9.9,0,0,0,.08.49,1.87,1.87,0,0,0,1.24.3c3.65.07,41.35-.85,43.87-.91a2,2,0,0,0,1.53-1.52c.52-2,1.15-9.22,1.35-11.83l0-.31c0-.54-.81-1.27-2.65-1.68l-41.83,2-.23,0a2.33,2.33,0,0,0-.48,0"/></clipPath><clipPath id="clip-path-5"><path class="cls-1" d="M1028.4-254.95a1.24,1.24,0,0,0-.93-.27,1.68,1.68,0,0,0-1,.4,2.13,2.13,0,0,0-.61,1.24l0,.17s1.1,0,2-.06c.51,0,.79-.16.86-.6a1.06,1.06,0,0,0-.2-.88m1.83,1a1.43,1.43,0,0,1-.61,1.08,2.71,2.71,0,0,1-1.42.4,9,9,0,0,1-1.86,0c-.39-.07-.51-.65-.56-.81a3.89,3.89,0,0,0-.08,1.09,1.14,1.14,0,0,0,.5,1,2.16,2.16,0,0,0,1.22.24c.32,0,.66,0,1-.07a8,8,0,0,0,.81-.11h0c.06,0,.14,0,.12.11l-.1.83c0,.06,0,.1-.11.13a6.84,6.84,0,0,1-1.06.25,8.42,8.42,0,0,1-1.08.11,4.66,4.66,0,0,1-1.53-.15,2.12,2.12,0,0,1-1-.59,2.08,2.08,0,0,1-.46-1,4.76,4.76,0,0,1,0-1.37l.05-.41a3.91,3.91,0,0,1,1-2.33,3.62,3.62,0,0,1,2.51-.92,2.53,2.53,0,0,1,2.07.64,2.33,2.33,0,0,1,.47,1.92m-22.44-1.74-4.45.17c-.29,0-.39.21-.43.49s-.08.58-.11.83.09.31.3.3h.38l1.4-.06c.12,0,0,0,0,.06a2.35,2.35,0,0,0-1.28,1.89c0,.21-.34,2.67-.34,2.67a.89.89,0,0,0,0,.15c0,.23.14.28.23.28l.89,0h.09c.35,0,.44-.11.49-.47.06-.51.53-4.27.57-4.56l1.05,0c.48,0,1-.07,1.33.26s.22.71.15,1.26l-.37,3c0,.05,0,.11,0,.15,0,.23.14.29.23.28l.89,0h.08c.35,0,.45-.11.49-.46,0-.13.48-3.77.51-4,.22-1.7-1.4-2.09-2.08-2.07m25.06-.33c0-.24,0-.66-.48-.64l-.81,0a.43.43,0,0,0-.4.35l-.72,5.89c-.06.32,0,.44.21.43l1.17,0a.34.34,0,0,0,.32-.29l.09-.7s.23-1.92.43-3.5a.3.3,0,0,0-.34-.37l-1,0h-.11s0,0,0,0c.51-.09,1.49-.53,1.57-1.19M1012.21-254l-1,0h-.08c.51-.1,1.48-.54,1.56-1.2,0-.24,0-.65-.47-.63l-.81,0a.41.41,0,0,0-.4.35l-.73,5.89c-.05.32.06.44.21.43l1.18,0a.35.35,0,0,0,.31-.29l.1-.7s.23-1.92.43-3.51a.31.31,0,0,0-.35-.36m11.31-2.06a4.93,4.93,0,0,0-.9-.18,9.6,9.6,0,0,0-1.08,0,5,5,0,0,0-1,.15,2.36,2.36,0,0,0-.8.37,1.89,1.89,0,0,0-.56.6,2.24,2.24,0,0,0-.29.86,1.46,1.46,0,0,0,.25,1.11,2.47,2.47,0,0,0,1.05.69l1,.38a1.51,1.51,0,0,1,.46.27.47.47,0,0,1,.14.42.61.61,0,0,1-.31.49,1.53,1.53,0,0,1-.75.17h-1.05c-.38,0-.73,0-1-.06h0a.09.09,0,0,0-.11.09v0l-.12.93a.14.14,0,0,0,.13.18,9.56,9.56,0,0,0,1.11.16,8.42,8.42,0,0,0,1.24,0,3.24,3.24,0,0,0,1.84-.57,2,2,0,0,0,.83-1.43,1.58,1.58,0,0,0-.24-1.14,2.2,2.2,0,0,0-1-.72l-1-.4a2.29,2.29,0,0,1-.45-.23.4.4,0,0,1-.15-.41.56.56,0,0,1,.3-.47,1.74,1.74,0,0,1,.7-.13h.88c.29,0,.58,0,.86.06h.07a.1.1,0,0,0,.09-.09c0-.06,0,0,0,0l.11-.93c0-.12-.07-.16-.14-.18m-5.38,1.35a.12.12,0,0,1-.09.09H1018a8.09,8.09,0,0,0-.86-.07c-.29,0-.59,0-.88,0a1.87,1.87,0,0,0-.69.13.55.55,0,0,0-.31.47.41.41,0,0,0,.15.42,2.35,2.35,0,0,0,.45.22l1,.41a2.14,2.14,0,0,1,1,.72,1.52,1.52,0,0,1,.24,1.14,2,2,0,0,1-.82,1.43,3.3,3.3,0,0,1-1.85.57,12.24,12.24,0,0,1-1.23,0c-.39,0-.77-.1-1.12-.17a.14.14,0,0,1-.13-.17l.12-.93v0a.11.11,0,0,1,.12-.1s0,0,0,0a8.22,8.22,0,0,0,1,.06h1a1.74,1.74,0,0,0,.76-.17.61.61,0,0,0,.3-.49.44.44,0,0,0-.14-.43,1.75,1.75,0,0,0-.46-.26l-.95-.38a2.4,2.4,0,0,1-1.05-.69,1.41,1.41,0,0,1-.25-1.12,2.13,2.13,0,0,1,.28-.86,2,2,0,0,1,.56-.6,2.44,2.44,0,0,1,.8-.36,3.93,3.93,0,0,1,1-.15,7.71,7.71,0,0,1,1.08,0,3.58,3.58,0,0,1,.9.18c.07,0,.16.06.15.18l-.12.92s0,0,0,0"/></clipPath><clipPath id="clip-path-6"><path class="cls-1" d="M1013-246.76c-.37,0-.45.13-.46.25s0,.15.17.15l.24,0Zm-.35.63c-.31,0-.46-.11-.42-.36s.27-.44.8-.5h0a.42.42,0,0,0,0-.19s-.07-.05-.15-.05a.9.9,0,0,0-.46.17l-.05,0,0-.3h0a1.25,1.25,0,0,1,.54-.17c.2,0,.32,0,.37.17a.61.61,0,0,1,0,.31l-.11.83h-.07A3,3,0,0,1,1012.66-246.13Z"/></clipPath><clipPath id="clip-path-7"><path class="cls-1" d="M1013.82-247.72l0-.34h.35l-.05.34Zm-.19,1.53.17-1.33h.33l-.18,1.33Z"/></clipPath><clipPath id="clip-path-8"><path class="cls-1" d="M1014.67-246.19a.76.76,0,0,1-.36-.06h0l0-.32,0,0a.47.47,0,0,0,.32.1c.13,0,.22-.06.23-.15s0-.08-.06-.12l-.17-.08c-.24-.1-.31-.2-.29-.37a.54.54,0,0,1,.57-.42.65.65,0,0,1,.34.06h0l0,.3,0,0a.51.51,0,0,0-.29-.08c-.13,0-.22.06-.23.14s0,.09.19.17.21.09.25.15a.25.25,0,0,1,.08.25.55.55,0,0,1-.59.43"/></clipPath><clipPath id="clip-path-9"><path class="cls-1" d="M1017-247.41a.51.51,0,0,0-.54.46c0,.28.09.42.37.41l.2,0,.11-.83Zm-.09,1.75.09-.66a1.13,1.13,0,0,1-.25,0c-.44,0-.68-.21-.62-.63a.87.87,0,0,1,.94-.74,1.4,1.4,0,0,1,.4,0h0l-.26,2Z"/></clipPath><clipPath id="clip-path-10"><path class="cls-1" d="M1018.31-246.35a.6.6,0,0,1-.44-.1c-.09-.08-.11-.19-.08-.39l.11-.83.32,0-.1.82c0,.21,0,.27.26.27l.23,0,.14-1.08h.33l-.17,1.29h0a3.51,3.51,0,0,1-.57.08"/></clipPath><clipPath id="clip-path-11"><path class="cls-1" d="M1020.31-247.29a.22.22,0,0,0-.26-.23.37.37,0,0,0-.36.25Zm-.38.89c-.44,0-.67-.22-.62-.63a.83.83,0,0,1,.78-.75.48.48,0,0,1,.47.22.56.56,0,0,1,.05.41v.09l-1,0v0c0,.23.12.37.38.36a.91.91,0,0,0,.46-.16l0,0,0,.29h0A1,1,0,0,1,1019.93-246.4Z"/></clipPath><clipPath id="clip-path-12"><path class="cls-1" d="M1021.52-246.49l.14-1h-.22l0-.24h.22v0a.83.83,0,0,1,.26-.57.69.69,0,0,1,.43-.16.65.65,0,0,1,.14,0h0l0,.24h-.14a.29.29,0,0,0-.23.1.59.59,0,0,0-.12.37v0l.35,0,0,.25H1022l-.14,1.05Z"/></clipPath><clipPath id="clip-path-13"><path class="cls-1" d="M1023.18-247.14c-.37,0-.45.12-.47.24s0,.15.18.15l.24,0Zm-.35.62c-.32,0-.46-.1-.43-.35s.28-.45.81-.51h0v0c0-.11,0-.16,0-.19s-.06,0-.14,0a1,1,0,0,0-.46.17l-.06,0,0-.29h0a1.07,1.07,0,0,1,.54-.16c.2,0,.32,0,.37.16a.75.75,0,0,1,0,.31l-.11.83h-.08A2.76,2.76,0,0,1,1022.83-246.52Z"/></clipPath><clipPath id="clip-path-14"><path class="cls-1" d="M1023.8-246.57l.16-1.24h0a1.9,1.9,0,0,1,.56-.13,1,1,0,0,1,.25,0h0l0,.26h0a.49.49,0,0,0-.21,0,.65.65,0,0,0-.26.06l-.14,1Z"/></clipPath><clipPath id="clip-path-15"><path class="cls-1" d="M1026.54-246.68l.11-.83c0-.19,0-.26-.22-.25a.59.59,0,0,0-.25,0,.47.47,0,0,1,0,.2l-.11.85h-.32l.11-.83c0-.2,0-.26-.25-.25a.81.81,0,0,0-.25,0l-.14,1.06h-.32l.16-1.25h0a2.39,2.39,0,0,1,.6-.11.82.82,0,0,1,.37.07,1.53,1.53,0,0,1,.45-.1.48.48,0,0,1,.41.13.38.38,0,0,1,.07.34l-.12.86Z"/></clipPath><clipPath id="clip-path-16"><path class="cls-1" d="M1011.49-246.1l.11-.84c0-.19,0-.26-.22-.25a.74.74,0,0,0-.24.05,1.72,1.72,0,0,1,0,.2l-.11.85-.33,0,.11-.84c0-.19,0-.26-.24-.25a.73.73,0,0,0-.25,0l-.14,1.07h-.33l.17-1.26h0a2.43,2.43,0,0,1,.61-.12.66.66,0,0,1,.36.08,1.29,1.29,0,0,1,.46-.11.53.53,0,0,1,.41.13c.07.08.08.17.06.34l-.11.86Z"/></clipPath><clipPath id="clip-path-17"><path class="cls-1" d="M1027.74-248.2l.56-.59h.3l-.63.6Zm.26.87c-.36.05-.45.13-.46.25s0,.15.17.14l.24,0Zm-.35.63c-.31,0-.46-.11-.42-.36s.27-.44.8-.51h0a.42.42,0,0,0,0-.19s-.07-.06-.15,0a.82.82,0,0,0-.46.17l0,0,0-.3h0a1.36,1.36,0,0,1,.55-.16c.19,0,.31.05.36.17a.51.51,0,0,1,0,.31l-.11.83h-.07A4.48,4.48,0,0,1,1027.65-246.7Z"/></clipPath><clipPath id="clip-path-18"><path class="cls-1" d="M1029.24-246.75c-.44,0-.69-.24-.63-.65a.83.83,0,0,1,.83-.73.7.7,0,0,1,.35.06h0l0,.29,0,0a.47.47,0,0,0-.29-.08.48.48,0,0,0-.49.46.32.32,0,0,0,.37.41.54.54,0,0,0,.34-.12l0,0,0,.29h0a1,1,0,0,1-.41.11"/></clipPath><clipPath id="clip-path-19"><path class="cls-1" d="M1030.11-248.34l.05-.34h.34l0,.34Zm-.19,1.53.18-1.33h.32l-.17,1.33Z"/></clipPath><clipPath id="clip-path-20"><path class="cls-1" d="M1031.39-247.45c-.37,0-.45.12-.47.24s0,.15.18.14l.24,0Zm-.35.62c-.32,0-.46-.11-.43-.36s.28-.44.81-.51h0c0-.12,0-.16,0-.19s-.06-.06-.14,0a.87.87,0,0,0-.46.17l-.06,0,0-.3h0a1.21,1.21,0,0,1,.54-.17c.2,0,.32.05.37.17a.75.75,0,0,1,0,.31l-.11.83h-.08A2.76,2.76,0,0,1,1031-246.83Z"/></clipPath><clipPath id="clip-path-21"><path class="cls-1" d="M999.82-251.73l-.55,3.1a4.35,4.35,0,0,0,2.8-3.19Z"/></clipPath><clipPath id="clip-path-22"><path class="cls-1" d="M1000.2-253.74l1.67-.06a4.11,4.11,0,0,0-1.35-1.75Z"/></clipPath><clipPath id="clip-path-23"><path class="cls-1" d="M997.44-250c.13-.51.3-1.36,1.88-1.7.13,0,.12-.06,0-.06l-5.1.2c0-.27.19-1.1.25-1.42.1-.5.36-.6.83-.62l2.78-.1.51-2.77a5.24,5.24,0,0,0-1.49-.15c-2.68.1-4.78,2-4.69,4.35s2.14,3.94,4.67,4Z"/></clipPath><clipPath id="clip-path-24"><polygon class="cls-1" points="1013.44 -166.47 982.9 -168.88 983.2 -172.63 1009.67 -170.55 1009.58 -217.68 1013.35 -217.69 1013.44 -166.47"/></clipPath><clipPath id="clip-path-25"><rect class="cls-2" x="1023.59" y="-181.42" width="3.76" height="27.92" transform="translate(1115.09 867.73) rotate(-85.67)"/></clipPath><clipPath id="clip-path-26"><path class="cls-1" d="M1017.11-183.14a1.89,1.89,0,0,1-1.62-.92,1.88,1.88,0,0,1,.66-2.58l1-.62v-1.89l-1.52-1.27a1.88,1.88,0,0,1-.24-2.65,1.89,1.89,0,0,1,2.65-.24l2.19,1.83a1.89,1.89,0,0,1,.68,1.45v3.84a1.88,1.88,0,0,1-.92,1.62l-1.95,1.16a1.89,1.89,0,0,1-1,.27"/></clipPath><clipPath id="clip-path-27"><path class="cls-1" d="M1005.37-183.68a1.92,1.92,0,0,1-1-.27l-1.95-1.16a1.86,1.86,0,0,1-.92-1.61v-3.85a1.89,1.89,0,0,1,.68-1.45l2.19-1.83a1.89,1.89,0,0,1,2.65.24,1.88,1.88,0,0,1-.24,2.65l-1.52,1.27v1.9l1,.61a1.88,1.88,0,0,1,.66,2.58,1.87,1.87,0,0,1-1.62.92"/></clipPath><clipPath id="clip-path-28"><path class="cls-2" d="M696.44,207H612.92l35.55-33.82a3.3,3.3,0,0,0,0-4.94,3.72,3.72,0,0,0-5.18,0l-42,39.82a3.29,3.29,0,0,0,0,4.93l41.85,39.81a3.71,3.71,0,0,0,5.19,0,3.29,3.29,0,0,0,0-4.93L612.92,214h83.52a3.52,3.52,0,1,0,0-7Z"/></clipPath><clipPath id="clip-path-29"><path class="cls-2" d="M455.84,207h83.52l-35.55-33.82a3.29,3.29,0,0,1,0-4.94,3.72,3.72,0,0,1,5.18,0l42,39.82a3.29,3.29,0,0,1,0,4.93l-41.85,39.81a3.71,3.71,0,0,1-5.19,0,3.29,3.29,0,0,1,0-4.93L539.36,214H455.84a3.52,3.52,0,1,1,0-7Z"/></clipPath></defs><title>icons</title><path class="cls-2" d="M122.91,39.21c-.12-.53-.23-1.07-.34-1.6-.26-1.23-.51-2.47-.81-3.69A32.48,32.48,0,0,0,94,9.42C81.26,8,71.2,12,64,21.4c-7.33-9.54-19-14-31.34-11.83A32.84,32.84,0,0,0,5.88,35.31C3.2,48.71,6.53,61.1,16.06,73.18c6.52,8.26,14.52,14.91,22.25,21.33l.84.7c3.17,2.64,6.91,5.78,10.54,9s7.8,7.27,10.71,12.69a4,4,0,0,0,3.38,2.1h.14a4,4,0,0,0,3.38-1.86L68,116c.42-.68.81-1.3,1.22-1.91,3.75-5.49,8.8-9.79,14.14-14.34l.32-.27,5.65-4.78c3.81-3.2,7.75-6.52,11.57-9.89A79.42,79.42,0,0,0,115.59,68a44.48,44.48,0,0,0,7-17.94l.08-.15a4,4,0,0,0,.38-1.71V40.06A4,4,0,0,0,122.91,39.21Z"/><path class="cls-3" d="M1050.57-162h-.16l-11-.91a1.88,1.88,0,0,1-1.72-1.88v-44.32A6.43,6.43,0,0,0,1036-214a6.68,6.68,0,0,0-4.5-1.46h-.17L983.77-216v46.91a1.86,1.86,0,0,1-.61,1.38,1.91,1.91,0,0,1-1.42.5l-9.25-.74a1.88,1.88,0,0,1-1.74-1.89c0-.3.28-29.77.22-36.75a14.73,14.73,0,0,1,3.35-9.34h-5.9a3.56,3.56,0,0,1-3.26-2.65,1.77,1.77,0,0,1-.08-.56v-6.09c0-3.05,1.89-4.31,3-4.58a2.87,2.87,0,0,1,.41-.05l67.22-.91h.26c15.86,2,16.65,15.93,16.66,16.07v.09l-.18,50.74a1.88,1.88,0,0,1-.61,1.38A1.87,1.87,0,0,1,1050.57-162Zm-9.11-4.53,7.23.61.18-48.65c0-.78-.95-10.82-13.25-12.45l-66.6.91a1.56,1.56,0,0,0-.18.87v5.54H979a1.87,1.87,0,0,1,1.43.66l.18-.21a1.84,1.84,0,0,1,1.35-.54l49.38.55a10.31,10.31,0,0,1,7.22,2.41c2,1.79,3,4.39,3,7.71Zm-66.93-5,5.47.43v-45.12h0s-5.32,3.68-5.27,9.63S974.59-178,974.53-171.53Z"/><g class="cls-4"><rect class="cls-2" x="-3532.7" y="-2745.89" width="6348.4" height="5052.27"/></g><path class="cls-3" d="M1055.68-165.43h-3.76V-215c-.09-1-1.31-11.31-12-12.13l.29-3.75c11.42.87,15.13,10.62,15.5,15.66v49.83Z"/><g class="cls-5"><rect class="cls-2" x="-3532.7" y="-2745.89" width="6348.4" height="5052.27"/></g><path class="cls-3" d="M976.08-233a1.89,1.89,0,0,1-1.88-1.87l-.12-19.84a1.89,1.89,0,0,1,1.82-1.9l9.65-.3h.09l3.42.06a1.88,1.88,0,0,1,1.85,1.91A1.87,1.87,0,0,1,989-253l-3.37-.06-7.77.25.12,18a1.9,1.9,0,0,1-1.87,1.9Z"/><g class="cls-6"><rect class="cls-2" x="-3532.7" y="-2745.89" width="6348.4" height="5052.27"/></g><path class="cls-3" d="M991.72-240h-.46a5,5,0,0,1-4.15-1.77,4.52,4.52,0,0,1-.8-3.49l.83-9.68c-.07-2.54.62-4.44,2.07-5.65a6.09,6.09,0,0,1,4.69-1.2l41.85-2,.23,0c2.51.5,4.26,1.52,5.19,3a4.37,4.37,0,0,1,.64,3.1c-.11,1.41-.78,9.73-1.45,12.35a5.76,5.76,0,0,1-4.77,4.34h-.18c-1.59,0-37.92.92-43.69.92m1.2-18.09a2.07,2.07,0,0,0-1.31.39,3.63,3.63,0,0,0-.7,2.74v.11L990-244.6a.9.9,0,0,0,.08.49,1.87,1.87,0,0,0,1.24.3c3.65.07,41.35-.85,43.87-.91a2,2,0,0,0,1.53-1.52c.52-2,1.15-9.22,1.35-11.83l0-.31c0-.54-.81-1.27-2.65-1.68l-41.83,2-.23,0a2.33,2.33,0,0,0-.48,0"/><g class="cls-7"><rect class="cls-2" x="-3532.7" y="-2745.89" width="6348.4" height="5052.27"/></g><path class="cls-3" d="M1028.4-254.95a1.24,1.24,0,0,0-.93-.27,1.68,1.68,0,0,0-1,.4,2.13,2.13,0,0,0-.61,1.24l0,.17s1.1,0,2-.06c.51,0,.79-.16.86-.6a1.06,1.06,0,0,0-.2-.88m1.83,1a1.43,1.43,0,0,1-.61,1.08,2.71,2.71,0,0,1-1.42.4,9,9,0,0,1-1.86,0c-.39-.07-.51-.65-.56-.81a3.89,3.89,0,0,0-.08,1.09,1.14,1.14,0,0,0,.5,1,2.16,2.16,0,0,0,1.22.24c.32,0,.66,0,1-.07a8,8,0,0,0,.81-.11h0c.06,0,.14,0,.12.11l-.1.83c0,.06,0,.1-.11.13a6.84,6.84,0,0,1-1.06.25,8.42,8.42,0,0,1-1.08.11,4.66,4.66,0,0,1-1.53-.15,2.12,2.12,0,0,1-1-.59,2.08,2.08,0,0,1-.46-1,4.76,4.76,0,0,1,0-1.37l.05-.41a3.91,3.91,0,0,1,1-2.33,3.62,3.62,0,0,1,2.51-.92,2.53,2.53,0,0,1,2.07.64,2.33,2.33,0,0,1,.47,1.92m-22.44-1.74-4.45.17c-.29,0-.39.21-.43.49s-.08.58-.11.83.09.31.3.3h.38l1.4-.06c.12,0,0,0,0,.06a2.35,2.35,0,0,0-1.28,1.89c0,.21-.34,2.67-.34,2.67a.89.89,0,0,0,0,.15c0,.23.14.28.23.28l.89,0h.09c.35,0,.44-.11.49-.47.06-.51.53-4.27.57-4.56l1.05,0c.48,0,1-.07,1.33.26s.22.71.15,1.26l-.37,3c0,.05,0,.11,0,.15,0,.23.14.29.23.28l.89,0h.08c.35,0,.45-.11.49-.46,0-.13.48-3.77.51-4,.22-1.7-1.4-2.09-2.08-2.07m25.06-.33c0-.24,0-.66-.48-.64l-.81,0a.43.43,0,0,0-.4.35l-.72,5.89c-.06.32,0,.44.21.43l1.17,0a.34.34,0,0,0,.32-.29l.09-.7s.23-1.92.43-3.5a.3.3,0,0,0-.34-.37l-1,0h-.11s0,0,0,0c.51-.09,1.49-.53,1.57-1.19M1012.21-254l-1,0h-.08c.51-.1,1.48-.54,1.56-1.2,0-.24,0-.65-.47-.63l-.81,0a.41.41,0,0,0-.4.35l-.73,5.89c-.05.32.06.44.21.43l1.18,0a.35.35,0,0,0,.31-.29l.1-.7s.23-1.92.43-3.51a.31.31,0,0,0-.35-.36m11.31-2.06a4.93,4.93,0,0,0-.9-.18,9.6,9.6,0,0,0-1.08,0,5,5,0,0,0-1,.15,2.36,2.36,0,0,0-.8.37,1.89,1.89,0,0,0-.56.6,2.24,2.24,0,0,0-.29.86,1.46,1.46,0,0,0,.25,1.11,2.47,2.47,0,0,0,1.05.69l1,.38a1.51,1.51,0,0,1,.46.27.47.47,0,0,1,.14.42.61.61,0,0,1-.31.49,1.53,1.53,0,0,1-.75.17h-1.05c-.38,0-.73,0-1-.06h0a.09.09,0,0,0-.11.09v0l-.12.93a.14.14,0,0,0,.13.18,9.56,9.56,0,0,0,1.11.16,8.42,8.42,0,0,0,1.24,0,3.24,3.24,0,0,0,1.84-.57,2,2,0,0,0,.83-1.43,1.58,1.58,0,0,0-.24-1.14,2.2,2.2,0,0,0-1-.72l-1-.4a2.29,2.29,0,0,1-.45-.23.4.4,0,0,1-.15-.41.56.56,0,0,1,.3-.47,1.74,1.74,0,0,1,.7-.13h.88c.29,0,.58,0,.86.06h.07a.1.1,0,0,0,.09-.09c0-.06,0,0,0,0l.11-.93c0-.12-.07-.16-.14-.18m-5.38,1.35a.12.12,0,0,1-.09.09H1018a8.09,8.09,0,0,0-.86-.07c-.29,0-.59,0-.88,0a1.87,1.87,0,0,0-.69.13.55.55,0,0,0-.31.47.41.41,0,0,0,.15.42,2.35,2.35,0,0,0,.45.22l1,.41a2.14,2.14,0,0,1,1,.72,1.52,1.52,0,0,1,.24,1.14,2,2,0,0,1-.82,1.43,3.3,3.3,0,0,1-1.85.57,12.24,12.24,0,0,1-1.23,0c-.39,0-.77-.1-1.12-.17a.14.14,0,0,1-.13-.17l.12-.93v0a.11.11,0,0,1,.12-.1s0,0,0,0a8.22,8.22,0,0,0,1,.06h1a1.74,1.74,0,0,0,.76-.17.61.61,0,0,0,.3-.49.44.44,0,0,0-.14-.43,1.75,1.75,0,0,0-.46-.26l-.95-.38a2.4,2.4,0,0,1-1.05-.69,1.41,1.41,0,0,1-.25-1.12,2.13,2.13,0,0,1,.28-.86,2,2,0,0,1,.56-.6,2.44,2.44,0,0,1,.8-.36,3.93,3.93,0,0,1,1-.15,7.71,7.71,0,0,1,1.08,0,3.58,3.58,0,0,1,.9.18c.07,0,.16.06.15.18l-.12.92s0,0,0,0"/><g class="cls-8"><rect class="cls-2" x="-3532.7" y="-2745.89" width="6348.4" height="5052.27"/></g><path class="cls-3" d="M1013-246.76c-.37,0-.45.13-.46.25s0,.15.17.15l.24,0Zm-.35.63c-.31,0-.46-.11-.42-.36s.27-.44.8-.5h0a.42.42,0,0,0,0-.19s-.07-.05-.15-.05a.9.9,0,0,0-.46.17l-.05,0,0-.3h0a1.25,1.25,0,0,1,.54-.17c.2,0,.32,0,.37.17a.61.61,0,0,1,0,.31l-.11.83h-.07A3,3,0,0,1,1012.66-246.13Z"/><g class="cls-9"><rect class="cls-2" x="-3532.7" y="-2745.89" width="6348.4" height="5052.27"/></g><path class="cls-3" d="M1013.82-247.72l0-.34h.35l-.05.34Zm-.19,1.53.17-1.33h.33l-.18,1.33Z"/><g class="cls-10"><rect class="cls-2" x="-3532.7" y="-2745.89" width="6348.4" height="5052.27"/></g><path class="cls-3" d="M1014.67-246.19a.76.76,0,0,1-.36-.06h0l0-.32,0,0a.47.47,0,0,0,.32.1c.13,0,.22-.06.23-.15s0-.08-.06-.12l-.17-.08c-.24-.1-.31-.2-.29-.37a.54.54,0,0,1,.57-.42.65.65,0,0,1,.34.06h0l0,.3,0,0a.51.51,0,0,0-.29-.08c-.13,0-.22.06-.23.14s0,.09.19.17.21.09.25.15a.25.25,0,0,1,.08.25.55.55,0,0,1-.59.43"/><g class="cls-11"><rect class="cls-2" x="-3532.7" y="-2745.89" width="6348.4" height="5052.27"/></g><path class="cls-3" d="M1017-247.41a.51.51,0,0,0-.54.46c0,.28.09.42.37.41l.2,0,.11-.83Zm-.09,1.75.09-.66a1.13,1.13,0,0,1-.25,0c-.44,0-.68-.21-.62-.63a.87.87,0,0,1,.94-.74,1.4,1.4,0,0,1,.4,0h0l-.26,2Z"/><g class="cls-12"><rect class="cls-2" x="-3532.7" y="-2745.89" width="6348.4" height="5052.27"/></g><path class="cls-3" d="M1018.31-246.35a.6.6,0,0,1-.44-.1c-.09-.08-.11-.19-.08-.39l.11-.83.32,0-.1.82c0,.21,0,.27.26.27l.23,0,.14-1.08h.33l-.17,1.29h0a3.51,3.51,0,0,1-.57.08"/><g class="cls-13"><rect class="cls-2" x="-3532.7" y="-2745.89" width="6348.4" height="5052.27"/></g><path class="cls-3" d="M1020.31-247.29a.22.22,0,0,0-.26-.23.37.37,0,0,0-.36.25Zm-.38.89c-.44,0-.67-.22-.62-.63a.83.83,0,0,1,.78-.75.48.48,0,0,1,.47.22.56.56,0,0,1,.05.41v.09l-1,0v0c0,.23.12.37.38.36a.91.91,0,0,0,.46-.16l0,0,0,.29h0A1,1,0,0,1,1019.93-246.4Z"/><g class="cls-14"><rect class="cls-2" x="-3532.7" y="-2745.89" width="6348.4" height="5052.27"/></g><path class="cls-3" d="M1021.52-246.49l.14-1h-.22l0-.24h.22v0a.83.83,0,0,1,.26-.57.69.69,0,0,1,.43-.16.65.65,0,0,1,.14,0h0l0,.24h-.14a.29.29,0,0,0-.23.1.59.59,0,0,0-.12.37v0l.35,0,0,.25H1022l-.14,1.05Z"/><g class="cls-15"><rect class="cls-2" x="-3532.7" y="-2745.89" width="6348.4" height="5052.27"/></g><path class="cls-3" d="M1023.18-247.14c-.37,0-.45.12-.47.24s0,.15.18.15l.24,0Zm-.35.62c-.32,0-.46-.1-.43-.35s.28-.45.81-.51h0v0c0-.11,0-.16,0-.19s-.06,0-.14,0a1,1,0,0,0-.46.17l-.06,0,0-.29h0a1.07,1.07,0,0,1,.54-.16c.2,0,.32,0,.37.16a.75.75,0,0,1,0,.31l-.11.83h-.08A2.76,2.76,0,0,1,1022.83-246.52Z"/><g class="cls-16"><rect class="cls-2" x="-3532.7" y="-2745.89" width="6348.4" height="5052.27"/></g><path class="cls-3" d="M1023.8-246.57l.16-1.24h0a1.9,1.9,0,0,1,.56-.13,1,1,0,0,1,.25,0h0l0,.26h0a.49.49,0,0,0-.21,0,.65.65,0,0,0-.26.06l-.14,1Z"/><g class="cls-17"><rect class="cls-2" x="-3532.7" y="-2745.89" width="6348.4" height="5052.27"/></g><path class="cls-3" d="M1026.54-246.68l.11-.83c0-.19,0-.26-.22-.25a.59.59,0,0,0-.25,0,.47.47,0,0,1,0,.2l-.11.85h-.32l.11-.83c0-.2,0-.26-.25-.25a.81.81,0,0,0-.25,0l-.14,1.06h-.32l.16-1.25h0a2.39,2.39,0,0,1,.6-.11.82.82,0,0,1,.37.07,1.53,1.53,0,0,1,.45-.1.48.48,0,0,1,.41.13.38.38,0,0,1,.07.34l-.12.86Z"/><g class="cls-18"><rect class="cls-2" x="-3532.7" y="-2745.89" width="6348.4" height="5052.27"/></g><path class="cls-3" d="M1011.49-246.1l.11-.84c0-.19,0-.26-.22-.25a.74.74,0,0,0-.24.05,1.72,1.72,0,0,1,0,.2l-.11.85-.33,0,.11-.84c0-.19,0-.26-.24-.25a.73.73,0,0,0-.25,0l-.14,1.07h-.33l.17-1.26h0a2.43,2.43,0,0,1,.61-.12.66.66,0,0,1,.36.08,1.29,1.29,0,0,1,.46-.11.53.53,0,0,1,.41.13c.07.08.08.17.06.34l-.11.86Z"/><g class="cls-19"><rect class="cls-2" x="-3532.7" y="-2745.89" width="6348.4" height="5052.27"/></g><path class="cls-3" d="M1027.74-248.2l.56-.59h.3l-.63.6Zm.26.87c-.36.05-.45.13-.46.25s0,.15.17.14l.24,0Zm-.35.63c-.31,0-.46-.11-.42-.36s.27-.44.8-.51h0a.42.42,0,0,0,0-.19s-.07-.06-.15,0a.82.82,0,0,0-.46.17l0,0,0-.3h0a1.36,1.36,0,0,1,.55-.16c.19,0,.31.05.36.17a.51.51,0,0,1,0,.31l-.11.83h-.07A4.48,4.48,0,0,1,1027.65-246.7Z"/><g class="cls-20"><rect class="cls-2" x="-3532.7" y="-2745.89" width="6348.4" height="5052.27"/></g><path class="cls-3" d="M1029.24-246.75c-.44,0-.69-.24-.63-.65a.83.83,0,0,1,.83-.73.7.7,0,0,1,.35.06h0l0,.29,0,0a.47.47,0,0,0-.29-.08.48.48,0,0,0-.49.46.32.32,0,0,0,.37.41.54.54,0,0,0,.34-.12l0,0,0,.29h0a1,1,0,0,1-.41.11"/><g class="cls-21"><rect class="cls-2" x="-3532.7" y="-2745.89" width="6348.4" height="5052.27"/></g><path class="cls-3" d="M1030.11-248.34l.05-.34h.34l0,.34Zm-.19,1.53.18-1.33h.32l-.17,1.33Z"/><g class="cls-22"><rect class="cls-2" x="-3532.7" y="-2745.89" width="6348.4" height="5052.27"/></g><path class="cls-3" d="M1031.39-247.45c-.37,0-.45.12-.47.24s0,.15.18.14l.24,0Zm-.35.62c-.32,0-.46-.11-.43-.36s.28-.44.81-.51h0c0-.12,0-.16,0-.19s-.06-.06-.14,0a.87.87,0,0,0-.46.17l-.06,0,0-.3h0a1.21,1.21,0,0,1,.54-.17c.2,0,.32.05.37.17a.75.75,0,0,1,0,.31l-.11.83h-.08A2.76,2.76,0,0,1,1031-246.83Z"/><g class="cls-23"><rect class="cls-2" x="-3532.7" y="-2745.89" width="6348.4" height="5052.27"/></g><path class="cls-3" d="M999.82-251.73l-.55,3.1a4.35,4.35,0,0,0,2.8-3.19Z"/><g class="cls-24"><rect class="cls-2" x="-3532.7" y="-2745.89" width="6348.4" height="5052.27"/></g><path class="cls-3" d="M1000.2-253.74l1.67-.06a4.11,4.11,0,0,0-1.35-1.75Z"/><g class="cls-25"><rect class="cls-2" x="-3532.7" y="-2745.89" width="6348.4" height="5052.27"/></g><path class="cls-3" d="M997.44-250c.13-.51.3-1.36,1.88-1.7.13,0,.12-.06,0-.06l-5.1.2c0-.27.19-1.1.25-1.42.1-.5.36-.6.83-.62l2.78-.1.51-2.77a5.24,5.24,0,0,0-1.49-.15c-2.68.1-4.78,2-4.69,4.35s2.14,3.94,4.67,4Z"/><g class="cls-26"><rect class="cls-2" x="-3532.7" y="-2745.89" width="6348.4" height="5052.27"/></g><polygon class="cls-3" points="1013.44 -166.47 982.9 -168.88 983.2 -172.63 1009.67 -170.55 1009.58 -217.68 1013.35 -217.69 1013.44 -166.47"/><g class="cls-27"><rect class="cls-2" x="-3532.7" y="-2745.89" width="6348.4" height="5052.27"/></g><rect class="cls-2" x="1023.59" y="-181.42" width="3.76" height="27.92" transform="translate(1115.09 867.73) rotate(-85.67)"/><g class="cls-28"><rect class="cls-2" x="-3532.7" y="-2745.89" width="6348.4" height="5052.27"/></g><path class="cls-3" d="M1017.11-183.14a1.89,1.89,0,0,1-1.62-.92,1.88,1.88,0,0,1,.66-2.58l1-.62v-1.89l-1.52-1.27a1.88,1.88,0,0,1-.24-2.65,1.89,1.89,0,0,1,2.65-.24l2.19,1.83a1.89,1.89,0,0,1,.68,1.45v3.84a1.88,1.88,0,0,1-.92,1.62l-1.95,1.16a1.89,1.89,0,0,1-1,.27"/><g class="cls-29"><rect class="cls-2" x="-3532.7" y="-2745.89" width="6348.4" height="5052.27"/></g><path class="cls-3" d="M1005.37-183.68a1.92,1.92,0,0,1-1-.27l-1.95-1.16a1.86,1.86,0,0,1-.92-1.61v-3.85a1.89,1.89,0,0,1,.68-1.45l2.19-1.83a1.89,1.89,0,0,1,2.65.24,1.88,1.88,0,0,1-.24,2.65l-1.52,1.27v1.9l1,.61a1.88,1.88,0,0,1,.66,2.58,1.87,1.87,0,0,1-1.62.92"/><g class="cls-30"><rect class="cls-2" x="-3532.7" y="-2745.89" width="6348.4" height="5052.27"/></g><path class="cls-2" d="M696.44,207H612.92l35.55-33.82a3.3,3.3,0,0,0,0-4.94,3.72,3.72,0,0,0-5.18,0l-42,39.82a3.29,3.29,0,0,0,0,4.93l41.85,39.81a3.71,3.71,0,0,0,5.19,0,3.29,3.29,0,0,0,0-4.93L612.92,214h83.52a3.52,3.52,0,1,0,0-7Z"/><g class="cls-31"><rect class="cls-2" x="-99.86" y="-2526.15" width="9600" height="25640"/></g><path class="cls-2" d="M455.84,207h83.52l-35.55-33.82a3.29,3.29,0,0,1,0-4.94,3.72,3.72,0,0,1,5.18,0l42,39.82a3.29,3.29,0,0,1,0,4.93l-41.85,39.81a3.71,3.71,0,0,1-5.19,0,3.29,3.29,0,0,1,0-4.93L539.36,214H455.84a3.52,3.52,0,1,1,0-7Z"/><g class="cls-32"><rect class="cls-2" x="-8347.86" y="-2526.15" width="9600" height="25640"/></g></svg>