<svg id="Layer_1" data-name="Layer 1" xmlns="http://www.w3.org/2000/svg" xmlns:xlink="http://www.w3.org/1999/xlink" viewBox="0 0 128 128"><defs><style>.cls-1{fill:#8a9297;}.cls-2{clip-path:url(#clip-path);}.cls-3{clip-path:url(#clip-path-2);}.cls-4{fill:url(#linear-gradient);}.cls-5{fill:url(#linear-gradient-2);}.cls-6{fill:url(#linear-gradient-3);}.cls-7{fill:url(#linear-gradient-4);}.cls-8{fill:url(#linear-gradient-5);}.cls-9{fill:url(#linear-gradient-6);}.cls-10{fill:url(#linear-gradient-7);}.cls-11{fill:url(#linear-gradient-8);}.cls-12{fill:url(#linear-gradient-9);}.cls-13{fill:url(#linear-gradient-10);}.cls-14{fill:url(#linear-gradient-11);}.cls-15{fill:url(#linear-gradient-12);}</style><clipPath id="clip-path"><path class="cls-1" d="M554.3-1421.19H470.78L506.33-1455a3.29,3.29,0,0,0,0-4.93,3.7,3.7,0,0,0-5.18,0l-42,39.81a3.29,3.29,0,0,0,0,4.93L501-1375.4a3.71,3.71,0,0,0,5.19,0,3.29,3.29,0,0,0,0-4.93l-35.37-33.82H554.3a3.62,3.62,0,0,0,3.7-3.52A3.62,3.62,0,0,0,554.3-1421.19Z"/></clipPath><clipPath id="clip-path-2"><path class="cls-1" d="M313.7-1421.19h83.52L361.67-1455a3.29,3.29,0,0,1,0-4.93,3.7,3.7,0,0,1,5.18,0l42,39.81a3.29,3.29,0,0,1,0,4.93L367-1375.4a3.71,3.71,0,0,1-5.19,0,3.29,3.29,0,0,1,0-4.93l35.37-33.82H313.7a3.62,3.62,0,0,1-3.7-3.52A3.62,3.62,0,0,1,313.7-1421.19Z"/></clipPath><linearGradient id="linear-gradient" x1="23.44" y1="79.77" x2="23.44" y2="47.32" gradientUnits="userSpaceOnUse"><stop offset="0" stop-color="#083050"/><stop offset="1" stop-color="#3d85c6"/></linearGradient><linearGradient id="linear-gradient-2" x1="122.88" y1="61.98" x2="122.88" y2="51.3" xlink:href="#linear-gradient"/><linearGradient id="linear-gradient-3" x1="101.96" y1="61.97" x2="101.96" y2="51.35" xlink:href="#linear-gradient"/><linearGradient id="linear-gradient-4" x1="91.83" y1="61.98" x2="91.83" y2="51.38" xlink:href="#linear-gradient"/><linearGradient id="linear-gradient-5" x1="83.63" y1="61.76" x2="83.63" y2="51.38" xlink:href="#linear-gradient"/><linearGradient id="linear-gradient-6" x1="74.53" y1="62.01" x2="74.53" y2="51.38" xlink:href="#linear-gradient"/><linearGradient id="linear-gradient-7" x1="61.29" y1="61.76" x2="61.29" y2="51.34" xlink:href="#linear-gradient"/><linearGradient id="linear-gradient-8" x1="112.09" y1="61.97" x2="112.09" y2="48.2" xlink:href="#linear-gradient"/><linearGradient id="linear-gradient-9" x1="58.94" y1="79.8" x2="58.94" y2="66.01" xlink:href="#linear-gradient"/><linearGradient id="linear-gradient-10" x1="79.12" y1="80.68" x2="79.12" y2="65.97" xlink:href="#linear-gradient"/><linearGradient id="linear-gradient-11" x1="68.95" y1="76.67" x2="68.95" y2="66.05" xlink:href="#linear-gradient"/><linearGradient id="linear-gradient-12" x1="90.01" y1="76.62" x2="90.01" y2="65.94" xlink:href="#linear-gradient"/></defs><title>icon</title><path class="cls-1" d="M554.3-1421.19H470.78L506.33-1455a3.29,3.29,0,0,0,0-4.93,3.7,3.7,0,0,0-5.18,0l-42,39.81a3.29,3.29,0,0,0,0,4.93L501-1375.4a3.71,3.71,0,0,0,5.19,0,3.29,3.29,0,0,0,0-4.93l-35.37-33.82H554.3a3.62,3.62,0,0,0,3.7-3.52A3.62,3.62,0,0,0,554.3-1421.19Z"/><g class="cls-2"><rect class="cls-1" x="-242" y="-4154.34" width="9600" height="25640"/></g><path class="cls-1" d="M313.7-1421.19h83.52L361.67-1455a3.29,3.29,0,0,1,0-4.93,3.7,3.7,0,0,1,5.18,0l42,39.81a3.29,3.29,0,0,1,0,4.93L367-1375.4a3.71,3.71,0,0,1-5.19,0,3.29,3.29,0,0,1,0-4.93l35.37-33.82H313.7a3.62,3.62,0,0,1-3.7-3.52A3.62,3.62,0,0,1,313.7-1421.19Z"/><g class="cls-3"><rect class="cls-1" x="-8490" y="-4154.34" width="9600" height="25640"/></g><path class="cls-4" d="M23.44,47.32C10.49,47.32,0,54.21,0,62.65v.9c0,9,9.17,16.22,23.43,16.22s23.44-7.26,23.44-16.22v-.9C46.87,54.21,36.38,47.32,23.44,47.32ZM21.71,72.54a2,2,0,0,1-2-1.89c0-.19,0-.21-.19-.09a1.39,1.39,0,0,1-1.64.31,1.46,1.46,0,0,1-1.1-1.59c0-.11,0-.15-.13-.06a1.54,1.54,0,0,1-1.51.23,2.06,2.06,0,0,1-1.3-2.37.06.06,0,0,0,0-.06,1.55,1.55,0,0,1-1.08.44,1.57,1.57,0,1,1,1.55-1.77,2.17,2.17,0,0,1,2.45-.87,1.57,1.57,0,0,1,1.11,1.47c0,.08,0,.08.09,0a1.69,1.69,0,0,1,2-.3c1.44.62.85,2.39.81,2.49s-.11.28-.07.31a5.91,5.91,0,0,1,1-.22,2,2,0,0,1,0,4Zm13.82-5.42a1.74,1.74,0,0,1-2,0s-2.49-2.28-3.41-3c-.13-.11-.32-.27-.41-.16s.2.4.2.4l2.88,2.89a1.55,1.55,0,0,1,.45.88,1.5,1.5,0,0,1-.75,1.33,1.73,1.73,0,0,1-2,.07c-.91-.89-1.85-1.84-2.52-2.39-.13-.11-.33-.26-.42-.17s.2.4.2.4l2.11,2.37a1,1,0,0,1,.05,1.19l0,0a2.42,2.42,0,0,1-.32.32,1.91,1.91,0,0,1-1.43.34c-.41-.08-.49-.22-.51-.24s-1.12-1.16-2-1.93c-.13-.1-.31-.26-.42-.15s.2.39.2.39l1.81,2c.06.08,0,.19-.07.28a1.42,1.42,0,0,1-1,.45,4.13,4.13,0,0,1-2.2-.59,2.57,2.57,0,0,0,.3-1.2A2.54,2.54,0,0,0,21.71,68h-.26A2.26,2.26,0,0,0,20.2,65.5a2.63,2.63,0,0,0-1.07-.24,2.13,2.13,0,0,0-.89.19A2.09,2.09,0,0,0,17,64.29a2.74,2.74,0,0,0-.92-.16,2.39,2.39,0,0,0-1.52.53,2.17,2.17,0,0,0-1.74-.91,2.12,2.12,0,0,0-1.59.72c-.36-.31-2.36-1.78-8.77-3.2-.27-.06-.93-.26-1.33-.37a12.71,12.71,0,0,1,5.27-7.64,32.86,32.86,0,0,0,5.75,2.08,19.76,19.76,0,0,0,2.16.33,8.13,8.13,0,0,0,2.12-.39,12.59,12.59,0,0,1,1.81-.41l-.7.69-2,2.15a.88.88,0,0,0-.23.95,1.12,1.12,0,0,0,.47.51,4.13,4.13,0,0,0,2.84.43A7.48,7.48,0,0,0,21.14,58a8.69,8.69,0,0,1,2.64-1.56,2.83,2.83,0,0,1,1-.1,4,4,0,0,1,2,1c1.63,1.23,8.85,7.55,8.92,7.61a1.55,1.55,0,0,1,.49,1.18A1.31,1.31,0,0,1,35.53,67.12Zm.41-2.8c-1.07-.93-7.27-6.34-8.81-7.5a6.12,6.12,0,0,0-1.77-1,3.06,3.06,0,0,0-1.94.06,9.52,9.52,0,0,0-2.66,1.69A7.41,7.41,0,0,1,18.43,59a2.81,2.81,0,0,1-2.56-.47c-.15-.18.08-.42.09-.44l2-2.12c1.56-1.55,3-3,6.41-3.1a11.83,11.83,0,0,1,4.61,1c4.27,2.09,8.64,1.3,12.21-.2a12.28,12.28,0,0,1,4.7,7.41A53.32,53.32,0,0,0,35.94,64.32Z"/><path class="cls-5" d="M126.73,52.89a5.46,5.46,0,0,0-7.7,0,6.22,6.22,0,0,0,0,7.53,5.53,5.53,0,0,0,7.7,0,6.22,6.22,0,0,0,0-7.53ZM124.64,59a2.32,2.32,0,0,1-3.54,0,3.82,3.82,0,0,1-.62-2.33,3.76,3.76,0,0,1,.62-2.31,2.32,2.32,0,0,1,3.54,0,3.83,3.83,0,0,1,.61,2.31A3.89,3.89,0,0,1,124.64,59Z"/><path class="cls-6" d="M105.11,52a6.46,6.46,0,0,0-2.94-.65,4.35,4.35,0,0,0-3.6,1.32,3.89,3.89,0,0,0-.74,2.17h2.54a1.94,1.94,0,0,1,.37-.92,1.68,1.68,0,0,1,1.34-.46,2.72,2.72,0,0,1,1.28.24.87.87,0,0,1,.43.85.78.78,0,0,1-.57.74,4.09,4.09,0,0,1-1,.24l-.9.1a6.63,6.63,0,0,0-2.32.65A2.87,2.87,0,0,0,97.51,59a2.75,2.75,0,0,0,.9,2.2,3.51,3.51,0,0,0,2.26.78c5.74.26,5.68-3,5.73-3.7V54.47A2.51,2.51,0,0,0,105.11,52Zm-1.33,5.73a2.12,2.12,0,0,1-.75,1.82,2.8,2.8,0,0,1-1.59.5,1.49,1.49,0,0,1-.92-.3,1.17,1.17,0,0,1-.38-1,1.2,1.2,0,0,1,.62-1.11A3.81,3.81,0,0,1,102,57.3l.6-.11a4.22,4.22,0,0,0,.7-.19,2.4,2.4,0,0,0,.51-.25Z"/><path class="cls-7" d="M92,53.6a1.73,1.73,0,0,1,1.45.6,2.41,2.41,0,0,1,.4,1h2.83a3.87,3.87,0,0,0-1.5-3A5.72,5.72,0,0,0,92,51.38a4.75,4.75,0,0,0-3.67,1.44,5.69,5.69,0,0,0-1.33,4,5.57,5.57,0,0,0,1.21,3.72A4.63,4.63,0,0,0,91.91,62a4.49,4.49,0,0,0,3.85-1.72A4.23,4.23,0,0,0,96.68,58H93.85a2.34,2.34,0,0,1-.49,1.29,1.69,1.69,0,0,1-1.38.49,1.82,1.82,0,0,1-1.86-1.25,4.55,4.55,0,0,1-.28-1.77,5,5,0,0,1,.28-1.85A1.89,1.89,0,0,1,92,53.6Z"/><path class="cls-8" d="M86.1,54.05l.45,0V51.4l-.23,0H86.2c-5.82,0-5.48,5.15-5.48,5.15v5.23h2.64V56.85a4.08,4.08,0,0,1,.31-1.79,2.18,2.18,0,0,1,2.12-1Z"/><path class="cls-9" d="M74.62,62a4.9,4.9,0,0,0,3.77-1.46A3.61,3.61,0,0,0,79.3,59H76.5a1.76,1.76,0,0,1-.36.4,2.23,2.23,0,0,1-1.47.4,2.52,2.52,0,0,1-1.41-.33,2.41,2.41,0,0,1-1.07-2.1H79.5a14.71,14.71,0,0,0-.09-2,5,5,0,0,0-.8-2.07,4.16,4.16,0,0,0-1.73-1.48,5.62,5.62,0,0,0-2.36-.47,4.81,4.81,0,0,0-3.58,1.39,5.42,5.42,0,0,0-1.39,4,4.88,4.88,0,0,0,1.53,4A5.44,5.44,0,0,0,74.62,62ZM73,54.11a2.08,2.08,0,0,1,1.56-.57,2.31,2.31,0,0,1,1.56.54,2.18,2.18,0,0,1,.69,1.58H72.26A2.69,2.69,0,0,1,73,54.11Z"/><path class="cls-10" d="M66.09,55.69v6.07h2.4v-6c0-2.58-1.55-4.4-4.18-4.4a3.84,3.84,0,0,0-3,1.4,3.72,3.72,0,0,0-3-1.4,4.14,4.14,0,0,0-4.24,4.4v6h2.41V55.69a1.77,1.77,0,0,1,1.83-1.88,1.68,1.68,0,0,1,1.75,1.88v6.07h2.41V55.69a1.78,1.78,0,0,1,1.83-1.88A1.7,1.7,0,0,1,66.09,55.69Z"/><path class="cls-11" d="M114.32,50.06v2.83a3.14,3.14,0,0,0-1.15-1.11,3.18,3.18,0,0,0-1.61-.4,3.85,3.85,0,0,0-3.16,1.47A6.48,6.48,0,0,0,107.21,57a5.43,5.43,0,0,0,1.2,3.64A5.06,5.06,0,0,0,112.17,62C117,62,117,57.8,117,57.8V48.21S114.32,47.93,114.32,50.06ZM113.81,59a1.94,1.94,0,0,1-1.69.83,1.85,1.85,0,0,1-1.66-.83,4.22,4.22,0,0,1-.55-2.29,4,4,0,0,1,.54-2.16,1.84,1.84,0,0,1,1.68-.87,2,2,0,0,1,1.33.48,3.43,3.43,0,0,1,.93,2.7A3.7,3.7,0,0,1,113.81,59Z"/><path class="cls-12" d="M59.65,66a5.68,5.68,0,0,0-4,1,4.23,4.23,0,0,0-1.59,3.65V79.8h1.27a1.34,1.34,0,0,0,.94-.35,1.25,1.25,0,0,0,.42-1V75.08A3,3,0,0,0,58,76.26a3.91,3.91,0,0,0,1.7.35,3.67,3.67,0,0,0,3-1.46,6.2,6.2,0,0,0,1.16-3.9,5.71,5.71,0,0,0-1.24-3.83A4,4,0,0,0,59.65,66Zm.9,7.52a1.86,1.86,0,0,1-1.59.81,1.91,1.91,0,0,1-1.66-.81,3.4,3.4,0,0,1-.59-2.18,3.78,3.78,0,0,1,.55-2.29,1.88,1.88,0,0,1,1.62-.81,1.93,1.93,0,0,1,1.67.81,3.83,3.83,0,0,1,.59,2.29A3.6,3.6,0,0,1,60.55,73.54Z"/><path class="cls-13" d="M82.32,67a4.84,4.84,0,0,0-3.39-1,4.2,4.2,0,0,0-3.49,1.47,6.38,6.38,0,0,0-1.08,3.85,5.83,5.83,0,0,0,.82,3.27,4.32,4.32,0,0,0,2,1.7,3.75,3.75,0,0,0,2.31.19,2.88,2.88,0,0,0,1.84-1.34v.65a3.07,3.07,0,0,1-.59,1.84,2.16,2.16,0,0,1-1.14.75,2.06,2.06,0,0,1-1.26-.16,2,2,0,0,1-.93-.82H74.59a4.34,4.34,0,0,0,4.34,3.29A4.5,4.5,0,0,0,83.88,76V70.64A4.24,4.24,0,0,0,82.32,67Zm-1.1,5.29a2.82,2.82,0,0,1-.5,1.32,2.08,2.08,0,0,1-2.25.71c-1-.19-1.52-1.17-1.52-2.93a5,5,0,0,1,.46-2.18,1.76,1.76,0,0,1,1.75-1,1.68,1.68,0,0,1,1.45.69,3.57,3.57,0,0,1,.63,1.57A5.54,5.54,0,0,1,81.22,72.26Z"/><path class="cls-14" d="M72.1,66.7a6.46,6.46,0,0,0-2.94-.65,4.35,4.35,0,0,0-3.6,1.32,4,4,0,0,0-.74,2.17h2.54a1.9,1.9,0,0,1,.37-.92,1.68,1.68,0,0,1,1.34-.46,2.74,2.74,0,0,1,1.28.23.89.89,0,0,1,.43.86.79.79,0,0,1-.56.74,4,4,0,0,1-1.06.23l-.9.11a6.48,6.48,0,0,0-2.32.65,2.86,2.86,0,0,0-1.44,2.68,2.76,2.76,0,0,0,.9,2.21,3.52,3.52,0,0,0,2.27.78c5.73.26,5.67-3,5.72-3.7V69.17A2.51,2.51,0,0,0,72.1,66.7Zm-1.33,5.73A2.14,2.14,0,0,1,70,74.25a2.75,2.75,0,0,1-1.59.5,1.44,1.44,0,0,1-.92-.31,1.17,1.17,0,0,1-.38-1,1.22,1.22,0,0,1,.62-1.12A3.86,3.86,0,0,1,69,72l.6-.12a3.32,3.32,0,0,0,.7-.18,2.19,2.19,0,0,0,.51-.25Z"/><path class="cls-15" d="M90,65.94a4.62,4.62,0,0,0-3.85,1.59,6.22,6.22,0,0,0,0,7.53,5.53,5.53,0,0,0,7.7,0,6.22,6.22,0,0,0,0-7.53A4.62,4.62,0,0,0,90,65.94Zm1.76,7.67a2.1,2.1,0,0,1-1.77.82,2.12,2.12,0,0,1-1.77-.82,3.81,3.81,0,0,1-.62-2.32A3.77,3.77,0,0,1,88.23,69,2.11,2.11,0,0,1,90,68.16a2.09,2.09,0,0,1,1.77.81,3.77,3.77,0,0,1,.61,2.32A3.81,3.81,0,0,1,91.77,73.61Z"/></svg>