<svg id="Layer_1" data-name="Layer 1" xmlns="http://www.w3.org/2000/svg" viewBox="0 0 128 128"><defs><style>.cls-1{opacity:0.4;}.cls-2{fill:#fff;}</style></defs><title>icon</title><circle class="cls-1" cx="64" cy="64" r="64"/><path class="cls-2" d="M37.87,92.93a24,24,0,0,1-2.42-.43A8.79,8.79,0,0,1,29,84.06q0-15.21,0-30.42a8.84,8.84,0,0,1,9-8.92q3.38,0,6.75,0a.89.89,0,0,0,1-.58c1.11-2.28,2.23-4.56,3.38-6.82a7.17,7.17,0,0,1,6.79-4.25c5.35,0,10.7,0,16,0a7.09,7.09,0,0,1,6.43,3.77,2.73,2.73,0,1,1-4.73,2.7,2,2,0,0,0-1.85-1.05H55.84a2.13,2.13,0,0,0-2,1.32c-1.11,2.25-2.25,4.49-3.35,6.76a5.88,5.88,0,0,1-5.78,3.59c-2.16,0-4.31,0-6.46,0-2.43,0-3.79,1.36-3.79,3.77q0,14.89,0,29.77a3.41,3.41,0,0,0,3.71,3.7H89.72a3.44,3.44,0,0,0,3.76-3.73V53.84a3.41,3.41,0,0,0-3.67-3.67H75.22A4.87,4.87,0,0,1,73.79,50a2.71,2.71,0,0,1,.81-5.27c1.79,0,3.58,0,5.37,0H90a8.86,8.86,0,0,1,8.9,8.15c0,.24.07.47.11.71V84.07c0,.24-.1.47-.12.7a8.77,8.77,0,0,1-6.47,7.75c-.74.2-1.51.28-2.27.41Z"/><path class="cls-2" d="M48.23,66.41a15.74,15.74,0,1,1,14.91,16.2A15.77,15.77,0,0,1,48.23,66.41ZM64,56.64A10.3,10.3,0,1,0,74.27,67,10.31,10.31,0,0,0,64,56.64Z"/><path class="cls-2" d="M89.87,56.58a3.15,3.15,0,1,1-3.13-3.19A3.11,3.11,0,0,1,89.87,56.58Z"/></svg>