<svg id="Layer_1" data-name="Layer 1" xmlns="http://www.w3.org/2000/svg" xmlns:xlink="http://www.w3.org/1999/xlink" viewBox="0 0 128 128"><defs><style>.cls-1{fill:#8a9297;}.cls-2{clip-path:url(#clip-path);}.cls-3{clip-path:url(#clip-path-2);}.cls-4{fill:url(#linear-gradient);}.cls-5{fill:url(#linear-gradient-2);}.cls-6{fill:url(#linear-gradient-3);}.cls-7{fill:url(#linear-gradient-4);}</style><clipPath id="clip-path"><path class="cls-1" d="M406.3-1271.61H322.78l35.55-33.82a3.3,3.3,0,0,0,0-4.94,3.7,3.7,0,0,0-5.18,0l-42,39.81a3.3,3.3,0,0,0,0,4.94L353-1225.81a3.71,3.71,0,0,0,5.19,0,3.3,3.3,0,0,0,0-4.94l-35.37-33.82H406.3a3.62,3.62,0,0,0,3.7-3.52A3.62,3.62,0,0,0,406.3-1271.61Z"/></clipPath><clipPath id="clip-path-2"><path class="cls-1" d="M165.7-1271.61h83.52l-35.55-33.82a3.3,3.3,0,0,1,0-4.94,3.7,3.7,0,0,1,5.18,0l42,39.81a3.3,3.3,0,0,1,0,4.94L219-1225.81a3.71,3.71,0,0,1-5.19,0,3.3,3.3,0,0,1,0-4.94l35.37-33.82H165.7a3.62,3.62,0,0,1-3.7-3.52A3.62,3.62,0,0,1,165.7-1271.61Z"/></clipPath><linearGradient id="linear-gradient" x1="64" y1="128" x2="64" gradientUnits="userSpaceOnUse"><stop offset="0" stop-color="#083050"/><stop offset="1" stop-color="#3d85c6"/></linearGradient><linearGradient id="linear-gradient-2" x1="64.01" y1="28.17" x2="64.01" y2="18.42" xlink:href="#linear-gradient"/><linearGradient id="linear-gradient-3" x1="64.01" y1="64.91" x2="64.01" y2="55.16" xlink:href="#linear-gradient"/><linearGradient id="linear-gradient-4" x1="64.01" y1="101.51" x2="64.01" y2="91.76" xlink:href="#linear-gradient"/></defs><title>icon</title><path class="cls-1" d="M406.3-1271.61H322.78l35.55-33.82a3.3,3.3,0,0,0,0-4.94,3.7,3.7,0,0,0-5.18,0l-42,39.81a3.3,3.3,0,0,0,0,4.94L353-1225.81a3.71,3.71,0,0,0,5.19,0,3.3,3.3,0,0,0,0-4.94l-35.37-33.82H406.3a3.62,3.62,0,0,0,3.7-3.52A3.62,3.62,0,0,0,406.3-1271.61Z"/><g class="cls-2"><rect class="cls-1" x="-390" y="-4004.76" width="9600" height="25640"/></g><path class="cls-1" d="M165.7-1271.61h83.52l-35.55-33.82a3.3,3.3,0,0,1,0-4.94,3.7,3.7,0,0,1,5.18,0l42,39.81a3.3,3.3,0,0,1,0,4.94L219-1225.81a3.71,3.71,0,0,1-5.19,0,3.3,3.3,0,0,1,0-4.94l35.37-33.82H165.7a3.62,3.62,0,0,1-3.7-3.52A3.62,3.62,0,0,1,165.7-1271.61Z"/><g class="cls-3"><rect class="cls-1" x="-8638" y="-4004.76" width="9600" height="25640"/></g><path class="cls-4" d="M117.1,0H10.9a2.85,2.85,0,1,0,0,5.7h6.77V110.31a7.91,7.91,0,0,0,7.9,7.89h.24v2.41A7.4,7.4,0,0,0,33.2,128h5.17a7.38,7.38,0,0,0,7.38-7.39V118.2h37v2.41A7.4,7.4,0,0,0,90.18,128h5.17a7.38,7.38,0,0,0,7.38-7.39v-2.42a7.92,7.92,0,0,0,7.61-7.86V5.7h6.76a2.85,2.85,0,1,0,0-5.7ZM102.64,72.48H25.37V42.24h77.27ZM25.37,110.32V77.76h77.27v32.56a.2.2,0,0,1-.19.2H25.57A.21.21,0,0,1,25.37,110.32Zm14.7,10.29a1.69,1.69,0,0,1-1.68,1.69H33.22a1.7,1.7,0,0,1-1.7-1.69V118.2h8.55Zm55.3,1.69H90.2a1.7,1.7,0,0,1-1.7-1.69V118.2h8.55v2.41A1.69,1.69,0,0,1,95.37,122.3ZM102.64,37H25.37V5.7h77.27Z"/><path class="cls-5" d="M64,28.17a9.76,9.76,0,0,0,9.75-9.75H69.38a5.37,5.37,0,1,1-10.74,0H54.26A9.76,9.76,0,0,0,64,28.17Z"/><path class="cls-6" d="M64,64.91a9.76,9.76,0,0,0,9.75-9.75H69.38a5.37,5.37,0,1,1-10.74,0H54.26A9.76,9.76,0,0,0,64,64.91Z"/><path class="cls-7" d="M64,97.13a5.38,5.38,0,0,1-5.37-5.37H54.26a9.75,9.75,0,1,0,19.5,0H69.38A5.38,5.38,0,0,1,64,97.13Z"/></svg>