<svg id="Layer_1" data-name="Layer 1" xmlns="http://www.w3.org/2000/svg" xmlns:xlink="http://www.w3.org/1999/xlink" viewBox="0 0 128 128"><defs><style>.cls-1{fill:#8a9297;}.cls-2{clip-path:url(#clip-path);}.cls-3{clip-path:url(#clip-path-2);}.cls-4{fill:url(#linear-gradient);}.cls-5{fill:url(#linear-gradient-2);}.cls-6{fill:url(#linear-gradient-3);}</style><clipPath id="clip-path"><path class="cls-1" d="M406.3-1421.19H322.78L358.33-1455a3.29,3.29,0,0,0,0-4.93,3.7,3.7,0,0,0-5.18,0l-42,39.81a3.29,3.29,0,0,0,0,4.93L353-1375.4a3.71,3.71,0,0,0,5.19,0,3.29,3.29,0,0,0,0-4.93l-35.37-33.82H406.3a3.62,3.62,0,0,0,3.7-3.52A3.62,3.62,0,0,0,406.3-1421.19Z"/></clipPath><clipPath id="clip-path-2"><path class="cls-1" d="M165.7-1421.19h83.52L213.67-1455a3.29,3.29,0,0,1,0-4.93,3.7,3.7,0,0,1,5.18,0l42,39.81a3.29,3.29,0,0,1,0,4.93L219-1375.4a3.71,3.71,0,0,1-5.19,0,3.29,3.29,0,0,1,0-4.93l35.37-33.82H165.7a3.62,3.62,0,0,1-3.7-3.52A3.62,3.62,0,0,1,165.7-1421.19Z"/></clipPath><linearGradient id="linear-gradient" x1="96.88" y1="73.99" x2="96.88" y2="62.59" gradientUnits="userSpaceOnUse"><stop offset="0" stop-color="#083050"/><stop offset="1" stop-color="#3d85c6"/></linearGradient><linearGradient id="linear-gradient-2" x1="64" y1="114.81" x2="64" y2="13.19" xlink:href="#linear-gradient"/><linearGradient id="linear-gradient-3" x1="46.23" y1="89.82" x2="46.23" y2="49.77" xlink:href="#linear-gradient"/></defs><title>icon</title><path class="cls-1" d="M406.3-1421.19H322.78L358.33-1455a3.29,3.29,0,0,0,0-4.93,3.7,3.7,0,0,0-5.18,0l-42,39.81a3.29,3.29,0,0,0,0,4.93L353-1375.4a3.71,3.71,0,0,0,5.19,0,3.29,3.29,0,0,0,0-4.93l-35.37-33.82H406.3a3.62,3.62,0,0,0,3.7-3.52A3.62,3.62,0,0,0,406.3-1421.19Z"/><g class="cls-2"><rect class="cls-1" x="-390" y="-4154.34" width="9600" height="25640"/></g><path class="cls-1" d="M165.7-1421.19h83.52L213.67-1455a3.29,3.29,0,0,1,0-4.93,3.7,3.7,0,0,1,5.18,0l42,39.81a3.29,3.29,0,0,1,0,4.93L219-1375.4a3.71,3.71,0,0,1-5.19,0,3.29,3.29,0,0,1,0-4.93l35.37-33.82H165.7a3.62,3.62,0,0,1-3.7-3.52A3.62,3.62,0,0,1,165.7-1421.19Z"/><g class="cls-3"><rect class="cls-1" x="-8638" y="-4154.34" width="9600" height="25640"/></g><path class="cls-4" d="M96.9,62.59a5.67,5.67,0,0,0-5.72,5.62,5.7,5.7,0,1,0,5.72-5.62Z"/><path class="cls-5" d="M125.43,54.67a10.86,10.86,0,0,0-7.17-9.9l-.37-.13V41.75c0-3.46,0-6.9,0-10.33V29.15A15.91,15.91,0,0,0,102,13.26c-.86,0-86.53.05-90.76-.06A8.33,8.33,0,0,0,5,15.42,8.79,8.79,0,0,0,2.5,21.83c.08,29.85.08,56.4,0,81.17a11.78,11.78,0,0,0,3.4,8.54,11.62,11.62,0,0,0,8.25,3.27h.19c8.56-.13,17.27-.1,25.69-.08l10.62,0H65q14.4,0,28.79,0c6.55,0,11.45-3,14.57-9a2,2,0,0,1,.74-.62c5.65-3,8.59-7.74,8.74-14,.05-2.49.05-5.05,0-7.61,0-.21,0-.3,0-.3a1.37,1.37,0,0,1,.32-.19c4.6-2.27,7.1-6,7.22-10.89C125.56,66.2,125.5,60.25,125.43,54.67ZM110.8,84.45l-.06,1.68c-.08,2.49-.17,5.07-.45,7.55a3.75,3.75,0,0,1-.35,1.2V84.45Zm-.12-52.68a2.09,2.09,0,0,0,0,.25V52.09h-.81V48.43c0-3.29,0-6.68,0-10a19,19,0,0,0-1.68-8.87,1.32,1.32,0,0,0-.16-.25l-.47-.63a30.59,30.59,0,0,0-2.67-3.2,17.3,17.3,0,0,0-6.24-3.58c-2-.59-26.55-.8-82.15-.69H10.74c-.88,0-1,0-1-.49a.19.19,0,0,1,.06-.16.44.44,0,0,1,.35-.14h0c6.37,0,91,0,91.83,0a8.71,8.71,0,0,1,8.7,8.7Zm-80-3.36q31.7,0,63.24,0c5,0,8.63,3.42,8.76,8.31.1,3.81.08,7.69,0,11.44,0,1.33,0,2.65,0,4-2.22,0-6.35.11-7.8.29a16,16,0,0,0,1,31.85c1.15.07,4.68.14,6.81.17v4.35q0,4.77,0,9.54c0,5.79-3.46,9.25-9.21,9.25H14.27c-3.19,0-4.55-1.35-4.55-4.49V28.41Zm60,46.23A8.93,8.93,0,0,1,88,68.27c0-5.07,4.31-8.9,10-8.9h15.64c3,0,4.29-1.3,4.3-4.32V53.24a2.52,2.52,0,0,1,.32,1.28c.11,7.2.1,12.73,0,17.95a5.15,5.15,0,0,1-4.41,4.58,13.23,13.23,0,0,1-2,.12c-1.54,0-3.1,0-4.66,0-3,0-6.22,0-9.34.06A9.42,9.42,0,0,1,90.67,74.64Z"/><path class="cls-6" d="M24,58.63H33.8c.63,0,.28.22.08.28-1.5.49-5.82,3.52-5.83,10.14,0,1.17-.07,18.34-.07,18.34a5.74,5.74,0,0,0,0,.84c.16,1.29,1,1.59,1.45,1.59h4.92l.45,0c1.91-.09,2.38-.5,2.39-2.46,0-2.78.08-27.14.08-28.71H51.79c2.65,0,5.79-.18,7.52,1.68s1.73,4,1.73,7c0,0,0,20.11,0,20.11a5.74,5.74,0,0,0,0,.84c.16,1.29,1,1.59,1.45,1.59h4.92l.44,0c1.92-.09,2.39-.5,2.39-2.46,0-.69.1-24.32.11-25.75,0-9.29-9.2-11.82-12.9-11.82H24.22c-1.61,0-2,1-2.06,2.6,0,1.32,0,3.19,0,4.51S22.82,58.63,24,58.63Z"/></svg>