<svg id="Layer_1" data-name="Layer 1" xmlns="http://www.w3.org/2000/svg" xmlns:xlink="http://www.w3.org/1999/xlink" viewBox="0 0 128 128"><defs><style>.cls-1{fill:#8a9297;}.cls-2{clip-path:url(#clip-path);}.cls-3{clip-path:url(#clip-path-2);}.cls-4{fill:url(#linear-gradient);}.cls-5{fill:url(#linear-gradient-2);}</style><clipPath id="clip-path"><path class="cls-1" d="M850.3-1271.61H766.78l35.55-33.82a3.3,3.3,0,0,0,0-4.94,3.7,3.7,0,0,0-5.18,0l-42,39.81a3.3,3.3,0,0,0,0,4.94L797-1225.81a3.71,3.71,0,0,0,5.19,0,3.3,3.3,0,0,0,0-4.94l-35.37-33.82H850.3a3.62,3.62,0,0,0,3.7-3.52A3.62,3.62,0,0,0,850.3-1271.61Z"/></clipPath><clipPath id="clip-path-2"><path class="cls-1" d="M609.7-1271.61h83.52l-35.55-33.82a3.3,3.3,0,0,1,0-4.94,3.7,3.7,0,0,1,5.18,0l42,39.81a3.3,3.3,0,0,1,0,4.94L663-1225.81a3.71,3.71,0,0,1-5.19,0,3.3,3.3,0,0,1,0-4.94l35.37-33.82H609.7a3.62,3.62,0,0,1-3.7-3.52A3.62,3.62,0,0,1,609.7-1271.61Z"/></clipPath><linearGradient id="linear-gradient" x1="64" y1="117.08" x2="64" y2="30.53" gradientUnits="userSpaceOnUse"><stop offset="0" stop-color="#083050"/><stop offset="1" stop-color="#3d85c6"/></linearGradient><linearGradient id="linear-gradient-2" x1="45.91" y1="44.84" x2="45.91" y2="10.92" xlink:href="#linear-gradient"/></defs><title>icon</title><path class="cls-1" d="M850.3-1271.61H766.78l35.55-33.82a3.3,3.3,0,0,0,0-4.94,3.7,3.7,0,0,0-5.18,0l-42,39.81a3.3,3.3,0,0,0,0,4.94L797-1225.81a3.71,3.71,0,0,0,5.19,0,3.3,3.3,0,0,0,0-4.94l-35.37-33.82H850.3a3.62,3.62,0,0,0,3.7-3.52A3.62,3.62,0,0,0,850.3-1271.61Z"/><g class="cls-2"><rect class="cls-1" x="54" y="-4004.76" width="9600" height="25640"/></g><path class="cls-1" d="M609.7-1271.61h83.52l-35.55-33.82a3.3,3.3,0,0,1,0-4.94,3.7,3.7,0,0,1,5.18,0l42,39.81a3.3,3.3,0,0,1,0,4.94L663-1225.81a3.71,3.71,0,0,1-5.19,0,3.3,3.3,0,0,1,0-4.94l35.37-33.82H609.7a3.62,3.62,0,0,1-3.7-3.52A3.62,3.62,0,0,1,609.7-1271.61Z"/><g class="cls-3"><rect class="cls-1" x="-8194" y="-4004.76" width="9600" height="25640"/></g><path class="cls-4" d="M128,88.33a18.88,18.88,0,0,0-18.86-18.86h-2.25l-4.45-14.62a10,10,0,0,0,1.63.13h3.66a3,3,0,0,0,3-3V36.86a3,3,0,0,0-3-3h-3.66a10.58,10.58,0,0,0-5.84,1.77V33.51a3,3,0,0,0-3-3H75.41a6.95,6.95,0,0,0,0,13.89h8.28l2.63,34.39-8.54,8.52H59.28L55.37,71h1a6.65,6.65,0,0,0,6.64-6.64V58.77a6.65,6.65,0,0,0-6.64-6.64H38.3A15,15,0,0,0,23.36,66.78,34.15,34.15,0,0,0,0,99.24a3,3,0,0,0,3,3H13.64a17.92,17.92,0,0,0,1.62,5c.2.39.41.77.64,1.15l.09.15c.26.43.49.77.7,1.07l0,.07a17.87,17.87,0,0,0,32.15-7.4h35.2a3,3,0,0,0,2.11-.87l6.6-6.6a17.81,17.81,0,0,0,29.83,17.09.47.47,0,0,0,.28-.14A17.77,17.77,0,0,0,126,91.13,3,3,0,0,0,128,88.33ZM104.07,39.84h.69V49h-.69a4.58,4.58,0,0,1-4.37-3.19l0-.1a4.88,4.88,0,0,1-.19-1.31A4.6,4.6,0,0,1,104.07,39.84ZM75.41,38.47a1,1,0,0,1,0-2H92.28v2H75.41ZM38.3,58.09H56.41a.68.68,0,0,1,.69.68v5.56a.68.68,0,0,1-.69.68H29.55A9,9,0,0,1,38.3,58.09Zm.83,50.06c-.21.19-.4.34-.59.49l-.23.17c-.17.13-.35.25-.53.37l-.32.2-.1.06c-.23.14-.48.27-.72.4l-.54.26-.4.16c-.22.09-.44.18-.67.25l-.12,0-.17.06a12.06,12.06,0,0,1-3.47.52,11.8,11.8,0,0,1-3.55-.54,8.75,8.75,0,0,1-1-.38l-.14,0a13.83,13.83,0,0,1-1.93-1l-.05,0-.06,0a8.55,8.55,0,0,1-.73-.54l-.2-.16-.68-.62-.06-.06,0,0a8.44,8.44,0,0,1-.66-.73,2.88,2.88,0,0,1-.22-.27l0,0-.34-.45-.3-.43a2.53,2.53,0,0,0-.13-.22l-.06-.11a11.46,11.46,0,0,1-1.32-3.13H42.79A12,12,0,0,1,39.13,108.15ZM95,85.35a3,3,0,0,0-2.11.88l-10,10H14.08A17.5,17.5,0,0,1,31.26,81.8a3,3,0,0,0,0-6A23.35,23.35,0,0,0,8.05,96.26H6.11A28.44,28.44,0,0,1,34.22,71h15L54,91a3,3,0,0,0,2.9,2.28H79a3,3,0,0,0,2.1-.86L91.5,82.06a3,3,0,0,0,.87-2.34l-2.71-35.3h3.39l.9,3,.09.28,7.79,25.65a3,3,0,0,0,2.85,2.11h4.46a12.92,12.92,0,0,1,12.56,9.92H95Zm15,25.74a11.91,11.91,0,0,1-5.57-1.39l-.2-.12,0,0c-.2-.11-.39-.23-.58-.35l-.48-.33-.22-.16,0,0a11.87,11.87,0,0,1-1.64-17.36H118.9a11.86,11.86,0,0,1-8.85,19.78Z"/><path class="cls-5" d="M34,44.84H57.87a4.9,4.9,0,0,0,1.05-.1,4.33,4.33,0,0,0,3.47-4.42V15.45a4.35,4.35,0,0,0-4.56-4.53H34a4.36,4.36,0,0,0-4.52,4.48q0,12.48,0,25A4.3,4.3,0,0,0,34,44.84ZM44.71,16.21h2.4v4.07a2.58,2.58,0,0,0-1.19-.3,2.64,2.64,0,0,0-1.21.31Zm-10,0h4.72v1.73q0,3.66,0,7.3a2.66,2.66,0,0,0,1.46,2.6,2.59,2.59,0,0,0,1.17.29,3,3,0,0,0,1.8-.68q.59-.45,1.17-.87l.9-.67.78.58c.43.32.85.62,1.26.94a3,3,0,0,0,1.83.7,2.53,2.53,0,0,0,1.19-.3,2.72,2.72,0,0,0,1.44-2.65c0-2.42,0-4.83,0-7.25V16.19h4.71V39.57H34.7Z"/></svg>