<svg id="Layer_1" data-name="Layer 1" xmlns="http://www.w3.org/2000/svg" xmlns:xlink="http://www.w3.org/1999/xlink" viewBox="0 0 127.75 127.75"><defs><style>.cls-1,.cls-2,.cls-3{fill:#444;}.cls-1{clip-rule:evenodd;}.cls-3{fill-rule:evenodd;}.cls-4{clip-path:url(#clip-path);}.cls-5{clip-path:url(#clip-path-2);}.cls-6{clip-path:url(#clip-path-3);}.cls-7{clip-path:url(#clip-path-4);}.cls-8{clip-path:url(#clip-path-5);}.cls-9{clip-path:url(#clip-path-6);}.cls-10{clip-path:url(#clip-path-7);}.cls-11{clip-path:url(#clip-path-8);}.cls-12{clip-path:url(#clip-path-9);}.cls-13{clip-path:url(#clip-path-10);}.cls-14{clip-path:url(#clip-path-11);}.cls-15{clip-path:url(#clip-path-12);}.cls-16{clip-path:url(#clip-path-13);}.cls-17{clip-path:url(#clip-path-14);}.cls-18{clip-path:url(#clip-path-15);}.cls-19{clip-path:url(#clip-path-16);}.cls-20{clip-path:url(#clip-path-17);}.cls-21{clip-path:url(#clip-path-18);}.cls-22{clip-path:url(#clip-path-19);}.cls-23{clip-path:url(#clip-path-20);}.cls-24{clip-path:url(#clip-path-21);}.cls-25{clip-path:url(#clip-path-22);}.cls-26{clip-path:url(#clip-path-23);}.cls-27{clip-path:url(#clip-path-24);}.cls-28{clip-path:url(#clip-path-25);}.cls-29{clip-path:url(#clip-path-26);}.cls-30{clip-path:url(#clip-path-27);}.cls-31{clip-path:url(#clip-path-28);}</style><clipPath id="clip-path"><path class="cls-1" d="M1342.64,115h-.16l-11-.92a1.88,1.88,0,0,1-1.72-1.87V67.91a6.43,6.43,0,0,0-1.71-4.91,6.64,6.64,0,0,0-4.5-1.45,1,1,0,0,1-.17,0L1275.84,61v46.91a1.85,1.85,0,0,1-.61,1.38,1.9,1.9,0,0,1-1.42.5l-9.25-.74a1.87,1.87,0,0,1-1.74-1.89c0-.29.28-29.76.22-36.75a14.76,14.76,0,0,1,3.35-9.34h-5.9a3.56,3.56,0,0,1-3.26-2.65,1.77,1.77,0,0,1-.08-.56V51.79c0-3,1.89-4.31,3-4.57a1.44,1.44,0,0,1,.41,0l67.22-.92a1.18,1.18,0,0,1,.26,0c15.86,2,16.65,15.92,16.66,16.06v.09l-.18,50.74a1.87,1.87,0,0,1-1.88,1.87Zm-9.11-4.52,7.23.6.18-48.64c0-.78-1-10.83-13.25-12.45l-66.6.9a1.56,1.56,0,0,0-.18.87v5.54H1271a1.87,1.87,0,0,1,1.43.66l.18-.21a1.84,1.84,0,0,1,1.35-.54l49.38.55a10.4,10.4,0,0,1,7.22,2.41c2,1.8,3,4.39,3,7.71Zm-66.93-5.05,5.47.44V60.77h0s-5.32,3.68-5.27,9.62S1266.66,99,1266.6,105.46Z"/></clipPath><clipPath id="clip-path-2"><path class="cls-1" d="M1347.76,111.56H1344V62c-.09-1-1.31-11.31-12-12.12l.29-3.76c11.42.87,15.13,10.63,15.5,15.66v49.83Z"/></clipPath><clipPath id="clip-path-3"><path class="cls-1" d="M1268.15,44a1.88,1.88,0,0,1-1.88-1.87l-.12-19.84a1.87,1.87,0,0,1,1.82-1.89l9.65-.31h.09l3.42.06a1.88,1.88,0,1,1-.07,3.76l-3.37-.06-7.76.25.11,18a1.88,1.88,0,0,1-1.87,1.89Z"/></clipPath><clipPath id="clip-path-4"><path class="cls-1" d="M1283.79,37h-.46a5,5,0,0,1-4.15-1.76,4.52,4.52,0,0,1-.8-3.49l.83-9.69c-.07-2.53.62-4.43,2.07-5.65a6,6,0,0,1,4.7-1.19l41.84-2,.23,0c2.51.51,4.26,1.53,5.19,3a4.37,4.37,0,0,1,.64,3.1c-.11,1.41-.78,9.73-1.45,12.36a5.76,5.76,0,0,1-4.77,4.33h-.18c-1.59,0-37.92.92-43.69.92m1.2-18.09a2,2,0,0,0-1.31.4A3.61,3.61,0,0,0,1283,22v.12l-.91,10.28a1,1,0,0,0,.08.5,1.93,1.93,0,0,0,1.24.3c3.65.06,41.35-.86,43.87-.92a2,2,0,0,0,1.53-1.52c.52-2,1.15-9.22,1.35-11.82l0-.32c0-.54-.81-1.26-2.65-1.68l-41.83,2-.23-.05a2.33,2.33,0,0,0-.48,0"/></clipPath><clipPath id="clip-path-5"><path class="cls-1" d="M1320.47,22.05a1.16,1.16,0,0,0-.93-.27,1.62,1.62,0,0,0-1,.4,2.1,2.1,0,0,0-.61,1.23s0,.11,0,.18l2-.06c.51,0,.79-.17.86-.61a1,1,0,0,0-.2-.87m1.83,1a1.43,1.43,0,0,1-.61,1.08,2.62,2.62,0,0,1-1.42.4,9,9,0,0,1-1.86,0c-.39-.07-.51-.65-.56-.81a3.89,3.89,0,0,0-.08,1.09,1.17,1.17,0,0,0,.5,1,2.25,2.25,0,0,0,1.22.24c.32,0,.66,0,1-.08a8,8,0,0,0,.81-.11h0c.06,0,.14,0,.12.12l-.1.82c0,.06,0,.1-.11.13a6.84,6.84,0,0,1-1.06.25,8.49,8.49,0,0,1-1.08.12,4.64,4.64,0,0,1-1.53-.16,2,2,0,0,1-.95-.59,2.08,2.08,0,0,1-.46-1,4.76,4.76,0,0,1,0-1.37l0-.41a3.86,3.86,0,0,1,1-2.32,3.58,3.58,0,0,1,2.51-.93,2.56,2.56,0,0,1,2.07.64,2.34,2.34,0,0,1,.47,1.92m-22.44-1.73-4.45.16c-.29,0-.39.21-.43.49s-.08.59-.11.83.09.31.3.3h.38l1.4-.05c.12,0,0,0,0,.05a2.35,2.35,0,0,0-1.28,1.89c0,.21-.34,2.67-.34,2.67a.89.89,0,0,0,0,.15c0,.24.14.29.23.28l.89,0h.09c.35,0,.44-.11.49-.46.06-.51.54-4.28.57-4.57l1.05,0c.48,0,1.06-.07,1.33.26s.22.71.15,1.26l-.37,3c0,.05,0,.11,0,.15,0,.24.14.29.23.28l.89,0h.08c.35,0,.45-.11.49-.46,0-.13.48-3.76.51-4a1.87,1.87,0,0,0-2.08-2.06m25.06-.34c0-.24,0-.66-.48-.64l-.81,0a.42.42,0,0,0-.39.36l-.73,5.88c-.06.32,0,.44.21.44l1.17-.05a.33.33,0,0,0,.32-.28l.09-.71s.24-1.91.43-3.5a.3.3,0,0,0-.34-.37l-1,0h-.09c.51-.09,1.49-.53,1.57-1.19M1304.28,23l-1,0h-.08c.51-.09,1.48-.53,1.56-1.19,0-.24,0-.66-.47-.64l-.81,0a.42.42,0,0,0-.4.35l-.73,5.89c-.05.32.06.44.22.43l1.17,0a.35.35,0,0,0,.31-.29l.1-.7s.23-1.92.43-3.51a.31.31,0,0,0-.35-.36m11.31-2.06a4.24,4.24,0,0,0-.9-.17,6.44,6.44,0,0,0-1.08,0,4.37,4.37,0,0,0-1,.14,2.57,2.57,0,0,0-.8.37,1.89,1.89,0,0,0-.56.6,2.24,2.24,0,0,0-.29.86,1.45,1.45,0,0,0,.25,1.11,2.38,2.38,0,0,0,1,.69l1,.38a1.74,1.74,0,0,1,.46.27.49.49,0,0,1,.14.43.64.64,0,0,1-.31.49,1.55,1.55,0,0,1-.75.16c-.32,0-.67,0-1,0s-.73,0-1-.06h0a.1.1,0,0,0-.11.09v0l-.12.93a.14.14,0,0,0,.13.18,9.43,9.43,0,0,0,1.12.16,9.79,9.79,0,0,0,1.23,0,3.32,3.32,0,0,0,1.84-.57,2,2,0,0,0,.83-1.44,1.55,1.55,0,0,0-.24-1.13,2.21,2.21,0,0,0-1-.73l-1-.4a2.29,2.29,0,0,1-.45-.23.4.4,0,0,1-.15-.41.55.55,0,0,1,.31-.47,1.65,1.65,0,0,1,.69-.13h.88c.29,0,.58,0,.86.06h.07a.1.1,0,0,0,.09-.09c0-.05,0,0,0,0l.11-.93c0-.11-.07-.16-.14-.18m-5.37,1.35a.12.12,0,0,1-.1.09h-.07c-.28,0-.57-.06-.86-.07s-.59,0-.88,0a2.11,2.11,0,0,0-.69.13.55.55,0,0,0-.31.48.4.4,0,0,0,.15.41,2.29,2.29,0,0,0,.45.23l1,.4a2.14,2.14,0,0,1,1,.72,1.53,1.53,0,0,1,.24,1.14,2,2,0,0,1-.82,1.43,3.3,3.3,0,0,1-1.85.57,8.25,8.25,0,0,1-1.23,0,9.72,9.72,0,0,1-1.12-.17c-.1,0-.14-.07-.13-.17l.12-.93v0a.11.11,0,0,1,.12-.1h0c.31,0,.66,0,1,.06h1.05a1.61,1.61,0,0,0,.76-.17.61.61,0,0,0,.3-.49.44.44,0,0,0-.14-.43,1.75,1.75,0,0,0-.46-.26l-.95-.38a2.4,2.4,0,0,1-1.05-.69,1.38,1.38,0,0,1-.25-1.11,2.08,2.08,0,0,1,.28-.86,1.9,1.9,0,0,1,.56-.6,2.46,2.46,0,0,1,.8-.37,3.93,3.93,0,0,1,1-.15,9.6,9.6,0,0,1,1.08,0,4.76,4.76,0,0,1,.9.18c.07,0,.16.06.15.18l-.12.93s0,0,0,0"/></clipPath><clipPath id="clip-path-6"><path class="cls-1" d="M1305.08,30.24c-.36,0-.45.12-.46.24s0,.15.17.15l.24,0Zm-.35.62c-.31,0-.46-.1-.42-.35s.27-.45.8-.51h0v0a.43.43,0,0,0,0-.19s-.07-.05-.15-.05a1,1,0,0,0-.46.17l0,0,0-.29h0a1.1,1.1,0,0,1,.54-.16c.2,0,.32,0,.37.16a.61.61,0,0,1,0,.31l-.11.83h-.07A3,3,0,0,1,1304.73,30.86Z"/></clipPath><clipPath id="clip-path-7"><path class="cls-1" d="M1305.89,29.27l0-.33.35,0,0,.34Zm-.19,1.54.17-1.34h.33l-.18,1.33Z"/></clipPath><clipPath id="clip-path-8"><path class="cls-1" d="M1306.74,30.8a.76.76,0,0,1-.36-.06h0l0-.32,0,0a.47.47,0,0,0,.32.1c.13,0,.22-.06.24-.14a.16.16,0,0,0-.07-.13l-.17-.08c-.24-.1-.31-.2-.29-.37a.54.54,0,0,1,.57-.42.65.65,0,0,1,.34.06h0l0,.29,0,0a.51.51,0,0,0-.29-.08c-.13,0-.22.06-.23.14s0,.09.2.17.2.09.24.15a.26.26,0,0,1,.08.26.55.55,0,0,1-.59.42"/></clipPath><clipPath id="clip-path-9"><path class="cls-1" d="M1309.08,29.59a.5.5,0,0,0-.54.45c0,.28.09.42.37.41a.64.64,0,0,0,.2,0l.11-.83A.33.33,0,0,0,1309.08,29.59Zm-.09,1.74.09-.66-.25,0c-.44,0-.68-.22-.62-.63a.87.87,0,0,1,.94-.75,1.89,1.89,0,0,1,.4,0h0l-.26,2Z"/></clipPath><clipPath id="clip-path-10"><path class="cls-1" d="M1310.38,30.64a.6.6,0,0,1-.44-.1c-.09-.08-.11-.18-.08-.39l.11-.83h.32l-.1.81c0,.21,0,.28.26.27l.23,0,.14-1.07.33,0-.17,1.29h0a3.38,3.38,0,0,1-.57.07"/></clipPath><clipPath id="clip-path-11"><path class="cls-1" d="M1312.38,29.7a.22.22,0,0,0-.26-.23.39.39,0,0,0-.36.25Zm-.38.89c-.44,0-.67-.22-.62-.63a.83.83,0,0,1,.78-.75.49.49,0,0,1,.47.22.57.57,0,0,1,0,.41v.09l-1,0v0c0,.23.12.36.38.35a.83.83,0,0,0,.46-.16l0,0,0,.29h0A.93.93,0,0,1,1312,30.59Z"/></clipPath><clipPath id="clip-path-12"><path class="cls-1" d="M1313.59,30.51l.14-1.06h-.22l0-.24h.22v0a.83.83,0,0,1,.26-.58.69.69,0,0,1,.43-.16h.17l0,.25h-.14a.27.27,0,0,0-.23.11.54.54,0,0,0-.12.36v0l.35,0,0,.25h-.34l-.14,1Z"/></clipPath><clipPath id="clip-path-13"><path class="cls-1" d="M1315.25,29.85c-.37,0-.45.12-.47.24s0,.16.18.15a1,1,0,0,0,.24,0Zm-.35.63c-.32,0-.46-.11-.43-.36s.28-.45.81-.51h0v0c0-.11,0-.16,0-.18s-.06-.06-.14-.06a.9.9,0,0,0-.46.18l0,0,0-.29h0a1.18,1.18,0,0,1,.54-.16c.2,0,.32,0,.37.16a.77.77,0,0,1,0,.31l-.11.83-.08,0Z"/></clipPath><clipPath id="clip-path-14"><path class="cls-1" d="M1315.87,30.42l.16-1.24h0a1.61,1.61,0,0,1,.56-.12.67.67,0,0,1,.25,0h0l0,.27,0,0a.71.71,0,0,0-.21,0,.65.65,0,0,0-.26.06l-.14,1.05Z"/></clipPath><clipPath id="clip-path-15"><path class="cls-1" d="M1318.61,30.31l.11-.83c0-.19,0-.26-.22-.25a.79.79,0,0,0-.25.05.47.47,0,0,1,0,.2l-.11.85-.32,0,.11-.84c0-.19,0-.26-.24-.25a.82.82,0,0,0-.26,0l-.14,1.07H1317l.16-1.26h0a3,3,0,0,1,.6-.11.7.7,0,0,1,.37.08,1.29,1.29,0,0,1,.45-.11.48.48,0,0,1,.41.13.38.38,0,0,1,.07.34l-.12.86Z"/></clipPath><clipPath id="clip-path-16"><path class="cls-1" d="M1303.56,30.89l.11-.84c0-.19,0-.26-.22-.25a.74.74,0,0,0-.24.05,1.72,1.72,0,0,1,0,.2l-.11.86h-.33l.11-.84c0-.19,0-.26-.24-.25a1.11,1.11,0,0,0-.25.05l-.14,1.06h-.33l.17-1.26h0a2,2,0,0,1,.61-.11.58.58,0,0,1,.36.07,1.09,1.09,0,0,1,.46-.1.5.5,0,0,1,.41.12c.07.08.08.17.06.35l-.11.86Z"/></clipPath><clipPath id="clip-path-17"><path class="cls-1" d="M1319.81,28.79l.57-.59.29,0-.63.6Zm.26.88c-.36,0-.45.12-.46.24s0,.15.17.15l.24,0Zm-.35.62c-.31,0-.46-.11-.42-.35s.27-.45.8-.51h0v0a.43.43,0,0,0,0-.19s-.07,0-.15,0a.9.9,0,0,0-.46.17l0,0,0-.3h0a1.24,1.24,0,0,1,.55-.17c.19,0,.31.05.36.17a.51.51,0,0,1,0,.31l-.11.83h-.07A3,3,0,0,1,1319.72,30.29Z"/></clipPath><clipPath id="clip-path-18"><path class="cls-1" d="M1321.31,30.24c-.44,0-.69-.24-.63-.64a.87.87,0,0,1,1.18-.68h0l0,.29,0,0a.47.47,0,0,0-.29-.08.48.48,0,0,0-.49.46.32.32,0,0,0,.37.41.54.54,0,0,0,.34-.12l0,0,0,.29h0a1,1,0,0,1-.41.11"/></clipPath><clipPath id="clip-path-19"><path class="cls-1" d="M1322.18,28.65l0-.33.34,0,0,.34Zm-.19,1.54.18-1.34h.32l-.17,1.33Z"/></clipPath><clipPath id="clip-path-20"><path class="cls-1" d="M1323.46,29.54c-.37,0-.45.12-.46.24s0,.15.17.15l.24,0Zm-.35.62c-.32,0-.46-.1-.43-.35s.28-.45.81-.51h0v0c0-.11,0-.16,0-.19s-.06-.05-.14-.05a1,1,0,0,0-.46.17l-.06,0,0-.29h0a1.21,1.21,0,0,1,.54-.17c.2,0,.32,0,.37.17a.75.75,0,0,1,0,.31l-.11.83h-.08A2.76,2.76,0,0,1,1323.11,30.16Z"/></clipPath><clipPath id="clip-path-21"><path class="cls-1" d="M1291.89,25.26l-.55,3.1a4.35,4.35,0,0,0,2.8-3.19Z"/></clipPath><clipPath id="clip-path-22"><path class="cls-1" d="M1292.27,23.25l1.67-.06a4.17,4.17,0,0,0-1.35-1.75Z"/></clipPath><clipPath id="clip-path-23"><path class="cls-1" d="M1289.51,27c.13-.51.3-1.37,1.88-1.71.13,0,.12-.06,0,0l-5.1.19c0-.27.19-1.1.25-1.41.1-.51.36-.61.83-.62l2.78-.11.51-2.77a5.59,5.59,0,0,0-1.49-.15c-2.68.11-4.78,2.05-4.69,4.36s2.14,3.93,4.67,4Z"/></clipPath><clipPath id="clip-path-24"><polygon class="cls-1" points="1305.51 110.52 1274.97 108.12 1275.27 104.36 1301.74 106.45 1301.65 59.31 1305.41 59.3 1305.51 110.52"/></clipPath><clipPath id="clip-path-25"><rect class="cls-2" x="1315.66" y="95.58" width="3.76" height="27.92" transform="translate(1108.93 1415.06) rotate(-85.67)"/></clipPath><clipPath id="clip-path-26"><path class="cls-1" d="M1309.18,93.85a1.88,1.88,0,0,1-1-3.5l1-.61v-1.9l-1.52-1.27a1.88,1.88,0,1,1,2.41-2.89l2.19,1.84A1.86,1.86,0,0,1,1313,87v3.85a1.86,1.86,0,0,1-.92,1.61l-1.95,1.16a1.89,1.89,0,0,1-1,.27"/></clipPath><clipPath id="clip-path-27"><path class="cls-1" d="M1297.44,93.31a1.9,1.9,0,0,1-1-.26l-2-1.16a1.89,1.89,0,0,1-.92-1.62V86.42a1.86,1.86,0,0,1,.68-1.44l2.19-1.83a1.88,1.88,0,0,1,2.41,2.89l-1.52,1.26v1.9l1,.61a1.88,1.88,0,0,1-1,3.5"/></clipPath><clipPath id="clip-path-28"><path class="cls-2" d="M747.91,484h83.52l-35.55-33.82a3.28,3.28,0,0,1,0-4.93,3.7,3.7,0,0,1,5.18,0l42,39.81a3.29,3.29,0,0,1,0,4.93l-41.85,39.81a3.71,3.71,0,0,1-5.19,0,3.29,3.29,0,0,1,0-4.93L831.43,491H747.91a3.53,3.53,0,1,1,0-7Z"/></clipPath></defs><title>icons</title><path class="cls-2" d="M64,68.15A33.58,33.58,0,1,0,30.44,34.57,33.62,33.62,0,0,0,64,68.15ZM64,11A23.58,23.58,0,1,1,40.44,34.57,23.61,23.61,0,0,1,64,11Z"/><path class="cls-2" d="M112.51,95c-2.89-6.07-9.74-10.26-20.34-12.44a108,108,0,0,0-14.62-2.06,155.07,155.07,0,0,0-27,0,105.48,105.48,0,0,0-14.48,2A29.25,29.25,0,0,0,16,94.14a5.19,5.19,0,0,0-.48.79,18.34,18.34,0,0,0-1.81,8A18.8,18.8,0,0,0,15.51,111c3,6.15,9.87,10.29,20.42,12.32a98.26,98.26,0,0,0,14.39,2.1,29.49,29.49,0,0,0,5.39.36q4.27.22,8.57.23c4.42,0,8.83-.18,13.18-.55a98.42,98.42,0,0,0,14.7-2.12c10.58-2.09,17.43-6.26,20.35-12.38A18.52,18.52,0,0,0,112.51,95Zm-9,11.66c-1.44,3-6.17,5.48-13.31,6.88l-.13,0a89.31,89.31,0,0,1-13.34,1.92,149.84,149.84,0,0,1-20.65.29h-.44a20.1,20.1,0,0,1-3.87-.26,4.26,4.26,0,0,0-.5-.06A88,88,0,0,1,38,113.52l-.16,0c-7.11-1.36-11.86-3.8-13.35-6.84a8.61,8.61,0,0,1-.83-3.73v0a8.3,8.3,0,0,1,.64-3.22,19.26,19.26,0,0,1,13.08-7.29,4.17,4.17,0,0,0,.49-.08,97.4,97.4,0,0,1,13.42-1.86,145.07,145.07,0,0,1,25.44,0,96.3,96.3,0,0,1,13.36,1.88c7.19,1.48,11.93,3.94,13.36,6.94A8.57,8.57,0,0,1,103.48,106.64Z"/><path class="cls-3" d="M1342.64,115h-.16l-11-.92a1.88,1.88,0,0,1-1.72-1.87V67.91a6.43,6.43,0,0,0-1.71-4.91,6.64,6.64,0,0,0-4.5-1.45,1,1,0,0,1-.17,0L1275.84,61v46.91a1.85,1.85,0,0,1-.61,1.38,1.9,1.9,0,0,1-1.42.5l-9.25-.74a1.87,1.87,0,0,1-1.74-1.89c0-.29.28-29.76.22-36.75a14.76,14.76,0,0,1,3.35-9.34h-5.9a3.56,3.56,0,0,1-3.26-2.65,1.77,1.77,0,0,1-.08-.56V51.79c0-3,1.89-4.31,3-4.57a1.44,1.44,0,0,1,.41,0l67.22-.92a1.18,1.18,0,0,1,.26,0c15.86,2,16.65,15.92,16.66,16.06v.09l-.18,50.74a1.87,1.87,0,0,1-1.88,1.87Zm-9.11-4.52,7.23.6.18-48.64c0-.78-1-10.83-13.25-12.45l-66.6.9a1.56,1.56,0,0,0-.18.87v5.54H1271a1.87,1.87,0,0,1,1.43.66l.18-.21a1.84,1.84,0,0,1,1.35-.54l49.38.55a10.4,10.4,0,0,1,7.22,2.41c2,1.8,3,4.39,3,7.71Zm-66.93-5.05,5.47.44V60.77h0s-5.32,3.68-5.27,9.62S1266.66,99,1266.6,105.46Z"/><g class="cls-4"><rect class="cls-2" x="-3240.63" y="-2468.9" width="6348.4" height="5052.27"/></g><path class="cls-3" d="M1347.76,111.56H1344V62c-.09-1-1.31-11.31-12-12.12l.29-3.76c11.42.87,15.13,10.63,15.5,15.66v49.83Z"/><g class="cls-5"><rect class="cls-2" x="-3240.63" y="-2468.9" width="6348.4" height="5052.27"/></g><path class="cls-3" d="M1268.15,44a1.88,1.88,0,0,1-1.88-1.87l-.12-19.84a1.87,1.87,0,0,1,1.82-1.89l9.65-.31h.09l3.42.06a1.88,1.88,0,1,1-.07,3.76l-3.37-.06-7.76.25.11,18a1.88,1.88,0,0,1-1.87,1.89Z"/><g class="cls-6"><rect class="cls-2" x="-3240.63" y="-2468.9" width="6348.4" height="5052.27"/></g><path class="cls-3" d="M1283.79,37h-.46a5,5,0,0,1-4.15-1.76,4.52,4.52,0,0,1-.8-3.49l.83-9.69c-.07-2.53.62-4.43,2.07-5.65a6,6,0,0,1,4.7-1.19l41.84-2,.23,0c2.51.51,4.26,1.53,5.19,3a4.37,4.37,0,0,1,.64,3.1c-.11,1.41-.78,9.73-1.45,12.36a5.76,5.76,0,0,1-4.77,4.33h-.18c-1.59,0-37.92.92-43.69.92m1.2-18.09a2,2,0,0,0-1.31.4A3.61,3.61,0,0,0,1283,22v.12l-.91,10.28a1,1,0,0,0,.08.5,1.93,1.93,0,0,0,1.24.3c3.65.06,41.35-.86,43.87-.92a2,2,0,0,0,1.53-1.52c.52-2,1.15-9.22,1.35-11.82l0-.32c0-.54-.81-1.26-2.65-1.68l-41.83,2-.23-.05a2.33,2.33,0,0,0-.48,0"/><g class="cls-7"><rect class="cls-2" x="-3240.63" y="-2468.9" width="6348.4" height="5052.27"/></g><path class="cls-3" d="M1320.47,22.05a1.16,1.16,0,0,0-.93-.27,1.62,1.62,0,0,0-1,.4,2.1,2.1,0,0,0-.61,1.23s0,.11,0,.18l2-.06c.51,0,.79-.17.86-.61a1,1,0,0,0-.2-.87m1.83,1a1.43,1.43,0,0,1-.61,1.08,2.62,2.62,0,0,1-1.42.4,9,9,0,0,1-1.86,0c-.39-.07-.51-.65-.56-.81a3.89,3.89,0,0,0-.08,1.09,1.17,1.17,0,0,0,.5,1,2.25,2.25,0,0,0,1.22.24c.32,0,.66,0,1-.08a8,8,0,0,0,.81-.11h0c.06,0,.14,0,.12.12l-.1.82c0,.06,0,.1-.11.13a6.84,6.84,0,0,1-1.06.25,8.49,8.49,0,0,1-1.08.12,4.64,4.64,0,0,1-1.53-.16,2,2,0,0,1-.95-.59,2.08,2.08,0,0,1-.46-1,4.76,4.76,0,0,1,0-1.37l0-.41a3.86,3.86,0,0,1,1-2.32,3.58,3.58,0,0,1,2.51-.93,2.56,2.56,0,0,1,2.07.64,2.34,2.34,0,0,1,.47,1.92m-22.44-1.73-4.45.16c-.29,0-.39.21-.43.49s-.08.59-.11.83.09.31.3.3h.38l1.4-.05c.12,0,0,0,0,.05a2.35,2.35,0,0,0-1.28,1.89c0,.21-.34,2.67-.34,2.67a.89.89,0,0,0,0,.15c0,.24.14.29.23.28l.89,0h.09c.35,0,.44-.11.49-.46.06-.51.54-4.28.57-4.57l1.05,0c.48,0,1.06-.07,1.33.26s.22.71.15,1.26l-.37,3c0,.05,0,.11,0,.15,0,.24.14.29.23.28l.89,0h.08c.35,0,.45-.11.49-.46,0-.13.48-3.76.51-4a1.87,1.87,0,0,0-2.08-2.06m25.06-.34c0-.24,0-.66-.48-.64l-.81,0a.42.42,0,0,0-.39.36l-.73,5.88c-.06.32,0,.44.21.44l1.17-.05a.33.33,0,0,0,.32-.28l.09-.71s.24-1.91.43-3.5a.3.3,0,0,0-.34-.37l-1,0h-.09c.51-.09,1.49-.53,1.57-1.19M1304.28,23l-1,0h-.08c.51-.09,1.48-.53,1.56-1.19,0-.24,0-.66-.47-.64l-.81,0a.42.42,0,0,0-.4.35l-.73,5.89c-.05.32.06.44.22.43l1.17,0a.35.35,0,0,0,.31-.29l.1-.7s.23-1.92.43-3.51a.31.31,0,0,0-.35-.36m11.31-2.06a4.24,4.24,0,0,0-.9-.17,6.44,6.44,0,0,0-1.08,0,4.37,4.37,0,0,0-1,.14,2.57,2.57,0,0,0-.8.37,1.89,1.89,0,0,0-.56.6,2.24,2.24,0,0,0-.29.86,1.45,1.45,0,0,0,.25,1.11,2.38,2.38,0,0,0,1,.69l1,.38a1.74,1.74,0,0,1,.46.27.49.49,0,0,1,.14.43.64.64,0,0,1-.31.49,1.55,1.55,0,0,1-.75.16c-.32,0-.67,0-1,0s-.73,0-1-.06h0a.1.1,0,0,0-.11.09v0l-.12.93a.14.14,0,0,0,.13.18,9.43,9.43,0,0,0,1.12.16,9.79,9.79,0,0,0,1.23,0,3.32,3.32,0,0,0,1.84-.57,2,2,0,0,0,.83-1.44,1.55,1.55,0,0,0-.24-1.13,2.21,2.21,0,0,0-1-.73l-1-.4a2.29,2.29,0,0,1-.45-.23.4.4,0,0,1-.15-.41.55.55,0,0,1,.31-.47,1.65,1.65,0,0,1,.69-.13h.88c.29,0,.58,0,.86.06h.07a.1.1,0,0,0,.09-.09c0-.05,0,0,0,0l.11-.93c0-.11-.07-.16-.14-.18m-5.37,1.35a.12.12,0,0,1-.1.09h-.07c-.28,0-.57-.06-.86-.07s-.59,0-.88,0a2.11,2.11,0,0,0-.69.13.55.55,0,0,0-.31.48.4.4,0,0,0,.15.41,2.29,2.29,0,0,0,.45.23l1,.4a2.14,2.14,0,0,1,1,.72,1.53,1.53,0,0,1,.24,1.14,2,2,0,0,1-.82,1.43,3.3,3.3,0,0,1-1.85.57,8.25,8.25,0,0,1-1.23,0,9.72,9.72,0,0,1-1.12-.17c-.1,0-.14-.07-.13-.17l.12-.93v0a.11.11,0,0,1,.12-.1h0c.31,0,.66,0,1,.06h1.05a1.61,1.61,0,0,0,.76-.17.61.61,0,0,0,.3-.49.44.44,0,0,0-.14-.43,1.75,1.75,0,0,0-.46-.26l-.95-.38a2.4,2.4,0,0,1-1.05-.69,1.38,1.38,0,0,1-.25-1.11,2.08,2.08,0,0,1,.28-.86,1.9,1.9,0,0,1,.56-.6,2.46,2.46,0,0,1,.8-.37,3.93,3.93,0,0,1,1-.15,9.6,9.6,0,0,1,1.08,0,4.76,4.76,0,0,1,.9.18c.07,0,.16.06.15.18l-.12.93s0,0,0,0"/><g class="cls-8"><rect class="cls-2" x="-3240.63" y="-2468.9" width="6348.4" height="5052.27"/></g><path class="cls-3" d="M1305.08,30.24c-.36,0-.45.12-.46.24s0,.15.17.15l.24,0Zm-.35.62c-.31,0-.46-.1-.42-.35s.27-.45.8-.51h0v0a.43.43,0,0,0,0-.19s-.07-.05-.15-.05a1,1,0,0,0-.46.17l0,0,0-.29h0a1.1,1.1,0,0,1,.54-.16c.2,0,.32,0,.37.16a.61.61,0,0,1,0,.31l-.11.83h-.07A3,3,0,0,1,1304.73,30.86Z"/><g class="cls-9"><rect class="cls-2" x="-3240.63" y="-2468.9" width="6348.4" height="5052.27"/></g><path class="cls-3" d="M1305.89,29.27l0-.33.35,0,0,.34Zm-.19,1.54.17-1.34h.33l-.18,1.33Z"/><g class="cls-10"><rect class="cls-2" x="-3240.63" y="-2468.9" width="6348.4" height="5052.27"/></g><path class="cls-3" d="M1306.74,30.8a.76.76,0,0,1-.36-.06h0l0-.32,0,0a.47.47,0,0,0,.32.1c.13,0,.22-.06.24-.14a.16.16,0,0,0-.07-.13l-.17-.08c-.24-.1-.31-.2-.29-.37a.54.54,0,0,1,.57-.42.65.65,0,0,1,.34.06h0l0,.29,0,0a.51.51,0,0,0-.29-.08c-.13,0-.22.06-.23.14s0,.09.2.17.2.09.24.15a.26.26,0,0,1,.08.26.55.55,0,0,1-.59.42"/><g class="cls-11"><rect class="cls-2" x="-3240.63" y="-2468.9" width="6348.4" height="5052.27"/></g><path class="cls-3" d="M1309.08,29.59a.5.5,0,0,0-.54.45c0,.28.09.42.37.41a.64.64,0,0,0,.2,0l.11-.83A.33.33,0,0,0,1309.08,29.59Zm-.09,1.74.09-.66-.25,0c-.44,0-.68-.22-.62-.63a.87.87,0,0,1,.94-.75,1.89,1.89,0,0,1,.4,0h0l-.26,2Z"/><g class="cls-12"><rect class="cls-2" x="-3240.63" y="-2468.9" width="6348.4" height="5052.27"/></g><path class="cls-3" d="M1310.38,30.64a.6.6,0,0,1-.44-.1c-.09-.08-.11-.18-.08-.39l.11-.83h.32l-.1.81c0,.21,0,.28.26.27l.23,0,.14-1.07.33,0-.17,1.29h0a3.38,3.38,0,0,1-.57.07"/><g class="cls-13"><rect class="cls-2" x="-3240.63" y="-2468.9" width="6348.4" height="5052.27"/></g><path class="cls-3" d="M1312.38,29.7a.22.22,0,0,0-.26-.23.39.39,0,0,0-.36.25Zm-.38.89c-.44,0-.67-.22-.62-.63a.83.83,0,0,1,.78-.75.49.49,0,0,1,.47.22.57.57,0,0,1,0,.41v.09l-1,0v0c0,.23.12.36.38.35a.83.83,0,0,0,.46-.16l0,0,0,.29h0A.93.93,0,0,1,1312,30.59Z"/><g class="cls-14"><rect class="cls-2" x="-3240.63" y="-2468.9" width="6348.4" height="5052.27"/></g><path class="cls-3" d="M1313.59,30.51l.14-1.06h-.22l0-.24h.22v0a.83.83,0,0,1,.26-.58.69.69,0,0,1,.43-.16h.17l0,.25h-.14a.27.27,0,0,0-.23.11.54.54,0,0,0-.12.36v0l.35,0,0,.25h-.34l-.14,1Z"/><g class="cls-15"><rect class="cls-2" x="-3240.63" y="-2468.9" width="6348.4" height="5052.27"/></g><path class="cls-3" d="M1315.25,29.85c-.37,0-.45.12-.47.24s0,.16.18.15a1,1,0,0,0,.24,0Zm-.35.63c-.32,0-.46-.11-.43-.36s.28-.45.81-.51h0v0c0-.11,0-.16,0-.18s-.06-.06-.14-.06a.9.9,0,0,0-.46.18l0,0,0-.29h0a1.18,1.18,0,0,1,.54-.16c.2,0,.32,0,.37.16a.77.77,0,0,1,0,.31l-.11.83-.08,0Z"/><g class="cls-16"><rect class="cls-2" x="-3240.63" y="-2468.9" width="6348.4" height="5052.27"/></g><path class="cls-3" d="M1315.87,30.42l.16-1.24h0a1.61,1.61,0,0,1,.56-.12.67.67,0,0,1,.25,0h0l0,.27,0,0a.71.71,0,0,0-.21,0,.65.65,0,0,0-.26.06l-.14,1.05Z"/><g class="cls-17"><rect class="cls-2" x="-3240.63" y="-2468.9" width="6348.4" height="5052.27"/></g><path class="cls-3" d="M1318.61,30.31l.11-.83c0-.19,0-.26-.22-.25a.79.79,0,0,0-.25.05.47.47,0,0,1,0,.2l-.11.85-.32,0,.11-.84c0-.19,0-.26-.24-.25a.82.82,0,0,0-.26,0l-.14,1.07H1317l.16-1.26h0a3,3,0,0,1,.6-.11.7.7,0,0,1,.37.08,1.29,1.29,0,0,1,.45-.11.48.48,0,0,1,.41.13.38.38,0,0,1,.07.34l-.12.86Z"/><g class="cls-18"><rect class="cls-2" x="-3240.63" y="-2468.9" width="6348.4" height="5052.27"/></g><path class="cls-3" d="M1303.56,30.89l.11-.84c0-.19,0-.26-.22-.25a.74.74,0,0,0-.24.05,1.72,1.72,0,0,1,0,.2l-.11.86h-.33l.11-.84c0-.19,0-.26-.24-.25a1.11,1.11,0,0,0-.25.05l-.14,1.06h-.33l.17-1.26h0a2,2,0,0,1,.61-.11.58.58,0,0,1,.36.07,1.09,1.09,0,0,1,.46-.1.5.5,0,0,1,.41.12c.07.08.08.17.06.35l-.11.86Z"/><g class="cls-19"><rect class="cls-2" x="-3240.63" y="-2468.9" width="6348.4" height="5052.27"/></g><path class="cls-3" d="M1319.81,28.79l.57-.59.29,0-.63.6Zm.26.88c-.36,0-.45.12-.46.24s0,.15.17.15l.24,0Zm-.35.62c-.31,0-.46-.11-.42-.35s.27-.45.8-.51h0v0a.43.43,0,0,0,0-.19s-.07,0-.15,0a.9.9,0,0,0-.46.17l0,0,0-.3h0a1.24,1.24,0,0,1,.55-.17c.19,0,.31.05.36.17a.51.51,0,0,1,0,.31l-.11.83h-.07A3,3,0,0,1,1319.72,30.29Z"/><g class="cls-20"><rect class="cls-2" x="-3240.63" y="-2468.9" width="6348.4" height="5052.27"/></g><path class="cls-3" d="M1321.31,30.24c-.44,0-.69-.24-.63-.64a.87.87,0,0,1,1.18-.68h0l0,.29,0,0a.47.47,0,0,0-.29-.08.48.48,0,0,0-.49.46.32.32,0,0,0,.37.41.54.54,0,0,0,.34-.12l0,0,0,.29h0a1,1,0,0,1-.41.11"/><g class="cls-21"><rect class="cls-2" x="-3240.63" y="-2468.9" width="6348.4" height="5052.27"/></g><path class="cls-3" d="M1322.18,28.65l0-.33.34,0,0,.34Zm-.19,1.54.18-1.34h.32l-.17,1.33Z"/><g class="cls-22"><rect class="cls-2" x="-3240.63" y="-2468.9" width="6348.4" height="5052.27"/></g><path class="cls-3" d="M1323.46,29.54c-.37,0-.45.12-.46.24s0,.15.17.15l.24,0Zm-.35.62c-.32,0-.46-.1-.43-.35s.28-.45.81-.51h0v0c0-.11,0-.16,0-.19s-.06-.05-.14-.05a1,1,0,0,0-.46.17l-.06,0,0-.29h0a1.21,1.21,0,0,1,.54-.17c.2,0,.32,0,.37.17a.75.75,0,0,1,0,.31l-.11.83h-.08A2.76,2.76,0,0,1,1323.11,30.16Z"/><g class="cls-23"><rect class="cls-2" x="-3240.63" y="-2468.9" width="6348.4" height="5052.27"/></g><path class="cls-3" d="M1291.89,25.26l-.55,3.1a4.35,4.35,0,0,0,2.8-3.19Z"/><g class="cls-24"><rect class="cls-2" x="-3240.63" y="-2468.9" width="6348.4" height="5052.27"/></g><path class="cls-3" d="M1292.27,23.25l1.67-.06a4.17,4.17,0,0,0-1.35-1.75Z"/><g class="cls-25"><rect class="cls-2" x="-3240.63" y="-2468.9" width="6348.4" height="5052.27"/></g><path class="cls-3" d="M1289.51,27c.13-.51.3-1.37,1.88-1.71.13,0,.12-.06,0,0l-5.1.19c0-.27.19-1.1.25-1.41.1-.51.36-.61.83-.62l2.78-.11.51-2.77a5.59,5.59,0,0,0-1.49-.15c-2.68.11-4.78,2.05-4.69,4.36s2.14,3.93,4.67,4Z"/><g class="cls-26"><rect class="cls-2" x="-3240.63" y="-2468.9" width="6348.4" height="5052.27"/></g><polygon class="cls-3" points="1305.51 110.52 1274.97 108.12 1275.27 104.36 1301.74 106.45 1301.65 59.31 1305.41 59.3 1305.51 110.52"/><g class="cls-27"><rect class="cls-2" x="-3240.63" y="-2468.9" width="6348.4" height="5052.27"/></g><rect class="cls-2" x="1315.66" y="95.58" width="3.76" height="27.92" transform="translate(1108.93 1415.06) rotate(-85.67)"/><g class="cls-28"><rect class="cls-2" x="-3240.63" y="-2468.9" width="6348.4" height="5052.27"/></g><path class="cls-3" d="M1309.18,93.85a1.88,1.88,0,0,1-1-3.5l1-.61v-1.9l-1.52-1.27a1.88,1.88,0,1,1,2.41-2.89l2.19,1.84A1.86,1.86,0,0,1,1313,87v3.85a1.86,1.86,0,0,1-.92,1.61l-1.95,1.16a1.89,1.89,0,0,1-1,.27"/><g class="cls-29"><rect class="cls-2" x="-3240.63" y="-2468.9" width="6348.4" height="5052.27"/></g><path class="cls-3" d="M1297.44,93.31a1.9,1.9,0,0,1-1-.26l-2-1.16a1.89,1.89,0,0,1-.92-1.62V86.42a1.86,1.86,0,0,1,.68-1.44l2.19-1.83a1.88,1.88,0,0,1,2.41,2.89l-1.52,1.26v1.9l1,.61a1.88,1.88,0,0,1-1,3.5"/><g class="cls-30"><rect class="cls-2" x="-3240.63" y="-2468.9" width="6348.4" height="5052.27"/></g><path class="cls-2" d="M747.91,484h83.52l-35.55-33.82a3.28,3.28,0,0,1,0-4.93,3.7,3.7,0,0,1,5.18,0l42,39.81a3.29,3.29,0,0,1,0,4.93l-41.85,39.81a3.71,3.71,0,0,1-5.19,0,3.29,3.29,0,0,1,0-4.93L831.43,491H747.91a3.53,3.53,0,1,1,0-7Z"/><g class="cls-31"><rect class="cls-2" x="-8055.79" y="-2249.16" width="9600" height="25640"/></g></svg>