<svg id="Layer_1" data-name="Layer 1" xmlns="http://www.w3.org/2000/svg" xmlns:xlink="http://www.w3.org/1999/xlink" viewBox="0 0 128 128"><defs><style>.cls-1,.cls-2,.cls-5{fill:#8a9297;}.cls-1{clip-rule:evenodd;}.cls-3{fill:#18537d;}.cls-4{fill:#fcb514;}.cls-5{fill-rule:evenodd;}.cls-6{clip-path:url(#clip-path);}.cls-7{clip-path:url(#clip-path-2);}.cls-8{clip-path:url(#clip-path-3);}.cls-9{clip-path:url(#clip-path-4);}.cls-10{clip-path:url(#clip-path-5);}.cls-11{clip-path:url(#clip-path-6);}.cls-12{clip-path:url(#clip-path-7);}.cls-13{clip-path:url(#clip-path-8);}.cls-14{clip-path:url(#clip-path-9);}.cls-15{clip-path:url(#clip-path-10);}.cls-16{clip-path:url(#clip-path-11);}.cls-17{clip-path:url(#clip-path-12);}.cls-18{clip-path:url(#clip-path-13);}.cls-19{clip-path:url(#clip-path-14);}.cls-20{clip-path:url(#clip-path-15);}.cls-21{clip-path:url(#clip-path-16);}.cls-22{clip-path:url(#clip-path-17);}.cls-23{clip-path:url(#clip-path-18);}.cls-24{clip-path:url(#clip-path-19);}.cls-25{clip-path:url(#clip-path-20);}.cls-26{clip-path:url(#clip-path-21);}.cls-27{clip-path:url(#clip-path-22);}.cls-28{clip-path:url(#clip-path-23);}.cls-29{clip-path:url(#clip-path-24);}.cls-30{clip-path:url(#clip-path-25);}.cls-31{clip-path:url(#clip-path-26);}.cls-32{clip-path:url(#clip-path-27);}.cls-33{clip-path:url(#clip-path-28);}.cls-34{clip-path:url(#clip-path-29);}</style><clipPath id="clip-path"><path class="cls-1" d="M758,727.62h-.16l-11-.91a1.88,1.88,0,0,1-1.73-1.88V680.5a6.43,6.43,0,0,0-1.71-4.91,6.62,6.62,0,0,0-4.5-1.46h-.17l-47.55-.53v46.91a1.88,1.88,0,0,1-.61,1.38,1.85,1.85,0,0,1-1.42.49l-9.25-.73a1.87,1.87,0,0,1-1.73-1.89c0-.3.27-29.77.21-36.75a14.85,14.85,0,0,1,3.35-9.34h-5.89A3.57,3.57,0,0,1,672.6,671a2.1,2.1,0,0,1-.08-.56v-6.09c0-3,1.89-4.31,3-4.58a2.57,2.57,0,0,1,.4,0l67.22-.91h.26c15.86,2,16.66,15.93,16.66,16.07a.28.28,0,0,1,0,.09l-.19,50.74a1.87,1.87,0,0,1-1.88,1.87Zm-9.11-4.53,7.24.61.17-48.65c0-.78-.94-10.82-13.24-12.45l-66.61.91a1.66,1.66,0,0,0-.18.87v5.54H686.4a1.85,1.85,0,0,1,1.42.66,2,2,0,0,1,.18-.21,1.86,1.86,0,0,1,1.35-.54l49.38.55a10.29,10.29,0,0,1,7.22,2.41c2,1.79,2.95,4.39,2.95,7.71Zm-66.93-5,5.48.43V673.36h0c-.05,0-5.32,3.68-5.27,9.63S682,711.56,682,718.05Z"/></clipPath><clipPath id="clip-path-2"><path class="cls-1" d="M763.13,724.15h-3.77V674.54c-.09-1-1.3-11.31-12-12.13l.28-3.75c11.42.87,15.13,10.62,15.5,15.66v49.83Z"/></clipPath><clipPath id="clip-path-3"><path class="cls-1" d="M683.53,656.62a1.88,1.88,0,0,1-1.88-1.87l-.13-19.84a1.9,1.9,0,0,1,1.83-1.9l9.64-.3h.1l3.41.06a1.88,1.88,0,1,1-.06,3.76l-3.38-.06-7.76.25.11,18a1.89,1.89,0,0,1-1.87,1.9Z"/></clipPath><clipPath id="clip-path-4"><path class="cls-1" d="M699.16,649.54h-.46a5,5,0,0,1-4.15-1.77,4.52,4.52,0,0,1-.8-3.49l.84-9.68c-.08-2.54.61-4.44,2.06-5.65a6.1,6.1,0,0,1,4.7-1.2l41.85-2,.23,0c2.51.5,4.25,1.52,5.19,3a4.48,4.48,0,0,1,.64,3.1c-.12,1.41-.78,9.73-1.45,12.35a5.8,5.8,0,0,1-4.77,4.34h-.19c-1.59,0-37.91.92-43.69.92m1.21-18.09a2,2,0,0,0-1.31.39,3.58,3.58,0,0,0-.71,2.73v.12L697.44,645a.83.83,0,0,0,.09.49c.1.13.49.29,1.23.3,3.65.07,41.35-.85,43.87-.91a2,2,0,0,0,1.53-1.52c.52-2,1.15-9.22,1.35-11.83l0-.31c0-.54-.81-1.27-2.65-1.68l-41.83,2-.22,0s-.23,0-.48,0"/></clipPath><clipPath id="clip-path-5"><path class="cls-1" d="M735.84,634.63a1.21,1.21,0,0,0-.93-.27,1.67,1.67,0,0,0-1,.4,2.14,2.14,0,0,0-.62,1.24l0,.17s1.1,0,2-.06c.5,0,.79-.16.85-.6a1,1,0,0,0-.2-.88m1.83,1a1.43,1.43,0,0,1-.61,1.08,2.71,2.71,0,0,1-1.42.4,9,9,0,0,1-1.86,0c-.38-.07-.51-.65-.56-.81a4.08,4.08,0,0,0-.07,1.09,1.11,1.11,0,0,0,.49,1,2.16,2.16,0,0,0,1.22.24c.33,0,.66,0,1-.07a8,8,0,0,0,.81-.11h0c.07,0,.14,0,.13.11l-.11.83c0,.06,0,.1-.11.13a6.84,6.84,0,0,1-1.06.25,8.27,8.27,0,0,1-1.07.11,4.73,4.73,0,0,1-1.54-.15,2.12,2.12,0,0,1-1-.59,2.07,2.07,0,0,1-.45-1,4.14,4.14,0,0,1,0-1.37l.05-.41a3.91,3.91,0,0,1,1-2.33,3.64,3.64,0,0,1,2.51-.92,2.53,2.53,0,0,1,2.07.64,2.26,2.26,0,0,1,.47,1.92m-22.43-1.74-4.46.17c-.29,0-.38.21-.43.49s-.08.58-.1.82.08.32.29.31h.39l1.4-.06c.11,0,0,0,0,.06a2.34,2.34,0,0,0-1.29,1.89c0,.21-.34,2.67-.34,2.67a.81.81,0,0,0,0,.15c0,.23.13.28.22.28l.9,0h.08c.35,0,.44-.11.49-.47.06-.51.54-4.27.57-4.56l1,0c.48,0,1.06-.07,1.33.26s.23.7.16,1.26l-.37,3a.89.89,0,0,0,0,.15c0,.23.14.28.23.28l.89,0h.09c.34,0,.44-.11.48-.46,0-.13.48-3.77.52-4a1.88,1.88,0,0,0-2.08-2.07m25-.33c0-.24,0-.66-.47-.64l-.81,0a.42.42,0,0,0-.4.35l-.73,5.89c0,.32.06.44.21.43l1.17,0a.35.35,0,0,0,.32-.29l.09-.7s.24-1.92.44-3.5a.31.31,0,0,0-.35-.37l-1,0h-.08c.5-.09,1.48-.53,1.56-1.19m-20.63,1.93-1,0h-.1s0,0,0,0c.51-.1,1.48-.54,1.57-1.2,0-.24,0-.65-.48-.64l-.81,0a.42.42,0,0,0-.4.35l-.73,5.89c0,.32.06.44.22.43l1.17-.05a.34.34,0,0,0,.32-.28l.09-.7s.23-1.92.43-3.51a.3.3,0,0,0-.34-.36m11.3-2.06a4.76,4.76,0,0,0-.9-.18,9.6,9.6,0,0,0-1.08,0,4.46,4.46,0,0,0-1,.15,2.56,2.56,0,0,0-.8.37,2.14,2.14,0,0,0-.56.6,2.08,2.08,0,0,0-.28.86,1.38,1.38,0,0,0,.25,1.11,2.4,2.4,0,0,0,1,.69l1,.38a1.57,1.57,0,0,1,.45.27.42.42,0,0,1,.14.42.61.61,0,0,1-.3.49,1.61,1.61,0,0,1-.76.17h-1c-.38,0-.73,0-1-.06h0a.1.1,0,0,0-.11.1s0,0,0,0l-.11.93c0,.11,0,.16.12.18.36.07.73.12,1.12.16a8.25,8.25,0,0,0,1.23,0,3.3,3.3,0,0,0,1.85-.57,2,2,0,0,0,.82-1.43,1.54,1.54,0,0,0-.24-1.14,2.16,2.16,0,0,0-1-.72l-1-.4a2.62,2.62,0,0,1-.45-.23.4.4,0,0,1-.15-.41.58.58,0,0,1,.31-.48,1.9,1.9,0,0,1,.69-.12,6.46,6.46,0,0,1,.88,0c.29,0,.58,0,.86.06h.07a.11.11,0,0,0,.1-.09c0-.06,0,0,0,0l.12-.93c0-.12-.08-.16-.15-.18m-5.37,1.35s-.06.09-.1.09h-.06a8.28,8.28,0,0,0-.87-.07h-.88a1.92,1.92,0,0,0-.69.13.56.56,0,0,0-.3.47.39.39,0,0,0,.14.42,3.16,3.16,0,0,0,.45.22l1,.41a2.16,2.16,0,0,1,1,.72,1.5,1.5,0,0,1,.24,1.13,2,2,0,0,1-.82,1.44,3.3,3.3,0,0,1-1.85.57q-.64,0-1.23,0c-.39,0-.76-.1-1.12-.17-.1,0-.14-.07-.12-.17l.11-.93s0,0,0,0a.09.09,0,0,1,.11-.09h0a7.94,7.94,0,0,0,1,.06h1a1.74,1.74,0,0,0,.76-.17.62.62,0,0,0,.31-.49.46.46,0,0,0-.15-.43,1.67,1.67,0,0,0-.45-.26l-1-.38a2.47,2.47,0,0,1-1-.69,1.41,1.41,0,0,1-.25-1.12,2.08,2.08,0,0,1,.28-.86,2.14,2.14,0,0,1,.56-.6,2.54,2.54,0,0,1,.8-.36,3.94,3.94,0,0,1,1-.15,6.35,6.35,0,0,1,1.07,0,3.76,3.76,0,0,1,.91.18c.06,0,.15.06.14.17l-.12.93s0,0,0,0"/></clipPath><clipPath id="clip-path-6"><path class="cls-1" d="M720.45,642.82c-.36,0-.44.13-.46.25s0,.15.17.14l.24,0Zm-.35.63q-.47,0-.42-.36c0-.29.27-.44.8-.51h0a.53.53,0,0,0,0-.19s-.07-.06-.15,0a.9.9,0,0,0-.46.17l0,0,0-.3h0a1.36,1.36,0,0,1,.55-.16c.19,0,.31,0,.36.17a.57.57,0,0,1,0,.31l-.11.83h-.08A3,3,0,0,1,720.1,643.45Z"/></clipPath><clipPath id="clip-path-7"><path class="cls-1" d="M721.26,641.86l0-.34h.34l0,.34Zm-.19,1.53.18-1.33h.32l-.17,1.33Z"/></clipPath><clipPath id="clip-path-8"><path class="cls-1" d="M722.11,643.39a.76.76,0,0,1-.36-.06h0l0-.32,0,0a.49.49,0,0,0,.32.1c.14,0,.23-.06.24-.15a.14.14,0,0,0-.07-.12.91.91,0,0,0-.17-.08c-.23-.1-.31-.2-.29-.37a.54.54,0,0,1,.57-.42.68.68,0,0,1,.35.06h0l0,.3,0,0a.43.43,0,0,0-.29-.08c-.13,0-.22.06-.23.14s0,.09.2.17a.6.6,0,0,1,.25.15.31.31,0,0,1,.08.25.56.56,0,0,1-.6.43"/></clipPath><clipPath id="clip-path-9"><path class="cls-1" d="M724.46,642.17a.52.52,0,0,0-.55.46c0,.28.09.42.38.41l.19,0,.11-.83Zm-.1,1.75.09-.67a.73.73,0,0,1-.25,0c-.44,0-.67-.22-.62-.63a.88.88,0,0,1,.95-.74,1.33,1.33,0,0,1,.39,0h0l-.26,2Z"/></clipPath><clipPath id="clip-path-10"><path class="cls-1" d="M725.76,643.23a.57.57,0,0,1-.44-.1c-.09-.08-.12-.19-.09-.39l.11-.83.33,0-.11.82c0,.21,0,.27.26.27l.23,0,.15-1.08h.32l-.17,1.29h0a3.67,3.67,0,0,1-.57.08"/></clipPath><clipPath id="clip-path-11"><path class="cls-1" d="M727.75,642.29c0-.17-.09-.24-.25-.23a.39.39,0,0,0-.37.25Zm-.37.89c-.45,0-.68-.22-.63-.63a.83.83,0,0,1,.78-.75.5.5,0,0,1,.48.22.57.57,0,0,1,0,.41v.09l-1,0v0c0,.23.11.37.38.36a.85.85,0,0,0,.45-.16l.06,0,0,.29h0A1,1,0,0,1,727.38,643.18Z"/></clipPath><clipPath id="clip-path-12"><path class="cls-1" d="M729,643.09l.14-1.05h-.22l0-.24h.22v0a.83.83,0,0,1,.27-.57.67.67,0,0,1,.43-.16H730l0,.24h-.14a.31.31,0,0,0-.24.1.75.75,0,0,0-.12.37v0l.34,0,0,.25h-.35l-.13,1.05Z"/></clipPath><clipPath id="clip-path-13"><path class="cls-1" d="M730.62,642.44c-.36,0-.45.12-.46.24s0,.15.17.15l.24,0Zm-.35.62c-.31,0-.46-.1-.42-.35s.27-.45.8-.51h0v0a.43.43,0,0,0,0-.19s-.07,0-.15,0a1,1,0,0,0-.46.17l0,0,0-.29h0a1.24,1.24,0,0,1,.55-.17c.19,0,.31.05.36.17a.51.51,0,0,1,0,.31l-.11.83h-.07A3,3,0,0,1,730.27,643.06Z"/></clipPath><clipPath id="clip-path-14"><path class="cls-1" d="M731.24,643l.16-1.24h0a2,2,0,0,1,.57-.13.93.93,0,0,1,.24,0h0l0,.26h0a.4.4,0,0,0-.21,0,.7.7,0,0,0-.27.06l-.14,1Z"/></clipPath><clipPath id="clip-path-15"><path class="cls-1" d="M734,642.9l.11-.83c0-.19,0-.26-.22-.26a.9.9,0,0,0-.25.06.65.65,0,0,1,0,.2l-.12.85h-.32l.11-.83c0-.2,0-.26-.24-.25a.73.73,0,0,0-.25,0l-.14,1.06h-.33l.17-1.25h0a2.39,2.39,0,0,1,.61-.11.66.66,0,0,1,.36.07,1.53,1.53,0,0,1,.45-.1.52.52,0,0,1,.42.13c.07.07.08.17.06.34l-.11.86Z"/></clipPath><clipPath id="clip-path-16"><path class="cls-1" d="M718.94,643.47l.11-.83c0-.19,0-.26-.22-.25a.74.74,0,0,0-.25.05.74.74,0,0,1,0,.2l-.11.85-.33,0,.11-.84c0-.19,0-.26-.24-.25a.81.81,0,0,0-.25,0l-.14,1.07h-.33l.17-1.26h0a3.17,3.17,0,0,1,.61-.11.66.66,0,0,1,.36.08,1.29,1.29,0,0,1,.46-.11.52.52,0,0,1,.41.13.38.38,0,0,1,.07.34l-.12.86Z"/></clipPath><clipPath id="clip-path-17"><path class="cls-1" d="M735.18,641.38l.57-.59h.3l-.64.6Zm.26.87c-.36,0-.44.13-.46.25s0,.15.17.14l.25,0Zm-.34.63c-.32,0-.46-.11-.43-.36s.27-.44.8-.51h0a.53.53,0,0,0,0-.19s-.07-.06-.15,0a.82.82,0,0,0-.46.17l0,0,0-.3h0a1.28,1.28,0,0,1,.54-.16c.19,0,.32,0,.36.16a.62.62,0,0,1,0,.32l-.11.83h-.08A4.35,4.35,0,0,1,735.1,642.88Z"/></clipPath><clipPath id="clip-path-18"><path class="cls-1" d="M736.68,642.82c-.44,0-.68-.23-.63-.64a.83.83,0,0,1,.83-.73.67.67,0,0,1,.35.06h0l0,.29-.05,0a.47.47,0,0,0-.29-.08.49.49,0,0,0-.49.46.32.32,0,0,0,.37.41.54.54,0,0,0,.34-.12l.06,0,0,.29h0a.86.86,0,0,1-.41.1"/></clipPath><clipPath id="clip-path-19"><path class="cls-1" d="M737.55,641.24l.05-.34h.34l0,.34Zm-.19,1.53.18-1.33h.33l-.18,1.33Z"/></clipPath><clipPath id="clip-path-20"><path class="cls-1" d="M738.83,642.12c-.36,0-.45.13-.46.25s0,.15.17.14l.24,0Zm-.35.63c-.31,0-.46-.11-.42-.36s.27-.44.8-.51h0a.42.42,0,0,0,0-.19s-.07-.06-.15,0a.82.82,0,0,0-.46.17l0,0,0-.3h0a1.37,1.37,0,0,1,.54-.16c.2,0,.32,0,.37.17a.51.51,0,0,1,0,.31l-.11.83H739A3,3,0,0,1,738.48,642.75Z"/></clipPath><clipPath id="clip-path-21"><path class="cls-1" d="M707.26,637.85l-.55,3.1a4.39,4.39,0,0,0,2.81-3.19Z"/></clipPath><clipPath id="clip-path-22"><path class="cls-1" d="M707.64,635.84l1.67-.07A4.14,4.14,0,0,0,708,634Z"/></clipPath><clipPath id="clip-path-23"><path class="cls-1" d="M704.88,639.62c.13-.51.31-1.36,1.88-1.7.13,0,.12-.06,0-.06l-5.09.2c0-.27.18-1.1.24-1.42.1-.5.36-.6.83-.62l2.79-.1.5-2.77a5.21,5.21,0,0,0-1.49-.15c-2.68.1-4.78,2-4.69,4.35a4.5,4.5,0,0,0,4.67,4Z"/></clipPath><clipPath id="clip-path-24"><polygon class="cls-1" points="720.88 723.11 690.35 720.7 690.64 716.95 717.11 719.03 717.02 671.89 720.79 671.89 720.88 723.11"/></clipPath><clipPath id="clip-path-25"><rect class="cls-2" x="731.04" y="708.16" width="3.76" height="27.92" transform="translate(-42.44 1398.48) rotate(-85.67)"/></clipPath><clipPath id="clip-path-26"><path class="cls-1" d="M724.55,706.44a1.88,1.88,0,0,1-1-3.5l1-.62v-1.89l-1.52-1.27a1.88,1.88,0,0,1,2.41-2.89l2.2,1.83a1.88,1.88,0,0,1,.67,1.45v3.84a1.88,1.88,0,0,1-.92,1.62l-2,1.16a1.86,1.86,0,0,1-1,.27"/></clipPath><clipPath id="clip-path-27"><path class="cls-1" d="M712.82,705.9a1.86,1.86,0,0,1-1-.27l-2-1.16a1.86,1.86,0,0,1-.92-1.61V699a1.89,1.89,0,0,1,.68-1.45l2.2-1.83a1.88,1.88,0,1,1,2.41,2.89l-1.53,1.27v1.9l1,.61a1.88,1.88,0,0,1-1,3.5"/></clipPath><clipPath id="clip-path-28"><path class="cls-2" d="M403.88,1096.57H320.36l35.56-33.82a3.3,3.3,0,0,0,0-4.94,3.73,3.73,0,0,0-5.19,0l-42,39.81a3.3,3.3,0,0,0,0,4.94l41.86,39.81a3.7,3.7,0,0,0,5.18,0,3.3,3.3,0,0,0,0-4.94l-35.37-33.82h83.52a3.52,3.52,0,1,0,0-7Z"/></clipPath><clipPath id="clip-path-29"><path class="cls-2" d="M163.29,1096.57H246.8l-35.55-33.82a3.3,3.3,0,0,1,0-4.94,3.72,3.72,0,0,1,5.18,0l42,39.81a3.3,3.3,0,0,1,0,4.94l-41.85,39.81a3.71,3.71,0,0,1-5.19,0,3.3,3.3,0,0,1,0-4.94l35.37-33.82H163.29a3.52,3.52,0,1,1,0-7Z"/></clipPath></defs><title>icons</title><path class="cls-3" d="M59.9,117.88h0l-42-.37A6.91,6.91,0,0,1,11,110.74l-.83-42.52a6.94,6.94,0,0,1,2-5.06l54.7-54.7a7,7,0,0,1,9.81,0l42.85,42.85a6.94,6.94,0,0,1,0,9.81L64.81,115.85A7,7,0,0,1,59.9,117.88ZM19,109.52l40.51.36,53.66-53.66L71.78,14.87,18.15,68.5Zm-1,0h0ZM18.14,68h0Z"/><path class="cls-3" d="M32.13,105.42a9.55,9.55,0,1,1,6.75-16.3h0a9.55,9.55,0,0,1-6.75,16.3Zm0-11.1a1.52,1.52,0,0,0-1.1.46,1.55,1.55,0,1,0,2.19,0A1.51,1.51,0,0,0,32.13,94.32Z"/><path class="cls-3" d="M10.43,121.57a4,4,0,0,1-2.83-6.83L25.37,97A4,4,0,1,1,31,102.63L13.26,120.4A4,4,0,0,1,10.43,121.57Z"/><path class="cls-3" d="M14.5,72.16,30.43,12.91A6.94,6.94,0,0,1,38.93,8l31.29,8.41ZM37.88,16,30,45.35,54.78,20.56Z"/><path class="cls-4" d="M44.19,75.61c-2.93-2.94-3-6.59-.47-9.13s6.14-2.46,9.1.5,3,6.56.49,9.1S47.12,78.54,44.19,75.61Zm6.14-6.14c-1.86-1.87-3.48-2-4.57-1s-.9,2.74.94,4.58,3.5,2,4.57.94S52.19,71.33,50.33,69.47Zm4-13.15,3-3,5.52,29.28-3,3ZM64.22,72c-2.93-2.93-3-6.59-.49-9.1s6.19-2.46,9.12.47,3,6.59.47,9.13S67.16,74.91,64.22,72Zm6.12-6.12c-1.84-1.84-3.48-2-4.57-.94s-.92,2.71.94,4.57,3.51,2,4.57,1S72.18,67.7,70.34,65.86Z"/><path class="cls-3" d="M73,41.14a3,3,0,0,1-4.24,0L65.21,37.6a3,3,0,0,1,4.25-4.24L73,36.89A3,3,0,0,1,73,41.14Z"/><path class="cls-3" d="M94.64,62.79a3,3,0,0,1-4.24,0l-3.54-3.54A3,3,0,1,1,91.11,55l3.53,3.53A3,3,0,0,1,94.64,62.79Z"/><path class="cls-3" d="M83.82,52a3,3,0,0,1-4.25,0L76,48.43a3,3,0,1,1,4.24-4.25l3.54,3.54A3,3,0,0,1,83.82,52Z"/><path class="cls-5" d="M758,727.62h-.16l-11-.91a1.88,1.88,0,0,1-1.73-1.88V680.5a6.43,6.43,0,0,0-1.71-4.91,6.62,6.62,0,0,0-4.5-1.46h-.17l-47.55-.53v46.91a1.88,1.88,0,0,1-.61,1.38,1.85,1.85,0,0,1-1.42.49l-9.25-.73a1.87,1.87,0,0,1-1.73-1.89c0-.3.27-29.77.21-36.75a14.85,14.85,0,0,1,3.35-9.34h-5.89A3.57,3.57,0,0,1,672.6,671a2.1,2.1,0,0,1-.08-.56v-6.09c0-3,1.89-4.31,3-4.58a2.57,2.57,0,0,1,.4,0l67.22-.91h.26c15.86,2,16.66,15.93,16.66,16.07a.28.28,0,0,1,0,.09l-.19,50.74a1.87,1.87,0,0,1-1.88,1.87Zm-9.11-4.53,7.24.61.17-48.65c0-.78-.94-10.82-13.24-12.45l-66.61.91a1.66,1.66,0,0,0-.18.87v5.54H686.4a1.85,1.85,0,0,1,1.42.66,2,2,0,0,1,.18-.21,1.86,1.86,0,0,1,1.35-.54l49.38.55a10.29,10.29,0,0,1,7.22,2.41c2,1.79,2.95,4.39,2.95,7.71Zm-66.93-5,5.48.43V673.36h0c-.05,0-5.32,3.68-5.27,9.63S682,711.56,682,718.05Z"/><g class="cls-6"><rect class="cls-2" x="-3825.26" y="-1856.31" width="6348.4" height="5052.27"/></g><path class="cls-5" d="M763.13,724.15h-3.77V674.54c-.09-1-1.3-11.31-12-12.13l.28-3.75c11.42.87,15.13,10.62,15.5,15.66v49.83Z"/><g class="cls-7"><rect class="cls-2" x="-3825.26" y="-1856.31" width="6348.4" height="5052.27"/></g><path class="cls-5" d="M683.53,656.62a1.88,1.88,0,0,1-1.88-1.87l-.13-19.84a1.9,1.9,0,0,1,1.83-1.9l9.64-.3h.1l3.41.06a1.88,1.88,0,1,1-.06,3.76l-3.38-.06-7.76.25.11,18a1.89,1.89,0,0,1-1.87,1.9Z"/><g class="cls-8"><rect class="cls-2" x="-3825.26" y="-1856.31" width="6348.4" height="5052.27"/></g><path class="cls-5" d="M699.16,649.54h-.46a5,5,0,0,1-4.15-1.77,4.52,4.52,0,0,1-.8-3.49l.84-9.68c-.08-2.54.61-4.44,2.06-5.65a6.1,6.1,0,0,1,4.7-1.2l41.85-2,.23,0c2.51.5,4.25,1.52,5.19,3a4.48,4.48,0,0,1,.64,3.1c-.12,1.41-.78,9.73-1.45,12.35a5.8,5.8,0,0,1-4.77,4.34h-.19c-1.59,0-37.91.92-43.69.92m1.21-18.09a2,2,0,0,0-1.31.39,3.58,3.58,0,0,0-.71,2.73v.12L697.44,645a.83.83,0,0,0,.09.49c.1.13.49.29,1.23.3,3.65.07,41.35-.85,43.87-.91a2,2,0,0,0,1.53-1.52c.52-2,1.15-9.22,1.35-11.83l0-.31c0-.54-.81-1.27-2.65-1.68l-41.83,2-.22,0s-.23,0-.48,0"/><g class="cls-9"><rect class="cls-2" x="-3825.26" y="-1856.31" width="6348.4" height="5052.27"/></g><path class="cls-5" d="M735.84,634.63a1.21,1.21,0,0,0-.93-.27,1.67,1.67,0,0,0-1,.4,2.14,2.14,0,0,0-.62,1.24l0,.17s1.1,0,2-.06c.5,0,.79-.16.85-.6a1,1,0,0,0-.2-.88m1.83,1a1.43,1.43,0,0,1-.61,1.08,2.71,2.71,0,0,1-1.42.4,9,9,0,0,1-1.86,0c-.38-.07-.51-.65-.56-.81a4.08,4.08,0,0,0-.07,1.09,1.11,1.11,0,0,0,.49,1,2.16,2.16,0,0,0,1.22.24c.33,0,.66,0,1-.07a8,8,0,0,0,.81-.11h0c.07,0,.14,0,.13.11l-.11.83c0,.06,0,.1-.11.13a6.84,6.84,0,0,1-1.06.25,8.27,8.27,0,0,1-1.07.11,4.73,4.73,0,0,1-1.54-.15,2.12,2.12,0,0,1-1-.59,2.07,2.07,0,0,1-.45-1,4.14,4.14,0,0,1,0-1.37l.05-.41a3.91,3.91,0,0,1,1-2.33,3.64,3.64,0,0,1,2.51-.92,2.53,2.53,0,0,1,2.07.64,2.26,2.26,0,0,1,.47,1.92m-22.43-1.74-4.46.17c-.29,0-.38.21-.43.49s-.08.58-.1.82.08.32.29.31h.39l1.4-.06c.11,0,0,0,0,.06a2.34,2.34,0,0,0-1.29,1.89c0,.21-.34,2.67-.34,2.67a.81.81,0,0,0,0,.15c0,.23.13.28.22.28l.9,0h.08c.35,0,.44-.11.49-.47.06-.51.54-4.27.57-4.56l1,0c.48,0,1.06-.07,1.33.26s.23.7.16,1.26l-.37,3a.89.89,0,0,0,0,.15c0,.23.14.28.23.28l.89,0h.09c.34,0,.44-.11.48-.46,0-.13.48-3.77.52-4a1.88,1.88,0,0,0-2.08-2.07m25-.33c0-.24,0-.66-.47-.64l-.81,0a.42.42,0,0,0-.4.35l-.73,5.89c0,.32.06.44.21.43l1.17,0a.35.35,0,0,0,.32-.29l.09-.7s.24-1.92.44-3.5a.31.31,0,0,0-.35-.37l-1,0h-.08c.5-.09,1.48-.53,1.56-1.19m-20.63,1.93-1,0h-.1s0,0,0,0c.51-.1,1.48-.54,1.57-1.2,0-.24,0-.65-.48-.64l-.81,0a.42.42,0,0,0-.4.35l-.73,5.89c0,.32.06.44.22.43l1.17-.05a.34.34,0,0,0,.32-.28l.09-.7s.23-1.92.43-3.51a.3.3,0,0,0-.34-.36m11.3-2.06a4.76,4.76,0,0,0-.9-.18,9.6,9.6,0,0,0-1.08,0,4.46,4.46,0,0,0-1,.15,2.56,2.56,0,0,0-.8.37,2.14,2.14,0,0,0-.56.6,2.08,2.08,0,0,0-.28.86,1.38,1.38,0,0,0,.25,1.11,2.4,2.4,0,0,0,1,.69l1,.38a1.57,1.57,0,0,1,.45.27.42.42,0,0,1,.14.42.61.61,0,0,1-.3.49,1.61,1.61,0,0,1-.76.17h-1c-.38,0-.73,0-1-.06h0a.1.1,0,0,0-.11.1s0,0,0,0l-.11.93c0,.11,0,.16.12.18.36.07.73.12,1.12.16a8.25,8.25,0,0,0,1.23,0,3.3,3.3,0,0,0,1.85-.57,2,2,0,0,0,.82-1.43,1.54,1.54,0,0,0-.24-1.14,2.16,2.16,0,0,0-1-.72l-1-.4a2.62,2.62,0,0,1-.45-.23.4.4,0,0,1-.15-.41.58.58,0,0,1,.31-.48,1.9,1.9,0,0,1,.69-.12,6.46,6.46,0,0,1,.88,0c.29,0,.58,0,.86.06h.07a.11.11,0,0,0,.1-.09c0-.06,0,0,0,0l.12-.93c0-.12-.08-.16-.15-.18m-5.37,1.35s-.06.09-.1.09h-.06a8.28,8.28,0,0,0-.87-.07h-.88a1.92,1.92,0,0,0-.69.13.56.56,0,0,0-.3.47.39.39,0,0,0,.14.42,3.16,3.16,0,0,0,.45.22l1,.41a2.16,2.16,0,0,1,1,.72,1.5,1.5,0,0,1,.24,1.13,2,2,0,0,1-.82,1.44,3.3,3.3,0,0,1-1.85.57q-.64,0-1.23,0c-.39,0-.76-.1-1.12-.17-.1,0-.14-.07-.12-.17l.11-.93s0,0,0,0a.09.09,0,0,1,.11-.09h0a7.94,7.94,0,0,0,1,.06h1a1.74,1.74,0,0,0,.76-.17.62.62,0,0,0,.31-.49.46.46,0,0,0-.15-.43,1.67,1.67,0,0,0-.45-.26l-1-.38a2.47,2.47,0,0,1-1-.69,1.41,1.41,0,0,1-.25-1.12,2.08,2.08,0,0,1,.28-.86,2.14,2.14,0,0,1,.56-.6,2.54,2.54,0,0,1,.8-.36,3.94,3.94,0,0,1,1-.15,6.35,6.35,0,0,1,1.07,0,3.76,3.76,0,0,1,.91.18c.06,0,.15.06.14.17l-.12.93s0,0,0,0"/><g class="cls-10"><rect class="cls-2" x="-3825.26" y="-1856.31" width="6348.4" height="5052.27"/></g><path class="cls-5" d="M720.45,642.82c-.36,0-.44.13-.46.25s0,.15.17.14l.24,0Zm-.35.63q-.47,0-.42-.36c0-.29.27-.44.8-.51h0a.53.53,0,0,0,0-.19s-.07-.06-.15,0a.9.9,0,0,0-.46.17l0,0,0-.3h0a1.36,1.36,0,0,1,.55-.16c.19,0,.31,0,.36.17a.57.57,0,0,1,0,.31l-.11.83h-.08A3,3,0,0,1,720.1,643.45Z"/><g class="cls-11"><rect class="cls-2" x="-3825.26" y="-1856.31" width="6348.4" height="5052.27"/></g><path class="cls-5" d="M721.26,641.86l0-.34h.34l0,.34Zm-.19,1.53.18-1.33h.32l-.17,1.33Z"/><g class="cls-12"><rect class="cls-2" x="-3825.26" y="-1856.31" width="6348.4" height="5052.27"/></g><path class="cls-5" d="M722.11,643.39a.76.76,0,0,1-.36-.06h0l0-.32,0,0a.49.49,0,0,0,.32.1c.14,0,.23-.06.24-.15a.14.14,0,0,0-.07-.12.91.91,0,0,0-.17-.08c-.23-.1-.31-.2-.29-.37a.54.54,0,0,1,.57-.42.68.68,0,0,1,.35.06h0l0,.3,0,0a.43.43,0,0,0-.29-.08c-.13,0-.22.06-.23.14s0,.09.2.17a.6.6,0,0,1,.25.15.31.31,0,0,1,.08.25.56.56,0,0,1-.6.43"/><g class="cls-13"><rect class="cls-2" x="-3825.26" y="-1856.31" width="6348.4" height="5052.27"/></g><path class="cls-5" d="M724.46,642.17a.52.52,0,0,0-.55.46c0,.28.09.42.38.41l.19,0,.11-.83Zm-.1,1.75.09-.67a.73.73,0,0,1-.25,0c-.44,0-.67-.22-.62-.63a.88.88,0,0,1,.95-.74,1.33,1.33,0,0,1,.39,0h0l-.26,2Z"/><g class="cls-14"><rect class="cls-2" x="-3825.26" y="-1856.31" width="6348.4" height="5052.27"/></g><path class="cls-5" d="M725.76,643.23a.57.57,0,0,1-.44-.1c-.09-.08-.12-.19-.09-.39l.11-.83.33,0-.11.82c0,.21,0,.27.26.27l.23,0,.15-1.08h.32l-.17,1.29h0a3.67,3.67,0,0,1-.57.08"/><g class="cls-15"><rect class="cls-2" x="-3825.26" y="-1856.31" width="6348.4" height="5052.27"/></g><path class="cls-5" d="M727.75,642.29c0-.17-.09-.24-.25-.23a.39.39,0,0,0-.37.25Zm-.37.89c-.45,0-.68-.22-.63-.63a.83.83,0,0,1,.78-.75.5.5,0,0,1,.48.22.57.57,0,0,1,0,.41v.09l-1,0v0c0,.23.11.37.38.36a.85.85,0,0,0,.45-.16l.06,0,0,.29h0A1,1,0,0,1,727.38,643.18Z"/><g class="cls-16"><rect class="cls-2" x="-3825.26" y="-1856.31" width="6348.4" height="5052.27"/></g><path class="cls-5" d="M729,643.09l.14-1.05h-.22l0-.24h.22v0a.83.83,0,0,1,.27-.57.67.67,0,0,1,.43-.16H730l0,.24h-.14a.31.31,0,0,0-.24.1.75.75,0,0,0-.12.37v0l.34,0,0,.25h-.35l-.13,1.05Z"/><g class="cls-17"><rect class="cls-2" x="-3825.26" y="-1856.31" width="6348.4" height="5052.27"/></g><path class="cls-5" d="M730.62,642.44c-.36,0-.45.12-.46.24s0,.15.17.15l.24,0Zm-.35.62c-.31,0-.46-.1-.42-.35s.27-.45.8-.51h0v0a.43.43,0,0,0,0-.19s-.07,0-.15,0a1,1,0,0,0-.46.17l0,0,0-.29h0a1.24,1.24,0,0,1,.55-.17c.19,0,.31.05.36.17a.51.51,0,0,1,0,.31l-.11.83h-.07A3,3,0,0,1,730.27,643.06Z"/><g class="cls-18"><rect class="cls-2" x="-3825.26" y="-1856.31" width="6348.4" height="5052.27"/></g><path class="cls-5" d="M731.24,643l.16-1.24h0a2,2,0,0,1,.57-.13.93.93,0,0,1,.24,0h0l0,.26h0a.4.4,0,0,0-.21,0,.7.7,0,0,0-.27.06l-.14,1Z"/><g class="cls-19"><rect class="cls-2" x="-3825.26" y="-1856.31" width="6348.4" height="5052.27"/></g><path class="cls-5" d="M734,642.9l.11-.83c0-.19,0-.26-.22-.26a.9.9,0,0,0-.25.06.65.65,0,0,1,0,.2l-.12.85h-.32l.11-.83c0-.2,0-.26-.24-.25a.73.73,0,0,0-.25,0l-.14,1.06h-.33l.17-1.25h0a2.39,2.39,0,0,1,.61-.11.66.66,0,0,1,.36.07,1.53,1.53,0,0,1,.45-.1.52.52,0,0,1,.42.13c.07.07.08.17.06.34l-.11.86Z"/><g class="cls-20"><rect class="cls-2" x="-3825.26" y="-1856.31" width="6348.4" height="5052.27"/></g><path class="cls-5" d="M718.94,643.47l.11-.83c0-.19,0-.26-.22-.25a.74.74,0,0,0-.25.05.74.74,0,0,1,0,.2l-.11.85-.33,0,.11-.84c0-.19,0-.26-.24-.25a.81.81,0,0,0-.25,0l-.14,1.07h-.33l.17-1.26h0a3.17,3.17,0,0,1,.61-.11.66.66,0,0,1,.36.08,1.29,1.29,0,0,1,.46-.11.52.52,0,0,1,.41.13.38.38,0,0,1,.07.34l-.12.86Z"/><g class="cls-21"><rect class="cls-2" x="-3825.26" y="-1856.31" width="6348.4" height="5052.27"/></g><path class="cls-5" d="M735.18,641.38l.57-.59h.3l-.64.6Zm.26.87c-.36,0-.44.13-.46.25s0,.15.17.14l.25,0Zm-.34.63c-.32,0-.46-.11-.43-.36s.27-.44.8-.51h0a.53.53,0,0,0,0-.19s-.07-.06-.15,0a.82.82,0,0,0-.46.17l0,0,0-.3h0a1.28,1.28,0,0,1,.54-.16c.19,0,.32,0,.36.16a.62.62,0,0,1,0,.32l-.11.83h-.08A4.35,4.35,0,0,1,735.1,642.88Z"/><g class="cls-22"><rect class="cls-2" x="-3825.26" y="-1856.31" width="6348.4" height="5052.27"/></g><path class="cls-5" d="M736.68,642.82c-.44,0-.68-.23-.63-.64a.83.83,0,0,1,.83-.73.67.67,0,0,1,.35.06h0l0,.29-.05,0a.47.47,0,0,0-.29-.08.49.49,0,0,0-.49.46.32.32,0,0,0,.37.41.54.54,0,0,0,.34-.12l.06,0,0,.29h0a.86.86,0,0,1-.41.1"/><g class="cls-23"><rect class="cls-2" x="-3825.26" y="-1856.31" width="6348.4" height="5052.27"/></g><path class="cls-5" d="M737.55,641.24l.05-.34h.34l0,.34Zm-.19,1.53.18-1.33h.33l-.18,1.33Z"/><g class="cls-24"><rect class="cls-2" x="-3825.26" y="-1856.31" width="6348.4" height="5052.27"/></g><path class="cls-5" d="M738.83,642.12c-.36,0-.45.13-.46.25s0,.15.17.14l.24,0Zm-.35.63c-.31,0-.46-.11-.42-.36s.27-.44.8-.51h0a.42.42,0,0,0,0-.19s-.07-.06-.15,0a.82.82,0,0,0-.46.17l0,0,0-.3h0a1.37,1.37,0,0,1,.54-.16c.2,0,.32,0,.37.17a.51.51,0,0,1,0,.31l-.11.83H739A3,3,0,0,1,738.48,642.75Z"/><g class="cls-25"><rect class="cls-2" x="-3825.26" y="-1856.31" width="6348.4" height="5052.27"/></g><path class="cls-5" d="M707.26,637.85l-.55,3.1a4.39,4.39,0,0,0,2.81-3.19Z"/><g class="cls-26"><rect class="cls-2" x="-3825.26" y="-1856.31" width="6348.4" height="5052.27"/></g><path class="cls-5" d="M707.64,635.84l1.67-.07A4.14,4.14,0,0,0,708,634Z"/><g class="cls-27"><rect class="cls-2" x="-3825.26" y="-1856.31" width="6348.4" height="5052.27"/></g><path class="cls-5" d="M704.88,639.62c.13-.51.31-1.36,1.88-1.7.13,0,.12-.06,0-.06l-5.09.2c0-.27.18-1.1.24-1.42.1-.5.36-.6.83-.62l2.79-.1.5-2.77a5.21,5.21,0,0,0-1.49-.15c-2.68.1-4.78,2-4.69,4.35a4.5,4.5,0,0,0,4.67,4Z"/><g class="cls-28"><rect class="cls-2" x="-3825.26" y="-1856.31" width="6348.4" height="5052.27"/></g><polygon class="cls-5" points="720.88 723.11 690.35 720.7 690.64 716.95 717.11 719.03 717.02 671.89 720.79 671.89 720.88 723.11"/><g class="cls-29"><rect class="cls-2" x="-3825.26" y="-1856.31" width="6348.4" height="5052.27"/></g><rect class="cls-2" x="731.04" y="708.16" width="3.76" height="27.92" transform="translate(-42.44 1398.48) rotate(-85.67)"/><g class="cls-30"><rect class="cls-2" x="-3825.26" y="-1856.31" width="6348.4" height="5052.27"/></g><path class="cls-5" d="M724.55,706.44a1.88,1.88,0,0,1-1-3.5l1-.62v-1.89l-1.52-1.27a1.88,1.88,0,0,1,2.41-2.89l2.2,1.83a1.88,1.88,0,0,1,.67,1.45v3.84a1.88,1.88,0,0,1-.92,1.62l-2,1.16a1.86,1.86,0,0,1-1,.27"/><g class="cls-31"><rect class="cls-2" x="-3825.26" y="-1856.31" width="6348.4" height="5052.27"/></g><path class="cls-5" d="M712.82,705.9a1.86,1.86,0,0,1-1-.27l-2-1.16a1.86,1.86,0,0,1-.92-1.61V699a1.89,1.89,0,0,1,.68-1.45l2.2-1.83a1.88,1.88,0,1,1,2.41,2.89l-1.53,1.27v1.9l1,.61a1.88,1.88,0,0,1-1,3.5"/><g class="cls-32"><rect class="cls-2" x="-3825.26" y="-1856.31" width="6348.4" height="5052.27"/></g><path class="cls-2" d="M403.88,1096.57H320.36l35.56-33.82a3.3,3.3,0,0,0,0-4.94,3.73,3.73,0,0,0-5.19,0l-42,39.81a3.3,3.3,0,0,0,0,4.94l41.86,39.81a3.7,3.7,0,0,0,5.18,0,3.3,3.3,0,0,0,0-4.94l-35.37-33.82h83.52a3.52,3.52,0,1,0,0-7Z"/><g class="cls-33"><rect class="cls-2" x="-392.42" y="-1636.58" width="9600" height="25640"/></g><path class="cls-2" d="M163.29,1096.57H246.8l-35.55-33.82a3.3,3.3,0,0,1,0-4.94,3.72,3.72,0,0,1,5.18,0l42,39.81a3.3,3.3,0,0,1,0,4.94l-41.85,39.81a3.71,3.71,0,0,1-5.19,0,3.3,3.3,0,0,1,0-4.94l35.37-33.82H163.29a3.52,3.52,0,1,1,0-7Z"/><g class="cls-34"><rect class="cls-2" x="-8640.42" y="-1636.58" width="9600" height="25640"/></g></svg>