<?xml version="1.0" encoding="utf-8"?>
<!-- Generator: Adobe Illustrator 23.0.6, SVG Export Plug-In . SVG Version: 6.00 Build 0)  -->
<svg version="1.1" id="Layer_1" xmlns="http://www.w3.org/2000/svg" xmlns:xlink="http://www.w3.org/1999/xlink" x="0px" y="0px"
	 viewBox="0 0 128 128" style="enable-background:new 0 0 128 128;" xml:space="preserve">
<style type="text/css">
	.st0{fill:#333333;}
</style>
<title>icon_like</title>
<path class="st0" d="M68.8,15.3c5.3,1.2,8.3,4.6,9.4,9.7c0.2,1.3,0.3,2.6,0.3,3.9c0,6.2,0,12.5,0,18.7v1.2h1.2
	c7.7,0,15.4,0.1,23.1,0c5.4-0.1,9.4,2.3,12.4,6.6c2.7,4.2,4.5,8.9,5.3,13.8c1.7,8.9,1,18-2,26.3c-1.7,5.4-5.1,10.1-9.7,13.4
	c-3,1.9-6.5,3.1-10,3.5c-7.8,1.3-15.4,0.1-22.9-2c-7-2-13.8-4.4-20.7-6.5c-3.7-1.2-7.4-2.1-11.3-2.7c-2.3-0.2-4.7-0.2-7.1-0.1v2
	c0.1,2.3-1.5,4.3-3.8,4.5c-0.2,0-0.4,0-0.5,0c-7.1,0-14.3,0-21.5,0c-2.3,0.2-4.3-1.5-4.5-3.8c0-0.2,0-0.4,0-0.7V53.7
	c-0.2-2.3,1.5-4.3,3.8-4.5c0.2,0,0.4,0,0.7,0h21.4c2.3-0.2,4.4,1.4,4.6,3.7c0,0.1,0,0.3,0,0.4c0,0.1,0.1,0.3,0.1,0.4
	c1.4-0.9,2.8-1.6,4.2-2.6c6.2-4.5,10.8-10.9,13.1-18.4c0.3-1.4,0.5-2.8,0.5-4.4c0-2.7,0.8-5.5,2.2-7.8c1.9-3,4.8-4.9,8.3-5.4
	C66.6,15.1,67.8,15.1,68.8,15.3z M37,95.1c2.1,0,4,0,5.9,0c0.5,0,1,0,1.6,0.1c3.3,0.7,6.7,1.4,9.9,2.3c7,2.1,14,4.5,21,6.6
	c7.3,2.4,15.2,3.2,22.9,2.4c5.1-0.7,9.2-2.8,11.9-7.3c1.4-2.3,2.5-4.7,3.3-7.2c2.3-7.7,2.5-15.9,0.7-23.5c-0.7-3.6-2.2-7-4.4-10
	c-1.5-2.1-3.9-3.2-6.5-3.1c-9,0.1-17.8,0-26.8,0c-2.8,0-4-1-4-3.9V28.9c0.1-1.6-0.2-3.3-1-4.7c-1.4-2.6-4.5-3.7-7.1-2.3
	c-0.7,0.3-1.4,0.9-1.9,1.6c-0.9,1.3-1.4,2.6-1.3,4.2c0,2.5-0.3,5-1,7.4c-2,6.3-5.5,12-10.2,16.8c-3.3,3.6-7.3,6.3-11.8,8.1
	c-0.8,0.1-1.3,0.9-1.2,1.7c0,10.8,0,21.5,0,32.3L37,95.1z M30.8,101.4V55.3H12.9v46.1H30.8z"/>
</svg>
