<svg width="17" height="17" viewBox="0 0 17 17" fill="none" xmlns="http://www.w3.org/2000/svg">
<path d="M10.0269 6.98804V1.52466C10.0269 1.10115 9.87425 0.745391 9.56886 0.457399C9.28044 0.152466 8.92415 0 8.5 0C8.07585 0 7.71956 0.152466 7.43114 0.457399C7.14271 0.745391 6.9985 1.10115 6.9985 1.52466V6.98804H1.52695C1.10279 6.98804 0.738024 7.13204 0.432635 7.42003C0.144212 7.72496 0 8.08072 0 8.48729C0 8.91081 0.144212 9.27504 0.432635 9.57997C0.738024 9.86796 1.10279 10.012 1.52695 10.012H6.9985V15.4753C6.9985 15.8989 7.14271 16.2546 7.43114 16.5426C7.71956 16.8475 8.07585 17 8.5 17C8.92415 17 9.28044 16.8475 9.56886 16.5426C9.87425 16.2546 10.0269 15.8989 10.0269 15.4753V10.012H15.4985C15.9057 10.012 16.262 9.86796 16.5674 9.57997C16.8558 9.27504 17 8.91081 17 8.48729C17 8.08072 16.8558 7.72496 16.5674 7.42003C16.262 7.13204 15.9057 6.98804 15.4985 6.98804H10.0269Z" fill="#444444"/>
</svg>
