<svg width="126" height="111" viewBox="0 0 126 111" fill="none" xmlns="http://www.w3.org/2000/svg">
<path d="M107.424 37.597C110.941 36.2661 114.459 34.9216 117.976 33.5907C118.479 33.4006 118.981 33.2105 119.47 33.0204C120.801 32.5179 121.847 31.1598 121.371 29.6796C120.95 28.3894 119.456 27.2487 118.03 27.7783C114.513 29.1092 110.996 30.4536 107.478 31.7845C106.976 31.9747 106.473 32.1648 105.985 32.3549C104.654 32.8574 103.608 34.2154 104.083 35.6957C104.504 36.9994 106.012 38.1402 107.424 37.597Z" fill="#F7BF20"/>
<path d="M97.2931 19.2905C99.9005 16.5744 102.508 13.8583 105.115 11.1422C105.482 10.762 105.849 10.3681 106.229 9.98787C107.207 8.95576 107.329 7.14955 106.229 6.1446C105.17 5.1668 103.445 5.04458 102.386 6.1446C99.7783 8.86069 97.1708 11.5768 94.5634 14.2929C94.1967 14.6731 93.83 15.067 93.4498 15.4472C92.472 16.4793 92.3498 18.2855 93.4498 19.2905C94.5091 20.2683 96.2338 20.3905 97.2931 19.2905Z" fill="#F7BF20"/>
<path d="M109.909 58.3887C113.658 58.6874 117.419 58.9998 121.168 59.2986C121.697 59.3393 122.227 59.38 122.77 59.4344C124.196 59.543 125.554 58.1035 125.486 56.7183C125.418 55.1429 124.291 54.1244 122.77 54.0022C119.022 53.7034 115.26 53.391 111.512 53.0923C110.982 53.0515 110.453 53.0108 109.909 52.9565C108.483 52.8478 107.125 54.2874 107.193 55.6726C107.261 57.2479 108.388 58.2664 109.909 58.3887Z" fill="#F7BF20"/>
<path d="M57.1899 102.131C56.6603 101.127 56.1306 100.108 55.601 99.103C54.2158 96.4684 52.8306 93.8202 51.4454 91.1856C51.3231 90.9547 51.2009 90.7103 51.0787 90.4794C52.1651 89.0535 53.2923 87.5732 53.7676 85.8485C54.2294 84.1509 54.1479 82.3176 53.5232 80.6743C53.1972 79.8052 52.8577 78.936 52.5318 78.0669C52.4367 77.8088 52.3417 77.5508 52.233 77.2928C54.5689 76.4101 56.9047 75.5137 59.2406 74.631C59.0912 74.2372 58.9418 73.8298 58.7924 73.4359C58.6973 73.2051 58.6159 72.9742 58.5208 72.7298C58.2763 72.0915 58.0455 71.4668 57.801 70.8285C56.5652 67.5556 55.3158 64.2963 54.08 61.0234C52.2738 56.2702 50.4676 51.5035 48.6614 46.7503C47.8873 44.6996 47.0996 42.6354 46.3255 40.5848C46.0811 39.9465 45.8502 39.3218 45.6058 38.6835C45.3613 38.0452 45.1304 37.4205 44.886 36.7822C43.4465 37.3254 42.0069 37.8687 40.5674 38.4119C35.8007 40.2181 31.0475 42.0243 26.2807 43.8305C22.4782 45.27 18.6757 46.7231 14.8731 48.1627C13.7052 48.6108 12.5101 48.9775 11.5323 49.7923C9.83478 51.2047 9.18291 53.7035 9.91626 55.7813C9.98416 55.9714 10.0521 56.1616 10.1335 56.3517C8.38167 57.0036 6.62978 57.6554 4.90506 58.348C2.06674 59.4616 0.0975744 61.9604 0.0025111 65.0704C-0.0382303 66.4556 0.423506 67.6507 0.898822 68.9001C2.10748 72.0779 3.31615 75.2557 4.52481 78.4336C4.83716 79.2484 5.13593 80.0632 5.44828 80.878C6.62978 83.8114 9.59033 85.8485 12.8225 85.5361C14.5472 85.3732 16.1904 84.5583 17.8065 83.9472C18.6213 83.6349 19.4362 83.3225 20.2646 83.0102C20.2917 83.0781 20.3189 83.1596 20.3461 83.2275C21.514 86.2016 24.6511 87.7362 27.6795 86.5818C28.3721 86.3238 29.0512 86.0522 29.7438 85.7942C32.0389 90.3165 34.334 94.8252 36.6426 99.3475C38.1093 102.24 39.576 105.119 41.0563 108.012C41.3279 108.541 41.5724 109.085 41.8575 109.601C42.523 110.742 43.8946 111.271 45.144 110.864C45.5922 110.714 46.0132 110.538 46.4477 110.361C49.612 109.166 52.7627 107.958 55.9269 106.762C55.9812 106.749 56.022 106.722 56.0763 106.695C56.1985 106.654 56.3072 106.613 56.4158 106.545C57.8553 105.785 58.1813 104.101 57.5023 102.729C57.4208 102.539 57.2985 102.335 57.1899 102.131Z" fill="#F7BF20"/>
<path d="M108.809 77.2383C108.769 77.1297 108.728 77.0346 108.687 76.926C108.443 76.2877 108.198 75.6494 107.967 75.0111C106.949 72.3358 105.93 69.6469 104.912 66.9715C103.391 62.9788 101.883 58.9726 100.362 54.9799C98.5696 50.2675 96.7906 45.5687 94.9979 40.8562C93.2053 36.1167 91.3991 31.3771 89.6065 26.6511C88.0311 22.4819 86.4422 18.3262 84.8669 14.1706C83.7533 11.2508 82.6533 8.331 81.5397 5.41119C81.2409 4.62352 80.9421 3.83586 80.6434 3.04819C80.3582 2.30126 80.1137 1.52718 79.5433 0.956797C78.2125 -0.36051 75.9309 -0.319768 74.6951 1.0926C74.5457 1.25557 74.4099 1.44569 74.2741 1.62224C73.5544 2.53213 72.821 3.44202 72.1012 4.3655C69.4395 7.71987 66.7641 11.0743 64.1023 14.4286C60.9653 18.367 57.8282 22.3189 54.6911 26.2572C52.8849 28.5252 51.0787 30.8067 49.2725 33.0746C49.4626 33.5907 49.6663 34.1067 49.8564 34.6228C49.9379 34.8401 50.0194 35.0574 50.1009 35.2747C50.3725 36.008 50.6577 36.7414 50.9429 37.4747C52.1515 40.6525 53.3602 43.8439 54.5688 47.0218C56.3751 51.7749 58.1813 56.5417 59.9875 61.2949C61.1011 64.2282 62.2147 67.1752 63.3283 70.1086C63.6134 70.8419 63.8851 71.5753 64.1702 72.3086C64.2789 72.5938 64.3875 72.8654 64.4826 73.1506C64.6591 73.6124 64.8221 74.0605 64.9987 74.5222C65.0394 74.5358 65.0801 74.5358 65.1209 74.5494C69.4259 75.3099 73.7309 76.0568 78.0495 76.8173C83.02 77.6865 87.9904 78.5556 92.9473 79.4248C96.4103 80.0359 99.8733 80.6335 103.336 81.2446C103.852 81.3396 104.355 81.4211 104.871 81.5162C104.966 81.5298 105.047 81.5434 105.143 81.5434C105.224 81.5569 105.319 81.5705 105.414 81.5841C107.723 81.8285 109.488 79.3976 108.809 77.2383Z" fill="#F7BF20"/>
</svg>
