<svg id="Layer_1" data-name="Layer 1" xmlns="http://www.w3.org/2000/svg" xmlns:xlink="http://www.w3.org/1999/xlink" viewBox="0 0 127.75 127.75"><defs><style>.cls-1,.cls-2,.cls-4{fill:#8a9297;}.cls-1{clip-rule:evenodd;}.cls-3{fill:none;}.cls-4{fill-rule:evenodd;}.cls-5{clip-path:url(#clip-path);}.cls-6{clip-path:url(#clip-path-2);}.cls-7{clip-path:url(#clip-path-3);}.cls-8{clip-path:url(#clip-path-4);}.cls-9{clip-path:url(#clip-path-5);}.cls-10{clip-path:url(#clip-path-6);}.cls-11{clip-path:url(#clip-path-7);}.cls-12{clip-path:url(#clip-path-8);}.cls-13{clip-path:url(#clip-path-9);}.cls-14{clip-path:url(#clip-path-10);}.cls-15{clip-path:url(#clip-path-11);}.cls-16{clip-path:url(#clip-path-12);}.cls-17{clip-path:url(#clip-path-13);}.cls-18{clip-path:url(#clip-path-14);}.cls-19{clip-path:url(#clip-path-15);}.cls-20{clip-path:url(#clip-path-16);}.cls-21{clip-path:url(#clip-path-17);}.cls-22{clip-path:url(#clip-path-18);}.cls-23{clip-path:url(#clip-path-19);}.cls-24{clip-path:url(#clip-path-20);}.cls-25{clip-path:url(#clip-path-21);}.cls-26{clip-path:url(#clip-path-22);}.cls-27{clip-path:url(#clip-path-23);}.cls-28{clip-path:url(#clip-path-24);}.cls-29{clip-path:url(#clip-path-25);}.cls-30{clip-path:url(#clip-path-26);}.cls-31{clip-path:url(#clip-path-27);}.cls-32{clip-path:url(#clip-path-28);}.cls-33{clip-path:url(#clip-path-29);}.cls-34{clip-path:url(#clip-path-30);}</style><clipPath id="clip-path"><path class="cls-1" d="M-50.52-21.17h-.15l-11-.92A1.88,1.88,0,0,1-63.39-24V-68.29A6.39,6.39,0,0,0-65.1-73.2a6.66,6.66,0,0,0-4.49-1.46h-.18l-47.55-.53v46.91a1.87,1.87,0,0,1-.6,1.38,1.94,1.94,0,0,1-1.43.5l-9.25-.74A1.87,1.87,0,0,1-130.33-29c0-.3.27-29.77.21-36.75a14.85,14.85,0,0,1,3.35-9.34h-5.89a3.54,3.54,0,0,1-3.26-2.65,1.77,1.77,0,0,1-.09-.56v-6.09c0-3,1.89-4.31,3-4.58a2.73,2.73,0,0,1,.4-.05l67.22-.91h.26c15.86,2,16.66,15.93,16.67,16.07v.09L-48.64-23a1.88,1.88,0,0,1-.61,1.38A1.85,1.85,0,0,1-50.52-21.17Zm-9.11-4.53,7.24.61.17-48.64c-.05-.78-.94-10.83-13.24-12.46l-66.61.91a1.66,1.66,0,0,0-.18.87v5.54h10.12a1.88,1.88,0,0,1,1.43.66,1.18,1.18,0,0,1,.18-.21,1.82,1.82,0,0,1,1.34-.54l49.38.55A10.33,10.33,0,0,1-62.58-76c2,1.79,2.95,4.39,2.95,7.71Zm-66.92-5,5.47.43V-75.43h0s-5.32,3.67-5.26,9.62S-126.5-37.23-126.55-30.74Z"/></clipPath><clipPath id="clip-path-2"><path class="cls-1" d="M-45.4-24.64h-3.76V-74.25c-.09-1-1.31-11.31-12-12.13l.28-3.75c11.42.87,15.14,10.62,15.51,15.66v49.83Z"/></clipPath><clipPath id="clip-path-3"><path class="cls-1" d="M-125-92.17A1.88,1.88,0,0,1-126.88-94l-.12-19.84a1.89,1.89,0,0,1,1.82-1.9l9.64-.3h.1l3.42.06a1.88,1.88,0,0,1,1.84,1.91,1.87,1.87,0,0,1-1.91,1.85l-3.37-.06-7.77.25.11,18A1.88,1.88,0,0,1-125-92.17Z"/></clipPath><clipPath id="clip-path-4"><path class="cls-1" d="M-109.36-99.25h-.47A5.05,5.05,0,0,1-114-101a4.59,4.59,0,0,1-.8-3.5l.84-9.68c-.08-2.54.62-4.44,2.06-5.65a6.05,6.05,0,0,1,4.7-1.19l41.85-2,.23,0c2.51.5,4.25,1.52,5.19,3a4.48,4.48,0,0,1,.64,3.1c-.11,1.41-.78,9.73-1.45,12.35a5.77,5.77,0,0,1-4.77,4.34h-.18c-1.6,0-37.92.92-43.69.92m1.2-18.09a2,2,0,0,0-1.31.4c-.65.55-.74,1.79-.71,2.73v.11l-.91,10.29a.75.75,0,0,0,.08.49,1.83,1.83,0,0,0,1.23.3c3.66.07,41.35-.85,43.88-.91a2,2,0,0,0,1.52-1.52c.52-2,1.15-9.22,1.35-11.83l.05-.31c0-.54-.81-1.26-2.66-1.68l-41.82,2-.23,0a2.33,2.33,0,0,0-.48,0"/></clipPath><clipPath id="clip-path-5"><path class="cls-1" d="M-72.69-114.16a1.16,1.16,0,0,0-.92-.26,1.57,1.57,0,0,0-1,.4,2.13,2.13,0,0,0-.62,1.23s0,.11,0,.18l2-.06c.5,0,.79-.17.85-.61a1,1,0,0,0-.2-.88m1.84,1a1.41,1.41,0,0,1-.62,1.08,2.71,2.71,0,0,1-1.42.4,9,9,0,0,1-1.86,0c-.38-.07-.5-.65-.56-.81a4.08,4.08,0,0,0-.07,1.09,1.12,1.12,0,0,0,.5,1,2.14,2.14,0,0,0,1.21.24c.33,0,.66,0,1-.07a7.25,7.25,0,0,0,.81-.11h0c.07,0,.14,0,.13.12l-.1.82c0,.06,0,.1-.12.13a6.71,6.71,0,0,1-1,.25,8.6,8.6,0,0,1-1.08.11,4.63,4.63,0,0,1-1.53-.15,2.12,2.12,0,0,1-1-.59,2,2,0,0,1-.46-1A4.43,4.43,0,0,1-77-112l0-.41a3.86,3.86,0,0,1,1-2.33,3.6,3.6,0,0,1,2.5-.92,2.53,2.53,0,0,1,2.07.64,2.29,2.29,0,0,1,.48,1.92m-22.44-1.74-4.45.17c-.29,0-.39.21-.44.49l-.1.83c0,.22.08.31.3.3h.38l1.4-.05c.11,0,0,0,0,.05a2.34,2.34,0,0,0-1.29,1.89c0,.21-.34,2.67-.34,2.67a.81.81,0,0,0,0,.15c0,.23.14.28.23.28l.89,0h.08c.35,0,.45-.11.49-.47s.54-4.27.58-4.56l1,0c.49,0,1.06-.07,1.33.26s.23.71.16,1.26c0,0-.37,3-.37,3a.81.81,0,0,0,0,.15c0,.24.13.29.22.28l.9,0h.08c.35,0,.44-.11.49-.46,0-.13.48-3.77.51-4a1.88,1.88,0,0,0-2.08-2.07m25.05-.33c0-.24,0-.66-.47-.64l-.81,0a.42.42,0,0,0-.4.35l-.73,5.89c0,.32.06.44.22.43l1.17,0a.34.34,0,0,0,.31-.29l.1-.7s.23-1.92.43-3.5a.31.31,0,0,0-.35-.37l-1,0h-.08c.51-.09,1.48-.53,1.56-1.19m-20.63,1.93-.95,0h-.11s0,0,0,0c.51-.1,1.49-.54,1.57-1.2,0-.24,0-.65-.48-.63l-.81,0a.4.4,0,0,0-.39.35l-.73,5.89c-.06.32,0,.44.21.43l1.17,0a.35.35,0,0,0,.32-.29l.09-.7s.24-1.92.43-3.51a.3.3,0,0,0-.34-.36m11.31-2.06a5,5,0,0,0-.91-.18,9.49,9.49,0,0,0-1.07,0,5.13,5.13,0,0,0-1,.15,2.56,2.56,0,0,0-.8.37,2.14,2.14,0,0,0-.56.6,2.24,2.24,0,0,0-.28.86,1.38,1.38,0,0,0,.25,1.11,2.47,2.47,0,0,0,1,.69l1,.38a1.45,1.45,0,0,1,.45.27.46.46,0,0,1,.15.43.6.6,0,0,1-.31.48,1.61,1.61,0,0,1-.76.17c-.31,0-.67,0-1.05,0s-.73,0-1-.06h0a.09.09,0,0,0-.11.09c0,.06,0,0,0,0l-.11.93c0,.11,0,.16.12.18a9.74,9.74,0,0,0,1.12.16,8.28,8.28,0,0,0,1.23,0,3.38,3.38,0,0,0,1.85-.56,2,2,0,0,0,.82-1.44,1.54,1.54,0,0,0-.23-1.13,2.19,2.19,0,0,0-1-.73l-1-.4a3.06,3.06,0,0,1-.45-.23.38.38,0,0,1-.14-.41.56.56,0,0,1,.3-.47,1.72,1.72,0,0,1,.69-.13c.29,0,.59,0,.88,0s.59,0,.87.06a.08.08,0,0,0,0,0h0a.11.11,0,0,0,.1-.09c0-.06,0,0,0,0l.12-.93a.17.17,0,0,0-.14-.18M-82.94-114a.12.12,0,0,1-.1.09h-.06c-.28,0-.57-.06-.86-.07s-.6,0-.89,0a1.92,1.92,0,0,0-.69.13.56.56,0,0,0-.3.47.41.41,0,0,0,.14.42,3.16,3.16,0,0,0,.45.22l1,.41a2.25,2.25,0,0,1,1,.72,1.56,1.56,0,0,1,.23,1.14,2,2,0,0,1-.82,1.43,3.28,3.28,0,0,1-1.85.57,9.91,9.91,0,0,1-1.23,0,9.54,9.54,0,0,1-1.11-.17c-.1,0-.14-.07-.13-.17l.12-.93v0c0-.06.05-.11.11-.1s0,0,0,0a7.94,7.94,0,0,0,1,.06h1.06A1.69,1.69,0,0,0-85-110a.62.62,0,0,0,.31-.49.49.49,0,0,0-.14-.43,1.93,1.93,0,0,0-.46-.26l-1-.38a2.47,2.47,0,0,1-1-.69,1.41,1.41,0,0,1-.25-1.12,2.19,2.19,0,0,1,.28-.85,2.18,2.18,0,0,1,.56-.61,2.54,2.54,0,0,1,.8-.36,3.94,3.94,0,0,1,1-.15,9.43,9.43,0,0,1,1.07,0,3.66,3.66,0,0,1,.91.18c.06,0,.16.06.14.18l-.11.93s0,0,0,0"/></clipPath><clipPath id="clip-path-6"><path class="cls-1" d="M-88.08-106c-.36,0-.44.12-.46.24s0,.15.17.15l.25,0Zm-.34.62c-.32,0-.46-.11-.43-.35s.27-.45.8-.51h0v0a.53.53,0,0,0,0-.19s-.07,0-.15,0a.9.9,0,0,0-.46.17l0,0,0-.3h0a1.17,1.17,0,0,1,.54-.17c.19,0,.32,0,.36.17a.57.57,0,0,1,0,.31l-.11.83h-.08A2.86,2.86,0,0,1-88.42-105.34Z"/></clipPath><clipPath id="clip-path-7"><path class="cls-1" d="M-87.27-106.93l0-.33.34,0,0,.34Zm-.19,1.53.18-1.33H-87l-.17,1.33Z"/></clipPath><clipPath id="clip-path-8"><path class="cls-1" d="M-86.41-105.4a.8.8,0,0,1-.37-.06h0l0-.32,0,0a.51.51,0,0,0,.32.1c.14,0,.23-.06.24-.14s0-.09-.07-.13a.64.64,0,0,0-.17-.08c-.23-.1-.31-.2-.28-.37a.54.54,0,0,1,.57-.42.65.65,0,0,1,.34.06h0l0,.3,0,0a.49.49,0,0,0-.29-.08c-.13,0-.22.06-.23.14s0,.09.2.17a.6.6,0,0,1,.25.15.28.28,0,0,1,.08.25.55.55,0,0,1-.59.43"/></clipPath><clipPath id="clip-path-9"><path class="cls-1" d="M-84.07-106.62a.52.52,0,0,0-.55.46c0,.28.1.42.38.41a.58.58,0,0,0,.19,0l.11-.83Zm-.1,1.75.09-.66a1.05,1.05,0,0,1-.24,0c-.45,0-.68-.21-.63-.63a.88.88,0,0,1,1-.74,1.33,1.33,0,0,1,.39,0h0l-.26,2Z"/></clipPath><clipPath id="clip-path-10"><path class="cls-1" d="M-82.77-105.56a.57.57,0,0,1-.44-.1c-.09-.08-.11-.18-.09-.39l.11-.83.33,0-.11.82c0,.21,0,.28.27.27l.23,0,.14-1.08H-82l-.17,1.29h0a2.76,2.76,0,0,1-.57.08"/></clipPath><clipPath id="clip-path-11"><path class="cls-1" d="M-80.78-106.5a.21.21,0,0,0-.25-.23.4.4,0,0,0-.37.25Zm-.37.89c-.45,0-.68-.22-.62-.63A.82.82,0,0,1-81-107a.49.49,0,0,1,.48.22.62.62,0,0,1,0,.41l0,.09-1,0h0c0,.24.11.37.38.36a.77.77,0,0,0,.45-.16l.06,0,0,.29h0A1,1,0,0,1-81.15-105.61Z"/></clipPath><clipPath id="clip-path-12"><path class="cls-1" d="M-79.57-105.7l.14-1h-.22l0-.24h.21v0a.79.79,0,0,1,.26-.57.67.67,0,0,1,.43-.16.66.66,0,0,1,.14,0h0l0,.24h-.14a.33.33,0,0,0-.24.1.75.75,0,0,0-.12.37v0l.34,0,0,.25h-.34l-.14,1.05Z"/></clipPath><clipPath id="clip-path-13"><path class="cls-1" d="M-77.91-106.35c-.36,0-.44.12-.46.24s0,.15.17.15a1,1,0,0,0,.25,0Zm-.35.62c-.31,0-.45-.1-.42-.35s.27-.45.8-.51h0v0a.55.55,0,0,0,0-.19s-.07,0-.15,0a.93.93,0,0,0-.46.18l0,0,0-.29h0a1,1,0,0,1,.54-.16c.19,0,.32,0,.36.16a.57.57,0,0,1,0,.31l-.11.83h-.08A3,3,0,0,1-78.26-105.73Z"/></clipPath><clipPath id="clip-path-14"><path class="cls-1" d="M-77.29-105.78l.17-1.24h0a1.56,1.56,0,0,1,.56-.12.63.63,0,0,1,.24,0h0l0,.27,0,0a.49.49,0,0,0-.21,0,.62.62,0,0,0-.26.06l-.14,1Z"/></clipPath><clipPath id="clip-path-15"><path class="cls-1" d="M-74.55-105.89l.11-.83c0-.19,0-.26-.22-.25a.55.55,0,0,0-.24,0,1.72,1.72,0,0,1,0,.2l-.11.85h-.33l.11-.83c0-.19,0-.26-.24-.25a.77.77,0,0,0-.25,0l-.14,1.06-.33,0,.17-1.26h0a2.39,2.39,0,0,1,.61-.11.77.77,0,0,1,.36.07,1.52,1.52,0,0,1,.46-.1.5.5,0,0,1,.41.13.36.36,0,0,1,.06.34l-.11.86Z"/></clipPath><clipPath id="clip-path-16"><path class="cls-1" d="M-89.59-105.31l.11-.84c0-.19,0-.26-.22-.25a.79.79,0,0,0-.25.05.47.47,0,0,1,0,.2l-.11.85-.32,0,.11-.84c0-.19,0-.26-.25-.25a1.29,1.29,0,0,0-.25,0l-.14,1.07h-.32l.16-1.26h0a2,2,0,0,1,.6-.11.62.62,0,0,1,.37.07,1.29,1.29,0,0,1,.45-.11.52.52,0,0,1,.41.13.39.39,0,0,1,.07.34l-.12.86Z"/></clipPath><clipPath id="clip-path-17"><path class="cls-1" d="M-73.35-107.41l.57-.59h.3l-.63.6Zm.27.87c-.37.05-.45.13-.47.25s0,.15.18.14l.24,0Zm-.35.63c-.32,0-.46-.11-.43-.36s.28-.44.8-.51h0c0-.12,0-.16,0-.19s-.07-.06-.14,0a.84.84,0,0,0-.46.17l-.06,0,0-.3h0a1.32,1.32,0,0,1,.54-.16c.2,0,.32.05.37.17a.75.75,0,0,1,0,.31l-.11.83h-.08A2.76,2.76,0,0,1-73.43-105.91Z"/></clipPath><clipPath id="clip-path-18"><path class="cls-1" d="M-71.85-106c-.43,0-.68-.24-.63-.65a.84.84,0,0,1,.84-.73.65.65,0,0,1,.34.06h0l0,.29,0,0a.52.52,0,0,0-.3-.08.49.49,0,0,0-.49.46c0,.27.1.42.38.41a.56.56,0,0,0,.34-.12l.05,0,0,.29h0a1,1,0,0,1-.41.11"/></clipPath><clipPath id="clip-path-19"><path class="cls-1" d="M-71-107.55l0-.34h.34l0,.34Zm-.19,1.53.17-1.33h.33l-.18,1.33Z"/></clipPath><clipPath id="clip-path-20"><path class="cls-1" d="M-69.7-106.66c-.36,0-.44.12-.46.24s0,.15.17.15l.25,0ZM-70-106c-.31,0-.45-.11-.42-.35s.27-.45.8-.51h0a.53.53,0,0,0,0-.19s-.07,0-.15,0a.9.9,0,0,0-.46.17l0,0,0-.3h0a1.24,1.24,0,0,1,.55-.17c.19,0,.31,0,.36.17a.57.57,0,0,1,0,.31l-.11.83h-.08A3,3,0,0,1-70-106Z"/></clipPath><clipPath id="clip-path-21"><path class="cls-1" d="M-101.26-110.94l-.55,3.1A4.37,4.37,0,0,0-99-111Z"/></clipPath><clipPath id="clip-path-22"><path class="cls-1" d="M-100.88-112.95l1.67-.06a4.13,4.13,0,0,0-1.36-1.75Z"/></clipPath><clipPath id="clip-path-23"><path class="cls-1" d="M-103.65-109.16c.14-.52.31-1.37,1.88-1.71.14,0,.12-.06,0-.06l-5.09.2c0-.27.18-1.1.25-1.42.1-.5.36-.6.83-.62l2.78-.1.51-2.77a5.71,5.71,0,0,0-1.5-.15c-2.68.11-4.77,2.05-4.69,4.35a4.5,4.5,0,0,0,4.68,4Z"/></clipPath><clipPath id="clip-path-24"><polygon class="cls-1" points="-87.64 -25.68 -118.18 -28.09 -117.89 -31.84 -91.41 -29.76 -91.5 -76.89 -87.74 -76.9 -87.64 -25.68"/></clipPath><clipPath id="clip-path-25"><rect class="cls-2" x="-77.49" y="-40.63" width="3.76" height="27.92" transform="translate(-43.31 -100.05) rotate(-85.67)"/></clipPath><clipPath id="clip-path-26"><path class="cls-1" d="M-84-42.35a1.9,1.9,0,0,1-1.62-.92,1.89,1.89,0,0,1,.66-2.58l1-.62v-1.89l-1.52-1.27a1.89,1.89,0,0,1-.24-2.65A1.89,1.89,0,0,1-83-52.52l2.2,1.83a1.89,1.89,0,0,1,.68,1.45v3.85a1.88,1.88,0,0,1-.92,1.61l-2,1.16a1.86,1.86,0,0,1-1,.27"/></clipPath><clipPath id="clip-path-27"><path class="cls-1" d="M-95.71-42.89a2,2,0,0,1-1-.26l-2-1.16a1.9,1.9,0,0,1-.93-1.62v-3.85a1.86,1.86,0,0,1,.68-1.44l2.2-1.84a1.89,1.89,0,0,1,2.65.25,1.89,1.89,0,0,1-.24,2.65l-1.52,1.26V-47l1,.61a1.89,1.89,0,0,1,.66,2.58,1.89,1.89,0,0,1-1.62.92"/></clipPath><clipPath id="clip-path-28"><path class="cls-2" d="M-404.65,347.78h-83.52L-452.61,314a3.29,3.29,0,0,0,0-4.93,3.71,3.71,0,0,0-5.19,0l-42,39.81a3.28,3.28,0,0,0,0,4.93L-458,393.58a3.7,3.7,0,0,0,5.18,0,3.29,3.29,0,0,0,0-4.93l-35.37-33.82h83.52a3.64,3.64,0,0,0,3.71-3.53A3.63,3.63,0,0,0-404.65,347.78Z"/></clipPath><clipPath id="clip-path-29"><path class="cls-2" d="M-645.24,347.78h83.52L-597.28,314a3.29,3.29,0,0,1,0-4.93,3.71,3.71,0,0,1,5.19,0l42,39.81a3.28,3.28,0,0,1,0,4.93l-41.85,39.81a3.7,3.7,0,0,1-5.18,0,3.29,3.29,0,0,1,0-4.93l35.37-33.82h-83.52a3.63,3.63,0,0,1-3.7-3.53A3.62,3.62,0,0,1-645.24,347.78Z"/></clipPath><clipPath id="clip-path-30"><rect class="cls-3" x="-147.88" y="-0.25" width="128" height="128"/></clipPath></defs><title>icons</title><path class="cls-2" d="M118.4-.12H12.19a2.85,2.85,0,0,0,0,5.69H19V110.19a7.9,7.9,0,0,0,7.9,7.89h.24v2.4a7.41,7.41,0,0,0,7.39,7.4h5.17a7.39,7.39,0,0,0,7.38-7.4v-2.4h37v2.4a7.4,7.4,0,0,0,7.39,7.4h5.17a7.39,7.39,0,0,0,7.38-7.4v-2.42a7.91,7.91,0,0,0,7.61-7.86V5.57h6.76a2.85,2.85,0,1,0,0-5.69ZM103.94,72.35H26.67V42.11h77.27ZM26.67,110.2V77.64h77.27V110.2a.21.21,0,0,1-.2.2H26.87A.21.21,0,0,1,26.67,110.2Zm14.7,10.28a1.69,1.69,0,0,1-1.68,1.7H34.52a1.7,1.7,0,0,1-1.7-1.7v-2.4h8.55Zm55.29,1.7H91.49a1.7,1.7,0,0,1-1.69-1.7v-2.4h8.54v2.4A1.69,1.69,0,0,1,96.66,122.18Zm7.28-85.35H26.67V5.57h77.27Z"/><path class="cls-2" d="M65.3,28.05a9.76,9.76,0,0,0,9.75-9.75H70.67a5.37,5.37,0,0,1-10.74,0H55.56A9.76,9.76,0,0,0,65.3,28.05Z"/><path class="cls-2" d="M65.3,64.79A9.76,9.76,0,0,0,75.05,55H70.67a5.37,5.37,0,1,1-10.74,0H55.56A9.75,9.75,0,0,0,65.3,64.79Z"/><path class="cls-2" d="M65.3,97a5.38,5.38,0,0,1-5.37-5.37H55.56a9.75,9.75,0,1,0,19.49,0H70.67A5.37,5.37,0,0,1,65.3,97Z"/><path class="cls-4" d="M-50.52-21.17h-.15l-11-.92A1.88,1.88,0,0,1-63.39-24V-68.29A6.39,6.39,0,0,0-65.1-73.2a6.66,6.66,0,0,0-4.49-1.46h-.18l-47.55-.53v46.91a1.87,1.87,0,0,1-.6,1.38,1.94,1.94,0,0,1-1.43.5l-9.25-.74A1.87,1.87,0,0,1-130.33-29c0-.3.27-29.77.21-36.75a14.85,14.85,0,0,1,3.35-9.34h-5.89a3.54,3.54,0,0,1-3.26-2.65,1.77,1.77,0,0,1-.09-.56v-6.09c0-3,1.89-4.31,3-4.58a2.73,2.73,0,0,1,.4-.05l67.22-.91h.26c15.86,2,16.66,15.93,16.67,16.07v.09L-48.64-23a1.88,1.88,0,0,1-.61,1.38A1.85,1.85,0,0,1-50.52-21.17Zm-9.11-4.53,7.24.61.17-48.64c-.05-.78-.94-10.83-13.24-12.46l-66.61.91a1.66,1.66,0,0,0-.18.87v5.54h10.12a1.88,1.88,0,0,1,1.43.66,1.18,1.18,0,0,1,.18-.21,1.82,1.82,0,0,1,1.34-.54l49.38.55A10.33,10.33,0,0,1-62.58-76c2,1.79,2.95,4.39,2.95,7.71Zm-66.92-5,5.47.43V-75.43h0s-5.32,3.67-5.26,9.62S-126.5-37.23-126.55-30.74Z"/><g class="cls-5"><rect class="cls-2" x="-4633.79" y="-2605.1" width="6348.4" height="5052.27"/></g><path class="cls-4" d="M-45.4-24.64h-3.76V-74.25c-.09-1-1.31-11.31-12-12.13l.28-3.75c11.42.87,15.14,10.62,15.51,15.66v49.83Z"/><g class="cls-6"><rect class="cls-2" x="-4633.79" y="-2605.1" width="6348.4" height="5052.27"/></g><path class="cls-4" d="M-125-92.17A1.88,1.88,0,0,1-126.88-94l-.12-19.84a1.89,1.89,0,0,1,1.82-1.9l9.64-.3h.1l3.42.06a1.88,1.88,0,0,1,1.84,1.91,1.87,1.87,0,0,1-1.91,1.85l-3.37-.06-7.77.25.11,18A1.88,1.88,0,0,1-125-92.17Z"/><g class="cls-7"><rect class="cls-2" x="-4633.79" y="-2605.1" width="6348.4" height="5052.27"/></g><path class="cls-4" d="M-109.36-99.25h-.47A5.05,5.05,0,0,1-114-101a4.59,4.59,0,0,1-.8-3.5l.84-9.68c-.08-2.54.62-4.44,2.06-5.65a6.05,6.05,0,0,1,4.7-1.19l41.85-2,.23,0c2.51.5,4.25,1.52,5.19,3a4.48,4.48,0,0,1,.64,3.1c-.11,1.41-.78,9.73-1.45,12.35a5.77,5.77,0,0,1-4.77,4.34h-.18c-1.6,0-37.92.92-43.69.92m1.2-18.09a2,2,0,0,0-1.31.4c-.65.55-.74,1.79-.71,2.73v.11l-.91,10.29a.75.75,0,0,0,.08.49,1.83,1.83,0,0,0,1.23.3c3.66.07,41.35-.85,43.88-.91a2,2,0,0,0,1.52-1.52c.52-2,1.15-9.22,1.35-11.83l.05-.31c0-.54-.81-1.26-2.66-1.68l-41.82,2-.23,0a2.33,2.33,0,0,0-.48,0"/><g class="cls-8"><rect class="cls-2" x="-4633.79" y="-2605.1" width="6348.4" height="5052.27"/></g><path class="cls-4" d="M-72.69-114.16a1.16,1.16,0,0,0-.92-.26,1.57,1.57,0,0,0-1,.4,2.13,2.13,0,0,0-.62,1.23s0,.11,0,.18l2-.06c.5,0,.79-.17.85-.61a1,1,0,0,0-.2-.88m1.84,1a1.41,1.41,0,0,1-.62,1.08,2.71,2.71,0,0,1-1.42.4,9,9,0,0,1-1.86,0c-.38-.07-.5-.65-.56-.81a4.08,4.08,0,0,0-.07,1.09,1.12,1.12,0,0,0,.5,1,2.14,2.14,0,0,0,1.21.24c.33,0,.66,0,1-.07a7.25,7.25,0,0,0,.81-.11h0c.07,0,.14,0,.13.12l-.1.82c0,.06,0,.1-.12.13a6.71,6.71,0,0,1-1,.25,8.6,8.6,0,0,1-1.08.11,4.63,4.63,0,0,1-1.53-.15,2.12,2.12,0,0,1-1-.59,2,2,0,0,1-.46-1A4.43,4.43,0,0,1-77-112l0-.41a3.86,3.86,0,0,1,1-2.33,3.6,3.6,0,0,1,2.5-.92,2.53,2.53,0,0,1,2.07.64,2.29,2.29,0,0,1,.48,1.92m-22.44-1.74-4.45.17c-.29,0-.39.21-.44.49l-.1.83c0,.22.08.31.3.3h.38l1.4-.05c.11,0,0,0,0,.05a2.34,2.34,0,0,0-1.29,1.89c0,.21-.34,2.67-.34,2.67a.81.81,0,0,0,0,.15c0,.23.14.28.23.28l.89,0h.08c.35,0,.45-.11.49-.47s.54-4.27.58-4.56l1,0c.49,0,1.06-.07,1.33.26s.23.71.16,1.26c0,0-.37,3-.37,3a.81.81,0,0,0,0,.15c0,.24.13.29.22.28l.9,0h.08c.35,0,.44-.11.49-.46,0-.13.48-3.77.51-4a1.88,1.88,0,0,0-2.08-2.07m25.05-.33c0-.24,0-.66-.47-.64l-.81,0a.42.42,0,0,0-.4.35l-.73,5.89c0,.32.06.44.22.43l1.17,0a.34.34,0,0,0,.31-.29l.1-.7s.23-1.92.43-3.5a.31.31,0,0,0-.35-.37l-1,0h-.08c.51-.09,1.48-.53,1.56-1.19m-20.63,1.93-.95,0h-.11s0,0,0,0c.51-.1,1.49-.54,1.57-1.2,0-.24,0-.65-.48-.63l-.81,0a.4.4,0,0,0-.39.35l-.73,5.89c-.06.32,0,.44.21.43l1.17,0a.35.35,0,0,0,.32-.29l.09-.7s.24-1.92.43-3.51a.3.3,0,0,0-.34-.36m11.31-2.06a5,5,0,0,0-.91-.18,9.49,9.49,0,0,0-1.07,0,5.13,5.13,0,0,0-1,.15,2.56,2.56,0,0,0-.8.37,2.14,2.14,0,0,0-.56.6,2.24,2.24,0,0,0-.28.86,1.38,1.38,0,0,0,.25,1.11,2.47,2.47,0,0,0,1,.69l1,.38a1.45,1.45,0,0,1,.45.27.46.46,0,0,1,.15.43.6.6,0,0,1-.31.48,1.61,1.61,0,0,1-.76.17c-.31,0-.67,0-1.05,0s-.73,0-1-.06h0a.09.09,0,0,0-.11.09c0,.06,0,0,0,0l-.11.93c0,.11,0,.16.12.18a9.74,9.74,0,0,0,1.12.16,8.28,8.28,0,0,0,1.23,0,3.38,3.38,0,0,0,1.85-.56,2,2,0,0,0,.82-1.44,1.54,1.54,0,0,0-.23-1.13,2.19,2.19,0,0,0-1-.73l-1-.4a3.06,3.06,0,0,1-.45-.23.38.38,0,0,1-.14-.41.56.56,0,0,1,.3-.47,1.72,1.72,0,0,1,.69-.13c.29,0,.59,0,.88,0s.59,0,.87.06a.08.08,0,0,0,0,0h0a.11.11,0,0,0,.1-.09c0-.06,0,0,0,0l.12-.93a.17.17,0,0,0-.14-.18M-82.94-114a.12.12,0,0,1-.1.09h-.06c-.28,0-.57-.06-.86-.07s-.6,0-.89,0a1.92,1.92,0,0,0-.69.13.56.56,0,0,0-.3.47.41.41,0,0,0,.14.42,3.16,3.16,0,0,0,.45.22l1,.41a2.25,2.25,0,0,1,1,.72,1.56,1.56,0,0,1,.23,1.14,2,2,0,0,1-.82,1.43,3.28,3.28,0,0,1-1.85.57,9.91,9.91,0,0,1-1.23,0,9.54,9.54,0,0,1-1.11-.17c-.1,0-.14-.07-.13-.17l.12-.93v0c0-.06.05-.11.11-.1s0,0,0,0a7.94,7.94,0,0,0,1,.06h1.06A1.69,1.69,0,0,0-85-110a.62.62,0,0,0,.31-.49.49.49,0,0,0-.14-.43,1.93,1.93,0,0,0-.46-.26l-1-.38a2.47,2.47,0,0,1-1-.69,1.41,1.41,0,0,1-.25-1.12,2.19,2.19,0,0,1,.28-.85,2.18,2.18,0,0,1,.56-.61,2.54,2.54,0,0,1,.8-.36,3.94,3.94,0,0,1,1-.15,9.43,9.43,0,0,1,1.07,0,3.66,3.66,0,0,1,.91.18c.06,0,.16.06.14.18l-.11.93s0,0,0,0"/><g class="cls-9"><rect class="cls-2" x="-4633.79" y="-2605.1" width="6348.4" height="5052.27"/></g><path class="cls-4" d="M-88.08-106c-.36,0-.44.12-.46.24s0,.15.17.15l.25,0Zm-.34.62c-.32,0-.46-.11-.43-.35s.27-.45.8-.51h0v0a.53.53,0,0,0,0-.19s-.07,0-.15,0a.9.9,0,0,0-.46.17l0,0,0-.3h0a1.17,1.17,0,0,1,.54-.17c.19,0,.32,0,.36.17a.57.57,0,0,1,0,.31l-.11.83h-.08A2.86,2.86,0,0,1-88.42-105.34Z"/><g class="cls-10"><rect class="cls-2" x="-4633.79" y="-2605.1" width="6348.4" height="5052.27"/></g><path class="cls-4" d="M-87.27-106.93l0-.33.34,0,0,.34Zm-.19,1.53.18-1.33H-87l-.17,1.33Z"/><g class="cls-11"><rect class="cls-2" x="-4633.79" y="-2605.1" width="6348.4" height="5052.27"/></g><path class="cls-4" d="M-86.41-105.4a.8.8,0,0,1-.37-.06h0l0-.32,0,0a.51.51,0,0,0,.32.1c.14,0,.23-.06.24-.14s0-.09-.07-.13a.64.64,0,0,0-.17-.08c-.23-.1-.31-.2-.28-.37a.54.54,0,0,1,.57-.42.65.65,0,0,1,.34.06h0l0,.3,0,0a.49.49,0,0,0-.29-.08c-.13,0-.22.06-.23.14s0,.09.2.17a.6.6,0,0,1,.25.15.28.28,0,0,1,.08.25.55.55,0,0,1-.59.43"/><g class="cls-12"><rect class="cls-2" x="-4633.79" y="-2605.1" width="6348.4" height="5052.27"/></g><path class="cls-4" d="M-84.07-106.62a.52.52,0,0,0-.55.46c0,.28.1.42.38.41a.58.58,0,0,0,.19,0l.11-.83Zm-.1,1.75.09-.66a1.05,1.05,0,0,1-.24,0c-.45,0-.68-.21-.63-.63a.88.88,0,0,1,1-.74,1.33,1.33,0,0,1,.39,0h0l-.26,2Z"/><g class="cls-13"><rect class="cls-2" x="-4633.79" y="-2605.1" width="6348.4" height="5052.27"/></g><path class="cls-4" d="M-82.77-105.56a.57.57,0,0,1-.44-.1c-.09-.08-.11-.18-.09-.39l.11-.83.33,0-.11.82c0,.21,0,.28.27.27l.23,0,.14-1.08H-82l-.17,1.29h0a2.76,2.76,0,0,1-.57.08"/><g class="cls-14"><rect class="cls-2" x="-4633.79" y="-2605.1" width="6348.4" height="5052.27"/></g><path class="cls-4" d="M-80.78-106.5a.21.21,0,0,0-.25-.23.4.4,0,0,0-.37.25Zm-.37.89c-.45,0-.68-.22-.62-.63A.82.82,0,0,1-81-107a.49.49,0,0,1,.48.22.62.62,0,0,1,0,.41l0,.09-1,0h0c0,.24.11.37.38.36a.77.77,0,0,0,.45-.16l.06,0,0,.29h0A1,1,0,0,1-81.15-105.61Z"/><g class="cls-15"><rect class="cls-2" x="-4633.79" y="-2605.1" width="6348.4" height="5052.27"/></g><path class="cls-4" d="M-79.57-105.7l.14-1h-.22l0-.24h.21v0a.79.79,0,0,1,.26-.57.67.67,0,0,1,.43-.16.66.66,0,0,1,.14,0h0l0,.24h-.14a.33.33,0,0,0-.24.1.75.75,0,0,0-.12.37v0l.34,0,0,.25h-.34l-.14,1.05Z"/><g class="cls-16"><rect class="cls-2" x="-4633.79" y="-2605.1" width="6348.4" height="5052.27"/></g><path class="cls-4" d="M-77.91-106.35c-.36,0-.44.12-.46.24s0,.15.17.15a1,1,0,0,0,.25,0Zm-.35.62c-.31,0-.45-.1-.42-.35s.27-.45.8-.51h0v0a.55.55,0,0,0,0-.19s-.07,0-.15,0a.93.93,0,0,0-.46.18l0,0,0-.29h0a1,1,0,0,1,.54-.16c.19,0,.32,0,.36.16a.57.57,0,0,1,0,.31l-.11.83h-.08A3,3,0,0,1-78.26-105.73Z"/><g class="cls-17"><rect class="cls-2" x="-4633.79" y="-2605.1" width="6348.4" height="5052.27"/></g><path class="cls-4" d="M-77.29-105.78l.17-1.24h0a1.56,1.56,0,0,1,.56-.12.63.63,0,0,1,.24,0h0l0,.27,0,0a.49.49,0,0,0-.21,0,.62.62,0,0,0-.26.06l-.14,1Z"/><g class="cls-18"><rect class="cls-2" x="-4633.79" y="-2605.1" width="6348.4" height="5052.27"/></g><path class="cls-4" d="M-74.55-105.89l.11-.83c0-.19,0-.26-.22-.25a.55.55,0,0,0-.24,0,1.72,1.72,0,0,1,0,.2l-.11.85h-.33l.11-.83c0-.19,0-.26-.24-.25a.77.77,0,0,0-.25,0l-.14,1.06-.33,0,.17-1.26h0a2.39,2.39,0,0,1,.61-.11.77.77,0,0,1,.36.07,1.52,1.52,0,0,1,.46-.1.5.5,0,0,1,.41.13.36.36,0,0,1,.06.34l-.11.86Z"/><g class="cls-19"><rect class="cls-2" x="-4633.79" y="-2605.1" width="6348.4" height="5052.27"/></g><path class="cls-4" d="M-89.59-105.31l.11-.84c0-.19,0-.26-.22-.25a.79.79,0,0,0-.25.05.47.47,0,0,1,0,.2l-.11.85-.32,0,.11-.84c0-.19,0-.26-.25-.25a1.29,1.29,0,0,0-.25,0l-.14,1.07h-.32l.16-1.26h0a2,2,0,0,1,.6-.11.62.62,0,0,1,.37.07,1.29,1.29,0,0,1,.45-.11.52.52,0,0,1,.41.13.39.39,0,0,1,.07.34l-.12.86Z"/><g class="cls-20"><rect class="cls-2" x="-4633.79" y="-2605.1" width="6348.4" height="5052.27"/></g><path class="cls-4" d="M-73.35-107.41l.57-.59h.3l-.63.6Zm.27.87c-.37.05-.45.13-.47.25s0,.15.18.14l.24,0Zm-.35.63c-.32,0-.46-.11-.43-.36s.28-.44.8-.51h0c0-.12,0-.16,0-.19s-.07-.06-.14,0a.84.84,0,0,0-.46.17l-.06,0,0-.3h0a1.32,1.32,0,0,1,.54-.16c.2,0,.32.05.37.17a.75.75,0,0,1,0,.31l-.11.83h-.08A2.76,2.76,0,0,1-73.43-105.91Z"/><g class="cls-21"><rect class="cls-2" x="-4633.79" y="-2605.1" width="6348.4" height="5052.27"/></g><path class="cls-4" d="M-71.85-106c-.43,0-.68-.24-.63-.65a.84.84,0,0,1,.84-.73.65.65,0,0,1,.34.06h0l0,.29,0,0a.52.52,0,0,0-.3-.08.49.49,0,0,0-.49.46c0,.27.1.42.38.41a.56.56,0,0,0,.34-.12l.05,0,0,.29h0a1,1,0,0,1-.41.11"/><g class="cls-22"><rect class="cls-2" x="-4633.79" y="-2605.1" width="6348.4" height="5052.27"/></g><path class="cls-4" d="M-71-107.55l0-.34h.34l0,.34Zm-.19,1.53.17-1.33h.33l-.18,1.33Z"/><g class="cls-23"><rect class="cls-2" x="-4633.79" y="-2605.1" width="6348.4" height="5052.27"/></g><path class="cls-4" d="M-69.7-106.66c-.36,0-.44.12-.46.24s0,.15.17.15l.25,0ZM-70-106c-.31,0-.45-.11-.42-.35s.27-.45.8-.51h0a.53.53,0,0,0,0-.19s-.07,0-.15,0a.9.9,0,0,0-.46.17l0,0,0-.3h0a1.24,1.24,0,0,1,.55-.17c.19,0,.31,0,.36.17a.57.57,0,0,1,0,.31l-.11.83h-.08A3,3,0,0,1-70-106Z"/><g class="cls-24"><rect class="cls-2" x="-4633.79" y="-2605.1" width="6348.4" height="5052.27"/></g><path class="cls-4" d="M-101.26-110.94l-.55,3.1A4.37,4.37,0,0,0-99-111Z"/><g class="cls-25"><rect class="cls-2" x="-4633.79" y="-2605.1" width="6348.4" height="5052.27"/></g><path class="cls-4" d="M-100.88-112.95l1.67-.06a4.13,4.13,0,0,0-1.36-1.75Z"/><g class="cls-26"><rect class="cls-2" x="-4633.79" y="-2605.1" width="6348.4" height="5052.27"/></g><path class="cls-4" d="M-103.65-109.16c.14-.52.31-1.37,1.88-1.71.14,0,.12-.06,0-.06l-5.09.2c0-.27.18-1.1.25-1.42.1-.5.36-.6.83-.62l2.78-.1.51-2.77a5.71,5.71,0,0,0-1.5-.15c-2.68.11-4.77,2.05-4.69,4.35a4.5,4.5,0,0,0,4.68,4Z"/><g class="cls-27"><rect class="cls-2" x="-4633.79" y="-2605.1" width="6348.4" height="5052.27"/></g><polygon class="cls-4" points="-87.64 -25.68 -118.18 -28.09 -117.89 -31.84 -91.41 -29.76 -91.5 -76.89 -87.74 -76.9 -87.64 -25.68"/><g class="cls-28"><rect class="cls-2" x="-4633.79" y="-2605.1" width="6348.4" height="5052.27"/></g><rect class="cls-2" x="-77.49" y="-40.63" width="3.76" height="27.92" transform="translate(-43.31 -100.05) rotate(-85.67)"/><g class="cls-29"><rect class="cls-2" x="-4633.79" y="-2605.1" width="6348.4" height="5052.27"/></g><path class="cls-4" d="M-84-42.35a1.9,1.9,0,0,1-1.62-.92,1.89,1.89,0,0,1,.66-2.58l1-.62v-1.89l-1.52-1.27a1.89,1.89,0,0,1-.24-2.65A1.89,1.89,0,0,1-83-52.52l2.2,1.83a1.89,1.89,0,0,1,.68,1.45v3.85a1.88,1.88,0,0,1-.92,1.61l-2,1.16a1.86,1.86,0,0,1-1,.27"/><g class="cls-30"><rect class="cls-2" x="-4633.79" y="-2605.1" width="6348.4" height="5052.27"/></g><path class="cls-4" d="M-95.71-42.89a2,2,0,0,1-1-.26l-2-1.16a1.9,1.9,0,0,1-.93-1.62v-3.85a1.86,1.86,0,0,1,.68-1.44l2.2-1.84a1.89,1.89,0,0,1,2.65.25,1.89,1.89,0,0,1-.24,2.65l-1.52,1.26V-47l1,.61a1.89,1.89,0,0,1,.66,2.58,1.89,1.89,0,0,1-1.62.92"/><g class="cls-31"><rect class="cls-2" x="-4633.79" y="-2605.1" width="6348.4" height="5052.27"/></g><path class="cls-2" d="M-404.65,347.78h-83.52L-452.61,314a3.29,3.29,0,0,0,0-4.93,3.71,3.71,0,0,0-5.19,0l-42,39.81a3.28,3.28,0,0,0,0,4.93L-458,393.58a3.7,3.7,0,0,0,5.18,0,3.29,3.29,0,0,0,0-4.93l-35.37-33.82h83.52a3.64,3.64,0,0,0,3.71-3.53A3.63,3.63,0,0,0-404.65,347.78Z"/><g class="cls-32"><rect class="cls-2" x="-1200.94" y="-2385.36" width="9600" height="25640"/></g><path class="cls-2" d="M-645.24,347.78h83.52L-597.28,314a3.29,3.29,0,0,1,0-4.93,3.71,3.71,0,0,1,5.19,0l42,39.81a3.28,3.28,0,0,1,0,4.93l-41.85,39.81a3.7,3.7,0,0,1-5.18,0,3.29,3.29,0,0,1,0-4.93l35.37-33.82h-83.52a3.63,3.63,0,0,1-3.7-3.53A3.62,3.62,0,0,1-645.24,347.78Z"/><g class="cls-33"><rect class="cls-2" x="-9448.94" y="-2385.36" width="9600" height="25640"/></g><g class="cls-34"><path class="cls-2" d="M-6.95,38.94l-.5,0c-7.59.09-15.11.14-22.65.14s-15.11-.05-22.8-.14l-.48,0c-3.89,0-8,2.67-12.35,7.93a4.16,4.16,0,0,0-.57.92l-6.94,15.76-9.67-.15h-.16a3.85,3.85,0,0,0-2.71,1.15A4,4,0,0,0-87,67.4c0,5.69,2.09,9.39,6.77,11.91l-1.54,3.48a3.92,3.92,0,0,0-.34,1.62v30.2a8.31,8.31,0,0,0,8.3,8.3h14.67a8.31,8.31,0,0,0,8.3-8.3v-1.17H-9.54v1.17a8.31,8.31,0,0,0,8.3,8.3H13.43a8.31,8.31,0,0,0,8.3-8.3V84.41a3.92,3.92,0,0,0-.34-1.62l-1.54-3.48c4.68-2.52,6.77-6.22,6.77-11.91a4,4,0,0,0-1.19-2.85,3.91,3.91,0,0,0-2.72-1.15h-.15l-9.67.15L5.94,47.79a4,4,0,0,0-.56-.92c-4.3-5.25-8.46-7.93-12.33-7.93Zm-63.7,32.65A4,4,0,0,0-67,69.21l7.79-17.68C-55.39,47-53.46,47-53.34,47h.24c7.76.09,15.39.14,23,.14s15.19-.05,22.85-.14H-7s1.93-.09,5.86,4.58L6.64,69.21a4,4,0,0,0,3.66,2.38h.06l6.9-.11a5.63,5.63,0,0,1-.74.52H14a4,4,0,0,0-3.66,5.62l3.37,7.63v29.36a.34.34,0,0,1-.3.3H-1.24a.35.35,0,0,1-.3-.3v-5.17a4,4,0,0,0-4-4H-54.81a4,4,0,0,0-4,4v5.17a.35.35,0,0,1-.3.3H-73.78a.34.34,0,0,1-.3-.3V85.25l3.37-7.63a4,4,0,0,0-.31-3.8A4,4,0,0,0-74.37,72h-2.5a5.63,5.63,0,0,1-.74-.52l6.89.11Z"/><path class="cls-2" d="M-8.27,50.39H-52.08c-1.36.19-2.73,1.36-4.3,3.12-2.74,6.07-5.67,11.93-8.41,18H4.63C1.7,65.44-1.24,59.58-4,53.51c-1.57-1.76-2.94-2.93-4.3-3.12ZM-52.2,63.5c.8-1.68,1.6-3.39,2.39-5.11h39.27c.78,1.71,1.59,3.42,2.4,5.11Z"/></g></svg>