<?xml version="1.0" encoding="utf-8"?>
<!-- Generator: Adobe Illustrator 23.0.6, SVG Export Plug-In . SVG Version: 6.00 Build 0)  -->
<svg version="1.1" id="Layer_1" xmlns="http://www.w3.org/2000/svg" xmlns:xlink="http://www.w3.org/1999/xlink" x="0px" y="0px"
	 viewBox="0 0 128 128" style="enable-background:new 0 0 128 128;" xml:space="preserve">
<style type="text/css">
	.st0{fill:#8A9297;}
</style>
<title>icons</title>
<path class="st0" d="M105.3,39.5c-4.4-19.3-21.5-33-41.3-33l0,0c-2.7,0-5.5,0.3-8.2,0.8c-20.1,3.9-34.5,21.6-34.3,42.1
	c0,9.6,2.6,19.1,7.7,27.3c3.5,5.5,7.5,10.7,11.9,15.6c6.8,7.9,13.7,16.6,18.6,26.6c0.8,1.6,2.5,2.7,4.3,2.6c1.8,0,3.4-0.9,4.2-2.5
	c0.4-0.7,0.8-1.5,1.2-2.2s0.9-1.7,1.4-2.5c4.6-8.1,10.4-15.3,16.1-21.9l0.1-0.1c4.2-4.9,8.4-9.9,11.8-15.6
	C105.8,64.7,108.1,52.2,105.3,39.5z M90.7,71.5c-2.7,4.2-5.7,8.2-8.9,12c-0.5,0.6-0.9,1.1-1.4,1.7c-6,7.1-11.4,14.6-16.3,22.4
	c-0.9-1.2-1.7-2.5-2.6-3.7c-2.6-3.7-5.2-7.5-8-11.2c-2.3-3.1-4.8-6.2-7.2-9.2c-1.8-2.3-3.7-4.6-5.6-7C36.2,70.7,33.4,65,32.2,59
	c-2-9.5-1.3-17.1,2.1-24C39.5,24.3,48,18,59.6,16.5c1.5-0.2,3-0.3,4.6-0.3c14.9-0.1,28,10.1,31.6,24.6
	C98.3,51.3,96.6,61.7,90.7,71.5z"/>
<path class="st0" d="M64,30.1c-10.4,0-18.8,8.4-18.9,18.8S53.6,67.8,64,67.8c10.4,0,18.8-8.4,18.9-18.8c0,0,0,0,0-0.1
	C82.7,38.6,74.4,30.2,64,30.1z M63.9,60.2c-6.2,0-11.2-5.1-11.2-11.3c0-6.2,5.1-11.2,11.3-11.2c6.2,0,11.2,5.1,11.2,11.2
	c0.1,6.2-4.9,11.2-11.1,11.3C64.1,60.2,64,60.2,63.9,60.2z"/>
</svg>
