<svg id="Layer_1" data-name="Layer 1" xmlns="http://www.w3.org/2000/svg" xmlns:xlink="http://www.w3.org/1999/xlink" viewBox="0 0 128 128"><defs><style>.cls-1,.cls-2,.cls-3{fill:#8a9297;}.cls-1{clip-rule:evenodd;}.cls-3{fill-rule:evenodd;}.cls-4{clip-path:url(#clip-path);}.cls-5{clip-path:url(#clip-path-2);}.cls-6{clip-path:url(#clip-path-3);}.cls-7{clip-path:url(#clip-path-4);}.cls-8{clip-path:url(#clip-path-5);}.cls-9{clip-path:url(#clip-path-6);}.cls-10{clip-path:url(#clip-path-7);}.cls-11{clip-path:url(#clip-path-8);}.cls-12{clip-path:url(#clip-path-9);}.cls-13{clip-path:url(#clip-path-10);}.cls-14{clip-path:url(#clip-path-11);}.cls-15{clip-path:url(#clip-path-12);}.cls-16{clip-path:url(#clip-path-13);}.cls-17{clip-path:url(#clip-path-14);}.cls-18{clip-path:url(#clip-path-15);}.cls-19{clip-path:url(#clip-path-16);}.cls-20{clip-path:url(#clip-path-17);}.cls-21{clip-path:url(#clip-path-18);}.cls-22{clip-path:url(#clip-path-19);}.cls-23{clip-path:url(#clip-path-20);}.cls-24{clip-path:url(#clip-path-21);}.cls-25{clip-path:url(#clip-path-22);}.cls-26{clip-path:url(#clip-path-23);}.cls-27{clip-path:url(#clip-path-24);}.cls-28{clip-path:url(#clip-path-25);}.cls-29{clip-path:url(#clip-path-26);}.cls-30{clip-path:url(#clip-path-27);}.cls-31{clip-path:url(#clip-path-28);}</style><clipPath id="clip-path"><path class="cls-1" d="M1352.43,436.92h-.16l-11-.92a1.88,1.88,0,0,1-1.72-1.87V389.8a6.43,6.43,0,0,0-1.71-4.91,6.64,6.64,0,0,0-4.5-1.45h-.17l-47.55-.53v46.91a1.85,1.85,0,0,1-.61,1.38,1.9,1.9,0,0,1-1.42.5l-9.25-.74a1.88,1.88,0,0,1-1.74-1.89c0-.29.28-29.76.22-36.75a14.81,14.81,0,0,1,3.35-9.34h-5.9a3.56,3.56,0,0,1-3.26-2.65,1.75,1.75,0,0,1-.08-.55v-6.09c0-3.06,1.89-4.32,3-4.58a1.92,1.92,0,0,1,.41-.05l67.22-.92a1.18,1.18,0,0,1,.26,0c15.86,2,16.65,15.92,16.66,16.06v.09l-.18,50.74a1.87,1.87,0,0,1-1.88,1.87Zm-9.11-4.52,7.23.6.18-48.64c0-.78-1-10.83-13.25-12.45l-66.6.9a1.58,1.58,0,0,0-.18.88v5.53h10.11a1.87,1.87,0,0,1,1.43.66l.18-.21a1.84,1.84,0,0,1,1.35-.54l49.38.55a10.4,10.4,0,0,1,7.22,2.41c2,1.8,3,4.39,3,7.71Zm-66.93-5,5.47.44V382.66h0s-5.32,3.68-5.27,9.62S1276.45,420.86,1276.39,427.35Z"/></clipPath><clipPath id="clip-path-2"><path class="cls-1" d="M1357.55,433.45h-3.77V383.84c-.09-1-1.31-11.31-12-12.12L1342,368c11.42.87,15.13,10.63,15.5,15.66v49.83Z"/></clipPath><clipPath id="clip-path-3"><path class="cls-1" d="M1277.94,365.92a1.88,1.88,0,0,1-1.88-1.87l-.12-19.84a1.87,1.87,0,0,1,1.82-1.89l9.65-.31h.09l3.42.06a1.88,1.88,0,1,1-.07,3.76l-3.37-.06-7.76.25.11,18a1.88,1.88,0,0,1-1.87,1.89Z"/></clipPath><clipPath id="clip-path-4"><path class="cls-1" d="M1293.58,358.84h-.46a5,5,0,0,1-4.15-1.76,4.52,4.52,0,0,1-.8-3.49l.83-9.69c-.07-2.53.62-4.43,2.07-5.65a6,6,0,0,1,4.7-1.19l41.84-2,.23,0c2.51.51,4.26,1.53,5.19,3a4.37,4.37,0,0,1,.64,3.1c-.11,1.41-.78,9.73-1.45,12.36a5.76,5.76,0,0,1-4.77,4.33h-.18c-1.59,0-37.92.92-43.69.92m1.2-18.09a2,2,0,0,0-1.31.4,3.61,3.61,0,0,0-.7,2.73V344l-.91,10.28a.94.94,0,0,0,.08.5,1.93,1.93,0,0,0,1.24.3c3.65.06,41.35-.86,43.87-.92a2,2,0,0,0,1.53-1.52c.52-2,1.15-9.22,1.35-11.82l0-.32c0-.54-.81-1.26-2.65-1.68l-41.83,2-.23,0a2.33,2.33,0,0,0-.48,0"/></clipPath><clipPath id="clip-path-5"><path class="cls-1" d="M1330.26,343.94a1.15,1.15,0,0,0-.93-.27,1.62,1.62,0,0,0-1,.4,2.1,2.1,0,0,0-.61,1.23l0,.18,1.95-.06c.51,0,.79-.17.86-.61a1,1,0,0,0-.2-.87m1.83,1a1.43,1.43,0,0,1-.61,1.08,2.62,2.62,0,0,1-1.42.4,9,9,0,0,1-1.86,0c-.38-.07-.51-.65-.56-.81a3.89,3.89,0,0,0-.08,1.09,1.17,1.17,0,0,0,.5,1,2.25,2.25,0,0,0,1.22.24c.32,0,.66,0,1-.08a8,8,0,0,0,.81-.11h0c.06,0,.14,0,.12.12l-.1.82c0,.06,0,.1-.11.13a6.84,6.84,0,0,1-1.06.25,8.49,8.49,0,0,1-1.08.12,4.64,4.64,0,0,1-1.53-.16,2,2,0,0,1-.95-.59,2.08,2.08,0,0,1-.46-1,4.76,4.76,0,0,1,0-1.37l0-.41a3.86,3.86,0,0,1,1-2.32,3.63,3.63,0,0,1,2.51-.93,2.56,2.56,0,0,1,2.07.64,2.34,2.34,0,0,1,.47,1.92m-22.44-1.73-4.45.16c-.29,0-.39.21-.43.49s-.08.59-.11.83.09.31.3.31l.38,0,1.4,0c.12,0,0,0,0,0a2.35,2.35,0,0,0-1.28,1.89c0,.21-.34,2.67-.34,2.67a.89.89,0,0,0,0,.15c0,.24.14.29.23.28l.9,0h.08c.35,0,.44-.11.49-.46.06-.51.54-4.28.57-4.57l1,0c.48,0,1.06-.07,1.33.26s.22.71.16,1.26c0,0-.38,3-.38,3s0,.11,0,.15c0,.24.14.29.23.28l.89,0h.08c.35,0,.45-.11.49-.46,0-.13.48-3.76.51-4a1.87,1.87,0,0,0-2.08-2.07m25.06-.34c0-.24,0-.66-.48-.64l-.81,0a.42.42,0,0,0-.39.36l-.73,5.88c-.06.32,0,.44.21.44l1.17-.05a.33.33,0,0,0,.32-.28l.09-.71s.24-1.91.43-3.5a.3.3,0,0,0-.34-.37l-1,0h-.09c.51-.09,1.49-.53,1.57-1.19m-20.64,1.93-1,0H1313c.51-.09,1.48-.53,1.56-1.19,0-.24,0-.66-.47-.64l-.81,0a.42.42,0,0,0-.4.35l-.73,5.89c0,.32.06.44.22.43l1.17,0a.35.35,0,0,0,.31-.29l.1-.7s.23-1.92.43-3.51a.31.31,0,0,0-.35-.36m11.31-2.06a4.24,4.24,0,0,0-.9-.17,6.44,6.44,0,0,0-1.08,0,4.37,4.37,0,0,0-1,.14,2.57,2.57,0,0,0-.8.37,1.89,1.89,0,0,0-.56.6,2.24,2.24,0,0,0-.29.86,1.45,1.45,0,0,0,.25,1.11,2.38,2.38,0,0,0,1,.69l1,.38a1.74,1.74,0,0,1,.46.27.46.46,0,0,1,.14.43.64.64,0,0,1-.31.49,1.55,1.55,0,0,1-.75.16c-.32,0-.67,0-1,0s-.73,0-1-.06h0a.1.1,0,0,0-.12.09v0l-.12.93a.14.14,0,0,0,.13.18,9.43,9.43,0,0,0,1.12.16,9.79,9.79,0,0,0,1.23,0,3.24,3.24,0,0,0,1.84-.57,2,2,0,0,0,.83-1.44,1.55,1.55,0,0,0-.24-1.13,2.13,2.13,0,0,0-1-.72l-1-.41a2.29,2.29,0,0,1-.45-.23.4.4,0,0,1-.15-.41.55.55,0,0,1,.31-.47,1.65,1.65,0,0,1,.69-.13h.88c.29,0,.58,0,.86.06h.07a.13.13,0,0,0,.09-.1c0-.05,0,0,0,0l.11-.93c0-.11-.07-.16-.14-.18m-5.37,1.35a.12.12,0,0,1-.1.09h-.07c-.28,0-.57-.06-.86-.07h-.88a2.11,2.11,0,0,0-.69.13.55.55,0,0,0-.31.48.4.4,0,0,0,.15.41,2.29,2.29,0,0,0,.45.23l1,.4a2.14,2.14,0,0,1,1,.72,1.53,1.53,0,0,1,.24,1.14,2,2,0,0,1-.82,1.43,3.3,3.3,0,0,1-1.85.57,8.25,8.25,0,0,1-1.23,0,9.72,9.72,0,0,1-1.12-.17c-.1,0-.14-.07-.13-.17l.12-.93s0,0,0,0a.09.09,0,0,1,.11-.1h0c.31,0,.66.05,1,.06h1.05a1.61,1.61,0,0,0,.76-.17.61.61,0,0,0,.3-.49.44.44,0,0,0-.14-.43,1.75,1.75,0,0,0-.46-.26l-1-.38a2.4,2.4,0,0,1-1-.69,1.38,1.38,0,0,1-.25-1.11,2.08,2.08,0,0,1,.28-.86,2,2,0,0,1,.56-.6,2.46,2.46,0,0,1,.8-.37,3.93,3.93,0,0,1,1-.15,9.6,9.6,0,0,1,1.08,0,4.76,4.76,0,0,1,.9.18c.07,0,.16.06.15.18l-.12.93s0,0,0,0"/></clipPath><clipPath id="clip-path-6"><path class="cls-1" d="M1314.87,352.13c-.36,0-.45.12-.46.24s0,.15.17.15l.24,0Zm-.35.62c-.31,0-.46-.1-.42-.35s.27-.45.8-.51h0v0a.43.43,0,0,0,0-.19s-.07-.05-.15-.05a1,1,0,0,0-.46.17l0,0,0-.29h0a1.1,1.1,0,0,1,.54-.16c.2,0,.32,0,.37.16a.61.61,0,0,1,0,.31l-.11.83H1315A3,3,0,0,1,1314.52,352.75Z"/></clipPath><clipPath id="clip-path-7"><path class="cls-1" d="M1315.68,351.16l0-.33.35,0,0,.34Zm-.19,1.54.17-1.34h.33l-.18,1.33Z"/></clipPath><clipPath id="clip-path-8"><path class="cls-1" d="M1316.53,352.69a.76.76,0,0,1-.36-.06h0l0-.32,0,0a.47.47,0,0,0,.32.1c.13,0,.22-.06.24-.14a.16.16,0,0,0-.07-.13l-.17-.08c-.24-.1-.31-.2-.29-.37a.54.54,0,0,1,.57-.42.65.65,0,0,1,.34.06h0l0,.29,0,0a.49.49,0,0,0-.29-.08c-.13,0-.22.06-.23.14s0,.09.2.17.2.09.24.15a.26.26,0,0,1,.08.26.55.55,0,0,1-.59.42"/></clipPath><clipPath id="clip-path-9"><path class="cls-1" d="M1318.87,351.48a.5.5,0,0,0-.54.45c0,.28.09.42.37.41a.64.64,0,0,0,.2,0l.11-.83Zm-.09,1.74.09-.66-.25,0c-.44,0-.68-.22-.62-.63a.87.87,0,0,1,.94-.75,1.89,1.89,0,0,1,.4,0h0l-.26,2Z"/></clipPath><clipPath id="clip-path-10"><path class="cls-1" d="M1320.17,352.53a.6.6,0,0,1-.44-.1c-.09-.08-.11-.18-.08-.39l.11-.83h.32l-.1.81c0,.21,0,.28.26.27a.91.91,0,0,0,.23,0l.14-1.07.33,0-.17,1.29h0a3.26,3.26,0,0,1-.57.07"/></clipPath><clipPath id="clip-path-11"><path class="cls-1" d="M1322.17,351.59a.22.22,0,0,0-.26-.23.39.39,0,0,0-.36.25Zm-.38.9c-.44,0-.67-.23-.62-.64a.83.83,0,0,1,.78-.75.49.49,0,0,1,.47.22.57.57,0,0,1,0,.41v.09l-1,0v0c0,.23.12.36.38.35a.8.8,0,0,0,.46-.16l0,0,0,.29h0A1,1,0,0,1,1321.79,352.49Z"/></clipPath><clipPath id="clip-path-12"><path class="cls-1" d="M1323.38,352.4l.14-1.06h-.22l0-.24h.22v0a.83.83,0,0,1,.26-.58.69.69,0,0,1,.43-.16h.17l0,.25h-.14a.3.3,0,0,0-.23.11.54.54,0,0,0-.12.36v0h.35l0,.24h-.35l-.14,1.05Z"/></clipPath><clipPath id="clip-path-13"><path class="cls-1" d="M1325,351.74c-.37,0-.45.12-.46.24s0,.16.17.15l.24,0Zm-.35.63q-.48,0-.42-.36c0-.3.27-.45.8-.51h0v0c0-.11,0-.16,0-.18s-.06-.06-.14-.06a.9.9,0,0,0-.46.18l0,0,0-.29h0a1.18,1.18,0,0,1,.54-.16c.2,0,.32.05.37.16a.77.77,0,0,1,0,.31l-.11.83-.07,0Z"/></clipPath><clipPath id="clip-path-14"><path class="cls-1" d="M1325.66,352.31l.16-1.24h0a1.62,1.62,0,0,1,.57-.12.63.63,0,0,1,.24,0h0l0,.27,0,0a.71.71,0,0,0-.21,0,.65.65,0,0,0-.26.06l-.14,1.05Z"/></clipPath><clipPath id="clip-path-15"><path class="cls-1" d="M1328.4,352.2l.11-.83c0-.19,0-.26-.22-.25a.79.79,0,0,0-.25.05.47.47,0,0,1,0,.2l-.11.85-.32,0,.11-.84c0-.19,0-.26-.24-.25a.82.82,0,0,0-.26,0l-.14,1.07h-.32l.16-1.26h0a3,3,0,0,1,.6-.11.7.7,0,0,1,.37.08,1.29,1.29,0,0,1,.45-.11.48.48,0,0,1,.41.13.39.39,0,0,1,.07.34l-.12.86Z"/></clipPath><clipPath id="clip-path-16"><path class="cls-1" d="M1313.35,352.78l.11-.84c0-.19,0-.26-.22-.25a.74.74,0,0,0-.24.05,1.72,1.72,0,0,1,0,.2l-.11.86h-.33l.11-.84c0-.19,0-.26-.24-.25a1.11,1.11,0,0,0-.25,0l-.14,1.06h-.33l.17-1.26h0a2,2,0,0,1,.61-.11.58.58,0,0,1,.36.07,1.09,1.09,0,0,1,.46-.1.5.5,0,0,1,.41.12.38.38,0,0,1,.06.35l-.11.86Z"/></clipPath><clipPath id="clip-path-17"><path class="cls-1" d="M1329.6,350.68l.57-.59.3,0-.64.6Zm.26.88c-.36,0-.45.12-.46.24s0,.15.17.15l.24,0Zm-.35.62c-.31,0-.45-.1-.42-.35s.27-.45.8-.51h0v0a.43.43,0,0,0,0-.19s-.07-.05-.15-.05a.9.9,0,0,0-.46.17l0,0,0-.29h0a1.24,1.24,0,0,1,.55-.17c.19,0,.31.05.36.17a.51.51,0,0,1,0,.31l-.11.83H1330A3,3,0,0,1,1329.51,352.18Z"/></clipPath><clipPath id="clip-path-18"><path class="cls-1" d="M1331.1,352.13c-.44,0-.69-.24-.63-.64a.87.87,0,0,1,1.18-.68h0l0,.29-.05,0a.47.47,0,0,0-.29-.08.48.48,0,0,0-.49.46.32.32,0,0,0,.37.41.59.59,0,0,0,.34-.11l0,0,0,.29h0a1,1,0,0,1-.41.11"/></clipPath><clipPath id="clip-path-19"><path class="cls-1" d="M1332,350.54l0-.33.34,0,0,.34Zm-.19,1.54.18-1.34h.32l-.17,1.33Z"/></clipPath><clipPath id="clip-path-20"><path class="cls-1" d="M1333.25,351.43c-.37,0-.45.12-.46.24s0,.15.17.15l.24,0Zm-.35.62c-.32,0-.46-.1-.43-.35s.28-.45.81-.51h0v0c0-.11,0-.16,0-.19s-.06-.05-.14-.05a1,1,0,0,0-.46.17l-.06,0,0-.29h0a1.07,1.07,0,0,1,.54-.16c.2,0,.32,0,.37.16a.75.75,0,0,1,0,.31l-.11.83h-.08A2.76,2.76,0,0,1,1332.9,352.05Z"/></clipPath><clipPath id="clip-path-21"><path class="cls-1" d="M1301.68,347.15l-.55,3.11a4.38,4.38,0,0,0,2.8-3.2Z"/></clipPath><clipPath id="clip-path-22"><path class="cls-1" d="M1302.06,345.14l1.67-.06a4.17,4.17,0,0,0-1.35-1.75Z"/></clipPath><clipPath id="clip-path-23"><path class="cls-1" d="M1299.3,348.93c.13-.51.3-1.37,1.88-1.71.13,0,.12-.06,0-.05l-5.1.19c.05-.27.19-1.1.25-1.41.1-.51.36-.61.83-.62l2.78-.11.51-2.77a6,6,0,0,0-1.49-.15c-2.68.11-4.78,2.05-4.69,4.36s2.14,3.93,4.67,4Z"/></clipPath><clipPath id="clip-path-24"><polygon class="cls-1" points="1315.3 432.41 1284.77 430.01 1285.06 426.25 1311.53 428.34 1311.44 381.2 1315.21 381.19 1315.3 432.41"/></clipPath><clipPath id="clip-path-25"><rect class="cls-2" x="1325.45" y="417.47" width="3.76" height="27.92" transform="translate(797.01 1722.43) rotate(-85.67)"/></clipPath><clipPath id="clip-path-26"><path class="cls-1" d="M1319,415.74a1.88,1.88,0,0,1-1-3.5l1-.61v-1.9l-1.52-1.26a1.89,1.89,0,0,1,2.41-2.9l2.19,1.84a1.86,1.86,0,0,1,.68,1.44v3.85a1.89,1.89,0,0,1-.92,1.62l-2,1.15a1.86,1.86,0,0,1-1,.27"/></clipPath><clipPath id="clip-path-27"><path class="cls-1" d="M1307.23,415.2a1.9,1.9,0,0,1-1-.26l-2-1.16a1.89,1.89,0,0,1-.92-1.62v-3.85a1.87,1.87,0,0,1,.68-1.44l2.19-1.83a1.88,1.88,0,0,1,2.41,2.89l-1.52,1.26v1.9l1,.61a1.88,1.88,0,0,1-1,3.5"/></clipPath><clipPath id="clip-path-28"><path class="cls-2" d="M757.7,805.87h83.52l-35.55-33.82a3.29,3.29,0,0,1,0-4.93,3.7,3.7,0,0,1,5.18,0l42,39.81a3.29,3.29,0,0,1,0,4.93L811,851.67a3.71,3.71,0,0,1-5.19,0,3.29,3.29,0,0,1,0-4.93l35.37-33.82H757.7a3.53,3.53,0,1,1,0-7Z"/></clipPath></defs><title>icon</title><path class="cls-3" d="M1352.43,436.92h-.16l-11-.92a1.88,1.88,0,0,1-1.72-1.87V389.8a6.43,6.43,0,0,0-1.71-4.91,6.64,6.64,0,0,0-4.5-1.45h-.17l-47.55-.53v46.91a1.85,1.85,0,0,1-.61,1.38,1.9,1.9,0,0,1-1.42.5l-9.25-.74a1.88,1.88,0,0,1-1.74-1.89c0-.29.28-29.76.22-36.75a14.81,14.81,0,0,1,3.35-9.34h-5.9a3.56,3.56,0,0,1-3.26-2.65,1.75,1.75,0,0,1-.08-.55v-6.09c0-3.06,1.89-4.32,3-4.58a1.92,1.92,0,0,1,.41-.05l67.22-.92a1.18,1.18,0,0,1,.26,0c15.86,2,16.65,15.92,16.66,16.06v.09l-.18,50.74a1.87,1.87,0,0,1-1.88,1.87Zm-9.11-4.52,7.23.6.18-48.64c0-.78-1-10.83-13.25-12.45l-66.6.9a1.58,1.58,0,0,0-.18.88v5.53h10.11a1.87,1.87,0,0,1,1.43.66l.18-.21a1.84,1.84,0,0,1,1.35-.54l49.38.55a10.4,10.4,0,0,1,7.22,2.41c2,1.8,3,4.39,3,7.71Zm-66.93-5,5.47.44V382.66h0s-5.32,3.68-5.27,9.62S1276.45,420.86,1276.39,427.35Z"/><g class="cls-4"><rect class="cls-2" x="-3230.84" y="-2147.01" width="6348.4" height="5052.27"/></g><path class="cls-3" d="M1357.55,433.45h-3.77V383.84c-.09-1-1.31-11.31-12-12.12L1342,368c11.42.87,15.13,10.63,15.5,15.66v49.83Z"/><g class="cls-5"><rect class="cls-2" x="-3230.84" y="-2147.01" width="6348.4" height="5052.27"/></g><path class="cls-3" d="M1277.94,365.92a1.88,1.88,0,0,1-1.88-1.87l-.12-19.84a1.87,1.87,0,0,1,1.82-1.89l9.65-.31h.09l3.42.06a1.88,1.88,0,1,1-.07,3.76l-3.37-.06-7.76.25.11,18a1.88,1.88,0,0,1-1.87,1.89Z"/><g class="cls-6"><rect class="cls-2" x="-3230.84" y="-2147.01" width="6348.4" height="5052.27"/></g><path class="cls-3" d="M1293.58,358.84h-.46a5,5,0,0,1-4.15-1.76,4.52,4.52,0,0,1-.8-3.49l.83-9.69c-.07-2.53.62-4.43,2.07-5.65a6,6,0,0,1,4.7-1.19l41.84-2,.23,0c2.51.51,4.26,1.53,5.19,3a4.37,4.37,0,0,1,.64,3.1c-.11,1.41-.78,9.73-1.45,12.36a5.76,5.76,0,0,1-4.77,4.33h-.18c-1.59,0-37.92.92-43.69.92m1.2-18.09a2,2,0,0,0-1.31.4,3.61,3.61,0,0,0-.7,2.73V344l-.91,10.28a.94.94,0,0,0,.08.5,1.93,1.93,0,0,0,1.24.3c3.65.06,41.35-.86,43.87-.92a2,2,0,0,0,1.53-1.52c.52-2,1.15-9.22,1.35-11.82l0-.32c0-.54-.81-1.26-2.65-1.68l-41.83,2-.23,0a2.33,2.33,0,0,0-.48,0"/><g class="cls-7"><rect class="cls-2" x="-3230.84" y="-2147.01" width="6348.4" height="5052.27"/></g><path class="cls-3" d="M1330.26,343.94a1.15,1.15,0,0,0-.93-.27,1.62,1.62,0,0,0-1,.4,2.1,2.1,0,0,0-.61,1.23l0,.18,1.95-.06c.51,0,.79-.17.86-.61a1,1,0,0,0-.2-.87m1.83,1a1.43,1.43,0,0,1-.61,1.08,2.62,2.62,0,0,1-1.42.4,9,9,0,0,1-1.86,0c-.38-.07-.51-.65-.56-.81a3.89,3.89,0,0,0-.08,1.09,1.17,1.17,0,0,0,.5,1,2.25,2.25,0,0,0,1.22.24c.32,0,.66,0,1-.08a8,8,0,0,0,.81-.11h0c.06,0,.14,0,.12.12l-.1.82c0,.06,0,.1-.11.13a6.84,6.84,0,0,1-1.06.25,8.49,8.49,0,0,1-1.08.12,4.64,4.64,0,0,1-1.53-.16,2,2,0,0,1-.95-.59,2.08,2.08,0,0,1-.46-1,4.76,4.76,0,0,1,0-1.37l0-.41a3.86,3.86,0,0,1,1-2.32,3.63,3.63,0,0,1,2.51-.93,2.56,2.56,0,0,1,2.07.64,2.34,2.34,0,0,1,.47,1.92m-22.44-1.73-4.45.16c-.29,0-.39.21-.43.49s-.08.59-.11.83.09.31.3.31l.38,0,1.4,0c.12,0,0,0,0,0a2.35,2.35,0,0,0-1.28,1.89c0,.21-.34,2.67-.34,2.67a.89.89,0,0,0,0,.15c0,.24.14.29.23.28l.9,0h.08c.35,0,.44-.11.49-.46.06-.51.54-4.28.57-4.57l1,0c.48,0,1.06-.07,1.33.26s.22.71.16,1.26c0,0-.38,3-.38,3s0,.11,0,.15c0,.24.14.29.23.28l.89,0h.08c.35,0,.45-.11.49-.46,0-.13.48-3.76.51-4a1.87,1.87,0,0,0-2.08-2.07m25.06-.34c0-.24,0-.66-.48-.64l-.81,0a.42.42,0,0,0-.39.36l-.73,5.88c-.06.32,0,.44.21.44l1.17-.05a.33.33,0,0,0,.32-.28l.09-.71s.24-1.91.43-3.5a.3.3,0,0,0-.34-.37l-1,0h-.09c.51-.09,1.49-.53,1.57-1.19m-20.64,1.93-1,0H1313c.51-.09,1.48-.53,1.56-1.19,0-.24,0-.66-.47-.64l-.81,0a.42.42,0,0,0-.4.35l-.73,5.89c0,.32.06.44.22.43l1.17,0a.35.35,0,0,0,.31-.29l.1-.7s.23-1.92.43-3.51a.31.31,0,0,0-.35-.36m11.31-2.06a4.24,4.24,0,0,0-.9-.17,6.44,6.44,0,0,0-1.08,0,4.37,4.37,0,0,0-1,.14,2.57,2.57,0,0,0-.8.37,1.89,1.89,0,0,0-.56.6,2.24,2.24,0,0,0-.29.86,1.45,1.45,0,0,0,.25,1.11,2.38,2.38,0,0,0,1,.69l1,.38a1.74,1.74,0,0,1,.46.27.46.46,0,0,1,.14.43.64.64,0,0,1-.31.49,1.55,1.55,0,0,1-.75.16c-.32,0-.67,0-1,0s-.73,0-1-.06h0a.1.1,0,0,0-.12.09v0l-.12.93a.14.14,0,0,0,.13.18,9.43,9.43,0,0,0,1.12.16,9.79,9.79,0,0,0,1.23,0,3.24,3.24,0,0,0,1.84-.57,2,2,0,0,0,.83-1.44,1.55,1.55,0,0,0-.24-1.13,2.13,2.13,0,0,0-1-.72l-1-.41a2.29,2.29,0,0,1-.45-.23.4.4,0,0,1-.15-.41.55.55,0,0,1,.31-.47,1.65,1.65,0,0,1,.69-.13h.88c.29,0,.58,0,.86.06h.07a.13.13,0,0,0,.09-.1c0-.05,0,0,0,0l.11-.93c0-.11-.07-.16-.14-.18m-5.37,1.35a.12.12,0,0,1-.1.09h-.07c-.28,0-.57-.06-.86-.07h-.88a2.11,2.11,0,0,0-.69.13.55.55,0,0,0-.31.48.4.4,0,0,0,.15.41,2.29,2.29,0,0,0,.45.23l1,.4a2.14,2.14,0,0,1,1,.72,1.53,1.53,0,0,1,.24,1.14,2,2,0,0,1-.82,1.43,3.3,3.3,0,0,1-1.85.57,8.25,8.25,0,0,1-1.23,0,9.72,9.72,0,0,1-1.12-.17c-.1,0-.14-.07-.13-.17l.12-.93s0,0,0,0a.09.09,0,0,1,.11-.1h0c.31,0,.66.05,1,.06h1.05a1.61,1.61,0,0,0,.76-.17.61.61,0,0,0,.3-.49.44.44,0,0,0-.14-.43,1.75,1.75,0,0,0-.46-.26l-1-.38a2.4,2.4,0,0,1-1-.69,1.38,1.38,0,0,1-.25-1.11,2.08,2.08,0,0,1,.28-.86,2,2,0,0,1,.56-.6,2.46,2.46,0,0,1,.8-.37,3.93,3.93,0,0,1,1-.15,9.6,9.6,0,0,1,1.08,0,4.76,4.76,0,0,1,.9.18c.07,0,.16.06.15.18l-.12.93s0,0,0,0"/><g class="cls-8"><rect class="cls-2" x="-3230.84" y="-2147.01" width="6348.4" height="5052.27"/></g><path class="cls-3" d="M1314.87,352.13c-.36,0-.45.12-.46.24s0,.15.17.15l.24,0Zm-.35.62c-.31,0-.46-.1-.42-.35s.27-.45.8-.51h0v0a.43.43,0,0,0,0-.19s-.07-.05-.15-.05a1,1,0,0,0-.46.17l0,0,0-.29h0a1.1,1.1,0,0,1,.54-.16c.2,0,.32,0,.37.16a.61.61,0,0,1,0,.31l-.11.83H1315A3,3,0,0,1,1314.52,352.75Z"/><g class="cls-9"><rect class="cls-2" x="-3230.84" y="-2147.01" width="6348.4" height="5052.27"/></g><path class="cls-3" d="M1315.68,351.16l0-.33.35,0,0,.34Zm-.19,1.54.17-1.34h.33l-.18,1.33Z"/><g class="cls-10"><rect class="cls-2" x="-3230.84" y="-2147.01" width="6348.4" height="5052.27"/></g><path class="cls-3" d="M1316.53,352.69a.76.76,0,0,1-.36-.06h0l0-.32,0,0a.47.47,0,0,0,.32.1c.13,0,.22-.06.24-.14a.16.16,0,0,0-.07-.13l-.17-.08c-.24-.1-.31-.2-.29-.37a.54.54,0,0,1,.57-.42.65.65,0,0,1,.34.06h0l0,.29,0,0a.49.49,0,0,0-.29-.08c-.13,0-.22.06-.23.14s0,.09.2.17.2.09.24.15a.26.26,0,0,1,.08.26.55.55,0,0,1-.59.42"/><g class="cls-11"><rect class="cls-2" x="-3230.84" y="-2147.01" width="6348.4" height="5052.27"/></g><path class="cls-3" d="M1318.87,351.48a.5.5,0,0,0-.54.45c0,.28.09.42.37.41a.64.64,0,0,0,.2,0l.11-.83Zm-.09,1.74.09-.66-.25,0c-.44,0-.68-.22-.62-.63a.87.87,0,0,1,.94-.75,1.89,1.89,0,0,1,.4,0h0l-.26,2Z"/><g class="cls-12"><rect class="cls-2" x="-3230.84" y="-2147.01" width="6348.4" height="5052.27"/></g><path class="cls-3" d="M1320.17,352.53a.6.6,0,0,1-.44-.1c-.09-.08-.11-.18-.08-.39l.11-.83h.32l-.1.81c0,.21,0,.28.26.27a.91.91,0,0,0,.23,0l.14-1.07.33,0-.17,1.29h0a3.26,3.26,0,0,1-.57.07"/><g class="cls-13"><rect class="cls-2" x="-3230.84" y="-2147.01" width="6348.4" height="5052.27"/></g><path class="cls-3" d="M1322.17,351.59a.22.22,0,0,0-.26-.23.39.39,0,0,0-.36.25Zm-.38.9c-.44,0-.67-.23-.62-.64a.83.83,0,0,1,.78-.75.49.49,0,0,1,.47.22.57.57,0,0,1,0,.41v.09l-1,0v0c0,.23.12.36.38.35a.8.8,0,0,0,.46-.16l0,0,0,.29h0A1,1,0,0,1,1321.79,352.49Z"/><g class="cls-14"><rect class="cls-2" x="-3230.84" y="-2147.01" width="6348.4" height="5052.27"/></g><path class="cls-3" d="M1323.38,352.4l.14-1.06h-.22l0-.24h.22v0a.83.83,0,0,1,.26-.58.69.69,0,0,1,.43-.16h.17l0,.25h-.14a.3.3,0,0,0-.23.11.54.54,0,0,0-.12.36v0h.35l0,.24h-.35l-.14,1.05Z"/><g class="cls-15"><rect class="cls-2" x="-3230.84" y="-2147.01" width="6348.4" height="5052.27"/></g><path class="cls-3" d="M1325,351.74c-.37,0-.45.12-.46.24s0,.16.17.15l.24,0Zm-.35.63q-.48,0-.42-.36c0-.3.27-.45.8-.51h0v0c0-.11,0-.16,0-.18s-.06-.06-.14-.06a.9.9,0,0,0-.46.18l0,0,0-.29h0a1.18,1.18,0,0,1,.54-.16c.2,0,.32.05.37.16a.77.77,0,0,1,0,.31l-.11.83-.07,0Z"/><g class="cls-16"><rect class="cls-2" x="-3230.84" y="-2147.01" width="6348.4" height="5052.27"/></g><path class="cls-3" d="M1325.66,352.31l.16-1.24h0a1.62,1.62,0,0,1,.57-.12.63.63,0,0,1,.24,0h0l0,.27,0,0a.71.71,0,0,0-.21,0,.65.65,0,0,0-.26.06l-.14,1.05Z"/><g class="cls-17"><rect class="cls-2" x="-3230.84" y="-2147.01" width="6348.4" height="5052.27"/></g><path class="cls-3" d="M1328.4,352.2l.11-.83c0-.19,0-.26-.22-.25a.79.79,0,0,0-.25.05.47.47,0,0,1,0,.2l-.11.85-.32,0,.11-.84c0-.19,0-.26-.24-.25a.82.82,0,0,0-.26,0l-.14,1.07h-.32l.16-1.26h0a3,3,0,0,1,.6-.11.7.7,0,0,1,.37.08,1.29,1.29,0,0,1,.45-.11.48.48,0,0,1,.41.13.39.39,0,0,1,.07.34l-.12.86Z"/><g class="cls-18"><rect class="cls-2" x="-3230.84" y="-2147.01" width="6348.4" height="5052.27"/></g><path class="cls-3" d="M1313.35,352.78l.11-.84c0-.19,0-.26-.22-.25a.74.74,0,0,0-.24.05,1.72,1.72,0,0,1,0,.2l-.11.86h-.33l.11-.84c0-.19,0-.26-.24-.25a1.11,1.11,0,0,0-.25,0l-.14,1.06h-.33l.17-1.26h0a2,2,0,0,1,.61-.11.58.58,0,0,1,.36.07,1.09,1.09,0,0,1,.46-.1.5.5,0,0,1,.41.12.38.38,0,0,1,.06.35l-.11.86Z"/><g class="cls-19"><rect class="cls-2" x="-3230.84" y="-2147.01" width="6348.4" height="5052.27"/></g><path class="cls-3" d="M1329.6,350.68l.57-.59.3,0-.64.6Zm.26.88c-.36,0-.45.12-.46.24s0,.15.17.15l.24,0Zm-.35.62c-.31,0-.45-.1-.42-.35s.27-.45.8-.51h0v0a.43.43,0,0,0,0-.19s-.07-.05-.15-.05a.9.9,0,0,0-.46.17l0,0,0-.29h0a1.24,1.24,0,0,1,.55-.17c.19,0,.31.05.36.17a.51.51,0,0,1,0,.31l-.11.83H1330A3,3,0,0,1,1329.51,352.18Z"/><g class="cls-20"><rect class="cls-2" x="-3230.84" y="-2147.01" width="6348.4" height="5052.27"/></g><path class="cls-3" d="M1331.1,352.13c-.44,0-.69-.24-.63-.64a.87.87,0,0,1,1.18-.68h0l0,.29-.05,0a.47.47,0,0,0-.29-.08.48.48,0,0,0-.49.46.32.32,0,0,0,.37.41.59.59,0,0,0,.34-.11l0,0,0,.29h0a1,1,0,0,1-.41.11"/><g class="cls-21"><rect class="cls-2" x="-3230.84" y="-2147.01" width="6348.4" height="5052.27"/></g><path class="cls-3" d="M1332,350.54l0-.33.34,0,0,.34Zm-.19,1.54.18-1.34h.32l-.17,1.33Z"/><g class="cls-22"><rect class="cls-2" x="-3230.84" y="-2147.01" width="6348.4" height="5052.27"/></g><path class="cls-3" d="M1333.25,351.43c-.37,0-.45.12-.46.24s0,.15.17.15l.24,0Zm-.35.62c-.32,0-.46-.1-.43-.35s.28-.45.81-.51h0v0c0-.11,0-.16,0-.19s-.06-.05-.14-.05a1,1,0,0,0-.46.17l-.06,0,0-.29h0a1.07,1.07,0,0,1,.54-.16c.2,0,.32,0,.37.16a.75.75,0,0,1,0,.31l-.11.83h-.08A2.76,2.76,0,0,1,1332.9,352.05Z"/><g class="cls-23"><rect class="cls-2" x="-3230.84" y="-2147.01" width="6348.4" height="5052.27"/></g><path class="cls-3" d="M1301.68,347.15l-.55,3.11a4.38,4.38,0,0,0,2.8-3.2Z"/><g class="cls-24"><rect class="cls-2" x="-3230.84" y="-2147.01" width="6348.4" height="5052.27"/></g><path class="cls-3" d="M1302.06,345.14l1.67-.06a4.17,4.17,0,0,0-1.35-1.75Z"/><g class="cls-25"><rect class="cls-2" x="-3230.84" y="-2147.01" width="6348.4" height="5052.27"/></g><path class="cls-3" d="M1299.3,348.93c.13-.51.3-1.37,1.88-1.71.13,0,.12-.06,0-.05l-5.1.19c.05-.27.19-1.1.25-1.41.1-.51.36-.61.83-.62l2.78-.11.51-2.77a6,6,0,0,0-1.49-.15c-2.68.11-4.78,2.05-4.69,4.36s2.14,3.93,4.67,4Z"/><g class="cls-26"><rect class="cls-2" x="-3230.84" y="-2147.01" width="6348.4" height="5052.27"/></g><polygon class="cls-3" points="1315.3 432.41 1284.77 430.01 1285.06 426.25 1311.53 428.34 1311.44 381.2 1315.21 381.19 1315.3 432.41"/><g class="cls-27"><rect class="cls-2" x="-3230.84" y="-2147.01" width="6348.4" height="5052.27"/></g><rect class="cls-2" x="1325.45" y="417.47" width="3.76" height="27.92" transform="translate(797.01 1722.43) rotate(-85.67)"/><g class="cls-28"><rect class="cls-2" x="-3230.84" y="-2147.01" width="6348.4" height="5052.27"/></g><path class="cls-3" d="M1319,415.74a1.88,1.88,0,0,1-1-3.5l1-.61v-1.9l-1.52-1.26a1.89,1.89,0,0,1,2.41-2.9l2.19,1.84a1.86,1.86,0,0,1,.68,1.44v3.85a1.89,1.89,0,0,1-.92,1.62l-2,1.15a1.86,1.86,0,0,1-1,.27"/><g class="cls-29"><rect class="cls-2" x="-3230.84" y="-2147.01" width="6348.4" height="5052.27"/></g><path class="cls-3" d="M1307.23,415.2a1.9,1.9,0,0,1-1-.26l-2-1.16a1.89,1.89,0,0,1-.92-1.62v-3.85a1.87,1.87,0,0,1,.68-1.44l2.19-1.83a1.88,1.88,0,0,1,2.41,2.89l-1.52,1.26v1.9l1,.61a1.88,1.88,0,0,1-1,3.5"/><g class="cls-30"><rect class="cls-2" x="-3230.84" y="-2147.01" width="6348.4" height="5052.27"/></g><path class="cls-2" d="M110.56,49.78a6.75,6.75,0,0,1-3.21-8.26l.23-.92A15.93,15.93,0,0,0,97.26,20.42a14.52,14.52,0,0,0-9.86,0l-.92.23a7,7,0,0,1-8.26-3.21A16.25,16.25,0,0,0,56.2,11a15.72,15.72,0,0,0-6.42,6.43,6.75,6.75,0,0,1-8.26,3.21l-.92-.23A15.93,15.93,0,0,0,20.42,30.74a14.52,14.52,0,0,0,0,9.86l.23.92a7,7,0,0,1-3.21,8.26A16.25,16.25,0,0,0,11,71.8a15.72,15.72,0,0,0,6.43,6.42,6.75,6.75,0,0,1,3.21,8.26l-.23.92a15.93,15.93,0,0,0,10.32,20.18,14.52,14.52,0,0,0,9.86,0l.92-.23a7,7,0,0,1,8.26,3.21,16.25,16.25,0,0,0,22,6.43,15.72,15.72,0,0,0,6.42-6.43,6.75,6.75,0,0,1,8.26-3.21l.92.23a15.93,15.93,0,0,0,20.18-10.32,14.52,14.52,0,0,0,0-9.86l-.23-.92a7,7,0,0,1,3.21-8.26h0a16.25,16.25,0,0,0,6.43-22,15.72,15.72,0,0,0-6.43-6.42Zm-4.35,20.41a15.75,15.75,0,0,0-7.57,19l.23.92a7,7,0,0,1-4.59,8.72,6.35,6.35,0,0,1-4.13,0l-.92-.23a16.27,16.27,0,0,0-19,7.57,6.89,6.89,0,0,1-9.4,2.75A7.87,7.87,0,0,1,58,106.21a16,16,0,0,0-14.23-8.49,17.37,17.37,0,0,0-4.81.69l-.92.23a7,7,0,0,1-8.72-4.59,6.35,6.35,0,0,1,0-4.13l.23-.69a16.28,16.28,0,0,0-7.57-19,6.89,6.89,0,0,1-2.75-9.4A7.87,7.87,0,0,1,22,58a16.28,16.28,0,0,0,7.57-19l-.23-.92A7,7,0,0,1,34,29.36a6.35,6.35,0,0,1,4.13,0l.92.23A16.28,16.28,0,0,0,58,22a6.89,6.89,0,0,1,9.4-2.75A7.87,7.87,0,0,1,70.19,22a16.13,16.13,0,0,0,19,7.8l.92-.23a7,7,0,0,1,8.72,4.59,6.35,6.35,0,0,1,0,4.13l-.23.46a16.27,16.27,0,0,0,7.57,19,6.89,6.89,0,0,1,2.75,9.4,5,5,0,0,1-2.75,3Z"/><path class="cls-2" d="M81,47a4.42,4.42,0,0,0-6.42,0L47,74.55a4.55,4.55,0,1,0,6,6.88c.23-.23.46-.23.46-.46L81,53.45A4.42,4.42,0,0,0,81,47Z"/><path class="cls-2" d="M54.82,52.53a6.88,6.88,0,1,0-6.88,6.88A6.76,6.76,0,0,0,54.82,52.53Z"/><path class="cls-2" d="M80.06,68.59a6.88,6.88,0,1,0,6.88,6.88h0A6.76,6.76,0,0,0,80.06,68.59Z"/><path class="cls-2" d="M757.7,805.87h83.52l-35.55-33.82a3.29,3.29,0,0,1,0-4.93,3.7,3.7,0,0,1,5.18,0l42,39.81a3.29,3.29,0,0,1,0,4.93L811,851.67a3.71,3.71,0,0,1-5.19,0,3.29,3.29,0,0,1,0-4.93l35.37-33.82H757.7a3.53,3.53,0,1,1,0-7Z"/><g class="cls-31"><rect class="cls-2" x="-8046" y="-1927.27" width="9600" height="25640"/></g></svg>