<svg id="Layer_1" data-name="Layer 1" xmlns="http://www.w3.org/2000/svg" xmlns:xlink="http://www.w3.org/1999/xlink" viewBox="0 0 128 128"><defs><style>.cls-1,.cls-2,.cls-3{fill:#8a9297;}.cls-1{clip-rule:evenodd;}.cls-3{fill-rule:evenodd;}.cls-4{clip-path:url(#clip-path);}.cls-5{clip-path:url(#clip-path-2);}.cls-6{clip-path:url(#clip-path-3);}.cls-7{clip-path:url(#clip-path-4);}.cls-8{clip-path:url(#clip-path-5);}.cls-9{clip-path:url(#clip-path-6);}.cls-10{clip-path:url(#clip-path-7);}.cls-11{clip-path:url(#clip-path-8);}.cls-12{clip-path:url(#clip-path-9);}.cls-13{clip-path:url(#clip-path-10);}.cls-14{clip-path:url(#clip-path-11);}.cls-15{clip-path:url(#clip-path-12);}.cls-16{clip-path:url(#clip-path-13);}.cls-17{clip-path:url(#clip-path-14);}.cls-18{clip-path:url(#clip-path-15);}.cls-19{clip-path:url(#clip-path-16);}.cls-20{clip-path:url(#clip-path-17);}.cls-21{clip-path:url(#clip-path-18);}.cls-22{clip-path:url(#clip-path-19);}.cls-23{clip-path:url(#clip-path-20);}.cls-24{clip-path:url(#clip-path-21);}.cls-25{clip-path:url(#clip-path-22);}.cls-26{clip-path:url(#clip-path-23);}.cls-27{clip-path:url(#clip-path-24);}.cls-28{clip-path:url(#clip-path-25);}.cls-29{clip-path:url(#clip-path-26);}.cls-30{clip-path:url(#clip-path-27);}.cls-31{clip-path:url(#clip-path-28);}.cls-32{clip-path:url(#clip-path-29);}</style><clipPath id="clip-path"><path class="cls-1" d="M758,586.5h-.16l-11-.92a1.88,1.88,0,0,1-1.73-1.87V539.38a6.43,6.43,0,0,0-1.71-4.91,6.64,6.64,0,0,0-4.5-1.45h-.17l-47.55-.52v46.9a1.85,1.85,0,0,1-.61,1.38,1.9,1.9,0,0,1-1.42.5l-9.25-.73a1.88,1.88,0,0,1-1.73-1.9c0-.29.27-29.76.21-36.75a14.82,14.82,0,0,1,3.35-9.33h-5.89a3.57,3.57,0,0,1-3.27-2.66,2.09,2.09,0,0,1-.08-.55v-6.09c0-3.06,1.89-4.32,3-4.58a1.75,1.75,0,0,1,.4-.05l67.22-.92.26,0c15.86,2,16.66,15.93,16.66,16.07a.28.28,0,0,1,0,.09l-.19,50.73A1.87,1.87,0,0,1,758,586.5ZM748.9,582l7.24.6.17-48.64c0-.78-.94-10.83-13.24-12.45l-66.61.9a1.71,1.71,0,0,0-.18.88v5.53H686.4a1.85,1.85,0,0,1,1.42.66l.18-.21a1.9,1.9,0,0,1,1.35-.54l49.38.55a10.37,10.37,0,0,1,7.22,2.42c2,1.79,2.95,4.38,2.95,7.7ZM682,576.93l5.48.44V532.25h0c-.05,0-5.32,3.68-5.27,9.62S682,570.45,682,576.93Z"/></clipPath><clipPath id="clip-path-2"><path class="cls-1" d="M763.13,583h-3.77V533.42c-.09-1-1.3-11.31-12-12.12l.28-3.76c11.42.87,15.13,10.63,15.5,15.66V583Z"/></clipPath><clipPath id="clip-path-3"><path class="cls-1" d="M683.53,515.5a1.87,1.87,0,0,1-1.88-1.87l-.13-19.84a1.89,1.89,0,0,1,1.83-1.89l9.64-.31h.1l3.41.06a1.89,1.89,0,0,1-.06,3.77l-3.38-.06-7.76.24.11,18a1.87,1.87,0,0,1-1.87,1.89Z"/></clipPath><clipPath id="clip-path-4"><path class="cls-1" d="M699.16,508.42h-.46a5.05,5.05,0,0,1-4.15-1.76,4.52,4.52,0,0,1-.8-3.49l.84-9.68c-.08-2.54.61-4.44,2.06-5.66a6,6,0,0,1,4.7-1.19l41.85-2,.23.05c2.51.51,4.25,1.53,5.19,3a4.48,4.48,0,0,1,.64,3.1c-.12,1.41-.78,9.74-1.45,12.36a5.78,5.78,0,0,1-4.77,4.33h-.19c-1.59,0-37.91.92-43.69.92m1.21-18.09a2,2,0,0,0-1.31.4,3.57,3.57,0,0,0-.71,2.73v.12l-.91,10.28a.86.86,0,0,0,.09.5c.1.13.49.28,1.23.3,3.65.07,41.35-.85,43.87-.92a2,2,0,0,0,1.53-1.51c.52-2,1.15-9.23,1.35-11.83l0-.31c0-.55-.81-1.27-2.65-1.69l-41.83,2-.22-.05a2.43,2.43,0,0,0-.48,0"/></clipPath><clipPath id="clip-path-5"><path class="cls-1" d="M735.84,493.52a1.13,1.13,0,0,0-.93-.27,1.61,1.61,0,0,0-1,.4,2.11,2.11,0,0,0-.62,1.23l0,.18,2-.06c.5,0,.79-.17.85-.61a1,1,0,0,0-.2-.87m1.83,1.05a1.43,1.43,0,0,1-.61,1.07,2.71,2.71,0,0,1-1.42.41,9.28,9.28,0,0,1-1.86,0c-.38-.07-.51-.65-.56-.81a4.08,4.08,0,0,0-.07,1.09,1.14,1.14,0,0,0,.49,1,2.16,2.16,0,0,0,1.22.24l1-.07c.34,0,.53-.07.81-.12h0c.07,0,.14,0,.13.12l-.11.82c0,.06,0,.1-.11.14a10.3,10.3,0,0,1-1.06.25,10.5,10.5,0,0,1-1.07.11,4.7,4.7,0,0,1-1.54-.16,2,2,0,0,1-1-.59,2.07,2.07,0,0,1-.45-1,4.14,4.14,0,0,1,0-1.37l.05-.41a3.88,3.88,0,0,1,1-2.32,3.69,3.69,0,0,1,2.51-.93,2.56,2.56,0,0,1,2.07.64,2.29,2.29,0,0,1,.47,1.93m-22.43-1.74-4.46.17c-.29,0-.38.2-.43.49s-.08.58-.1.82.08.31.29.31l.39,0,1.4-.05c.11,0,0,0,0,.05a2.34,2.34,0,0,0-1.29,1.89c0,.22-.34,2.67-.34,2.67a.81.81,0,0,0,0,.15c0,.24.13.29.22.28l.9,0h.08c.35,0,.44-.11.49-.46.06-.51.54-4.28.57-4.57l1,0c.48,0,1.06-.07,1.33.26s.23.71.16,1.26l-.37,3a.89.89,0,0,0,0,.15c0,.24.14.29.23.29l.89,0h.09c.34,0,.44-.1.48-.46,0-.13.48-3.76.52-4a1.88,1.88,0,0,0-2.08-2.07m25-.34c0-.24,0-.66-.47-.64l-.81,0a.43.43,0,0,0-.4.36l-.73,5.88c0,.33.06.44.21.44l1.17-.05a.33.33,0,0,0,.32-.28l.09-.71.44-3.5a.32.32,0,0,0-.35-.37l-1,0h-.08c.5-.1,1.48-.54,1.56-1.2m-20.63,1.93-1,0h-.1s0,0,0,0c.51-.09,1.48-.53,1.57-1.19,0-.24,0-.66-.48-.64l-.81,0a.43.43,0,0,0-.4.35l-.73,5.89c0,.32.06.44.22.43l1.17,0a.36.36,0,0,0,.32-.29l.09-.7s.23-1.92.43-3.5a.3.3,0,0,0-.34-.37m11.3-2.05a3.58,3.58,0,0,0-.9-.18,6.44,6.44,0,0,0-1.08,0,4.45,4.45,0,0,0-1,.14,2.8,2.8,0,0,0-.8.37,2.14,2.14,0,0,0-.56.6,2.08,2.08,0,0,0-.28.86,1.41,1.41,0,0,0,.25,1.12,2.39,2.39,0,0,0,1,.68l1,.39a1.84,1.84,0,0,1,.45.26.44.44,0,0,1,.14.43.63.63,0,0,1-.3.49,1.62,1.62,0,0,1-.76.16c-.32,0-.67,0-1,0s-.73,0-1-.06h0a.09.09,0,0,0-.11.09c0,.06,0,0,0,0l-.11.93c0,.11,0,.16.12.18.36.07.73.13,1.12.17a12.24,12.24,0,0,0,1.23,0,3.3,3.3,0,0,0,1.85-.57,2,2,0,0,0,.82-1.44,1.5,1.5,0,0,0-.24-1.13,2.1,2.1,0,0,0-1-.72l-1-.41a2.62,2.62,0,0,1-.45-.23.4.4,0,0,1-.15-.41.57.57,0,0,1,.31-.47,1.69,1.69,0,0,1,.69-.13H730a8.09,8.09,0,0,1,.86.07h.07s.08,0,.1-.1,0,0,0,0l.12-.93c0-.11-.08-.15-.15-.17m-5.37,1.34a.11.11,0,0,1-.1.09h-.06c-.28,0-.58-.05-.87-.06a6.46,6.46,0,0,0-.88,0,2,2,0,0,0-.69.12.57.57,0,0,0-.3.48.38.38,0,0,0,.14.41,3.06,3.06,0,0,0,.45.23l1,.4a2.16,2.16,0,0,1,1,.72,1.54,1.54,0,0,1,.24,1.14,2,2,0,0,1-.82,1.43,3.3,3.3,0,0,1-1.85.57,8.28,8.28,0,0,1-1.23,0c-.39,0-.76-.09-1.12-.16-.1,0-.14-.07-.12-.18l.11-.93s0,0,0,0a.1.1,0,0,1,.11-.1h0c.3,0,.65.05,1,.06h1a1.61,1.61,0,0,0,.76-.17.62.62,0,0,0,.31-.49.45.45,0,0,0-.15-.42,1.45,1.45,0,0,0-.45-.27l-1-.38a2.47,2.47,0,0,1-1-.69,1.38,1.38,0,0,1-.25-1.11,2.08,2.08,0,0,1,.28-.86,2.14,2.14,0,0,1,.56-.6,2.56,2.56,0,0,1,.8-.37,5.13,5.13,0,0,1,1-.15,9.49,9.49,0,0,1,1.07,0,5,5,0,0,1,.91.18.17.17,0,0,1,.14.18l-.12.93s0,0,0,0"/></clipPath><clipPath id="clip-path-6"><path class="cls-1" d="M720.45,501.71c-.36,0-.44.12-.46.24s0,.15.17.15a.9.9,0,0,0,.24,0Zm-.35.63q-.47,0-.42-.36c0-.3.27-.45.8-.51h0v0a.55.55,0,0,0,0-.19s-.07-.05-.15-.05a.93.93,0,0,0-.46.18l0,0,0-.29h0a1.11,1.11,0,0,1,.55-.16c.19,0,.31,0,.36.16a.58.58,0,0,1,0,.31l-.11.83h-.08Z"/></clipPath><clipPath id="clip-path-7"><path class="cls-1" d="M721.26,500.75l0-.34h.34l0,.33Zm-.19,1.53.18-1.33.32,0-.17,1.34Z"/></clipPath><clipPath id="clip-path-8"><path class="cls-1" d="M722.11,502.27a.76.76,0,0,1-.36-.06h0l0-.32,0,0a.44.44,0,0,0,.32.1c.14,0,.23-.06.24-.14a.16.16,0,0,0-.07-.13l-.17-.08c-.23-.1-.31-.2-.29-.37a.54.54,0,0,1,.57-.42.68.68,0,0,1,.35.06h0l0,.29,0,0a.49.49,0,0,0-.29-.08c-.13,0-.22.06-.23.14s0,.09.2.17a.73.73,0,0,1,.25.15.32.32,0,0,1,.08.26.57.57,0,0,1-.6.42"/></clipPath><clipPath id="clip-path-9"><path class="cls-1" d="M724.46,501.06a.51.51,0,0,0-.55.45c0,.28.09.42.38.41a.58.58,0,0,0,.19,0l.11-.83Zm-.1,1.74.09-.66-.25,0c-.44,0-.67-.22-.62-.63a.88.88,0,0,1,.95-.75l.39,0h0l-.26,2Z"/></clipPath><clipPath id="clip-path-10"><path class="cls-1" d="M725.76,502.11a.57.57,0,0,1-.44-.1c-.09-.08-.12-.18-.09-.39l.11-.83h.33l-.11.81c0,.22,0,.28.26.27a.85.85,0,0,0,.23,0l.15-1.07.32,0-.17,1.29h0a2.66,2.66,0,0,1-.57.07"/></clipPath><clipPath id="clip-path-11"><path class="cls-1" d="M727.75,501.17a.21.21,0,0,0-.25-.23.42.42,0,0,0-.37.25Zm-.37.9c-.45,0-.68-.23-.63-.64a.81.81,0,0,1,.78-.74.5.5,0,0,1,.48.21.57.57,0,0,1,0,.41v.09l-1,0v0c0,.23.11.36.38.35a.77.77,0,0,0,.45-.16l.06,0,0,.29h0A1,1,0,0,1,727.38,502.07Z"/></clipPath><clipPath id="clip-path-12"><path class="cls-1" d="M729,502l.14-1.05h-.22l0-.24h.22v0a.84.84,0,0,1,.27-.58.73.73,0,0,1,.43-.16H730l0,.25h-.14a.32.32,0,0,0-.24.11.67.67,0,0,0-.12.36v0h.34l0,.24h-.35l-.13,1.06Z"/></clipPath><clipPath id="clip-path-13"><path class="cls-1" d="M730.62,501.32c-.36.05-.45.12-.46.25s0,.15.17.14l.24,0Zm-.35.63c-.31,0-.46-.11-.42-.36s.27-.45.8-.51h0v0a.38.38,0,0,0,0-.18s-.07-.06-.15-.06a.93.93,0,0,0-.46.18l0,0,0-.29h0a1.36,1.36,0,0,1,.55-.16c.19,0,.31.05.36.16a.52.52,0,0,1,0,.31l-.11.84h-.07A4.48,4.48,0,0,1,730.27,502Z"/></clipPath><clipPath id="clip-path-14"><path class="cls-1" d="M731.24,501.89l.16-1.24h0a1.66,1.66,0,0,1,.57-.12.63.63,0,0,1,.24,0h0l0,.27,0,0-.21,0a.7.7,0,0,0-.27.06l-.14,1.05Z"/></clipPath><clipPath id="clip-path-15"><path class="cls-1" d="M734,501.79l.11-.84c0-.19,0-.26-.22-.25a.85.85,0,0,0-.25.05.65.65,0,0,1,0,.2l-.12.85-.32,0,.11-.84c0-.19,0-.26-.24-.25a1.09,1.09,0,0,0-.25,0l-.14,1.07h-.33l.17-1.26h0a2,2,0,0,1,.61-.11.58.58,0,0,1,.36.07,1.29,1.29,0,0,1,.45-.11.56.56,0,0,1,.42.13c.07.08.08.17.06.34l-.11.86Z"/></clipPath><clipPath id="clip-path-16"><path class="cls-1" d="M718.94,502.36l.11-.83c0-.2,0-.26-.22-.26a1.11,1.11,0,0,0-.25.05.73.73,0,0,1,0,.2l-.11.86h-.33l.11-.83c0-.2,0-.26-.24-.26a1.38,1.38,0,0,0-.25.05l-.14,1.06h-.33l.17-1.25h0a2.13,2.13,0,0,1,.61-.11.58.58,0,0,1,.36.07,1.09,1.09,0,0,1,.46-.1.48.48,0,0,1,.41.12.41.41,0,0,1,.07.35l-.12.86Z"/></clipPath><clipPath id="clip-path-17"><path class="cls-1" d="M735.18,500.26l.57-.59.3,0-.64.6Zm.26.88c-.36,0-.44.12-.46.24s0,.15.17.15l.25,0Zm-.34.62c-.32,0-.46-.1-.43-.35s.27-.45.8-.51h0v0a.55.55,0,0,0,0-.19s-.07-.05-.15-.05a1,1,0,0,0-.46.17l0,0,0-.29h0a1,1,0,0,1,.54-.16c.19,0,.32,0,.36.16a.57.57,0,0,1,0,.31l-.11.83h-.08A2.86,2.86,0,0,1,735.1,501.76Z"/></clipPath><clipPath id="clip-path-18"><path class="cls-1" d="M736.68,501.71c-.44,0-.68-.24-.63-.64a.84.84,0,0,1,.83-.74.78.78,0,0,1,.35.06h0l0,.29-.05,0a.47.47,0,0,0-.29-.08.49.49,0,0,0-.49.46.32.32,0,0,0,.37.41.59.59,0,0,0,.34-.11l.06,0,0,.29h0a1,1,0,0,1-.41.11"/></clipPath><clipPath id="clip-path-19"><path class="cls-1" d="M737.55,500.13l.05-.34.34,0,0,.34Zm-.19,1.53.18-1.33.33,0-.18,1.33Z"/></clipPath><clipPath id="clip-path-20"><path class="cls-1" d="M738.83,501c-.36,0-.45.12-.46.24s0,.15.17.15a.9.9,0,0,0,.24,0Zm-.35.63c-.31,0-.46-.11-.42-.36s.27-.45.8-.51h0v0a.43.43,0,0,0,0-.19s-.07-.05-.15-.05a.93.93,0,0,0-.46.18l0,0,0-.29h0a1.1,1.1,0,0,1,.54-.16c.2,0,.32,0,.37.16a.51.51,0,0,1,0,.31l-.11.83H739Z"/></clipPath><clipPath id="clip-path-21"><path class="cls-1" d="M707.26,496.73l-.55,3.11a4.4,4.4,0,0,0,2.81-3.2Z"/></clipPath><clipPath id="clip-path-22"><path class="cls-1" d="M707.64,494.72l1.67-.06a4.08,4.08,0,0,0-1.35-1.74Z"/></clipPath><clipPath id="clip-path-23"><path class="cls-1" d="M704.88,498.51c.13-.51.31-1.37,1.88-1.71.13,0,.12-.06,0-.05l-5.09.19c0-.27.18-1.1.24-1.41.1-.5.36-.6.83-.62l2.79-.11.5-2.77a5.59,5.59,0,0,0-1.49-.14c-2.68.1-4.78,2.05-4.69,4.35s2.15,3.93,4.67,4Z"/></clipPath><clipPath id="clip-path-24"><polygon class="cls-1" points="720.88 581.99 690.35 579.59 690.64 575.84 717.11 577.92 717.02 530.78 720.79 530.77 720.88 581.99"/></clipPath><clipPath id="clip-path-25"><rect class="cls-2" x="731.04" y="567.05" width="3.76" height="27.92" transform="translate(98.28 1268.01) rotate(-85.67)"/></clipPath><clipPath id="clip-path-26"><path class="cls-1" d="M724.55,565.32a1.88,1.88,0,0,1-1-3.5l1-.61v-1.9l-1.52-1.26a1.88,1.88,0,0,1,2.41-2.89l2.2,1.83a1.85,1.85,0,0,1,.67,1.44v3.85a1.89,1.89,0,0,1-.92,1.62l-2,1.16a1.85,1.85,0,0,1-1,.26"/></clipPath><clipPath id="clip-path-27"><path class="cls-1" d="M712.82,564.78a1.85,1.85,0,0,1-1-.26l-2-1.16a1.89,1.89,0,0,1-.92-1.62v-3.85a1.89,1.89,0,0,1,.68-1.44l2.2-1.83a1.88,1.88,0,0,1,2.41,2.89l-1.53,1.27v1.89l1,.61a1.88,1.88,0,0,1-1,3.5"/></clipPath><clipPath id="clip-path-28"><path class="cls-2" d="M403.88,955.45H320.36l35.56-33.82a3.29,3.29,0,0,0,0-4.93,3.71,3.71,0,0,0-5.19,0l-42,39.81a3.29,3.29,0,0,0,0,4.93l41.86,39.81a3.7,3.7,0,0,0,5.18,0,3.29,3.29,0,0,0,0-4.93L320.36,962.5h83.52a3.53,3.53,0,1,0,0-7Z"/></clipPath><clipPath id="clip-path-29"><path class="cls-2" d="M163.29,955.45H246.8l-35.55-33.82a3.29,3.29,0,0,1,0-4.93,3.7,3.7,0,0,1,5.18,0l42,39.81a3.29,3.29,0,0,1,0,4.93l-41.85,39.81a3.71,3.71,0,0,1-5.19,0,3.29,3.29,0,0,1,0-4.93L246.8,962.5H163.29a3.53,3.53,0,1,1,0-7Z"/></clipPath></defs><title>icons</title><path class="cls-2" d="M119.54,51.31,76.69,8.46a7,7,0,0,0-9.81,0L61.31,14,38.93,8a6.93,6.93,0,0,0-8.5,4.89L18.66,56.68l-6.48,6.49a6.9,6.9,0,0,0-2,5L11,110.74c0,.2,0,.39,0,.58L7.6,114.74a4,4,0,0,0,5.66,5.66l3.07-3.07a7.13,7.13,0,0,0,1.54.18l42,.37h0a7,7,0,0,0,4.91-2l54.73-54.73A7,7,0,0,0,119.54,51.31ZM37.88,16l16.9,4.54L30,45.35Zm21.59,93.86-35.38-.32,4.74-4.73A9.55,9.55,0,0,0,38.88,89.12h0A9.54,9.54,0,0,0,23.17,99.18l-4.33,4.32-.69-35L70.22,16.43h0l1.56-1.56,41.35,41.35Zm-28.9-14a1.55,1.55,0,0,1,2.65-1.1,1.55,1.55,0,1,1-2.65,1.1Z"/><polygon class="cls-2" points="54.28 56.32 59.8 85.6 62.76 82.64 57.24 53.36 54.28 56.32"/><path class="cls-2" d="M63.73,62.88c-2.51,2.51-2.44,6.17.49,9.1s6.59,3,9.1.5,2.46-6.19-.47-9.13S66.26,60.35,63.73,62.88Zm7.55,7.56c-1.06,1.07-2.71.92-4.57-1s-2-3.5-.94-4.57,2.73-.9,4.57.94S72.38,69.34,71.28,70.44Z"/><path class="cls-2" d="M43.72,66.48c-2.54,2.54-2.46,6.19.47,9.13s6.59,3,9.12.47,2.46-6.14-.49-9.1S46.25,64,43.72,66.48ZM51.27,74c-1.07,1.07-2.73.9-4.57-.94s-2-3.51-.94-4.58,2.71-.92,4.57,1S52.37,73,51.27,74Z"/><path class="cls-2" d="M65.21,33.36a3,3,0,0,0,0,4.24l3.54,3.54A3,3,0,1,0,73,36.89l-3.53-3.53A3,3,0,0,0,65.21,33.36Z"/><path class="cls-2" d="M90.4,62.79a3,3,0,1,0,4.24-4.25L91.11,55a3,3,0,1,0-4.25,4.24Z"/><path class="cls-2" d="M79.57,52a3,3,0,1,0,4.25-4.24l-3.54-3.54A3,3,0,1,0,76,48.43Z"/><path class="cls-3" d="M758,586.5h-.16l-11-.92a1.88,1.88,0,0,1-1.73-1.87V539.38a6.43,6.43,0,0,0-1.71-4.91,6.64,6.64,0,0,0-4.5-1.45h-.17l-47.55-.52v46.9a1.85,1.85,0,0,1-.61,1.38,1.9,1.9,0,0,1-1.42.5l-9.25-.73a1.88,1.88,0,0,1-1.73-1.9c0-.29.27-29.76.21-36.75a14.82,14.82,0,0,1,3.35-9.33h-5.89a3.57,3.57,0,0,1-3.27-2.66,2.09,2.09,0,0,1-.08-.55v-6.09c0-3.06,1.89-4.32,3-4.58a1.75,1.75,0,0,1,.4-.05l67.22-.92.26,0c15.86,2,16.66,15.93,16.66,16.07a.28.28,0,0,1,0,.09l-.19,50.73A1.87,1.87,0,0,1,758,586.5ZM748.9,582l7.24.6.17-48.64c0-.78-.94-10.83-13.24-12.45l-66.61.9a1.71,1.71,0,0,0-.18.88v5.53H686.4a1.85,1.85,0,0,1,1.42.66l.18-.21a1.9,1.9,0,0,1,1.35-.54l49.38.55a10.37,10.37,0,0,1,7.22,2.42c2,1.79,2.95,4.38,2.95,7.7ZM682,576.93l5.48.44V532.25h0c-.05,0-5.32,3.68-5.27,9.62S682,570.45,682,576.93Z"/><g class="cls-4"><rect class="cls-2" x="-3825.26" y="-1997.43" width="6348.4" height="5052.27"/></g><path class="cls-3" d="M763.13,583h-3.77V533.42c-.09-1-1.3-11.31-12-12.12l.28-3.76c11.42.87,15.13,10.63,15.5,15.66V583Z"/><g class="cls-5"><rect class="cls-2" x="-3825.26" y="-1997.43" width="6348.4" height="5052.27"/></g><path class="cls-3" d="M683.53,515.5a1.87,1.87,0,0,1-1.88-1.87l-.13-19.84a1.89,1.89,0,0,1,1.83-1.89l9.64-.31h.1l3.41.06a1.89,1.89,0,0,1-.06,3.77l-3.38-.06-7.76.24.11,18a1.87,1.87,0,0,1-1.87,1.89Z"/><g class="cls-6"><rect class="cls-2" x="-3825.26" y="-1997.43" width="6348.4" height="5052.27"/></g><path class="cls-3" d="M699.16,508.42h-.46a5.05,5.05,0,0,1-4.15-1.76,4.52,4.52,0,0,1-.8-3.49l.84-9.68c-.08-2.54.61-4.44,2.06-5.66a6,6,0,0,1,4.7-1.19l41.85-2,.23.05c2.51.51,4.25,1.53,5.19,3a4.48,4.48,0,0,1,.64,3.1c-.12,1.41-.78,9.74-1.45,12.36a5.78,5.78,0,0,1-4.77,4.33h-.19c-1.59,0-37.91.92-43.69.92m1.21-18.09a2,2,0,0,0-1.31.4,3.57,3.57,0,0,0-.71,2.73v.12l-.91,10.28a.86.86,0,0,0,.09.5c.1.13.49.28,1.23.3,3.65.07,41.35-.85,43.87-.92a2,2,0,0,0,1.53-1.51c.52-2,1.15-9.23,1.35-11.83l0-.31c0-.55-.81-1.27-2.65-1.69l-41.83,2-.22-.05a2.43,2.43,0,0,0-.48,0"/><g class="cls-7"><rect class="cls-2" x="-3825.26" y="-1997.43" width="6348.4" height="5052.27"/></g><path class="cls-3" d="M735.84,493.52a1.13,1.13,0,0,0-.93-.27,1.61,1.61,0,0,0-1,.4,2.11,2.11,0,0,0-.62,1.23l0,.18,2-.06c.5,0,.79-.17.85-.61a1,1,0,0,0-.2-.87m1.83,1.05a1.43,1.43,0,0,1-.61,1.07,2.71,2.71,0,0,1-1.42.41,9.28,9.28,0,0,1-1.86,0c-.38-.07-.51-.65-.56-.81a4.08,4.08,0,0,0-.07,1.09,1.14,1.14,0,0,0,.49,1,2.16,2.16,0,0,0,1.22.24l1-.07c.34,0,.53-.07.81-.12h0c.07,0,.14,0,.13.12l-.11.82c0,.06,0,.1-.11.14a10.3,10.3,0,0,1-1.06.25,10.5,10.5,0,0,1-1.07.11,4.7,4.7,0,0,1-1.54-.16,2,2,0,0,1-1-.59,2.07,2.07,0,0,1-.45-1,4.14,4.14,0,0,1,0-1.37l.05-.41a3.88,3.88,0,0,1,1-2.32,3.69,3.69,0,0,1,2.51-.93,2.56,2.56,0,0,1,2.07.64,2.29,2.29,0,0,1,.47,1.93m-22.43-1.74-4.46.17c-.29,0-.38.2-.43.49s-.08.58-.1.82.08.31.29.31l.39,0,1.4-.05c.11,0,0,0,0,.05a2.34,2.34,0,0,0-1.29,1.89c0,.22-.34,2.67-.34,2.67a.81.81,0,0,0,0,.15c0,.24.13.29.22.28l.9,0h.08c.35,0,.44-.11.49-.46.06-.51.54-4.28.57-4.57l1,0c.48,0,1.06-.07,1.33.26s.23.71.16,1.26l-.37,3a.89.89,0,0,0,0,.15c0,.24.14.29.23.29l.89,0h.09c.34,0,.44-.1.48-.46,0-.13.48-3.76.52-4a1.88,1.88,0,0,0-2.08-2.07m25-.34c0-.24,0-.66-.47-.64l-.81,0a.43.43,0,0,0-.4.36l-.73,5.88c0,.33.06.44.21.44l1.17-.05a.33.33,0,0,0,.32-.28l.09-.71.44-3.5a.32.32,0,0,0-.35-.37l-1,0h-.08c.5-.1,1.48-.54,1.56-1.2m-20.63,1.93-1,0h-.1s0,0,0,0c.51-.09,1.48-.53,1.57-1.19,0-.24,0-.66-.48-.64l-.81,0a.43.43,0,0,0-.4.35l-.73,5.89c0,.32.06.44.22.43l1.17,0a.36.36,0,0,0,.32-.29l.09-.7s.23-1.92.43-3.5a.3.3,0,0,0-.34-.37m11.3-2.05a3.58,3.58,0,0,0-.9-.18,6.44,6.44,0,0,0-1.08,0,4.45,4.45,0,0,0-1,.14,2.8,2.8,0,0,0-.8.37,2.14,2.14,0,0,0-.56.6,2.08,2.08,0,0,0-.28.86,1.41,1.41,0,0,0,.25,1.12,2.39,2.39,0,0,0,1,.68l1,.39a1.84,1.84,0,0,1,.45.26.44.44,0,0,1,.14.43.63.63,0,0,1-.3.49,1.62,1.62,0,0,1-.76.16c-.32,0-.67,0-1,0s-.73,0-1-.06h0a.09.09,0,0,0-.11.09c0,.06,0,0,0,0l-.11.93c0,.11,0,.16.12.18.36.07.73.13,1.12.17a12.24,12.24,0,0,0,1.23,0,3.3,3.3,0,0,0,1.85-.57,2,2,0,0,0,.82-1.44,1.5,1.5,0,0,0-.24-1.13,2.1,2.1,0,0,0-1-.72l-1-.41a2.62,2.62,0,0,1-.45-.23.4.4,0,0,1-.15-.41.57.57,0,0,1,.31-.47,1.69,1.69,0,0,1,.69-.13H730a8.09,8.09,0,0,1,.86.07h.07s.08,0,.1-.1,0,0,0,0l.12-.93c0-.11-.08-.15-.15-.17m-5.37,1.34a.11.11,0,0,1-.1.09h-.06c-.28,0-.58-.05-.87-.06a6.46,6.46,0,0,0-.88,0,2,2,0,0,0-.69.12.57.57,0,0,0-.3.48.38.38,0,0,0,.14.41,3.06,3.06,0,0,0,.45.23l1,.4a2.16,2.16,0,0,1,1,.72,1.54,1.54,0,0,1,.24,1.14,2,2,0,0,1-.82,1.43,3.3,3.3,0,0,1-1.85.57,8.28,8.28,0,0,1-1.23,0c-.39,0-.76-.09-1.12-.16-.1,0-.14-.07-.12-.18l.11-.93s0,0,0,0a.1.1,0,0,1,.11-.1h0c.3,0,.65.05,1,.06h1a1.61,1.61,0,0,0,.76-.17.62.62,0,0,0,.31-.49.45.45,0,0,0-.15-.42,1.45,1.45,0,0,0-.45-.27l-1-.38a2.47,2.47,0,0,1-1-.69,1.38,1.38,0,0,1-.25-1.11,2.08,2.08,0,0,1,.28-.86,2.14,2.14,0,0,1,.56-.6,2.56,2.56,0,0,1,.8-.37,5.13,5.13,0,0,1,1-.15,9.49,9.49,0,0,1,1.07,0,5,5,0,0,1,.91.18.17.17,0,0,1,.14.18l-.12.93s0,0,0,0"/><g class="cls-8"><rect class="cls-2" x="-3825.26" y="-1997.43" width="6348.4" height="5052.27"/></g><path class="cls-3" d="M720.45,501.71c-.36,0-.44.12-.46.24s0,.15.17.15a.9.9,0,0,0,.24,0Zm-.35.63q-.47,0-.42-.36c0-.3.27-.45.8-.51h0v0a.55.55,0,0,0,0-.19s-.07-.05-.15-.05a.93.93,0,0,0-.46.18l0,0,0-.29h0a1.11,1.11,0,0,1,.55-.16c.19,0,.31,0,.36.16a.58.58,0,0,1,0,.31l-.11.83h-.08Z"/><g class="cls-9"><rect class="cls-2" x="-3825.26" y="-1997.43" width="6348.4" height="5052.27"/></g><path class="cls-3" d="M721.26,500.75l0-.34h.34l0,.33Zm-.19,1.53.18-1.33.32,0-.17,1.34Z"/><g class="cls-10"><rect class="cls-2" x="-3825.26" y="-1997.43" width="6348.4" height="5052.27"/></g><path class="cls-3" d="M722.11,502.27a.76.76,0,0,1-.36-.06h0l0-.32,0,0a.44.44,0,0,0,.32.1c.14,0,.23-.06.24-.14a.16.16,0,0,0-.07-.13l-.17-.08c-.23-.1-.31-.2-.29-.37a.54.54,0,0,1,.57-.42.68.68,0,0,1,.35.06h0l0,.29,0,0a.49.49,0,0,0-.29-.08c-.13,0-.22.06-.23.14s0,.09.2.17a.73.73,0,0,1,.25.15.32.32,0,0,1,.08.26.57.57,0,0,1-.6.42"/><g class="cls-11"><rect class="cls-2" x="-3825.26" y="-1997.43" width="6348.4" height="5052.27"/></g><path class="cls-3" d="M724.46,501.06a.51.51,0,0,0-.55.45c0,.28.09.42.38.41a.58.58,0,0,0,.19,0l.11-.83Zm-.1,1.74.09-.66-.25,0c-.44,0-.67-.22-.62-.63a.88.88,0,0,1,.95-.75l.39,0h0l-.26,2Z"/><g class="cls-12"><rect class="cls-2" x="-3825.26" y="-1997.43" width="6348.4" height="5052.27"/></g><path class="cls-3" d="M725.76,502.11a.57.57,0,0,1-.44-.1c-.09-.08-.12-.18-.09-.39l.11-.83h.33l-.11.81c0,.22,0,.28.26.27a.85.85,0,0,0,.23,0l.15-1.07.32,0-.17,1.29h0a2.66,2.66,0,0,1-.57.07"/><g class="cls-13"><rect class="cls-2" x="-3825.26" y="-1997.43" width="6348.4" height="5052.27"/></g><path class="cls-3" d="M727.75,501.17a.21.21,0,0,0-.25-.23.42.42,0,0,0-.37.25Zm-.37.9c-.45,0-.68-.23-.63-.64a.81.81,0,0,1,.78-.74.5.5,0,0,1,.48.21.57.57,0,0,1,0,.41v.09l-1,0v0c0,.23.11.36.38.35a.77.77,0,0,0,.45-.16l.06,0,0,.29h0A1,1,0,0,1,727.38,502.07Z"/><g class="cls-14"><rect class="cls-2" x="-3825.26" y="-1997.43" width="6348.4" height="5052.27"/></g><path class="cls-3" d="M729,502l.14-1.05h-.22l0-.24h.22v0a.84.84,0,0,1,.27-.58.73.73,0,0,1,.43-.16H730l0,.25h-.14a.32.32,0,0,0-.24.11.67.67,0,0,0-.12.36v0h.34l0,.24h-.35l-.13,1.06Z"/><g class="cls-15"><rect class="cls-2" x="-3825.26" y="-1997.43" width="6348.4" height="5052.27"/></g><path class="cls-3" d="M730.62,501.32c-.36.05-.45.12-.46.25s0,.15.17.14l.24,0Zm-.35.63c-.31,0-.46-.11-.42-.36s.27-.45.8-.51h0v0a.38.38,0,0,0,0-.18s-.07-.06-.15-.06a.93.93,0,0,0-.46.18l0,0,0-.29h0a1.36,1.36,0,0,1,.55-.16c.19,0,.31.05.36.16a.52.52,0,0,1,0,.31l-.11.84h-.07A4.48,4.48,0,0,1,730.27,502Z"/><g class="cls-16"><rect class="cls-2" x="-3825.26" y="-1997.43" width="6348.4" height="5052.27"/></g><path class="cls-3" d="M731.24,501.89l.16-1.24h0a1.66,1.66,0,0,1,.57-.12.63.63,0,0,1,.24,0h0l0,.27,0,0-.21,0a.7.7,0,0,0-.27.06l-.14,1.05Z"/><g class="cls-17"><rect class="cls-2" x="-3825.26" y="-1997.43" width="6348.4" height="5052.27"/></g><path class="cls-3" d="M734,501.79l.11-.84c0-.19,0-.26-.22-.25a.85.85,0,0,0-.25.05.65.65,0,0,1,0,.2l-.12.85-.32,0,.11-.84c0-.19,0-.26-.24-.25a1.09,1.09,0,0,0-.25,0l-.14,1.07h-.33l.17-1.26h0a2,2,0,0,1,.61-.11.58.58,0,0,1,.36.07,1.29,1.29,0,0,1,.45-.11.56.56,0,0,1,.42.13c.07.08.08.17.06.34l-.11.86Z"/><g class="cls-18"><rect class="cls-2" x="-3825.26" y="-1997.43" width="6348.4" height="5052.27"/></g><path class="cls-3" d="M718.94,502.36l.11-.83c0-.2,0-.26-.22-.26a1.11,1.11,0,0,0-.25.05.73.73,0,0,1,0,.2l-.11.86h-.33l.11-.83c0-.2,0-.26-.24-.26a1.38,1.38,0,0,0-.25.05l-.14,1.06h-.33l.17-1.25h0a2.13,2.13,0,0,1,.61-.11.58.58,0,0,1,.36.07,1.09,1.09,0,0,1,.46-.1.48.48,0,0,1,.41.12.41.41,0,0,1,.07.35l-.12.86Z"/><g class="cls-19"><rect class="cls-2" x="-3825.26" y="-1997.43" width="6348.4" height="5052.27"/></g><path class="cls-3" d="M735.18,500.26l.57-.59.3,0-.64.6Zm.26.88c-.36,0-.44.12-.46.24s0,.15.17.15l.25,0Zm-.34.62c-.32,0-.46-.1-.43-.35s.27-.45.8-.51h0v0a.55.55,0,0,0,0-.19s-.07-.05-.15-.05a1,1,0,0,0-.46.17l0,0,0-.29h0a1,1,0,0,1,.54-.16c.19,0,.32,0,.36.16a.57.57,0,0,1,0,.31l-.11.83h-.08A2.86,2.86,0,0,1,735.1,501.76Z"/><g class="cls-20"><rect class="cls-2" x="-3825.26" y="-1997.43" width="6348.4" height="5052.27"/></g><path class="cls-3" d="M736.68,501.71c-.44,0-.68-.24-.63-.64a.84.84,0,0,1,.83-.74.78.78,0,0,1,.35.06h0l0,.29-.05,0a.47.47,0,0,0-.29-.08.49.49,0,0,0-.49.46.32.32,0,0,0,.37.41.59.59,0,0,0,.34-.11l.06,0,0,.29h0a1,1,0,0,1-.41.11"/><g class="cls-21"><rect class="cls-2" x="-3825.26" y="-1997.43" width="6348.4" height="5052.27"/></g><path class="cls-3" d="M737.55,500.13l.05-.34.34,0,0,.34Zm-.19,1.53.18-1.33.33,0-.18,1.33Z"/><g class="cls-22"><rect class="cls-2" x="-3825.26" y="-1997.43" width="6348.4" height="5052.27"/></g><path class="cls-3" d="M738.83,501c-.36,0-.45.12-.46.24s0,.15.17.15a.9.9,0,0,0,.24,0Zm-.35.63c-.31,0-.46-.11-.42-.36s.27-.45.8-.51h0v0a.43.43,0,0,0,0-.19s-.07-.05-.15-.05a.93.93,0,0,0-.46.18l0,0,0-.29h0a1.1,1.1,0,0,1,.54-.16c.2,0,.32,0,.37.16a.51.51,0,0,1,0,.31l-.11.83H739Z"/><g class="cls-23"><rect class="cls-2" x="-3825.26" y="-1997.43" width="6348.4" height="5052.27"/></g><path class="cls-3" d="M707.26,496.73l-.55,3.11a4.4,4.4,0,0,0,2.81-3.2Z"/><g class="cls-24"><rect class="cls-2" x="-3825.26" y="-1997.43" width="6348.4" height="5052.27"/></g><path class="cls-3" d="M707.64,494.72l1.67-.06a4.08,4.08,0,0,0-1.35-1.74Z"/><g class="cls-25"><rect class="cls-2" x="-3825.26" y="-1997.43" width="6348.4" height="5052.27"/></g><path class="cls-3" d="M704.88,498.51c.13-.51.31-1.37,1.88-1.71.13,0,.12-.06,0-.05l-5.09.19c0-.27.18-1.1.24-1.41.1-.5.36-.6.83-.62l2.79-.11.5-2.77a5.59,5.59,0,0,0-1.49-.14c-2.68.1-4.78,2.05-4.69,4.35s2.15,3.93,4.67,4Z"/><g class="cls-26"><rect class="cls-2" x="-3825.26" y="-1997.43" width="6348.4" height="5052.27"/></g><polygon class="cls-3" points="720.88 581.99 690.35 579.59 690.64 575.84 717.11 577.92 717.02 530.78 720.79 530.77 720.88 581.99"/><g class="cls-27"><rect class="cls-2" x="-3825.26" y="-1997.43" width="6348.4" height="5052.27"/></g><rect class="cls-2" x="731.04" y="567.05" width="3.76" height="27.92" transform="translate(98.28 1268.01) rotate(-85.67)"/><g class="cls-28"><rect class="cls-2" x="-3825.26" y="-1997.43" width="6348.4" height="5052.27"/></g><path class="cls-3" d="M724.55,565.32a1.88,1.88,0,0,1-1-3.5l1-.61v-1.9l-1.52-1.26a1.88,1.88,0,0,1,2.41-2.89l2.2,1.83a1.85,1.85,0,0,1,.67,1.44v3.85a1.89,1.89,0,0,1-.92,1.62l-2,1.16a1.85,1.85,0,0,1-1,.26"/><g class="cls-29"><rect class="cls-2" x="-3825.26" y="-1997.43" width="6348.4" height="5052.27"/></g><path class="cls-3" d="M712.82,564.78a1.85,1.85,0,0,1-1-.26l-2-1.16a1.89,1.89,0,0,1-.92-1.62v-3.85a1.89,1.89,0,0,1,.68-1.44l2.2-1.83a1.88,1.88,0,0,1,2.41,2.89l-1.53,1.27v1.89l1,.61a1.88,1.88,0,0,1-1,3.5"/><g class="cls-30"><rect class="cls-2" x="-3825.26" y="-1997.43" width="6348.4" height="5052.27"/></g><path class="cls-2" d="M403.88,955.45H320.36l35.56-33.82a3.29,3.29,0,0,0,0-4.93,3.71,3.71,0,0,0-5.19,0l-42,39.81a3.29,3.29,0,0,0,0,4.93l41.86,39.81a3.7,3.7,0,0,0,5.18,0,3.29,3.29,0,0,0,0-4.93L320.36,962.5h83.52a3.53,3.53,0,1,0,0-7Z"/><g class="cls-31"><rect class="cls-2" x="-392.42" y="-1777.69" width="9600" height="25640"/></g><path class="cls-2" d="M163.29,955.45H246.8l-35.55-33.82a3.29,3.29,0,0,1,0-4.93,3.7,3.7,0,0,1,5.18,0l42,39.81a3.29,3.29,0,0,1,0,4.93l-41.85,39.81a3.71,3.71,0,0,1-5.19,0,3.29,3.29,0,0,1,0-4.93L246.8,962.5H163.29a3.53,3.53,0,1,1,0-7Z"/><g class="cls-32"><rect class="cls-2" x="-8640.42" y="-1777.69" width="9600" height="25640"/></g></svg>