<svg id="Layer_1" data-name="Layer 1" xmlns="http://www.w3.org/2000/svg" xmlns:xlink="http://www.w3.org/1999/xlink" viewBox="0 0 127.75 127.75"><defs><style>.cls-1,.cls-2,.cls-3{fill:#8a9297;}.cls-1{clip-rule:evenodd;}.cls-3{fill-rule:evenodd;}.cls-4{clip-path:url(#clip-path);}.cls-5{clip-path:url(#clip-path-2);}.cls-6{clip-path:url(#clip-path-3);}.cls-7{clip-path:url(#clip-path-4);}.cls-8{clip-path:url(#clip-path-5);}.cls-9{clip-path:url(#clip-path-6);}.cls-10{clip-path:url(#clip-path-7);}.cls-11{clip-path:url(#clip-path-8);}.cls-12{clip-path:url(#clip-path-9);}.cls-13{clip-path:url(#clip-path-10);}.cls-14{clip-path:url(#clip-path-11);}.cls-15{clip-path:url(#clip-path-12);}.cls-16{clip-path:url(#clip-path-13);}.cls-17{clip-path:url(#clip-path-14);}.cls-18{clip-path:url(#clip-path-15);}.cls-19{clip-path:url(#clip-path-16);}.cls-20{clip-path:url(#clip-path-17);}.cls-21{clip-path:url(#clip-path-18);}.cls-22{clip-path:url(#clip-path-19);}.cls-23{clip-path:url(#clip-path-20);}.cls-24{clip-path:url(#clip-path-21);}.cls-25{clip-path:url(#clip-path-22);}.cls-26{clip-path:url(#clip-path-23);}.cls-27{clip-path:url(#clip-path-24);}.cls-28{clip-path:url(#clip-path-25);}.cls-29{clip-path:url(#clip-path-26);}.cls-30{clip-path:url(#clip-path-27);}.cls-31{clip-path:url(#clip-path-28);}.cls-32{clip-path:url(#clip-path-29);}</style><clipPath id="clip-path"><path class="cls-1" d="M97.24-298.16h-.16l-11-.91A1.88,1.88,0,0,1,84.37-301v-44.32a6.43,6.43,0,0,0-1.71-4.91,6.63,6.63,0,0,0-4.5-1.46H78l-47.55-.53v46.91a1.91,1.91,0,0,1-.6,1.38,1.88,1.88,0,0,1-1.43.49l-9.25-.73A1.88,1.88,0,0,1,17.42-306c0-.3.28-29.77.22-36.75A14.73,14.73,0,0,1,21-352.1h-5.9a3.56,3.56,0,0,1-3.26-2.65,1.77,1.77,0,0,1-.09-.56v-6.09c0-3.05,1.89-4.32,3-4.58a1.84,1.84,0,0,1,.41,0l67.22-.91h.26c15.86,2,16.65,15.93,16.66,16.07v.09L99.12-300a1.88,1.88,0,0,1-.61,1.38A1.85,1.85,0,0,1,97.24-298.16Zm-9.11-4.53,7.23.6.18-48.64c-.05-.78-1-10.82-13.25-12.45l-66.61.91a1.69,1.69,0,0,0-.17.87v5.54H25.62a1.91,1.91,0,0,1,1.43.65l.18-.2a1.83,1.83,0,0,1,1.34-.54l49.38.54A10.39,10.39,0,0,1,85.18-353c1.95,1.79,2.95,4.39,2.95,7.71Zm-66.93-5,5.47.43v-45.12h0c-.05,0-5.32,3.68-5.27,9.63S21.26-314.22,21.2-307.73Z"/></clipPath><clipPath id="clip-path-2"><path class="cls-1" d="M102.35-301.63H98.59v-49.62c-.09-1-1.31-11.3-12-12.12l.29-3.75c11.42.87,15.13,10.62,15.5,15.66v49.83Z"/></clipPath><clipPath id="clip-path-3"><path class="cls-1" d="M22.75-369.16A1.89,1.89,0,0,1,20.87-371l-.12-19.85a1.87,1.87,0,0,1,1.82-1.89l9.65-.3h.09l3.42.06a1.88,1.88,0,0,1,1.85,1.91,1.89,1.89,0,0,1-1.92,1.85l-3.37-.06-7.77.25.11,18a1.89,1.89,0,0,1-1.87,1.9Z"/></clipPath><clipPath id="clip-path-4"><path class="cls-1" d="M38.39-376.24h-.46A5,5,0,0,1,33.78-378,4.58,4.58,0,0,1,33-381.5l.84-9.68c-.08-2.54.62-4.44,2.07-5.65a6,6,0,0,1,4.69-1.2l41.85-2,.23,0c2.51.51,4.26,1.53,5.19,3a4.46,4.46,0,0,1,.64,3.09c-.11,1.42-.78,9.74-1.45,12.36a5.74,5.74,0,0,1-4.77,4.33l-.18,0c-1.59,0-37.92.92-43.69.92m1.2-18.09a2.07,2.07,0,0,0-1.31.39,3.62,3.62,0,0,0-.7,2.73v.12l-.91,10.29a.82.82,0,0,0,.08.49A1.86,1.86,0,0,0,38-380c3.66.07,41.36-.85,43.88-.91a2,2,0,0,0,1.53-1.52c.51-2,1.15-9.22,1.35-11.83l0-.31c0-.54-.81-1.27-2.65-1.68l-41.83,2-.23-.05a4.69,4.69,0,0,0-.48,0"/></clipPath><clipPath id="clip-path-5"><path class="cls-1" d="M75.06-391.15a1.2,1.2,0,0,0-.92-.27,1.68,1.68,0,0,0-1,.4,2.13,2.13,0,0,0-.61,1.24.75.75,0,0,0,0,.17s1.1,0,2-.06c.5,0,.79-.16.86-.6a1,1,0,0,0-.21-.88m1.84,1a1.43,1.43,0,0,1-.61,1.08,2.74,2.74,0,0,1-1.42.4,9.84,9.84,0,0,1-1.86,0c-.39-.08-.51-.65-.56-.81a3.89,3.89,0,0,0-.08,1.09,1.14,1.14,0,0,0,.5,1,2.16,2.16,0,0,0,1.22.24c.32,0,.66,0,1-.07l.81-.11h0c.06,0,.14,0,.12.12l-.1.83a.15.15,0,0,1-.11.13,7.13,7.13,0,0,1-1.06.25,8.6,8.6,0,0,1-1.08.11,4.64,4.64,0,0,1-1.53-.16,2,2,0,0,1-1-.58,2.11,2.11,0,0,1-.46-1,4.69,4.69,0,0,1,0-1.36l0-.41a3.86,3.86,0,0,1,1-2.33,3.6,3.6,0,0,1,2.5-.92,2.58,2.58,0,0,1,2.08.63,2.36,2.36,0,0,1,.47,1.93m-22.44-1.74-4.45.17c-.29,0-.39.21-.43.49s-.08.58-.11.82.09.32.3.31h.38l1.4-.06c.12,0,.05,0,0,.05a2.38,2.38,0,0,0-1.29,1.9c0,.21-.33,2.66-.33,2.66a.88.88,0,0,0,0,.16c0,.23.14.28.23.28l.89,0h.08c.35,0,.45-.11.49-.47.07-.51.54-4.27.58-4.56l1.05,0c.48,0,1-.07,1.33.25s.22.71.15,1.27l-.37,3a.81.81,0,0,0,0,.15c0,.23.14.28.23.28l.89,0h.08c.35,0,.45-.11.49-.47,0-.12.48-3.76.51-4a1.88,1.88,0,0,0-2.08-2.07m25.06-.33c0-.24,0-.66-.48-.64l-.81,0a.43.43,0,0,0-.4.35l-.73,5.89c0,.32.06.44.22.43l1.17,0a.35.35,0,0,0,.32-.29l.09-.7s.23-1.92.43-3.51A.3.3,0,0,0,79-391l-1,0h-.1s0,0,0,0c.51-.09,1.49-.53,1.57-1.19m-20.64,1.92-1,0h-.08c.5-.1,1.48-.54,1.56-1.2,0-.24,0-.66-.47-.64l-.81,0a.43.43,0,0,0-.4.36L57-385.78c0,.33.06.44.21.44l1.17-.05a.33.33,0,0,0,.32-.28l.09-.71.44-3.5a.32.32,0,0,0-.35-.37m11.31-2.05a4.93,4.93,0,0,0-.9-.18,9.6,9.6,0,0,0-1.08,0,3.79,3.79,0,0,0-1,.15,2.36,2.36,0,0,0-.8.37,1.93,1.93,0,0,0-.57.6,2.24,2.24,0,0,0-.28.86,1.42,1.42,0,0,0,.25,1.11,2.47,2.47,0,0,0,1,.69l1,.38a1.75,1.75,0,0,1,.46.26.49.49,0,0,1,.14.43.62.62,0,0,1-.31.49,1.57,1.57,0,0,1-.75.17H66.32c-.38,0-.73,0-1-.06h0a.11.11,0,0,0-.11.1v0L65-386c0,.1,0,.16.13.17a9.54,9.54,0,0,0,1.11.17,8.39,8.39,0,0,0,1.24,0,3.24,3.24,0,0,0,1.84-.57,2,2,0,0,0,.82-1.43,1.57,1.57,0,0,0-.23-1.14,2.25,2.25,0,0,0-1-.72l-1-.4a3.06,3.06,0,0,1-.45-.23.4.4,0,0,1-.14-.41.57.57,0,0,1,.3-.48,2,2,0,0,1,.69-.12,8.77,8.77,0,0,1,.89,0c.29,0,.58,0,.86.07h.06a.1.1,0,0,0,.1-.09c0-.06,0,0,0,0l.11-.93c0-.12-.07-.16-.14-.18M64.81-391a.12.12,0,0,1-.09.1h-.07a8.09,8.09,0,0,0-.86-.07h-.88a1.69,1.69,0,0,0-.69.13.55.55,0,0,0-.31.47.4.4,0,0,0,.15.41,1.85,1.85,0,0,0,.45.23l1,.41a2.14,2.14,0,0,1,1,.72,1.55,1.55,0,0,1,.24,1.13,2,2,0,0,1-.83,1.44,3.24,3.24,0,0,1-1.84.57,12.24,12.24,0,0,1-1.23,0c-.39,0-.77-.1-1.12-.17a.14.14,0,0,1-.13-.18l.12-.93v0a.1.1,0,0,1,.11-.09h0c.31,0,.66.05,1,.06s.73,0,1,0a1.62,1.62,0,0,0,.76-.16.65.65,0,0,0,.3-.49.49.49,0,0,0-.14-.43,1.75,1.75,0,0,0-.46-.26l-1-.38a2.47,2.47,0,0,1-1-.69,1.49,1.49,0,0,1-.25-1.12,2.24,2.24,0,0,1,.29-.86,1.89,1.89,0,0,1,.56-.6,2.57,2.57,0,0,1,.8-.37,4.37,4.37,0,0,1,1-.14,6.44,6.44,0,0,1,1.08,0,3.67,3.67,0,0,1,.9.18c.07,0,.16.06.14.17l-.11.93s0,0,0,0"/></clipPath><clipPath id="clip-path-6"><path class="cls-1" d="M59.68-383c-.37,0-.45.13-.46.25s0,.15.17.14l.24,0Zm-.35.63c-.32,0-.46-.11-.43-.36s.28-.44.81-.51h0c0-.12,0-.16,0-.19s-.06-.06-.14-.05a.8.8,0,0,0-.46.17l-.06,0,0-.3h0a1.32,1.32,0,0,1,.54-.16c.2,0,.32,0,.37.17a.75.75,0,0,1,0,.31l-.11.83h-.08A4.11,4.11,0,0,1,59.33-382.33Z"/></clipPath><clipPath id="clip-path-7"><path class="cls-1" d="M60.49-383.92l0-.34h.34l0,.34Zm-.19,1.53.17-1.33h.33l-.18,1.33Z"/></clipPath><clipPath id="clip-path-8"><path class="cls-1" d="M61.34-382.39a.88.88,0,0,1-.36-.06h0l0-.32,0,0a.42.42,0,0,0,.31.11c.14,0,.23-.06.24-.15a.1.1,0,0,0-.07-.12l-.16-.08c-.24-.11-.31-.2-.29-.37a.55.55,0,0,1,.57-.43.77.77,0,0,1,.34.07h0l0,.3,0,0a.4.4,0,0,0-.28-.08c-.13,0-.22.06-.23.14s0,.08.19.16a.59.59,0,0,1,.25.16.25.25,0,0,1,.08.25.55.55,0,0,1-.59.43"/></clipPath><clipPath id="clip-path-9"><path class="cls-1" d="M63.68-383.61a.51.51,0,0,0-.54.46c0,.28.09.42.37.41l.2,0,.11-.83Zm-.09,1.75.09-.67a.77.77,0,0,1-.25,0c-.44,0-.68-.22-.62-.63a.87.87,0,0,1,.94-.74,1.85,1.85,0,0,1,.4,0h0l-.26,2Z"/></clipPath><clipPath id="clip-path-10"><path class="cls-1" d="M65-382.55a.65.65,0,0,1-.44-.1c-.09-.08-.11-.19-.08-.39l.11-.84h.32l-.1.81c0,.22,0,.28.26.27l.23,0,.14-1.08h.33l-.17,1.29h0a3.51,3.51,0,0,1-.57.08"/></clipPath><clipPath id="clip-path-11"><path class="cls-1" d="M67-383.5c0-.16-.09-.23-.26-.23a.39.39,0,0,0-.36.26Zm-.38.9c-.44,0-.68-.22-.62-.64a.82.82,0,0,1,.78-.74.48.48,0,0,1,.47.22.56.56,0,0,1,0,.41v.09l-1,0v0c0,.23.12.37.38.36a.91.91,0,0,0,.46-.16l0,0,0,.29h0A1.16,1.16,0,0,1,66.6-382.6Z"/></clipPath><clipPath id="clip-path-12"><path class="cls-1" d="M68.19-382.69l.13-1.05h-.21l0-.25h.22v0a.79.79,0,0,1,.26-.57.77.77,0,0,1,.43-.17h.16l0,.24H69a.29.29,0,0,0-.23.1.59.59,0,0,0-.12.37v0H69l0,.24-.34,0-.14,1.05Z"/></clipPath><clipPath id="clip-path-13"><path class="cls-1" d="M69.85-383.34c-.37,0-.45.12-.47.24s0,.15.18.15l.24,0Zm-.35.62c-.32,0-.46-.11-.43-.35s.27-.45.8-.51h0v0c0-.12,0-.16,0-.19s-.07,0-.14,0a.93.93,0,0,0-.46.17l-.06,0,0-.3h0a1.21,1.21,0,0,1,.54-.17c.2,0,.32.05.36.17a.57.57,0,0,1,0,.31l-.11.83H70A2.76,2.76,0,0,1,69.5-382.72Z"/></clipPath><clipPath id="clip-path-14"><path class="cls-1" d="M70.46-382.77l.17-1.25h0a1.63,1.63,0,0,1,.56-.13,1,1,0,0,1,.25,0h0l0,.27h0a.37.37,0,0,0-.21,0,.8.8,0,0,0-.26.05l-.14,1Z"/></clipPath><clipPath id="clip-path-15"><path class="cls-1" d="M73.21-382.88l.11-.83c0-.19,0-.26-.22-.26a1.11,1.11,0,0,0-.25.05.73.73,0,0,1,0,.2l-.11.86H72.4l.11-.83c0-.2,0-.26-.24-.25a.81.81,0,0,0-.25,0l-.14,1.06h-.32l.16-1.25h0a2.55,2.55,0,0,1,.61-.11.58.58,0,0,1,.36.07,1.27,1.27,0,0,1,.46-.1.48.48,0,0,1,.41.13.38.38,0,0,1,.07.34l-.12.86Z"/></clipPath><clipPath id="clip-path-16"><path class="cls-1" d="M58.16-382.31l.11-.83c0-.19,0-.26-.22-.25a.62.62,0,0,0-.25.05.65.65,0,0,1,0,.2l-.12.85h-.32l.11-.83c0-.19,0-.26-.24-.25a.73.73,0,0,0-.25,0l-.14,1.06-.33,0,.17-1.26h0a2.92,2.92,0,0,1,.61-.11.77.77,0,0,1,.36.07,1.53,1.53,0,0,1,.45-.1.52.52,0,0,1,.42.13c.07.07.08.17.06.34l-.11.86Z"/></clipPath><clipPath id="clip-path-17"><path class="cls-1" d="M74.41-384.41,75-385h.3l-.63.6Zm.26.88c-.37,0-.45.13-.46.25s0,.15.17.14l.24,0Zm-.35.63c-.31,0-.46-.11-.42-.36s.27-.45.8-.51h0a.42.42,0,0,0,0-.19s-.07-.06-.15,0a.82.82,0,0,0-.46.17l0,0,0-.29h0a1.37,1.37,0,0,1,.54-.16c.2,0,.32,0,.37.16a.81.81,0,0,1,0,.32l-.11.83h-.07A4.48,4.48,0,0,1,74.32-382.9Z"/></clipPath><clipPath id="clip-path-18"><path class="cls-1" d="M75.91-383c-.44,0-.69-.23-.63-.64a.83.83,0,0,1,.83-.73.7.7,0,0,1,.35.06h0l0,.29,0,0a.41.41,0,0,0-.29-.08.49.49,0,0,0-.5.45c0,.28.1.43.38.42a.74.74,0,0,0,.34-.12l.05,0,0,.29h0a.86.86,0,0,1-.41.1"/></clipPath><clipPath id="clip-path-19"><path class="cls-1" d="M76.78-384.54l0-.34h.35l0,.34ZM76.59-383l.17-1.33h.33L76.91-383Z"/></clipPath><clipPath id="clip-path-20"><path class="cls-1" d="M78.06-383.66c-.37.05-.45.13-.47.25s0,.15.18.14l.24,0Zm-.35.63c-.32,0-.46-.11-.43-.36s.27-.44.8-.51h0c0-.12,0-.16,0-.19s-.07-.06-.14,0a.77.77,0,0,0-.46.17l-.06,0,0-.3h0a1.28,1.28,0,0,1,.54-.16c.2,0,.32.05.36.16a.62.62,0,0,1,0,.32l-.11.83h-.08A4.11,4.11,0,0,1,77.71-383Z"/></clipPath><clipPath id="clip-path-21"><path class="cls-1" d="M46.49-387.94l-.55,3.11a4.37,4.37,0,0,0,2.8-3.19Z"/></clipPath><clipPath id="clip-path-22"><path class="cls-1" d="M46.87-389.94l1.67-.07a4.08,4.08,0,0,0-1.35-1.74Z"/></clipPath><clipPath id="clip-path-23"><path class="cls-1" d="M44.11-386.16c.13-.51.3-1.36,1.88-1.7.13,0,.11-.06,0-.06l-5.09.2c0-.27.19-1.1.25-1.42.1-.5.36-.6.83-.62l2.78-.1.51-2.77a5.28,5.28,0,0,0-1.5-.15c-2.67.1-4.77,2-4.68,4.35s2.14,3.93,4.67,4Z"/></clipPath><clipPath id="clip-path-24"><polygon class="cls-1" points="60.11 -302.68 29.57 -305.08 29.87 -308.83 56.34 -306.75 56.25 -353.89 60.01 -353.89 60.11 -302.68"/></clipPath><clipPath id="clip-path-25"><rect class="cls-2" x="70.26" y="-317.62" width="3.76" height="27.92" transform="translate(369.49 -208.81) rotate(-85.67)"/></clipPath><clipPath id="clip-path-26"><path class="cls-1" d="M63.78-319.35a1.85,1.85,0,0,1-1.62-.92,1.87,1.87,0,0,1,.65-2.57l1-.62v-1.89l-1.52-1.27a1.88,1.88,0,0,1-.24-2.65,1.88,1.88,0,0,1,2.65-.24l2.19,1.83a1.89,1.89,0,0,1,.68,1.45v3.84a1.88,1.88,0,0,1-.92,1.62l-2,1.16a1.9,1.9,0,0,1-1,.26"/></clipPath><clipPath id="clip-path-27"><path class="cls-1" d="M52-319.88a1.86,1.86,0,0,1-1-.27l-1.95-1.16a1.88,1.88,0,0,1-.92-1.61v-3.85a1.89,1.89,0,0,1,.68-1.45L51.08-330a1.89,1.89,0,0,1,2.65.24,1.88,1.88,0,0,1-.24,2.65L52-325.89v1.9l1,.61a1.88,1.88,0,0,1,.66,2.58,1.89,1.89,0,0,1-1.62.92"/></clipPath><clipPath id="clip-path-28"><path class="cls-2" d="M-256.9,70.79h-83.51L-304.86,37a3.3,3.3,0,0,0,0-4.94A3.7,3.7,0,0,0-310,32l-42,39.81a3.3,3.3,0,0,0,0,4.94l41.85,39.81a3.71,3.71,0,0,0,5.19,0,3.3,3.3,0,0,0,0-4.94l-35.37-33.82h83.51a3.63,3.63,0,0,0,3.71-3.52A3.63,3.63,0,0,0-256.9,70.79Z"/></clipPath><clipPath id="clip-path-29"><path class="cls-2" d="M-497.49,70.79H-414L-449.53,37a3.3,3.3,0,0,1,0-4.94,3.71,3.71,0,0,1,5.19,0l42,39.81a3.3,3.3,0,0,1,0,4.94l-41.85,39.81a3.71,3.71,0,0,1-5.19,0,3.3,3.3,0,0,1,0-4.94L-414,77.83h-83.52a3.62,3.62,0,0,1-3.7-3.52A3.62,3.62,0,0,1-497.49,70.79Z"/></clipPath></defs><title>icons</title><path class="cls-3" d="M97.24-298.16h-.16l-11-.91A1.88,1.88,0,0,1,84.37-301v-44.32a6.43,6.43,0,0,0-1.71-4.91,6.63,6.63,0,0,0-4.5-1.46H78l-47.55-.53v46.91a1.91,1.91,0,0,1-.6,1.38,1.88,1.88,0,0,1-1.43.49l-9.25-.73A1.88,1.88,0,0,1,17.42-306c0-.3.28-29.77.22-36.75A14.73,14.73,0,0,1,21-352.1h-5.9a3.56,3.56,0,0,1-3.26-2.65,1.77,1.77,0,0,1-.09-.56v-6.09c0-3.05,1.89-4.32,3-4.58a1.84,1.84,0,0,1,.41,0l67.22-.91h.26c15.86,2,16.65,15.93,16.66,16.07v.09L99.12-300a1.88,1.88,0,0,1-.61,1.38A1.85,1.85,0,0,1,97.24-298.16Zm-9.11-4.53,7.23.6.18-48.64c-.05-.78-1-10.82-13.25-12.45l-66.61.91a1.69,1.69,0,0,0-.17.87v5.54H25.62a1.91,1.91,0,0,1,1.43.65l.18-.2a1.83,1.83,0,0,1,1.34-.54l49.38.54A10.39,10.39,0,0,1,85.18-353c1.95,1.79,2.95,4.39,2.95,7.71Zm-66.93-5,5.47.43v-45.12h0c-.05,0-5.32,3.68-5.27,9.63S21.26-314.22,21.2-307.73Z"/><g class="cls-4"><rect class="cls-2" x="-4486.03" y="-2882.09" width="6348.4" height="5052.27"/></g><path class="cls-3" d="M102.35-301.63H98.59v-49.62c-.09-1-1.31-11.3-12-12.12l.29-3.75c11.42.87,15.13,10.62,15.5,15.66v49.83Z"/><g class="cls-5"><rect class="cls-2" x="-4486.03" y="-2882.09" width="6348.4" height="5052.27"/></g><path class="cls-3" d="M22.75-369.16A1.89,1.89,0,0,1,20.87-371l-.12-19.85a1.87,1.87,0,0,1,1.82-1.89l9.65-.3h.09l3.42.06a1.88,1.88,0,0,1,1.85,1.91,1.89,1.89,0,0,1-1.92,1.85l-3.37-.06-7.77.25.11,18a1.89,1.89,0,0,1-1.87,1.9Z"/><g class="cls-6"><rect class="cls-2" x="-4486.03" y="-2882.09" width="6348.4" height="5052.27"/></g><path class="cls-3" d="M38.39-376.24h-.46A5,5,0,0,1,33.78-378,4.58,4.58,0,0,1,33-381.5l.84-9.68c-.08-2.54.62-4.44,2.07-5.65a6,6,0,0,1,4.69-1.2l41.85-2,.23,0c2.51.51,4.26,1.53,5.19,3a4.46,4.46,0,0,1,.64,3.09c-.11,1.42-.78,9.74-1.45,12.36a5.74,5.74,0,0,1-4.77,4.33l-.18,0c-1.59,0-37.92.92-43.69.92m1.2-18.09a2.07,2.07,0,0,0-1.31.39,3.62,3.62,0,0,0-.7,2.73v.12l-.91,10.29a.82.82,0,0,0,.08.49A1.86,1.86,0,0,0,38-380c3.66.07,41.36-.85,43.88-.91a2,2,0,0,0,1.53-1.52c.51-2,1.15-9.22,1.35-11.83l0-.31c0-.54-.81-1.27-2.65-1.68l-41.83,2-.23-.05a4.69,4.69,0,0,0-.48,0"/><g class="cls-7"><rect class="cls-2" x="-4486.03" y="-2882.09" width="6348.4" height="5052.27"/></g><path class="cls-3" d="M75.06-391.15a1.2,1.2,0,0,0-.92-.27,1.68,1.68,0,0,0-1,.4,2.13,2.13,0,0,0-.61,1.24.75.75,0,0,0,0,.17s1.1,0,2-.06c.5,0,.79-.16.86-.6a1,1,0,0,0-.21-.88m1.84,1a1.43,1.43,0,0,1-.61,1.08,2.74,2.74,0,0,1-1.42.4,9.84,9.84,0,0,1-1.86,0c-.39-.08-.51-.65-.56-.81a3.89,3.89,0,0,0-.08,1.09,1.14,1.14,0,0,0,.5,1,2.16,2.16,0,0,0,1.22.24c.32,0,.66,0,1-.07l.81-.11h0c.06,0,.14,0,.12.12l-.1.83a.15.15,0,0,1-.11.13,7.13,7.13,0,0,1-1.06.25,8.6,8.6,0,0,1-1.08.11,4.64,4.64,0,0,1-1.53-.16,2,2,0,0,1-1-.58,2.11,2.11,0,0,1-.46-1,4.69,4.69,0,0,1,0-1.36l0-.41a3.86,3.86,0,0,1,1-2.33,3.6,3.6,0,0,1,2.5-.92,2.58,2.58,0,0,1,2.08.63,2.36,2.36,0,0,1,.47,1.93m-22.44-1.74-4.45.17c-.29,0-.39.21-.43.49s-.08.58-.11.82.09.32.3.31h.38l1.4-.06c.12,0,.05,0,0,.05a2.38,2.38,0,0,0-1.29,1.9c0,.21-.33,2.66-.33,2.66a.88.88,0,0,0,0,.16c0,.23.14.28.23.28l.89,0h.08c.35,0,.45-.11.49-.47.07-.51.54-4.27.58-4.56l1.05,0c.48,0,1-.07,1.33.25s.22.71.15,1.27l-.37,3a.81.81,0,0,0,0,.15c0,.23.14.28.23.28l.89,0h.08c.35,0,.45-.11.49-.47,0-.12.48-3.76.51-4a1.88,1.88,0,0,0-2.08-2.07m25.06-.33c0-.24,0-.66-.48-.64l-.81,0a.43.43,0,0,0-.4.35l-.73,5.89c0,.32.06.44.22.43l1.17,0a.35.35,0,0,0,.32-.29l.09-.7s.23-1.92.43-3.51A.3.3,0,0,0,79-391l-1,0h-.1s0,0,0,0c.51-.09,1.49-.53,1.57-1.19m-20.64,1.92-1,0h-.08c.5-.1,1.48-.54,1.56-1.2,0-.24,0-.66-.47-.64l-.81,0a.43.43,0,0,0-.4.36L57-385.78c0,.33.06.44.21.44l1.17-.05a.33.33,0,0,0,.32-.28l.09-.71.44-3.5a.32.32,0,0,0-.35-.37m11.31-2.05a4.93,4.93,0,0,0-.9-.18,9.6,9.6,0,0,0-1.08,0,3.79,3.79,0,0,0-1,.15,2.36,2.36,0,0,0-.8.37,1.93,1.93,0,0,0-.57.6,2.24,2.24,0,0,0-.28.86,1.42,1.42,0,0,0,.25,1.11,2.47,2.47,0,0,0,1,.69l1,.38a1.75,1.75,0,0,1,.46.26.49.49,0,0,1,.14.43.62.62,0,0,1-.31.49,1.57,1.57,0,0,1-.75.17H66.32c-.38,0-.73,0-1-.06h0a.11.11,0,0,0-.11.1v0L65-386c0,.1,0,.16.13.17a9.54,9.54,0,0,0,1.11.17,8.39,8.39,0,0,0,1.24,0,3.24,3.24,0,0,0,1.84-.57,2,2,0,0,0,.82-1.43,1.57,1.57,0,0,0-.23-1.14,2.25,2.25,0,0,0-1-.72l-1-.4a3.06,3.06,0,0,1-.45-.23.4.4,0,0,1-.14-.41.57.57,0,0,1,.3-.48,2,2,0,0,1,.69-.12,8.77,8.77,0,0,1,.89,0c.29,0,.58,0,.86.07h.06a.1.1,0,0,0,.1-.09c0-.06,0,0,0,0l.11-.93c0-.12-.07-.16-.14-.18M64.81-391a.12.12,0,0,1-.09.1h-.07a8.09,8.09,0,0,0-.86-.07h-.88a1.69,1.69,0,0,0-.69.13.55.55,0,0,0-.31.47.4.4,0,0,0,.15.41,1.85,1.85,0,0,0,.45.23l1,.41a2.14,2.14,0,0,1,1,.72,1.55,1.55,0,0,1,.24,1.13,2,2,0,0,1-.83,1.44,3.24,3.24,0,0,1-1.84.57,12.24,12.24,0,0,1-1.23,0c-.39,0-.77-.1-1.12-.17a.14.14,0,0,1-.13-.18l.12-.93v0a.1.1,0,0,1,.11-.09h0c.31,0,.66.05,1,.06s.73,0,1,0a1.62,1.62,0,0,0,.76-.16.65.65,0,0,0,.3-.49.49.49,0,0,0-.14-.43,1.75,1.75,0,0,0-.46-.26l-1-.38a2.47,2.47,0,0,1-1-.69,1.49,1.49,0,0,1-.25-1.12,2.24,2.24,0,0,1,.29-.86,1.89,1.89,0,0,1,.56-.6,2.57,2.57,0,0,1,.8-.37,4.37,4.37,0,0,1,1-.14,6.44,6.44,0,0,1,1.08,0,3.67,3.67,0,0,1,.9.18c.07,0,.16.06.14.17l-.11.93s0,0,0,0"/><g class="cls-8"><rect class="cls-2" x="-4486.03" y="-2882.09" width="6348.4" height="5052.27"/></g><path class="cls-3" d="M59.68-383c-.37,0-.45.13-.46.25s0,.15.17.14l.24,0Zm-.35.63c-.32,0-.46-.11-.43-.36s.28-.44.81-.51h0c0-.12,0-.16,0-.19s-.06-.06-.14-.05a.8.8,0,0,0-.46.17l-.06,0,0-.3h0a1.32,1.32,0,0,1,.54-.16c.2,0,.32,0,.37.17a.75.75,0,0,1,0,.31l-.11.83h-.08A4.11,4.11,0,0,1,59.33-382.33Z"/><g class="cls-9"><rect class="cls-2" x="-4486.03" y="-2882.09" width="6348.4" height="5052.27"/></g><path class="cls-3" d="M60.49-383.92l0-.34h.34l0,.34Zm-.19,1.53.17-1.33h.33l-.18,1.33Z"/><g class="cls-10"><rect class="cls-2" x="-4486.03" y="-2882.09" width="6348.4" height="5052.27"/></g><path class="cls-3" d="M61.34-382.39a.88.88,0,0,1-.36-.06h0l0-.32,0,0a.42.42,0,0,0,.31.11c.14,0,.23-.06.24-.15a.1.1,0,0,0-.07-.12l-.16-.08c-.24-.11-.31-.2-.29-.37a.55.55,0,0,1,.57-.43.77.77,0,0,1,.34.07h0l0,.3,0,0a.4.4,0,0,0-.28-.08c-.13,0-.22.06-.23.14s0,.08.19.16a.59.59,0,0,1,.25.16.25.25,0,0,1,.08.25.55.55,0,0,1-.59.43"/><g class="cls-11"><rect class="cls-2" x="-4486.03" y="-2882.09" width="6348.4" height="5052.27"/></g><path class="cls-3" d="M63.68-383.61a.51.51,0,0,0-.54.46c0,.28.09.42.37.41l.2,0,.11-.83Zm-.09,1.75.09-.67a.77.77,0,0,1-.25,0c-.44,0-.68-.22-.62-.63a.87.87,0,0,1,.94-.74,1.85,1.85,0,0,1,.4,0h0l-.26,2Z"/><g class="cls-12"><rect class="cls-2" x="-4486.03" y="-2882.09" width="6348.4" height="5052.27"/></g><path class="cls-3" d="M65-382.55a.65.65,0,0,1-.44-.1c-.09-.08-.11-.19-.08-.39l.11-.84h.32l-.1.81c0,.22,0,.28.26.27l.23,0,.14-1.08h.33l-.17,1.29h0a3.51,3.51,0,0,1-.57.08"/><g class="cls-13"><rect class="cls-2" x="-4486.03" y="-2882.09" width="6348.4" height="5052.27"/></g><path class="cls-3" d="M67-383.5c0-.16-.09-.23-.26-.23a.39.39,0,0,0-.36.26Zm-.38.9c-.44,0-.68-.22-.62-.64a.82.82,0,0,1,.78-.74.48.48,0,0,1,.47.22.56.56,0,0,1,0,.41v.09l-1,0v0c0,.23.12.37.38.36a.91.91,0,0,0,.46-.16l0,0,0,.29h0A1.16,1.16,0,0,1,66.6-382.6Z"/><g class="cls-14"><rect class="cls-2" x="-4486.03" y="-2882.09" width="6348.4" height="5052.27"/></g><path class="cls-3" d="M68.19-382.69l.13-1.05h-.21l0-.25h.22v0a.79.79,0,0,1,.26-.57.77.77,0,0,1,.43-.17h.16l0,.24H69a.29.29,0,0,0-.23.1.59.59,0,0,0-.12.37v0H69l0,.24-.34,0-.14,1.05Z"/><g class="cls-15"><rect class="cls-2" x="-4486.03" y="-2882.09" width="6348.4" height="5052.27"/></g><path class="cls-3" d="M69.85-383.34c-.37,0-.45.12-.47.24s0,.15.18.15l.24,0Zm-.35.62c-.32,0-.46-.11-.43-.35s.27-.45.8-.51h0v0c0-.12,0-.16,0-.19s-.07,0-.14,0a.93.93,0,0,0-.46.17l-.06,0,0-.3h0a1.21,1.21,0,0,1,.54-.17c.2,0,.32.05.36.17a.57.57,0,0,1,0,.31l-.11.83H70A2.76,2.76,0,0,1,69.5-382.72Z"/><g class="cls-16"><rect class="cls-2" x="-4486.03" y="-2882.09" width="6348.4" height="5052.27"/></g><path class="cls-3" d="M70.46-382.77l.17-1.25h0a1.63,1.63,0,0,1,.56-.13,1,1,0,0,1,.25,0h0l0,.27h0a.37.37,0,0,0-.21,0,.8.8,0,0,0-.26.05l-.14,1Z"/><g class="cls-17"><rect class="cls-2" x="-4486.03" y="-2882.09" width="6348.4" height="5052.27"/></g><path class="cls-3" d="M73.21-382.88l.11-.83c0-.19,0-.26-.22-.26a1.11,1.11,0,0,0-.25.05.73.73,0,0,1,0,.2l-.11.86H72.4l.11-.83c0-.2,0-.26-.24-.25a.81.81,0,0,0-.25,0l-.14,1.06h-.32l.16-1.25h0a2.55,2.55,0,0,1,.61-.11.58.58,0,0,1,.36.07,1.27,1.27,0,0,1,.46-.1.48.48,0,0,1,.41.13.38.38,0,0,1,.07.34l-.12.86Z"/><g class="cls-18"><rect class="cls-2" x="-4486.03" y="-2882.09" width="6348.4" height="5052.27"/></g><path class="cls-3" d="M58.16-382.31l.11-.83c0-.19,0-.26-.22-.25a.62.62,0,0,0-.25.05.65.65,0,0,1,0,.2l-.12.85h-.32l.11-.83c0-.19,0-.26-.24-.25a.73.73,0,0,0-.25,0l-.14,1.06-.33,0,.17-1.26h0a2.92,2.92,0,0,1,.61-.11.77.77,0,0,1,.36.07,1.53,1.53,0,0,1,.45-.1.52.52,0,0,1,.42.13c.07.07.08.17.06.34l-.11.86Z"/><g class="cls-19"><rect class="cls-2" x="-4486.03" y="-2882.09" width="6348.4" height="5052.27"/></g><path class="cls-3" d="M74.41-384.41,75-385h.3l-.63.6Zm.26.88c-.37,0-.45.13-.46.25s0,.15.17.14l.24,0Zm-.35.63c-.31,0-.46-.11-.42-.36s.27-.45.8-.51h0a.42.42,0,0,0,0-.19s-.07-.06-.15,0a.82.82,0,0,0-.46.17l0,0,0-.29h0a1.37,1.37,0,0,1,.54-.16c.2,0,.32,0,.37.16a.81.81,0,0,1,0,.32l-.11.83h-.07A4.48,4.48,0,0,1,74.32-382.9Z"/><g class="cls-20"><rect class="cls-2" x="-4486.03" y="-2882.09" width="6348.4" height="5052.27"/></g><path class="cls-3" d="M75.91-383c-.44,0-.69-.23-.63-.64a.83.83,0,0,1,.83-.73.7.7,0,0,1,.35.06h0l0,.29,0,0a.41.41,0,0,0-.29-.08.49.49,0,0,0-.5.45c0,.28.1.43.38.42a.74.74,0,0,0,.34-.12l.05,0,0,.29h0a.86.86,0,0,1-.41.1"/><g class="cls-21"><rect class="cls-2" x="-4486.03" y="-2882.09" width="6348.4" height="5052.27"/></g><path class="cls-3" d="M76.78-384.54l0-.34h.35l0,.34ZM76.59-383l.17-1.33h.33L76.91-383Z"/><g class="cls-22"><rect class="cls-2" x="-4486.03" y="-2882.09" width="6348.4" height="5052.27"/></g><path class="cls-3" d="M78.06-383.66c-.37.05-.45.13-.47.25s0,.15.18.14l.24,0Zm-.35.63c-.32,0-.46-.11-.43-.36s.27-.44.8-.51h0c0-.12,0-.16,0-.19s-.07-.06-.14,0a.77.77,0,0,0-.46.17l-.06,0,0-.3h0a1.28,1.28,0,0,1,.54-.16c.2,0,.32.05.36.16a.62.62,0,0,1,0,.32l-.11.83h-.08A4.11,4.11,0,0,1,77.71-383Z"/><g class="cls-23"><rect class="cls-2" x="-4486.03" y="-2882.09" width="6348.4" height="5052.27"/></g><path class="cls-3" d="M46.49-387.94l-.55,3.11a4.37,4.37,0,0,0,2.8-3.19Z"/><g class="cls-24"><rect class="cls-2" x="-4486.03" y="-2882.09" width="6348.4" height="5052.27"/></g><path class="cls-3" d="M46.87-389.94l1.67-.07a4.08,4.08,0,0,0-1.35-1.74Z"/><g class="cls-25"><rect class="cls-2" x="-4486.03" y="-2882.09" width="6348.4" height="5052.27"/></g><path class="cls-3" d="M44.11-386.16c.13-.51.3-1.36,1.88-1.7.13,0,.11-.06,0-.06l-5.09.2c0-.27.19-1.1.25-1.42.1-.5.36-.6.83-.62l2.78-.1.51-2.77a5.28,5.28,0,0,0-1.5-.15c-2.67.1-4.77,2-4.68,4.35s2.14,3.93,4.67,4Z"/><g class="cls-26"><rect class="cls-2" x="-4486.03" y="-2882.09" width="6348.4" height="5052.27"/></g><polygon class="cls-3" points="60.11 -302.68 29.57 -305.08 29.87 -308.83 56.34 -306.75 56.25 -353.89 60.01 -353.89 60.11 -302.68"/><g class="cls-27"><rect class="cls-2" x="-4486.03" y="-2882.09" width="6348.4" height="5052.27"/></g><rect class="cls-2" x="70.26" y="-317.62" width="3.76" height="27.92" transform="translate(369.49 -208.81) rotate(-85.67)"/><g class="cls-28"><rect class="cls-2" x="-4486.03" y="-2882.09" width="6348.4" height="5052.27"/></g><path class="cls-3" d="M63.78-319.35a1.85,1.85,0,0,1-1.62-.92,1.87,1.87,0,0,1,.65-2.57l1-.62v-1.89l-1.52-1.27a1.88,1.88,0,0,1-.24-2.65,1.88,1.88,0,0,1,2.65-.24l2.19,1.83a1.89,1.89,0,0,1,.68,1.45v3.84a1.88,1.88,0,0,1-.92,1.62l-2,1.16a1.9,1.9,0,0,1-1,.26"/><g class="cls-29"><rect class="cls-2" x="-4486.03" y="-2882.09" width="6348.4" height="5052.27"/></g><path class="cls-3" d="M52-319.88a1.86,1.86,0,0,1-1-.27l-1.95-1.16a1.88,1.88,0,0,1-.92-1.61v-3.85a1.89,1.89,0,0,1,.68-1.45L51.08-330a1.89,1.89,0,0,1,2.65.24,1.88,1.88,0,0,1-.24,2.65L52-325.89v1.9l1,.61a1.88,1.88,0,0,1,.66,2.58,1.89,1.89,0,0,1-1.62.92"/><g class="cls-30"><rect class="cls-2" x="-4486.03" y="-2882.09" width="6348.4" height="5052.27"/></g><path class="cls-2" d="M-256.9,70.79h-83.51L-304.86,37a3.3,3.3,0,0,0,0-4.94A3.7,3.7,0,0,0-310,32l-42,39.81a3.3,3.3,0,0,0,0,4.94l41.85,39.81a3.71,3.71,0,0,0,5.19,0,3.3,3.3,0,0,0,0-4.94l-35.37-33.82h83.51a3.63,3.63,0,0,0,3.71-3.52A3.63,3.63,0,0,0-256.9,70.79Z"/><g class="cls-31"><rect class="cls-2" x="-1053.19" y="-2662.36" width="9600" height="25640"/></g><path class="cls-2" d="M-497.49,70.79H-414L-449.53,37a3.3,3.3,0,0,1,0-4.94,3.71,3.71,0,0,1,5.19,0l42,39.81a3.3,3.3,0,0,1,0,4.94l-41.85,39.81a3.71,3.71,0,0,1-5.19,0,3.3,3.3,0,0,1,0-4.94L-414,77.83h-83.52a3.62,3.62,0,0,1-3.7-3.52A3.62,3.62,0,0,1-497.49,70.79Z"/><g class="cls-32"><rect class="cls-2" x="-9301.19" y="-2662.36" width="9600" height="25640"/></g><path class="cls-2" d="M23.31,47.2C10.37,47.2-.12,54.09-.12,62.53v.9c0,9,9.17,16.21,23.43,16.21s23.44-7.25,23.44-16.21v-.9C46.75,54.09,36.26,47.2,23.31,47.2ZM21.58,72.42a2,2,0,0,1-2-1.89c0-.2-.05-.22-.19-.09a1.39,1.39,0,0,1-1.64.3,1.48,1.48,0,0,1-1.11-1.58c0-.12,0-.15-.12-.07a1.53,1.53,0,0,1-1.52.24A2.07,2.07,0,0,1,13.74,67s0,0,0,0a1.57,1.57,0,0,1-2.66-1.13,1.58,1.58,0,0,1,1.58-1.58,1.56,1.56,0,0,1,1.54,1.38,2.2,2.2,0,0,1,2.45-.88,1.58,1.58,0,0,1,1.11,1.47c0,.08,0,.09.1,0a1.69,1.69,0,0,1,2-.3c1.43.62.85,2.39.81,2.49s-.11.28-.08.3a8,8,0,0,1,1-.22,2,2,0,0,1,0,4ZM35.41,67a1.76,1.76,0,0,1-1.95,0S31,64.76,30.05,64c-.13-.11-.33-.27-.42-.16s.2.39.2.39l2.88,2.9a1.49,1.49,0,0,1,.45.88,1.46,1.46,0,0,1-.75,1.33,1.73,1.73,0,0,1-2,.07c-.91-.89-1.85-1.84-2.52-2.4-.13-.11-.33-.25-.42-.16s.2.4.2.4l2.11,2.36a1,1,0,0,1,0,1.2l0,0a2.34,2.34,0,0,1-.31.32,1.85,1.85,0,0,1-1.43.33c-.42-.07-.49-.22-.51-.23s-1.13-1.16-2-1.93c-.13-.11-.32-.27-.42-.16s.2.39.2.39l1.81,2c.06.08,0,.18-.07.27a1.38,1.38,0,0,1-1,.45,4,4,0,0,1-2.21-.59,2.54,2.54,0,0,0-2.23-3.74l-.26,0a2.28,2.28,0,0,0-1.26-2.55A2.78,2.78,0,0,0,19,65.14a2.21,2.21,0,0,0-.9.19,2.08,2.08,0,0,0-1.28-1.17,3.13,3.13,0,0,0-.92-.16,2.43,2.43,0,0,0-1.53.54,2.12,2.12,0,0,0-3.32-.2c-.37-.3-2.36-1.77-8.77-3.2-.27-.06-.93-.25-1.33-.36a12.69,12.69,0,0,1,5.27-7.65A31.5,31.5,0,0,0,12,55.21a20.59,20.59,0,0,0,2.16.34,7.62,7.62,0,0,0,2.12-.4,14.25,14.25,0,0,1,1.82-.41l-.71.7-2,2.15a.88.88,0,0,0-.24.94,1.33,1.33,0,0,0,.47.52,4.19,4.19,0,0,0,2.84.43A7.61,7.61,0,0,0,21,57.88a8.83,8.83,0,0,1,2.63-1.57,2.65,2.65,0,0,1,1-.09,4,4,0,0,1,2,1c1.64,1.23,8.86,7.54,8.93,7.61A1.49,1.49,0,0,1,36.05,66,1.31,1.31,0,0,1,35.41,67Zm.41-2.8c-1.07-.94-7.27-6.35-8.81-7.51a6,6,0,0,0-1.77-1,3,3,0,0,0-1.94.05,9.21,9.21,0,0,0-2.66,1.7,7.47,7.47,0,0,1-2.33,1.47,2.84,2.84,0,0,1-2.57-.46c-.14-.19.08-.42.1-.44l2-2.12c1.55-1.56,3-3,6.41-3.1a11.83,11.83,0,0,1,4.61,1.05c4.27,2.08,8.63,1.3,12.2-.2A12.23,12.23,0,0,1,45.73,61,53.53,53.53,0,0,0,35.82,64.2Z"/><path class="cls-2" d="M126.61,52.76a5.47,5.47,0,0,0-7.71,0,6.22,6.22,0,0,0,0,7.53,5.52,5.52,0,0,0,7.71,0,6.22,6.22,0,0,0,0-7.53Zm-2.1,6.08a2.31,2.31,0,0,1-3.53,0,4.65,4.65,0,0,1,0-4.64,2.33,2.33,0,0,1,3.53,0,4.65,4.65,0,0,1,0,4.64Z"/><path class="cls-2" d="M105,51.88a6.36,6.36,0,0,0-2.94-.66,4.32,4.32,0,0,0-3.6,1.33,3.81,3.81,0,0,0-.74,2.17h2.53a1.9,1.9,0,0,1,.38-.92,1.67,1.67,0,0,1,1.34-.46,2.69,2.69,0,0,1,1.27.23.89.89,0,0,1,.44.85.79.79,0,0,1-.57.75,4.18,4.18,0,0,1-1,.23l-.9.11a6.42,6.42,0,0,0-2.32.65,2.86,2.86,0,0,0-1.44,2.68,2.77,2.77,0,0,0,.89,2.21,3.54,3.54,0,0,0,2.27.78c5.74.26,5.67-3,5.73-3.7V54.35A2.5,2.5,0,0,0,105,51.88Zm-1.33,5.73a2.08,2.08,0,0,1-.76,1.81,2.67,2.67,0,0,1-1.58.5,1.46,1.46,0,0,1-.93-.3,1.17,1.17,0,0,1-.38-1,1.21,1.21,0,0,1,.63-1.12,3.7,3.7,0,0,1,1.2-.35l.6-.12a4.23,4.23,0,0,0,.71-.18,2.4,2.4,0,0,0,.51-.25Z"/><path class="cls-2" d="M91.91,53.47a1.69,1.69,0,0,1,1.44.61,2.17,2.17,0,0,1,.4,1h2.83a3.84,3.84,0,0,0-1.5-3,5.77,5.77,0,0,0-3.25-.84,4.78,4.78,0,0,0-3.67,1.43,5.68,5.68,0,0,0-1.33,4A5.63,5.63,0,0,0,88,60.43a4.67,4.67,0,0,0,3.76,1.43,4.51,4.51,0,0,0,3.85-1.72,4.14,4.14,0,0,0,.91-2.26H93.73a2.41,2.41,0,0,1-.49,1.28,1.69,1.69,0,0,1-1.38.5A1.85,1.85,0,0,1,90,58.41a4.84,4.84,0,0,1-.27-1.77A5.2,5.2,0,0,1,90,54.79,1.9,1.9,0,0,1,91.91,53.47Z"/><path class="cls-2" d="M86,53.92l.44,0V51.28l-.22,0h-.13c-5.81,0-5.47,5.14-5.47,5.14v5.23h2.64v-4.9a4.1,4.1,0,0,1,.3-1.79,2.2,2.2,0,0,1,2.13-1Z"/><path class="cls-2" d="M74.49,61.88a4.85,4.85,0,0,0,3.77-1.46,3.51,3.51,0,0,0,.92-1.52h-2.8a2,2,0,0,1-.36.4,2.24,2.24,0,0,1-1.48.4,2.43,2.43,0,0,1-1.4-.34,2.37,2.37,0,0,1-1.07-2.09h7.3a13.14,13.14,0,0,0-.09-2,4.84,4.84,0,0,0-.79-2.07,4.15,4.15,0,0,0-1.74-1.49,5.73,5.73,0,0,0-2.35-.46,4.86,4.86,0,0,0-3.59,1.38,5.44,5.44,0,0,0-1.38,4,4.85,4.85,0,0,0,1.53,4A5.48,5.48,0,0,0,74.49,61.88ZM72.83,54a2.1,2.1,0,0,1,1.57-.57A2.24,2.24,0,0,1,76,54a2.17,2.17,0,0,1,.7,1.58H72.13A2.76,2.76,0,0,1,72.83,54Z"/><path class="cls-2" d="M66,55.56v6.07h2.41v-6c0-2.58-1.55-4.4-4.18-4.4a3.86,3.86,0,0,0-3,1.4,3.7,3.7,0,0,0-3-1.4A4.13,4.13,0,0,0,54,55.62v6h2.41V55.56a1.76,1.76,0,0,1,1.83-1.87A1.68,1.68,0,0,1,60,55.56v6.07h2.41V55.56a1.78,1.78,0,0,1,1.83-1.87A1.69,1.69,0,0,1,66,55.56Z"/><path class="cls-2" d="M114.19,49.94v2.83A3.13,3.13,0,0,0,113,51.66a3.19,3.19,0,0,0-1.62-.4,3.85,3.85,0,0,0-3.16,1.47,6.51,6.51,0,0,0-1.18,4.1,5.46,5.46,0,0,0,1.2,3.65A5.07,5.07,0,0,0,112,61.84c4.86,0,4.81-4.16,4.81-4.16V48.09S114.19,47.8,114.19,49.94Zm-.51,8.93a1.92,1.92,0,0,1-1.69.82,1.87,1.87,0,0,1-1.66-.83,4.26,4.26,0,0,1-.54-2.29,4.12,4.12,0,0,1,.53-2.16,1.85,1.85,0,0,1,1.69-.86,2.08,2.08,0,0,1,1.33.47,3.5,3.5,0,0,1,.92,2.7A3.66,3.66,0,0,1,113.68,58.87Z"/><path class="cls-2" d="M59.53,65.9a5.63,5.63,0,0,0-4,1A4.22,4.22,0,0,0,54,70.51v9.17h1.28a1.4,1.4,0,0,0,.94-.35,1.25,1.25,0,0,0,.42-1V75a2.9,2.9,0,0,0,1.24,1.19,4,4,0,0,0,1.71.34,3.67,3.67,0,0,0,3-1.45,6.22,6.22,0,0,0,1.16-3.9,5.65,5.65,0,0,0-1.25-3.83A4,4,0,0,0,59.53,65.9Zm.9,7.52a1.86,1.86,0,0,1-1.59.81,1.94,1.94,0,0,1-1.67-.81,3.42,3.42,0,0,1-.58-2.18,3.92,3.92,0,0,1,.54-2.3,1.91,1.91,0,0,1,1.63-.8,1.94,1.94,0,0,1,1.67.8,3.87,3.87,0,0,1,.58,2.3A3.62,3.62,0,0,1,60.43,73.42Z"/><path class="cls-2" d="M82.2,66.84a4.84,4.84,0,0,0-3.39-1,4.17,4.17,0,0,0-3.49,1.47,6.33,6.33,0,0,0-1.08,3.84,6,6,0,0,0,.81,3.28,4.31,4.31,0,0,0,2,1.69,3.72,3.72,0,0,0,2.3.2A2.9,2.9,0,0,0,81.17,75v.65a3.16,3.16,0,0,1-.59,1.84,2.11,2.11,0,0,1-1.14.74,2.11,2.11,0,0,1-2.19-1H74.47a4.34,4.34,0,0,0,4.34,3.29,4.51,4.51,0,0,0,5-4.63v-5.4A4.27,4.27,0,0,0,82.2,66.84Zm-1.11,5.3a2.83,2.83,0,0,1-.49,1.32,2.1,2.1,0,0,1-2.25.71c-1-.2-1.52-1.17-1.52-2.93a4.92,4.92,0,0,1,.46-2.18,1.74,1.74,0,0,1,1.75-1,1.66,1.66,0,0,1,1.44.69,3.45,3.45,0,0,1,.63,1.57A5.6,5.6,0,0,1,81.09,72.14Z"/><path class="cls-2" d="M72,66.58a6.38,6.38,0,0,0-3-.66,4.31,4.31,0,0,0-3.59,1.33,3.89,3.89,0,0,0-.74,2.17h2.54a1.9,1.9,0,0,1,.37-.92A1.67,1.67,0,0,1,69,68a2.65,2.65,0,0,1,1.27.24.89.89,0,0,1,.44.85.79.79,0,0,1-.57.75,4.18,4.18,0,0,1-1,.23l-.9.11a6.42,6.42,0,0,0-2.32.65,2.85,2.85,0,0,0-1.44,2.68,2.8,2.8,0,0,0,.89,2.21,3.56,3.56,0,0,0,2.27.78c5.74.26,5.67-3,5.73-3.71V69.05A2.5,2.5,0,0,0,72,66.58ZM70.65,72.3a2.09,2.09,0,0,1-.76,1.82,2.67,2.67,0,0,1-1.58.5,1.48,1.48,0,0,1-.93-.3,1.17,1.17,0,0,1-.38-1,1.2,1.2,0,0,1,.63-1.12,3.92,3.92,0,0,1,1.2-.36l.6-.11a5.51,5.51,0,0,0,.71-.18,3,3,0,0,0,.51-.25Z"/><path class="cls-2" d="M89.89,65.82A4.62,4.62,0,0,0,86,67.41a6.22,6.22,0,0,0,0,7.53,5.53,5.53,0,0,0,7.7,0,6.22,6.22,0,0,0,0-7.53A4.63,4.63,0,0,0,89.89,65.82Zm1.75,7.67a2.33,2.33,0,0,1-3.53,0,3.76,3.76,0,0,1-.62-2.33,3.69,3.69,0,0,1,.62-2.31,2.31,2.31,0,0,1,3.53,0,3.76,3.76,0,0,1,.62,2.31A3.82,3.82,0,0,1,91.64,73.49Z"/></svg>