<svg id="Layer_1" data-name="Layer 1" xmlns="http://www.w3.org/2000/svg" xmlns:xlink="http://www.w3.org/1999/xlink" viewBox="0 0 127.75 127.75"><defs><style>.cls-1,.cls-2,.cls-3{fill:#8a9297;}.cls-1{clip-rule:evenodd;}.cls-3{fill-rule:evenodd;}.cls-4{clip-path:url(#clip-path);}.cls-5{clip-path:url(#clip-path-2);}.cls-6{clip-path:url(#clip-path-3);}.cls-7{clip-path:url(#clip-path-4);}.cls-8{clip-path:url(#clip-path-5);}.cls-9{clip-path:url(#clip-path-6);}.cls-10{clip-path:url(#clip-path-7);}.cls-11{clip-path:url(#clip-path-8);}.cls-12{clip-path:url(#clip-path-9);}.cls-13{clip-path:url(#clip-path-10);}.cls-14{clip-path:url(#clip-path-11);}.cls-15{clip-path:url(#clip-path-12);}.cls-16{clip-path:url(#clip-path-13);}.cls-17{clip-path:url(#clip-path-14);}.cls-18{clip-path:url(#clip-path-15);}.cls-19{clip-path:url(#clip-path-16);}.cls-20{clip-path:url(#clip-path-17);}.cls-21{clip-path:url(#clip-path-18);}.cls-22{clip-path:url(#clip-path-19);}.cls-23{clip-path:url(#clip-path-20);}.cls-24{clip-path:url(#clip-path-21);}.cls-25{clip-path:url(#clip-path-22);}.cls-26{clip-path:url(#clip-path-23);}.cls-27{clip-path:url(#clip-path-24);}.cls-28{clip-path:url(#clip-path-25);}.cls-29{clip-path:url(#clip-path-26);}.cls-30{clip-path:url(#clip-path-27);}.cls-31{clip-path:url(#clip-path-28);}.cls-32{clip-path:url(#clip-path-29);}</style><clipPath id="clip-path"><path class="cls-1" d="M-50.52-160h-.15l-11-.91a1.88,1.88,0,0,1-1.73-1.88v-44.32a6.42,6.42,0,0,0-1.71-4.92,6.62,6.62,0,0,0-4.49-1.45h-.18l-47.55-.53v46.91a1.91,1.91,0,0,1-.6,1.38,1.89,1.89,0,0,1-1.43.49l-9.25-.73a1.88,1.88,0,0,1-1.73-1.89c0-.3.27-29.77.21-36.75a14.83,14.83,0,0,1,3.35-9.34h-5.89a3.54,3.54,0,0,1-3.26-2.65,1.77,1.77,0,0,1-.09-.56v-6.09c0-3.06,1.89-4.32,3-4.58a1.83,1.83,0,0,1,.4,0l67.22-.91h.26c15.86,2,16.66,15.93,16.67,16.07v.09l-.19,50.73a1.85,1.85,0,0,1-.61,1.38A1.86,1.86,0,0,1-50.52-160Zm-9.11-4.53,7.24.6.17-48.64c-.05-.78-.94-10.82-13.24-12.45l-66.61.91a1.63,1.63,0,0,0-.18.87v5.54h10.12a1.91,1.91,0,0,1,1.43.65,1.12,1.12,0,0,1,.18-.2,1.82,1.82,0,0,1,1.34-.54l49.38.54a10.36,10.36,0,0,1,7.22,2.42c2,1.79,2.95,4.39,2.95,7.71Zm-66.92-5,5.47.43v-45.12h0s-5.32,3.68-5.26,9.63S-126.5-176.08-126.55-169.59Z"/></clipPath><clipPath id="clip-path-2"><path class="cls-1" d="M-45.4-163.49h-3.76v-49.62c-.09-1-1.31-11.3-12-12.12l.28-3.75c11.42.87,15.14,10.62,15.51,15.66v49.83Z"/></clipPath><clipPath id="clip-path-3"><path class="cls-1" d="M-125-231a1.88,1.88,0,0,1-1.88-1.87l-.12-19.85a1.87,1.87,0,0,1,1.82-1.89l9.64-.3h.1l3.42.06a1.87,1.87,0,0,1,1.84,1.91,1.87,1.87,0,0,1-1.91,1.85l-3.37-.06-7.77.24.11,18A1.89,1.89,0,0,1-125-231Z"/></clipPath><clipPath id="clip-path-4"><path class="cls-1" d="M-109.36-238.1h-.47a5,5,0,0,1-4.15-1.76,4.56,4.56,0,0,1-.8-3.49l.84-9.68c-.08-2.54.62-4.44,2.06-5.65a6.07,6.07,0,0,1,4.7-1.2l41.85-2,.23,0c2.51.51,4.25,1.53,5.19,3a4.49,4.49,0,0,1,.64,3.1c-.11,1.42-.78,9.74-1.45,12.36A5.76,5.76,0,0,1-65.49-239l-.18,0c-1.6,0-37.92.92-43.69.92m1.2-18.09a2.07,2.07,0,0,0-1.31.39,3.66,3.66,0,0,0-.71,2.73v.12l-.91,10.29a.75.75,0,0,0,.08.49,1.83,1.83,0,0,0,1.23.3c3.66.07,41.35-.85,43.88-.91a2,2,0,0,0,1.52-1.52c.52-2,1.15-9.22,1.35-11.83l.05-.31c0-.54-.81-1.27-2.66-1.68l-41.82,2-.23-.05a4.69,4.69,0,0,0-.48,0"/></clipPath><clipPath id="clip-path-5"><path class="cls-1" d="M-72.69-253a1.2,1.2,0,0,0-.92-.27,1.68,1.68,0,0,0-1,.4,2.2,2.2,0,0,0-.62,1.24s0,.1,0,.17,1.09,0,2-.06c.5,0,.79-.16.85-.6a1,1,0,0,0-.2-.88m1.84,1a1.43,1.43,0,0,1-.62,1.08,2.71,2.71,0,0,1-1.42.4,9.83,9.83,0,0,1-1.86,0c-.38-.08-.5-.65-.56-.81a4,4,0,0,0-.07,1.08,1.14,1.14,0,0,0,.5,1,2.14,2.14,0,0,0,1.21.24c.33,0,.66,0,1-.07l.81-.11h0c.07,0,.14,0,.13.12l-.1.83a.15.15,0,0,1-.12.13,8.07,8.07,0,0,1-1,.25,8.6,8.6,0,0,1-1.08.11,4.6,4.6,0,0,1-1.53-.16,2,2,0,0,1-1-.58,2,2,0,0,1-.46-1,4.36,4.36,0,0,1,0-1.36l0-.41a3.86,3.86,0,0,1,1-2.33,3.6,3.6,0,0,1,2.5-.92,2.53,2.53,0,0,1,2.07.63,2.33,2.33,0,0,1,.48,1.93m-22.44-1.74-4.45.17c-.29,0-.39.21-.44.49l-.1.82c0,.23.08.32.3.31h.38l1.4-.06c.11,0,0,0,0,0a2.36,2.36,0,0,0-1.29,1.9c0,.21-.34,2.66-.34,2.66a.86.86,0,0,0,0,.16c0,.23.14.28.23.28l.89,0h.08c.35,0,.45-.11.49-.47.06-.51.54-4.28.58-4.56l1,0c.49,0,1.06-.08,1.33.25s.23.71.16,1.26l-.37,3a.76.76,0,0,0,0,.15c0,.23.13.28.22.28l.9,0h.08c.35,0,.44-.11.49-.47,0-.12.48-3.76.51-4a1.88,1.88,0,0,0-2.08-2.07m25.05-.33c0-.24,0-.66-.47-.64l-.81,0a.41.41,0,0,0-.4.35l-.73,5.89c0,.32.06.44.22.43l1.17,0a.35.35,0,0,0,.31-.29l.1-.7s.23-1.92.43-3.51a.31.31,0,0,0-.35-.36l-1,0h-.08c.51-.09,1.48-.54,1.56-1.19m-20.63,1.92-.95,0h-.09c.51-.1,1.49-.54,1.57-1.2,0-.24,0-.66-.48-.64l-.81,0a.42.42,0,0,0-.39.36l-.73,5.88c-.06.32,0,.44.21.44l1.17-.05a.33.33,0,0,0,.32-.28l.09-.71s.24-1.91.43-3.5a.31.31,0,0,0-.34-.37m11.31-2a4.31,4.31,0,0,0-.91-.18,9.49,9.49,0,0,0-1.07,0,3.94,3.94,0,0,0-1,.15,2.79,2.79,0,0,0-.8.36,2.18,2.18,0,0,0-.56.61,2.24,2.24,0,0,0-.28.86,1.38,1.38,0,0,0,.25,1.11,2.47,2.47,0,0,0,1,.69l1,.38a1.67,1.67,0,0,1,.45.26.46.46,0,0,1,.15.43.62.62,0,0,1-.31.49,1.74,1.74,0,0,1-.76.17h-1.05c-.38,0-.73,0-1-.06h0a.09.09,0,0,0-.11.1s0,0,0,0l-.11.93c0,.1,0,.16.12.17a9.72,9.72,0,0,0,1.12.17,8.28,8.28,0,0,0,1.23,0,3.3,3.3,0,0,0,1.85-.57,2,2,0,0,0,.82-1.43,1.57,1.57,0,0,0-.23-1.14,2.25,2.25,0,0,0-1-.72l-1-.4a3.06,3.06,0,0,1-.45-.23.38.38,0,0,1-.14-.41.56.56,0,0,1,.3-.48,2.16,2.16,0,0,1,.69-.13h.88c.29,0,.59,0,.87.07h.06a.11.11,0,0,0,.1-.09c0-.06,0,0,0,0l.12-.93a.17.17,0,0,0-.14-.18m-5.38,1.34a.13.13,0,0,1-.1.1h-.06c-.28,0-.57-.05-.86-.06s-.6,0-.89,0a1.72,1.72,0,0,0-.69.13.56.56,0,0,0-.3.47.4.4,0,0,0,.14.41,3.06,3.06,0,0,0,.45.23l1,.41a2.18,2.18,0,0,1,1,.72,1.54,1.54,0,0,1,.23,1.13,2,2,0,0,1-.82,1.44,3.28,3.28,0,0,1-1.85.57,9.85,9.85,0,0,1-1.23,0,9.56,9.56,0,0,1-1.11-.16.14.14,0,0,1-.13-.18l.12-.93v0a.1.1,0,0,1,.11-.09h0c.3,0,.65.05,1,.06s.74,0,1.06,0a1.58,1.58,0,0,0,.75-.16.64.64,0,0,0,.31-.49.49.49,0,0,0-.14-.43,1.93,1.93,0,0,0-.46-.26l-1-.39a2.38,2.38,0,0,1-1-.69,1.37,1.37,0,0,1-.25-1.11,2.24,2.24,0,0,1,.28-.86,2.14,2.14,0,0,1,.56-.6,2.8,2.8,0,0,1,.8-.37,4.46,4.46,0,0,1,1-.14,6.32,6.32,0,0,1,1.07,0A4.22,4.22,0,0,1-83-254c.06,0,.16.07.14.18l-.11.93s0,0,0,0"/></clipPath><clipPath id="clip-path-6"><path class="cls-1" d="M-88.08-244.82c-.36,0-.44.13-.46.25s0,.15.17.14l.25,0Zm-.34.63c-.32,0-.46-.11-.43-.36s.27-.44.8-.51h0a.53.53,0,0,0,0-.19s-.07-.06-.15-.05a.82.82,0,0,0-.46.17l0,0,0-.29h0a1.28,1.28,0,0,1,.54-.16c.19,0,.32,0,.36.16a.62.62,0,0,1,0,.32l-.11.83h-.08A4.35,4.35,0,0,1-88.42-244.19Z"/></clipPath><clipPath id="clip-path-7"><path class="cls-1" d="M-87.27-245.78l0-.34h.34l0,.34Zm-.19,1.53.18-1.33H-87l-.17,1.33Z"/></clipPath><clipPath id="clip-path-8"><path class="cls-1" d="M-86.41-244.25a1,1,0,0,1-.37-.07h0l0-.32,0,0a.46.46,0,0,0,.32.11c.14,0,.23-.07.24-.15a.1.1,0,0,0-.07-.12.64.64,0,0,0-.17-.08c-.23-.11-.31-.2-.28-.38a.56.56,0,0,1,.57-.42.93.93,0,0,1,.34.06h0l0,.3,0,0a.43.43,0,0,0-.29-.08c-.13,0-.22.06-.23.13s0,.09.2.17a.59.59,0,0,1,.25.16.28.28,0,0,1,.08.25.56.56,0,0,1-.59.43"/></clipPath><clipPath id="clip-path-9"><path class="cls-1" d="M-84.07-245.47a.52.52,0,0,0-.55.46c0,.28.1.42.38.4l.19,0,.11-.83Zm-.1,1.75.09-.67a.71.71,0,0,1-.24,0c-.45,0-.68-.22-.63-.63a.88.88,0,0,1,1-.74,1.76,1.76,0,0,1,.39,0h0l-.26,2Z"/></clipPath><clipPath id="clip-path-10"><path class="cls-1" d="M-82.77-244.41a.62.62,0,0,1-.44-.1c-.09-.08-.11-.19-.09-.4l.11-.83h.33l-.11.81c0,.22,0,.28.27.27l.23,0,.14-1.08H-82l-.17,1.29h0a3.67,3.67,0,0,1-.57.08"/></clipPath><clipPath id="clip-path-11"><path class="cls-1" d="M-80.78-245.36c0-.16-.09-.23-.25-.23a.41.41,0,0,0-.37.26Zm-.37.9c-.45,0-.68-.22-.62-.64a.8.8,0,0,1,.77-.74.49.49,0,0,1,.48.22.61.61,0,0,1,0,.41l0,.09-1,0v0c0,.23.11.37.38.36a.85.85,0,0,0,.45-.16l.06,0,0,.29h0A1.16,1.16,0,0,1-81.15-244.46Z"/></clipPath><clipPath id="clip-path-12"><path class="cls-1" d="M-79.57-244.55l.14-1h-.22l0-.25h.21v0a.75.75,0,0,1,.26-.57.74.74,0,0,1,.43-.17h.16l0,.24h-.14a.33.33,0,0,0-.24.1.74.74,0,0,0-.12.36v0h.34l0,.24-.34,0-.14,1.05Z"/></clipPath><clipPath id="clip-path-13"><path class="cls-1" d="M-77.91-245.2c-.36,0-.44.12-.46.24s0,.15.17.15l.25,0Zm-.35.62q-.46,0-.42-.36c0-.29.27-.44.8-.5h0a.53.53,0,0,0,0-.19s-.07,0-.15,0a.9.9,0,0,0-.46.17l0,0,0-.3h0a1.17,1.17,0,0,1,.54-.17c.19,0,.32.05.36.17a.57.57,0,0,1,0,.31l-.11.83h-.08A3,3,0,0,1-78.26-244.58Z"/></clipPath><clipPath id="clip-path-14"><path class="cls-1" d="M-77.29-244.64l.17-1.24h0a1.81,1.81,0,0,1,.56-.12.93.93,0,0,1,.24,0h0l0,.27h0a.37.37,0,0,0-.21,0,.8.8,0,0,0-.26.05l-.14,1Z"/></clipPath><clipPath id="clip-path-15"><path class="cls-1" d="M-74.55-244.74l.11-.83c0-.2,0-.26-.22-.26a1.14,1.14,0,0,0-.24.05,1.64,1.64,0,0,1,0,.2l-.11.86h-.33l.11-.83c0-.2,0-.26-.24-.26l-.25.05-.14,1.06h-.33l.17-1.25h0a2.39,2.39,0,0,1,.61-.11A.58.58,0,0,1-75-246a1.09,1.09,0,0,1,.46-.1.5.5,0,0,1,.41.13.36.36,0,0,1,.06.34l-.11.86Z"/></clipPath><clipPath id="clip-path-16"><path class="cls-1" d="M-89.59-244.17l.11-.83c0-.19,0-.26-.22-.25a.59.59,0,0,0-.25.05.47.47,0,0,1,0,.2l-.11.85h-.32l.11-.83c0-.19,0-.26-.25-.25a.81.81,0,0,0-.25,0l-.14,1.06-.32,0,.16-1.26h0a3,3,0,0,1,.6-.11.82.82,0,0,1,.37.07,1.53,1.53,0,0,1,.45-.1.48.48,0,0,1,.41.13.38.38,0,0,1,.07.34l-.12.86Z"/></clipPath><clipPath id="clip-path-17"><path class="cls-1" d="M-73.35-246.27l.57-.58h.3l-.63.6Zm.27.88c-.37,0-.45.13-.47.25s0,.15.18.14l.24,0Zm-.35.63c-.32,0-.46-.11-.43-.36s.28-.45.8-.51h0c0-.12,0-.17,0-.19s-.07-.06-.14,0a.77.77,0,0,0-.46.17l-.06,0,0-.29h0a1.32,1.32,0,0,1,.54-.16c.2,0,.32,0,.37.16a.77.77,0,0,1,0,.31l-.11.84h-.08A4.11,4.11,0,0,1-73.43-244.76Z"/></clipPath><clipPath id="clip-path-18"><path class="cls-1" d="M-71.85-244.82a.54.54,0,0,1-.63-.64.84.84,0,0,1,.84-.73.65.65,0,0,1,.34.06h0l0,.29,0,0a.46.46,0,0,0-.3-.08.49.49,0,0,0-.49.45c0,.28.1.43.38.42a.74.74,0,0,0,.34-.12l.05,0,0,.29h0a.86.86,0,0,1-.41.1"/></clipPath><clipPath id="clip-path-19"><path class="cls-1" d="M-71-246.4l0-.34h.34l0,.34Zm-.19,1.53.17-1.33h.33l-.18,1.33Z"/></clipPath><clipPath id="clip-path-20"><path class="cls-1" d="M-69.7-245.52c-.36.05-.44.13-.46.25s0,.15.17.14l.25,0Zm-.35.63q-.47,0-.42-.36c0-.3.27-.44.8-.51h0a.53.53,0,0,0,0-.19s-.07-.06-.15,0a.82.82,0,0,0-.46.17l0,0,0-.29h0a1.36,1.36,0,0,1,.55-.16c.19,0,.31.05.36.16a.62.62,0,0,1,0,.32l-.11.83h-.08A4.48,4.48,0,0,1-70-244.89Z"/></clipPath><clipPath id="clip-path-21"><path class="cls-1" d="M-101.26-249.8l-.55,3.11a4.39,4.39,0,0,0,2.8-3.19Z"/></clipPath><clipPath id="clip-path-22"><path class="cls-1" d="M-100.88-251.8l1.67-.07a4.11,4.11,0,0,0-1.36-1.74Z"/></clipPath><clipPath id="clip-path-23"><path class="cls-1" d="M-103.65-248c.14-.51.31-1.36,1.88-1.7.14,0,.12-.06,0-.06l-5.09.2c0-.27.18-1.1.25-1.42.1-.5.36-.6.83-.62l2.78-.1.51-2.78a5.71,5.71,0,0,0-1.5-.14c-2.68.1-4.77,2-4.69,4.35s2.15,3.93,4.68,4Z"/></clipPath><clipPath id="clip-path-24"><polygon class="cls-1" points="-87.64 -164.54 -118.18 -166.94 -117.89 -170.69 -91.41 -168.61 -91.5 -215.75 -87.74 -215.75 -87.64 -164.54"/></clipPath><clipPath id="clip-path-25"><rect class="cls-2" x="-77.49" y="-179.48" width="3.76" height="27.92" transform="translate(95.14 -228.43) rotate(-85.67)"/></clipPath><clipPath id="clip-path-26"><path class="cls-1" d="M-84-181.21a1.88,1.88,0,0,1-1.62-.92,1.87,1.87,0,0,1,.66-2.57l1-.62v-1.89l-1.52-1.27a1.89,1.89,0,0,1-.24-2.65,1.88,1.88,0,0,1,2.65-.24l2.2,1.83a1.89,1.89,0,0,1,.68,1.45v3.84a1.88,1.88,0,0,1-.92,1.62l-2,1.16a1.85,1.85,0,0,1-1,.26"/></clipPath><clipPath id="clip-path-27"><path class="cls-1" d="M-95.71-181.74a1.86,1.86,0,0,1-1-.27l-2-1.16a1.89,1.89,0,0,1-.93-1.62v-3.84a1.89,1.89,0,0,1,.68-1.45l2.2-1.83a1.88,1.88,0,0,1,2.65.24,1.88,1.88,0,0,1-.24,2.65l-1.52,1.27v1.89l1,.62a1.88,1.88,0,0,1,.66,2.57,1.87,1.87,0,0,1-1.62.93"/></clipPath><clipPath id="clip-path-28"><path class="cls-2" d="M-404.65,208.93h-83.52l35.56-33.83a3.29,3.29,0,0,0,0-4.93,3.71,3.71,0,0,0-5.19,0l-42,39.81a3.29,3.29,0,0,0,0,4.94L-458,254.73a3.72,3.72,0,0,0,5.18,0,3.3,3.3,0,0,0,0-4.94L-488.17,216h83.52a3.63,3.63,0,0,0,3.71-3.52A3.63,3.63,0,0,0-404.65,208.93Z"/></clipPath><clipPath id="clip-path-29"><path class="cls-2" d="M-645.24,208.93h83.52l-35.56-33.83a3.29,3.29,0,0,1,0-4.93,3.71,3.71,0,0,1,5.19,0l42,39.81a3.29,3.29,0,0,1,0,4.94l-41.85,39.81a3.72,3.72,0,0,1-5.18,0,3.3,3.3,0,0,1,0-4.94L-561.72,216h-83.52a3.62,3.62,0,0,1-3.7-3.52A3.62,3.62,0,0,1-645.24,208.93Z"/></clipPath></defs><title>icons</title><rect class="cls-2" x="14.86" y="65.69" width="56.43" height="7.69"/><rect class="cls-2" x="14.86" y="80.31" width="38.42" height="7.69"/><path class="cls-2" d="M124.86,46.35h0V34.61a15,15,0,0,0-15-15h-90a15,15,0,0,0-15,15V92.89a15,15,0,0,0,15,15h90a15,15,0,0,0,15-15V53.35h0Zm-105-19.74h90a8,8,0,0,1,8,8V46.35h-106V34.61A8,8,0,0,1,19.86,26.61Zm98,66.28a8,8,0,0,1-8,8h-90a8,8,0,0,1-8-8V53.35h106Z"/><path class="cls-3" d="M-50.52-160h-.15l-11-.91a1.88,1.88,0,0,1-1.73-1.88v-44.32a6.42,6.42,0,0,0-1.71-4.92,6.62,6.62,0,0,0-4.49-1.45h-.18l-47.55-.53v46.91a1.91,1.91,0,0,1-.6,1.38,1.89,1.89,0,0,1-1.43.49l-9.25-.73a1.88,1.88,0,0,1-1.73-1.89c0-.3.27-29.77.21-36.75a14.83,14.83,0,0,1,3.35-9.34h-5.89a3.54,3.54,0,0,1-3.26-2.65,1.77,1.77,0,0,1-.09-.56v-6.09c0-3.06,1.89-4.32,3-4.58a1.83,1.83,0,0,1,.4,0l67.22-.91h.26c15.86,2,16.66,15.93,16.67,16.07v.09l-.19,50.73a1.85,1.85,0,0,1-.61,1.38A1.86,1.86,0,0,1-50.52-160Zm-9.11-4.53,7.24.6.17-48.64c-.05-.78-.94-10.82-13.24-12.45l-66.61.91a1.63,1.63,0,0,0-.18.87v5.54h10.12a1.91,1.91,0,0,1,1.43.65,1.12,1.12,0,0,1,.18-.2,1.82,1.82,0,0,1,1.34-.54l49.38.54a10.36,10.36,0,0,1,7.22,2.42c2,1.79,2.95,4.39,2.95,7.71Zm-66.92-5,5.47.43v-45.12h0s-5.32,3.68-5.26,9.63S-126.5-176.08-126.55-169.59Z"/><g class="cls-4"><rect class="cls-2" x="-4633.79" y="-2743.95" width="6348.4" height="5052.27"/></g><path class="cls-3" d="M-45.4-163.49h-3.76v-49.62c-.09-1-1.31-11.3-12-12.12l.28-3.75c11.42.87,15.14,10.62,15.51,15.66v49.83Z"/><g class="cls-5"><rect class="cls-2" x="-4633.79" y="-2743.95" width="6348.4" height="5052.27"/></g><path class="cls-3" d="M-125-231a1.88,1.88,0,0,1-1.88-1.87l-.12-19.85a1.87,1.87,0,0,1,1.82-1.89l9.64-.3h.1l3.42.06a1.87,1.87,0,0,1,1.84,1.91,1.87,1.87,0,0,1-1.91,1.85l-3.37-.06-7.77.24.11,18A1.89,1.89,0,0,1-125-231Z"/><g class="cls-6"><rect class="cls-2" x="-4633.79" y="-2743.95" width="6348.4" height="5052.27"/></g><path class="cls-3" d="M-109.36-238.1h-.47a5,5,0,0,1-4.15-1.76,4.56,4.56,0,0,1-.8-3.49l.84-9.68c-.08-2.54.62-4.44,2.06-5.65a6.07,6.07,0,0,1,4.7-1.2l41.85-2,.23,0c2.51.51,4.25,1.53,5.19,3a4.49,4.49,0,0,1,.64,3.1c-.11,1.42-.78,9.74-1.45,12.36A5.76,5.76,0,0,1-65.49-239l-.18,0c-1.6,0-37.92.92-43.69.92m1.2-18.09a2.07,2.07,0,0,0-1.31.39,3.66,3.66,0,0,0-.71,2.73v.12l-.91,10.29a.75.75,0,0,0,.08.49,1.83,1.83,0,0,0,1.23.3c3.66.07,41.35-.85,43.88-.91a2,2,0,0,0,1.52-1.52c.52-2,1.15-9.22,1.35-11.83l.05-.31c0-.54-.81-1.27-2.66-1.68l-41.82,2-.23-.05a4.69,4.69,0,0,0-.48,0"/><g class="cls-7"><rect class="cls-2" x="-4633.79" y="-2743.95" width="6348.4" height="5052.27"/></g><path class="cls-3" d="M-72.69-253a1.2,1.2,0,0,0-.92-.27,1.68,1.68,0,0,0-1,.4,2.2,2.2,0,0,0-.62,1.24s0,.1,0,.17,1.09,0,2-.06c.5,0,.79-.16.85-.6a1,1,0,0,0-.2-.88m1.84,1a1.43,1.43,0,0,1-.62,1.08,2.71,2.71,0,0,1-1.42.4,9.83,9.83,0,0,1-1.86,0c-.38-.08-.5-.65-.56-.81a4,4,0,0,0-.07,1.08,1.14,1.14,0,0,0,.5,1,2.14,2.14,0,0,0,1.21.24c.33,0,.66,0,1-.07l.81-.11h0c.07,0,.14,0,.13.12l-.1.83a.15.15,0,0,1-.12.13,8.07,8.07,0,0,1-1,.25,8.6,8.6,0,0,1-1.08.11,4.6,4.6,0,0,1-1.53-.16,2,2,0,0,1-1-.58,2,2,0,0,1-.46-1,4.36,4.36,0,0,1,0-1.36l0-.41a3.86,3.86,0,0,1,1-2.33,3.6,3.6,0,0,1,2.5-.92,2.53,2.53,0,0,1,2.07.63,2.33,2.33,0,0,1,.48,1.93m-22.44-1.74-4.45.17c-.29,0-.39.21-.44.49l-.1.82c0,.23.08.32.3.31h.38l1.4-.06c.11,0,0,0,0,0a2.36,2.36,0,0,0-1.29,1.9c0,.21-.34,2.66-.34,2.66a.86.86,0,0,0,0,.16c0,.23.14.28.23.28l.89,0h.08c.35,0,.45-.11.49-.47.06-.51.54-4.28.58-4.56l1,0c.49,0,1.06-.08,1.33.25s.23.71.16,1.26l-.37,3a.76.76,0,0,0,0,.15c0,.23.13.28.22.28l.9,0h.08c.35,0,.44-.11.49-.47,0-.12.48-3.76.51-4a1.88,1.88,0,0,0-2.08-2.07m25.05-.33c0-.24,0-.66-.47-.64l-.81,0a.41.41,0,0,0-.4.35l-.73,5.89c0,.32.06.44.22.43l1.17,0a.35.35,0,0,0,.31-.29l.1-.7s.23-1.92.43-3.51a.31.31,0,0,0-.35-.36l-1,0h-.08c.51-.09,1.48-.54,1.56-1.19m-20.63,1.92-.95,0h-.09c.51-.1,1.49-.54,1.57-1.2,0-.24,0-.66-.48-.64l-.81,0a.42.42,0,0,0-.39.36l-.73,5.88c-.06.32,0,.44.21.44l1.17-.05a.33.33,0,0,0,.32-.28l.09-.71s.24-1.91.43-3.5a.31.31,0,0,0-.34-.37m11.31-2a4.31,4.31,0,0,0-.91-.18,9.49,9.49,0,0,0-1.07,0,3.94,3.94,0,0,0-1,.15,2.79,2.79,0,0,0-.8.36,2.18,2.18,0,0,0-.56.61,2.24,2.24,0,0,0-.28.86,1.38,1.38,0,0,0,.25,1.11,2.47,2.47,0,0,0,1,.69l1,.38a1.67,1.67,0,0,1,.45.26.46.46,0,0,1,.15.43.62.62,0,0,1-.31.49,1.74,1.74,0,0,1-.76.17h-1.05c-.38,0-.73,0-1-.06h0a.09.09,0,0,0-.11.1s0,0,0,0l-.11.93c0,.1,0,.16.12.17a9.72,9.72,0,0,0,1.12.17,8.28,8.28,0,0,0,1.23,0,3.3,3.3,0,0,0,1.85-.57,2,2,0,0,0,.82-1.43,1.57,1.57,0,0,0-.23-1.14,2.25,2.25,0,0,0-1-.72l-1-.4a3.06,3.06,0,0,1-.45-.23.38.38,0,0,1-.14-.41.56.56,0,0,1,.3-.48,2.16,2.16,0,0,1,.69-.13h.88c.29,0,.59,0,.87.07h.06a.11.11,0,0,0,.1-.09c0-.06,0,0,0,0l.12-.93a.17.17,0,0,0-.14-.18m-5.38,1.34a.13.13,0,0,1-.1.1h-.06c-.28,0-.57-.05-.86-.06s-.6,0-.89,0a1.72,1.72,0,0,0-.69.13.56.56,0,0,0-.3.47.4.4,0,0,0,.14.41,3.06,3.06,0,0,0,.45.23l1,.41a2.18,2.18,0,0,1,1,.72,1.54,1.54,0,0,1,.23,1.13,2,2,0,0,1-.82,1.44,3.28,3.28,0,0,1-1.85.57,9.85,9.85,0,0,1-1.23,0,9.56,9.56,0,0,1-1.11-.16.14.14,0,0,1-.13-.18l.12-.93v0a.1.1,0,0,1,.11-.09h0c.3,0,.65.05,1,.06s.74,0,1.06,0a1.58,1.58,0,0,0,.75-.16.64.64,0,0,0,.31-.49.49.49,0,0,0-.14-.43,1.93,1.93,0,0,0-.46-.26l-1-.39a2.38,2.38,0,0,1-1-.69,1.37,1.37,0,0,1-.25-1.11,2.24,2.24,0,0,1,.28-.86,2.14,2.14,0,0,1,.56-.6,2.8,2.8,0,0,1,.8-.37,4.46,4.46,0,0,1,1-.14,6.32,6.32,0,0,1,1.07,0A4.22,4.22,0,0,1-83-254c.06,0,.16.07.14.18l-.11.93s0,0,0,0"/><g class="cls-8"><rect class="cls-2" x="-4633.79" y="-2743.95" width="6348.4" height="5052.27"/></g><path class="cls-3" d="M-88.08-244.82c-.36,0-.44.13-.46.25s0,.15.17.14l.25,0Zm-.34.63c-.32,0-.46-.11-.43-.36s.27-.44.8-.51h0a.53.53,0,0,0,0-.19s-.07-.06-.15-.05a.82.82,0,0,0-.46.17l0,0,0-.29h0a1.28,1.28,0,0,1,.54-.16c.19,0,.32,0,.36.16a.62.62,0,0,1,0,.32l-.11.83h-.08A4.35,4.35,0,0,1-88.42-244.19Z"/><g class="cls-9"><rect class="cls-2" x="-4633.79" y="-2743.95" width="6348.4" height="5052.27"/></g><path class="cls-3" d="M-87.27-245.78l0-.34h.34l0,.34Zm-.19,1.53.18-1.33H-87l-.17,1.33Z"/><g class="cls-10"><rect class="cls-2" x="-4633.79" y="-2743.95" width="6348.4" height="5052.27"/></g><path class="cls-3" d="M-86.41-244.25a1,1,0,0,1-.37-.07h0l0-.32,0,0a.46.46,0,0,0,.32.11c.14,0,.23-.07.24-.15a.1.1,0,0,0-.07-.12.64.64,0,0,0-.17-.08c-.23-.11-.31-.2-.28-.38a.56.56,0,0,1,.57-.42.93.93,0,0,1,.34.06h0l0,.3,0,0a.43.43,0,0,0-.29-.08c-.13,0-.22.06-.23.13s0,.09.2.17a.59.59,0,0,1,.25.16.28.28,0,0,1,.08.25.56.56,0,0,1-.59.43"/><g class="cls-11"><rect class="cls-2" x="-4633.79" y="-2743.95" width="6348.4" height="5052.27"/></g><path class="cls-3" d="M-84.07-245.47a.52.52,0,0,0-.55.46c0,.28.1.42.38.4l.19,0,.11-.83Zm-.1,1.75.09-.67a.71.71,0,0,1-.24,0c-.45,0-.68-.22-.63-.63a.88.88,0,0,1,1-.74,1.76,1.76,0,0,1,.39,0h0l-.26,2Z"/><g class="cls-12"><rect class="cls-2" x="-4633.79" y="-2743.95" width="6348.4" height="5052.27"/></g><path class="cls-3" d="M-82.77-244.41a.62.62,0,0,1-.44-.1c-.09-.08-.11-.19-.09-.4l.11-.83h.33l-.11.81c0,.22,0,.28.27.27l.23,0,.14-1.08H-82l-.17,1.29h0a3.67,3.67,0,0,1-.57.08"/><g class="cls-13"><rect class="cls-2" x="-4633.79" y="-2743.95" width="6348.4" height="5052.27"/></g><path class="cls-3" d="M-80.78-245.36c0-.16-.09-.23-.25-.23a.41.41,0,0,0-.37.26Zm-.37.9c-.45,0-.68-.22-.62-.64a.8.8,0,0,1,.77-.74.49.49,0,0,1,.48.22.61.61,0,0,1,0,.41l0,.09-1,0v0c0,.23.11.37.38.36a.85.85,0,0,0,.45-.16l.06,0,0,.29h0A1.16,1.16,0,0,1-81.15-244.46Z"/><g class="cls-14"><rect class="cls-2" x="-4633.79" y="-2743.95" width="6348.4" height="5052.27"/></g><path class="cls-3" d="M-79.57-244.55l.14-1h-.22l0-.25h.21v0a.75.75,0,0,1,.26-.57.74.74,0,0,1,.43-.17h.16l0,.24h-.14a.33.33,0,0,0-.24.1.74.74,0,0,0-.12.36v0h.34l0,.24-.34,0-.14,1.05Z"/><g class="cls-15"><rect class="cls-2" x="-4633.79" y="-2743.95" width="6348.4" height="5052.27"/></g><path class="cls-3" d="M-77.91-245.2c-.36,0-.44.12-.46.24s0,.15.17.15l.25,0Zm-.35.62q-.46,0-.42-.36c0-.29.27-.44.8-.5h0a.53.53,0,0,0,0-.19s-.07,0-.15,0a.9.9,0,0,0-.46.17l0,0,0-.3h0a1.17,1.17,0,0,1,.54-.17c.19,0,.32.05.36.17a.57.57,0,0,1,0,.31l-.11.83h-.08A3,3,0,0,1-78.26-244.58Z"/><g class="cls-16"><rect class="cls-2" x="-4633.79" y="-2743.95" width="6348.4" height="5052.27"/></g><path class="cls-3" d="M-77.29-244.64l.17-1.24h0a1.81,1.81,0,0,1,.56-.12.93.93,0,0,1,.24,0h0l0,.27h0a.37.37,0,0,0-.21,0,.8.8,0,0,0-.26.05l-.14,1Z"/><g class="cls-17"><rect class="cls-2" x="-4633.79" y="-2743.95" width="6348.4" height="5052.27"/></g><path class="cls-3" d="M-74.55-244.74l.11-.83c0-.2,0-.26-.22-.26a1.14,1.14,0,0,0-.24.05,1.64,1.64,0,0,1,0,.2l-.11.86h-.33l.11-.83c0-.2,0-.26-.24-.26l-.25.05-.14,1.06h-.33l.17-1.25h0a2.39,2.39,0,0,1,.61-.11A.58.58,0,0,1-75-246a1.09,1.09,0,0,1,.46-.1.5.5,0,0,1,.41.13.36.36,0,0,1,.06.34l-.11.86Z"/><g class="cls-18"><rect class="cls-2" x="-4633.79" y="-2743.95" width="6348.4" height="5052.27"/></g><path class="cls-3" d="M-89.59-244.17l.11-.83c0-.19,0-.26-.22-.25a.59.59,0,0,0-.25.05.47.47,0,0,1,0,.2l-.11.85h-.32l.11-.83c0-.19,0-.26-.25-.25a.81.81,0,0,0-.25,0l-.14,1.06-.32,0,.16-1.26h0a3,3,0,0,1,.6-.11.82.82,0,0,1,.37.07,1.53,1.53,0,0,1,.45-.1.48.48,0,0,1,.41.13.38.38,0,0,1,.07.34l-.12.86Z"/><g class="cls-19"><rect class="cls-2" x="-4633.79" y="-2743.95" width="6348.4" height="5052.27"/></g><path class="cls-3" d="M-73.35-246.27l.57-.58h.3l-.63.6Zm.27.88c-.37,0-.45.13-.47.25s0,.15.18.14l.24,0Zm-.35.63c-.32,0-.46-.11-.43-.36s.28-.45.8-.51h0c0-.12,0-.17,0-.19s-.07-.06-.14,0a.77.77,0,0,0-.46.17l-.06,0,0-.29h0a1.32,1.32,0,0,1,.54-.16c.2,0,.32,0,.37.16a.77.77,0,0,1,0,.31l-.11.84h-.08A4.11,4.11,0,0,1-73.43-244.76Z"/><g class="cls-20"><rect class="cls-2" x="-4633.79" y="-2743.95" width="6348.4" height="5052.27"/></g><path class="cls-3" d="M-71.85-244.82a.54.54,0,0,1-.63-.64.84.84,0,0,1,.84-.73.65.65,0,0,1,.34.06h0l0,.29,0,0a.46.46,0,0,0-.3-.08.49.49,0,0,0-.49.45c0,.28.1.43.38.42a.74.74,0,0,0,.34-.12l.05,0,0,.29h0a.86.86,0,0,1-.41.1"/><g class="cls-21"><rect class="cls-2" x="-4633.79" y="-2743.95" width="6348.4" height="5052.27"/></g><path class="cls-3" d="M-71-246.4l0-.34h.34l0,.34Zm-.19,1.53.17-1.33h.33l-.18,1.33Z"/><g class="cls-22"><rect class="cls-2" x="-4633.79" y="-2743.95" width="6348.4" height="5052.27"/></g><path class="cls-3" d="M-69.7-245.52c-.36.05-.44.13-.46.25s0,.15.17.14l.25,0Zm-.35.63q-.47,0-.42-.36c0-.3.27-.44.8-.51h0a.53.53,0,0,0,0-.19s-.07-.06-.15,0a.82.82,0,0,0-.46.17l0,0,0-.29h0a1.36,1.36,0,0,1,.55-.16c.19,0,.31.05.36.16a.62.62,0,0,1,0,.32l-.11.83h-.08A4.48,4.48,0,0,1-70-244.89Z"/><g class="cls-23"><rect class="cls-2" x="-4633.79" y="-2743.95" width="6348.4" height="5052.27"/></g><path class="cls-3" d="M-101.26-249.8l-.55,3.11a4.39,4.39,0,0,0,2.8-3.19Z"/><g class="cls-24"><rect class="cls-2" x="-4633.79" y="-2743.95" width="6348.4" height="5052.27"/></g><path class="cls-3" d="M-100.88-251.8l1.67-.07a4.11,4.11,0,0,0-1.36-1.74Z"/><g class="cls-25"><rect class="cls-2" x="-4633.79" y="-2743.95" width="6348.4" height="5052.27"/></g><path class="cls-3" d="M-103.65-248c.14-.51.31-1.36,1.88-1.7.14,0,.12-.06,0-.06l-5.09.2c0-.27.18-1.1.25-1.42.1-.5.36-.6.83-.62l2.78-.1.51-2.78a5.71,5.71,0,0,0-1.5-.14c-2.68.1-4.77,2-4.69,4.35s2.15,3.93,4.68,4Z"/><g class="cls-26"><rect class="cls-2" x="-4633.79" y="-2743.95" width="6348.4" height="5052.27"/></g><polygon class="cls-3" points="-87.64 -164.54 -118.18 -166.94 -117.89 -170.69 -91.41 -168.61 -91.5 -215.75 -87.74 -215.75 -87.64 -164.54"/><g class="cls-27"><rect class="cls-2" x="-4633.79" y="-2743.95" width="6348.4" height="5052.27"/></g><rect class="cls-2" x="-77.49" y="-179.48" width="3.76" height="27.92" transform="translate(95.14 -228.43) rotate(-85.67)"/><g class="cls-28"><rect class="cls-2" x="-4633.79" y="-2743.95" width="6348.4" height="5052.27"/></g><path class="cls-3" d="M-84-181.21a1.88,1.88,0,0,1-1.62-.92,1.87,1.87,0,0,1,.66-2.57l1-.62v-1.89l-1.52-1.27a1.89,1.89,0,0,1-.24-2.65,1.88,1.88,0,0,1,2.65-.24l2.2,1.83a1.89,1.89,0,0,1,.68,1.45v3.84a1.88,1.88,0,0,1-.92,1.62l-2,1.16a1.85,1.85,0,0,1-1,.26"/><g class="cls-29"><rect class="cls-2" x="-4633.79" y="-2743.95" width="6348.4" height="5052.27"/></g><path class="cls-3" d="M-95.71-181.74a1.86,1.86,0,0,1-1-.27l-2-1.16a1.89,1.89,0,0,1-.93-1.62v-3.84a1.89,1.89,0,0,1,.68-1.45l2.2-1.83a1.88,1.88,0,0,1,2.65.24,1.88,1.88,0,0,1-.24,2.65l-1.52,1.27v1.89l1,.62a1.88,1.88,0,0,1,.66,2.57,1.87,1.87,0,0,1-1.62.93"/><g class="cls-30"><rect class="cls-2" x="-4633.79" y="-2743.95" width="6348.4" height="5052.27"/></g><path class="cls-2" d="M-404.65,208.93h-83.52l35.56-33.83a3.29,3.29,0,0,0,0-4.93,3.71,3.71,0,0,0-5.19,0l-42,39.81a3.29,3.29,0,0,0,0,4.94L-458,254.73a3.72,3.72,0,0,0,5.18,0,3.3,3.3,0,0,0,0-4.94L-488.17,216h83.52a3.63,3.63,0,0,0,3.71-3.52A3.63,3.63,0,0,0-404.65,208.93Z"/><g class="cls-31"><rect class="cls-2" x="-1200.94" y="-2524.22" width="9600" height="25640"/></g><path class="cls-2" d="M-645.24,208.93h83.52l-35.56-33.83a3.29,3.29,0,0,1,0-4.93,3.71,3.71,0,0,1,5.19,0l42,39.81a3.29,3.29,0,0,1,0,4.94l-41.85,39.81a3.72,3.72,0,0,1-5.18,0,3.3,3.3,0,0,1,0-4.94L-561.72,216h-83.52a3.62,3.62,0,0,1-3.7-3.52A3.62,3.62,0,0,1-645.24,208.93Z"/><g class="cls-32"><rect class="cls-2" x="-9448.94" y="-2524.22" width="9600" height="25640"/></g></svg>