<svg width="24" height="23" viewBox="0 0 24 23" fill="none" xmlns="http://www.w3.org/2000/svg">

<style type="text/css">
	.st0{fill:#8a9297;}
</style>

<path class="st0" d="M1.59144 8.08403H21.5003C21.9262 8.08403 22.3347 8.25323 22.6359 8.55442C22.9371 8.85561 23.1063 9.26411 23.1063 9.69005V11.7286C23.1063 11.9395 23.0648 12.1483 22.984 12.3432C22.9033 12.538 22.785 12.715 22.6359 12.8642C22.4868 13.0133 22.3097 13.1316 22.1149 13.2123C21.92 13.293 21.7112 13.3346 21.5003 13.3346H20.939L19.3281 20.9905C19.263 21.2846 19.1326 21.5602 18.9467 21.7972C18.7517 22.0457 18.5159 22.2593 18.2494 22.4289C17.9679 22.6095 17.6618 22.7486 17.3407 22.8419C16.9999 22.9424 16.6463 22.9931 16.291 22.9926H6.81526C6.46403 22.992 6.11468 22.9413 5.77779 22.8419C5.45662 22.7486 5.15058 22.6095 4.86909 22.4289C4.60252 22.2594 4.36672 22.0457 4.17177 21.7972C3.98149 21.5614 3.84694 21.2856 3.77816 20.9905L2.16728 13.3346H1.60602C1.39512 13.3346 1.18628 13.293 0.991423 13.2123C0.796572 13.1316 0.619526 13.0133 0.470393 12.8642C0.32126 12.715 0.202961 12.538 0.122251 12.3432C0.0415409 12.1483 0 11.9395 0 11.7286V9.69005C0 9.26411 0.169205 8.85561 0.470393 8.55442C0.77158 8.25323 1.18008 8.08403 1.60602 8.08403H1.59144ZM14.6461 19.3991C14.6411 19.4625 14.6493 19.5262 14.67 19.5864C14.6908 19.6465 14.7238 19.7017 14.7669 19.7484C14.81 19.7952 14.8624 19.8326 14.9206 19.8581C14.9788 19.8837 15.0417 19.897 15.1053 19.8972H16.0626C16.1733 19.8972 16.2803 19.8575 16.3642 19.7852C16.448 19.713 16.5031 19.613 16.5194 19.5035L17.3066 14.3162C17.3168 14.2503 17.3126 14.1831 17.2943 14.119C17.276 14.0549 17.2441 13.9956 17.2007 13.945C17.1573 13.8945 17.1035 13.8539 17.0429 13.8261C16.9823 13.7983 16.9165 13.784 16.8499 13.7841H15.5208C15.4049 13.7843 15.2933 13.8282 15.2082 13.907C15.1231 13.9858 15.0708 14.0937 15.0616 14.2093L14.6461 19.3991ZM10.3699 14.2651L10.557 19.4525C10.5614 19.572 10.612 19.6851 10.6981 19.768C10.7842 19.8509 10.8991 19.8972 11.0186 19.8972H12.0877C12.2072 19.8972 12.3221 19.8509 12.4082 19.768C12.4943 19.6851 12.5449 19.572 12.5493 19.4525L12.7364 14.2651C12.7397 14.2025 12.7302 14.1399 12.7085 14.081C12.6868 14.0222 12.6533 13.9684 12.6101 13.9229C12.5669 13.8774 12.5149 13.8412 12.4572 13.8165C12.3996 13.7918 12.3375 13.7791 12.2748 13.7792H10.8242C10.7621 13.7801 10.7008 13.7935 10.644 13.8187C10.5872 13.8438 10.5361 13.8801 10.4937 13.9255C10.4513 13.9709 10.4184 14.0244 10.3972 14.0827C10.3759 14.1411 10.3666 14.2031 10.3699 14.2651ZM5.79966 14.3186L6.58687 19.506C6.60318 19.6154 6.65828 19.7154 6.74212 19.7877C6.82597 19.8599 6.93298 19.8996 7.04365 19.8996H8.00095C8.06456 19.8994 8.12746 19.8862 8.18569 19.8606C8.24393 19.835 8.29625 19.7976 8.33937 19.7509C8.38248 19.7041 8.41547 19.6489 8.43626 19.5888C8.45704 19.5287 8.46518 19.4649 8.46016 19.4015L8.04711 14.2141C8.03796 14.0985 7.98564 13.9906 7.90056 13.9118C7.81547 13.8331 7.70386 13.7892 7.5879 13.7889H6.25644C6.19028 13.789 6.12491 13.8032 6.06474 13.8307C6.00457 13.8582 5.95102 13.8983 5.9077 13.9483C5.86439 13.9983 5.83232 14.057 5.81368 14.1205C5.79504 14.184 5.79026 14.2507 5.79966 14.3162V14.3186Z" fill="white"/>
<path class="st0" d="M5.0586 6.44642H7.66565L10.0804 0H7.58482L5.0586 6.44642Z" fill="white"/>
<path class="st0" d="M18.399 6.44642H15.7919L13.3772 0H15.8728L18.399 6.44642Z" fill="white"/>
</svg>
