<svg width="33" height="32" viewBox="0 0 33 32" fill="none" xmlns="http://www.w3.org/2000/svg">
<path d="M17.7725 25.6483C17.4362 25.6483 17.1075 25.7516 16.8279 25.9452C16.5483 26.1389 16.3304 26.4141 16.2017 26.7361C16.073 27.0581 16.0393 27.4124 16.1049 27.7542C16.1705 28.096 16.3325 28.41 16.5703 28.6565C16.808 28.9029 17.111 29.0708 17.4408 29.1387C17.7706 29.2067 18.1125 29.1718 18.4232 29.0385C18.7339 28.9051 18.9994 28.6792 19.1862 28.3894C19.3731 28.0997 19.4728 27.759 19.4728 27.4104C19.4728 26.9431 19.2936 26.4949 18.9748 26.1644C18.6559 25.8339 18.2235 25.6483 17.7725 25.6483ZM17.7725 27.9978C17.6604 27.9978 17.5509 27.9634 17.4577 27.8988C17.3644 27.8343 17.2918 27.7425 17.2489 27.6352C17.206 27.5279 17.1948 27.4098 17.2167 27.2958C17.2385 27.1819 17.2925 27.0772 17.3718 26.9951C17.451 26.9129 17.552 26.857 17.662 26.8343C17.7719 26.8117 17.8858 26.8233 17.9894 26.8678C18.093 26.9122 18.1815 26.9875 18.2438 27.0841C18.306 27.1807 18.3393 27.2943 18.3393 27.4104C18.3393 27.5662 18.2796 27.7156 18.1733 27.8258C18.067 27.9359 17.9228 27.9978 17.7725 27.9978Z" fill="#787878"/>
<path d="M6.5787 3.66257L13.8047 17.513V27.4104C13.809 28.4101 14.1645 29.3739 14.8048 30.1216C15.445 30.8692 16.3262 31.3496 17.2834 31.4727C18.2406 31.5958 19.2083 31.3532 20.0055 30.7904C20.8026 30.2276 21.3747 29.3831 21.6145 28.4148L32.7795 22.0535L32.2127 21.0197L21.7392 27.0169C21.707 26.7095 21.6444 26.4064 21.5522 26.1123L30.5352 20.8729C30.6658 20.7964 30.7618 20.6693 30.8021 20.5196C30.8425 20.3698 30.8239 20.2096 30.7505 20.074L25.6498 10.6759L20.5491 1.2778C20.4752 1.14244 20.3527 1.04294 20.2082 1.0011C20.0637 0.95926 19.9091 0.978497 19.7783 1.05459L16.6101 2.89897H16.5591L15.8167 3.34538L10.716 6.32341C10.5854 6.39991 10.4894 6.52696 10.449 6.6767C10.4086 6.82644 10.4272 6.98666 10.5006 7.12225L15.6013 16.5204L19.4722 23.6982C19.0486 23.479 18.5892 23.3436 18.1177 23.2988L7.57051 3.10456C7.32824 2.64063 6.96987 2.2529 6.53306 1.9821C6.09626 1.7113 5.59714 1.56743 5.08815 1.56561H0.769531V2.74038H5.08815C5.39362 2.74114 5.69325 2.82719 5.95554 2.98946C6.21783 3.15174 6.4331 3.38426 6.5787 3.66257ZM14.9382 19.6863L16.8765 23.4104C16.1392 23.5853 15.4663 23.9769 14.9382 24.5381V19.6863ZM17.772 30.3473C17.2115 30.3473 16.6636 30.1751 16.1976 29.8524C15.7316 29.5297 15.3684 29.071 15.1539 28.5343C14.9395 27.9977 14.8833 27.4072 14.9927 26.8375C15.102 26.2678 15.3719 25.7445 15.7682 25.3337C16.1645 24.923 16.6695 24.6433 17.2191 24.5299C17.7688 24.4166 18.3386 24.4748 18.8564 24.6971C19.3742 24.9194 19.8168 25.2958 20.1282 25.7788C20.4395 26.2617 20.6057 26.8296 20.6057 27.4104C20.6057 28.1893 20.3072 28.9364 19.7757 29.4871C19.2443 30.0379 18.5235 30.3473 17.772 30.3473ZM22.5667 15.1518L21.0988 16.0328L20.2487 14.488L21.4728 13.7538L21.7222 13.6069L22.5667 15.1518ZM17.4659 5.75365L15.9981 6.63472L15.1479 5.08991L16.3721 4.35568L16.6215 4.20883L17.4659 5.75365ZM14.1505 5.67729L15.284 7.739C15.321 7.80631 15.3705 7.86536 15.4296 7.91275C15.4888 7.96014 15.5564 7.99494 15.6285 8.01514C15.7007 8.03534 15.776 8.04055 15.8501 8.03045C15.9243 8.02036 15.9957 7.99517 16.0604 7.95633L18.5144 6.48788C18.5811 6.45051 18.6398 6.39968 18.6872 6.33837C18.7345 6.27707 18.7696 6.20655 18.7902 6.13098C18.8108 6.0554 18.8165 5.97632 18.8071 5.89839C18.7978 5.82046 18.7734 5.74528 18.7355 5.67729L17.602 3.65669L19.8179 2.36445L24.3519 10.7405L21.6769 12.2971H21.6259L20.8834 12.7435L20.3167 13.0783L16.2758 15.4278L11.7418 7.05176L14.1505 5.67729ZM19.2512 15.0754L20.3847 17.1371C20.4217 17.2044 20.4712 17.2635 20.5304 17.3109C20.5895 17.3583 20.6571 17.3931 20.7293 17.4133C20.8014 17.4335 20.8768 17.4387 20.9509 17.4286C21.025 17.4185 21.0965 17.3933 21.1611 17.3544L23.6152 15.886C23.6818 15.8486 23.7405 15.7978 23.7879 15.7365C23.8353 15.6752 23.8703 15.6047 23.8909 15.5291C23.9115 15.4535 23.9173 15.3744 23.9079 15.2965C23.8985 15.2186 23.8741 15.1434 23.8362 15.0754L22.7027 13.0548L24.9187 11.7626L29.4527 20.1386L21.3708 24.8377L16.8368 16.4616L19.2512 15.0754Z" fill="#787878"/>
</svg>
