<svg width="186" height="124" viewBox="0 0 186 124" fill="none" xmlns="http://www.w3.org/2000/svg">
<rect x="1.5" y="1.5" width="183" height="121" rx="13.5" stroke="#FF367F" stroke-width="3"/>
<path d="M78.6628 51.1028C75.1124 47.5525 75.1124 41.7913 78.6628 38.241L97.241 19.6628C100.791 16.1124 106.552 16.1124 110.103 19.6628C113.653 23.2131 113.653 28.9743 110.103 32.5246L91.5246 51.1028C87.9742 54.6532 82.2131 54.6532 78.6628 51.1028ZM90.0955 29.6664L100.099 39.6701L108.674 31.0955C111.457 28.3122 111.457 23.8752 108.674 21.0919C105.89 18.3085 101.453 18.3085 98.6701 21.0919L90.0955 29.6664ZM103.225 32.1004C102.913 31.7106 102.954 31.0838 103.315 30.7382L104.744 29.3092C105.538 28.5147 106.025 27.6801 106.15 26.9869C106.276 26.2936 106.157 25.7208 105.458 25.0219C105.075 24.6497 105.071 23.9602 105.448 23.5826C105.826 23.2051 106.515 23.21 106.887 23.5928C107.97 24.6753 108.369 26.0699 108.138 27.3442C107.906 28.6184 107.16 29.7514 106.173 30.7383L104.744 32.1674C104.347 32.5815 103.584 32.5478 103.225 32.1004H103.225Z" fill="#FF367F"/>
<path d="M30.1311 75.94H34.1711C35.2511 75.94 36.7911 76.6 36.7911 77.86C36.7911 79.18 35.2511 79.54 34.1711 79.54H30.1311V75.94ZM30.1311 70.4H34.1711C35.8511 70.4 36.3711 71.48 36.3711 72.12C36.3711 72.92 35.8311 73.62 34.1711 73.62H30.1311V70.4ZM34.1711 68C31.9511 68 29.7311 68 27.5311 68V82C29.7511 82 31.9511 82 34.1711 82C37.0711 82 39.4111 81 39.4111 77.88C39.4111 77 38.8111 75.26 37.1711 74.76C38.4711 74.18 38.9911 73.14 38.9911 72.06C38.9911 69.24 36.9311 68 34.1711 68ZM51.167 77.94C51.547 73.88 49.487 71.84 46.187 71.84C42.987 71.84 40.947 74 40.947 77C40.947 80.16 42.967 82.26 46.367 82.26C47.867 82.26 49.567 81.74 50.607 80.66L49.047 79.12C48.487 79.7 47.307 80.04 46.407 80.04C44.687 80.04 43.627 79.16 43.467 77.94H51.167ZM43.507 75.92C43.867 74.64 44.947 74 46.267 74C47.667 74 48.667 74.64 48.827 75.92H43.507ZM62.9081 82V76.82C62.9081 73.72 61.0481 71.98 58.7281 71.98C57.4881 71.98 56.4881 72.48 55.4881 73.46L55.3281 72.12H53.1481V82H55.5681V76.96C55.5681 75.46 56.5881 74.2 58.0881 74.2C59.6481 74.2 60.4681 75.34 60.4681 76.84V82H62.9081ZM75.0538 77.94C75.4338 73.88 73.3738 71.84 70.0738 71.84C66.8738 71.84 64.8338 74 64.8338 77C64.8338 80.16 66.8538 82.26 70.2538 82.26C71.7538 82.26 73.4538 81.74 74.4938 80.66L72.9338 79.12C72.3738 79.7 71.1938 80.04 70.2938 80.04C68.5738 80.04 67.5138 79.16 67.3538 77.94H75.0538ZM67.3938 75.92C67.7538 74.64 68.8338 74 70.1538 74C71.5538 74 72.5538 74.64 72.7138 75.92H67.3938ZM80.4748 82V74.42H83.3748V72.28H80.4748V71.62C80.4748 70.42 81.1148 69.86 81.9548 69.86C82.4548 69.86 82.9348 70.04 83.4548 70.38L84.3548 68.56C83.5548 68.04 82.6548 67.76 81.7948 67.76C79.8148 67.76 78.0348 68.98 78.0348 71.62V72.28H76.1948V74.42H78.0348V82H80.4748ZM88.5236 68.04H85.9036L85.0636 70.88V71H87.0436L88.5236 68.14V68.04ZM85.0036 82V72.48H87.5636V82H85.0036ZM97.0189 79.14C96.4189 79.74 95.6389 79.96 94.8589 79.96C93.3389 79.96 92.0589 78.96 92.0589 77.08C92.0589 75.36 93.2589 74.16 94.8989 74.16C95.5789 74.16 96.2989 74.42 96.8789 74.94L98.4189 73.32C97.3389 72.26 96.2589 71.86 94.8589 71.86C91.9989 71.86 89.6189 73.58 89.6189 77.08C89.6189 80.58 91.9989 82.3 94.8589 82.3C96.3189 82.3 97.5189 81.86 98.6589 80.74L97.0189 79.14ZM102.756 72.1V82H100.316V72.1H102.756ZM100.096 69.36C100.096 71.26 102.976 71.26 102.976 69.36C102.976 67.46 100.096 67.46 100.096 69.36ZM109.894 71.94C106.754 71.94 104.794 74.26 104.794 77.08C104.794 79.92 106.714 82.22 109.914 82.22C113.114 82.22 115.054 79.92 115.054 77.08C115.054 74.26 113.034 71.94 109.894 71.94ZM109.914 74.16C111.554 74.16 112.594 75.6 112.594 77.08C112.594 78.58 111.694 79.98 109.914 79.98C108.134 79.98 107.234 78.58 107.234 77.08C107.234 75.6 108.154 74.16 109.914 74.16ZM124.653 73.16C123.513 72.16 122.353 71.86 120.813 71.86C119.013 71.86 116.653 72.66 116.653 74.94C116.653 77.18 118.873 77.86 120.733 78C122.133 78.08 122.693 78.46 122.693 79.14C122.693 79.86 121.833 80.24 120.913 80.22C119.813 80.2 118.453 79.82 117.513 78.84L116.313 80.58C117.753 82.08 119.313 82.34 120.873 82.34C123.693 82.34 125.113 80.84 125.113 79.1C125.113 76.48 122.753 76.06 120.893 75.94C119.633 75.86 119.053 75.5 119.053 74.86C119.053 74.24 119.693 73.88 120.853 73.88C121.793 73.88 122.593 74.1 123.293 74.76L124.653 73.16ZM141.519 77.94C141.899 73.88 139.839 71.84 136.539 71.84C133.339 71.84 131.299 74 131.299 77C131.299 80.16 133.319 82.26 136.719 82.26C138.219 82.26 139.919 81.74 140.959 80.66L139.399 79.12C138.839 79.7 137.659 80.04 136.759 80.04C135.039 80.04 133.979 79.16 133.819 77.94H141.519ZM133.859 75.92C134.219 74.64 135.299 74 136.619 74C138.019 74 139.019 74.64 139.179 75.92H133.859ZM152.5 82V76.72C152.5 75.42 153.32 74.28 154.64 74.28C155.96 74.28 156.5 75.38 156.5 76.68V82H158.94V76.68C158.94 73.72 157.56 72 154.76 72C153.48 72 152.34 72.4 151.46 73.8C150.9 72.44 149.72 71.96 148.54 71.96C147.6 71.96 146.46 72.32 145.94 73.32L145.76 72.12H143.5V82H145.94V76.72C145.94 75.42 146.72 74.24 148.04 74.24C149.38 74.24 150.06 75.42 150.06 76.72V82H152.5ZM32.4997 100V94.72C32.4997 93.42 33.3197 92.28 34.6397 92.28C35.9597 92.28 36.4997 93.38 36.4997 94.68V100H38.9397V94.68C38.9397 91.72 37.5597 90 34.7597 90C33.4797 90 32.3397 90.4 31.4597 91.8C30.8997 90.44 29.7197 89.96 28.5397 89.96C27.5997 89.96 26.4597 90.32 25.9397 91.32L25.7597 90.12H23.4997V100H25.9397V94.72C25.9397 93.42 26.7197 92.24 28.0397 92.24C29.3797 92.24 30.0597 93.42 30.0597 94.72V100H32.4997ZM51.0889 95.94C51.4689 91.88 49.4089 89.84 46.1089 89.84C42.9089 89.84 40.8689 92 40.8689 95C40.8689 98.16 42.8889 100.26 46.2889 100.26C47.7889 100.26 49.4889 99.74 50.5289 98.66L48.9689 97.12C48.4089 97.7 47.2289 98.04 46.3289 98.04C44.6089 98.04 43.5489 97.16 43.3889 95.94H51.0889ZM43.4289 93.92C43.7889 92.64 44.8689 92 46.1889 92C47.5889 92 48.5889 92.64 48.7489 93.92H43.4289ZM57.73 92.18C59.27 92.18 60.59 93.34 60.59 95.06C60.59 96.84 59.27 97.96 57.73 97.96C56.17 97.96 54.93 96.78 54.93 95.06C54.93 93.28 56.17 92.18 57.73 92.18ZM60.75 86.02V91.48C60.17 90.46 58.55 89.9 57.51 89.9C54.63 89.9 52.49 91.66 52.49 95.06C52.49 98.3 54.67 100.22 57.57 100.22C58.77 100.22 59.99 99.82 60.75 98.64L60.91 100H63.19V86.02H60.75ZM68.2639 90.1V100H65.8239V90.1H68.2639ZM65.6039 87.36C65.6039 89.26 68.4839 89.26 68.4839 87.36C68.4839 85.46 65.6039 85.46 65.6039 87.36ZM77.722 97.14C77.122 97.74 76.342 97.96 75.562 97.96C74.042 97.96 72.762 96.96 72.762 95.08C72.762 93.36 73.962 92.16 75.602 92.16C76.282 92.16 77.002 92.42 77.582 92.94L79.122 91.32C78.042 90.26 76.962 89.86 75.562 89.86C72.702 89.86 70.322 91.58 70.322 95.08C70.322 98.58 72.702 100.3 75.562 100.3C77.022 100.3 78.222 99.86 79.362 98.74L77.722 97.14ZM88.4653 91.5C87.9053 90.52 86.6453 89.9 85.3253 89.9C82.4453 89.88 80.1853 91.66 80.1853 95.06C80.1853 98.52 82.3453 100.32 85.2653 100.3C86.3653 100.28 87.9053 99.72 88.4653 98.56L88.5853 100H90.8853V90.14H88.5453L88.4653 91.5ZM85.5453 92.08C89.3853 92.08 89.3853 98.06 85.5453 98.06C83.9253 98.06 82.6253 96.94 82.6253 95.06C82.6253 93.18 83.9253 92.08 85.5453 92.08ZM102.519 100V94.72C102.519 93.42 103.339 92.28 104.659 92.28C105.979 92.28 106.519 93.38 106.519 94.68V100H108.959V94.68C108.959 91.72 107.579 90 104.779 90C103.499 90 102.359 90.4 101.479 91.8C100.919 90.44 99.7392 89.96 98.5592 89.96C97.6192 89.96 96.4792 90.32 95.9592 91.32L95.7792 90.12H93.5192V100H95.9592V94.72C95.9592 93.42 96.7392 92.24 98.0592 92.24C99.3992 92.24 100.079 93.42 100.079 94.72V100H102.519ZM121.108 95.94C121.488 91.88 119.428 89.84 116.128 89.84C112.928 89.84 110.888 92 110.888 95C110.888 98.16 112.908 100.26 116.308 100.26C117.808 100.26 119.508 99.74 120.548 98.66L118.988 97.12C118.428 97.7 117.248 98.04 116.348 98.04C114.628 98.04 113.568 97.16 113.408 95.94H121.108ZM113.448 93.92C113.808 92.64 114.888 92 116.208 92C117.608 92 118.608 92.64 118.768 93.92H113.448ZM132.85 100V94.82C132.85 91.72 130.99 89.98 128.67 89.98C127.43 89.98 126.43 90.48 125.43 91.46L125.27 90.12H123.09V100H125.51V94.96C125.51 93.46 126.53 92.2 128.03 92.2C129.59 92.2 130.41 93.34 130.41 94.84V100H132.85ZM136.299 87.62V90.16H134.459V92.26H136.299V96.52C136.299 98.98 137.699 100.2 139.839 100.12C140.579 100.1 141.159 99.98 141.859 99.7L141.179 97.62C140.819 97.8 140.379 97.92 139.999 97.92C139.239 97.92 138.719 97.46 138.719 96.52V92.26H141.459V90.16H138.739V87.36L136.299 87.62ZM148 89.94C144.86 89.94 142.9 92.26 142.9 95.08C142.9 97.92 144.82 100.22 148.02 100.22C151.22 100.22 153.16 97.92 153.16 95.08C153.16 92.26 151.14 89.94 148 89.94ZM148.02 92.16C149.66 92.16 150.7 93.6 150.7 95.08C150.7 96.58 149.8 97.98 148.02 97.98C146.24 97.98 145.34 96.58 145.34 95.08C145.34 93.6 146.26 92.16 148.02 92.16ZM162.759 91.16C161.619 90.16 160.459 89.86 158.919 89.86C157.119 89.86 154.759 90.66 154.759 92.94C154.759 95.18 156.979 95.86 158.839 96C160.239 96.08 160.799 96.46 160.799 97.14C160.799 97.86 159.939 98.24 159.019 98.22C157.919 98.2 156.559 97.82 155.619 96.84L154.419 98.58C155.859 100.08 157.419 100.34 158.979 100.34C161.799 100.34 163.219 98.84 163.219 97.1C163.219 94.48 160.859 94.06 158.999 93.94C157.739 93.86 157.159 93.5 157.159 92.86C157.159 92.24 157.799 91.88 158.959 91.88C159.899 91.88 160.699 92.1 161.399 92.76L162.759 91.16Z" fill="#FF367F"/>
</svg>
