<svg id="Layer_1" data-name="Layer 1" xmlns="http://www.w3.org/2000/svg" xmlns:xlink="http://www.w3.org/1999/xlink" viewBox="0 0 128 128"><defs><style>.cls-1,.cls-2,.cls-3{fill:#8a9297;}.cls-1{clip-rule:evenodd;}.cls-3{fill-rule:evenodd;}.cls-4{clip-path:url(#clip-path);}.cls-5{clip-path:url(#clip-path-2);}.cls-6{clip-path:url(#clip-path-3);}.cls-7{clip-path:url(#clip-path-4);}.cls-8{clip-path:url(#clip-path-5);}.cls-9{clip-path:url(#clip-path-6);}.cls-10{clip-path:url(#clip-path-7);}.cls-11{clip-path:url(#clip-path-8);}.cls-12{clip-path:url(#clip-path-9);}.cls-13{clip-path:url(#clip-path-10);}.cls-14{clip-path:url(#clip-path-11);}.cls-15{clip-path:url(#clip-path-12);}.cls-16{clip-path:url(#clip-path-13);}.cls-17{clip-path:url(#clip-path-14);}.cls-18{clip-path:url(#clip-path-15);}.cls-19{clip-path:url(#clip-path-16);}.cls-20{clip-path:url(#clip-path-17);}.cls-21{clip-path:url(#clip-path-18);}.cls-22{clip-path:url(#clip-path-19);}.cls-23{clip-path:url(#clip-path-20);}.cls-24{clip-path:url(#clip-path-21);}.cls-25{clip-path:url(#clip-path-22);}.cls-26{clip-path:url(#clip-path-23);}.cls-27{clip-path:url(#clip-path-24);}.cls-28{clip-path:url(#clip-path-25);}.cls-29{clip-path:url(#clip-path-26);}.cls-30{clip-path:url(#clip-path-27);}.cls-31{clip-path:url(#clip-path-28);}.cls-32{clip-path:url(#clip-path-29);}</style><clipPath id="clip-path"><path class="cls-1" d="M760.43,115.16h-.16l-11-.92a1.87,1.87,0,0,1-1.72-1.87V68a6.45,6.45,0,0,0-1.71-4.92,6.64,6.64,0,0,0-4.5-1.45h-.17l-47.55-.53v46.91a1.88,1.88,0,0,1-2,1.87l-9.25-.73a1.9,1.9,0,0,1-1.74-1.89c0-.3.28-29.77.22-36.75a14.77,14.77,0,0,1,3.35-9.34h-5.9A3.56,3.56,0,0,1,675,58.57a1.77,1.77,0,0,1-.08-.56V51.92c0-3.06,1.89-4.32,3-4.58a1.92,1.92,0,0,1,.41-.05l67.22-.92.26,0c15.86,2,16.65,15.93,16.66,16.07v.09l-.18,50.73a1.85,1.85,0,0,1-.61,1.38A1.88,1.88,0,0,1,760.43,115.16Zm-9.11-4.53,7.23.6.18-48.64c-.05-.78-1-10.83-13.25-12.45l-66.6.91a1.54,1.54,0,0,0-.18.87v5.53h10.11a1.87,1.87,0,0,1,1.43.66l.18-.2a1.85,1.85,0,0,1,1.35-.55l49.38.55a10.37,10.37,0,0,1,7.22,2.42c2,1.79,3,4.38,3,7.71Zm-66.93-5,5.47.43V60.9h0c-.05,0-5.32,3.68-5.27,9.62S684.45,99.1,684.39,105.59Z"/></clipPath><clipPath id="clip-path-2"><path class="cls-1" d="M765.55,111.69h-3.77V62.07c-.09-1-1.31-11.3-12-12.12L750,46.2c11.42.87,15.13,10.62,15.5,15.65v49.84Z"/></clipPath><clipPath id="clip-path-3"><path class="cls-1" d="M685.94,44.15a1.88,1.88,0,0,1-1.88-1.87l-.12-19.84a1.87,1.87,0,0,1,1.82-1.89l9.65-.31h.09l3.42.06a1.89,1.89,0,1,1-.07,3.77L695.48,24l-7.76.24.11,18A1.88,1.88,0,0,1,686,44.15Z"/></clipPath><clipPath id="clip-path-4"><path class="cls-1" d="M701.58,37.07h-.46A5,5,0,0,1,697,35.31a4.52,4.52,0,0,1-.8-3.49l.83-9.68c-.07-2.54.62-4.44,2.07-5.65a6.06,6.06,0,0,1,4.7-1.2l41.84-2,.23,0c2.51.51,4.26,1.53,5.19,3a4.38,4.38,0,0,1,.64,3.1c-.11,1.42-.78,9.74-1.45,12.36a5.74,5.74,0,0,1-4.77,4.33h-.18c-1.59,0-37.92.92-43.69.92M702.78,19a2,2,0,0,0-1.31.39,3.61,3.61,0,0,0-.7,2.73v.12l-.91,10.28a.92.92,0,0,0,.08.5,1.87,1.87,0,0,0,1.24.3c3.65.07,41.35-.85,43.87-.91a2,2,0,0,0,1.53-1.52c.52-2,1.15-9.23,1.35-11.83l0-.31c0-.55-.81-1.27-2.65-1.68l-41.83,2-.23-.05a4.69,4.69,0,0,0-.48,0"/></clipPath><clipPath id="clip-path-5"><path class="cls-1" d="M738.26,22.17a1.15,1.15,0,0,0-.93-.27,1.68,1.68,0,0,0-1,.4,2.13,2.13,0,0,0-.61,1.24s0,.1,0,.17l2-.06c.51,0,.79-.16.86-.61a1,1,0,0,0-.2-.87m1.83,1a1.43,1.43,0,0,1-.61,1.07,2.62,2.62,0,0,1-1.42.41,9.83,9.83,0,0,1-1.86,0c-.38-.08-.51-.66-.56-.82a3.89,3.89,0,0,0-.08,1.09,1.17,1.17,0,0,0,.5,1,2.16,2.16,0,0,0,1.22.24c.32,0,.66,0,1-.07s.53-.07.81-.12h0c.06,0,.14,0,.12.12l-.1.82c0,.06,0,.1-.11.14a8.22,8.22,0,0,1-1.06.25,8.42,8.42,0,0,1-1.08.11,4.64,4.64,0,0,1-1.53-.16,2,2,0,0,1-1-.58,2.16,2.16,0,0,1-.46-1,4.76,4.76,0,0,1,0-1.37l0-.4a3.89,3.89,0,0,1,1-2.33,3.62,3.62,0,0,1,2.51-.92,2.53,2.53,0,0,1,2.07.63,2.36,2.36,0,0,1,.47,1.93m-22.44-1.74-4.45.17c-.29,0-.39.2-.43.49s-.08.58-.11.82.09.32.3.31l.38,0,1.4-.05c.12,0,0,0,0,.05a2.36,2.36,0,0,0-1.28,1.9c0,.21-.34,2.66-.34,2.66a.88.88,0,0,0,0,.16c0,.23.14.28.23.28l.9,0h.08c.35,0,.44-.11.49-.47s.54-4.28.57-4.56l1-.05c.48,0,1.06-.07,1.33.26s.22.71.16,1.26c0,0-.38,3-.38,3s0,.11,0,.16c0,.23.14.28.23.28l.89,0h.08c.35,0,.45-.11.49-.47,0-.12.48-3.76.51-4a1.87,1.87,0,0,0-2.08-2.07m25.06-.34c0-.24,0-.65-.48-.63l-.81,0a.41.41,0,0,0-.39.35l-.73,5.89c-.06.32.05.44.21.43l1.17,0a.35.35,0,0,0,.32-.29l.09-.7s.24-1.92.43-3.51a.3.3,0,0,0-.34-.36l-.95,0h-.11s0,0,0,0c.51-.1,1.49-.54,1.57-1.2m-20.64,1.93-1,0H721c.51-.09,1.48-.53,1.56-1.19,0-.24,0-.66-.47-.64l-.81,0a.42.42,0,0,0-.4.36l-.73,5.88c-.05.32.06.44.22.44l1.17-.05a.33.33,0,0,0,.31-.29l.1-.7s.23-1.91.43-3.5a.31.31,0,0,0-.35-.37M733.38,21a3.67,3.67,0,0,0-.9-.18,9.6,9.6,0,0,0-1.08,0,3.86,3.86,0,0,0-1,.15,2.35,2.35,0,0,0-.8.36,1.89,1.89,0,0,0-.56.6,2.24,2.24,0,0,0-.29.86A1.49,1.49,0,0,0,729,23.9a2.47,2.47,0,0,0,1.05.69l1,.38a1.75,1.75,0,0,1,.46.26.46.46,0,0,1,.14.43.62.62,0,0,1-.31.49,1.66,1.66,0,0,1-.75.17h-1.05a8.22,8.22,0,0,1-1-.06h0a.1.1,0,0,0-.12.09v0l-.12.93c0,.1,0,.16.13.17.35.07.73.13,1.12.17a12.24,12.24,0,0,0,1.23,0,3.24,3.24,0,0,0,1.84-.57,2,2,0,0,0,.83-1.43,1.56,1.56,0,0,0-.24-1.14,2.2,2.2,0,0,0-1-.72l-1-.41a2.35,2.35,0,0,1-.45-.22.41.41,0,0,1-.15-.42.55.55,0,0,1,.31-.47,1.83,1.83,0,0,1,.69-.13h.88a8.09,8.09,0,0,1,.86.07h.07a.12.12,0,0,0,.09-.09c0-.06,0,0,0,0l.11-.92c0-.12-.07-.16-.14-.18M728,22.36a.12.12,0,0,1-.1.09s0,0,0,0,0,0-.06,0c-.28,0-.57-.05-.86-.06s-.59,0-.88,0a1.69,1.69,0,0,0-.69.13.55.55,0,0,0-.31.47.4.4,0,0,0,.15.41,2.29,2.29,0,0,0,.45.23l1,.4a2.16,2.16,0,0,1,1,.73,1.5,1.5,0,0,1,.24,1.13,2,2,0,0,1-.82,1.44,3.3,3.3,0,0,1-1.85.56,8.25,8.25,0,0,1-1.23,0,9.74,9.74,0,0,1-1.12-.16.14.14,0,0,1-.13-.18l.12-.93s0,0,0,0a.09.09,0,0,1,.11-.09h0c.31,0,.66.05,1,.06s.73,0,1,0a1.76,1.76,0,0,0,.76-.16.63.63,0,0,0,.3-.49.44.44,0,0,0-.14-.43,1.51,1.51,0,0,0-.46-.27l-1-.38a2.4,2.4,0,0,1-1-.69,1.38,1.38,0,0,1-.25-1.11,2.08,2.08,0,0,1,.28-.86,2,2,0,0,1,.56-.6,2.68,2.68,0,0,1,.8-.37,5.14,5.14,0,0,1,1-.15,9.6,9.6,0,0,1,1.08,0,4.76,4.76,0,0,1,.9.18c.07,0,.16.06.15.18l-.12.93s0,0,0,0"/></clipPath><clipPath id="clip-path-6"><path class="cls-1" d="M722.87,30.36c-.36,0-.45.12-.46.25s0,.15.17.14l.24,0Zm-.35.63c-.31,0-.46-.11-.42-.36s.27-.45.8-.51h0v0a.38.38,0,0,0,0-.18s-.07-.06-.15-.06a.93.93,0,0,0-.46.18l0,0,0-.29h0a1.22,1.22,0,0,1,.54-.16c.2,0,.32.05.37.16a.62.62,0,0,1,0,.31l-.11.84H723Z"/></clipPath><clipPath id="clip-path-7"><path class="cls-1" d="M723.68,29.4l0-.34h.35l-.05.34Zm-.19,1.53.17-1.33H724l-.18,1.33Z"/></clipPath><clipPath id="clip-path-8"><path class="cls-1" d="M724.53,30.93a.92.92,0,0,1-.36-.07h0l0-.33,0,0a.43.43,0,0,0,.32.1.23.23,0,0,0,.24-.14.13.13,0,0,0-.07-.12.66.66,0,0,0-.17-.08c-.24-.11-.31-.21-.29-.38a.54.54,0,0,1,.57-.42.76.76,0,0,1,.34.06h0l0,.3,0,0a.43.43,0,0,0-.29-.08c-.13,0-.22.05-.23.13s0,.09.2.17a.57.57,0,0,1,.24.15.27.27,0,0,1,.08.26.57.57,0,0,1-.59.43"/></clipPath><clipPath id="clip-path-9"><path class="cls-1" d="M726.87,29.71a.5.5,0,0,0-.54.46c0,.27.09.41.37.4a.64.64,0,0,0,.2,0l.11-.82Zm-.09,1.75.09-.67a.77.77,0,0,1-.25,0c-.44,0-.68-.22-.62-.63a.88.88,0,0,1,.94-.75l.4,0h0l-.26,2Z"/></clipPath><clipPath id="clip-path-10"><path class="cls-1" d="M728.17,30.77a.6.6,0,0,1-.44-.11c-.09-.07-.11-.18-.08-.39l.11-.83h.32l-.1.81c0,.22,0,.28.26.27a.91.91,0,0,0,.23,0l.14-1.07h.33l-.17,1.28h0a3.37,3.37,0,0,1-.57.08"/></clipPath><clipPath id="clip-path-11"><path class="cls-1" d="M730.17,29.82c0-.16-.09-.23-.26-.23a.4.4,0,0,0-.36.26Zm-.38.9c-.44,0-.67-.22-.62-.64a.81.81,0,0,1,.78-.74.49.49,0,0,1,.47.21.58.58,0,0,1,.05.41v.09l-1,0v0c0,.23.12.36.38.35a.74.74,0,0,0,.46-.16l.05,0,0,.29h0A1,1,0,0,1,729.79,30.72Z"/></clipPath><clipPath id="clip-path-12"><path class="cls-1" d="M731.38,30.63l.14-1.05h-.22l0-.25h.22v0a.79.79,0,0,1,.26-.57.77.77,0,0,1,.43-.17h.17l0,.25h-.14a.34.34,0,0,0-.23.11.54.54,0,0,0-.12.36v0h.35l0,.24h-.35l-.14,1.06Z"/></clipPath><clipPath id="clip-path-13"><path class="cls-1" d="M733,30c-.37.05-.45.13-.46.25s0,.15.17.14l.24,0Zm-.35.63q-.48,0-.42-.36c0-.3.27-.44.8-.51h0c0-.12,0-.16,0-.19s-.06-.06-.14-.05a.8.8,0,0,0-.46.17l-.05,0,0-.3h0a1.32,1.32,0,0,1,.54-.16c.2,0,.32.05.37.16a.81.81,0,0,1,0,.32l-.11.83h-.07A4.48,4.48,0,0,1,732.69,30.6Z"/></clipPath><clipPath id="clip-path-14"><path class="cls-1" d="M733.66,30.54l.16-1.24h0a1.87,1.87,0,0,1,.57-.12.63.63,0,0,1,.24,0h0l0,.27,0,0a.71.71,0,0,0-.21,0l-.26.06L734,30.53Z"/></clipPath><clipPath id="clip-path-15"><path class="cls-1" d="M736.4,30.44l.11-.84c0-.19,0-.26-.22-.25a.79.79,0,0,0-.25,0,.47.47,0,0,1,0,.2l-.11.86h-.32l.11-.84c0-.19,0-.26-.24-.25a1.32,1.32,0,0,0-.26.05l-.14,1.06h-.32l.16-1.26h0a2,2,0,0,1,.6-.11.62.62,0,0,1,.37.07,1.08,1.08,0,0,1,.45-.1.48.48,0,0,1,.41.12.4.4,0,0,1,.07.35l-.12.86Z"/></clipPath><clipPath id="clip-path-16"><path class="cls-1" d="M721.35,31l.11-.83c0-.19,0-.26-.22-.26A.77.77,0,0,0,721,30a1.49,1.49,0,0,1,0,.19l-.11.86h-.33l.11-.83c0-.2,0-.26-.24-.25a.73.73,0,0,0-.25,0L720,31.06h-.33l.17-1.25h0a2.39,2.39,0,0,1,.61-.11.66.66,0,0,1,.36.07,1.52,1.52,0,0,1,.46-.1.5.5,0,0,1,.41.13.36.36,0,0,1,.06.34l-.11.86Z"/></clipPath><clipPath id="clip-path-17"><path class="cls-1" d="M737.6,28.91l.57-.59.3,0-.64.6Zm.26.88c-.36,0-.45.12-.46.24s0,.15.17.15a.9.9,0,0,0,.24,0Zm-.35.63q-.46,0-.42-.36c0-.3.27-.45.8-.51h0v0a.38.38,0,0,0,0-.18s-.07-.06-.15-.06a.93.93,0,0,0-.46.18l0,0,0-.29h0a1.22,1.22,0,0,1,.55-.16c.19,0,.31,0,.36.16a.52.52,0,0,1,0,.31l-.11.83-.07,0Z"/></clipPath><clipPath id="clip-path-18"><path class="cls-1" d="M739.1,30.36c-.44,0-.69-.23-.63-.64a.85.85,0,0,1,1.18-.67h0l0,.3,0,0a.37.37,0,0,0-.29-.08.48.48,0,0,0-.49.45c0,.28.1.43.37.42a.7.7,0,0,0,.34-.12l0,0,0,.28h0a1,1,0,0,1-.41.11"/></clipPath><clipPath id="clip-path-19"><path class="cls-1" d="M740,28.78l0-.34h.34l-.05.33Zm-.19,1.53L740,29l.32,0-.17,1.34Z"/></clipPath><clipPath id="clip-path-20"><path class="cls-1" d="M741.25,29.66c-.37,0-.45.12-.46.25s0,.15.17.14l.24,0Zm-.35.63c-.32,0-.46-.11-.43-.36s.28-.45.81-.51h0v0c0-.11,0-.16,0-.18s-.06-.06-.14-.06a.9.9,0,0,0-.46.18l-.06,0,0-.29h0a1.18,1.18,0,0,1,.54-.16c.2,0,.32.05.37.16a.77.77,0,0,1,0,.31l-.11.83-.08,0Z"/></clipPath><clipPath id="clip-path-21"><path class="cls-1" d="M709.68,25.38l-.55,3.11a4.37,4.37,0,0,0,2.8-3.19Z"/></clipPath><clipPath id="clip-path-22"><path class="cls-1" d="M710.06,23.37l1.67-.06a4.08,4.08,0,0,0-1.35-1.74Z"/></clipPath><clipPath id="clip-path-23"><path class="cls-1" d="M707.3,27.16c.13-.51.3-1.37,1.88-1.71.13,0,.12-.05,0-.05l-5.1.19c0-.27.19-1.1.25-1.41.1-.5.36-.6.83-.62l2.78-.11.51-2.77a5.59,5.59,0,0,0-1.49-.14c-2.68.1-4.78,2.05-4.69,4.35s2.14,3.93,4.67,4Z"/></clipPath><clipPath id="clip-path-24"><polygon class="cls-1" points="723.3 110.64 692.76 108.24 693.06 104.49 719.53 106.57 719.44 59.43 723.21 59.42 723.3 110.64"/></clipPath><clipPath id="clip-path-25"><rect class="cls-2" x="733.45" y="95.7" width="3.76" height="27.92" transform="translate(570.52 834.63) rotate(-85.67)"/></clipPath><clipPath id="clip-path-26"><path class="cls-1" d="M727,94a1.88,1.88,0,0,1-1-3.5l1-.61V88l-1.52-1.27a1.88,1.88,0,1,1,2.41-2.89l2.19,1.83a1.89,1.89,0,0,1,.68,1.44v3.85a1.88,1.88,0,0,1-.92,1.62l-2,1.16a1.85,1.85,0,0,1-1,.26"/></clipPath><clipPath id="clip-path-27"><path class="cls-1" d="M715.23,93.43a1.9,1.9,0,0,1-1-.26L712.32,92a1.88,1.88,0,0,1-.92-1.62V86.55a1.89,1.89,0,0,1,.68-1.45l2.19-1.83a1.88,1.88,0,1,1,2.41,2.89l-1.52,1.27v1.89l1,.62a1.87,1.87,0,0,1,.65,2.57,1.85,1.85,0,0,1-1.62.92"/></clipPath><clipPath id="clip-path-28"><path class="cls-2" d="M406.3,484.1H322.78l35.55-33.82a3.29,3.29,0,0,0,0-4.93,3.7,3.7,0,0,0-5.18,0l-42,39.81a3.29,3.29,0,0,0,0,4.93L353,529.9a3.71,3.71,0,0,0,5.19,0,3.29,3.29,0,0,0,0-4.93l-35.37-33.82H406.3a3.53,3.53,0,1,0,0-7Z"/></clipPath><clipPath id="clip-path-29"><path class="cls-2" d="M165.7,484.1h83.52l-35.55-33.82a3.29,3.29,0,0,1,0-4.93,3.7,3.7,0,0,1,5.18,0l42,39.81a3.29,3.29,0,0,1,0,4.93L219,529.9a3.71,3.71,0,0,1-5.19,0,3.29,3.29,0,0,1,0-4.93l35.37-33.82H165.7a3.53,3.53,0,1,1,0-7Z"/></clipPath></defs><title>icons</title><path class="cls-2" d="M3.84,74.52A22.82,22.82,0,0,0,27.17,97.85h5V51.19h-5A22.82,22.82,0,0,0,3.84,74.52ZM22.17,87c-5.08-1.82-8.33-6.45-8.33-12.5S17.09,63.84,22.17,62Z"/><path class="cls-2" d="M100.48,51.19h-5V97.85h5c13.3,0,23.32-10,23.32-23.33S113.78,51.19,100.48,51.19Zm5,35.83V62c5.07,1.81,8.32,6.45,8.32,12.49S110.55,85.2,105.48,87Z"/><path class="cls-2" d="M104.14,106.18H91.66a12.33,12.33,0,1,0,0,10h12.45a12.06,12.06,0,0,0,12.33-12.33h-10A2.16,2.16,0,0,1,104.14,106.18Zm-23.73,7.36a2.33,2.33,0,1,1,2.33-2.33A2.33,2.33,0,0,1,80.41,113.54Z"/><path class="cls-2" d="M95.48,45.22h10a41.66,41.66,0,1,0-83.31,0h10a31.66,31.66,0,1,1,63.31,0Z"/><path class="cls-3" d="M760.43,115.16h-.16l-11-.92a1.87,1.87,0,0,1-1.72-1.87V68a6.45,6.45,0,0,0-1.71-4.92,6.64,6.64,0,0,0-4.5-1.45h-.17l-47.55-.53v46.91a1.88,1.88,0,0,1-2,1.87l-9.25-.73a1.9,1.9,0,0,1-1.74-1.89c0-.3.28-29.77.22-36.75a14.77,14.77,0,0,1,3.35-9.34h-5.9A3.56,3.56,0,0,1,675,58.57a1.77,1.77,0,0,1-.08-.56V51.92c0-3.06,1.89-4.32,3-4.58a1.92,1.92,0,0,1,.41-.05l67.22-.92.26,0c15.86,2,16.65,15.93,16.66,16.07v.09l-.18,50.73a1.85,1.85,0,0,1-.61,1.38A1.88,1.88,0,0,1,760.43,115.16Zm-9.11-4.53,7.23.6.18-48.64c-.05-.78-1-10.83-13.25-12.45l-66.6.91a1.54,1.54,0,0,0-.18.87v5.53h10.11a1.87,1.87,0,0,1,1.43.66l.18-.2a1.85,1.85,0,0,1,1.35-.55l49.38.55a10.37,10.37,0,0,1,7.22,2.42c2,1.79,3,4.38,3,7.71Zm-66.93-5,5.47.43V60.9h0c-.05,0-5.32,3.68-5.27,9.62S684.45,99.1,684.39,105.59Z"/><g class="cls-4"><rect class="cls-2" x="-3822.84" y="-2468.77" width="6348.4" height="5052.27"/></g><path class="cls-3" d="M765.55,111.69h-3.77V62.07c-.09-1-1.31-11.3-12-12.12L750,46.2c11.42.87,15.13,10.62,15.5,15.65v49.84Z"/><g class="cls-5"><rect class="cls-2" x="-3822.84" y="-2468.77" width="6348.4" height="5052.27"/></g><path class="cls-3" d="M685.94,44.15a1.88,1.88,0,0,1-1.88-1.87l-.12-19.84a1.87,1.87,0,0,1,1.82-1.89l9.65-.31h.09l3.42.06a1.89,1.89,0,1,1-.07,3.77L695.48,24l-7.76.24.11,18A1.88,1.88,0,0,1,686,44.15Z"/><g class="cls-6"><rect class="cls-2" x="-3822.84" y="-2468.77" width="6348.4" height="5052.27"/></g><path class="cls-3" d="M701.58,37.07h-.46A5,5,0,0,1,697,35.31a4.52,4.52,0,0,1-.8-3.49l.83-9.68c-.07-2.54.62-4.44,2.07-5.65a6.06,6.06,0,0,1,4.7-1.2l41.84-2,.23,0c2.51.51,4.26,1.53,5.19,3a4.38,4.38,0,0,1,.64,3.1c-.11,1.42-.78,9.74-1.45,12.36a5.74,5.74,0,0,1-4.77,4.33h-.18c-1.59,0-37.92.92-43.69.92M702.78,19a2,2,0,0,0-1.31.39,3.61,3.61,0,0,0-.7,2.73v.12l-.91,10.28a.92.92,0,0,0,.08.5,1.87,1.87,0,0,0,1.24.3c3.65.07,41.35-.85,43.87-.91a2,2,0,0,0,1.53-1.52c.52-2,1.15-9.23,1.35-11.83l0-.31c0-.55-.81-1.27-2.65-1.68l-41.83,2-.23-.05a4.69,4.69,0,0,0-.48,0"/><g class="cls-7"><rect class="cls-2" x="-3822.84" y="-2468.77" width="6348.4" height="5052.27"/></g><path class="cls-3" d="M738.26,22.17a1.15,1.15,0,0,0-.93-.27,1.68,1.68,0,0,0-1,.4,2.13,2.13,0,0,0-.61,1.24s0,.1,0,.17l2-.06c.51,0,.79-.16.86-.61a1,1,0,0,0-.2-.87m1.83,1a1.43,1.43,0,0,1-.61,1.07,2.62,2.62,0,0,1-1.42.41,9.83,9.83,0,0,1-1.86,0c-.38-.08-.51-.66-.56-.82a3.89,3.89,0,0,0-.08,1.09,1.17,1.17,0,0,0,.5,1,2.16,2.16,0,0,0,1.22.24c.32,0,.66,0,1-.07s.53-.07.81-.12h0c.06,0,.14,0,.12.12l-.1.82c0,.06,0,.1-.11.14a8.22,8.22,0,0,1-1.06.25,8.42,8.42,0,0,1-1.08.11,4.64,4.64,0,0,1-1.53-.16,2,2,0,0,1-1-.58,2.16,2.16,0,0,1-.46-1,4.76,4.76,0,0,1,0-1.37l0-.4a3.89,3.89,0,0,1,1-2.33,3.62,3.62,0,0,1,2.51-.92,2.53,2.53,0,0,1,2.07.63,2.36,2.36,0,0,1,.47,1.93m-22.44-1.74-4.45.17c-.29,0-.39.2-.43.49s-.08.58-.11.82.09.32.3.31l.38,0,1.4-.05c.12,0,0,0,0,.05a2.36,2.36,0,0,0-1.28,1.9c0,.21-.34,2.66-.34,2.66a.88.88,0,0,0,0,.16c0,.23.14.28.23.28l.9,0h.08c.35,0,.44-.11.49-.47s.54-4.28.57-4.56l1-.05c.48,0,1.06-.07,1.33.26s.22.71.16,1.26c0,0-.38,3-.38,3s0,.11,0,.16c0,.23.14.28.23.28l.89,0h.08c.35,0,.45-.11.49-.47,0-.12.48-3.76.51-4a1.87,1.87,0,0,0-2.08-2.07m25.06-.34c0-.24,0-.65-.48-.63l-.81,0a.41.41,0,0,0-.39.35l-.73,5.89c-.06.32.05.44.21.43l1.17,0a.35.35,0,0,0,.32-.29l.09-.7s.24-1.92.43-3.51a.3.3,0,0,0-.34-.36l-.95,0h-.11s0,0,0,0c.51-.1,1.49-.54,1.57-1.2m-20.64,1.93-1,0H721c.51-.09,1.48-.53,1.56-1.19,0-.24,0-.66-.47-.64l-.81,0a.42.42,0,0,0-.4.36l-.73,5.88c-.05.32.06.44.22.44l1.17-.05a.33.33,0,0,0,.31-.29l.1-.7s.23-1.91.43-3.5a.31.31,0,0,0-.35-.37M733.38,21a3.67,3.67,0,0,0-.9-.18,9.6,9.6,0,0,0-1.08,0,3.86,3.86,0,0,0-1,.15,2.35,2.35,0,0,0-.8.36,1.89,1.89,0,0,0-.56.6,2.24,2.24,0,0,0-.29.86A1.49,1.49,0,0,0,729,23.9a2.47,2.47,0,0,0,1.05.69l1,.38a1.75,1.75,0,0,1,.46.26.46.46,0,0,1,.14.43.62.62,0,0,1-.31.49,1.66,1.66,0,0,1-.75.17h-1.05a8.22,8.22,0,0,1-1-.06h0a.1.1,0,0,0-.12.09v0l-.12.93c0,.1,0,.16.13.17.35.07.73.13,1.12.17a12.24,12.24,0,0,0,1.23,0,3.24,3.24,0,0,0,1.84-.57,2,2,0,0,0,.83-1.43,1.56,1.56,0,0,0-.24-1.14,2.2,2.2,0,0,0-1-.72l-1-.41a2.35,2.35,0,0,1-.45-.22.41.41,0,0,1-.15-.42.55.55,0,0,1,.31-.47,1.83,1.83,0,0,1,.69-.13h.88a8.09,8.09,0,0,1,.86.07h.07a.12.12,0,0,0,.09-.09c0-.06,0,0,0,0l.11-.92c0-.12-.07-.16-.14-.18M728,22.36a.12.12,0,0,1-.1.09s0,0,0,0,0,0-.06,0c-.28,0-.57-.05-.86-.06s-.59,0-.88,0a1.69,1.69,0,0,0-.69.13.55.55,0,0,0-.31.47.4.4,0,0,0,.15.41,2.29,2.29,0,0,0,.45.23l1,.4a2.16,2.16,0,0,1,1,.73,1.5,1.5,0,0,1,.24,1.13,2,2,0,0,1-.82,1.44,3.3,3.3,0,0,1-1.85.56,8.25,8.25,0,0,1-1.23,0,9.74,9.74,0,0,1-1.12-.16.14.14,0,0,1-.13-.18l.12-.93s0,0,0,0a.09.09,0,0,1,.11-.09h0c.31,0,.66.05,1,.06s.73,0,1,0a1.76,1.76,0,0,0,.76-.16.63.63,0,0,0,.3-.49.44.44,0,0,0-.14-.43,1.51,1.51,0,0,0-.46-.27l-1-.38a2.4,2.4,0,0,1-1-.69,1.38,1.38,0,0,1-.25-1.11,2.08,2.08,0,0,1,.28-.86,2,2,0,0,1,.56-.6,2.68,2.68,0,0,1,.8-.37,5.14,5.14,0,0,1,1-.15,9.6,9.6,0,0,1,1.08,0,4.76,4.76,0,0,1,.9.18c.07,0,.16.06.15.18l-.12.93s0,0,0,0"/><g class="cls-8"><rect class="cls-2" x="-3822.84" y="-2468.77" width="6348.4" height="5052.27"/></g><path class="cls-3" d="M722.87,30.36c-.36,0-.45.12-.46.25s0,.15.17.14l.24,0Zm-.35.63c-.31,0-.46-.11-.42-.36s.27-.45.8-.51h0v0a.38.38,0,0,0,0-.18s-.07-.06-.15-.06a.93.93,0,0,0-.46.18l0,0,0-.29h0a1.22,1.22,0,0,1,.54-.16c.2,0,.32.05.37.16a.62.62,0,0,1,0,.31l-.11.84H723Z"/><g class="cls-9"><rect class="cls-2" x="-3822.84" y="-2468.77" width="6348.4" height="5052.27"/></g><path class="cls-3" d="M723.68,29.4l0-.34h.35l-.05.34Zm-.19,1.53.17-1.33H724l-.18,1.33Z"/><g class="cls-10"><rect class="cls-2" x="-3822.84" y="-2468.77" width="6348.4" height="5052.27"/></g><path class="cls-3" d="M724.53,30.93a.92.92,0,0,1-.36-.07h0l0-.33,0,0a.43.43,0,0,0,.32.1.23.23,0,0,0,.24-.14.13.13,0,0,0-.07-.12.66.66,0,0,0-.17-.08c-.24-.11-.31-.21-.29-.38a.54.54,0,0,1,.57-.42.76.76,0,0,1,.34.06h0l0,.3,0,0a.43.43,0,0,0-.29-.08c-.13,0-.22.05-.23.13s0,.09.2.17a.57.57,0,0,1,.24.15.27.27,0,0,1,.08.26.57.57,0,0,1-.59.43"/><g class="cls-11"><rect class="cls-2" x="-3822.84" y="-2468.77" width="6348.4" height="5052.27"/></g><path class="cls-3" d="M726.87,29.71a.5.5,0,0,0-.54.46c0,.27.09.41.37.4a.64.64,0,0,0,.2,0l.11-.82Zm-.09,1.75.09-.67a.77.77,0,0,1-.25,0c-.44,0-.68-.22-.62-.63a.88.88,0,0,1,.94-.75l.4,0h0l-.26,2Z"/><g class="cls-12"><rect class="cls-2" x="-3822.84" y="-2468.77" width="6348.4" height="5052.27"/></g><path class="cls-3" d="M728.17,30.77a.6.6,0,0,1-.44-.11c-.09-.07-.11-.18-.08-.39l.11-.83h.32l-.1.81c0,.22,0,.28.26.27a.91.91,0,0,0,.23,0l.14-1.07h.33l-.17,1.28h0a3.37,3.37,0,0,1-.57.08"/><g class="cls-13"><rect class="cls-2" x="-3822.84" y="-2468.77" width="6348.4" height="5052.27"/></g><path class="cls-3" d="M730.17,29.82c0-.16-.09-.23-.26-.23a.4.4,0,0,0-.36.26Zm-.38.9c-.44,0-.67-.22-.62-.64a.81.81,0,0,1,.78-.74.49.49,0,0,1,.47.21.58.58,0,0,1,.05.41v.09l-1,0v0c0,.23.12.36.38.35a.74.74,0,0,0,.46-.16l.05,0,0,.29h0A1,1,0,0,1,729.79,30.72Z"/><g class="cls-14"><rect class="cls-2" x="-3822.84" y="-2468.77" width="6348.4" height="5052.27"/></g><path class="cls-3" d="M731.38,30.63l.14-1.05h-.22l0-.25h.22v0a.79.79,0,0,1,.26-.57.77.77,0,0,1,.43-.17h.17l0,.25h-.14a.34.34,0,0,0-.23.11.54.54,0,0,0-.12.36v0h.35l0,.24h-.35l-.14,1.06Z"/><g class="cls-15"><rect class="cls-2" x="-3822.84" y="-2468.77" width="6348.4" height="5052.27"/></g><path class="cls-3" d="M733,30c-.37.05-.45.13-.46.25s0,.15.17.14l.24,0Zm-.35.63q-.48,0-.42-.36c0-.3.27-.44.8-.51h0c0-.12,0-.16,0-.19s-.06-.06-.14-.05a.8.8,0,0,0-.46.17l-.05,0,0-.3h0a1.32,1.32,0,0,1,.54-.16c.2,0,.32.05.37.16a.81.81,0,0,1,0,.32l-.11.83h-.07A4.48,4.48,0,0,1,732.69,30.6Z"/><g class="cls-16"><rect class="cls-2" x="-3822.84" y="-2468.77" width="6348.4" height="5052.27"/></g><path class="cls-3" d="M733.66,30.54l.16-1.24h0a1.87,1.87,0,0,1,.57-.12.63.63,0,0,1,.24,0h0l0,.27,0,0a.71.71,0,0,0-.21,0l-.26.06L734,30.53Z"/><g class="cls-17"><rect class="cls-2" x="-3822.84" y="-2468.77" width="6348.4" height="5052.27"/></g><path class="cls-3" d="M736.4,30.44l.11-.84c0-.19,0-.26-.22-.25a.79.79,0,0,0-.25,0,.47.47,0,0,1,0,.2l-.11.86h-.32l.11-.84c0-.19,0-.26-.24-.25a1.32,1.32,0,0,0-.26.05l-.14,1.06h-.32l.16-1.26h0a2,2,0,0,1,.6-.11.62.62,0,0,1,.37.07,1.08,1.08,0,0,1,.45-.1.48.48,0,0,1,.41.12.4.4,0,0,1,.07.35l-.12.86Z"/><g class="cls-18"><rect class="cls-2" x="-3822.84" y="-2468.77" width="6348.4" height="5052.27"/></g><path class="cls-3" d="M721.35,31l.11-.83c0-.19,0-.26-.22-.26A.77.77,0,0,0,721,30a1.49,1.49,0,0,1,0,.19l-.11.86h-.33l.11-.83c0-.2,0-.26-.24-.25a.73.73,0,0,0-.25,0L720,31.06h-.33l.17-1.25h0a2.39,2.39,0,0,1,.61-.11.66.66,0,0,1,.36.07,1.52,1.52,0,0,1,.46-.1.5.5,0,0,1,.41.13.36.36,0,0,1,.06.34l-.11.86Z"/><g class="cls-19"><rect class="cls-2" x="-3822.84" y="-2468.77" width="6348.4" height="5052.27"/></g><path class="cls-3" d="M737.6,28.91l.57-.59.3,0-.64.6Zm.26.88c-.36,0-.45.12-.46.24s0,.15.17.15a.9.9,0,0,0,.24,0Zm-.35.63q-.46,0-.42-.36c0-.3.27-.45.8-.51h0v0a.38.38,0,0,0,0-.18s-.07-.06-.15-.06a.93.93,0,0,0-.46.18l0,0,0-.29h0a1.22,1.22,0,0,1,.55-.16c.19,0,.31,0,.36.16a.52.52,0,0,1,0,.31l-.11.83-.07,0Z"/><g class="cls-20"><rect class="cls-2" x="-3822.84" y="-2468.77" width="6348.4" height="5052.27"/></g><path class="cls-3" d="M739.1,30.36c-.44,0-.69-.23-.63-.64a.85.85,0,0,1,1.18-.67h0l0,.3,0,0a.37.37,0,0,0-.29-.08.48.48,0,0,0-.49.45c0,.28.1.43.37.42a.7.7,0,0,0,.34-.12l0,0,0,.28h0a1,1,0,0,1-.41.11"/><g class="cls-21"><rect class="cls-2" x="-3822.84" y="-2468.77" width="6348.4" height="5052.27"/></g><path class="cls-3" d="M740,28.78l0-.34h.34l-.05.33Zm-.19,1.53L740,29l.32,0-.17,1.34Z"/><g class="cls-22"><rect class="cls-2" x="-3822.84" y="-2468.77" width="6348.4" height="5052.27"/></g><path class="cls-3" d="M741.25,29.66c-.37,0-.45.12-.46.25s0,.15.17.14l.24,0Zm-.35.63c-.32,0-.46-.11-.43-.36s.28-.45.81-.51h0v0c0-.11,0-.16,0-.18s-.06-.06-.14-.06a.9.9,0,0,0-.46.18l-.06,0,0-.29h0a1.18,1.18,0,0,1,.54-.16c.2,0,.32.05.37.16a.77.77,0,0,1,0,.31l-.11.83-.08,0Z"/><g class="cls-23"><rect class="cls-2" x="-3822.84" y="-2468.77" width="6348.4" height="5052.27"/></g><path class="cls-3" d="M709.68,25.38l-.55,3.11a4.37,4.37,0,0,0,2.8-3.19Z"/><g class="cls-24"><rect class="cls-2" x="-3822.84" y="-2468.77" width="6348.4" height="5052.27"/></g><path class="cls-3" d="M710.06,23.37l1.67-.06a4.08,4.08,0,0,0-1.35-1.74Z"/><g class="cls-25"><rect class="cls-2" x="-3822.84" y="-2468.77" width="6348.4" height="5052.27"/></g><path class="cls-3" d="M707.3,27.16c.13-.51.3-1.37,1.88-1.71.13,0,.12-.05,0-.05l-5.1.19c0-.27.19-1.1.25-1.41.1-.5.36-.6.83-.62l2.78-.11.51-2.77a5.59,5.59,0,0,0-1.49-.14c-2.68.1-4.78,2.05-4.69,4.35s2.14,3.93,4.67,4Z"/><g class="cls-26"><rect class="cls-2" x="-3822.84" y="-2468.77" width="6348.4" height="5052.27"/></g><polygon class="cls-3" points="723.3 110.64 692.76 108.24 693.06 104.49 719.53 106.57 719.44 59.43 723.21 59.42 723.3 110.64"/><g class="cls-27"><rect class="cls-2" x="-3822.84" y="-2468.77" width="6348.4" height="5052.27"/></g><rect class="cls-2" x="733.45" y="95.7" width="3.76" height="27.92" transform="translate(570.52 834.63) rotate(-85.67)"/><g class="cls-28"><rect class="cls-2" x="-3822.84" y="-2468.77" width="6348.4" height="5052.27"/></g><path class="cls-3" d="M727,94a1.88,1.88,0,0,1-1-3.5l1-.61V88l-1.52-1.27a1.88,1.88,0,1,1,2.41-2.89l2.19,1.83a1.89,1.89,0,0,1,.68,1.44v3.85a1.88,1.88,0,0,1-.92,1.62l-2,1.16a1.85,1.85,0,0,1-1,.26"/><g class="cls-29"><rect class="cls-2" x="-3822.84" y="-2468.77" width="6348.4" height="5052.27"/></g><path class="cls-3" d="M715.23,93.43a1.9,1.9,0,0,1-1-.26L712.32,92a1.88,1.88,0,0,1-.92-1.62V86.55a1.89,1.89,0,0,1,.68-1.45l2.19-1.83a1.88,1.88,0,1,1,2.41,2.89l-1.52,1.27v1.89l1,.62a1.87,1.87,0,0,1,.65,2.57,1.85,1.85,0,0,1-1.62.92"/><g class="cls-30"><rect class="cls-2" x="-3822.84" y="-2468.77" width="6348.4" height="5052.27"/></g><path class="cls-2" d="M406.3,484.1H322.78l35.55-33.82a3.29,3.29,0,0,0,0-4.93,3.7,3.7,0,0,0-5.18,0l-42,39.81a3.29,3.29,0,0,0,0,4.93L353,529.9a3.71,3.71,0,0,0,5.19,0,3.29,3.29,0,0,0,0-4.93l-35.37-33.82H406.3a3.53,3.53,0,1,0,0-7Z"/><g class="cls-31"><rect class="cls-2" x="-390" y="-2249.04" width="9600" height="25640"/></g><path class="cls-2" d="M165.7,484.1h83.52l-35.55-33.82a3.29,3.29,0,0,1,0-4.93,3.7,3.7,0,0,1,5.18,0l42,39.81a3.29,3.29,0,0,1,0,4.93L219,529.9a3.71,3.71,0,0,1-5.19,0,3.29,3.29,0,0,1,0-4.93l35.37-33.82H165.7a3.53,3.53,0,1,1,0-7Z"/><g class="cls-32"><rect class="cls-2" x="-8638" y="-2249.04" width="9600" height="25640"/></g></svg>