<svg id="Layer_1" data-name="Layer 1" xmlns="http://www.w3.org/2000/svg" xmlns:xlink="http://www.w3.org/1999/xlink" viewBox="0 0 127.75 127.75"><defs><style>.cls-1,.cls-2,.cls-3{fill:#8a9297;}.cls-1{clip-rule:evenodd;}.cls-3{fill-rule:evenodd;}.cls-4{clip-path:url(#clip-path);}.cls-5{clip-path:url(#clip-path-2);}.cls-6{clip-path:url(#clip-path-3);}.cls-7{clip-path:url(#clip-path-4);}.cls-8{clip-path:url(#clip-path-5);}.cls-9{clip-path:url(#clip-path-6);}.cls-10{clip-path:url(#clip-path-7);}.cls-11{clip-path:url(#clip-path-8);}.cls-12{clip-path:url(#clip-path-9);}.cls-13{clip-path:url(#clip-path-10);}.cls-14{clip-path:url(#clip-path-11);}.cls-15{clip-path:url(#clip-path-12);}.cls-16{clip-path:url(#clip-path-13);}.cls-17{clip-path:url(#clip-path-14);}.cls-18{clip-path:url(#clip-path-15);}.cls-19{clip-path:url(#clip-path-16);}.cls-20{clip-path:url(#clip-path-17);}.cls-21{clip-path:url(#clip-path-18);}.cls-22{clip-path:url(#clip-path-19);}.cls-23{clip-path:url(#clip-path-20);}.cls-24{clip-path:url(#clip-path-21);}.cls-25{clip-path:url(#clip-path-22);}.cls-26{clip-path:url(#clip-path-23);}.cls-27{clip-path:url(#clip-path-24);}.cls-28{clip-path:url(#clip-path-25);}.cls-29{clip-path:url(#clip-path-26);}.cls-30{clip-path:url(#clip-path-27);}.cls-31{clip-path:url(#clip-path-28);}.cls-32{clip-path:url(#clip-path-29);}</style><clipPath id="clip-path"><path class="cls-1" d="M606.44,114.91h-.15l-11-.91a1.88,1.88,0,0,1-1.73-1.88V67.79a6.39,6.39,0,0,0-1.71-4.91,6.6,6.6,0,0,0-4.49-1.46h-.18l-47.55-.53v46.91a1.87,1.87,0,0,1-2,1.87l-9.25-.73a1.88,1.88,0,0,1-1.73-1.89c0-.3.27-29.77.21-36.75A14.85,14.85,0,0,1,530.19,61H524.3A3.55,3.55,0,0,1,521,58.32a1.77,1.77,0,0,1-.09-.56V51.67c0-3.05,1.89-4.31,3-4.58a2.73,2.73,0,0,1,.4-.05l67.22-.91h.26c15.86,2,16.66,15.93,16.67,16.07v.09L608.33,113a2,2,0,0,1-.61,1.38A1.9,1.9,0,0,1,606.44,114.91Zm-9.1-4.53,7.23.6.18-48.64c-.06-.78-1-10.82-13.25-12.45l-66.61.91a1.66,1.66,0,0,0-.18.87v5.54h10.12a1.88,1.88,0,0,1,1.43.66.91.91,0,0,1,.18-.21,1.83,1.83,0,0,1,1.34-.54l49.38.54a10.36,10.36,0,0,1,7.22,2.42c2,1.79,3,4.39,3,7.71Zm-66.93-5,5.47.43V60.65h0s-5.33,3.68-5.27,9.63S530.47,98.85,530.41,105.34Z"/></clipPath><clipPath id="clip-path-2"><path class="cls-1" d="M611.56,111.44H607.8V61.82c-.09-1-1.31-11.3-12-12.12l.29-3.75c11.41.87,15.13,10.62,15.5,15.66v49.83Z"/></clipPath><clipPath id="clip-path-3"><path class="cls-1" d="M532,43.91A1.89,1.89,0,0,1,530.08,42L530,22.2a1.88,1.88,0,0,1,1.82-1.9l9.65-.3h.09l3.42.06a1.88,1.88,0,0,1-.07,3.76l-3.37-.06-7.77.25.11,18a1.89,1.89,0,0,1-1.87,1.9Z"/></clipPath><clipPath id="clip-path-4"><path class="cls-1" d="M547.6,36.83h-.47A5,5,0,0,1,543,35.06a4.56,4.56,0,0,1-.8-3.49l.84-9.68c-.08-2.54.62-4.44,2.06-5.65a6.11,6.11,0,0,1,4.7-1.2l41.85-2,.23,0c2.51.51,4.26,1.53,5.19,3a4.46,4.46,0,0,1,.64,3.09c-.11,1.42-.78,9.74-1.45,12.36a5.76,5.76,0,0,1-4.77,4.33l-.18,0c-1.59,0-37.92.92-43.69.92m1.2-18.09a2.07,2.07,0,0,0-1.31.39,3.66,3.66,0,0,0-.71,2.73V22l-.91,10.29a.75.75,0,0,0,.08.49,1.86,1.86,0,0,0,1.23.3c3.66.07,41.35-.85,43.88-.91a2,2,0,0,0,1.52-1.52c.52-2,1.15-9.22,1.36-11.83l0-.31c0-.54-.81-1.27-2.66-1.68l-41.82,2-.23-.05a4.69,4.69,0,0,0-.48,0"/></clipPath><clipPath id="clip-path-5"><path class="cls-1" d="M584.27,21.92a1.2,1.2,0,0,0-.92-.27,1.68,1.68,0,0,0-1,.4,2.2,2.2,0,0,0-.62,1.24s0,.1,0,.17,1.09,0,2-.06c.5,0,.79-.16.86-.6a1.06,1.06,0,0,0-.21-.88m1.84,1a1.43,1.43,0,0,1-.61,1.08,2.75,2.75,0,0,1-1.43.4,9.73,9.73,0,0,1-1.85,0c-.39-.08-.51-.65-.57-.81a4.08,4.08,0,0,0-.07,1.09,1.14,1.14,0,0,0,.5,1,2.16,2.16,0,0,0,1.22.24c.32,0,.66,0,1-.07s.54-.07.82-.11h0c.06,0,.13,0,.12.12l-.1.83c0,.06,0,.1-.12.13a6.71,6.71,0,0,1-1,.25,8.6,8.6,0,0,1-1.08.11,4.63,4.63,0,0,1-1.53-.15,2.12,2.12,0,0,1-.95-.59,2,2,0,0,1-.46-1,4.36,4.36,0,0,1,0-1.36l0-.41a3.86,3.86,0,0,1,1-2.33,3.6,3.6,0,0,1,2.5-.92,2.6,2.6,0,0,1,2.08.63,2.36,2.36,0,0,1,.47,1.93m-22.44-1.74-4.45.17c-.29,0-.39.21-.43.49s-.08.58-.11.82.09.32.3.31h.38l1.4-.06c.11,0,0,0,0,.05a2.38,2.38,0,0,0-1.29,1.9c0,.21-.34,2.67-.34,2.67s0,.11,0,.15c0,.23.14.28.23.28l.89,0h.08c.35,0,.45-.11.49-.47s.54-4.27.58-4.56l1.05,0c.48,0,1-.07,1.32.25s.23.71.16,1.27l-.37,3a.81.81,0,0,0,0,.15c0,.23.13.28.22.28l.9,0h.08c.35,0,.44-.11.49-.47,0-.12.48-3.76.51-4a1.88,1.88,0,0,0-2.08-2.07m25.05-.33c0-.24,0-.66-.47-.64l-.81,0a.43.43,0,0,0-.4.35l-.73,5.89c0,.32.06.44.22.43l1.17,0a.35.35,0,0,0,.31-.29l.1-.7s.23-1.92.43-3.5a.3.3,0,0,0-.34-.37l-1,0h-.1s0,0,0,0c.51-.09,1.48-.53,1.56-1.19m-20.63,1.92-1,0H567s0,0,0,0c.5-.1,1.48-.54,1.56-1.2,0-.24,0-.66-.48-.64l-.81,0a.41.41,0,0,0-.39.35l-.73,5.89c-.06.32.06.43.21.43l1.17-.05a.33.33,0,0,0,.32-.28l.09-.71s.24-1.91.43-3.5a.31.31,0,0,0-.34-.37m11.31-2.05a5,5,0,0,0-.91-.18,9.43,9.43,0,0,0-1.07,0,4.46,4.46,0,0,0-1,.15,2.56,2.56,0,0,0-.8.37,2.14,2.14,0,0,0-.56.6,2.24,2.24,0,0,0-.28.86,1.38,1.38,0,0,0,.25,1.11,2.47,2.47,0,0,0,1.05.69l1,.38a1.67,1.67,0,0,1,.45.26.47.47,0,0,1,.15.43.62.62,0,0,1-.31.49,1.58,1.58,0,0,1-.76.17h-1.05c-.38,0-.73,0-1-.06h0a.11.11,0,0,0-.11.1c0,.05,0,0,0,0l-.11.93c0,.11,0,.16.12.18.36.07.74.12,1.12.16a8.28,8.28,0,0,0,1.23,0,3.28,3.28,0,0,0,1.85-.57,2,2,0,0,0,.82-1.43,1.58,1.58,0,0,0-.23-1.14,2.25,2.25,0,0,0-1-.72l-1-.4a3.06,3.06,0,0,1-.45-.23.38.38,0,0,1-.14-.41.57.57,0,0,1,.3-.48,2,2,0,0,1,.69-.12,8.61,8.61,0,0,1,.88,0l.87.07h.06a.1.1,0,0,0,.1-.09c0-.06,0,0,0,0l.12-.93a.17.17,0,0,0-.14-.18M574,22.12a.12.12,0,0,1-.1.09h-.06a8.09,8.09,0,0,0-.86-.07c-.3,0-.6,0-.89,0a1.92,1.92,0,0,0-.69.13.56.56,0,0,0-.3.47.39.39,0,0,0,.14.41,2.32,2.32,0,0,0,.45.23l1,.41a2.25,2.25,0,0,1,1,.72,1.54,1.54,0,0,1,.23,1.13,2,2,0,0,1-.82,1.44,3.24,3.24,0,0,1-1.84.57c-.44,0-.85,0-1.24,0s-.76-.1-1.11-.17a.14.14,0,0,1-.13-.18l.12-.93v0a.1.1,0,0,1,.11-.09h0c.3,0,.65.05,1,.06s.73,0,1.05,0a1.58,1.58,0,0,0,.75-.16.62.62,0,0,0,.31-.49.49.49,0,0,0-.14-.43,1.75,1.75,0,0,0-.46-.26l-1-.38a2.47,2.47,0,0,1-1.05-.69,1.45,1.45,0,0,1-.25-1.12,2.09,2.09,0,0,1,.29-.86,1.89,1.89,0,0,1,.56-.6,2.62,2.62,0,0,1,.79-.37,4.46,4.46,0,0,1,1-.14,6.44,6.44,0,0,1,1.08,0,3.67,3.67,0,0,1,.9.18c.07,0,.16.06.14.17l-.11.93s0,0,0,0"/></clipPath><clipPath id="clip-path-6"><path class="cls-1" d="M568.89,30.11c-.37.05-.45.13-.47.25s0,.15.18.14l.24,0Zm-.35.63c-.32,0-.46-.11-.43-.36s.27-.44.8-.51h0c0-.12,0-.16,0-.19s-.07-.06-.14-.05a.77.77,0,0,0-.46.17l-.06,0,0-.3h0a1.28,1.28,0,0,1,.54-.16c.2,0,.32.05.37.17a.75.75,0,0,1,0,.31l-.11.83H569A4.11,4.11,0,0,1,568.54,30.74Z"/></clipPath><clipPath id="clip-path-7"><path class="cls-1" d="M569.69,29.15l0-.34h.34l0,.34Zm-.19,1.53.18-1.33H570l-.18,1.33Z"/></clipPath><clipPath id="clip-path-8"><path class="cls-1" d="M570.55,30.68a1,1,0,0,1-.37-.06h0l0-.32,0,0a.42.42,0,0,0,.31.11c.14,0,.23-.06.24-.15a.1.1,0,0,0-.07-.12.64.64,0,0,0-.17-.08c-.23-.1-.31-.2-.28-.37a.54.54,0,0,1,.57-.42.65.65,0,0,1,.34.06h0l0,.3,0,0a.43.43,0,0,0-.29-.08c-.12,0-.22.06-.23.14s0,.08.2.17a.51.51,0,0,1,.25.15.28.28,0,0,1,.08.25.55.55,0,0,1-.59.43"/></clipPath><clipPath id="clip-path-9"><path class="cls-1" d="M572.89,29.46a.52.52,0,0,0-.55.46c0,.28.1.42.38.41l.2,0,.1-.83Zm-.1,1.75.09-.67a.71.71,0,0,1-.24,0c-.45,0-.68-.22-.62-.63a.86.86,0,0,1,.94-.74,1.43,1.43,0,0,1,.4,0h0l-.26,2Z"/></clipPath><clipPath id="clip-path-10"><path class="cls-1" d="M574.19,30.52a.57.57,0,0,1-.44-.1c-.09-.08-.11-.19-.08-.39l.11-.84h.32L574,30c0,.22,0,.28.27.27l.23,0,.14-1.08H575l-.17,1.29h0a3.51,3.51,0,0,1-.57.08"/></clipPath><clipPath id="clip-path-11"><path class="cls-1" d="M576.18,29.58c0-.17-.08-.24-.25-.24a.41.41,0,0,0-.37.26Zm-.37.89c-.45,0-.68-.22-.62-.63a.81.81,0,0,1,.78-.75.48.48,0,0,1,.47.22.61.61,0,0,1,0,.41v.09l-1,0v0c0,.23.11.37.38.36a.85.85,0,0,0,.45-.16l.06,0,0,.29h0A1.16,1.16,0,0,1,575.81,30.47Z"/></clipPath><clipPath id="clip-path-12"><path class="cls-1" d="M577.39,30.38l.14-1.05h-.22l0-.24h.21v0a.81.81,0,0,1,.26-.57.74.74,0,0,1,.43-.17h.16l0,.24h-.14a.29.29,0,0,0-.23.1.65.65,0,0,0-.13.37v0h.34l0,.24-.34,0-.14,1.05Z"/></clipPath><clipPath id="clip-path-13"><path class="cls-1" d="M579.05,29.73c-.36,0-.44.12-.46.24s0,.15.17.15l.25,0Zm-.34.62c-.32,0-.46-.1-.43-.35s.27-.45.8-.51h0v0a.55.55,0,0,0,0-.19s-.07-.05-.15-.05a1,1,0,0,0-.46.17l-.05,0,0-.29h0A1.17,1.17,0,0,1,579,29c.19,0,.32.05.36.17a.57.57,0,0,1,0,.31l-.11.83h-.08A2.86,2.86,0,0,1,578.71,30.35Z"/></clipPath><clipPath id="clip-path-14"><path class="cls-1" d="M579.67,30.3l.17-1.25h0a1.58,1.58,0,0,1,.56-.13.93.93,0,0,1,.24,0h0l0,.26h0a.37.37,0,0,0-.21,0,.8.8,0,0,0-.26.05L580,30.28Z"/></clipPath><clipPath id="clip-path-15"><path class="cls-1" d="M582.41,30.19l.11-.83c0-.19,0-.26-.22-.26a1.14,1.14,0,0,0-.24,0,.73.73,0,0,1,0,.2l-.11.86h-.33l.11-.83c0-.2,0-.26-.24-.25a.77.77,0,0,0-.25,0l-.14,1.06h-.33l.17-1.25h0a2.47,2.47,0,0,1,.61-.11.58.58,0,0,1,.36.07,1.27,1.27,0,0,1,.46-.1.5.5,0,0,1,.41.13.36.36,0,0,1,.06.34l-.11.86Z"/></clipPath><clipPath id="clip-path-16"><path class="cls-1" d="M567.37,30.76l.11-.83c0-.19,0-.26-.22-.25a.79.79,0,0,0-.25.05.65.65,0,0,1,0,.2l-.12.85h-.32l.11-.83c0-.19,0-.26-.24-.25a.82.82,0,0,0-.26,0L566,30.81l-.32,0,.16-1.26h0a3,3,0,0,1,.6-.11.82.82,0,0,1,.37.07,1.53,1.53,0,0,1,.45-.1.48.48,0,0,1,.41.13.38.38,0,0,1,.07.34l-.11.86Z"/></clipPath><clipPath id="clip-path-17"><path class="cls-1" d="M583.61,28.67l.57-.59h.3l-.63.6Zm.27.87c-.37.05-.45.13-.47.25s0,.15.18.14l.24,0Zm-.35.63c-.32,0-.46-.11-.43-.36s.28-.44.81-.51h0c0-.12,0-.16,0-.19s-.06-.06-.14-.05a.8.8,0,0,0-.46.17l-.06,0,0-.29h0a1.32,1.32,0,0,1,.54-.16c.2,0,.32.05.37.16a.81.81,0,0,1,0,.32l-.11.83H584A4.11,4.11,0,0,1,583.53,30.17Z"/></clipPath><clipPath id="clip-path-18"><path class="cls-1" d="M585.11,30.11a.54.54,0,0,1-.63-.64.84.84,0,0,1,.84-.73.7.7,0,0,1,.35.06h0l0,.29,0,0a.48.48,0,0,0-.3-.08.49.49,0,0,0-.49.45c0,.28.1.43.38.42a.74.74,0,0,0,.34-.12l.05,0,0,.29h0a.83.83,0,0,1-.41.1"/></clipPath><clipPath id="clip-path-19"><path class="cls-1" d="M586,28.53l0-.34h.34l0,.34Zm-.19,1.53.17-1.33h.33l-.18,1.33Z"/></clipPath><clipPath id="clip-path-20"><path class="cls-1" d="M587.26,29.41c-.36.05-.44.13-.46.25s0,.15.17.14l.25,0Zm-.35.63q-.46,0-.42-.36c0-.3.27-.44.8-.51h0a.53.53,0,0,0,0-.19s-.07-.06-.15,0a.82.82,0,0,0-.46.17l-.05,0,0-.3h0a1.28,1.28,0,0,1,.54-.16c.19,0,.32.05.36.17a.57.57,0,0,1,0,.31l-.11.83h-.08A4.24,4.24,0,0,1,586.91,30Z"/></clipPath><clipPath id="clip-path-21"><path class="cls-1" d="M555.7,25.13l-.55,3.11a4.37,4.37,0,0,0,2.8-3.19Z"/></clipPath><clipPath id="clip-path-22"><path class="cls-1" d="M556.08,23.13l1.67-.07a4.11,4.11,0,0,0-1.36-1.74Z"/></clipPath><clipPath id="clip-path-23"><path class="cls-1" d="M553.31,26.91c.14-.51.31-1.36,1.89-1.7.13,0,.11-.06,0-.06l-5.09.2c0-.27.19-1.1.25-1.42.1-.5.36-.6.83-.62l2.78-.1.51-2.77a5.31,5.31,0,0,0-1.5-.15c-2.67.1-4.77,2.05-4.68,4.35s2.14,3.93,4.67,4Z"/></clipPath><clipPath id="clip-path-24"><polygon class="cls-1" points="569.32 110.39 538.78 107.99 539.08 104.24 565.55 106.32 565.46 59.18 569.22 59.18 569.32 110.39"/></clipPath><clipPath id="clip-path-25"><rect class="cls-2" x="579.47" y="95.45" width="3.76" height="27.92" transform="translate(428.4 680.85) rotate(-85.67)"/></clipPath><clipPath id="clip-path-26"><path class="cls-1" d="M573,93.73a1.89,1.89,0,0,1-1-3.5l1-.62V87.72l-1.53-1.27a1.88,1.88,0,0,1,2.41-2.89l2.2,1.83a1.89,1.89,0,0,1,.68,1.45v3.84a1.88,1.88,0,0,1-.92,1.62l-2,1.16a1.86,1.86,0,0,1-1,.27"/></clipPath><clipPath id="clip-path-27"><path class="cls-1" d="M561.25,93.19a1.86,1.86,0,0,1-1-.27l-1.95-1.16a1.88,1.88,0,0,1-.92-1.61V86.3a1.88,1.88,0,0,1,.67-1.45l2.2-1.83a1.88,1.88,0,0,1,2.41,2.89l-1.52,1.27v1.9l1,.61a1.88,1.88,0,0,1-1,3.5"/></clipPath><clipPath id="clip-path-28"><path class="cls-2" d="M252.31,483.86H168.79L204.35,450a3.3,3.3,0,0,0,0-4.94,3.71,3.71,0,0,0-5.19,0l-42,39.81a3.3,3.3,0,0,0,0,4.94L199,529.66a3.7,3.7,0,0,0,5.18,0,3.29,3.29,0,0,0,0-4.94L168.79,490.9h83.52a3.52,3.52,0,1,0,0-7Z"/></clipPath><clipPath id="clip-path-29"><path class="cls-2" d="M11.72,483.86H95.24L59.68,450a3.3,3.3,0,0,1,0-4.94,3.71,3.71,0,0,1,5.19,0l42,39.81a3.29,3.29,0,0,1,0,4.94L65.05,529.66a3.7,3.7,0,0,1-5.18,0,3.3,3.3,0,0,1,0-4.94L95.24,490.9H11.72a3.52,3.52,0,1,1,0-7Z"/></clipPath></defs><title>icons</title><path class="cls-3" d="M606.44,114.91h-.15l-11-.91a1.88,1.88,0,0,1-1.73-1.88V67.79a6.39,6.39,0,0,0-1.71-4.91,6.6,6.6,0,0,0-4.49-1.46h-.18l-47.55-.53v46.91a1.87,1.87,0,0,1-2,1.87l-9.25-.73a1.88,1.88,0,0,1-1.73-1.89c0-.3.27-29.77.21-36.75A14.85,14.85,0,0,1,530.19,61H524.3A3.55,3.55,0,0,1,521,58.32a1.77,1.77,0,0,1-.09-.56V51.67c0-3.05,1.89-4.31,3-4.58a2.73,2.73,0,0,1,.4-.05l67.22-.91h.26c15.86,2,16.66,15.93,16.67,16.07v.09L608.33,113a2,2,0,0,1-.61,1.38A1.9,1.9,0,0,1,606.44,114.91Zm-9.1-4.53,7.23.6.18-48.64c-.06-.78-1-10.82-13.25-12.45l-66.61.91a1.66,1.66,0,0,0-.18.87v5.54h10.12a1.88,1.88,0,0,1,1.43.66.91.91,0,0,1,.18-.21,1.83,1.83,0,0,1,1.34-.54l49.38.54a10.36,10.36,0,0,1,7.22,2.42c2,1.79,3,4.39,3,7.71Zm-66.93-5,5.47.43V60.65h0s-5.33,3.68-5.27,9.63S530.47,98.85,530.41,105.34Z"/><g class="cls-4"><rect class="cls-2" x="-3976.83" y="-2469.02" width="6348.4" height="5052.27"/></g><path class="cls-3" d="M611.56,111.44H607.8V61.82c-.09-1-1.31-11.3-12-12.12l.29-3.75c11.41.87,15.13,10.62,15.5,15.66v49.83Z"/><g class="cls-5"><rect class="cls-2" x="-3976.83" y="-2469.02" width="6348.4" height="5052.27"/></g><path class="cls-3" d="M532,43.91A1.89,1.89,0,0,1,530.08,42L530,22.2a1.88,1.88,0,0,1,1.82-1.9l9.65-.3h.09l3.42.06a1.88,1.88,0,0,1-.07,3.76l-3.37-.06-7.77.25.11,18a1.89,1.89,0,0,1-1.87,1.9Z"/><g class="cls-6"><rect class="cls-2" x="-3976.83" y="-2469.02" width="6348.4" height="5052.27"/></g><path class="cls-3" d="M547.6,36.83h-.47A5,5,0,0,1,543,35.06a4.56,4.56,0,0,1-.8-3.49l.84-9.68c-.08-2.54.62-4.44,2.06-5.65a6.11,6.11,0,0,1,4.7-1.2l41.85-2,.23,0c2.51.51,4.26,1.53,5.19,3a4.46,4.46,0,0,1,.64,3.09c-.11,1.42-.78,9.74-1.45,12.36a5.76,5.76,0,0,1-4.77,4.33l-.18,0c-1.59,0-37.92.92-43.69.92m1.2-18.09a2.07,2.07,0,0,0-1.31.39,3.66,3.66,0,0,0-.71,2.73V22l-.91,10.29a.75.75,0,0,0,.08.49,1.86,1.86,0,0,0,1.23.3c3.66.07,41.35-.85,43.88-.91a2,2,0,0,0,1.52-1.52c.52-2,1.15-9.22,1.36-11.83l0-.31c0-.54-.81-1.27-2.66-1.68l-41.82,2-.23-.05a4.69,4.69,0,0,0-.48,0"/><g class="cls-7"><rect class="cls-2" x="-3976.83" y="-2469.02" width="6348.4" height="5052.27"/></g><path class="cls-3" d="M584.27,21.92a1.2,1.2,0,0,0-.92-.27,1.68,1.68,0,0,0-1,.4,2.2,2.2,0,0,0-.62,1.24s0,.1,0,.17,1.09,0,2-.06c.5,0,.79-.16.86-.6a1.06,1.06,0,0,0-.21-.88m1.84,1a1.43,1.43,0,0,1-.61,1.08,2.75,2.75,0,0,1-1.43.4,9.73,9.73,0,0,1-1.85,0c-.39-.08-.51-.65-.57-.81a4.08,4.08,0,0,0-.07,1.09,1.14,1.14,0,0,0,.5,1,2.16,2.16,0,0,0,1.22.24c.32,0,.66,0,1-.07s.54-.07.82-.11h0c.06,0,.13,0,.12.12l-.1.83c0,.06,0,.1-.12.13a6.71,6.71,0,0,1-1,.25,8.6,8.6,0,0,1-1.08.11,4.63,4.63,0,0,1-1.53-.15,2.12,2.12,0,0,1-.95-.59,2,2,0,0,1-.46-1,4.36,4.36,0,0,1,0-1.36l0-.41a3.86,3.86,0,0,1,1-2.33,3.6,3.6,0,0,1,2.5-.92,2.6,2.6,0,0,1,2.08.63,2.36,2.36,0,0,1,.47,1.93m-22.44-1.74-4.45.17c-.29,0-.39.21-.43.49s-.08.58-.11.82.09.32.3.31h.38l1.4-.06c.11,0,0,0,0,.05a2.38,2.38,0,0,0-1.29,1.9c0,.21-.34,2.67-.34,2.67s0,.11,0,.15c0,.23.14.28.23.28l.89,0h.08c.35,0,.45-.11.49-.47s.54-4.27.58-4.56l1.05,0c.48,0,1-.07,1.32.25s.23.71.16,1.27l-.37,3a.81.81,0,0,0,0,.15c0,.23.13.28.22.28l.9,0h.08c.35,0,.44-.11.49-.47,0-.12.48-3.76.51-4a1.88,1.88,0,0,0-2.08-2.07m25.05-.33c0-.24,0-.66-.47-.64l-.81,0a.43.43,0,0,0-.4.35l-.73,5.89c0,.32.06.44.22.43l1.17,0a.35.35,0,0,0,.31-.29l.1-.7s.23-1.92.43-3.5a.3.3,0,0,0-.34-.37l-1,0h-.1s0,0,0,0c.51-.09,1.48-.53,1.56-1.19m-20.63,1.92-1,0H567s0,0,0,0c.5-.1,1.48-.54,1.56-1.2,0-.24,0-.66-.48-.64l-.81,0a.41.41,0,0,0-.39.35l-.73,5.89c-.06.32.06.43.21.43l1.17-.05a.33.33,0,0,0,.32-.28l.09-.71s.24-1.91.43-3.5a.31.31,0,0,0-.34-.37m11.31-2.05a5,5,0,0,0-.91-.18,9.43,9.43,0,0,0-1.07,0,4.46,4.46,0,0,0-1,.15,2.56,2.56,0,0,0-.8.37,2.14,2.14,0,0,0-.56.6,2.24,2.24,0,0,0-.28.86,1.38,1.38,0,0,0,.25,1.11,2.47,2.47,0,0,0,1.05.69l1,.38a1.67,1.67,0,0,1,.45.26.47.47,0,0,1,.15.43.62.62,0,0,1-.31.49,1.58,1.58,0,0,1-.76.17h-1.05c-.38,0-.73,0-1-.06h0a.11.11,0,0,0-.11.1c0,.05,0,0,0,0l-.11.93c0,.11,0,.16.12.18.36.07.74.12,1.12.16a8.28,8.28,0,0,0,1.23,0,3.28,3.28,0,0,0,1.85-.57,2,2,0,0,0,.82-1.43,1.58,1.58,0,0,0-.23-1.14,2.25,2.25,0,0,0-1-.72l-1-.4a3.06,3.06,0,0,1-.45-.23.38.38,0,0,1-.14-.41.57.57,0,0,1,.3-.48,2,2,0,0,1,.69-.12,8.61,8.61,0,0,1,.88,0l.87.07h.06a.1.1,0,0,0,.1-.09c0-.06,0,0,0,0l.12-.93a.17.17,0,0,0-.14-.18M574,22.12a.12.12,0,0,1-.1.09h-.06a8.09,8.09,0,0,0-.86-.07c-.3,0-.6,0-.89,0a1.92,1.92,0,0,0-.69.13.56.56,0,0,0-.3.47.39.39,0,0,0,.14.41,2.32,2.32,0,0,0,.45.23l1,.41a2.25,2.25,0,0,1,1,.72,1.54,1.54,0,0,1,.23,1.13,2,2,0,0,1-.82,1.44,3.24,3.24,0,0,1-1.84.57c-.44,0-.85,0-1.24,0s-.76-.1-1.11-.17a.14.14,0,0,1-.13-.18l.12-.93v0a.1.1,0,0,1,.11-.09h0c.3,0,.65.05,1,.06s.73,0,1.05,0a1.58,1.58,0,0,0,.75-.16.62.62,0,0,0,.31-.49.49.49,0,0,0-.14-.43,1.75,1.75,0,0,0-.46-.26l-1-.38a2.47,2.47,0,0,1-1.05-.69,1.45,1.45,0,0,1-.25-1.12,2.09,2.09,0,0,1,.29-.86,1.89,1.89,0,0,1,.56-.6,2.62,2.62,0,0,1,.79-.37,4.46,4.46,0,0,1,1-.14,6.44,6.44,0,0,1,1.08,0,3.67,3.67,0,0,1,.9.18c.07,0,.16.06.14.17l-.11.93s0,0,0,0"/><g class="cls-8"><rect class="cls-2" x="-3976.83" y="-2469.02" width="6348.4" height="5052.27"/></g><path class="cls-3" d="M568.89,30.11c-.37.05-.45.13-.47.25s0,.15.18.14l.24,0Zm-.35.63c-.32,0-.46-.11-.43-.36s.27-.44.8-.51h0c0-.12,0-.16,0-.19s-.07-.06-.14-.05a.77.77,0,0,0-.46.17l-.06,0,0-.3h0a1.28,1.28,0,0,1,.54-.16c.2,0,.32.05.37.17a.75.75,0,0,1,0,.31l-.11.83H569A4.11,4.11,0,0,1,568.54,30.74Z"/><g class="cls-9"><rect class="cls-2" x="-3976.83" y="-2469.02" width="6348.4" height="5052.27"/></g><path class="cls-3" d="M569.69,29.15l0-.34h.34l0,.34Zm-.19,1.53.18-1.33H570l-.18,1.33Z"/><g class="cls-10"><rect class="cls-2" x="-3976.83" y="-2469.02" width="6348.4" height="5052.27"/></g><path class="cls-3" d="M570.55,30.68a1,1,0,0,1-.37-.06h0l0-.32,0,0a.42.42,0,0,0,.31.11c.14,0,.23-.06.24-.15a.1.1,0,0,0-.07-.12.64.64,0,0,0-.17-.08c-.23-.1-.31-.2-.28-.37a.54.54,0,0,1,.57-.42.65.65,0,0,1,.34.06h0l0,.3,0,0a.43.43,0,0,0-.29-.08c-.12,0-.22.06-.23.14s0,.08.2.17a.51.51,0,0,1,.25.15.28.28,0,0,1,.08.25.55.55,0,0,1-.59.43"/><g class="cls-11"><rect class="cls-2" x="-3976.83" y="-2469.02" width="6348.4" height="5052.27"/></g><path class="cls-3" d="M572.89,29.46a.52.52,0,0,0-.55.46c0,.28.1.42.38.41l.2,0,.1-.83Zm-.1,1.75.09-.67a.71.71,0,0,1-.24,0c-.45,0-.68-.22-.62-.63a.86.86,0,0,1,.94-.74,1.43,1.43,0,0,1,.4,0h0l-.26,2Z"/><g class="cls-12"><rect class="cls-2" x="-3976.83" y="-2469.02" width="6348.4" height="5052.27"/></g><path class="cls-3" d="M574.19,30.52a.57.57,0,0,1-.44-.1c-.09-.08-.11-.19-.08-.39l.11-.84h.32L574,30c0,.22,0,.28.27.27l.23,0,.14-1.08H575l-.17,1.29h0a3.51,3.51,0,0,1-.57.08"/><g class="cls-13"><rect class="cls-2" x="-3976.83" y="-2469.02" width="6348.4" height="5052.27"/></g><path class="cls-3" d="M576.18,29.58c0-.17-.08-.24-.25-.24a.41.41,0,0,0-.37.26Zm-.37.89c-.45,0-.68-.22-.62-.63a.81.81,0,0,1,.78-.75.48.48,0,0,1,.47.22.61.61,0,0,1,0,.41v.09l-1,0v0c0,.23.11.37.38.36a.85.85,0,0,0,.45-.16l.06,0,0,.29h0A1.16,1.16,0,0,1,575.81,30.47Z"/><g class="cls-14"><rect class="cls-2" x="-3976.83" y="-2469.02" width="6348.4" height="5052.27"/></g><path class="cls-3" d="M577.39,30.38l.14-1.05h-.22l0-.24h.21v0a.81.81,0,0,1,.26-.57.74.74,0,0,1,.43-.17h.16l0,.24h-.14a.29.29,0,0,0-.23.1.65.65,0,0,0-.13.37v0h.34l0,.24-.34,0-.14,1.05Z"/><g class="cls-15"><rect class="cls-2" x="-3976.83" y="-2469.02" width="6348.4" height="5052.27"/></g><path class="cls-3" d="M579.05,29.73c-.36,0-.44.12-.46.24s0,.15.17.15l.25,0Zm-.34.62c-.32,0-.46-.1-.43-.35s.27-.45.8-.51h0v0a.55.55,0,0,0,0-.19s-.07-.05-.15-.05a1,1,0,0,0-.46.17l-.05,0,0-.29h0A1.17,1.17,0,0,1,579,29c.19,0,.32.05.36.17a.57.57,0,0,1,0,.31l-.11.83h-.08A2.86,2.86,0,0,1,578.71,30.35Z"/><g class="cls-16"><rect class="cls-2" x="-3976.83" y="-2469.02" width="6348.4" height="5052.27"/></g><path class="cls-3" d="M579.67,30.3l.17-1.25h0a1.58,1.58,0,0,1,.56-.13.93.93,0,0,1,.24,0h0l0,.26h0a.37.37,0,0,0-.21,0,.8.8,0,0,0-.26.05L580,30.28Z"/><g class="cls-17"><rect class="cls-2" x="-3976.83" y="-2469.02" width="6348.4" height="5052.27"/></g><path class="cls-3" d="M582.41,30.19l.11-.83c0-.19,0-.26-.22-.26a1.14,1.14,0,0,0-.24,0,.73.73,0,0,1,0,.2l-.11.86h-.33l.11-.83c0-.2,0-.26-.24-.25a.77.77,0,0,0-.25,0l-.14,1.06h-.33l.17-1.25h0a2.47,2.47,0,0,1,.61-.11.58.58,0,0,1,.36.07,1.27,1.27,0,0,1,.46-.1.5.5,0,0,1,.41.13.36.36,0,0,1,.06.34l-.11.86Z"/><g class="cls-18"><rect class="cls-2" x="-3976.83" y="-2469.02" width="6348.4" height="5052.27"/></g><path class="cls-3" d="M567.37,30.76l.11-.83c0-.19,0-.26-.22-.25a.79.79,0,0,0-.25.05.65.65,0,0,1,0,.2l-.12.85h-.32l.11-.83c0-.19,0-.26-.24-.25a.82.82,0,0,0-.26,0L566,30.81l-.32,0,.16-1.26h0a3,3,0,0,1,.6-.11.82.82,0,0,1,.37.07,1.53,1.53,0,0,1,.45-.1.48.48,0,0,1,.41.13.38.38,0,0,1,.07.34l-.11.86Z"/><g class="cls-19"><rect class="cls-2" x="-3976.83" y="-2469.02" width="6348.4" height="5052.27"/></g><path class="cls-3" d="M583.61,28.67l.57-.59h.3l-.63.6Zm.27.87c-.37.05-.45.13-.47.25s0,.15.18.14l.24,0Zm-.35.63c-.32,0-.46-.11-.43-.36s.28-.44.81-.51h0c0-.12,0-.16,0-.19s-.06-.06-.14-.05a.8.8,0,0,0-.46.17l-.06,0,0-.29h0a1.32,1.32,0,0,1,.54-.16c.2,0,.32.05.37.16a.81.81,0,0,1,0,.32l-.11.83H584A4.11,4.11,0,0,1,583.53,30.17Z"/><g class="cls-20"><rect class="cls-2" x="-3976.83" y="-2469.02" width="6348.4" height="5052.27"/></g><path class="cls-3" d="M585.11,30.11a.54.54,0,0,1-.63-.64.84.84,0,0,1,.84-.73.7.7,0,0,1,.35.06h0l0,.29,0,0a.48.48,0,0,0-.3-.08.49.49,0,0,0-.49.45c0,.28.1.43.38.42a.74.74,0,0,0,.34-.12l.05,0,0,.29h0a.83.83,0,0,1-.41.1"/><g class="cls-21"><rect class="cls-2" x="-3976.83" y="-2469.02" width="6348.4" height="5052.27"/></g><path class="cls-3" d="M586,28.53l0-.34h.34l0,.34Zm-.19,1.53.17-1.33h.33l-.18,1.33Z"/><g class="cls-22"><rect class="cls-2" x="-3976.83" y="-2469.02" width="6348.4" height="5052.27"/></g><path class="cls-3" d="M587.26,29.41c-.36.05-.44.13-.46.25s0,.15.17.14l.25,0Zm-.35.63q-.46,0-.42-.36c0-.3.27-.44.8-.51h0a.53.53,0,0,0,0-.19s-.07-.06-.15,0a.82.82,0,0,0-.46.17l-.05,0,0-.3h0a1.28,1.28,0,0,1,.54-.16c.19,0,.32.05.36.17a.57.57,0,0,1,0,.31l-.11.83h-.08A4.24,4.24,0,0,1,586.91,30Z"/><g class="cls-23"><rect class="cls-2" x="-3976.83" y="-2469.02" width="6348.4" height="5052.27"/></g><path class="cls-3" d="M555.7,25.13l-.55,3.11a4.37,4.37,0,0,0,2.8-3.19Z"/><g class="cls-24"><rect class="cls-2" x="-3976.83" y="-2469.02" width="6348.4" height="5052.27"/></g><path class="cls-3" d="M556.08,23.13l1.67-.07a4.11,4.11,0,0,0-1.36-1.74Z"/><g class="cls-25"><rect class="cls-2" x="-3976.83" y="-2469.02" width="6348.4" height="5052.27"/></g><path class="cls-3" d="M553.31,26.91c.14-.51.31-1.36,1.89-1.7.13,0,.11-.06,0-.06l-5.09.2c0-.27.19-1.1.25-1.42.1-.5.36-.6.83-.62l2.78-.1.51-2.77a5.31,5.31,0,0,0-1.5-.15c-2.67.1-4.77,2.05-4.68,4.35s2.14,3.93,4.67,4Z"/><g class="cls-26"><rect class="cls-2" x="-3976.83" y="-2469.02" width="6348.4" height="5052.27"/></g><polygon class="cls-3" points="569.32 110.39 538.78 107.99 539.08 104.24 565.55 106.32 565.46 59.18 569.22 59.18 569.32 110.39"/><g class="cls-27"><rect class="cls-2" x="-3976.83" y="-2469.02" width="6348.4" height="5052.27"/></g><rect class="cls-2" x="579.47" y="95.45" width="3.76" height="27.92" transform="translate(428.4 680.85) rotate(-85.67)"/><g class="cls-28"><rect class="cls-2" x="-3976.83" y="-2469.02" width="6348.4" height="5052.27"/></g><path class="cls-3" d="M573,93.73a1.89,1.89,0,0,1-1-3.5l1-.62V87.72l-1.53-1.27a1.88,1.88,0,0,1,2.41-2.89l2.2,1.83a1.89,1.89,0,0,1,.68,1.45v3.84a1.88,1.88,0,0,1-.92,1.62l-2,1.16a1.86,1.86,0,0,1-1,.27"/><g class="cls-29"><rect class="cls-2" x="-3976.83" y="-2469.02" width="6348.4" height="5052.27"/></g><path class="cls-3" d="M561.25,93.19a1.86,1.86,0,0,1-1-.27l-1.95-1.16a1.88,1.88,0,0,1-.92-1.61V86.3a1.88,1.88,0,0,1,.67-1.45l2.2-1.83a1.88,1.88,0,0,1,2.41,2.89l-1.52,1.27v1.9l1,.61a1.88,1.88,0,0,1-1,3.5"/><g class="cls-30"><rect class="cls-2" x="-3976.83" y="-2469.02" width="6348.4" height="5052.27"/></g><path class="cls-2" d="M252.31,483.86H168.79L204.35,450a3.3,3.3,0,0,0,0-4.94,3.71,3.71,0,0,0-5.19,0l-42,39.81a3.3,3.3,0,0,0,0,4.94L199,529.66a3.7,3.7,0,0,0,5.18,0,3.29,3.29,0,0,0,0-4.94L168.79,490.9h83.52a3.52,3.52,0,1,0,0-7Z"/><g class="cls-31"><rect class="cls-2" x="-543.98" y="-2249.29" width="9600" height="25640"/></g><path class="cls-2" d="M11.72,483.86H95.24L59.68,450a3.3,3.3,0,0,1,0-4.94,3.71,3.71,0,0,1,5.19,0l42,39.81a3.29,3.29,0,0,1,0,4.94L65.05,529.66a3.7,3.7,0,0,1-5.18,0,3.3,3.3,0,0,1,0-4.94L95.24,490.9H11.72a3.52,3.52,0,1,1,0-7Z"/><g class="cls-32"><rect class="cls-2" x="-8791.98" y="-2249.29" width="9600" height="25640"/></g><path class="cls-2" d="M119.26,44.61v0H100.77L77.27,21a5,5,0,0,0-7,7.07L86.67,44.58H41L57.49,28.09A5,5,0,1,0,50.44,21L26.94,44.58H7.59l0,.17a5,5,0,0,0,1.24,9.83h.52l7.76,43.28A15,15,0,0,0,31.87,110.2H95a15,15,0,0,0,14.73-12.34l7.76-43.28h1.42a5,5,0,0,0,.37-10ZM99.89,96.09A5,5,0,0,1,95,100.2H31.87A5,5,0,0,1,27,96.09L19.52,54.58h87.82Z"/><path class="cls-2" d="M63.43,89.8a5,5,0,0,0,5-5V69.42a5,5,0,1,0-10,0V84.8A5,5,0,0,0,63.43,89.8Z"/><path class="cls-2" d="M81.92,89.71a5.21,5.21,0,0,0,1,.1,5,5,0,0,0,4.89-4l3-15.38A5,5,0,1,0,81,68.46L78,83.85A5,5,0,0,0,81.92,89.71Z"/><path class="cls-2" d="M39.08,85.76a5,5,0,0,0,4.89,4,5.21,5.21,0,0,0,1-.1,5,5,0,0,0,3.94-5.86l-3-15.39a5,5,0,1,0-9.79,1.92Z"/></svg>