<svg width="22" height="35" viewBox="0 0 22 35" fill="none" xmlns="http://www.w3.org/2000/svg">
<path d="M17.8343 -8.45622e-08C18.8125 -6.28474e-08 19.7531 0.368324 20.5056 1.06814C21.973 2.5046 21.973 4.86188 20.5056 6.29834L9.10526 17.4954L20.5433 28.6924C22.0106 30.1289 22.0106 32.4862 20.5433 33.9227C19.0759 35.3591 16.6679 35.3591 15.2005 33.9227L1.09114 20.1105C0.376261 19.4107 1.34543e-05 18.4899 1.34488e-05 17.4954C1.34433e-05 16.5009 0.413887 15.5801 1.09114 14.8803L15.1629 1.06814C15.9154 0.368324 16.8936 -1.05442e-07 17.8343 -8.45622e-08Z" fill="#787878"/>
</svg>
