<svg id="Layer_1" data-name="Layer 1" xmlns="http://www.w3.org/2000/svg" xmlns:xlink="http://www.w3.org/1999/xlink" viewBox="0 0 127.75 127.75"><defs><style>.cls-1,.cls-2,.cls-3{fill:#8a9297;}.cls-1{clip-rule:evenodd;}.cls-3{fill-rule:evenodd;}.cls-4{clip-path:url(#clip-path);}.cls-5{clip-path:url(#clip-path-2);}.cls-6{clip-path:url(#clip-path-3);}.cls-7{clip-path:url(#clip-path-4);}.cls-8{clip-path:url(#clip-path-5);}.cls-9{clip-path:url(#clip-path-6);}.cls-10{clip-path:url(#clip-path-7);}.cls-11{clip-path:url(#clip-path-8);}.cls-12{clip-path:url(#clip-path-9);}.cls-13{clip-path:url(#clip-path-10);}.cls-14{clip-path:url(#clip-path-11);}.cls-15{clip-path:url(#clip-path-12);}.cls-16{clip-path:url(#clip-path-13);}.cls-17{clip-path:url(#clip-path-14);}.cls-18{clip-path:url(#clip-path-15);}.cls-19{clip-path:url(#clip-path-16);}.cls-20{clip-path:url(#clip-path-17);}.cls-21{clip-path:url(#clip-path-18);}.cls-22{clip-path:url(#clip-path-19);}.cls-23{clip-path:url(#clip-path-20);}.cls-24{clip-path:url(#clip-path-21);}.cls-25{clip-path:url(#clip-path-22);}.cls-26{clip-path:url(#clip-path-23);}.cls-27{clip-path:url(#clip-path-24);}.cls-28{clip-path:url(#clip-path-25);}.cls-29{clip-path:url(#clip-path-26);}.cls-30{clip-path:url(#clip-path-27);}.cls-31{clip-path:url(#clip-path-28);}.cls-32{clip-path:url(#clip-path-29);}</style><clipPath id="clip-path"><path class="cls-1" d="M1195.62,115h-.16l-11-.92a1.88,1.88,0,0,1-1.72-1.87V67.91A6.43,6.43,0,0,0,1181,63a6.64,6.64,0,0,0-4.5-1.45,1,1,0,0,1-.17,0L1128.82,61v46.91a1.85,1.85,0,0,1-.61,1.38,1.9,1.9,0,0,1-1.42.5l-9.25-.74a1.88,1.88,0,0,1-1.74-1.89c0-.29.28-29.76.22-36.75a14.81,14.81,0,0,1,3.35-9.34h-5.9a3.56,3.56,0,0,1-3.26-2.65,2.1,2.1,0,0,1-.08-.56V51.79c0-3,1.89-4.31,3-4.57a1.44,1.44,0,0,1,.41,0l67.22-.92a1.18,1.18,0,0,1,.26,0c15.86,2,16.66,15.92,16.66,16.06v.09l-.18,50.74a1.87,1.87,0,0,1-1.88,1.87Zm-9.11-4.52,7.23.6.18-48.64c-.05-.78-.94-10.83-13.25-12.45l-66.6.9a1.66,1.66,0,0,0-.18.87v5.54H1124a1.87,1.87,0,0,1,1.43.66l.18-.21a1.84,1.84,0,0,1,1.35-.54l49.38.55a10.4,10.4,0,0,1,7.22,2.41c2,1.8,3,4.39,3,7.71Zm-66.93-5.05,5.47.44V60.77h0s-5.32,3.68-5.27,9.62S1119.64,99,1119.58,105.46Z"/></clipPath><clipPath id="clip-path-2"><path class="cls-1" d="M1200.74,111.56H1197V62c-.09-1-1.31-11.31-12-12.12l.29-3.76c11.42.87,15.13,10.63,15.5,15.66v49.83Z"/></clipPath><clipPath id="clip-path-3"><path class="cls-1" d="M1121.13,44a1.88,1.88,0,0,1-1.88-1.87l-.12-19.84a1.88,1.88,0,0,1,1.82-1.89l9.65-.31h.09l3.42.06a1.88,1.88,0,1,1-.07,3.76l-3.37-.06-7.76.25.11,18a1.88,1.88,0,0,1-1.87,1.89Z"/></clipPath><clipPath id="clip-path-4"><path class="cls-1" d="M1136.77,37h-.46a5.05,5.05,0,0,1-4.15-1.76,4.52,4.52,0,0,1-.8-3.49l.83-9.69c-.07-2.53.62-4.43,2.07-5.65a6,6,0,0,1,4.7-1.19l41.84-2,.23,0c2.51.51,4.26,1.53,5.19,3a4.37,4.37,0,0,1,.64,3.1c-.11,1.41-.78,9.73-1.45,12.36a5.76,5.76,0,0,1-4.77,4.33h-.18c-1.59,0-37.91.92-43.69.92m1.2-18.09a2,2,0,0,0-1.31.4A3.61,3.61,0,0,0,1136,22v.12l-.91,10.28a1,1,0,0,0,.08.5,1.93,1.93,0,0,0,1.24.3c3.65.06,41.35-.86,43.87-.92a2,2,0,0,0,1.53-1.52c.52-2,1.15-9.22,1.35-11.82l0-.32c0-.54-.81-1.26-2.65-1.68l-41.83,2-.23-.05a2.33,2.33,0,0,0-.48,0"/></clipPath><clipPath id="clip-path-5"><path class="cls-1" d="M1173.45,22.05a1.15,1.15,0,0,0-.93-.27,1.64,1.64,0,0,0-1,.4,2.16,2.16,0,0,0-.61,1.23s0,.11,0,.18l2-.06c.51,0,.79-.17.86-.61a1,1,0,0,0-.2-.87m1.83,1a1.43,1.43,0,0,1-.61,1.08,2.62,2.62,0,0,1-1.42.4,9,9,0,0,1-1.86,0c-.38-.07-.51-.65-.56-.81a3.89,3.89,0,0,0-.08,1.09,1.17,1.17,0,0,0,.5,1,2.25,2.25,0,0,0,1.22.24c.32,0,.66,0,1-.08a8,8,0,0,0,.81-.11h0c.06,0,.14,0,.13.12l-.11.82c0,.06,0,.1-.11.13a6.84,6.84,0,0,1-1.06.25,8.49,8.49,0,0,1-1.08.12,4.64,4.64,0,0,1-1.53-.16,2,2,0,0,1-1-.59,2.08,2.08,0,0,1-.46-1,4.76,4.76,0,0,1,0-1.37l0-.41a3.86,3.86,0,0,1,1-2.32,3.58,3.58,0,0,1,2.51-.93,2.56,2.56,0,0,1,2.07.64,2.3,2.3,0,0,1,.47,1.92m-22.43-1.73-4.46.16c-.29,0-.39.21-.43.49s-.08.59-.11.83.09.31.3.3h.39l1.39-.05c.12,0,0,0,0,.05a2.35,2.35,0,0,0-1.28,1.89c0,.21-.34,2.67-.34,2.67a.89.89,0,0,0,0,.15c0,.24.14.29.23.28l.9,0h.08c.35,0,.44-.11.49-.46.06-.51.54-4.28.57-4.57l1,0c.48,0,1.06-.07,1.33.26s.22.71.16,1.26l-.38,3c0,.05,0,.11,0,.15,0,.24.14.29.23.28l.89,0h.08c.35,0,.45-.11.49-.46,0-.13.48-3.76.51-4a1.86,1.86,0,0,0-2.07-2.06M1177.9,21c0-.24,0-.66-.48-.64l-.81,0a.42.42,0,0,0-.39.36l-.73,5.88c-.06.32,0,.44.21.44l1.17-.05a.33.33,0,0,0,.32-.28l.09-.71s.24-1.91.43-3.5a.3.3,0,0,0-.34-.37l-.95,0h-.09c.51-.09,1.49-.53,1.57-1.19M1157.26,23l-1,0h-.08c.51-.09,1.48-.53,1.56-1.19,0-.24,0-.66-.47-.64l-.81,0a.43.43,0,0,0-.4.35l-.73,5.89c-.05.32.06.44.22.43l1.17,0a.35.35,0,0,0,.31-.29l.1-.7s.23-1.92.43-3.51a.31.31,0,0,0-.35-.36m11.31-2.06a4.24,4.24,0,0,0-.9-.17,6.44,6.44,0,0,0-1.08,0,4.37,4.37,0,0,0-1,.14,2.57,2.57,0,0,0-.8.37,1.89,1.89,0,0,0-.56.6,2.24,2.24,0,0,0-.29.86,1.45,1.45,0,0,0,.25,1.11,2.36,2.36,0,0,0,1.06.69l1,.38a1.74,1.74,0,0,1,.46.27.46.46,0,0,1,.14.43.65.65,0,0,1-.3.49,1.62,1.62,0,0,1-.76.16c-.32,0-.67,0-1,0s-.73,0-1-.06h0a.1.1,0,0,0-.12.09v0l-.12.93a.14.14,0,0,0,.13.18,9.43,9.43,0,0,0,1.12.16,9.79,9.79,0,0,0,1.23,0,3.32,3.32,0,0,0,1.84-.57,2,2,0,0,0,.83-1.44,1.55,1.55,0,0,0-.24-1.13,2.16,2.16,0,0,0-1-.73l-1-.4a2.29,2.29,0,0,1-.45-.23.4.4,0,0,1-.15-.41.55.55,0,0,1,.31-.47,1.69,1.69,0,0,1,.69-.13h.88c.29,0,.58,0,.86.06h.07a.1.1,0,0,0,.09-.09c0-.05,0,0,0,0l.11-.93c0-.11-.07-.16-.14-.18m-5.37,1.35a.12.12,0,0,1-.1.09H1163c-.28,0-.57-.06-.86-.07s-.59,0-.88,0a2.11,2.11,0,0,0-.69.13.57.57,0,0,0-.31.48.4.4,0,0,0,.15.41,2.62,2.62,0,0,0,.45.23l1,.4a2.16,2.16,0,0,1,1,.72,1.53,1.53,0,0,1,.24,1.14,2,2,0,0,1-.82,1.43,3.3,3.3,0,0,1-1.85.57,8.25,8.25,0,0,1-1.23,0,9.72,9.72,0,0,1-1.12-.17c-.1,0-.14-.07-.12-.17l.11-.93s0,0,0,0a.09.09,0,0,1,.11-.1h0c.31,0,.66,0,1,.06h1a1.61,1.61,0,0,0,.76-.17.61.61,0,0,0,.3-.49.44.44,0,0,0-.14-.43,1.84,1.84,0,0,0-.45-.26l-1-.38a2.4,2.4,0,0,1-1-.69,1.38,1.38,0,0,1-.25-1.11,2.08,2.08,0,0,1,.28-.86,1.9,1.9,0,0,1,.56-.6,2.56,2.56,0,0,1,.8-.37,3.94,3.94,0,0,1,1-.15,9.49,9.49,0,0,1,1.07,0,4.76,4.76,0,0,1,.9.18c.07,0,.16.06.15.18l-.12.93s0,0,0,0"/></clipPath><clipPath id="clip-path-6"><path class="cls-1" d="M1158.06,30.24c-.36,0-.45.12-.46.24s0,.15.17.15l.24,0Zm-.35.62c-.31,0-.46-.1-.42-.35s.27-.45.8-.51h0v0a.43.43,0,0,0,0-.19s-.07-.05-.15-.05a1,1,0,0,0-.46.17l0,0,0-.29h0a1.1,1.1,0,0,1,.54-.16c.2,0,.32,0,.37.16a.61.61,0,0,1,0,.31l-.11.83h-.07A3,3,0,0,1,1157.71,30.86Z"/></clipPath><clipPath id="clip-path-7"><path class="cls-1" d="M1158.87,29.27l0-.33.35,0,0,.34Zm-.19,1.54.17-1.34h.33l-.18,1.33Z"/></clipPath><clipPath id="clip-path-8"><path class="cls-1" d="M1159.72,30.8a.76.76,0,0,1-.36-.06h0l0-.32,0,0a.47.47,0,0,0,.32.1c.13,0,.22-.06.24-.14a.16.16,0,0,0-.07-.13l-.17-.08c-.24-.1-.31-.2-.29-.37a.54.54,0,0,1,.57-.42.63.63,0,0,1,.34.06h0l0,.29,0,0a.49.49,0,0,0-.29-.08c-.13,0-.22.06-.23.14s0,.09.2.17a.6.6,0,0,1,.25.15.28.28,0,0,1,.07.26.55.55,0,0,1-.59.42"/></clipPath><clipPath id="clip-path-9"><path class="cls-1" d="M1162.06,29.59a.5.5,0,0,0-.54.45c0,.28.09.42.37.41a.6.6,0,0,0,.2,0l.11-.83A.33.33,0,0,0,1162.06,29.59Zm-.09,1.74.09-.66-.25,0c-.44,0-.67-.22-.62-.63a.87.87,0,0,1,.94-.75,1.89,1.89,0,0,1,.4,0h0l-.25,2Z"/></clipPath><clipPath id="clip-path-10"><path class="cls-1" d="M1163.36,30.64a.6.6,0,0,1-.44-.1c-.08-.08-.11-.18-.08-.39l.11-.83h.33l-.11.81c0,.21,0,.28.26.27l.23,0,.14-1.07.33,0-.17,1.29h0a3.26,3.26,0,0,1-.57.07"/></clipPath><clipPath id="clip-path-11"><path class="cls-1" d="M1165.36,29.7a.22.22,0,0,0-.26-.23.39.39,0,0,0-.36.25Zm-.38.89c-.44,0-.67-.22-.62-.63a.83.83,0,0,1,.78-.75.52.52,0,0,1,.48.22.63.63,0,0,1,0,.41v.09l-1,0v0c0,.23.11.36.38.35a.8.8,0,0,0,.45-.16l0,0,0,.29h0A.93.93,0,0,1,1165,30.59Z"/></clipPath><clipPath id="clip-path-12"><path class="cls-1" d="M1166.57,30.51l.14-1.06h-.22l0-.24h.22v0a.8.8,0,0,1,.27-.58.67.67,0,0,1,.42-.16h.17l0,.25h-.14a.27.27,0,0,0-.23.11.54.54,0,0,0-.12.36v0l.35,0,0,.25H1167l-.14,1Z"/></clipPath><clipPath id="clip-path-13"><path class="cls-1" d="M1168.23,29.85c-.37,0-.45.12-.46.24s0,.16.17.15a.9.9,0,0,0,.24,0Zm-.35.63c-.31,0-.46-.11-.42-.36s.27-.45.8-.51h0v0a.38.38,0,0,0,0-.18s-.07-.06-.15-.06a.9.9,0,0,0-.46.18l-.05,0,0-.29h0a1.22,1.22,0,0,1,.54-.16c.2,0,.32,0,.37.16a.77.77,0,0,1,0,.31l-.11.83-.07,0Z"/></clipPath><clipPath id="clip-path-14"><path class="cls-1" d="M1168.85,30.42l.16-1.24h0a1.62,1.62,0,0,1,.57-.12.63.63,0,0,1,.24,0h0l0,.27,0,0a.71.71,0,0,0-.21,0,.65.65,0,0,0-.26.06l-.14,1.05Z"/></clipPath><clipPath id="clip-path-15"><path class="cls-1" d="M1171.59,30.31l.11-.83c0-.19,0-.26-.22-.25a.79.79,0,0,0-.25.05.47.47,0,0,1,0,.2l-.11.85-.32,0,.11-.84c0-.19,0-.26-.24-.25a.82.82,0,0,0-.26,0l-.14,1.07h-.32l.16-1.26h0a3,3,0,0,1,.6-.11.7.7,0,0,1,.37.08,1.29,1.29,0,0,1,.45-.11.48.48,0,0,1,.41.13.38.38,0,0,1,.07.34l-.12.86Z"/></clipPath><clipPath id="clip-path-16"><path class="cls-1" d="M1156.54,30.89l.11-.84c0-.19,0-.26-.22-.25a.74.74,0,0,0-.24.05,1.72,1.72,0,0,1,0,.2l-.11.86h-.33l.11-.84c0-.19,0-.26-.24-.25l-.25.05-.14,1.06h-.33l.17-1.26h0a2,2,0,0,1,.61-.11.58.58,0,0,1,.36.07,1.09,1.09,0,0,1,.46-.1.5.5,0,0,1,.41.12.38.38,0,0,1,.06.35l-.11.86Z"/></clipPath><clipPath id="clip-path-17"><path class="cls-1" d="M1172.79,28.79l.57-.59.3,0-.64.6Zm.26.88c-.36,0-.44.12-.46.24s0,.15.17.15l.24,0Zm-.35.62c-.31,0-.45-.11-.42-.35s.27-.45.8-.51h0v0a.55.55,0,0,0,0-.19s-.07,0-.15,0a.9.9,0,0,0-.46.17l0,0,0-.3h0a1.24,1.24,0,0,1,.55-.17c.19,0,.31.05.36.17a.57.57,0,0,1,0,.31l-.11.83h-.08A3,3,0,0,1,1172.7,30.29Z"/></clipPath><clipPath id="clip-path-18"><path class="cls-1" d="M1174.29,30.24c-.44,0-.68-.24-.63-.64a.87.87,0,0,1,1.18-.68h0l0,.29,0,0a.47.47,0,0,0-.29-.08.48.48,0,0,0-.49.46.32.32,0,0,0,.37.41.54.54,0,0,0,.34-.12l0,0,0,.29h0a1,1,0,0,1-.41.11"/></clipPath><clipPath id="clip-path-19"><path class="cls-1" d="M1175.16,28.65l0-.33.34,0,0,.34Zm-.19,1.54.18-1.34h.32l-.17,1.33Z"/></clipPath><clipPath id="clip-path-20"><path class="cls-1" d="M1176.44,29.54c-.37,0-.45.12-.46.24s0,.15.17.15l.24,0Zm-.35.62c-.32,0-.46-.1-.43-.35s.28-.45.81-.51h0v0a.43.43,0,0,0,0-.19s-.07-.05-.15-.05a1,1,0,0,0-.46.17l-.06,0,0-.29h0a1.21,1.21,0,0,1,.54-.17c.2,0,.32,0,.37.17a.75.75,0,0,1,0,.31l-.11.83h-.08A2.76,2.76,0,0,1,1176.09,30.16Z"/></clipPath><clipPath id="clip-path-21"><path class="cls-1" d="M1144.87,25.26l-.55,3.1a4.35,4.35,0,0,0,2.8-3.19Z"/></clipPath><clipPath id="clip-path-22"><path class="cls-1" d="M1145.25,23.25l1.67-.06a4.17,4.17,0,0,0-1.35-1.75Z"/></clipPath><clipPath id="clip-path-23"><path class="cls-1" d="M1142.49,27c.13-.51.3-1.37,1.88-1.71.13,0,.12-.06,0,0l-5.1.19c0-.27.19-1.1.25-1.41.1-.51.36-.61.83-.62l2.78-.11.51-2.77a5.59,5.59,0,0,0-1.49-.15c-2.68.11-4.78,2.05-4.69,4.36s2.15,3.93,4.67,4Z"/></clipPath><clipPath id="clip-path-24"><polygon class="cls-1" points="1158.49 110.52 1127.95 108.12 1128.25 104.36 1154.72 106.45 1154.63 59.31 1158.4 59.3 1158.49 110.52"/></clipPath><clipPath id="clip-path-25"><rect class="cls-2" x="1168.64" y="95.58" width="3.76" height="27.92" transform="translate(973 1268.46) rotate(-85.67)"/></clipPath><clipPath id="clip-path-26"><path class="cls-1" d="M1162.16,93.85a1.88,1.88,0,0,1-1-3.5l1-.61v-1.9l-1.52-1.27a1.88,1.88,0,0,1,2.41-2.89l2.2,1.84A1.88,1.88,0,0,1,1166,87v3.85a1.86,1.86,0,0,1-.92,1.61l-2,1.16a1.86,1.86,0,0,1-1,.27"/></clipPath><clipPath id="clip-path-27"><path class="cls-1" d="M1150.42,93.31a1.84,1.84,0,0,1-1-.26l-2-1.16a1.89,1.89,0,0,1-.92-1.62V86.42a1.86,1.86,0,0,1,.68-1.44l2.2-1.83a1.88,1.88,0,1,1,2.4,2.89l-1.52,1.26v1.9l1,.61a1.88,1.88,0,0,1-1,3.5"/></clipPath><clipPath id="clip-path-28"><path class="cls-2" d="M841.49,484H758l35.55-33.82a3.28,3.28,0,0,0,0-4.93,3.7,3.7,0,0,0-5.18,0L746.3,485a3.29,3.29,0,0,0,0,4.93l41.85,39.81a3.71,3.71,0,0,0,5.19,0,3.29,3.29,0,0,0,0-4.93L758,491h83.52a3.53,3.53,0,1,0,0-7Z"/></clipPath><clipPath id="clip-path-29"><path class="cls-2" d="M600.89,484h83.52l-35.55-33.82a3.29,3.29,0,0,1,0-4.93,3.7,3.7,0,0,1,5.18,0l42,39.81a3.29,3.29,0,0,1,0,4.93l-41.85,39.81a3.71,3.71,0,0,1-5.19,0,3.29,3.29,0,0,1,0-4.93L684.41,491H600.89a3.53,3.53,0,1,1,0-7Z"/></clipPath></defs><title>icons</title><path class="cls-2" d="M108.94,65.26a2.37,2.37,0,0,0-1-2.29c-1.41-1.13-2.86-2.3-4.58-3.73l-1.47-1.18,0,0,0,0-.88-.58-1.55-1v45.05c0,.15,0,.32,0,.45H83.56v-4a82.58,82.58,0,0,0-.3-8.56A19.08,19.08,0,0,0,64.17,72.43h-.93A20,20,0,0,0,44.5,92.08v9.66c0,.14,0,.32,0,.45H29c0-.14,0-.3,0-.45V56.39l-1.55,1-.88.58,0,0,0,0-1.75,1.46,0,0,0,0a19.61,19.61,0,0,1-2.58,2L21,62.4a3.63,3.63,0,0,0-1.58,3.15v40c0,1.17,0,4.74,3.92,5.92l.14,0H50l.14,0c3.93-1.18,3.93-4.75,3.93-5.92v-14a9.8,9.8,0,0,1,9.79-9.79,10.32,10.32,0,0,1,7.17,2.91l0,0,0,0a9.64,9.64,0,0,1,3.16,7.42v13.71c0,1.17,0,4.74,3.93,5.92l.14,0h26.54l.14,0a4.83,4.83,0,0,0,3.64-5.4V93C108.94,83.66,108.94,74.72,108.94,65.26Z"/><path class="cls-2" d="M125.21,61.68a9,9,0,0,0-2.95-3.93c-2.29-1.75-10-7.84-18.89-14.88-10.41-8.23-22.2-17.56-29.24-23l-6.08-4.92a5.25,5.25,0,0,0-7.75,0L45.47,26.54C38.9,31.8,32.15,37.06,25.63,42.15S12.35,52.51,5.77,57.77A5.38,5.38,0,0,0,3.36,62,4,4,0,0,0,5.7,66.47a4.67,4.67,0,0,0,2.16.38,5.66,5.66,0,0,0,3.87-1.71L57.21,29.28l6.41-5,.05,0,0-.05a1.74,1.74,0,0,1,.36-.29l.19.12c.15.09.33.2.54.31l52.11,41.05a7.47,7.47,0,0,0,3.63,1.68l.12,0h.12a4.35,4.35,0,0,0,4.16-3.31l0-.06v-.06l.29-1.46.06-.29Zm-4.43,4.46Z"/><path class="cls-3" d="M1195.62,115h-.16l-11-.92a1.88,1.88,0,0,1-1.72-1.87V67.91A6.43,6.43,0,0,0,1181,63a6.64,6.64,0,0,0-4.5-1.45,1,1,0,0,1-.17,0L1128.82,61v46.91a1.85,1.85,0,0,1-.61,1.38,1.9,1.9,0,0,1-1.42.5l-9.25-.74a1.88,1.88,0,0,1-1.74-1.89c0-.29.28-29.76.22-36.75a14.81,14.81,0,0,1,3.35-9.34h-5.9a3.56,3.56,0,0,1-3.26-2.65,2.1,2.1,0,0,1-.08-.56V51.79c0-3,1.89-4.31,3-4.57a1.44,1.44,0,0,1,.41,0l67.22-.92a1.18,1.18,0,0,1,.26,0c15.86,2,16.66,15.92,16.66,16.06v.09l-.18,50.74a1.87,1.87,0,0,1-1.88,1.87Zm-9.11-4.52,7.23.6.18-48.64c-.05-.78-.94-10.83-13.25-12.45l-66.6.9a1.66,1.66,0,0,0-.18.87v5.54H1124a1.87,1.87,0,0,1,1.43.66l.18-.21a1.84,1.84,0,0,1,1.35-.54l49.38.55a10.4,10.4,0,0,1,7.22,2.41c2,1.8,3,4.39,3,7.71Zm-66.93-5.05,5.47.44V60.77h0s-5.32,3.68-5.27,9.62S1119.64,99,1119.58,105.46Z"/><g class="cls-4"><rect class="cls-2" x="-3387.65" y="-2468.9" width="6348.4" height="5052.27"/></g><path class="cls-3" d="M1200.74,111.56H1197V62c-.09-1-1.31-11.31-12-12.12l.29-3.76c11.42.87,15.13,10.63,15.5,15.66v49.83Z"/><g class="cls-5"><rect class="cls-2" x="-3387.65" y="-2468.9" width="6348.4" height="5052.27"/></g><path class="cls-3" d="M1121.13,44a1.88,1.88,0,0,1-1.88-1.87l-.12-19.84a1.88,1.88,0,0,1,1.82-1.89l9.65-.31h.09l3.42.06a1.88,1.88,0,1,1-.07,3.76l-3.37-.06-7.76.25.11,18a1.88,1.88,0,0,1-1.87,1.89Z"/><g class="cls-6"><rect class="cls-2" x="-3387.65" y="-2468.9" width="6348.4" height="5052.27"/></g><path class="cls-3" d="M1136.77,37h-.46a5.05,5.05,0,0,1-4.15-1.76,4.52,4.52,0,0,1-.8-3.49l.83-9.69c-.07-2.53.62-4.43,2.07-5.65a6,6,0,0,1,4.7-1.19l41.84-2,.23,0c2.51.51,4.26,1.53,5.19,3a4.37,4.37,0,0,1,.64,3.1c-.11,1.41-.78,9.73-1.45,12.36a5.76,5.76,0,0,1-4.77,4.33h-.18c-1.59,0-37.91.92-43.69.92m1.2-18.09a2,2,0,0,0-1.31.4A3.61,3.61,0,0,0,1136,22v.12l-.91,10.28a1,1,0,0,0,.08.5,1.93,1.93,0,0,0,1.24.3c3.65.06,41.35-.86,43.87-.92a2,2,0,0,0,1.53-1.52c.52-2,1.15-9.22,1.35-11.82l0-.32c0-.54-.81-1.26-2.65-1.68l-41.83,2-.23-.05a2.33,2.33,0,0,0-.48,0"/><g class="cls-7"><rect class="cls-2" x="-3387.65" y="-2468.9" width="6348.4" height="5052.27"/></g><path class="cls-3" d="M1173.45,22.05a1.15,1.15,0,0,0-.93-.27,1.64,1.64,0,0,0-1,.4,2.16,2.16,0,0,0-.61,1.23s0,.11,0,.18l2-.06c.51,0,.79-.17.86-.61a1,1,0,0,0-.2-.87m1.83,1a1.43,1.43,0,0,1-.61,1.08,2.62,2.62,0,0,1-1.42.4,9,9,0,0,1-1.86,0c-.38-.07-.51-.65-.56-.81a3.89,3.89,0,0,0-.08,1.09,1.17,1.17,0,0,0,.5,1,2.25,2.25,0,0,0,1.22.24c.32,0,.66,0,1-.08a8,8,0,0,0,.81-.11h0c.06,0,.14,0,.13.12l-.11.82c0,.06,0,.1-.11.13a6.84,6.84,0,0,1-1.06.25,8.49,8.49,0,0,1-1.08.12,4.64,4.64,0,0,1-1.53-.16,2,2,0,0,1-1-.59,2.08,2.08,0,0,1-.46-1,4.76,4.76,0,0,1,0-1.37l0-.41a3.86,3.86,0,0,1,1-2.32,3.58,3.58,0,0,1,2.51-.93,2.56,2.56,0,0,1,2.07.64,2.3,2.3,0,0,1,.47,1.92m-22.43-1.73-4.46.16c-.29,0-.39.21-.43.49s-.08.59-.11.83.09.31.3.3h.39l1.39-.05c.12,0,0,0,0,.05a2.35,2.35,0,0,0-1.28,1.89c0,.21-.34,2.67-.34,2.67a.89.89,0,0,0,0,.15c0,.24.14.29.23.28l.9,0h.08c.35,0,.44-.11.49-.46.06-.51.54-4.28.57-4.57l1,0c.48,0,1.06-.07,1.33.26s.22.71.16,1.26l-.38,3c0,.05,0,.11,0,.15,0,.24.14.29.23.28l.89,0h.08c.35,0,.45-.11.49-.46,0-.13.48-3.76.51-4a1.86,1.86,0,0,0-2.07-2.06M1177.9,21c0-.24,0-.66-.48-.64l-.81,0a.42.42,0,0,0-.39.36l-.73,5.88c-.06.32,0,.44.21.44l1.17-.05a.33.33,0,0,0,.32-.28l.09-.71s.24-1.91.43-3.5a.3.3,0,0,0-.34-.37l-.95,0h-.09c.51-.09,1.49-.53,1.57-1.19M1157.26,23l-1,0h-.08c.51-.09,1.48-.53,1.56-1.19,0-.24,0-.66-.47-.64l-.81,0a.43.43,0,0,0-.4.35l-.73,5.89c-.05.32.06.44.22.43l1.17,0a.35.35,0,0,0,.31-.29l.1-.7s.23-1.92.43-3.51a.31.31,0,0,0-.35-.36m11.31-2.06a4.24,4.24,0,0,0-.9-.17,6.44,6.44,0,0,0-1.08,0,4.37,4.37,0,0,0-1,.14,2.57,2.57,0,0,0-.8.37,1.89,1.89,0,0,0-.56.6,2.24,2.24,0,0,0-.29.86,1.45,1.45,0,0,0,.25,1.11,2.36,2.36,0,0,0,1.06.69l1,.38a1.74,1.74,0,0,1,.46.27.46.46,0,0,1,.14.43.65.65,0,0,1-.3.49,1.62,1.62,0,0,1-.76.16c-.32,0-.67,0-1,0s-.73,0-1-.06h0a.1.1,0,0,0-.12.09v0l-.12.93a.14.14,0,0,0,.13.18,9.43,9.43,0,0,0,1.12.16,9.79,9.79,0,0,0,1.23,0,3.32,3.32,0,0,0,1.84-.57,2,2,0,0,0,.83-1.44,1.55,1.55,0,0,0-.24-1.13,2.16,2.16,0,0,0-1-.73l-1-.4a2.29,2.29,0,0,1-.45-.23.4.4,0,0,1-.15-.41.55.55,0,0,1,.31-.47,1.69,1.69,0,0,1,.69-.13h.88c.29,0,.58,0,.86.06h.07a.1.1,0,0,0,.09-.09c0-.05,0,0,0,0l.11-.93c0-.11-.07-.16-.14-.18m-5.37,1.35a.12.12,0,0,1-.1.09H1163c-.28,0-.57-.06-.86-.07s-.59,0-.88,0a2.11,2.11,0,0,0-.69.13.57.57,0,0,0-.31.48.4.4,0,0,0,.15.41,2.62,2.62,0,0,0,.45.23l1,.4a2.16,2.16,0,0,1,1,.72,1.53,1.53,0,0,1,.24,1.14,2,2,0,0,1-.82,1.43,3.3,3.3,0,0,1-1.85.57,8.25,8.25,0,0,1-1.23,0,9.72,9.72,0,0,1-1.12-.17c-.1,0-.14-.07-.12-.17l.11-.93s0,0,0,0a.09.09,0,0,1,.11-.1h0c.31,0,.66,0,1,.06h1a1.61,1.61,0,0,0,.76-.17.61.61,0,0,0,.3-.49.44.44,0,0,0-.14-.43,1.84,1.84,0,0,0-.45-.26l-1-.38a2.4,2.4,0,0,1-1-.69,1.38,1.38,0,0,1-.25-1.11,2.08,2.08,0,0,1,.28-.86,1.9,1.9,0,0,1,.56-.6,2.56,2.56,0,0,1,.8-.37,3.94,3.94,0,0,1,1-.15,9.49,9.49,0,0,1,1.07,0,4.76,4.76,0,0,1,.9.18c.07,0,.16.06.15.18l-.12.93s0,0,0,0"/><g class="cls-8"><rect class="cls-2" x="-3387.65" y="-2468.9" width="6348.4" height="5052.27"/></g><path class="cls-3" d="M1158.06,30.24c-.36,0-.45.12-.46.24s0,.15.17.15l.24,0Zm-.35.62c-.31,0-.46-.1-.42-.35s.27-.45.8-.51h0v0a.43.43,0,0,0,0-.19s-.07-.05-.15-.05a1,1,0,0,0-.46.17l0,0,0-.29h0a1.1,1.1,0,0,1,.54-.16c.2,0,.32,0,.37.16a.61.61,0,0,1,0,.31l-.11.83h-.07A3,3,0,0,1,1157.71,30.86Z"/><g class="cls-9"><rect class="cls-2" x="-3387.65" y="-2468.9" width="6348.4" height="5052.27"/></g><path class="cls-3" d="M1158.87,29.27l0-.33.35,0,0,.34Zm-.19,1.54.17-1.34h.33l-.18,1.33Z"/><g class="cls-10"><rect class="cls-2" x="-3387.65" y="-2468.9" width="6348.4" height="5052.27"/></g><path class="cls-3" d="M1159.72,30.8a.76.76,0,0,1-.36-.06h0l0-.32,0,0a.47.47,0,0,0,.32.1c.13,0,.22-.06.24-.14a.16.16,0,0,0-.07-.13l-.17-.08c-.24-.1-.31-.2-.29-.37a.54.54,0,0,1,.57-.42.63.63,0,0,1,.34.06h0l0,.29,0,0a.49.49,0,0,0-.29-.08c-.13,0-.22.06-.23.14s0,.09.2.17a.6.6,0,0,1,.25.15.28.28,0,0,1,.07.26.55.55,0,0,1-.59.42"/><g class="cls-11"><rect class="cls-2" x="-3387.65" y="-2468.9" width="6348.4" height="5052.27"/></g><path class="cls-3" d="M1162.06,29.59a.5.5,0,0,0-.54.45c0,.28.09.42.37.41a.6.6,0,0,0,.2,0l.11-.83A.33.33,0,0,0,1162.06,29.59Zm-.09,1.74.09-.66-.25,0c-.44,0-.67-.22-.62-.63a.87.87,0,0,1,.94-.75,1.89,1.89,0,0,1,.4,0h0l-.25,2Z"/><g class="cls-12"><rect class="cls-2" x="-3387.65" y="-2468.9" width="6348.4" height="5052.27"/></g><path class="cls-3" d="M1163.36,30.64a.6.6,0,0,1-.44-.1c-.08-.08-.11-.18-.08-.39l.11-.83h.33l-.11.81c0,.21,0,.28.26.27l.23,0,.14-1.07.33,0-.17,1.29h0a3.26,3.26,0,0,1-.57.07"/><g class="cls-13"><rect class="cls-2" x="-3387.65" y="-2468.9" width="6348.4" height="5052.27"/></g><path class="cls-3" d="M1165.36,29.7a.22.22,0,0,0-.26-.23.39.39,0,0,0-.36.25Zm-.38.89c-.44,0-.67-.22-.62-.63a.83.83,0,0,1,.78-.75.52.52,0,0,1,.48.22.63.63,0,0,1,0,.41v.09l-1,0v0c0,.23.11.36.38.35a.8.8,0,0,0,.45-.16l0,0,0,.29h0A.93.93,0,0,1,1165,30.59Z"/><g class="cls-14"><rect class="cls-2" x="-3387.65" y="-2468.9" width="6348.4" height="5052.27"/></g><path class="cls-3" d="M1166.57,30.51l.14-1.06h-.22l0-.24h.22v0a.8.8,0,0,1,.27-.58.67.67,0,0,1,.42-.16h.17l0,.25h-.14a.27.27,0,0,0-.23.11.54.54,0,0,0-.12.36v0l.35,0,0,.25H1167l-.14,1Z"/><g class="cls-15"><rect class="cls-2" x="-3387.65" y="-2468.9" width="6348.4" height="5052.27"/></g><path class="cls-3" d="M1168.23,29.85c-.37,0-.45.12-.46.24s0,.16.17.15a.9.9,0,0,0,.24,0Zm-.35.63c-.31,0-.46-.11-.42-.36s.27-.45.8-.51h0v0a.38.38,0,0,0,0-.18s-.07-.06-.15-.06a.9.9,0,0,0-.46.18l-.05,0,0-.29h0a1.22,1.22,0,0,1,.54-.16c.2,0,.32,0,.37.16a.77.77,0,0,1,0,.31l-.11.83-.07,0Z"/><g class="cls-16"><rect class="cls-2" x="-3387.65" y="-2468.9" width="6348.4" height="5052.27"/></g><path class="cls-3" d="M1168.85,30.42l.16-1.24h0a1.62,1.62,0,0,1,.57-.12.63.63,0,0,1,.24,0h0l0,.27,0,0a.71.71,0,0,0-.21,0,.65.65,0,0,0-.26.06l-.14,1.05Z"/><g class="cls-17"><rect class="cls-2" x="-3387.65" y="-2468.9" width="6348.4" height="5052.27"/></g><path class="cls-3" d="M1171.59,30.31l.11-.83c0-.19,0-.26-.22-.25a.79.79,0,0,0-.25.05.47.47,0,0,1,0,.2l-.11.85-.32,0,.11-.84c0-.19,0-.26-.24-.25a.82.82,0,0,0-.26,0l-.14,1.07h-.32l.16-1.26h0a3,3,0,0,1,.6-.11.7.7,0,0,1,.37.08,1.29,1.29,0,0,1,.45-.11.48.48,0,0,1,.41.13.38.38,0,0,1,.07.34l-.12.86Z"/><g class="cls-18"><rect class="cls-2" x="-3387.65" y="-2468.9" width="6348.4" height="5052.27"/></g><path class="cls-3" d="M1156.54,30.89l.11-.84c0-.19,0-.26-.22-.25a.74.74,0,0,0-.24.05,1.72,1.72,0,0,1,0,.2l-.11.86h-.33l.11-.84c0-.19,0-.26-.24-.25l-.25.05-.14,1.06h-.33l.17-1.26h0a2,2,0,0,1,.61-.11.58.58,0,0,1,.36.07,1.09,1.09,0,0,1,.46-.1.5.5,0,0,1,.41.12.38.38,0,0,1,.06.35l-.11.86Z"/><g class="cls-19"><rect class="cls-2" x="-3387.65" y="-2468.9" width="6348.4" height="5052.27"/></g><path class="cls-3" d="M1172.79,28.79l.57-.59.3,0-.64.6Zm.26.88c-.36,0-.44.12-.46.24s0,.15.17.15l.24,0Zm-.35.62c-.31,0-.45-.11-.42-.35s.27-.45.8-.51h0v0a.55.55,0,0,0,0-.19s-.07,0-.15,0a.9.9,0,0,0-.46.17l0,0,0-.3h0a1.24,1.24,0,0,1,.55-.17c.19,0,.31.05.36.17a.57.57,0,0,1,0,.31l-.11.83h-.08A3,3,0,0,1,1172.7,30.29Z"/><g class="cls-20"><rect class="cls-2" x="-3387.65" y="-2468.9" width="6348.4" height="5052.27"/></g><path class="cls-3" d="M1174.29,30.24c-.44,0-.68-.24-.63-.64a.87.87,0,0,1,1.18-.68h0l0,.29,0,0a.47.47,0,0,0-.29-.08.48.48,0,0,0-.49.46.32.32,0,0,0,.37.41.54.54,0,0,0,.34-.12l0,0,0,.29h0a1,1,0,0,1-.41.11"/><g class="cls-21"><rect class="cls-2" x="-3387.65" y="-2468.9" width="6348.4" height="5052.27"/></g><path class="cls-3" d="M1175.16,28.65l0-.33.34,0,0,.34Zm-.19,1.54.18-1.34h.32l-.17,1.33Z"/><g class="cls-22"><rect class="cls-2" x="-3387.65" y="-2468.9" width="6348.4" height="5052.27"/></g><path class="cls-3" d="M1176.44,29.54c-.37,0-.45.12-.46.24s0,.15.17.15l.24,0Zm-.35.62c-.32,0-.46-.1-.43-.35s.28-.45.81-.51h0v0a.43.43,0,0,0,0-.19s-.07-.05-.15-.05a1,1,0,0,0-.46.17l-.06,0,0-.29h0a1.21,1.21,0,0,1,.54-.17c.2,0,.32,0,.37.17a.75.75,0,0,1,0,.31l-.11.83h-.08A2.76,2.76,0,0,1,1176.09,30.16Z"/><g class="cls-23"><rect class="cls-2" x="-3387.65" y="-2468.9" width="6348.4" height="5052.27"/></g><path class="cls-3" d="M1144.87,25.26l-.55,3.1a4.35,4.35,0,0,0,2.8-3.19Z"/><g class="cls-24"><rect class="cls-2" x="-3387.65" y="-2468.9" width="6348.4" height="5052.27"/></g><path class="cls-3" d="M1145.25,23.25l1.67-.06a4.17,4.17,0,0,0-1.35-1.75Z"/><g class="cls-25"><rect class="cls-2" x="-3387.65" y="-2468.9" width="6348.4" height="5052.27"/></g><path class="cls-3" d="M1142.49,27c.13-.51.3-1.37,1.88-1.71.13,0,.12-.06,0,0l-5.1.19c0-.27.19-1.1.25-1.41.1-.51.36-.61.83-.62l2.78-.11.51-2.77a5.59,5.59,0,0,0-1.49-.15c-2.68.11-4.78,2.05-4.69,4.36s2.15,3.93,4.67,4Z"/><g class="cls-26"><rect class="cls-2" x="-3387.65" y="-2468.9" width="6348.4" height="5052.27"/></g><polygon class="cls-3" points="1158.49 110.52 1127.95 108.12 1128.25 104.36 1154.72 106.45 1154.63 59.31 1158.4 59.3 1158.49 110.52"/><g class="cls-27"><rect class="cls-2" x="-3387.65" y="-2468.9" width="6348.4" height="5052.27"/></g><rect class="cls-2" x="1168.64" y="95.58" width="3.76" height="27.92" transform="translate(973 1268.46) rotate(-85.67)"/><g class="cls-28"><rect class="cls-2" x="-3387.65" y="-2468.9" width="6348.4" height="5052.27"/></g><path class="cls-3" d="M1162.16,93.85a1.88,1.88,0,0,1-1-3.5l1-.61v-1.9l-1.52-1.27a1.88,1.88,0,0,1,2.41-2.89l2.2,1.84A1.88,1.88,0,0,1,1166,87v3.85a1.86,1.86,0,0,1-.92,1.61l-2,1.16a1.86,1.86,0,0,1-1,.27"/><g class="cls-29"><rect class="cls-2" x="-3387.65" y="-2468.9" width="6348.4" height="5052.27"/></g><path class="cls-3" d="M1150.42,93.31a1.84,1.84,0,0,1-1-.26l-2-1.16a1.89,1.89,0,0,1-.92-1.62V86.42a1.86,1.86,0,0,1,.68-1.44l2.2-1.83a1.88,1.88,0,1,1,2.4,2.89l-1.52,1.26v1.9l1,.61a1.88,1.88,0,0,1-1,3.5"/><g class="cls-30"><rect class="cls-2" x="-3387.65" y="-2468.9" width="6348.4" height="5052.27"/></g><path class="cls-2" d="M841.49,484H758l35.55-33.82a3.28,3.28,0,0,0,0-4.93,3.7,3.7,0,0,0-5.18,0L746.3,485a3.29,3.29,0,0,0,0,4.93l41.85,39.81a3.71,3.71,0,0,0,5.19,0,3.29,3.29,0,0,0,0-4.93L758,491h83.52a3.53,3.53,0,1,0,0-7Z"/><g class="cls-31"><rect class="cls-2" x="45.19" y="-2249.16" width="9600" height="25640"/></g><path class="cls-2" d="M600.89,484h83.52l-35.55-33.82a3.29,3.29,0,0,1,0-4.93,3.7,3.7,0,0,1,5.18,0l42,39.81a3.29,3.29,0,0,1,0,4.93l-41.85,39.81a3.71,3.71,0,0,1-5.19,0,3.29,3.29,0,0,1,0-4.93L684.41,491H600.89a3.53,3.53,0,1,1,0-7Z"/><g class="cls-32"><rect class="cls-2" x="-8202.81" y="-2249.16" width="9600" height="25640"/></g></svg>