<?xml version="1.0" encoding="utf-8"?>
<!-- Generator: Adobe Illustrator 23.0.6, SVG Export Plug-In . SVG Version: 6.00 Build 0)  -->
<svg version="1.1" id="Layer_1" xmlns="http://www.w3.org/2000/svg" xmlns:xlink="http://www.w3.org/1999/xlink" x="0px" y="0px"
	 viewBox="0 0 128 60" style="enable-background:new 0 0 128 60;" xml:space="preserve">
<style type="text/css">
	.st0{fill:#8A9297;}
</style>
<title>icons</title>
<path class="st0" d="M23.4,13.3C10.5,13.3,0,20.2,0,28.7v0.9c0,9,9.2,16.2,23.4,16.2s23.4-7.2,23.4-16.2v-0.9
	C46.9,20.2,36.4,13.3,23.4,13.3z M21.7,38.5c-1.1,0-1.9-0.8-2-1.9c0-0.2,0-0.2-0.2-0.1c-0.4,0.5-1.1,0.6-1.6,0.3
	c-0.7-0.2-1.2-0.9-1.1-1.6c0-0.1,0-0.2-0.1-0.1c-0.4,0.3-1,0.4-1.5,0.2c-0.9-0.4-1.5-1.4-1.3-2.3l0,0c-0.6,0.6-1.6,0.6-2.2,0
	c-0.3-0.3-0.4-0.7-0.4-1.1c0-0.9,0.7-1.6,1.6-1.6c0,0,0,0,0,0c0.8,0,1.4,0.6,1.5,1.4c0.5-0.8,1.5-1.2,2.4-0.9
	c0.6,0.2,1.1,0.8,1.1,1.5c0,0.1,0,0.1,0.1,0c0.5-0.5,1.3-0.7,2-0.3c1.4,0.6,0.9,2.4,0.8,2.5s-0.1,0.3-0.1,0.3c0.3-0.1,0.7-0.2,1-0.2
	c1.1,0,2,0.9,2,2s-0.9,2-2,2L21.7,38.5z M35.5,33.1c-0.6,0.4-1.4,0.4-2,0c0,0-2.5-2.2-3.4-3C30,30,29.8,29.9,29.8,30
	s0.2,0.4,0.2,0.4l2.9,2.9c0.2,0.2,0.4,0.5,0.5,0.9c0,0.5-0.3,1.1-0.8,1.3c-0.6,0.4-1.4,0.5-2,0.1c-0.9-0.9-1.9-1.8-2.5-2.4
	c-0.1-0.1-0.3-0.2-0.4-0.2s0.2,0.4,0.2,0.4l2.1,2.4c0.3,0.4,0.3,0.8,0,1.2l0,0c-0.1,0.1-0.2,0.2-0.3,0.3c-0.4,0.3-0.9,0.4-1.4,0.3
	c-0.4-0.1-0.5-0.2-0.5-0.2s-1.1-1.2-2-1.9c-0.1-0.1-0.3-0.3-0.4-0.2s0.2,0.4,0.2,0.4l1.8,2c0.1,0.1,0,0.2-0.1,0.3
	c-0.3,0.3-0.6,0.4-1,0.4c-0.8,0-1.5-0.2-2.2-0.6c0.7-1.2,0.2-2.8-1-3.4c-0.4-0.2-0.8-0.3-1.2-0.3h-0.3c0.2-1-0.3-2.1-1.3-2.6
	c-0.3-0.1-0.7-0.2-1.1-0.2c-0.3,0-0.6,0.1-0.9,0.2c-0.2-0.6-0.7-1-1.3-1.2c-0.3-0.1-0.6-0.2-0.9-0.2c-0.6,0-1.1,0.2-1.5,0.5
	c-0.7-1-2-1.2-3-0.5c-0.1,0.1-0.3,0.2-0.4,0.3c-0.4-0.3-2.4-1.8-8.8-3.2c-0.3-0.1-0.9-0.2-1.3-0.4c0.7-3.1,2.6-5.9,5.3-7.7
	c1.9,0.9,3.8,1.6,5.8,2.1c0.7,0.2,1.4,0.3,2.2,0.3c0.7,0,1.4-0.2,2.1-0.4c0.6-0.2,1.2-0.3,1.8-0.4l-0.7,0.7l-2,2.2
	c-0.3,0.2-0.4,0.6-0.2,0.9c0.1,0.2,0.3,0.4,0.5,0.5c0.9,0.5,1.9,0.6,2.8,0.4c0.9-0.4,1.8-0.9,2.5-1.6c0.8-0.7,1.7-1.2,2.6-1.6
	c0.3-0.1,0.7-0.1,1-0.1c0.7,0.1,1.4,0.5,2,1c1.6,1.2,8.9,7.5,8.9,7.6c0.3,0.3,0.5,0.7,0.5,1.2C36.1,32.5,35.9,32.9,35.5,33.1z
	 M35.9,30.3c-1.1-0.9-7.3-6.3-8.8-7.5c-0.5-0.4-1.1-0.8-1.8-1c-0.6-0.2-1.3-0.2-1.9,0c-1,0.4-1.9,1-2.7,1.7
	c-0.7,0.6-1.5,1.1-2.3,1.5c-0.9,0.3-1.8,0.1-2.6-0.5c-0.1-0.2,0.1-0.4,0.1-0.4l2-2.1c1.5-1.6,3-3,6.4-3.1c1.6,0,3.2,0.4,4.6,1
	c4.3,2.1,8.6,1.3,12.2-0.2c2.4,1.8,4.1,4.4,4.7,7.4C42.5,27.9,39.1,28.9,35.9,30.3z"/>
<path class="st0" d="M126.7,18.9c-2.1-2.1-5.6-2.1-7.7,0c-1.7,2.2-1.7,5.3,0,7.5c2.1,2.1,5.6,2.1,7.7,0
	C128.4,24.2,128.4,21.1,126.7,18.9z M124.6,25c-0.8,1-2.3,1.1-3.3,0.3c-0.1-0.1-0.2-0.2-0.3-0.3c-0.8-1.4-0.8-3.2,0-4.6
	c0.8-1,2.3-1.1,3.3-0.2c0.1,0.1,0.2,0.2,0.2,0.2C125.5,21.8,125.5,23.5,124.6,25z"/>
<path class="st0" d="M105.1,18c-0.9-0.5-1.9-0.7-2.9-0.7c-1.3-0.1-2.7,0.3-3.6,1.3c-0.5,0.6-0.7,1.4-0.7,2.2h2.5
	c0-0.3,0.2-0.7,0.4-0.9c0.4-0.3,0.8-0.5,1.3-0.5c0.4,0,0.9,0.1,1.3,0.2c0.3,0.2,0.5,0.5,0.4,0.8c0,0.3-0.2,0.7-0.6,0.8
	c-0.3,0.1-0.7,0.2-1,0.2l-0.9,0.1c-0.8,0.1-1.6,0.3-2.3,0.7c-1,0.5-1.5,1.6-1.4,2.7c-0.1,0.8,0.3,1.6,0.9,2.2
	c0.6,0.5,1.4,0.8,2.3,0.8c5.7,0.3,5.7-3,5.7-3.7v-3.8C106.6,19.5,106,18.5,105.1,18z M103.8,23.7c0.1,0.7-0.2,1.4-0.8,1.8
	c-0.5,0.3-1,0.5-1.6,0.5c-0.3,0-0.7-0.1-0.9-0.3c-0.3-0.3-0.4-0.6-0.4-1c0-0.5,0.2-0.9,0.6-1.1c0.4-0.2,0.8-0.3,1.2-0.3l0.6-0.1
	c0.2,0,0.5-0.1,0.7-0.2c0.2-0.1,0.4-0.1,0.5-0.2L103.8,23.7z"/>
<path class="st0" d="M92,19.6c0.6,0,1.1,0.2,1.4,0.6c0.2,0.3,0.4,0.6,0.4,1h2.8c0-1.2-0.6-2.3-1.5-3c-1-0.6-2.1-0.9-3.2-0.8
	c-1.4-0.1-2.7,0.4-3.7,1.4c-0.9,1.1-1.4,2.5-1.3,4c-0.1,1.4,0.3,2.7,1.2,3.8c1,1,2.4,1.5,3.8,1.4c1.5,0.1,2.9-0.5,3.8-1.7
	c0.5-0.6,0.8-1.4,0.9-2.3h-2.8c0,0.5-0.2,0.9-0.5,1.3c-0.4,0.4-0.9,0.6-1.4,0.5c-0.8,0-1.6-0.5-1.9-1.2c-0.2-0.6-0.3-1.2-0.3-1.8
	c0-0.6,0.1-1.3,0.3-1.8C90.4,20.1,91.2,19.5,92,19.6z"/>
<path class="st0" d="M86.1,20h0.4v-2.6h-0.2h-0.1c-5.8,0-5.5,5.1-5.5,5.1v5.2h2.6v-4.9c0-0.6,0.1-1.2,0.3-1.8c0.5-0.7,1.3-1.1,2.1-1
	L86.1,20z"/>
<path class="st0" d="M74.6,28c1.4,0.1,2.8-0.4,3.8-1.5c0.4-0.4,0.7-0.9,0.9-1.5h-2.8c-0.1,0.1-0.2,0.3-0.4,0.4
	c-0.4,0.3-1,0.4-1.5,0.4c-0.5,0-1-0.1-1.4-0.3c-0.7-0.5-1.1-1.3-1.1-2.1h7.3c0-0.7,0-1.3-0.1-2c-0.1-0.7-0.4-1.5-0.8-2.1
	c-0.4-0.7-1-1.2-1.7-1.5c-0.7-0.3-1.5-0.5-2.3-0.5c-1.3-0.1-2.6,0.4-3.6,1.4c-1,1.1-1.5,2.5-1.4,4c-0.1,1.5,0.4,3,1.5,4
	C72.1,27.6,73.3,28,74.6,28z M73,20.1c0.4-0.4,1-0.6,1.6-0.6c0.6,0,1.2,0.2,1.6,0.6c0.4,0.4,0.7,1,0.7,1.6h-4.6
	C72.3,21.1,72.6,20.6,73,20.1z"/>
<path class="st0" d="M66.1,21.7v6.1h2.4v-6c0-2.6-1.6-4.4-4.2-4.4c-1.2,0-2.3,0.5-3,1.4c-0.7-0.9-1.8-1.4-3-1.4
	c-2.3-0.1-4.2,1.7-4.2,4c0,0.1,0,0.2,0,0.4v6h2.4v-6.1c-0.1-1,0.7-1.8,1.6-1.9c0.1,0,0.1,0,0.2,0c0.9-0.1,1.7,0.7,1.8,1.6
	c0,0.1,0,0.2,0,0.3v6.1h2.4v-6.1c-0.1-1,0.7-1.8,1.7-1.9c0,0,0.1,0,0.1,0c0.9,0,1.7,0.7,1.8,1.6C66.1,21.5,66.1,21.6,66.1,21.7z"/>
<path class="st0" d="M114.3,16.1v2.8c-0.3-0.5-0.7-0.9-1.2-1.1c-0.5-0.3-1.1-0.4-1.6-0.4c-1.2,0-2.4,0.5-3.2,1.5
	c-0.8,1.2-1.3,2.6-1.2,4.1c-0.1,1.3,0.4,2.6,1.2,3.7c1,0.9,2.4,1.4,3.8,1.4c4.9,0,4.8-4.2,4.8-4.2v-9.6
	C116.9,14.2,114.3,13.9,114.3,16.1z M113.8,25c-0.4,0.5-1,0.9-1.7,0.8c-0.7,0-1.3-0.3-1.7-0.8c-0.4-0.7-0.6-1.5-0.5-2.3
	c0-0.8,0.2-1.5,0.5-2.2c0.4-0.6,1-0.9,1.7-0.9c0.5,0,1,0.2,1.3,0.5c0.7,0.7,1,1.7,0.9,2.7C114.4,23.6,114.2,24.4,113.8,25z"/>
<path class="st0" d="M59.7,32c-1.4-0.2-2.8,0.2-4,1c-1.1,0.9-1.6,2.2-1.5,3.6v9.2h1.3c0.3,0,0.7-0.1,0.9-0.3c0.3-0.3,0.4-0.6,0.4-1
	v-3.3c0.3,0.5,0.7,0.9,1.2,1.2c0.5,0.2,1.1,0.4,1.7,0.3c1.2,0,2.3-0.5,3-1.4c0.8-1.1,1.2-2.5,1.2-3.9c0.1-1.4-0.4-2.8-1.2-3.8
	C61.9,32.6,60.8,32.1,59.7,32z M60.6,39.5c-0.4,0.5-1,0.8-1.6,0.8c-0.7,0-1.3-0.3-1.7-0.8c-0.4-0.6-0.6-1.4-0.6-2.2
	c-0.1-0.8,0.1-1.6,0.5-2.3c0.4-0.5,1-0.8,1.6-0.8c0.7,0,1.3,0.3,1.7,0.8c0.4,0.7,0.6,1.5,0.6,2.3C61.2,38.1,61,38.9,60.6,39.5z"/>
<path class="st0" d="M82.3,33c-1-0.7-2.2-1.1-3.4-1c-1.3-0.1-2.6,0.4-3.5,1.5c-0.8,1.1-1.1,2.5-1.1,3.8c0,1.1,0.2,2.3,0.8,3.3
	c0.5,0.8,1.2,1.3,2,1.7c0.7,0.3,1.5,0.4,2.3,0.2c0.8-0.2,1.4-0.7,1.8-1.3v0.7c0,0.7-0.2,1.3-0.6,1.8c-0.3,0.4-0.7,0.6-1.1,0.7
	c-0.9,0.2-1.7-0.2-2.2-1h-2.8c0.5,2,2.3,3.4,4.3,3.3c2.5,0.3,4.7-1.5,5-4c0-0.2,0-0.4,0-0.6v-5.4C84,35.2,83.4,33.8,82.3,33z
	 M81.2,38.3c0,0.5-0.2,0.9-0.5,1.3c-0.5,0.7-1.4,1-2.2,0.7c-1-0.2-1.5-1.2-1.5-2.9c0-0.8,0.1-1.5,0.5-2.2c0.3-0.7,1-1.1,1.8-1
	c0.6,0,1.1,0.2,1.4,0.7c0.3,0.5,0.6,1,0.6,1.6C81.3,37,81.3,37.7,81.2,38.3z"/>
<path class="st0" d="M72.1,32.7c-0.9-0.5-2-0.7-3-0.7c-1.3-0.1-2.7,0.4-3.6,1.3c-0.5,0.6-0.7,1.4-0.7,2.2h2.5c0-0.3,0.2-0.7,0.4-0.9
	c0.4-0.4,0.9-0.6,1.4-0.5c0.4,0,0.9,0.1,1.3,0.2c0.3,0.2,0.5,0.5,0.4,0.8c0,0.3-0.2,0.7-0.6,0.8c-0.3,0.1-0.7,0.2-1,0.2l-0.9,0.1
	c-0.8,0.1-1.6,0.3-2.3,0.7c-1,0.5-1.5,1.6-1.4,2.7c0,0.8,0.3,1.6,0.9,2.2c0.6,0.5,1.4,0.8,2.3,0.8c5.7,0.3,5.7-3,5.7-3.7v-3.7
	C73.6,34.1,73,33.2,72.1,32.7z M70.8,38.4c0.1,0.7-0.2,1.4-0.8,1.8c-0.5,0.3-1,0.5-1.6,0.5c-0.3,0-0.7-0.1-0.9-0.3
	c-0.3-0.3-0.4-0.6-0.4-1c0-0.5,0.2-0.9,0.6-1.1c0.4-0.2,0.8-0.3,1.2-0.4l0.6-0.1c0.2,0,0.5-0.1,0.7-0.2c0.2-0.1,0.3-0.2,0.5-0.2
	L70.8,38.4z"/>
<path class="st0" d="M90,31.9c-1.5-0.1-2.9,0.5-3.9,1.6c-1.7,2.2-1.7,5.3,0,7.5c2.1,2.1,5.6,2.1,7.7,0c1.7-2.2,1.7-5.3,0-7.5
	C92.9,32.4,91.5,31.8,90,31.9z M91.8,39.6c-0.8,1-2.3,1.1-3.3,0.2c-0.1-0.1-0.2-0.2-0.2-0.2c-0.5-0.7-0.7-1.5-0.6-2.3
	c-0.1-0.8,0.2-1.6,0.6-2.3c0.8-1,2.3-1.1,3.3-0.3c0.1,0.1,0.2,0.2,0.3,0.3c0.5,0.7,0.7,1.5,0.6,2.3C92.4,38.1,92.2,38.9,91.8,39.6z"
	/>
</svg>
