<svg id="Layer_1" data-name="Layer 1" xmlns="http://www.w3.org/2000/svg" xmlns:xlink="http://www.w3.org/1999/xlink" viewBox="0 0 128 128"><defs><style>.cls-1,.cls-2,.cls-3{fill:#8a9297;}.cls-1{clip-rule:evenodd;}.cls-3{fill-rule:evenodd;}.cls-4{clip-path:url(#clip-path);}.cls-5{clip-path:url(#clip-path-2);}.cls-6{clip-path:url(#clip-path-3);}.cls-7{clip-path:url(#clip-path-4);}.cls-8{clip-path:url(#clip-path-5);}.cls-9{clip-path:url(#clip-path-6);}.cls-10{clip-path:url(#clip-path-7);}.cls-11{clip-path:url(#clip-path-8);}.cls-12{clip-path:url(#clip-path-9);}.cls-13{clip-path:url(#clip-path-10);}.cls-14{clip-path:url(#clip-path-11);}.cls-15{clip-path:url(#clip-path-12);}.cls-16{clip-path:url(#clip-path-13);}.cls-17{clip-path:url(#clip-path-14);}.cls-18{clip-path:url(#clip-path-15);}.cls-19{clip-path:url(#clip-path-16);}.cls-20{clip-path:url(#clip-path-17);}.cls-21{clip-path:url(#clip-path-18);}.cls-22{clip-path:url(#clip-path-19);}.cls-23{clip-path:url(#clip-path-20);}.cls-24{clip-path:url(#clip-path-21);}.cls-25{clip-path:url(#clip-path-22);}.cls-26{clip-path:url(#clip-path-23);}.cls-27{clip-path:url(#clip-path-24);}.cls-28{clip-path:url(#clip-path-25);}.cls-29{clip-path:url(#clip-path-26);}.cls-30{clip-path:url(#clip-path-27);}.cls-31{clip-path:url(#clip-path-28);}.cls-32{clip-path:url(#clip-path-29);}.cls-33{fill:#444;}</style><clipPath id="clip-path"><path class="cls-1" d="M316.43-905.49h-.16l-11-.91a1.89,1.89,0,0,1-1.72-1.88v-44.32a6.45,6.45,0,0,0-1.71-4.92,6.64,6.64,0,0,0-4.5-1.45h-.17l-47.55-.53v46.91a1.88,1.88,0,0,1-.61,1.38,1.85,1.85,0,0,1-1.42.49l-9.25-.73a1.9,1.9,0,0,1-1.74-1.89c0-.3.28-29.77.22-36.75a14.77,14.77,0,0,1,3.35-9.34h-5.9a3.56,3.56,0,0,1-3.26-2.65,1.77,1.77,0,0,1-.08-.56v-6.09c0-3.06,1.89-4.32,3-4.58a1.92,1.92,0,0,1,.41-.05l67.22-.91h.26c15.86,2,16.65,15.93,16.66,16.07v.09l-.18,50.73a1.85,1.85,0,0,1-.61,1.38A1.88,1.88,0,0,1,316.43-905.49ZM307.32-910l7.23.6.18-48.64c-.05-.78-1-10.83-13.25-12.45l-66.6.91a1.54,1.54,0,0,0-.18.87v5.54h10.11a1.86,1.86,0,0,1,1.43.65l.18-.2a1.85,1.85,0,0,1,1.35-.55l49.38.55a10.37,10.37,0,0,1,7.22,2.42c2,1.79,2.95,4.38,2.95,7.71Zm-66.93-5,5.47.43v-45.12h0c-.05,0-5.32,3.68-5.27,9.62S240.45-921.55,240.39-915.06Z"/></clipPath><clipPath id="clip-path-2"><path class="cls-1" d="M321.55-909h-3.77v-49.62c-.09-1-1.31-11.3-12-12.12l.29-3.75c11.42.87,15.13,10.62,15.5,15.66V-909Z"/></clipPath><clipPath id="clip-path-3"><path class="cls-1" d="M241.94-976.5a1.88,1.88,0,0,1-1.88-1.87l-.12-19.84a1.87,1.87,0,0,1,1.82-1.89l9.65-.3h.09l3.42.07a1.87,1.87,0,0,1,1.85,1.91,1.88,1.88,0,0,1-1.92,1.85l-3.37-.06-7.76.24.11,18A1.88,1.88,0,0,1,242-976.5Z"/></clipPath><clipPath id="clip-path-4"><path class="cls-1" d="M257.58-983.57h-.46a5,5,0,0,1-4.15-1.76,4.52,4.52,0,0,1-.8-3.49l.83-9.68c-.07-2.54.62-4.44,2.07-5.65a6.06,6.06,0,0,1,4.7-1.2l41.84-2,.23,0c2.51.51,4.26,1.53,5.19,3a4.38,4.38,0,0,1,.64,3.1c-.11,1.42-.78,9.74-1.45,12.36a5.74,5.74,0,0,1-4.77,4.33l-.18,0c-1.59,0-37.92.91-43.69.92m1.2-18.09a2.07,2.07,0,0,0-1.31.39,3.61,3.61,0,0,0-.7,2.73v.12l-.91,10.29a.9.9,0,0,0,.08.49,1.87,1.87,0,0,0,1.24.3c3.65.07,41.35-.85,43.87-.91a2,2,0,0,0,1.53-1.52c.52-2,1.15-9.23,1.35-11.83l0-.31c0-.54-.81-1.27-2.65-1.68l-41.83,2-.23,0a4.69,4.69,0,0,0-.48,0"/></clipPath><clipPath id="clip-path-5"><path class="cls-1" d="M294.26-998.48a1.15,1.15,0,0,0-.93-.27,1.68,1.68,0,0,0-1,.4,2.13,2.13,0,0,0-.61,1.24s0,.1,0,.17,1.1,0,2-.06c.51,0,.79-.16.86-.61a1,1,0,0,0-.2-.87m1.83,1.05a1.41,1.41,0,0,1-.61,1.07,2.62,2.62,0,0,1-1.42.41,9.83,9.83,0,0,1-1.86,0c-.38-.08-.51-.66-.56-.81a3.82,3.82,0,0,0-.08,1.08,1.16,1.16,0,0,0,.5,1,2.16,2.16,0,0,0,1.22.24c.32,0,.66,0,1-.07l.81-.11h0c.06,0,.14,0,.12.12l-.1.83c0,.05,0,.1-.11.13a8.22,8.22,0,0,1-1.06.25,8.42,8.42,0,0,1-1.08.11,4.64,4.64,0,0,1-1.53-.16,2,2,0,0,1-.95-.58,2.16,2.16,0,0,1-.46-1,4.69,4.69,0,0,1,0-1.36l.05-.41a3.91,3.91,0,0,1,1.05-2.33,3.62,3.62,0,0,1,2.51-.92,2.53,2.53,0,0,1,2.07.63,2.36,2.36,0,0,1,.47,1.93m-22.44-1.74-4.45.17c-.29,0-.39.2-.43.49s-.08.58-.11.82.09.32.3.31l.38,0,1.4-.05c.12,0,.05,0,0,.05a2.36,2.36,0,0,0-1.28,1.9c0,.21-.34,2.66-.34,2.66a.88.88,0,0,0,0,.16c0,.23.14.28.23.28l.9,0h.08c.35,0,.44-.11.49-.47s.54-4.28.57-4.56l1.05,0c.48,0,1.06-.08,1.33.25s.22.71.16,1.26c0,0-.38,3-.38,3s0,.11,0,.16c0,.23.14.28.23.28l.89,0h.08c.35,0,.45-.11.49-.47,0-.12.48-3.76.51-4a1.87,1.87,0,0,0-2.08-2.07m25.06-.34c0-.24,0-.65-.48-.63l-.81,0a.41.41,0,0,0-.39.35l-.73,5.89c-.06.32.05.44.21.43l1.17,0a.35.35,0,0,0,.32-.29l.09-.7s.24-1.92.43-3.51a.3.3,0,0,0-.34-.36l-.95,0h-.11s0,0,0,0c.51-.1,1.49-.54,1.57-1.2m-20.64,1.93-.95,0H277c.51-.09,1.48-.53,1.56-1.19,0-.24,0-.66-.47-.64l-.81,0a.42.42,0,0,0-.4.36l-.73,5.88c-.05.32.06.44.22.44l1.17-.05a.33.33,0,0,0,.31-.28l.1-.71s.23-1.91.43-3.5a.31.31,0,0,0-.35-.37m11.31-2a3.67,3.67,0,0,0-.9-.18,9.6,9.6,0,0,0-1.08,0,3.86,3.86,0,0,0-1,.15,2.35,2.35,0,0,0-.8.36,1.92,1.92,0,0,0-.56.61,2.19,2.19,0,0,0-.29.85,1.49,1.49,0,0,0,.25,1.12,2.47,2.47,0,0,0,1.05.69l1,.38a1.75,1.75,0,0,1,.46.26.46.46,0,0,1,.14.43.62.62,0,0,1-.31.49,1.66,1.66,0,0,1-.75.17h-1.05a8.22,8.22,0,0,1-1-.06h0a.11.11,0,0,0-.12.1v0l-.12.93c0,.1,0,.16.13.17a9.4,9.4,0,0,0,1.12.17,9.86,9.86,0,0,0,1.23,0,3.24,3.24,0,0,0,1.84-.57,2,2,0,0,0,.83-1.43,1.56,1.56,0,0,0-.24-1.14,2.2,2.2,0,0,0-1-.72l-1-.41a2.35,2.35,0,0,1-.45-.22.41.41,0,0,1-.15-.42.55.55,0,0,1,.31-.47,1.83,1.83,0,0,1,.69-.13h.88c.29,0,.58,0,.86.07h.07a.12.12,0,0,0,.09-.09v0l.11-.93c0-.12-.07-.16-.14-.18M284-998.29a.12.12,0,0,1-.1.09s0,0,0,0h-.06c-.28,0-.57,0-.86-.06h-.88a1.69,1.69,0,0,0-.69.13.55.55,0,0,0-.31.47.4.4,0,0,0,.15.41,2.29,2.29,0,0,0,.45.23l1,.4a2.16,2.16,0,0,1,1,.73,1.5,1.5,0,0,1,.24,1.13,2,2,0,0,1-.82,1.44,3.3,3.3,0,0,1-1.85.56,8.25,8.25,0,0,1-1.23,0,9.74,9.74,0,0,1-1.12-.16.14.14,0,0,1-.13-.18l.12-.93s0,0,0,0a.09.09,0,0,1,.11-.09h0c.31,0,.66,0,1,.06s.73,0,1.05,0a1.76,1.76,0,0,0,.76-.16.63.63,0,0,0,.3-.49.44.44,0,0,0-.14-.43,1.74,1.74,0,0,0-.46-.27l-.95-.38a2.32,2.32,0,0,1-1.05-.69,1.37,1.37,0,0,1-.25-1.11,2.08,2.08,0,0,1,.28-.86,2,2,0,0,1,.56-.6,2.68,2.68,0,0,1,.8-.37,4.45,4.45,0,0,1,1-.14,6.44,6.44,0,0,1,1.08,0,4.12,4.12,0,0,1,.9.17.18.18,0,0,1,.15.18l-.12.93s0,0,0,0"/></clipPath><clipPath id="clip-path-6"><path class="cls-1" d="M278.87-990.29c-.36,0-.45.13-.46.25s0,.15.17.14l.24,0Zm-.35.63c-.31,0-.46-.11-.42-.36s.27-.45.8-.51h0a.42.42,0,0,0,0-.19s-.07-.06-.15-.06a.93.93,0,0,0-.46.18l-.05,0,0-.29h0a1.37,1.37,0,0,1,.54-.16c.2,0,.32,0,.37.16a.62.62,0,0,1,0,.31l-.11.84H279A4.48,4.48,0,0,1,278.52-989.66Z"/></clipPath><clipPath id="clip-path-7"><path class="cls-1" d="M279.68-991.25l0-.34h.35l-.05.34Zm-.19,1.53.17-1.33H280l-.18,1.33Z"/></clipPath><clipPath id="clip-path-8"><path class="cls-1" d="M280.53-989.72a.92.92,0,0,1-.36-.07h0l0-.33.05,0a.43.43,0,0,0,.32.1.23.23,0,0,0,.24-.14.13.13,0,0,0-.07-.12.66.66,0,0,0-.17-.08c-.24-.11-.31-.2-.29-.38a.54.54,0,0,1,.57-.42.76.76,0,0,1,.34.06h0l0,.3,0,0a.43.43,0,0,0-.29-.08c-.13,0-.22.05-.23.13s0,.09.2.17a.57.57,0,0,1,.24.15.27.27,0,0,1,.08.26.56.56,0,0,1-.59.43"/></clipPath><clipPath id="clip-path-9"><path class="cls-1" d="M282.87-990.94a.5.5,0,0,0-.54.46c0,.27.09.41.37.4a.64.64,0,0,0,.2,0l.11-.82Zm-.09,1.75.09-.67a.77.77,0,0,1-.25,0c-.44,0-.68-.22-.62-.63a.87.87,0,0,1,.94-.74,1.85,1.85,0,0,1,.4,0h0l-.26,2Z"/></clipPath><clipPath id="clip-path-10"><path class="cls-1" d="M284.17-989.88a.6.6,0,0,1-.44-.11c-.09-.07-.11-.18-.08-.39l.11-.83h.32l-.1.81c0,.22,0,.28.26.27l.23,0,.14-1.08h.33l-.17,1.29h0a3.37,3.37,0,0,1-.57.08"/></clipPath><clipPath id="clip-path-11"><path class="cls-1" d="M286.17-990.83c0-.16-.09-.23-.26-.23a.4.4,0,0,0-.36.26Zm-.38.9c-.44,0-.67-.22-.62-.64a.81.81,0,0,1,.78-.74.49.49,0,0,1,.47.21.59.59,0,0,1,.05.42v.08l-1,0v0c0,.23.12.36.38.35a.74.74,0,0,0,.46-.16l.05,0,0,.28h0A1,1,0,0,1,285.79-989.93Z"/></clipPath><clipPath id="clip-path-12"><path class="cls-1" d="M287.38-990l.14-1.05h-.22l0-.25h.22v0a.79.79,0,0,1,.26-.57.77.77,0,0,1,.43-.17h.17l0,.25h-.14a.29.29,0,0,0-.23.1.56.56,0,0,0-.12.36v0h.35l0,.24-.35,0L287.7-990Z"/></clipPath><clipPath id="clip-path-13"><path class="cls-1" d="M289-990.68c-.37,0-.45.13-.46.25s0,.15.17.14l.24,0Zm-.35.63q-.48,0-.42-.36c0-.29.27-.44.8-.51h0c0-.12,0-.16,0-.19s-.06-.06-.14,0a.8.8,0,0,0-.46.17l-.05,0,0-.3h0a1.32,1.32,0,0,1,.54-.16c.2,0,.32,0,.37.17a.75.75,0,0,1,0,.31l-.11.83h-.07A3,3,0,0,1,288.69-990Z"/></clipPath><clipPath id="clip-path-14"><path class="cls-1" d="M289.66-990.11l.16-1.24h0a1.87,1.87,0,0,1,.57-.12.63.63,0,0,1,.24,0h0l0,.27h0a.49.49,0,0,0-.21,0l-.26.06-.14,1Z"/></clipPath><clipPath id="clip-path-15"><path class="cls-1" d="M292.4-990.21l.11-.84c0-.19,0-.26-.22-.25a.79.79,0,0,0-.25,0,.47.47,0,0,1,0,.2l-.11.86h-.32l.11-.83c0-.2,0-.26-.24-.26a1.32,1.32,0,0,0-.26,0l-.14,1.06h-.32l.16-1.25h0a2,2,0,0,1,.6-.11.62.62,0,0,1,.37.07,1.08,1.08,0,0,1,.45-.1.48.48,0,0,1,.41.12.4.4,0,0,1,.07.35l-.12.86Z"/></clipPath><clipPath id="clip-path-16"><path class="cls-1" d="M277.35-989.64l.11-.83c0-.19,0-.26-.22-.26a.77.77,0,0,0-.24.06,1.72,1.72,0,0,1,0,.2l-.11.85h-.33l.11-.83c0-.2,0-.26-.24-.25a.73.73,0,0,0-.25,0l-.14,1.06h-.33l.17-1.25h0a2.39,2.39,0,0,1,.61-.11.77.77,0,0,1,.36.07,1.52,1.52,0,0,1,.46-.1.5.5,0,0,1,.41.13.36.36,0,0,1,.06.34l-.11.86Z"/></clipPath><clipPath id="clip-path-17"><path class="cls-1" d="M293.6-991.74l.57-.59.3,0-.64.6Zm.26.88c-.36,0-.45.12-.46.25s0,.15.17.14a.9.9,0,0,0,.24,0Zm-.35.63q-.47,0-.42-.36c0-.3.27-.45.8-.51h0v0a.38.38,0,0,0,0-.18s-.07-.06-.15-.06a.93.93,0,0,0-.46.18l-.05,0,0-.29h0a1.22,1.22,0,0,1,.55-.16c.19,0,.31.05.36.16a.52.52,0,0,1,0,.31l-.11.83-.07,0Z"/></clipPath><clipPath id="clip-path-18"><path class="cls-1" d="M295.1-990.29c-.44,0-.69-.23-.63-.64a.84.84,0,0,1,.83-.74.84.84,0,0,1,.35.07h0l0,.3-.05,0a.37.37,0,0,0-.29-.08.48.48,0,0,0-.49.45c0,.28.1.43.37.42a.7.7,0,0,0,.34-.12l.05,0,0,.28h0a.77.77,0,0,1-.41.11"/></clipPath><clipPath id="clip-path-19"><path class="cls-1" d="M296-991.87l0-.34h.34l-.05.34Zm-.19,1.53.18-1.33h.32l-.17,1.33Z"/></clipPath><clipPath id="clip-path-20"><path class="cls-1" d="M297.25-991c-.37,0-.45.12-.46.25s0,.15.17.14l.24,0Zm-.35.63c-.32,0-.46-.11-.43-.36s.28-.45.81-.51h0v0c0-.11,0-.16,0-.18s-.06-.06-.14-.06a.9.9,0,0,0-.46.18l-.06,0,0-.29h0a1.32,1.32,0,0,1,.54-.16c.2,0,.32,0,.37.16a.77.77,0,0,1,0,.31l-.11.84h-.08A4.11,4.11,0,0,1,296.9-990.36Z"/></clipPath><clipPath id="clip-path-21"><path class="cls-1" d="M265.68-995.27l-.55,3.11a4.37,4.37,0,0,0,2.8-3.19Z"/></clipPath><clipPath id="clip-path-22"><path class="cls-1" d="M266.06-997.28l1.67-.06a4.08,4.08,0,0,0-1.35-1.74Z"/></clipPath><clipPath id="clip-path-23"><path class="cls-1" d="M263.3-993.49c.13-.51.3-1.37,1.88-1.71.13,0,.12,0,0,0l-5.1.19c.05-.26.19-1.1.25-1.41.1-.5.36-.6.83-.62l2.78-.11.51-2.77a5.59,5.59,0,0,0-1.49-.14c-2.68.1-4.78,2.05-4.69,4.35s2.14,3.93,4.67,4Z"/></clipPath><clipPath id="clip-path-24"><polygon class="cls-1" points="279.3 -910.01 248.76 -912.41 249.06 -916.16 275.53 -914.08 275.44 -961.22 279.21 -961.23 279.3 -910.01"/></clipPath><clipPath id="clip-path-25"><rect class="cls-2" x="289.45" y="-924.95" width="3.76" height="27.92" transform="translate(1177.75 -551.76) rotate(-85.67)"/></clipPath><clipPath id="clip-path-26"><path class="cls-1" d="M283-926.68a1.89,1.89,0,0,1-1.62-.92,1.88,1.88,0,0,1,.66-2.58l1-.61v-1.89l-1.52-1.27a1.88,1.88,0,0,1-.24-2.65,1.88,1.88,0,0,1,2.65-.24l2.19,1.83a1.89,1.89,0,0,1,.68,1.44v3.85a1.88,1.88,0,0,1-.92,1.62l-1.95,1.16a1.85,1.85,0,0,1-1,.26"/></clipPath><clipPath id="clip-path-27"><path class="cls-1" d="M271.23-927.22a1.9,1.9,0,0,1-1-.26l-1.95-1.16a1.88,1.88,0,0,1-.92-1.62v-3.84a1.89,1.89,0,0,1,.68-1.45l2.19-1.83a1.88,1.88,0,0,1,2.65.24,1.88,1.88,0,0,1-.24,2.65l-1.52,1.27v1.89l1,.62a1.87,1.87,0,0,1,.65,2.57,1.85,1.85,0,0,1-1.62.92"/></clipPath><clipPath id="clip-path-28"><path class="cls-2" d="M-37.7-536.55h-83.52l35.55-33.82a3.29,3.29,0,0,0,0-4.93,3.7,3.7,0,0,0-5.18,0l-42,39.81a3.29,3.29,0,0,0,0,4.93L-91-490.75a3.71,3.71,0,0,0,5.19,0,3.29,3.29,0,0,0,0-4.93l-35.37-33.82H-37.7A3.62,3.62,0,0,0-34-533,3.63,3.63,0,0,0-37.7-536.55Z"/></clipPath><clipPath id="clip-path-29"><path class="cls-2" d="M-278.3-536.55h83.52l-35.55-33.82a3.29,3.29,0,0,1,0-4.93,3.7,3.7,0,0,1,5.18,0l42,39.81a3.29,3.29,0,0,1,0,4.93L-225-490.75a3.71,3.71,0,0,1-5.19,0,3.29,3.29,0,0,1,0-4.93l35.37-33.82H-278.3A3.62,3.62,0,0,1-282-533,3.63,3.63,0,0,1-278.3-536.55Z"/></clipPath></defs><title>icon</title><path class="cls-3" d="M316.43-905.49h-.16l-11-.91a1.89,1.89,0,0,1-1.72-1.88v-44.32a6.45,6.45,0,0,0-1.71-4.92,6.64,6.64,0,0,0-4.5-1.45h-.17l-47.55-.53v46.91a1.88,1.88,0,0,1-.61,1.38,1.85,1.85,0,0,1-1.42.49l-9.25-.73a1.9,1.9,0,0,1-1.74-1.89c0-.3.28-29.77.22-36.75a14.77,14.77,0,0,1,3.35-9.34h-5.9a3.56,3.56,0,0,1-3.26-2.65,1.77,1.77,0,0,1-.08-.56v-6.09c0-3.06,1.89-4.32,3-4.58a1.92,1.92,0,0,1,.41-.05l67.22-.91h.26c15.86,2,16.65,15.93,16.66,16.07v.09l-.18,50.73a1.85,1.85,0,0,1-.61,1.38A1.88,1.88,0,0,1,316.43-905.49ZM307.32-910l7.23.6.18-48.64c-.05-.78-1-10.83-13.25-12.45l-66.6.91a1.54,1.54,0,0,0-.18.87v5.54h10.11a1.86,1.86,0,0,1,1.43.65l.18-.2a1.85,1.85,0,0,1,1.35-.55l49.38.55a10.37,10.37,0,0,1,7.22,2.42c2,1.79,2.95,4.38,2.95,7.71Zm-66.93-5,5.47.43v-45.12h0c-.05,0-5.32,3.68-5.27,9.62S240.45-921.55,240.39-915.06Z"/><g class="cls-4"><rect class="cls-2" x="-4266.84" y="-3489.42" width="6348.4" height="5052.27"/></g><path class="cls-3" d="M321.55-909h-3.77v-49.62c-.09-1-1.31-11.3-12-12.12l.29-3.75c11.42.87,15.13,10.62,15.5,15.66V-909Z"/><g class="cls-5"><rect class="cls-2" x="-4266.84" y="-3489.42" width="6348.4" height="5052.27"/></g><path class="cls-3" d="M241.94-976.5a1.88,1.88,0,0,1-1.88-1.87l-.12-19.84a1.87,1.87,0,0,1,1.82-1.89l9.65-.3h.09l3.42.07a1.87,1.87,0,0,1,1.85,1.91,1.88,1.88,0,0,1-1.92,1.85l-3.37-.06-7.76.24.11,18A1.88,1.88,0,0,1,242-976.5Z"/><g class="cls-6"><rect class="cls-2" x="-4266.84" y="-3489.42" width="6348.4" height="5052.27"/></g><path class="cls-3" d="M257.58-983.57h-.46a5,5,0,0,1-4.15-1.76,4.52,4.52,0,0,1-.8-3.49l.83-9.68c-.07-2.54.62-4.44,2.07-5.65a6.06,6.06,0,0,1,4.7-1.2l41.84-2,.23,0c2.51.51,4.26,1.53,5.19,3a4.38,4.38,0,0,1,.64,3.1c-.11,1.42-.78,9.74-1.45,12.36a5.74,5.74,0,0,1-4.77,4.33l-.18,0c-1.59,0-37.92.91-43.69.92m1.2-18.09a2.07,2.07,0,0,0-1.31.39,3.61,3.61,0,0,0-.7,2.73v.12l-.91,10.29a.9.9,0,0,0,.08.49,1.87,1.87,0,0,0,1.24.3c3.65.07,41.35-.85,43.87-.91a2,2,0,0,0,1.53-1.52c.52-2,1.15-9.23,1.35-11.83l0-.31c0-.54-.81-1.27-2.65-1.68l-41.83,2-.23,0a4.69,4.69,0,0,0-.48,0"/><g class="cls-7"><rect class="cls-2" x="-4266.84" y="-3489.42" width="6348.4" height="5052.27"/></g><path class="cls-3" d="M294.26-998.48a1.15,1.15,0,0,0-.93-.27,1.68,1.68,0,0,0-1,.4,2.13,2.13,0,0,0-.61,1.24s0,.1,0,.17,1.1,0,2-.06c.51,0,.79-.16.86-.61a1,1,0,0,0-.2-.87m1.83,1.05a1.41,1.41,0,0,1-.61,1.07,2.62,2.62,0,0,1-1.42.41,9.83,9.83,0,0,1-1.86,0c-.38-.08-.51-.66-.56-.81a3.82,3.82,0,0,0-.08,1.08,1.16,1.16,0,0,0,.5,1,2.16,2.16,0,0,0,1.22.24c.32,0,.66,0,1-.07l.81-.11h0c.06,0,.14,0,.12.12l-.1.83c0,.05,0,.1-.11.13a8.22,8.22,0,0,1-1.06.25,8.42,8.42,0,0,1-1.08.11,4.64,4.64,0,0,1-1.53-.16,2,2,0,0,1-.95-.58,2.16,2.16,0,0,1-.46-1,4.69,4.69,0,0,1,0-1.36l.05-.41a3.91,3.91,0,0,1,1.05-2.33,3.62,3.62,0,0,1,2.51-.92,2.53,2.53,0,0,1,2.07.63,2.36,2.36,0,0,1,.47,1.93m-22.44-1.74-4.45.17c-.29,0-.39.2-.43.49s-.08.58-.11.82.09.32.3.31l.38,0,1.4-.05c.12,0,.05,0,0,.05a2.36,2.36,0,0,0-1.28,1.9c0,.21-.34,2.66-.34,2.66a.88.88,0,0,0,0,.16c0,.23.14.28.23.28l.9,0h.08c.35,0,.44-.11.49-.47s.54-4.28.57-4.56l1.05,0c.48,0,1.06-.08,1.33.25s.22.71.16,1.26c0,0-.38,3-.38,3s0,.11,0,.16c0,.23.14.28.23.28l.89,0h.08c.35,0,.45-.11.49-.47,0-.12.48-3.76.51-4a1.87,1.87,0,0,0-2.08-2.07m25.06-.34c0-.24,0-.65-.48-.63l-.81,0a.41.41,0,0,0-.39.35l-.73,5.89c-.06.32.05.44.21.43l1.17,0a.35.35,0,0,0,.32-.29l.09-.7s.24-1.92.43-3.51a.3.3,0,0,0-.34-.36l-.95,0h-.11s0,0,0,0c.51-.1,1.49-.54,1.57-1.2m-20.64,1.93-.95,0H277c.51-.09,1.48-.53,1.56-1.19,0-.24,0-.66-.47-.64l-.81,0a.42.42,0,0,0-.4.36l-.73,5.88c-.05.32.06.44.22.44l1.17-.05a.33.33,0,0,0,.31-.28l.1-.71s.23-1.91.43-3.5a.31.31,0,0,0-.35-.37m11.31-2a3.67,3.67,0,0,0-.9-.18,9.6,9.6,0,0,0-1.08,0,3.86,3.86,0,0,0-1,.15,2.35,2.35,0,0,0-.8.36,1.92,1.92,0,0,0-.56.61,2.19,2.19,0,0,0-.29.85,1.49,1.49,0,0,0,.25,1.12,2.47,2.47,0,0,0,1.05.69l1,.38a1.75,1.75,0,0,1,.46.26.46.46,0,0,1,.14.43.62.62,0,0,1-.31.49,1.66,1.66,0,0,1-.75.17h-1.05a8.22,8.22,0,0,1-1-.06h0a.11.11,0,0,0-.12.1v0l-.12.93c0,.1,0,.16.13.17a9.4,9.4,0,0,0,1.12.17,9.86,9.86,0,0,0,1.23,0,3.24,3.24,0,0,0,1.84-.57,2,2,0,0,0,.83-1.43,1.56,1.56,0,0,0-.24-1.14,2.2,2.2,0,0,0-1-.72l-1-.41a2.35,2.35,0,0,1-.45-.22.41.41,0,0,1-.15-.42.55.55,0,0,1,.31-.47,1.83,1.83,0,0,1,.69-.13h.88c.29,0,.58,0,.86.07h.07a.12.12,0,0,0,.09-.09v0l.11-.93c0-.12-.07-.16-.14-.18M284-998.29a.12.12,0,0,1-.1.09s0,0,0,0h-.06c-.28,0-.57,0-.86-.06h-.88a1.69,1.69,0,0,0-.69.13.55.55,0,0,0-.31.47.4.4,0,0,0,.15.41,2.29,2.29,0,0,0,.45.23l1,.4a2.16,2.16,0,0,1,1,.73,1.5,1.5,0,0,1,.24,1.13,2,2,0,0,1-.82,1.44,3.3,3.3,0,0,1-1.85.56,8.25,8.25,0,0,1-1.23,0,9.74,9.74,0,0,1-1.12-.16.14.14,0,0,1-.13-.18l.12-.93s0,0,0,0a.09.09,0,0,1,.11-.09h0c.31,0,.66,0,1,.06s.73,0,1.05,0a1.76,1.76,0,0,0,.76-.16.63.63,0,0,0,.3-.49.44.44,0,0,0-.14-.43,1.74,1.74,0,0,0-.46-.27l-.95-.38a2.32,2.32,0,0,1-1.05-.69,1.37,1.37,0,0,1-.25-1.11,2.08,2.08,0,0,1,.28-.86,2,2,0,0,1,.56-.6,2.68,2.68,0,0,1,.8-.37,4.45,4.45,0,0,1,1-.14,6.44,6.44,0,0,1,1.08,0,4.12,4.12,0,0,1,.9.17.18.18,0,0,1,.15.18l-.12.93s0,0,0,0"/><g class="cls-8"><rect class="cls-2" x="-4266.84" y="-3489.42" width="6348.4" height="5052.27"/></g><path class="cls-3" d="M278.87-990.29c-.36,0-.45.13-.46.25s0,.15.17.14l.24,0Zm-.35.63c-.31,0-.46-.11-.42-.36s.27-.45.8-.51h0a.42.42,0,0,0,0-.19s-.07-.06-.15-.06a.93.93,0,0,0-.46.18l-.05,0,0-.29h0a1.37,1.37,0,0,1,.54-.16c.2,0,.32,0,.37.16a.62.62,0,0,1,0,.31l-.11.84H279A4.48,4.48,0,0,1,278.52-989.66Z"/><g class="cls-9"><rect class="cls-2" x="-4266.84" y="-3489.42" width="6348.4" height="5052.27"/></g><path class="cls-3" d="M279.68-991.25l0-.34h.35l-.05.34Zm-.19,1.53.17-1.33H280l-.18,1.33Z"/><g class="cls-10"><rect class="cls-2" x="-4266.84" y="-3489.42" width="6348.4" height="5052.27"/></g><path class="cls-3" d="M280.53-989.72a.92.92,0,0,1-.36-.07h0l0-.33.05,0a.43.43,0,0,0,.32.1.23.23,0,0,0,.24-.14.13.13,0,0,0-.07-.12.66.66,0,0,0-.17-.08c-.24-.11-.31-.2-.29-.38a.54.54,0,0,1,.57-.42.76.76,0,0,1,.34.06h0l0,.3,0,0a.43.43,0,0,0-.29-.08c-.13,0-.22.05-.23.13s0,.09.2.17a.57.57,0,0,1,.24.15.27.27,0,0,1,.08.26.56.56,0,0,1-.59.43"/><g class="cls-11"><rect class="cls-2" x="-4266.84" y="-3489.42" width="6348.4" height="5052.27"/></g><path class="cls-3" d="M282.87-990.94a.5.5,0,0,0-.54.46c0,.27.09.41.37.4a.64.64,0,0,0,.2,0l.11-.82Zm-.09,1.75.09-.67a.77.77,0,0,1-.25,0c-.44,0-.68-.22-.62-.63a.87.87,0,0,1,.94-.74,1.85,1.85,0,0,1,.4,0h0l-.26,2Z"/><g class="cls-12"><rect class="cls-2" x="-4266.84" y="-3489.42" width="6348.4" height="5052.27"/></g><path class="cls-3" d="M284.17-989.88a.6.6,0,0,1-.44-.11c-.09-.07-.11-.18-.08-.39l.11-.83h.32l-.1.81c0,.22,0,.28.26.27l.23,0,.14-1.08h.33l-.17,1.29h0a3.37,3.37,0,0,1-.57.08"/><g class="cls-13"><rect class="cls-2" x="-4266.84" y="-3489.42" width="6348.4" height="5052.27"/></g><path class="cls-3" d="M286.17-990.83c0-.16-.09-.23-.26-.23a.4.4,0,0,0-.36.26Zm-.38.9c-.44,0-.67-.22-.62-.64a.81.81,0,0,1,.78-.74.49.49,0,0,1,.47.21.59.59,0,0,1,.05.42v.08l-1,0v0c0,.23.12.36.38.35a.74.74,0,0,0,.46-.16l.05,0,0,.28h0A1,1,0,0,1,285.79-989.93Z"/><g class="cls-14"><rect class="cls-2" x="-4266.84" y="-3489.42" width="6348.4" height="5052.27"/></g><path class="cls-3" d="M287.38-990l.14-1.05h-.22l0-.25h.22v0a.79.79,0,0,1,.26-.57.77.77,0,0,1,.43-.17h.17l0,.25h-.14a.29.29,0,0,0-.23.1.56.56,0,0,0-.12.36v0h.35l0,.24-.35,0L287.7-990Z"/><g class="cls-15"><rect class="cls-2" x="-4266.84" y="-3489.42" width="6348.4" height="5052.27"/></g><path class="cls-3" d="M289-990.68c-.37,0-.45.13-.46.25s0,.15.17.14l.24,0Zm-.35.63q-.48,0-.42-.36c0-.29.27-.44.8-.51h0c0-.12,0-.16,0-.19s-.06-.06-.14,0a.8.8,0,0,0-.46.17l-.05,0,0-.3h0a1.32,1.32,0,0,1,.54-.16c.2,0,.32,0,.37.17a.75.75,0,0,1,0,.31l-.11.83h-.07A3,3,0,0,1,288.69-990Z"/><g class="cls-16"><rect class="cls-2" x="-4266.84" y="-3489.42" width="6348.4" height="5052.27"/></g><path class="cls-3" d="M289.66-990.11l.16-1.24h0a1.87,1.87,0,0,1,.57-.12.63.63,0,0,1,.24,0h0l0,.27h0a.49.49,0,0,0-.21,0l-.26.06-.14,1Z"/><g class="cls-17"><rect class="cls-2" x="-4266.84" y="-3489.42" width="6348.4" height="5052.27"/></g><path class="cls-3" d="M292.4-990.21l.11-.84c0-.19,0-.26-.22-.25a.79.79,0,0,0-.25,0,.47.47,0,0,1,0,.2l-.11.86h-.32l.11-.83c0-.2,0-.26-.24-.26a1.32,1.32,0,0,0-.26,0l-.14,1.06h-.32l.16-1.25h0a2,2,0,0,1,.6-.11.62.62,0,0,1,.37.07,1.08,1.08,0,0,1,.45-.1.48.48,0,0,1,.41.12.4.4,0,0,1,.07.35l-.12.86Z"/><g class="cls-18"><rect class="cls-2" x="-4266.84" y="-3489.42" width="6348.4" height="5052.27"/></g><path class="cls-3" d="M277.35-989.64l.11-.83c0-.19,0-.26-.22-.26a.77.77,0,0,0-.24.06,1.72,1.72,0,0,1,0,.2l-.11.85h-.33l.11-.83c0-.2,0-.26-.24-.25a.73.73,0,0,0-.25,0l-.14,1.06h-.33l.17-1.25h0a2.39,2.39,0,0,1,.61-.11.77.77,0,0,1,.36.07,1.52,1.52,0,0,1,.46-.1.5.5,0,0,1,.41.13.36.36,0,0,1,.06.34l-.11.86Z"/><g class="cls-19"><rect class="cls-2" x="-4266.84" y="-3489.42" width="6348.4" height="5052.27"/></g><path class="cls-3" d="M293.6-991.74l.57-.59.3,0-.64.6Zm.26.88c-.36,0-.45.12-.46.25s0,.15.17.14a.9.9,0,0,0,.24,0Zm-.35.63q-.47,0-.42-.36c0-.3.27-.45.8-.51h0v0a.38.38,0,0,0,0-.18s-.07-.06-.15-.06a.93.93,0,0,0-.46.18l-.05,0,0-.29h0a1.22,1.22,0,0,1,.55-.16c.19,0,.31.05.36.16a.52.52,0,0,1,0,.31l-.11.83-.07,0Z"/><g class="cls-20"><rect class="cls-2" x="-4266.84" y="-3489.42" width="6348.4" height="5052.27"/></g><path class="cls-3" d="M295.1-990.29c-.44,0-.69-.23-.63-.64a.84.84,0,0,1,.83-.74.84.84,0,0,1,.35.07h0l0,.3-.05,0a.37.37,0,0,0-.29-.08.48.48,0,0,0-.49.45c0,.28.1.43.37.42a.7.7,0,0,0,.34-.12l.05,0,0,.28h0a.77.77,0,0,1-.41.11"/><g class="cls-21"><rect class="cls-2" x="-4266.84" y="-3489.42" width="6348.4" height="5052.27"/></g><path class="cls-3" d="M296-991.87l0-.34h.34l-.05.34Zm-.19,1.53.18-1.33h.32l-.17,1.33Z"/><g class="cls-22"><rect class="cls-2" x="-4266.84" y="-3489.42" width="6348.4" height="5052.27"/></g><path class="cls-3" d="M297.25-991c-.37,0-.45.12-.46.25s0,.15.17.14l.24,0Zm-.35.63c-.32,0-.46-.11-.43-.36s.28-.45.81-.51h0v0c0-.11,0-.16,0-.18s-.06-.06-.14-.06a.9.9,0,0,0-.46.18l-.06,0,0-.29h0a1.32,1.32,0,0,1,.54-.16c.2,0,.32,0,.37.16a.77.77,0,0,1,0,.31l-.11.84h-.08A4.11,4.11,0,0,1,296.9-990.36Z"/><g class="cls-23"><rect class="cls-2" x="-4266.84" y="-3489.42" width="6348.4" height="5052.27"/></g><path class="cls-3" d="M265.68-995.27l-.55,3.11a4.37,4.37,0,0,0,2.8-3.19Z"/><g class="cls-24"><rect class="cls-2" x="-4266.84" y="-3489.42" width="6348.4" height="5052.27"/></g><path class="cls-3" d="M266.06-997.28l1.67-.06a4.08,4.08,0,0,0-1.35-1.74Z"/><g class="cls-25"><rect class="cls-2" x="-4266.84" y="-3489.42" width="6348.4" height="5052.27"/></g><path class="cls-3" d="M263.3-993.49c.13-.51.3-1.37,1.88-1.71.13,0,.12,0,0,0l-5.1.19c.05-.26.19-1.1.25-1.41.1-.5.36-.6.83-.62l2.78-.11.51-2.77a5.59,5.59,0,0,0-1.49-.14c-2.68.1-4.78,2.05-4.69,4.35s2.14,3.93,4.67,4Z"/><g class="cls-26"><rect class="cls-2" x="-4266.84" y="-3489.42" width="6348.4" height="5052.27"/></g><polygon class="cls-3" points="279.3 -910.01 248.76 -912.41 249.06 -916.16 275.53 -914.08 275.44 -961.22 279.21 -961.23 279.3 -910.01"/><g class="cls-27"><rect class="cls-2" x="-4266.84" y="-3489.42" width="6348.4" height="5052.27"/></g><rect class="cls-2" x="289.45" y="-924.95" width="3.76" height="27.92" transform="translate(1177.75 -551.76) rotate(-85.67)"/><g class="cls-28"><rect class="cls-2" x="-4266.84" y="-3489.42" width="6348.4" height="5052.27"/></g><path class="cls-3" d="M283-926.68a1.89,1.89,0,0,1-1.62-.92,1.88,1.88,0,0,1,.66-2.58l1-.61v-1.89l-1.52-1.27a1.88,1.88,0,0,1-.24-2.65,1.88,1.88,0,0,1,2.65-.24l2.19,1.83a1.89,1.89,0,0,1,.68,1.44v3.85a1.88,1.88,0,0,1-.92,1.62l-1.95,1.16a1.85,1.85,0,0,1-1,.26"/><g class="cls-29"><rect class="cls-2" x="-4266.84" y="-3489.42" width="6348.4" height="5052.27"/></g><path class="cls-3" d="M271.23-927.22a1.9,1.9,0,0,1-1-.26l-1.95-1.16a1.88,1.88,0,0,1-.92-1.62v-3.84a1.89,1.89,0,0,1,.68-1.45l2.19-1.83a1.88,1.88,0,0,1,2.65.24,1.88,1.88,0,0,1-.24,2.65l-1.52,1.27v1.89l1,.62a1.87,1.87,0,0,1,.65,2.57,1.85,1.85,0,0,1-1.62.92"/><g class="cls-30"><rect class="cls-2" x="-4266.84" y="-3489.42" width="6348.4" height="5052.27"/></g><path class="cls-2" d="M-37.7-536.55h-83.52l35.55-33.82a3.29,3.29,0,0,0,0-4.93,3.7,3.7,0,0,0-5.18,0l-42,39.81a3.29,3.29,0,0,0,0,4.93L-91-490.75a3.71,3.71,0,0,0,5.19,0,3.29,3.29,0,0,0,0-4.93l-35.37-33.82H-37.7A3.62,3.62,0,0,0-34-533,3.63,3.63,0,0,0-37.7-536.55Z"/><g class="cls-31"><rect class="cls-2" x="-834" y="-3269.69" width="9600" height="25640"/></g><path class="cls-2" d="M-278.3-536.55h83.52l-35.55-33.82a3.29,3.29,0,0,1,0-4.93,3.7,3.7,0,0,1,5.18,0l42,39.81a3.29,3.29,0,0,1,0,4.93L-225-490.75a3.71,3.71,0,0,1-5.19,0,3.29,3.29,0,0,1,0-4.93l35.37-33.82H-278.3A3.62,3.62,0,0,1-282-533,3.63,3.63,0,0,1-278.3-536.55Z"/><g class="cls-32"><rect class="cls-2" x="-9082" y="-3269.69" width="9600" height="25640"/></g><path class="cls-33" d="M69.52,76.06V71.37H78.9V76Z"/><path class="cls-33" d="M78.93,88v4.58H69.51V88Z"/><path class="cls-33" d="M97.86,71.37V76H88.49V71.37Z"/><path class="cls-33" d="M50.55,88h9.37v4.63H50.55Z"/><path class="cls-33" d="M88.45,92.63V88h9.41v4.6Z"/><path class="cls-33" d="M116.49,33.8a12.55,12.55,0,0,0-12.26-12.35l-5.66,0H89.84V21.2a23.9,23.9,0,0,0,0-2.8,6.15,6.15,0,0,0-.93-3A5.56,5.56,0,0,0,87.08,14c-.22-.13-.45-.26-.66-.4a.92.92,0,0,0-.53-.16H84.81a.91.91,0,0,0-.43.1l-.56.26a7.46,7.46,0,0,0-1.48.82,4.16,4.16,0,0,0-1.58,3.45c0,1,0,1.92,0,2.9v.37H47.36v-.08c0-.72,0-1.4,0-2.07.21-2.9-1.08-4.87-3.73-5.71a.9.9,0,0,0-.28,0H42.29a.79.79,0,0,0-.3,0c-2.41.82-3.65,2.37-3.7,4.6,0,.76,0,1.51,0,2.27v1.05H24.38A12.58,12.58,0,0,0,11.71,31.72a.55.55,0,0,0-.09.14.93.93,0,0,0-.12.46V103.6a1,1,0,0,0,0,.25l.14.51c.1.38.2.76.32,1.14a12.55,12.55,0,0,0,11.61,9h79.8a12.54,12.54,0,0,0,11.41-6.28,11.7,11.7,0,0,0,1.69-6.17V78.63Q116.5,56.21,116.49,33.8Zm-78.31-.1a4.56,4.56,0,0,0,4.54,4.74,4.46,4.46,0,0,0,4.49-4.29c0-1,0-2.09,0-3.1v-.47H80.62V31c0,1,0,1.89,0,2.83a4.64,4.64,0,0,0,4.53,4.67h0a4.6,4.6,0,0,0,4.53-4.7c0-.93,0-1.86,0-2.81v-.42h14A3.42,3.42,0,0,1,107.34,34c0,3.37,0,6.8,0,10.13,0,1.14,0,2.29,0,3.43H20.58v-.73c0-4.2,0-8.39,0-12.58a3.4,3.4,0,0,1,3.75-3.72H38.17v.35C38.16,31.85,38.16,32.77,38.18,33.7Zm69.17,23.13v7.85q0,18.1,0,36.2v.39a6.36,6.36,0,0,1-.12,1.68,3.25,3.25,0,0,1-3,2.27H24.35a3.48,3.48,0,0,1-3.66-2.53,3.79,3.79,0,0,1-.11-1V56.83Z"/></svg>