<?xml version="1.0" encoding="utf-8"?>
<!-- Generator: Adobe Illustrator 23.0.6, SVG Export Plug-In . SVG Version: 6.00 Build 0)  -->
<svg version="1.1" id="Layer_1" xmlns="http://www.w3.org/2000/svg" xmlns:xlink="http://www.w3.org/1999/xlink" x="0px" y="0px"
	 viewBox="0 0 128 128" style="enable-background:new 0 0 128 128;" xml:space="preserve">
<style type="text/css">
	.st0{fill:#8A9297;}
</style>
<title>icons</title>
<path class="st0" d="M118.9,58.9h-10.7c-0.8-7.3-3.5-14.3-7.7-20.3c-1.4-2-2.9-3.8-4.5-5.5c-1.7-1.7-3.5-3.3-5.4-4.7
	c-3.5-2.6-7.4-4.7-11.6-6.2c-3.2-1.2-6.5-1.9-9.8-2.3V9.1C69.1,6.3,66.8,4,64,4c-2.8,0-5.1,2.3-5.1,5.1v10.7c-2.4,0.3-4.7,0.7-7,1.4
	c-8.6,2.4-16.2,7.4-21.9,14.2c-1.5,1.8-2.9,3.8-4.2,5.8c-1.2,2.1-2.3,4.3-3.2,6.5c-1.4,3.6-2.4,7.3-2.8,11.2H9.1
	C6.3,58.9,4,61.2,4,64c0,2.8,2.3,5.1,5.1,5.1c0,0,0,0,0,0h10.7c1.8,15.4,11.4,28.7,25.4,35.2c2.2,1,4.5,1.9,6.8,2.6
	c2.2,0.6,4.5,1,6.8,1.3v10.8c0,2.8,2.3,5.1,5.1,5.1c2.8,0,5.1-2.3,5.1-5.1c0,0,0,0,0,0v-10.7c1.4-0.2,2.8-0.4,4.2-0.7
	c17.9-3.8,31.6-18.1,34.6-36.2c0.1-0.8,0.2-1.5,0.3-2.3h10.7c2.8,0,5.1-2.3,5.1-5.1C124,61.2,121.7,58.9,118.9,58.9z M98,68.6
	c-0.5,3-1.2,5.8-2.3,8.6c-1.2,2.8-2.8,5.4-4.6,7.8c-1.8,2.2-3.8,4.3-6.1,6.1c-2.4,1.8-5,3.3-7.8,4.6c-2.8,1.1-5.7,1.9-8.7,2.3
	c-3,0.3-6.1,0.3-9.2,0c-3-0.5-5.9-1.2-8.6-2.3c-2.7-1.2-5.4-2.8-7.8-4.6c-2.3-1.8-4.3-3.9-6.1-6.1c-1.8-2.4-3.3-5-4.5-7.8
	c-1.1-2.8-1.9-5.7-2.3-8.6c-0.2-1.4-0.2-2.7-0.3-4.1c0-0.2,0-0.3,0-0.5c0,0,0-0.1,0-0.1c0-1.5,0.1-3,0.3-4.5c0.5-3,1.2-5.9,2.3-8.6
	c1.2-2.8,2.7-5.4,4.5-7.8c1.8-2.3,3.9-4.3,6.1-6.1c2.4-1.8,5-3.3,7.8-4.5c2.8-1.1,5.7-1.9,8.6-2.3c1.5-0.2,2.9-0.3,4.4-0.3h0.3
	c1.5,0,3,0.1,4.5,0.3c3,0.5,5.9,1.2,8.6,2.3c2.8,1.2,5.4,2.7,7.8,4.5c2.2,1.8,4.3,3.9,6.1,6.1c1.8,2.4,3.3,5,4.6,7.8
	c1.1,2.8,1.9,5.7,2.4,8.6c0.2,1.5,0.3,3,0.3,4.6C98.3,65.5,98.2,67.1,98,68.6z"/>
<path class="st0" d="M78,54.5c-1.2-1.7-2.6-3.1-4.3-4.3c-1.3-0.9-2.8-1.7-4.3-2.2c-6.5-2.2-13.8-0.2-18.3,5c-1.3,1.5-2.3,3.3-3,5.1
	c-0.6,1.6-1,3.3-1.1,5c-0.2,3.3,0.6,6.7,2.3,9.5c1.7,2.8,4.1,5.1,7.1,6.5c1.9,0.9,3.9,1.4,6,1.7c5.3,0.5,10.6-1.6,14.1-5.7
	c1.4-1.7,2.5-3.6,3.3-5.6c0.7-1.8,1-3.7,1-5.6c0-0.2,0-0.4,0-0.6C80.9,60.2,79.8,57.1,78,54.5z M68.1,69.3c-0.5,0.3-1,0.6-1.5,0.9
	c-0.6,0.2-1.1,0.3-1.7,0.5c-0.6,0-1.2,0-1.8,0c-0.6-0.1-1.1-0.3-1.7-0.4c-0.5-0.3-1.1-0.6-1.6-0.9c-0.4-0.4-0.8-0.8-1.2-1.2
	c-0.3-0.5-0.6-1-0.9-1.5c-0.2-0.6-0.3-1.1-0.5-1.7c0-0.6,0-1.2,0-1.8c0.1-0.6,0.3-1.1,0.5-1.7c0.3-0.5,0.6-1.1,0.9-1.6
	c0.4-0.4,0.8-0.8,1.2-1.2c0.5-0.3,1-0.6,1.5-0.9c0.6-0.2,1.1-0.4,1.7-0.5c0.6,0,1.2,0,1.8,0c0.6,0.1,1.1,0.3,1.7,0.5
	c0.5,0.3,1.1,0.6,1.6,0.9c0.4,0.4,0.8,0.8,1.2,1.2c0.3,0.5,0.6,1,0.9,1.5c0.2,0.6,0.4,1.2,0.5,1.8c0,0.2,0,0.5,0,0.7s0,0.5,0,0.8
	c-0.1,0.6-0.3,1.2-0.5,1.8c-0.3,0.5-0.6,1.1-0.9,1.6C68.9,68.5,68.5,68.9,68.1,69.3L68.1,69.3z"/>
</svg>
