<?xml version="1.0" encoding="utf-8"?>
<!-- Generator: Adobe Illustrator 23.0.6, SVG Export Plug-In . SVG Version: 6.00 Build 0)  -->
<svg version="1.1" id="Layer_1" xmlns="http://www.w3.org/2000/svg" xmlns:xlink="http://www.w3.org/1999/xlink" x="0px" y="0px"
	 viewBox="0 0 128 128" style="enable-background:new 0 0 128 128;" xml:space="preserve">
<style type="text/css">
	.st0{fill:#68b263;}
</style>
<title>icon_liked</title>
<path class="st0" d="M68.8,15.3c5.3,1.2,8.3,4.6,9.4,9.7c0.2,1.3,0.3,2.6,0.3,3.9v19.9h1.2c7.7,0,15.4,0.1,23.1,0
	c5.4-0.1,9.4,2.3,12.4,6.6c2.7,4.2,4.5,8.9,5.3,13.8c1.7,8.8,1,17.9-2,26.3c-1.7,5.4-5.1,10.1-9.7,13.4c-3,1.9-6.5,3.1-10,3.5
	c-7.8,1.3-15.4,0.1-22.9-2c-7-2-13.8-4.4-20.7-6.5c-3.7-1.2-7.5-2.1-11.3-2.7c-2.4-0.2-4.7-0.2-7.1-0.1v2c0.2,2.3-1.5,4.3-3.8,4.5
	H11c-2.3,0.2-4.3-1.4-4.5-3.7c0,0,0,0,0-0.1V53.7c-0.2-2.3,1.4-4.3,3.7-4.5c0,0,0,0,0.1,0h22.2c2.3-0.2,4.3,1.4,4.6,3.7v0.4
	c0,0.1,0.1,0.3,0.1,0.4c1.4-0.9,2.8-1.6,4.2-2.6c6.2-4.6,10.8-11,13.1-18.4c0.3-1.4,0.5-2.9,0.5-4.4c0-2.8,0.8-5.5,2.2-7.8
	c1.8-3,4.8-5,8.3-5.4C66.5,15,67.7,15.1,68.8,15.3z M30.8,101.4V55.3H12.9v46.1H30.8z"/>
</svg>
