<svg id="Layer_1" data-name="Layer 1" xmlns="http://www.w3.org/2000/svg" xmlns:xlink="http://www.w3.org/1999/xlink" viewBox="0 0 128 128"><defs><style>.cls-1,.cls-2,.cls-3{fill:#8a9297;}.cls-1{clip-rule:evenodd;}.cls-3{fill-rule:evenodd;}.cls-4{clip-path:url(#clip-path);}.cls-5{clip-path:url(#clip-path-2);}.cls-6{clip-path:url(#clip-path-3);}.cls-7{clip-path:url(#clip-path-4);}.cls-8{clip-path:url(#clip-path-5);}.cls-9{clip-path:url(#clip-path-6);}.cls-10{clip-path:url(#clip-path-7);}.cls-11{clip-path:url(#clip-path-8);}.cls-12{clip-path:url(#clip-path-9);}.cls-13{clip-path:url(#clip-path-10);}.cls-14{clip-path:url(#clip-path-11);}.cls-15{clip-path:url(#clip-path-12);}.cls-16{clip-path:url(#clip-path-13);}.cls-17{clip-path:url(#clip-path-14);}.cls-18{clip-path:url(#clip-path-15);}.cls-19{clip-path:url(#clip-path-16);}.cls-20{clip-path:url(#clip-path-17);}.cls-21{clip-path:url(#clip-path-18);}.cls-22{clip-path:url(#clip-path-19);}.cls-23{clip-path:url(#clip-path-20);}.cls-24{clip-path:url(#clip-path-21);}.cls-25{clip-path:url(#clip-path-22);}.cls-26{clip-path:url(#clip-path-23);}.cls-27{clip-path:url(#clip-path-24);}.cls-28{clip-path:url(#clip-path-25);}.cls-29{clip-path:url(#clip-path-26);}.cls-30{clip-path:url(#clip-path-27);}.cls-31{clip-path:url(#clip-path-28);}.cls-32{clip-path:url(#clip-path-29);}</style><clipPath id="clip-path"><path class="cls-1" d="M-198.15-20.92h-.15l-11-.91A1.88,1.88,0,0,1-211-23.72V-68A6.42,6.42,0,0,0-212.73-73a6.62,6.62,0,0,0-4.49-1.45h-.18l-47.55-.53V-28a1.91,1.91,0,0,1-.6,1.38,1.89,1.89,0,0,1-1.43.49l-9.25-.73A1.88,1.88,0,0,1-278-28.77c0-.3.27-29.77.21-36.75a14.83,14.83,0,0,1,3.35-9.34h-5.89a3.55,3.55,0,0,1-3.26-2.65,1.77,1.77,0,0,1-.09-.56v-6.09c0-3.06,1.89-4.32,3-4.58a1.83,1.83,0,0,1,.4-.05L-213-89.7h.26c15.86,2,16.66,15.93,16.67,16.07v.09l-.19,50.73a1.85,1.85,0,0,1-.61,1.38A1.86,1.86,0,0,1-198.15-20.92Zm-9.1-4.53,7.23.6.17-48.64c-.05-.78-.94-10.83-13.24-12.45L-279.7-85a1.63,1.63,0,0,0-.18.87v5.54h10.12a1.91,1.91,0,0,1,1.43.65,1.12,1.12,0,0,1,.18-.2,1.82,1.82,0,0,1,1.34-.54l49.38.54a10.36,10.36,0,0,1,7.22,2.42c2,1.79,3,4.39,3,7.71Zm-66.93-5,5.47.43V-75.18h0S-274-71.5-274-65.56-274.12-37-274.18-30.49Z"/></clipPath><clipPath id="clip-path-2"><path class="cls-1" d="M-193-24.39h-3.76V-74c-.09-1-1.31-11.3-12-12.12l.28-3.75C-197.12-89-193.4-79.26-193-74.22v49.83Z"/></clipPath><clipPath id="clip-path-3"><path class="cls-1" d="M-272.63-91.92a1.89,1.89,0,0,1-1.88-1.87l-.12-19.85a1.87,1.87,0,0,1,1.82-1.89l9.64-.3h.1l3.42.06a1.87,1.87,0,0,1,1.84,1.91,1.87,1.87,0,0,1-1.91,1.85l-3.37-.06-7.77.24.11,18a1.89,1.89,0,0,1-1.87,1.9Z"/></clipPath><clipPath id="clip-path-4"><path class="cls-1" d="M-257-99h-.47a5,5,0,0,1-4.15-1.76,4.56,4.56,0,0,1-.8-3.49l.84-9.68c-.08-2.54.62-4.44,2.06-5.65a6.07,6.07,0,0,1,4.7-1.2l41.85-2,.23,0c2.51.51,4.25,1.53,5.19,3a4.49,4.49,0,0,1,.64,3.1c-.11,1.42-.78,9.74-1.45,12.36a5.76,5.76,0,0,1-4.77,4.33l-.18,0c-1.6,0-37.92.92-43.69.92m1.2-18.09a2.07,2.07,0,0,0-1.31.39,3.66,3.66,0,0,0-.71,2.73v.12l-.91,10.29a.75.75,0,0,0,.08.49,1.83,1.83,0,0,0,1.23.3c3.66.07,41.35-.85,43.88-.91A2,2,0,0,0-212-105.2c.52-2,1.15-9.22,1.35-11.83l.05-.31c0-.54-.81-1.27-2.66-1.68l-41.82,2-.23,0a4.69,4.69,0,0,0-.48,0"/></clipPath><clipPath id="clip-path-5"><path class="cls-1" d="M-220.32-113.91a1.2,1.2,0,0,0-.92-.27,1.68,1.68,0,0,0-1,.4,2.2,2.2,0,0,0-.62,1.24s0,.1,0,.17,1.09,0,1.95-.06c.5,0,.79-.16.85-.6a1,1,0,0,0-.2-.88m1.84,1a1.43,1.43,0,0,1-.62,1.08,2.71,2.71,0,0,1-1.42.4,9.73,9.73,0,0,1-1.85,0c-.39-.08-.51-.65-.57-.81a4,4,0,0,0-.07,1.08,1.14,1.14,0,0,0,.5,1,2.16,2.16,0,0,0,1.22.24c.32,0,.65,0,1-.07l.82-.11h0c.07,0,.14,0,.13.12l-.1.83a.15.15,0,0,1-.12.13,8.07,8.07,0,0,1-1.05.25,8.6,8.6,0,0,1-1.08.11,4.6,4.6,0,0,1-1.53-.16,2,2,0,0,1-1-.58,2,2,0,0,1-.46-1,4.36,4.36,0,0,1,0-1.36l0-.41a3.86,3.86,0,0,1,1.05-2.33,3.6,3.6,0,0,1,2.5-.92,2.56,2.56,0,0,1,2.08.63,2.36,2.36,0,0,1,.47,1.93m-22.44-1.74-4.45.17c-.29,0-.39.21-.44.49l-.1.82c0,.23.08.32.3.31h.38l1.4-.06c.11,0,.05,0,0,0a2.36,2.36,0,0,0-1.29,1.9c0,.21-.34,2.66-.34,2.66a.86.86,0,0,0,0,.16c0,.23.14.28.23.28l.89,0h.08c.35,0,.45-.11.49-.47s.54-4.28.58-4.56l1,0c.49,0,1.06-.08,1.33.25s.23.71.16,1.26c0,0-.37,3-.37,3a.76.76,0,0,0,0,.15c0,.23.13.28.22.28l.9,0h.08c.35,0,.44-.11.49-.47,0-.12.48-3.76.51-4a1.88,1.88,0,0,0-2.08-2.07m25-.33c0-.24,0-.66-.47-.64l-.81,0a.42.42,0,0,0-.4.35l-.73,5.89c-.05.32.06.44.22.43l1.17,0a.35.35,0,0,0,.31-.29l.1-.7s.23-1.92.43-3.51a.31.31,0,0,0-.35-.36l-.95,0h-.08c.51-.09,1.48-.54,1.56-1.19M-236.5-113l-.95,0h-.11s0,0,0,0c.51-.1,1.49-.54,1.57-1.2,0-.24,0-.66-.48-.64l-.81,0a.42.42,0,0,0-.39.36l-.73,5.88c-.06.32,0,.44.21.44l1.17-.05a.33.33,0,0,0,.32-.28l.09-.71s.24-1.91.43-3.5a.31.31,0,0,0-.34-.37m11.31-2a4.31,4.31,0,0,0-.91-.18,9.43,9.43,0,0,0-1.07,0,3.94,3.94,0,0,0-1,.15,2.79,2.79,0,0,0-.8.36,2.18,2.18,0,0,0-.56.61,2.24,2.24,0,0,0-.28.86,1.38,1.38,0,0,0,.25,1.11,2.47,2.47,0,0,0,1.05.69l1,.38a1.67,1.67,0,0,1,.45.26.46.46,0,0,1,.15.43.62.62,0,0,1-.31.49,1.74,1.74,0,0,1-.76.17h-1.05c-.38,0-.73,0-1-.06h0a.1.1,0,0,0-.11.1s0,0,0,0l-.11.93c0,.1,0,.16.12.17a9.72,9.72,0,0,0,1.12.17,8.28,8.28,0,0,0,1.23,0A3.3,3.3,0,0,0-226-109a2,2,0,0,0,.82-1.43,1.57,1.57,0,0,0-.23-1.14,2.25,2.25,0,0,0-1-.72l-1-.4a3.06,3.06,0,0,1-.45-.23.38.38,0,0,1-.14-.41.56.56,0,0,1,.3-.48,2.16,2.16,0,0,1,.69-.13h.88c.29,0,.59,0,.87.07h.06a.1.1,0,0,0,.1-.09c0-.06,0,0,0,0l.12-.93a.17.17,0,0,0-.14-.18m-5.38,1.34a.13.13,0,0,1-.1.1h-.06c-.28,0-.57-.05-.86-.06s-.6,0-.89,0a1.72,1.72,0,0,0-.69.13.56.56,0,0,0-.3.47.4.4,0,0,0,.14.41,3.06,3.06,0,0,0,.45.23l1,.41a2.18,2.18,0,0,1,1,.72,1.54,1.54,0,0,1,.23,1.13,2,2,0,0,1-.82,1.44,3.24,3.24,0,0,1-1.84.57,10,10,0,0,1-1.24,0,9.56,9.56,0,0,1-1.11-.16.14.14,0,0,1-.13-.18l.12-.93v0a.1.1,0,0,1,.11-.09h0c.3,0,.65,0,1,.06s.74,0,1.06,0a1.58,1.58,0,0,0,.75-.16.64.64,0,0,0,.31-.49.49.49,0,0,0-.14-.43,1.93,1.93,0,0,0-.46-.26l-1-.39a2.38,2.38,0,0,1-1-.69,1.41,1.41,0,0,1-.25-1.11,2.24,2.24,0,0,1,.28-.86,2.14,2.14,0,0,1,.56-.6,2.8,2.8,0,0,1,.8-.37,4.46,4.46,0,0,1,1-.14,6.47,6.47,0,0,1,1.08,0,4.24,4.24,0,0,1,.9.17c.07,0,.16.07.14.18l-.11.93s0,0,0,0"/></clipPath><clipPath id="clip-path-6"><path class="cls-1" d="M-235.7-105.72c-.37,0-.45.13-.47.25s0,.15.18.14l.24,0Zm-.35.63c-.32,0-.46-.11-.43-.36s.27-.44.8-.51h0a.53.53,0,0,0,0-.19s-.07-.06-.15,0a.77.77,0,0,0-.45.17l-.06,0,0-.29h0a1.28,1.28,0,0,1,.54-.16c.19,0,.32,0,.36.16a.62.62,0,0,1,0,.32l-.11.83h-.08A4.35,4.35,0,0,1-236-105.09Z"/></clipPath><clipPath id="clip-path-7"><path class="cls-1" d="M-234.9-106.68l.05-.34h.34l0,.34Zm-.19,1.53.18-1.33h.32l-.17,1.33Z"/></clipPath><clipPath id="clip-path-8"><path class="cls-1" d="M-234-105.15a1,1,0,0,1-.37-.07h0l0-.32,0,0a.46.46,0,0,0,.32.11c.14,0,.23-.07.24-.15a.1.1,0,0,0-.07-.12.64.64,0,0,0-.17-.08c-.23-.11-.31-.2-.28-.38a.56.56,0,0,1,.57-.42.93.93,0,0,1,.34.06h0l0,.3-.05,0a.43.43,0,0,0-.29-.08c-.13,0-.22.06-.23.13s0,.09.2.17a.59.59,0,0,1,.25.16.28.28,0,0,1,.08.25.56.56,0,0,1-.59.43"/></clipPath><clipPath id="clip-path-9"><path class="cls-1" d="M-231.7-106.37a.52.52,0,0,0-.55.46c0,.28.1.42.38.4l.19,0,.11-.83Zm-.1,1.75.09-.67a.71.71,0,0,1-.24,0c-.45,0-.68-.22-.63-.63a.88.88,0,0,1,1-.74,1.76,1.76,0,0,1,.39,0h0l-.26,2Z"/></clipPath><clipPath id="clip-path-10"><path class="cls-1" d="M-230.4-105.31a.62.62,0,0,1-.44-.1c-.09-.08-.11-.19-.09-.4l.11-.83h.33l-.11.81c0,.22,0,.28.27.27l.23,0,.14-1.08h.32l-.17,1.29h0a3.51,3.51,0,0,1-.57.08"/></clipPath><clipPath id="clip-path-11"><path class="cls-1" d="M-228.41-106.26c0-.16-.09-.23-.25-.23a.41.41,0,0,0-.37.26Zm-.37.9c-.45,0-.68-.22-.62-.64a.8.8,0,0,1,.78-.74.48.48,0,0,1,.47.22.61.61,0,0,1,.05.41l0,.09-1,0v0c0,.23.11.37.38.35a.76.76,0,0,0,.45-.15l.06,0,0,.29h0A1.06,1.06,0,0,1-228.78-105.36Z"/></clipPath><clipPath id="clip-path-12"><path class="cls-1" d="M-227.2-105.45l.14-1h-.22l0-.25h.21v0a.75.75,0,0,1,.26-.57.74.74,0,0,1,.43-.17h.16l0,.24h-.14a.29.29,0,0,0-.23.1.65.65,0,0,0-.13.36v0h.34l0,.24-.34,0-.14,1.05Z"/></clipPath><clipPath id="clip-path-13"><path class="cls-1" d="M-225.54-106.1c-.36,0-.44.12-.46.24s0,.15.17.15l.25,0Zm-.35.62q-.47,0-.42-.36c0-.29.27-.44.8-.51h0a.53.53,0,0,0,0-.19s-.07,0-.15,0a.9.9,0,0,0-.46.17l0,0,0-.3h0a1.17,1.17,0,0,1,.54-.17c.19,0,.32,0,.36.17a.57.57,0,0,1,0,.31l-.11.83h-.08A2.86,2.86,0,0,1-225.89-105.48Z"/></clipPath><clipPath id="clip-path-14"><path class="cls-1" d="M-224.92-105.54l.17-1.24h0a1.81,1.81,0,0,1,.56-.12.93.93,0,0,1,.24,0h0l0,.27h0a.37.37,0,0,0-.21,0,.8.8,0,0,0-.26.05l-.14,1Z"/></clipPath><clipPath id="clip-path-15"><path class="cls-1" d="M-222.18-105.64l.11-.83c0-.2,0-.26-.22-.26a1.14,1.14,0,0,0-.24,0,.73.73,0,0,1,0,.2l-.11.86H-223l.11-.83c0-.2,0-.26-.24-.26l-.25,0-.14,1.06h-.33l.17-1.25h0a2.39,2.39,0,0,1,.61-.11.58.58,0,0,1,.36.07,1.09,1.09,0,0,1,.46-.1.53.53,0,0,1,.41.12.38.38,0,0,1,.06.35l-.11.86Z"/></clipPath><clipPath id="clip-path-16"><path class="cls-1" d="M-237.22-105.07l.11-.83c0-.19,0-.26-.22-.25a.59.59,0,0,0-.25.05.47.47,0,0,1,0,.2l-.11.85H-238l.11-.83c0-.19,0-.26-.25-.25a.81.81,0,0,0-.25,0l-.14,1.06-.32,0,.16-1.26h0a3,3,0,0,1,.6-.11.82.82,0,0,1,.37.07,1.53,1.53,0,0,1,.45-.1.48.48,0,0,1,.41.13.38.38,0,0,1,.07.34l-.12.86Z"/></clipPath><clipPath id="clip-path-17"><path class="cls-1" d="M-221-107.17l.57-.58h.3l-.63.6Zm.27.88c-.37.05-.45.12-.47.25s0,.15.18.14l.24,0Zm-.35.63c-.32,0-.46-.11-.43-.36s.28-.45.81-.51h0v0c0-.11,0-.16,0-.18s-.07-.06-.14-.06a.9.9,0,0,0-.46.18l-.06,0,0-.29h0a1.32,1.32,0,0,1,.54-.16c.2,0,.32.05.37.16a.77.77,0,0,1,0,.31l-.11.84h-.08A4.11,4.11,0,0,1-221.06-105.66Z"/></clipPath><clipPath id="clip-path-18"><path class="cls-1" d="M-219.48-105.72a.54.54,0,0,1-.63-.64.84.84,0,0,1,.84-.73.65.65,0,0,1,.34.06h0l0,.29,0,0a.46.46,0,0,0-.3-.08.49.49,0,0,0-.49.45c0,.28.1.43.38.42a.74.74,0,0,0,.34-.12l.05,0,0,.29h0a.83.83,0,0,1-.41.1"/></clipPath><clipPath id="clip-path-19"><path class="cls-1" d="M-218.6-107.3l0-.34h.34l0,.34Zm-.19,1.53.17-1.33h.33l-.18,1.33Z"/></clipPath><clipPath id="clip-path-20"><path class="cls-1" d="M-217.33-106.42c-.36,0-.44.13-.46.25s0,.15.17.14l.25,0Zm-.35.63q-.47,0-.42-.36c0-.3.27-.45.8-.51h0a.53.53,0,0,0,0-.19s-.07-.06-.15,0a.82.82,0,0,0-.46.17l0,0,0-.29h0a1.28,1.28,0,0,1,.54-.16c.19,0,.32,0,.36.16a.62.62,0,0,1,0,.32l-.11.83h-.08A4.48,4.48,0,0,1-217.68-105.79Z"/></clipPath><clipPath id="clip-path-21"><path class="cls-1" d="M-248.89-110.7l-.55,3.11a4.39,4.39,0,0,0,2.8-3.19Z"/></clipPath><clipPath id="clip-path-22"><path class="cls-1" d="M-248.51-112.7l1.67-.07a4.11,4.11,0,0,0-1.36-1.74Z"/></clipPath><clipPath id="clip-path-23"><path class="cls-1" d="M-251.28-108.92c.14-.51.31-1.36,1.88-1.7.14,0,.12-.06,0-.06l-5.09.2c0-.27.19-1.1.25-1.42.1-.5.36-.6.83-.62l2.78-.1.51-2.78a5.71,5.71,0,0,0-1.5-.14c-2.67.1-4.77,2.05-4.69,4.35s2.15,3.93,4.68,4Z"/></clipPath><clipPath id="clip-path-24"><polygon class="cls-1" points="-235.27 -25.44 -265.81 -27.84 -265.51 -31.59 -239.04 -29.51 -239.13 -76.65 -235.37 -76.65 -235.27 -25.44"/></clipPath><clipPath id="clip-path-25"><rect class="cls-2" x="-225.12" y="-40.38" width="3.76" height="27.92" transform="translate(-180.05 -247.03) rotate(-85.67)"/></clipPath><clipPath id="clip-path-26"><path class="cls-1" d="M-231.61-42.11a1.88,1.88,0,0,1-1.62-.92,1.87,1.87,0,0,1,.66-2.57l1-.62v-1.89l-1.52-1.27A1.89,1.89,0,0,1-233.3-52a1.88,1.88,0,0,1,2.65-.24l2.2,1.83a1.89,1.89,0,0,1,.68,1.45v3.84a1.88,1.88,0,0,1-.92,1.62l-2,1.16a1.85,1.85,0,0,1-1,.26"/></clipPath><clipPath id="clip-path-27"><path class="cls-1" d="M-243.34-42.64a1.86,1.86,0,0,1-1-.27l-1.95-1.16a1.88,1.88,0,0,1-.92-1.62v-3.84A1.88,1.88,0,0,1-246.5-51l2.2-1.83a1.88,1.88,0,0,1,2.65.24,1.88,1.88,0,0,1-.24,2.65l-1.52,1.27v1.89l1,.62a1.88,1.88,0,0,1,.66,2.57,1.87,1.87,0,0,1-1.62.93"/></clipPath><clipPath id="clip-path-28"><path class="cls-2" d="M-552.28,348H-635.8l35.56-33.83a3.29,3.29,0,0,0,0-4.93,3.71,3.71,0,0,0-5.19,0l-42,39.81a3.3,3.3,0,0,0,0,4.94l41.85,39.81a3.72,3.72,0,0,0,5.18,0,3.29,3.29,0,0,0,0-4.94l-35.37-33.82h83.52a3.63,3.63,0,0,0,3.71-3.52A3.63,3.63,0,0,0-552.28,348Z"/></clipPath><clipPath id="clip-path-29"><path class="cls-2" d="M-792.87,348h83.52l-35.56-33.83a3.29,3.29,0,0,1,0-4.93,3.71,3.71,0,0,1,5.19,0l42,39.81a3.29,3.29,0,0,1,0,4.94l-41.85,39.81a3.72,3.72,0,0,1-5.18,0,3.3,3.3,0,0,1,0-4.94l35.37-33.82h-83.52a3.62,3.62,0,0,1-3.7-3.52A3.62,3.62,0,0,1-792.87,348Z"/></clipPath></defs><title>icons</title><path class="cls-2" d="M121.74,58.74l-9.82-17A13.6,13.6,0,0,0,100.19,35H85.49V33.07A13.25,13.25,0,0,0,72.26,19.83H13.74A13.26,13.26,0,0,0,.5,33.07v51A13.26,13.26,0,0,0,11.2,97a17.24,17.24,0,0,0,32.15.25H84.41a17.25,17.25,0,0,0,32.06,0h.17A10.87,10.87,0,0,0,127.5,86.43V68.32A10.87,10.87,0,0,0,121.74,58.74ZM100.19,42a6.58,6.58,0,0,1,5.67,3.28l7.06,12.19H85.49V42ZM34,26.83H50.3V40.94L45,35.66a4.08,4.08,0,0,0-5.78,0L34,40.94Zm-6.64,74.34a10.28,10.28,0,0,1-10-8.15c-.06-.3-.11-.62-.15-.93a.5.5,0,0,0,0-.12c0-.35-.05-.71-.05-1.07s0-.71.05-1.05a10.27,10.27,0,0,1,20.43,0,9,9,0,0,1,.06,1.05A9.46,9.46,0,0,1,37.53,92a.5.5,0,0,1,0,.12,7.21,7.21,0,0,1-.15.93A10.28,10.28,0,0,1,27.32,101.17ZM44.58,90.29c0-.2,0-.4,0-.6s0-.55-.07-.83-.09-.59-.14-.88-.09-.54-.15-.81-.14-.56-.22-.85-.14-.52-.22-.77-.2-.55-.3-.82-.19-.5-.29-.74-.25-.53-.38-.79-.23-.46-.36-.69-.3-.5-.46-.75-.26-.44-.41-.65-.35-.47-.53-.71-.3-.4-.46-.59-.4-.45-.61-.67-.33-.36-.51-.54-.44-.41-.67-.61-.36-.33-.55-.48-.49-.38-.75-.56-.37-.29-.57-.42-.55-.34-.82-.5l-.59-.35c-.3-.16-.6-.3-.91-.44L34,75c-.33-.14-.68-.26-1-.37a5.31,5.31,0,0,0-.56-.2c-.37-.12-.76-.21-1.15-.3L30.77,74a13.5,13.5,0,0,0-1.44-.22l-.26,0a16.8,16.8,0,0,0-1.75-.09,16.23,16.23,0,0,0-1.72.09l-.45.06c-.41,0-.82.11-1.22.19l-.58.14c-.34.08-.69.16-1,.26s-.42.14-.63.21l-.92.34-.63.28-.84.41-.62.35-.77.47c-.21.13-.4.27-.59.41s-.49.35-.72.53l-.56.47-.65.59c-.18.17-.35.34-.52.52s-.4.43-.59.65-.32.37-.47.56-.36.47-.53.71-.29.39-.42.6-.31.5-.47.76-.24.41-.35.63-.27.55-.4.82-.21.43-.3.65-.22.6-.33.9-.16.43-.22.64-.18.68-.27,1c0,.19-.1.38-.14.58-.1.49-.17,1-.23,1.49,0,.06,0,.11,0,.17h0A6.22,6.22,0,0,1,7.5,84.05v-51a6.25,6.25,0,0,1,6.24-6.24h12v24a4.11,4.11,0,0,0,2.52,3.78,4.29,4.29,0,0,0,1.57.3,4.07,4.07,0,0,0,2.88-1.19l9.37-9.37,9.36,9.37a4.09,4.09,0,0,0,7-2.89v-24H72.26a6.25,6.25,0,0,1,6.23,6.24v51a5.66,5.66,0,0,1-.09,1,.59.59,0,0,1,0,.13,6.89,6.89,0,0,1-.24.92.78.78,0,0,0,0,.14c-.12.29-.25.58-.4.86l-.06.09a6,6,0,0,1-.54.78l0,0a5.71,5.71,0,0,1-.64.66l-.15.13a6,6,0,0,1-.7.52l-.2.12a5.68,5.68,0,0,1-.78.39l-.19.07a5.58,5.58,0,0,1-.91.26,5.74,5.74,0,0,1-1.24.13Zm55.86,10.88a10.28,10.28,0,0,1-10-8.15c-.06-.3-.11-.62-.15-.93a.5.5,0,0,0,0-.12c0-.35,0-.71,0-1.07a9,9,0,0,1,0-1.05,10.27,10.27,0,0,1,20.43,0,9,9,0,0,1,.06,1.05,9.46,9.46,0,0,1-.06,1.07l0,.18a8.74,8.74,0,0,1-.14.87A10.28,10.28,0,0,1,100.44,101.17ZM120.5,86.43a3.86,3.86,0,0,1-2.81,3.71c0-.17,0-.34,0-.51s0-.56-.08-.84-.08-.58-.13-.86-.1-.55-.16-.82-.13-.56-.21-.83-.15-.53-.23-.79-.2-.54-.3-.8-.19-.5-.3-.75-.24-.51-.37-.77-.24-.47-.37-.7-.29-.5-.44-.74-.28-.44-.43-.66-.34-.46-.52-.69-.31-.41-.47-.6-.39-.44-.59-.65-.34-.38-.52-.55l-.66-.6-.56-.49-.73-.55c-.2-.14-.39-.29-.59-.42s-.54-.33-.81-.49-.39-.25-.6-.36l-.89-.43-.6-.28c-.32-.13-.65-.24-1-.36s-.39-.15-.59-.21c-.37-.11-.74-.2-1.12-.29l-.51-.13c-.45-.09-.91-.15-1.37-.2l-.32,0a17,17,0,0,0-1.75-.09c-.54,0-1.07,0-1.59.08l-.35,0a17,17,0,0,0-3,.61l-.33.11c-.48.15-1,.32-1.4.51h0c-.47.2-.91.42-1.36.65a3.07,3.07,0,0,1-.31.17c-.42.24-.83.48-1.22.75l0,0c-.41.28-.8.58-1.19.89l-.27.22c-.36.31-.71.62-1,.94l-.06.07a12.8,12.8,0,0,0-1,1.09l-.23.27c-.29.36-.57.73-.83,1.11l-.06.09c-.22.32-.42.65-.62,1V64.46h31.15a3.86,3.86,0,0,1,3.86,3.86Z"/><path class="cls-3" d="M-198.15-20.92h-.15l-11-.91A1.88,1.88,0,0,1-211-23.72V-68A6.42,6.42,0,0,0-212.73-73a6.62,6.62,0,0,0-4.49-1.45h-.18l-47.55-.53V-28a1.91,1.91,0,0,1-.6,1.38,1.89,1.89,0,0,1-1.43.49l-9.25-.73A1.88,1.88,0,0,1-278-28.77c0-.3.27-29.77.21-36.75a14.83,14.83,0,0,1,3.35-9.34h-5.89a3.55,3.55,0,0,1-3.26-2.65,1.77,1.77,0,0,1-.09-.56v-6.09c0-3.06,1.89-4.32,3-4.58a1.83,1.83,0,0,1,.4-.05L-213-89.7h.26c15.86,2,16.66,15.93,16.67,16.07v.09l-.19,50.73a1.85,1.85,0,0,1-.61,1.38A1.86,1.86,0,0,1-198.15-20.92Zm-9.1-4.53,7.23.6.17-48.64c-.05-.78-.94-10.83-13.24-12.45L-279.7-85a1.63,1.63,0,0,0-.18.87v5.54h10.12a1.91,1.91,0,0,1,1.43.65,1.12,1.12,0,0,1,.18-.2,1.82,1.82,0,0,1,1.34-.54l49.38.54a10.36,10.36,0,0,1,7.22,2.42c2,1.79,3,4.39,3,7.71Zm-66.93-5,5.47.43V-75.18h0S-274-71.5-274-65.56-274.12-37-274.18-30.49Z"/><g class="cls-4"><rect class="cls-2" x="-4781.42" y="-2604.85" width="6348.4" height="5052.27"/></g><path class="cls-3" d="M-193-24.39h-3.76V-74c-.09-1-1.31-11.3-12-12.12l.28-3.75C-197.12-89-193.4-79.26-193-74.22v49.83Z"/><g class="cls-5"><rect class="cls-2" x="-4781.42" y="-2604.85" width="6348.4" height="5052.27"/></g><path class="cls-3" d="M-272.63-91.92a1.89,1.89,0,0,1-1.88-1.87l-.12-19.85a1.87,1.87,0,0,1,1.82-1.89l9.64-.3h.1l3.42.06a1.87,1.87,0,0,1,1.84,1.91,1.87,1.87,0,0,1-1.91,1.85l-3.37-.06-7.77.24.11,18a1.89,1.89,0,0,1-1.87,1.9Z"/><g class="cls-6"><rect class="cls-2" x="-4781.42" y="-2604.85" width="6348.4" height="5052.27"/></g><path class="cls-3" d="M-257-99h-.47a5,5,0,0,1-4.15-1.76,4.56,4.56,0,0,1-.8-3.49l.84-9.68c-.08-2.54.62-4.44,2.06-5.65a6.07,6.07,0,0,1,4.7-1.2l41.85-2,.23,0c2.51.51,4.25,1.53,5.19,3a4.49,4.49,0,0,1,.64,3.1c-.11,1.42-.78,9.74-1.45,12.36a5.76,5.76,0,0,1-4.77,4.33l-.18,0c-1.6,0-37.92.92-43.69.92m1.2-18.09a2.07,2.07,0,0,0-1.31.39,3.66,3.66,0,0,0-.71,2.73v.12l-.91,10.29a.75.75,0,0,0,.08.49,1.83,1.83,0,0,0,1.23.3c3.66.07,41.35-.85,43.88-.91A2,2,0,0,0-212-105.2c.52-2,1.15-9.22,1.35-11.83l.05-.31c0-.54-.81-1.27-2.66-1.68l-41.82,2-.23,0a4.69,4.69,0,0,0-.48,0"/><g class="cls-7"><rect class="cls-2" x="-4781.42" y="-2604.85" width="6348.4" height="5052.27"/></g><path class="cls-3" d="M-220.32-113.91a1.2,1.2,0,0,0-.92-.27,1.68,1.68,0,0,0-1,.4,2.2,2.2,0,0,0-.62,1.24s0,.1,0,.17,1.09,0,1.95-.06c.5,0,.79-.16.85-.6a1,1,0,0,0-.2-.88m1.84,1a1.43,1.43,0,0,1-.62,1.08,2.71,2.71,0,0,1-1.42.4,9.73,9.73,0,0,1-1.85,0c-.39-.08-.51-.65-.57-.81a4,4,0,0,0-.07,1.08,1.14,1.14,0,0,0,.5,1,2.16,2.16,0,0,0,1.22.24c.32,0,.65,0,1-.07l.82-.11h0c.07,0,.14,0,.13.12l-.1.83a.15.15,0,0,1-.12.13,8.07,8.07,0,0,1-1.05.25,8.6,8.6,0,0,1-1.08.11,4.6,4.6,0,0,1-1.53-.16,2,2,0,0,1-1-.58,2,2,0,0,1-.46-1,4.36,4.36,0,0,1,0-1.36l0-.41a3.86,3.86,0,0,1,1.05-2.33,3.6,3.6,0,0,1,2.5-.92,2.56,2.56,0,0,1,2.08.63,2.36,2.36,0,0,1,.47,1.93m-22.44-1.74-4.45.17c-.29,0-.39.21-.44.49l-.1.82c0,.23.08.32.3.31h.38l1.4-.06c.11,0,.05,0,0,0a2.36,2.36,0,0,0-1.29,1.9c0,.21-.34,2.66-.34,2.66a.86.86,0,0,0,0,.16c0,.23.14.28.23.28l.89,0h.08c.35,0,.45-.11.49-.47s.54-4.28.58-4.56l1,0c.49,0,1.06-.08,1.33.25s.23.71.16,1.26c0,0-.37,3-.37,3a.76.76,0,0,0,0,.15c0,.23.13.28.22.28l.9,0h.08c.35,0,.44-.11.49-.47,0-.12.48-3.76.51-4a1.88,1.88,0,0,0-2.08-2.07m25-.33c0-.24,0-.66-.47-.64l-.81,0a.42.42,0,0,0-.4.35l-.73,5.89c-.05.32.06.44.22.43l1.17,0a.35.35,0,0,0,.31-.29l.1-.7s.23-1.92.43-3.51a.31.31,0,0,0-.35-.36l-.95,0h-.08c.51-.09,1.48-.54,1.56-1.19M-236.5-113l-.95,0h-.11s0,0,0,0c.51-.1,1.49-.54,1.57-1.2,0-.24,0-.66-.48-.64l-.81,0a.42.42,0,0,0-.39.36l-.73,5.88c-.06.32,0,.44.21.44l1.17-.05a.33.33,0,0,0,.32-.28l.09-.71s.24-1.91.43-3.5a.31.31,0,0,0-.34-.37m11.31-2a4.31,4.31,0,0,0-.91-.18,9.43,9.43,0,0,0-1.07,0,3.94,3.94,0,0,0-1,.15,2.79,2.79,0,0,0-.8.36,2.18,2.18,0,0,0-.56.61,2.24,2.24,0,0,0-.28.86,1.38,1.38,0,0,0,.25,1.11,2.47,2.47,0,0,0,1.05.69l1,.38a1.67,1.67,0,0,1,.45.26.46.46,0,0,1,.15.43.62.62,0,0,1-.31.49,1.74,1.74,0,0,1-.76.17h-1.05c-.38,0-.73,0-1-.06h0a.1.1,0,0,0-.11.1s0,0,0,0l-.11.93c0,.1,0,.16.12.17a9.72,9.72,0,0,0,1.12.17,8.28,8.28,0,0,0,1.23,0A3.3,3.3,0,0,0-226-109a2,2,0,0,0,.82-1.43,1.57,1.57,0,0,0-.23-1.14,2.25,2.25,0,0,0-1-.72l-1-.4a3.06,3.06,0,0,1-.45-.23.38.38,0,0,1-.14-.41.56.56,0,0,1,.3-.48,2.16,2.16,0,0,1,.69-.13h.88c.29,0,.59,0,.87.07h.06a.1.1,0,0,0,.1-.09c0-.06,0,0,0,0l.12-.93a.17.17,0,0,0-.14-.18m-5.38,1.34a.13.13,0,0,1-.1.1h-.06c-.28,0-.57-.05-.86-.06s-.6,0-.89,0a1.72,1.72,0,0,0-.69.13.56.56,0,0,0-.3.47.4.4,0,0,0,.14.41,3.06,3.06,0,0,0,.45.23l1,.41a2.18,2.18,0,0,1,1,.72,1.54,1.54,0,0,1,.23,1.13,2,2,0,0,1-.82,1.44,3.24,3.24,0,0,1-1.84.57,10,10,0,0,1-1.24,0,9.56,9.56,0,0,1-1.11-.16.14.14,0,0,1-.13-.18l.12-.93v0a.1.1,0,0,1,.11-.09h0c.3,0,.65,0,1,.06s.74,0,1.06,0a1.58,1.58,0,0,0,.75-.16.64.64,0,0,0,.31-.49.49.49,0,0,0-.14-.43,1.93,1.93,0,0,0-.46-.26l-1-.39a2.38,2.38,0,0,1-1-.69,1.41,1.41,0,0,1-.25-1.11,2.24,2.24,0,0,1,.28-.86,2.14,2.14,0,0,1,.56-.6,2.8,2.8,0,0,1,.8-.37,4.46,4.46,0,0,1,1-.14,6.47,6.47,0,0,1,1.08,0,4.24,4.24,0,0,1,.9.17c.07,0,.16.07.14.18l-.11.93s0,0,0,0"/><g class="cls-8"><rect class="cls-2" x="-4781.42" y="-2604.85" width="6348.4" height="5052.27"/></g><path class="cls-3" d="M-235.7-105.72c-.37,0-.45.13-.47.25s0,.15.18.14l.24,0Zm-.35.63c-.32,0-.46-.11-.43-.36s.27-.44.8-.51h0a.53.53,0,0,0,0-.19s-.07-.06-.15,0a.77.77,0,0,0-.45.17l-.06,0,0-.29h0a1.28,1.28,0,0,1,.54-.16c.19,0,.32,0,.36.16a.62.62,0,0,1,0,.32l-.11.83h-.08A4.35,4.35,0,0,1-236-105.09Z"/><g class="cls-9"><rect class="cls-2" x="-4781.42" y="-2604.85" width="6348.4" height="5052.27"/></g><path class="cls-3" d="M-234.9-106.68l.05-.34h.34l0,.34Zm-.19,1.53.18-1.33h.32l-.17,1.33Z"/><g class="cls-10"><rect class="cls-2" x="-4781.42" y="-2604.85" width="6348.4" height="5052.27"/></g><path class="cls-3" d="M-234-105.15a1,1,0,0,1-.37-.07h0l0-.32,0,0a.46.46,0,0,0,.32.11c.14,0,.23-.07.24-.15a.1.1,0,0,0-.07-.12.64.64,0,0,0-.17-.08c-.23-.11-.31-.2-.28-.38a.56.56,0,0,1,.57-.42.93.93,0,0,1,.34.06h0l0,.3-.05,0a.43.43,0,0,0-.29-.08c-.13,0-.22.06-.23.13s0,.09.2.17a.59.59,0,0,1,.25.16.28.28,0,0,1,.08.25.56.56,0,0,1-.59.43"/><g class="cls-11"><rect class="cls-2" x="-4781.42" y="-2604.85" width="6348.4" height="5052.27"/></g><path class="cls-3" d="M-231.7-106.37a.52.52,0,0,0-.55.46c0,.28.1.42.38.4l.19,0,.11-.83Zm-.1,1.75.09-.67a.71.71,0,0,1-.24,0c-.45,0-.68-.22-.63-.63a.88.88,0,0,1,1-.74,1.76,1.76,0,0,1,.39,0h0l-.26,2Z"/><g class="cls-12"><rect class="cls-2" x="-4781.42" y="-2604.85" width="6348.4" height="5052.27"/></g><path class="cls-3" d="M-230.4-105.31a.62.62,0,0,1-.44-.1c-.09-.08-.11-.19-.09-.4l.11-.83h.33l-.11.81c0,.22,0,.28.27.27l.23,0,.14-1.08h.32l-.17,1.29h0a3.51,3.51,0,0,1-.57.08"/><g class="cls-13"><rect class="cls-2" x="-4781.42" y="-2604.85" width="6348.4" height="5052.27"/></g><path class="cls-3" d="M-228.41-106.26c0-.16-.09-.23-.25-.23a.41.41,0,0,0-.37.26Zm-.37.9c-.45,0-.68-.22-.62-.64a.8.8,0,0,1,.78-.74.48.48,0,0,1,.47.22.61.61,0,0,1,.05.41l0,.09-1,0v0c0,.23.11.37.38.35a.76.76,0,0,0,.45-.15l.06,0,0,.29h0A1.06,1.06,0,0,1-228.78-105.36Z"/><g class="cls-14"><rect class="cls-2" x="-4781.42" y="-2604.85" width="6348.4" height="5052.27"/></g><path class="cls-3" d="M-227.2-105.45l.14-1h-.22l0-.25h.21v0a.75.75,0,0,1,.26-.57.74.74,0,0,1,.43-.17h.16l0,.24h-.14a.29.29,0,0,0-.23.1.65.65,0,0,0-.13.36v0h.34l0,.24-.34,0-.14,1.05Z"/><g class="cls-15"><rect class="cls-2" x="-4781.42" y="-2604.85" width="6348.4" height="5052.27"/></g><path class="cls-3" d="M-225.54-106.1c-.36,0-.44.12-.46.24s0,.15.17.15l.25,0Zm-.35.62q-.47,0-.42-.36c0-.29.27-.44.8-.51h0a.53.53,0,0,0,0-.19s-.07,0-.15,0a.9.9,0,0,0-.46.17l0,0,0-.3h0a1.17,1.17,0,0,1,.54-.17c.19,0,.32,0,.36.17a.57.57,0,0,1,0,.31l-.11.83h-.08A2.86,2.86,0,0,1-225.89-105.48Z"/><g class="cls-16"><rect class="cls-2" x="-4781.42" y="-2604.85" width="6348.4" height="5052.27"/></g><path class="cls-3" d="M-224.92-105.54l.17-1.24h0a1.81,1.81,0,0,1,.56-.12.93.93,0,0,1,.24,0h0l0,.27h0a.37.37,0,0,0-.21,0,.8.8,0,0,0-.26.05l-.14,1Z"/><g class="cls-17"><rect class="cls-2" x="-4781.42" y="-2604.85" width="6348.4" height="5052.27"/></g><path class="cls-3" d="M-222.18-105.64l.11-.83c0-.2,0-.26-.22-.26a1.14,1.14,0,0,0-.24,0,.73.73,0,0,1,0,.2l-.11.86H-223l.11-.83c0-.2,0-.26-.24-.26l-.25,0-.14,1.06h-.33l.17-1.25h0a2.39,2.39,0,0,1,.61-.11.58.58,0,0,1,.36.07,1.09,1.09,0,0,1,.46-.1.53.53,0,0,1,.41.12.38.38,0,0,1,.06.35l-.11.86Z"/><g class="cls-18"><rect class="cls-2" x="-4781.42" y="-2604.85" width="6348.4" height="5052.27"/></g><path class="cls-3" d="M-237.22-105.07l.11-.83c0-.19,0-.26-.22-.25a.59.59,0,0,0-.25.05.47.47,0,0,1,0,.2l-.11.85H-238l.11-.83c0-.19,0-.26-.25-.25a.81.81,0,0,0-.25,0l-.14,1.06-.32,0,.16-1.26h0a3,3,0,0,1,.6-.11.82.82,0,0,1,.37.07,1.53,1.53,0,0,1,.45-.1.48.48,0,0,1,.41.13.38.38,0,0,1,.07.34l-.12.86Z"/><g class="cls-19"><rect class="cls-2" x="-4781.42" y="-2604.85" width="6348.4" height="5052.27"/></g><path class="cls-3" d="M-221-107.17l.57-.58h.3l-.63.6Zm.27.88c-.37.05-.45.12-.47.25s0,.15.18.14l.24,0Zm-.35.63c-.32,0-.46-.11-.43-.36s.28-.45.81-.51h0v0c0-.11,0-.16,0-.18s-.07-.06-.14-.06a.9.9,0,0,0-.46.18l-.06,0,0-.29h0a1.32,1.32,0,0,1,.54-.16c.2,0,.32.05.37.16a.77.77,0,0,1,0,.31l-.11.84h-.08A4.11,4.11,0,0,1-221.06-105.66Z"/><g class="cls-20"><rect class="cls-2" x="-4781.42" y="-2604.85" width="6348.4" height="5052.27"/></g><path class="cls-3" d="M-219.48-105.72a.54.54,0,0,1-.63-.64.84.84,0,0,1,.84-.73.65.65,0,0,1,.34.06h0l0,.29,0,0a.46.46,0,0,0-.3-.08.49.49,0,0,0-.49.45c0,.28.1.43.38.42a.74.74,0,0,0,.34-.12l.05,0,0,.29h0a.83.83,0,0,1-.41.1"/><g class="cls-21"><rect class="cls-2" x="-4781.42" y="-2604.85" width="6348.4" height="5052.27"/></g><path class="cls-3" d="M-218.6-107.3l0-.34h.34l0,.34Zm-.19,1.53.17-1.33h.33l-.18,1.33Z"/><g class="cls-22"><rect class="cls-2" x="-4781.42" y="-2604.85" width="6348.4" height="5052.27"/></g><path class="cls-3" d="M-217.33-106.42c-.36,0-.44.13-.46.25s0,.15.17.14l.25,0Zm-.35.63q-.47,0-.42-.36c0-.3.27-.45.8-.51h0a.53.53,0,0,0,0-.19s-.07-.06-.15,0a.82.82,0,0,0-.46.17l0,0,0-.29h0a1.28,1.28,0,0,1,.54-.16c.19,0,.32,0,.36.16a.62.62,0,0,1,0,.32l-.11.83h-.08A4.48,4.48,0,0,1-217.68-105.79Z"/><g class="cls-23"><rect class="cls-2" x="-4781.42" y="-2604.85" width="6348.4" height="5052.27"/></g><path class="cls-3" d="M-248.89-110.7l-.55,3.11a4.39,4.39,0,0,0,2.8-3.19Z"/><g class="cls-24"><rect class="cls-2" x="-4781.42" y="-2604.85" width="6348.4" height="5052.27"/></g><path class="cls-3" d="M-248.51-112.7l1.67-.07a4.11,4.11,0,0,0-1.36-1.74Z"/><g class="cls-25"><rect class="cls-2" x="-4781.42" y="-2604.85" width="6348.4" height="5052.27"/></g><path class="cls-3" d="M-251.28-108.92c.14-.51.31-1.36,1.88-1.7.14,0,.12-.06,0-.06l-5.09.2c0-.27.19-1.1.25-1.42.1-.5.36-.6.83-.62l2.78-.1.51-2.78a5.71,5.71,0,0,0-1.5-.14c-2.67.1-4.77,2.05-4.69,4.35s2.15,3.93,4.68,4Z"/><g class="cls-26"><rect class="cls-2" x="-4781.42" y="-2604.85" width="6348.4" height="5052.27"/></g><polygon class="cls-3" points="-235.27 -25.44 -265.81 -27.84 -265.51 -31.59 -239.04 -29.51 -239.13 -76.65 -235.37 -76.65 -235.27 -25.44"/><g class="cls-27"><rect class="cls-2" x="-4781.42" y="-2604.85" width="6348.4" height="5052.27"/></g><rect class="cls-2" x="-225.12" y="-40.38" width="3.76" height="27.92" transform="translate(-180.05 -247.03) rotate(-85.67)"/><g class="cls-28"><rect class="cls-2" x="-4781.42" y="-2604.85" width="6348.4" height="5052.27"/></g><path class="cls-3" d="M-231.61-42.11a1.88,1.88,0,0,1-1.62-.92,1.87,1.87,0,0,1,.66-2.57l1-.62v-1.89l-1.52-1.27A1.89,1.89,0,0,1-233.3-52a1.88,1.88,0,0,1,2.65-.24l2.2,1.83a1.89,1.89,0,0,1,.68,1.45v3.84a1.88,1.88,0,0,1-.92,1.62l-2,1.16a1.85,1.85,0,0,1-1,.26"/><g class="cls-29"><rect class="cls-2" x="-4781.42" y="-2604.85" width="6348.4" height="5052.27"/></g><path class="cls-3" d="M-243.34-42.64a1.86,1.86,0,0,1-1-.27l-1.95-1.16a1.88,1.88,0,0,1-.92-1.62v-3.84A1.88,1.88,0,0,1-246.5-51l2.2-1.83a1.88,1.88,0,0,1,2.65.24,1.88,1.88,0,0,1-.24,2.65l-1.52,1.27v1.89l1,.62a1.88,1.88,0,0,1,.66,2.57,1.87,1.87,0,0,1-1.62.93"/><g class="cls-30"><rect class="cls-2" x="-4781.42" y="-2604.85" width="6348.4" height="5052.27"/></g><path class="cls-2" d="M-552.28,348H-635.8l35.56-33.83a3.29,3.29,0,0,0,0-4.93,3.71,3.71,0,0,0-5.19,0l-42,39.81a3.3,3.3,0,0,0,0,4.94l41.85,39.81a3.72,3.72,0,0,0,5.18,0,3.29,3.29,0,0,0,0-4.94l-35.37-33.82h83.52a3.63,3.63,0,0,0,3.71-3.52A3.63,3.63,0,0,0-552.28,348Z"/><g class="cls-31"><rect class="cls-2" x="-1348.57" y="-2385.12" width="9600" height="25640"/></g><path class="cls-2" d="M-792.87,348h83.52l-35.56-33.83a3.29,3.29,0,0,1,0-4.93,3.71,3.71,0,0,1,5.19,0l42,39.81a3.29,3.29,0,0,1,0,4.94l-41.85,39.81a3.72,3.72,0,0,1-5.18,0,3.3,3.3,0,0,1,0-4.94l35.37-33.82h-83.52a3.62,3.62,0,0,1-3.7-3.52A3.62,3.62,0,0,1-792.87,348Z"/><g class="cls-32"><rect class="cls-2" x="-9596.57" y="-2385.12" width="9600" height="25640"/></g></svg>