<svg id="Layer_1" data-name="Layer 1" xmlns="http://www.w3.org/2000/svg" xmlns:xlink="http://www.w3.org/1999/xlink" viewBox="0 0 128 128"><defs><style>.cls-1{fill:#8a9297;}.cls-2{clip-path:url(#clip-path);}.cls-3{fill:url(#linear-gradient);}.cls-4{fill:url(#linear-gradient-2);}.cls-5{fill:url(#linear-gradient-3);}.cls-6{fill:url(#linear-gradient-4);}.cls-7{fill:url(#linear-gradient-5);}.cls-8{fill:url(#linear-gradient-6);}.cls-9{fill:url(#linear-gradient-7);}.cls-10{fill:url(#linear-gradient-8);}.cls-11{fill:url(#linear-gradient-9);}.cls-12{fill:url(#linear-gradient-10);}.cls-13{fill:url(#linear-gradient-11);}.cls-14{fill:url(#linear-gradient-12);}.cls-15{fill:url(#linear-gradient-13);}.cls-16{fill:url(#linear-gradient-14);}.cls-17{fill:url(#linear-gradient-15);}.cls-18{fill:url(#linear-gradient-16);}.cls-19{fill:url(#linear-gradient-17);}.cls-20{fill:url(#linear-gradient-18);}.cls-21{fill:url(#linear-gradient-19);}.cls-22{fill:url(#linear-gradient-20);}.cls-23{fill:url(#linear-gradient-21);}.cls-24{fill:url(#linear-gradient-22);}.cls-25{fill:url(#linear-gradient-23);}.cls-26{fill:url(#linear-gradient-24);}.cls-27{fill:url(#linear-gradient-25);}.cls-28{fill:url(#linear-gradient-26);}.cls-29{fill:url(#linear-gradient-27);}.cls-30{fill:url(#linear-gradient-28);}.cls-31{fill:url(#linear-gradient-29);}.cls-32{fill:url(#linear-gradient-30);}</style><clipPath id="clip-path"><path class="cls-1" d="M757.7-1271.61h83.52l-35.55-33.82a3.3,3.3,0,0,1,0-4.94,3.7,3.7,0,0,1,5.18,0l42,39.81a3.3,3.3,0,0,1,0,4.94L811-1225.81a3.71,3.71,0,0,1-5.19,0,3.3,3.3,0,0,1,0-4.94l35.37-33.82H757.7a3.62,3.62,0,0,1-3.7-3.52A3.62,3.62,0,0,1,757.7-1271.61Z"/></clipPath><linearGradient id="linear-gradient" x1="64.37" y1="94.1" x2="64.37" y2="82.83" gradientUnits="userSpaceOnUse"><stop offset="0" stop-color="#083050"/><stop offset="1" stop-color="#3d85c6"/></linearGradient><linearGradient id="linear-gradient-2" x1="50.73" y1="93.56" x2="50.73" y2="82.26" xlink:href="#linear-gradient"/><linearGradient id="linear-gradient-3" x1="67.39" y1="27.48" x2="67.39" y2="20.59" xlink:href="#linear-gradient"/><linearGradient id="linear-gradient-4" x1="78.03" y1="26.99" x2="78.03" y2="20.29" xlink:href="#linear-gradient"/><linearGradient id="linear-gradient-5" x1="62" y1="27.68" x2="62" y2="20.79" xlink:href="#linear-gradient"/><linearGradient id="linear-gradient-6" x1="73.54" y1="27.2" x2="73.54" y2="20.44" xlink:href="#linear-gradient"/><linearGradient id="linear-gradient-7" x1="52.73" y1="28.03" x2="52.73" y2="21.26" xlink:href="#linear-gradient"/><linearGradient id="linear-gradient-8" x1="57.92" y1="27.76" x2="57.92" y2="21.05" xlink:href="#linear-gradient"/><linearGradient id="linear-gradient-9" x1="59.19" y1="30.77" x2="59.19" y2="29.39" xlink:href="#linear-gradient"/><linearGradient id="linear-gradient-10" x1="60.4" y1="29.18" x2="60.4" y2="28.83" xlink:href="#linear-gradient"/><linearGradient id="linear-gradient-11" x1="60.26" y1="30.71" x2="60.26" y2="29.37" xlink:href="#linear-gradient"/><linearGradient id="linear-gradient-12" x1="61.2" y1="30.71" x2="61.2" y2="29.31" xlink:href="#linear-gradient"/><linearGradient id="linear-gradient-13" x1="63.2" y1="31.24" x2="63.2" y2="29.24" xlink:href="#linear-gradient"/><linearGradient id="linear-gradient-14" x1="64.81" y1="30.55" x2="64.81" y2="29.18" xlink:href="#linear-gradient"/><linearGradient id="linear-gradient-15" x1="66.35" y1="30.5" x2="66.35" y2="29.12" xlink:href="#linear-gradient"/><linearGradient id="linear-gradient-16" x1="68.38" y1="30.41" x2="68.38" y2="28.35" xlink:href="#linear-gradient"/><linearGradient id="linear-gradient-17" x1="69.35" y1="30.38" x2="69.35" y2="29" xlink:href="#linear-gradient"/><linearGradient id="linear-gradient-18" x1="70.69" y1="30.33" x2="70.69" y2="28.95" xlink:href="#linear-gradient"/><linearGradient id="linear-gradient-19" x1="72.32" y1="30.28" x2="72.32" y2="28.88" xlink:href="#linear-gradient"/><linearGradient id="linear-gradient-20" x1="57.28" y1="30.86" x2="57.28" y2="29.45" xlink:href="#linear-gradient"/><linearGradient id="linear-gradient-21" x1="74.18" y1="30.2" x2="74.18" y2="28.82" xlink:href="#linear-gradient"/><linearGradient id="linear-gradient-22" x1="74.56" y1="28.72" x2="74.56" y2="28.11" xlink:href="#linear-gradient"/><linearGradient id="linear-gradient-23" x1="75.59" y1="30.15" x2="75.59" y2="28.77" xlink:href="#linear-gradient"/><linearGradient id="linear-gradient-24" x1="76.56" y1="30.09" x2="76.56" y2="28.75" xlink:href="#linear-gradient"/><linearGradient id="linear-gradient-25" x1="76.69" y1="28.56" x2="76.69" y2="28.21" xlink:href="#linear-gradient"/><linearGradient id="linear-gradient-26" x1="77.56" y1="30.07" x2="77.56" y2="28.69" xlink:href="#linear-gradient"/><linearGradient id="linear-gradient-27" x1="47.06" y1="28.27" x2="47.06" y2="25.08" xlink:href="#linear-gradient"/><linearGradient id="linear-gradient-28" x1="47.42" y1="23.16" x2="47.42" y2="21.35" xlink:href="#linear-gradient"/><linearGradient id="linear-gradient-29" x1="42.31" y1="28.66" x2="42.31" y2="20.32" xlink:href="#linear-gradient"/><linearGradient id="linear-gradient-30" x1="64" y1="114.94" x2="64" y2="13.06" xlink:href="#linear-gradient"/></defs><title>icon</title><path class="cls-1" d="M757.7-1271.61h83.52l-35.55-33.82a3.3,3.3,0,0,1,0-4.94,3.7,3.7,0,0,1,5.18,0l42,39.81a3.3,3.3,0,0,1,0,4.94L811-1225.81a3.71,3.71,0,0,1-5.19,0,3.3,3.3,0,0,1,0-4.94l35.37-33.82H757.7a3.62,3.62,0,0,1-3.7-3.52A3.62,3.62,0,0,1,757.7-1271.61Z"/><g class="cls-2"><rect class="cls-1" x="-8046" y="-4004.76" width="9600" height="25640"/></g><path class="cls-3" d="M64.5,83.29a2,2,0,0,0-3.27,1.18,1.93,1.93,0,0,0,.7,1.88l1.63,1.36v2l-1.1.65a2,2,0,0,0-1,1.94,2,2,0,0,0,2,1.78,2,2,0,0,0,1-.28l2.14-1.27a1.88,1.88,0,0,0,.92-1.62V86.72a1.89,1.89,0,0,0-.68-1.45Z"/><path class="cls-4" d="M53.18,85.83a2,2,0,0,0-.58-3.43,1.9,1.9,0,0,0-2,.34l-2.39,2a1.89,1.89,0,0,0-.68,1.45v4.21A1.88,1.88,0,0,0,48.48,92l2.14,1.27a2,2,0,0,0,1,.28,2,2,0,0,0,2-1.77,2,2,0,0,0-1-2l-1.1-.65v-2Z"/><path class="cls-5" d="M64.86,27.28c.36.07.73.12,1.12.16a8.28,8.28,0,0,0,1.23,0,3.28,3.28,0,0,0,1.85-.57,2,2,0,0,0,.82-1.43,1.58,1.58,0,0,0-.23-1.14,2.25,2.25,0,0,0-1-.72l-1-.4a3.06,3.06,0,0,1-.45-.23.38.38,0,0,1-.14-.41.57.57,0,0,1,.3-.48A2,2,0,0,1,68,22a6.46,6.46,0,0,1,.88,0q.45,0,.87.06h.06l.1-.09v0l.12-.93a.17.17,0,0,0-.14-.18,5,5,0,0,0-.91-.18,9.43,9.43,0,0,0-1.07,0,4.46,4.46,0,0,0-1,.15,2.56,2.56,0,0,0-.8.37,2.14,2.14,0,0,0-.56.6,2.24,2.24,0,0,0-.28.86,1.38,1.38,0,0,0,.25,1.11,2.47,2.47,0,0,0,1,.69l1,.38A1.67,1.67,0,0,1,68,25a.47.47,0,0,1,.15.43.62.62,0,0,1-.31.49,1.58,1.58,0,0,1-.76.17H66c-.38,0-.73,0-1-.06h0l-.11.1v0l-.11.93C64.73,27.21,64.76,27.26,64.86,27.28Z"/><path class="cls-6" d="M77,27l1.17,0a.34.34,0,0,0,.31-.29l.1-.7s.23-1.92.43-3.5a.3.3,0,0,0-.34-.37l-1,0h-.08c.51-.09,1.48-.53,1.56-1.19,0-.24,0-.66-.47-.64l-.81,0a.43.43,0,0,0-.4.35l-.73,5.89C76.77,26.88,76.88,27,77,27Z"/><path class="cls-7" d="M59.47,27.48c.35.07.73.13,1.11.17s.8,0,1.24,0a3.24,3.24,0,0,0,1.84-.57,2,2,0,0,0,.82-1.44,1.54,1.54,0,0,0-.23-1.13,2.25,2.25,0,0,0-1-.72l-1-.41a2.32,2.32,0,0,1-.45-.23c-.12-.07-.16-.21-.14-.41a.56.56,0,0,1,.3-.47,1.92,1.92,0,0,1,.69-.13c.29,0,.59,0,.89,0a8.09,8.09,0,0,1,.86.07h.06l.1-.09v0l.11-.93c0-.11-.07-.15-.14-.17a3.67,3.67,0,0,0-.9-.18,6.44,6.44,0,0,0-1.08,0,4.46,4.46,0,0,0-1,.14,2.62,2.62,0,0,0-.79.37,1.89,1.89,0,0,0-.56.6,2.09,2.09,0,0,0-.29.86,1.45,1.45,0,0,0,.25,1.12,2.47,2.47,0,0,0,1.05.69l1,.38a1.75,1.75,0,0,1,.46.26.49.49,0,0,1,.14.43.64.64,0,0,1-.31.49,1.58,1.58,0,0,1-.75.16c-.32,0-.67,0-1.05,0s-.74,0-1-.06h0l-.11.09v0l-.12.93A.14.14,0,0,0,59.47,27.48Z"/><path class="cls-8" d="M71,26.45a2.12,2.12,0,0,0,1,.59,4.63,4.63,0,0,0,1.53.15,8.6,8.6,0,0,0,1.08-.11,6.71,6.71,0,0,0,1-.25l.12-.13.1-.83c0-.1-.06-.12-.12-.12h0c-.28,0-.47.08-.82.11s-.67.06-1,.07a2.16,2.16,0,0,1-1.22-.24,1.14,1.14,0,0,1-.5-1,4.08,4.08,0,0,1,.07-1.09c.06.16.18.74.57.81a9.84,9.84,0,0,0,1.86,0,2.74,2.74,0,0,0,1.42-.4A1.43,1.43,0,0,0,76.62,23a2.36,2.36,0,0,0-.47-1.93,2.6,2.6,0,0,0-2.08-.63,3.6,3.6,0,0,0-2.5.92,3.86,3.86,0,0,0-1,2.33l0,.41a4.36,4.36,0,0,0,0,1.36A2,2,0,0,0,71,26.45Zm1.25-3.13a2.2,2.2,0,0,1,.62-1.24,1.68,1.68,0,0,1,1-.4,1.2,1.2,0,0,1,.92.27,1,1,0,0,1,.21.88c-.07.44-.36.58-.86.6-.86,0-1.95.06-1.95.06Z"/><path class="cls-9" d="M49.49,23.05h.38l1.4-.06c.11,0,0,0,0,.05A2.4,2.4,0,0,0,50,24.93c0,.21-.34,2.67-.34,2.67v.15c0,.23.14.28.23.28l.89,0h.08c.35,0,.45-.11.49-.47s.54-4.27.58-4.56l1.05,0c.48,0,1-.07,1.32.25s.23.71.16,1.27l-.37,3v.15c0,.23.13.28.22.28l.9,0h.08c.35,0,.44-.11.49-.47,0-.12.48-3.76.51-4a1.88,1.88,0,0,0-2.08-2.07l-4.45.17c-.29,0-.39.21-.43.49s-.08.58-.11.82S49.28,23.06,49.49,23.05Z"/><path class="cls-10" d="M56.93,27.76l1.17-.05a.33.33,0,0,0,.32-.28l.09-.71s.24-1.91.43-3.5a.31.31,0,0,0-.34-.37l-1,0h-.08c.5-.1,1.48-.54,1.56-1.2,0-.24,0-.66-.48-.64l-.81,0a.41.41,0,0,0-.39.35l-.73,5.89C56.66,27.65,56.78,27.76,56.93,27.76Z"/><path class="cls-11" d="M59.37,29.39a1.28,1.28,0,0,0-.54.16h0l0,.3.06,0a.77.77,0,0,1,.46-.17l.14.05s0,.07,0,.19h0c-.53.07-.76.21-.8.51s.11.37.43.36a4.11,4.11,0,0,0,.5-.06h.08l.11-.83a.75.75,0,0,0,0-.31C59.69,29.44,59.57,29.38,59.37,29.39Zm0,1.11-.24,0c-.14,0-.19,0-.18-.14s.1-.2.47-.25Z"/><polygon class="cls-12" points="60.2 29.18 60.55 29.17 60.59 28.83 60.25 28.84 60.2 29.18"/><polygon class="cls-13" points="60.01 30.71 60.34 30.7 60.52 29.37 60.19 29.38 60.01 30.71"/><path class="cls-14" d="M61.37,29.32a.54.54,0,0,0-.57.42c0,.17.05.27.28.37a.64.64,0,0,1,.17.08l.07.12c0,.09-.1.14-.24.15a.42.42,0,0,1-.31-.11l-.05,0,0,.32h0a1,1,0,0,0,.37.06.55.55,0,0,0,.59-.43.28.28,0,0,0-.08-.25.51.51,0,0,0-.25-.15c-.19-.09-.2-.11-.2-.17a.22.22,0,0,1,.23-.14.43.43,0,0,1,.29.08l0,0,0-.3h0A.65.65,0,0,0,61.37,29.32Z"/><path class="cls-15" d="M63.47,29.24a.87.87,0,0,0-.94.74c-.06.41.17.65.62.63a.67.67,0,0,0,.24,0l-.09.67h.33l.26-2h0A1.4,1.4,0,0,0,63.47,29.24Zm0,1.09-.2,0c-.28,0-.41-.13-.38-.41a.52.52,0,0,1,.55-.46h.13Z"/><path class="cls-16" d="M65,30.27l-.23,0c-.23,0-.29-.05-.27-.26l.11-.82h-.33l-.1.84c0,.2,0,.31.08.39a.57.57,0,0,0,.44.1,3.51,3.51,0,0,0,.57-.08h0l.17-1.29h-.33Z"/><path class="cls-17" d="M66.48,29.12a.81.81,0,0,0-.78.74c-.06.42.18.66.62.64a1.16,1.16,0,0,0,.52-.15h0l0-.29,0,0a.91.91,0,0,1-.46.16c-.26,0-.41-.13-.38-.36v0l1,0v-.09a.61.61,0,0,0,0-.41A.48.48,0,0,0,66.48,29.12Zm-.41.51a.41.41,0,0,1,.37-.26c.17,0,.25.07.25.24Z"/><path class="cls-18" d="M68.53,28.71a.29.29,0,0,1,.23-.1h.14l0-.24h-.16a.74.74,0,0,0-.43.17.81.81,0,0,0-.26.57v0h-.21l0,.24H68l-.14,1.05h.33l.14-1,.34,0,0-.24-.34,0v0A.65.65,0,0,1,68.53,28.71Z"/><path class="cls-19" d="M69.54,29a1.17,1.17,0,0,0-.54.17h0l0,.29,0,0a1,1,0,0,1,.46-.17l.15,0a.55.55,0,0,1,0,.19v0h0c-.53.06-.76.21-.8.51s.11.36.43.35a2.86,2.86,0,0,0,.5-.06h.08l.11-.83a.57.57,0,0,0,0-.31C69.86,29.05,69.73,29,69.54,29Zm0,1.11-.25,0c-.13,0-.18,0-.17-.15s.1-.2.46-.24Z"/><path class="cls-20" d="M70.65,29.26a.8.8,0,0,1,.26-.05l.21,0h0l0-.26h0a.93.93,0,0,0-.24,0,1.9,1.9,0,0,0-.56.13h0l-.17,1.25.33,0Z"/><path class="cls-21" d="M72.89,28.88a1.52,1.52,0,0,0-.46.1.66.66,0,0,0-.36-.07,2.47,2.47,0,0,0-.61.11h0l-.17,1.25h.33l.14-1.06a.77.77,0,0,1,.25,0c.2,0,.27,0,.24.25l-.11.83h.33l.11-.86a.72.72,0,0,0,0-.2,1.14,1.14,0,0,1,.24-.05c.19,0,.25.07.23.26l-.11.83h.32l.11-.86A.36.36,0,0,0,73.3,29,.5.5,0,0,0,72.89,28.88Z"/><path class="cls-22" d="M56.55,30.84l.14-1.06a.82.82,0,0,1,.26,0c.2,0,.26.06.24.25l-.11.83h.32l.12-.85a.65.65,0,0,0,0-.2.79.79,0,0,1,.25-.05c.19,0,.24.06.22.25l-.11.83h.33l.11-.86a.42.42,0,0,0-.06-.34.56.56,0,0,0-.42-.13,1.53,1.53,0,0,0-.45.1.82.82,0,0,0-.37-.07,3,3,0,0,0-.6.11h0l-.16,1.26Z"/><path class="cls-23" d="M74.36,28.82a1.32,1.32,0,0,0-.54.16h0l0,.29.06,0a.8.8,0,0,1,.46-.17l.14.05s0,.07,0,.19h0c-.53.07-.77.21-.81.51s.11.37.43.36a4.11,4.11,0,0,0,.5-.06h.08l.11-.83a.81.81,0,0,0,0-.32C74.68,28.87,74.56,28.81,74.36,28.82Zm0,1.11-.24,0c-.13,0-.19,0-.17-.14s.09-.2.46-.25Z"/><polygon class="cls-24" points="74.12 28.7 74.36 28.72 74.99 28.12 74.69 28.11 74.12 28.7"/><path class="cls-25" d="M75.83,28.77a.84.84,0,0,0-.84.73.54.54,0,0,0,.63.64A.83.83,0,0,0,76,30h0l0-.29,0,0a.74.74,0,0,1-.34.12c-.28,0-.41-.14-.38-.42a.49.49,0,0,1,.49-.45.48.48,0,0,1,.3.08l0,0,0-.29h0A.7.7,0,0,0,75.83,28.77Z"/><polygon class="cls-26" points="76.31 30.09 76.63 30.08 76.81 28.75 76.48 28.76 76.31 30.09"/><polygon class="cls-27" points="76.5 28.56 76.84 28.55 76.89 28.21 76.54 28.22 76.5 28.56"/><path class="cls-28" d="M77.75,28.69a1.28,1.28,0,0,0-.54.16h0l0,.3,0,0a.82.82,0,0,1,.46-.17l.15.05a.53.53,0,0,1,0,.19h0c-.53.07-.76.21-.8.51s.11.37.42.36a4.24,4.24,0,0,0,.51-.06H78l.11-.83a.57.57,0,0,0,0-.31C78.07,28.74,77.94,28.68,77.75,28.69Zm0,1.11-.25,0c-.13,0-.18,0-.17-.14s.1-.2.46-.25Z"/><path class="cls-29" d="M48.46,25.08l-2.25.08-.55,3.11A4.37,4.37,0,0,0,48.46,25.08Z"/><path class="cls-30" d="M46.9,21.35l-.31,1.81,1.67-.07A4.11,4.11,0,0,0,46.9,21.35Z"/><path class="cls-31" d="M43.5,28.66l.32-1.72c.14-.51.31-1.36,1.89-1.7.13,0,.11-.06,0-.06l-5.09.2c0-.27.19-1.1.25-1.42.1-.5.36-.6.83-.62l2.78-.1L45,20.47a5.31,5.31,0,0,0-1.5-.15c-2.67.1-4.77,2.05-4.68,4.35S41,28.6,43.5,28.66Z"/><path class="cls-32" d="M119.77,22.17l-15.9-5.31a2.07,2.07,0,0,0-.66-.1L91,17H88a4.53,4.53,0,0,0-.42-.86c-.93-1.51-2.68-2.53-5.19-3l-.23,0-41.85,2a6.11,6.11,0,0,0-4.7,1.2,5.93,5.93,0,0,0-2,4l-11.33.64a1.5,1.5,0,0,0-1.41,1.49L20.74,39.7,8.4,40a1.88,1.88,0,0,0-1.84,1.88v6.71s-.3,1,.06,1.33.82.55,1.32,1.08H8l3.66-.07a5.52,5.52,0,0,0-.06.72v6.12a1.58,1.58,0,0,0,.06.48A3.63,3.63,0,0,0,15,61h6a14.74,14.74,0,0,0-3.4,9.39c.06,7-.22,36.64-.22,36.93a1.9,1.9,0,0,0,1.76,1.91l9.4.73a1.91,1.91,0,0,0,1.45-.49,1.88,1.88,0,0,0,.62-1.36l27,2,26,2.14a1.88,1.88,0,0,0,1.72,1.74l11,.92h.1a1.89,1.89,0,0,0,.53.08,1.82,1.82,0,0,0,.84-.2L120,103.57a4.77,4.77,0,0,0,1.54-1.68V24A3.76,3.76,0,0,0,119.77,22.17ZM36.39,32.3,37.3,22v-.12A3.66,3.66,0,0,1,38,19.16a2.07,2.07,0,0,1,1.31-.39,4.69,4.69,0,0,1,.48,0l.23.05,41.82-2c1.85.41,2.66,1.14,2.66,1.68l0,.31c-.2,2.61-.84,9.81-1.36,11.83a2,2,0,0,1-1.52,1.52c-2.53.06-40.22,1-43.88.91a1.86,1.86,0,0,1-1.23-.3A.75.75,0,0,1,36.39,32.3ZM9.56,47V44.46L93.8,42.08l7.76,1.68v3L94,45.65Zm17,58.8-5.47-.43c.06-6.49.25-29.05.2-35.06s5.22-9.59,5.26-9.63h0Zm4-1.47V60.47l24.91.26.09,45.41Zm53,4.11-23.9-1.81-.1-45.86L77.4,61a6.78,6.78,0,0,1,4.48,1.5,6.5,6.5,0,0,1,1.68,4.91Zm11,2.58-7-.61V67.82c0-4-.65-6-2.67-7.71C82.66,58.2,80.52,58,77.46,58l-49-.55a2.92,2.92,0,0,0-1.7.44,1.71,1.71,0,0,0-1.43-.9H15.56V51.7a1.42,1.42,0,0,1,.18-.83L81.63,50c11.18,0,13.05,11.17,13.1,11.91Zm23-10.29-15,7.44v-47a14.32,14.32,0,0,0-8.14-11.72l8.85.83a1.84,1.84,0,0,0,1.4-.51,7.28,7.28,0,0,0,.9-1.37V41.33a1.88,1.88,0,0,0-1.7-1.87l-9.48-1.54L23.75,39.63l.11-15.83,9.55-.55-.72,8.35a4.56,4.56,0,0,0,.8,3.49,5,5,0,0,0,4.15,1.76h.47c5.77,0,42.1-.88,43.69-.92H82a5.78,5.78,0,0,0,4.77-4.34A96.38,96.38,0,0,0,88.05,21h3l12-.47,14.56,4.78Z"/></svg>