<svg id="Layer_1" data-name="Layer 1" xmlns="http://www.w3.org/2000/svg" xmlns:xlink="http://www.w3.org/1999/xlink" viewBox="0 0 127.75 127.75"><defs><style>.cls-1,.cls-2,.cls-3{fill:#8a9297;}.cls-1{clip-rule:evenodd;}.cls-3{fill-rule:evenodd;}.cls-4{clip-path:url(#clip-path);}.cls-5{clip-path:url(#clip-path-2);}.cls-6{clip-path:url(#clip-path-3);}.cls-7{clip-path:url(#clip-path-4);}.cls-8{clip-path:url(#clip-path-5);}.cls-9{clip-path:url(#clip-path-6);}.cls-10{clip-path:url(#clip-path-7);}.cls-11{clip-path:url(#clip-path-8);}.cls-12{clip-path:url(#clip-path-9);}.cls-13{clip-path:url(#clip-path-10);}.cls-14{clip-path:url(#clip-path-11);}.cls-15{clip-path:url(#clip-path-12);}.cls-16{clip-path:url(#clip-path-13);}.cls-17{clip-path:url(#clip-path-14);}.cls-18{clip-path:url(#clip-path-15);}.cls-19{clip-path:url(#clip-path-16);}.cls-20{clip-path:url(#clip-path-17);}.cls-21{clip-path:url(#clip-path-18);}.cls-22{clip-path:url(#clip-path-19);}.cls-23{clip-path:url(#clip-path-20);}.cls-24{clip-path:url(#clip-path-21);}.cls-25{clip-path:url(#clip-path-22);}.cls-26{clip-path:url(#clip-path-23);}.cls-27{clip-path:url(#clip-path-24);}.cls-28{clip-path:url(#clip-path-25);}.cls-29{clip-path:url(#clip-path-26);}.cls-30{clip-path:url(#clip-path-27);}.cls-31{clip-path:url(#clip-path-28);}.cls-32{clip-path:url(#clip-path-29);}</style><clipPath id="clip-path"><path class="cls-1" d="M97.24-160h-.16l-11-.91a1.88,1.88,0,0,1-1.72-1.88v-44.32a6.45,6.45,0,0,0-1.71-4.92,6.66,6.66,0,0,0-4.5-1.45H78L30.43-214v46.91a1.91,1.91,0,0,1-.6,1.38,1.88,1.88,0,0,1-1.43.49L19.15-166a1.88,1.88,0,0,1-1.73-1.89c0-.3.28-29.77.22-36.75A14.71,14.71,0,0,1,21-214h-5.9a3.56,3.56,0,0,1-3.26-2.65,1.77,1.77,0,0,1-.09-.56v-6.09c0-3.06,1.89-4.32,3-4.58a1.84,1.84,0,0,1,.41,0l67.22-.91h.26c15.86,2,16.65,15.93,16.66,16.07v.09l-.18,50.73a1.88,1.88,0,0,1-.61,1.38A1.9,1.9,0,0,1,97.24-160Zm-9.11-4.53,7.23.6.18-48.64c-.05-.78-1-10.82-13.25-12.45l-66.61.91a1.66,1.66,0,0,0-.17.87v5.54H25.62a1.91,1.91,0,0,1,1.43.65l.18-.2a1.83,1.83,0,0,1,1.34-.54l49.38.54a10.39,10.39,0,0,1,7.23,2.42c1.95,1.79,2.95,4.39,2.95,7.71Zm-66.93-5,5.47.43v-45.12h0c-.05,0-5.32,3.68-5.27,9.63S21.26-176.08,21.2-169.59Z"/></clipPath><clipPath id="clip-path-2"><path class="cls-1" d="M102.35-163.49H98.59v-49.62c-.09-1-1.31-11.3-12-12.12l.29-3.75c11.42.87,15.13,10.62,15.5,15.66v49.83Z"/></clipPath><clipPath id="clip-path-3"><path class="cls-1" d="M22.75-231a1.89,1.89,0,0,1-1.88-1.87l-.12-19.85a1.87,1.87,0,0,1,1.82-1.89l9.65-.3h.09l3.42.06A1.88,1.88,0,0,1,37.58-253a1.89,1.89,0,0,1-1.92,1.85l-3.37-.06-7.77.24.11,18a1.89,1.89,0,0,1-1.87,1.9Z"/></clipPath><clipPath id="clip-path-4"><path class="cls-1" d="M38.39-238.1h-.46a5,5,0,0,1-4.15-1.76,4.58,4.58,0,0,1-.81-3.49l.84-9.68c-.08-2.54.62-4.44,2.07-5.65a6,6,0,0,1,4.69-1.2l41.85-2,.23,0c2.51.51,4.26,1.53,5.19,3a4.49,4.49,0,0,1,.64,3.1c-.11,1.42-.78,9.74-1.45,12.36A5.74,5.74,0,0,1,82.26-239l-.18,0c-1.59,0-37.92.92-43.69.92m1.2-18.09a2.07,2.07,0,0,0-1.31.39,3.62,3.62,0,0,0-.7,2.73v.12l-.91,10.29a.82.82,0,0,0,.08.49,1.86,1.86,0,0,0,1.23.3c3.66.07,41.36-.85,43.88-.91a2,2,0,0,0,1.53-1.52c.51-2,1.15-9.22,1.35-11.83l0-.31c0-.54-.81-1.27-2.65-1.68l-41.83,2-.23-.05a4.69,4.69,0,0,0-.48,0"/></clipPath><clipPath id="clip-path-5"><path class="cls-1" d="M75.06-253a1.2,1.2,0,0,0-.92-.27,1.68,1.68,0,0,0-1,.4,2.13,2.13,0,0,0-.61,1.24.75.75,0,0,0,0,.17s1.1,0,2-.06c.5,0,.79-.16.86-.6a1,1,0,0,0-.21-.88m1.84,1a1.45,1.45,0,0,1-.61,1.08,2.74,2.74,0,0,1-1.42.4,9.84,9.84,0,0,1-1.86,0c-.39-.08-.51-.65-.56-.81a3.82,3.82,0,0,0-.08,1.08,1.16,1.16,0,0,0,.5,1,2.16,2.16,0,0,0,1.22.24c.32,0,.66,0,1-.07l.81-.11h0c.06,0,.14,0,.12.12l-.1.83a.16.16,0,0,1-.11.13,8.64,8.64,0,0,1-1.06.25,8.6,8.6,0,0,1-1.08.11,4.64,4.64,0,0,1-1.53-.16,2,2,0,0,1-1-.58,2.11,2.11,0,0,1-.46-1,4.69,4.69,0,0,1,0-1.36l0-.41a3.86,3.86,0,0,1,1-2.33,3.6,3.6,0,0,1,2.5-.92,2.55,2.55,0,0,1,2.08.63A2.36,2.36,0,0,1,76.9-252M54.46-253.7l-4.45.17c-.29,0-.39.21-.43.49s-.08.58-.11.82.09.32.3.31h.38l1.4-.06c.12,0,.05,0,0,0a2.38,2.38,0,0,0-1.29,1.9c0,.21-.33,2.66-.33,2.66a.88.88,0,0,0,0,.16c0,.23.14.28.23.28l.89,0h.08c.35,0,.45-.11.49-.47.07-.51.54-4.28.58-4.56l1.05,0c.48,0,1-.08,1.33.25s.22.71.15,1.26l-.37,3a.76.76,0,0,0,0,.15c0,.23.14.28.23.28l.89,0h.08c.35,0,.45-.11.49-.47,0-.12.48-3.76.51-4a1.87,1.87,0,0,0-2.08-2.07M79.52-254c0-.24,0-.66-.48-.64l-.81,0a.42.42,0,0,0-.4.35l-.73,5.89c0,.32.06.44.22.43l1.17,0a.35.35,0,0,0,.32-.29l.09-.7s.23-1.92.43-3.51a.3.3,0,0,0-.34-.36l-1,0h-.1s0,0,0,0c.51-.09,1.49-.54,1.57-1.19m-20.64,1.92-1,0h-.08c.5-.1,1.48-.54,1.56-1.2,0-.24,0-.66-.47-.64l-.81,0a.43.43,0,0,0-.4.36L57-247.64c0,.32.06.44.21.44l1.17-.05a.33.33,0,0,0,.32-.28l.09-.71.44-3.5a.32.32,0,0,0-.35-.37m11.31-2a4.21,4.21,0,0,0-.9-.18,9.6,9.6,0,0,0-1.08,0,3.79,3.79,0,0,0-1,.15,2.56,2.56,0,0,0-.8.36,2.08,2.08,0,0,0-.57.61,2.24,2.24,0,0,0-.28.86,1.42,1.42,0,0,0,.25,1.11,2.47,2.47,0,0,0,1,.69l1,.38a1.75,1.75,0,0,1,.46.26.49.49,0,0,1,.14.43.62.62,0,0,1-.31.49,1.69,1.69,0,0,1-.75.17H66.32c-.38,0-.73,0-1-.06h0c-.06,0-.1,0-.11.1v0l-.12.93c0,.1,0,.16.13.17a9.54,9.54,0,0,0,1.11.17,8.39,8.39,0,0,0,1.24,0,3.24,3.24,0,0,0,1.84-.57,2,2,0,0,0,.82-1.43,1.57,1.57,0,0,0-.23-1.14,2.25,2.25,0,0,0-1-.72l-1-.4a3.06,3.06,0,0,1-.45-.23.4.4,0,0,1-.14-.41.56.56,0,0,1,.3-.48,2.16,2.16,0,0,1,.69-.13h.89c.29,0,.58,0,.86.07h.06a.1.1,0,0,0,.1-.09c0-.06,0,0,0,0l.11-.93c0-.12-.07-.16-.14-.18m-5.38,1.34a.13.13,0,0,1-.09.1h-.07c-.28,0-.57-.05-.86-.06s-.59,0-.88,0a1.69,1.69,0,0,0-.69.13.55.55,0,0,0-.31.47.4.4,0,0,0,.15.41,2.29,2.29,0,0,0,.45.23l1,.41a2.08,2.08,0,0,1,1,.72,1.55,1.55,0,0,1,.24,1.13,2,2,0,0,1-.83,1.44,3.24,3.24,0,0,1-1.84.57,9.79,9.79,0,0,1-1.23,0,9.43,9.43,0,0,1-1.12-.16.14.14,0,0,1-.13-.18l.12-.93v0a.1.1,0,0,1,.11-.09h0c.31,0,.66.05,1,.06s.73,0,1,0a1.62,1.62,0,0,0,.76-.16.65.65,0,0,0,.3-.49.49.49,0,0,0-.14-.43,1.75,1.75,0,0,0-.46-.26l-1-.39a2.38,2.38,0,0,1-1-.69,1.45,1.45,0,0,1-.25-1.11,2.24,2.24,0,0,1,.29-.86,1.89,1.89,0,0,1,.56-.6,2.57,2.57,0,0,1,.8-.37,4.37,4.37,0,0,1,1-.14,6.44,6.44,0,0,1,1.08,0,4.24,4.24,0,0,1,.9.17c.07,0,.16.07.14.18l-.11.93s0,0,0,0"/></clipPath><clipPath id="clip-path-6"><path class="cls-1" d="M59.68-244.82c-.37,0-.45.13-.46.25s0,.15.17.14l.24,0Zm-.35.63c-.32,0-.46-.11-.43-.36s.28-.44.81-.51h0c0-.12,0-.16,0-.19s-.06-.06-.14-.05a.8.8,0,0,0-.46.17l-.06,0,0-.29h0a1.32,1.32,0,0,1,.54-.16c.2,0,.32,0,.37.16a.81.81,0,0,1,0,.32l-.11.83h-.08A4.11,4.11,0,0,1,59.33-244.19Z"/></clipPath><clipPath id="clip-path-7"><path class="cls-1" d="M60.49-245.78l0-.34h.34l0,.34Zm-.19,1.53.17-1.33h.33l-.18,1.33Z"/></clipPath><clipPath id="clip-path-8"><path class="cls-1" d="M61.34-244.25a.89.89,0,0,1-.36-.07h0l0-.32,0,0a.42.42,0,0,0,.31.11c.14,0,.23-.07.24-.15a.1.1,0,0,0-.07-.12l-.16-.08c-.24-.11-.31-.2-.29-.38a.56.56,0,0,1,.57-.42.93.93,0,0,1,.34.06h0l0,.3,0,0a.4.4,0,0,0-.28-.08c-.13,0-.22.06-.23.13s0,.09.19.17a.59.59,0,0,1,.25.16.25.25,0,0,1,.08.25.56.56,0,0,1-.59.43"/></clipPath><clipPath id="clip-path-9"><path class="cls-1" d="M63.68-245.47a.51.51,0,0,0-.54.46c0,.28.09.42.37.4l.2,0,.11-.83Zm-.09,1.75.09-.67a.77.77,0,0,1-.25,0c-.44,0-.68-.22-.62-.63a.87.87,0,0,1,.94-.74,1.85,1.85,0,0,1,.4,0h0l-.26,2Z"/></clipPath><clipPath id="clip-path-10"><path class="cls-1" d="M65-244.41a.65.65,0,0,1-.44-.1c-.09-.08-.11-.19-.08-.4l.11-.83h.32l-.1.81c0,.22,0,.28.26.27l.23,0,.14-1.08h.33l-.17,1.29h0a3.51,3.51,0,0,1-.57.08"/></clipPath><clipPath id="clip-path-11"><path class="cls-1" d="M67-245.36c0-.16-.09-.23-.26-.23a.39.39,0,0,0-.36.26Zm-.38.9c-.44,0-.68-.22-.62-.64a.81.81,0,0,1,.78-.74.48.48,0,0,1,.47.22.56.56,0,0,1,0,.41v.09l-1,0v0c0,.23.12.37.38.36a.91.91,0,0,0,.46-.16l0,0,0,.29h0A1.16,1.16,0,0,1,66.6-244.46Z"/></clipPath><clipPath id="clip-path-12"><path class="cls-1" d="M68.19-244.55l.13-1h-.21l0-.25h.22v0a.79.79,0,0,1,.26-.57.77.77,0,0,1,.43-.17h.16l0,.24H69a.29.29,0,0,0-.23.1.58.58,0,0,0-.12.36v0H69l0,.24-.34,0-.14,1.05Z"/></clipPath><clipPath id="clip-path-13"><path class="cls-1" d="M69.85-245.2c-.37,0-.45.12-.47.24s0,.15.18.15l.24,0Zm-.35.62c-.32,0-.46-.11-.43-.36s.27-.44.8-.5h0c0-.12,0-.16,0-.19s-.07,0-.14,0a.84.84,0,0,0-.46.17l-.06,0,0-.3h0a1.21,1.21,0,0,1,.54-.17c.2,0,.32.05.36.17a.57.57,0,0,1,0,.31l-.11.83H70A2.76,2.76,0,0,1,69.5-244.58Z"/></clipPath><clipPath id="clip-path-14"><path class="cls-1" d="M70.46-244.64l.17-1.24h0a1.87,1.87,0,0,1,.56-.12,1,1,0,0,1,.25,0h0l0,.27h0a.37.37,0,0,0-.21,0,.8.8,0,0,0-.26.05l-.14,1Z"/></clipPath><clipPath id="clip-path-15"><path class="cls-1" d="M73.21-244.74l.11-.83c0-.2,0-.26-.22-.26a1.11,1.11,0,0,0-.25.05.73.73,0,0,1,0,.2l-.11.86H72.4l.11-.83c0-.2,0-.26-.24-.26l-.25.05-.14,1.06h-.32l.16-1.25h0a2.55,2.55,0,0,1,.61-.11.58.58,0,0,1,.36.07,1.09,1.09,0,0,1,.46-.1.48.48,0,0,1,.41.13.38.38,0,0,1,.07.34l-.12.86Z"/></clipPath><clipPath id="clip-path-16"><path class="cls-1" d="M58.16-244.17l.11-.83c0-.19,0-.26-.22-.25a.62.62,0,0,0-.25.05.65.65,0,0,1,0,.2l-.12.85h-.32l.11-.83c0-.19,0-.26-.24-.25a.73.73,0,0,0-.25,0l-.14,1.06-.33,0,.17-1.26h0a2.92,2.92,0,0,1,.61-.11.77.77,0,0,1,.36.07,1.53,1.53,0,0,1,.45-.1.52.52,0,0,1,.42.13c.07.07.08.17.06.34l-.11.86Z"/></clipPath><clipPath id="clip-path-17"><path class="cls-1" d="M74.41-246.27l.56-.58h.3l-.63.6Zm.26.88c-.37,0-.45.13-.46.25s0,.15.17.14l.24,0Zm-.35.63c-.31,0-.46-.11-.42-.36s.27-.45.8-.51h0a.42.42,0,0,0,0-.19s-.07-.06-.15,0a.82.82,0,0,0-.46.17l0,0,0-.29h0a1.37,1.37,0,0,1,.54-.16c.2,0,.32,0,.37.16a.77.77,0,0,1,0,.31l-.11.84h-.07A4.48,4.48,0,0,1,74.32-244.76Z"/></clipPath><clipPath id="clip-path-18"><path class="cls-1" d="M75.91-244.82c-.44,0-.69-.23-.63-.64a.83.83,0,0,1,.83-.73.7.7,0,0,1,.35.06h0l0,.29,0,0a.41.41,0,0,0-.29-.08.49.49,0,0,0-.5.45c0,.28.1.43.38.42a.74.74,0,0,0,.34-.12l.05,0,0,.29h0a.86.86,0,0,1-.41.1"/></clipPath><clipPath id="clip-path-19"><path class="cls-1" d="M76.78-246.4l0-.34h.35l0,.34Zm-.19,1.53.17-1.33h.33l-.18,1.33Z"/></clipPath><clipPath id="clip-path-20"><path class="cls-1" d="M78.06-245.52c-.37.05-.45.13-.47.25s0,.15.18.14l.24,0Zm-.35.63c-.32,0-.46-.11-.43-.36s.27-.44.8-.51h0c0-.12,0-.16,0-.19S78-246,78-246a.77.77,0,0,0-.46.17l-.06,0,0-.29h0a1.28,1.28,0,0,1,.54-.16c.2,0,.32.05.36.16a.62.62,0,0,1,0,.32l-.11.83h-.08A4.11,4.11,0,0,1,77.71-244.89Z"/></clipPath><clipPath id="clip-path-21"><path class="cls-1" d="M46.49-249.8l-.55,3.11a4.39,4.39,0,0,0,2.8-3.19Z"/></clipPath><clipPath id="clip-path-22"><path class="cls-1" d="M46.87-251.8l1.67-.07a4.08,4.08,0,0,0-1.35-1.74Z"/></clipPath><clipPath id="clip-path-23"><path class="cls-1" d="M44.11-248c.13-.51.3-1.36,1.88-1.7.13,0,.11-.06,0-.06l-5.09.2c0-.27.19-1.1.25-1.42.1-.5.36-.6.83-.62l2.78-.1.51-2.78a5.67,5.67,0,0,0-1.5-.14c-2.67.1-4.77,2-4.68,4.35s2.14,3.93,4.67,4Z"/></clipPath><clipPath id="clip-path-24"><polygon class="cls-1" points="60.11 -164.54 29.57 -166.94 29.87 -170.69 56.34 -168.61 56.25 -215.75 60.01 -215.75 60.11 -164.54"/></clipPath><clipPath id="clip-path-25"><rect class="cls-2" x="70.26" y="-179.48" width="3.76" height="27.92" transform="translate(231.75 -81.09) rotate(-85.67)"/></clipPath><clipPath id="clip-path-26"><path class="cls-1" d="M63.78-181.21a1.85,1.85,0,0,1-1.62-.92,1.87,1.87,0,0,1,.65-2.57l1-.62v-1.89l-1.52-1.27a1.88,1.88,0,0,1-.24-2.65,1.88,1.88,0,0,1,2.65-.24l2.19,1.83a1.89,1.89,0,0,1,.68,1.45v3.84a1.88,1.88,0,0,1-.92,1.62l-2,1.16a1.9,1.9,0,0,1-1,.26"/></clipPath><clipPath id="clip-path-27"><path class="cls-1" d="M52-181.74a1.86,1.86,0,0,1-1-.27l-1.95-1.16a1.88,1.88,0,0,1-.92-1.62v-3.84a1.89,1.89,0,0,1,.68-1.45l2.19-1.83a1.88,1.88,0,0,1,2.65.24,1.88,1.88,0,0,1-.24,2.65L52-187.75v1.89l1,.62a1.87,1.87,0,0,1,.66,2.57,1.87,1.87,0,0,1-1.62.93"/></clipPath><clipPath id="clip-path-28"><path class="cls-2" d="M-256.9,208.93h-83.51l35.55-33.83a3.29,3.29,0,0,0,0-4.93,3.7,3.7,0,0,0-5.18,0l-42,39.81a3.3,3.3,0,0,0,0,4.94l41.85,39.81a3.73,3.73,0,0,0,5.19,0,3.3,3.3,0,0,0,0-4.94L-340.41,216h83.51a3.63,3.63,0,0,0,3.71-3.52A3.63,3.63,0,0,0-256.9,208.93Z"/></clipPath><clipPath id="clip-path-29"><path class="cls-2" d="M-497.49,208.93H-414l-35.56-33.83a3.29,3.29,0,0,1,0-4.93,3.71,3.71,0,0,1,5.19,0l42,39.81a3.3,3.3,0,0,1,0,4.94l-41.85,39.81a3.73,3.73,0,0,1-5.19,0,3.3,3.3,0,0,1,0-4.94L-414,216h-83.52a3.62,3.62,0,0,1-3.7-3.52A3.62,3.62,0,0,1-497.49,208.93Z"/></clipPath></defs><title>icons</title><path class="cls-2" d="M109.57,19.61h-90a15,15,0,0,0-15,15v5.21h0V51.39h0v41.5a15,15,0,0,0,15,15h90a15,15,0,0,0,15-15V34.61A15,15,0,0,0,109.57,19.61Zm-98,15a8,8,0,0,1,8-8h90a8,8,0,0,1,8,8v5.21h-106Zm98,66.28h-90a8,8,0,0,1-8-8V51.39h106v41.5A8,8,0,0,1,109.57,100.89Z"/><rect class="cls-2" x="14.57" y="66.82" width="56.43" height="6.56"/><rect class="cls-2" x="14.57" y="79.1" width="5.18" height="5.18"/><rect class="cls-2" x="20.62" y="79.1" width="5.18" height="5.18"/><rect class="cls-2" x="26.68" y="79.1" width="5.18" height="5.18"/><rect class="cls-2" x="32.73" y="79.1" width="5.18" height="5.18"/><rect class="cls-2" x="40.12" y="79.1" width="5.18" height="5.18"/><rect class="cls-2" x="46.18" y="79.1" width="5.18" height="5.18"/><rect class="cls-2" x="52.23" y="79.1" width="5.18" height="5.18"/><rect class="cls-2" x="58.29" y="79.1" width="5.18" height="5.18"/><rect class="cls-2" x="65.68" y="79.1" width="5.18" height="5.18"/><rect class="cls-2" x="71.73" y="79.1" width="5.18" height="5.18"/><rect class="cls-2" x="77.79" y="79.1" width="5.18" height="5.18"/><rect class="cls-2" x="83.84" y="79.1" width="5.18" height="5.18"/><rect class="cls-2" x="91.23" y="79.1" width="5.18" height="5.18"/><rect class="cls-2" x="97.28" y="79.1" width="5.18" height="5.18"/><rect class="cls-2" x="103.34" y="79.1" width="5.18" height="5.18"/><rect class="cls-2" x="109.39" y="79.1" width="5.18" height="5.18"/><path class="cls-3" d="M97.24-160h-.16l-11-.91a1.88,1.88,0,0,1-1.72-1.88v-44.32a6.45,6.45,0,0,0-1.71-4.92,6.66,6.66,0,0,0-4.5-1.45H78L30.43-214v46.91a1.91,1.91,0,0,1-.6,1.38,1.88,1.88,0,0,1-1.43.49L19.15-166a1.88,1.88,0,0,1-1.73-1.89c0-.3.28-29.77.22-36.75A14.71,14.71,0,0,1,21-214h-5.9a3.56,3.56,0,0,1-3.26-2.65,1.77,1.77,0,0,1-.09-.56v-6.09c0-3.06,1.89-4.32,3-4.58a1.84,1.84,0,0,1,.41,0l67.22-.91h.26c15.86,2,16.65,15.93,16.66,16.07v.09l-.18,50.73a1.88,1.88,0,0,1-.61,1.38A1.9,1.9,0,0,1,97.24-160Zm-9.11-4.53,7.23.6.18-48.64c-.05-.78-1-10.82-13.25-12.45l-66.61.91a1.66,1.66,0,0,0-.17.87v5.54H25.62a1.91,1.91,0,0,1,1.43.65l.18-.2a1.83,1.83,0,0,1,1.34-.54l49.38.54a10.39,10.39,0,0,1,7.23,2.42c1.95,1.79,2.95,4.39,2.95,7.71Zm-66.93-5,5.47.43v-45.12h0c-.05,0-5.32,3.68-5.27,9.63S21.26-176.08,21.2-169.59Z"/><g class="cls-4"><rect class="cls-2" x="-4486.03" y="-2743.95" width="6348.4" height="5052.27"/></g><path class="cls-3" d="M102.35-163.49H98.59v-49.62c-.09-1-1.31-11.3-12-12.12l.29-3.75c11.42.87,15.13,10.62,15.5,15.66v49.83Z"/><g class="cls-5"><rect class="cls-2" x="-4486.03" y="-2743.95" width="6348.4" height="5052.27"/></g><path class="cls-3" d="M22.75-231a1.89,1.89,0,0,1-1.88-1.87l-.12-19.85a1.87,1.87,0,0,1,1.82-1.89l9.65-.3h.09l3.42.06A1.88,1.88,0,0,1,37.58-253a1.89,1.89,0,0,1-1.92,1.85l-3.37-.06-7.77.24.11,18a1.89,1.89,0,0,1-1.87,1.9Z"/><g class="cls-6"><rect class="cls-2" x="-4486.03" y="-2743.95" width="6348.4" height="5052.27"/></g><path class="cls-3" d="M38.39-238.1h-.46a5,5,0,0,1-4.15-1.76,4.58,4.58,0,0,1-.81-3.49l.84-9.68c-.08-2.54.62-4.44,2.07-5.65a6,6,0,0,1,4.69-1.2l41.85-2,.23,0c2.51.51,4.26,1.53,5.19,3a4.49,4.49,0,0,1,.64,3.1c-.11,1.42-.78,9.74-1.45,12.36A5.74,5.74,0,0,1,82.26-239l-.18,0c-1.59,0-37.92.92-43.69.92m1.2-18.09a2.07,2.07,0,0,0-1.31.39,3.62,3.62,0,0,0-.7,2.73v.12l-.91,10.29a.82.82,0,0,0,.08.49,1.86,1.86,0,0,0,1.23.3c3.66.07,41.36-.85,43.88-.91a2,2,0,0,0,1.53-1.52c.51-2,1.15-9.22,1.35-11.83l0-.31c0-.54-.81-1.27-2.65-1.68l-41.83,2-.23-.05a4.69,4.69,0,0,0-.48,0"/><g class="cls-7"><rect class="cls-2" x="-4486.03" y="-2743.95" width="6348.4" height="5052.27"/></g><path class="cls-3" d="M75.06-253a1.2,1.2,0,0,0-.92-.27,1.68,1.68,0,0,0-1,.4,2.13,2.13,0,0,0-.61,1.24.75.75,0,0,0,0,.17s1.1,0,2-.06c.5,0,.79-.16.86-.6a1,1,0,0,0-.21-.88m1.84,1a1.45,1.45,0,0,1-.61,1.08,2.74,2.74,0,0,1-1.42.4,9.84,9.84,0,0,1-1.86,0c-.39-.08-.51-.65-.56-.81a3.82,3.82,0,0,0-.08,1.08,1.16,1.16,0,0,0,.5,1,2.16,2.16,0,0,0,1.22.24c.32,0,.66,0,1-.07l.81-.11h0c.06,0,.14,0,.12.12l-.1.83a.16.16,0,0,1-.11.13,8.64,8.64,0,0,1-1.06.25,8.6,8.6,0,0,1-1.08.11,4.64,4.64,0,0,1-1.53-.16,2,2,0,0,1-1-.58,2.11,2.11,0,0,1-.46-1,4.69,4.69,0,0,1,0-1.36l0-.41a3.86,3.86,0,0,1,1-2.33,3.6,3.6,0,0,1,2.5-.92,2.55,2.55,0,0,1,2.08.63A2.36,2.36,0,0,1,76.9-252M54.46-253.7l-4.45.17c-.29,0-.39.21-.43.49s-.08.58-.11.82.09.32.3.31h.38l1.4-.06c.12,0,.05,0,0,0a2.38,2.38,0,0,0-1.29,1.9c0,.21-.33,2.66-.33,2.66a.88.88,0,0,0,0,.16c0,.23.14.28.23.28l.89,0h.08c.35,0,.45-.11.49-.47.07-.51.54-4.28.58-4.56l1.05,0c.48,0,1-.08,1.33.25s.22.71.15,1.26l-.37,3a.76.76,0,0,0,0,.15c0,.23.14.28.23.28l.89,0h.08c.35,0,.45-.11.49-.47,0-.12.48-3.76.51-4a1.87,1.87,0,0,0-2.08-2.07M79.52-254c0-.24,0-.66-.48-.64l-.81,0a.42.42,0,0,0-.4.35l-.73,5.89c0,.32.06.44.22.43l1.17,0a.35.35,0,0,0,.32-.29l.09-.7s.23-1.92.43-3.51a.3.3,0,0,0-.34-.36l-1,0h-.1s0,0,0,0c.51-.09,1.49-.54,1.57-1.19m-20.64,1.92-1,0h-.08c.5-.1,1.48-.54,1.56-1.2,0-.24,0-.66-.47-.64l-.81,0a.43.43,0,0,0-.4.36L57-247.64c0,.32.06.44.21.44l1.17-.05a.33.33,0,0,0,.32-.28l.09-.71.44-3.5a.32.32,0,0,0-.35-.37m11.31-2a4.21,4.21,0,0,0-.9-.18,9.6,9.6,0,0,0-1.08,0,3.79,3.79,0,0,0-1,.15,2.56,2.56,0,0,0-.8.36,2.08,2.08,0,0,0-.57.61,2.24,2.24,0,0,0-.28.86,1.42,1.42,0,0,0,.25,1.11,2.47,2.47,0,0,0,1,.69l1,.38a1.75,1.75,0,0,1,.46.26.49.49,0,0,1,.14.43.62.62,0,0,1-.31.49,1.69,1.69,0,0,1-.75.17H66.32c-.38,0-.73,0-1-.06h0c-.06,0-.1,0-.11.1v0l-.12.93c0,.1,0,.16.13.17a9.54,9.54,0,0,0,1.11.17,8.39,8.39,0,0,0,1.24,0,3.24,3.24,0,0,0,1.84-.57,2,2,0,0,0,.82-1.43,1.57,1.57,0,0,0-.23-1.14,2.25,2.25,0,0,0-1-.72l-1-.4a3.06,3.06,0,0,1-.45-.23.4.4,0,0,1-.14-.41.56.56,0,0,1,.3-.48,2.16,2.16,0,0,1,.69-.13h.89c.29,0,.58,0,.86.07h.06a.1.1,0,0,0,.1-.09c0-.06,0,0,0,0l.11-.93c0-.12-.07-.16-.14-.18m-5.38,1.34a.13.13,0,0,1-.09.1h-.07c-.28,0-.57-.05-.86-.06s-.59,0-.88,0a1.69,1.69,0,0,0-.69.13.55.55,0,0,0-.31.47.4.4,0,0,0,.15.41,2.29,2.29,0,0,0,.45.23l1,.41a2.08,2.08,0,0,1,1,.72,1.55,1.55,0,0,1,.24,1.13,2,2,0,0,1-.83,1.44,3.24,3.24,0,0,1-1.84.57,9.79,9.79,0,0,1-1.23,0,9.43,9.43,0,0,1-1.12-.16.14.14,0,0,1-.13-.18l.12-.93v0a.1.1,0,0,1,.11-.09h0c.31,0,.66.05,1,.06s.73,0,1,0a1.62,1.62,0,0,0,.76-.16.65.65,0,0,0,.3-.49.49.49,0,0,0-.14-.43,1.75,1.75,0,0,0-.46-.26l-1-.39a2.38,2.38,0,0,1-1-.69,1.45,1.45,0,0,1-.25-1.11,2.24,2.24,0,0,1,.29-.86,1.89,1.89,0,0,1,.56-.6,2.57,2.57,0,0,1,.8-.37,4.37,4.37,0,0,1,1-.14,6.44,6.44,0,0,1,1.08,0,4.24,4.24,0,0,1,.9.17c.07,0,.16.07.14.18l-.11.93s0,0,0,0"/><g class="cls-8"><rect class="cls-2" x="-4486.03" y="-2743.95" width="6348.4" height="5052.27"/></g><path class="cls-3" d="M59.68-244.82c-.37,0-.45.13-.46.25s0,.15.17.14l.24,0Zm-.35.63c-.32,0-.46-.11-.43-.36s.28-.44.81-.51h0c0-.12,0-.16,0-.19s-.06-.06-.14-.05a.8.8,0,0,0-.46.17l-.06,0,0-.29h0a1.32,1.32,0,0,1,.54-.16c.2,0,.32,0,.37.16a.81.81,0,0,1,0,.32l-.11.83h-.08A4.11,4.11,0,0,1,59.33-244.19Z"/><g class="cls-9"><rect class="cls-2" x="-4486.03" y="-2743.95" width="6348.4" height="5052.27"/></g><path class="cls-3" d="M60.49-245.78l0-.34h.34l0,.34Zm-.19,1.53.17-1.33h.33l-.18,1.33Z"/><g class="cls-10"><rect class="cls-2" x="-4486.03" y="-2743.95" width="6348.4" height="5052.27"/></g><path class="cls-3" d="M61.34-244.25a.89.89,0,0,1-.36-.07h0l0-.32,0,0a.42.42,0,0,0,.31.11c.14,0,.23-.07.24-.15a.1.1,0,0,0-.07-.12l-.16-.08c-.24-.11-.31-.2-.29-.38a.56.56,0,0,1,.57-.42.93.93,0,0,1,.34.06h0l0,.3,0,0a.4.4,0,0,0-.28-.08c-.13,0-.22.06-.23.13s0,.09.19.17a.59.59,0,0,1,.25.16.25.25,0,0,1,.08.25.56.56,0,0,1-.59.43"/><g class="cls-11"><rect class="cls-2" x="-4486.03" y="-2743.95" width="6348.4" height="5052.27"/></g><path class="cls-3" d="M63.68-245.47a.51.51,0,0,0-.54.46c0,.28.09.42.37.4l.2,0,.11-.83Zm-.09,1.75.09-.67a.77.77,0,0,1-.25,0c-.44,0-.68-.22-.62-.63a.87.87,0,0,1,.94-.74,1.85,1.85,0,0,1,.4,0h0l-.26,2Z"/><g class="cls-12"><rect class="cls-2" x="-4486.03" y="-2743.95" width="6348.4" height="5052.27"/></g><path class="cls-3" d="M65-244.41a.65.65,0,0,1-.44-.1c-.09-.08-.11-.19-.08-.4l.11-.83h.32l-.1.81c0,.22,0,.28.26.27l.23,0,.14-1.08h.33l-.17,1.29h0a3.51,3.51,0,0,1-.57.08"/><g class="cls-13"><rect class="cls-2" x="-4486.03" y="-2743.95" width="6348.4" height="5052.27"/></g><path class="cls-3" d="M67-245.36c0-.16-.09-.23-.26-.23a.39.39,0,0,0-.36.26Zm-.38.9c-.44,0-.68-.22-.62-.64a.81.81,0,0,1,.78-.74.48.48,0,0,1,.47.22.56.56,0,0,1,0,.41v.09l-1,0v0c0,.23.12.37.38.36a.91.91,0,0,0,.46-.16l0,0,0,.29h0A1.16,1.16,0,0,1,66.6-244.46Z"/><g class="cls-14"><rect class="cls-2" x="-4486.03" y="-2743.95" width="6348.4" height="5052.27"/></g><path class="cls-3" d="M68.19-244.55l.13-1h-.21l0-.25h.22v0a.79.79,0,0,1,.26-.57.77.77,0,0,1,.43-.17h.16l0,.24H69a.29.29,0,0,0-.23.1.58.58,0,0,0-.12.36v0H69l0,.24-.34,0-.14,1.05Z"/><g class="cls-15"><rect class="cls-2" x="-4486.03" y="-2743.95" width="6348.4" height="5052.27"/></g><path class="cls-3" d="M69.85-245.2c-.37,0-.45.12-.47.24s0,.15.18.15l.24,0Zm-.35.62c-.32,0-.46-.11-.43-.36s.27-.44.8-.5h0c0-.12,0-.16,0-.19s-.07,0-.14,0a.84.84,0,0,0-.46.17l-.06,0,0-.3h0a1.21,1.21,0,0,1,.54-.17c.2,0,.32.05.36.17a.57.57,0,0,1,0,.31l-.11.83H70A2.76,2.76,0,0,1,69.5-244.58Z"/><g class="cls-16"><rect class="cls-2" x="-4486.03" y="-2743.95" width="6348.4" height="5052.27"/></g><path class="cls-3" d="M70.46-244.64l.17-1.24h0a1.87,1.87,0,0,1,.56-.12,1,1,0,0,1,.25,0h0l0,.27h0a.37.37,0,0,0-.21,0,.8.8,0,0,0-.26.05l-.14,1Z"/><g class="cls-17"><rect class="cls-2" x="-4486.03" y="-2743.95" width="6348.4" height="5052.27"/></g><path class="cls-3" d="M73.21-244.74l.11-.83c0-.2,0-.26-.22-.26a1.11,1.11,0,0,0-.25.05.73.73,0,0,1,0,.2l-.11.86H72.4l.11-.83c0-.2,0-.26-.24-.26l-.25.05-.14,1.06h-.32l.16-1.25h0a2.55,2.55,0,0,1,.61-.11.58.58,0,0,1,.36.07,1.09,1.09,0,0,1,.46-.1.48.48,0,0,1,.41.13.38.38,0,0,1,.07.34l-.12.86Z"/><g class="cls-18"><rect class="cls-2" x="-4486.03" y="-2743.95" width="6348.4" height="5052.27"/></g><path class="cls-3" d="M58.16-244.17l.11-.83c0-.19,0-.26-.22-.25a.62.62,0,0,0-.25.05.65.65,0,0,1,0,.2l-.12.85h-.32l.11-.83c0-.19,0-.26-.24-.25a.73.73,0,0,0-.25,0l-.14,1.06-.33,0,.17-1.26h0a2.92,2.92,0,0,1,.61-.11.77.77,0,0,1,.36.07,1.53,1.53,0,0,1,.45-.1.52.52,0,0,1,.42.13c.07.07.08.17.06.34l-.11.86Z"/><g class="cls-19"><rect class="cls-2" x="-4486.03" y="-2743.95" width="6348.4" height="5052.27"/></g><path class="cls-3" d="M74.41-246.27l.56-.58h.3l-.63.6Zm.26.88c-.37,0-.45.13-.46.25s0,.15.17.14l.24,0Zm-.35.63c-.31,0-.46-.11-.42-.36s.27-.45.8-.51h0a.42.42,0,0,0,0-.19s-.07-.06-.15,0a.82.82,0,0,0-.46.17l0,0,0-.29h0a1.37,1.37,0,0,1,.54-.16c.2,0,.32,0,.37.16a.77.77,0,0,1,0,.31l-.11.84h-.07A4.48,4.48,0,0,1,74.32-244.76Z"/><g class="cls-20"><rect class="cls-2" x="-4486.03" y="-2743.95" width="6348.4" height="5052.27"/></g><path class="cls-3" d="M75.91-244.82c-.44,0-.69-.23-.63-.64a.83.83,0,0,1,.83-.73.7.7,0,0,1,.35.06h0l0,.29,0,0a.41.41,0,0,0-.29-.08.49.49,0,0,0-.5.45c0,.28.1.43.38.42a.74.74,0,0,0,.34-.12l.05,0,0,.29h0a.86.86,0,0,1-.41.1"/><g class="cls-21"><rect class="cls-2" x="-4486.03" y="-2743.95" width="6348.4" height="5052.27"/></g><path class="cls-3" d="M76.78-246.4l0-.34h.35l0,.34Zm-.19,1.53.17-1.33h.33l-.18,1.33Z"/><g class="cls-22"><rect class="cls-2" x="-4486.03" y="-2743.95" width="6348.4" height="5052.27"/></g><path class="cls-3" d="M78.06-245.52c-.37.05-.45.13-.47.25s0,.15.18.14l.24,0Zm-.35.63c-.32,0-.46-.11-.43-.36s.27-.44.8-.51h0c0-.12,0-.16,0-.19S78-246,78-246a.77.77,0,0,0-.46.17l-.06,0,0-.29h0a1.28,1.28,0,0,1,.54-.16c.2,0,.32.05.36.16a.62.62,0,0,1,0,.32l-.11.83h-.08A4.11,4.11,0,0,1,77.71-244.89Z"/><g class="cls-23"><rect class="cls-2" x="-4486.03" y="-2743.95" width="6348.4" height="5052.27"/></g><path class="cls-3" d="M46.49-249.8l-.55,3.11a4.39,4.39,0,0,0,2.8-3.19Z"/><g class="cls-24"><rect class="cls-2" x="-4486.03" y="-2743.95" width="6348.4" height="5052.27"/></g><path class="cls-3" d="M46.87-251.8l1.67-.07a4.08,4.08,0,0,0-1.35-1.74Z"/><g class="cls-25"><rect class="cls-2" x="-4486.03" y="-2743.95" width="6348.4" height="5052.27"/></g><path class="cls-3" d="M44.11-248c.13-.51.3-1.36,1.88-1.7.13,0,.11-.06,0-.06l-5.09.2c0-.27.19-1.1.25-1.42.1-.5.36-.6.83-.62l2.78-.1.51-2.78a5.67,5.67,0,0,0-1.5-.14c-2.67.1-4.77,2-4.68,4.35s2.14,3.93,4.67,4Z"/><g class="cls-26"><rect class="cls-2" x="-4486.03" y="-2743.95" width="6348.4" height="5052.27"/></g><polygon class="cls-3" points="60.11 -164.54 29.57 -166.94 29.87 -170.69 56.34 -168.61 56.25 -215.75 60.01 -215.75 60.11 -164.54"/><g class="cls-27"><rect class="cls-2" x="-4486.03" y="-2743.95" width="6348.4" height="5052.27"/></g><rect class="cls-2" x="70.26" y="-179.48" width="3.76" height="27.92" transform="translate(231.75 -81.09) rotate(-85.67)"/><g class="cls-28"><rect class="cls-2" x="-4486.03" y="-2743.95" width="6348.4" height="5052.27"/></g><path class="cls-3" d="M63.78-181.21a1.85,1.85,0,0,1-1.62-.92,1.87,1.87,0,0,1,.65-2.57l1-.62v-1.89l-1.52-1.27a1.88,1.88,0,0,1-.24-2.65,1.88,1.88,0,0,1,2.65-.24l2.19,1.83a1.89,1.89,0,0,1,.68,1.45v3.84a1.88,1.88,0,0,1-.92,1.62l-2,1.16a1.9,1.9,0,0,1-1,.26"/><g class="cls-29"><rect class="cls-2" x="-4486.03" y="-2743.95" width="6348.4" height="5052.27"/></g><path class="cls-3" d="M52-181.74a1.86,1.86,0,0,1-1-.27l-1.95-1.16a1.88,1.88,0,0,1-.92-1.62v-3.84a1.89,1.89,0,0,1,.68-1.45l2.19-1.83a1.88,1.88,0,0,1,2.65.24,1.88,1.88,0,0,1-.24,2.65L52-187.75v1.89l1,.62a1.87,1.87,0,0,1,.66,2.57,1.87,1.87,0,0,1-1.62.93"/><g class="cls-30"><rect class="cls-2" x="-4486.03" y="-2743.95" width="6348.4" height="5052.27"/></g><path class="cls-2" d="M-256.9,208.93h-83.51l35.55-33.83a3.29,3.29,0,0,0,0-4.93,3.7,3.7,0,0,0-5.18,0l-42,39.81a3.3,3.3,0,0,0,0,4.94l41.85,39.81a3.73,3.73,0,0,0,5.19,0,3.3,3.3,0,0,0,0-4.94L-340.41,216h83.51a3.63,3.63,0,0,0,3.71-3.52A3.63,3.63,0,0,0-256.9,208.93Z"/><g class="cls-31"><rect class="cls-2" x="-1053.19" y="-2524.22" width="9600" height="25640"/></g><path class="cls-2" d="M-497.49,208.93H-414l-35.56-33.83a3.29,3.29,0,0,1,0-4.93,3.71,3.71,0,0,1,5.19,0l42,39.81a3.3,3.3,0,0,1,0,4.94l-41.85,39.81a3.73,3.73,0,0,1-5.19,0,3.3,3.3,0,0,1,0-4.94L-414,216h-83.52a3.62,3.62,0,0,1-3.7-3.52A3.62,3.62,0,0,1-497.49,208.93Z"/><g class="cls-32"><rect class="cls-2" x="-9301.19" y="-2524.22" width="9600" height="25640"/></g></svg>