<svg id="Layer_1" data-name="Layer 1" xmlns="http://www.w3.org/2000/svg" xmlns:xlink="http://www.w3.org/1999/xlink" viewBox="0 0 128 128"><defs><style>.cls-1,.cls-2,.cls-3{fill:#8a9297;}.cls-1{clip-rule:evenodd;}.cls-3{fill-rule:evenodd;}.cls-4{clip-path:url(#clip-path);}.cls-5{clip-path:url(#clip-path-2);}.cls-6{clip-path:url(#clip-path-3);}.cls-7{clip-path:url(#clip-path-4);}.cls-8{clip-path:url(#clip-path-5);}.cls-9{clip-path:url(#clip-path-6);}.cls-10{clip-path:url(#clip-path-7);}.cls-11{clip-path:url(#clip-path-8);}.cls-12{clip-path:url(#clip-path-9);}.cls-13{clip-path:url(#clip-path-10);}.cls-14{clip-path:url(#clip-path-11);}.cls-15{clip-path:url(#clip-path-12);}.cls-16{clip-path:url(#clip-path-13);}.cls-17{clip-path:url(#clip-path-14);}.cls-18{clip-path:url(#clip-path-15);}.cls-19{clip-path:url(#clip-path-16);}.cls-20{clip-path:url(#clip-path-17);}.cls-21{clip-path:url(#clip-path-18);}.cls-22{clip-path:url(#clip-path-19);}.cls-23{clip-path:url(#clip-path-20);}.cls-24{clip-path:url(#clip-path-21);}.cls-25{clip-path:url(#clip-path-22);}.cls-26{clip-path:url(#clip-path-23);}.cls-27{clip-path:url(#clip-path-24);}.cls-28{clip-path:url(#clip-path-25);}.cls-29{clip-path:url(#clip-path-26);}.cls-30{clip-path:url(#clip-path-27);}.cls-31{clip-path:url(#clip-path-28);}.cls-32{clip-path:url(#clip-path-29);}</style><clipPath id="clip-path"><path class="cls-1" d="M1204.88-603.17h-.15l-11-.92A1.88,1.88,0,0,1,1192-606v-44.33a6.39,6.39,0,0,0-1.71-4.91,6.66,6.66,0,0,0-4.49-1.46.55.55,0,0,1-.18,0l-47.55-.53v46.91a1.87,1.87,0,0,1-.6,1.38,1.92,1.92,0,0,1-1.43.5l-9.25-.74a1.87,1.87,0,0,1-1.73-1.89c0-.3.27-29.76.21-36.75a14.85,14.85,0,0,1,3.35-9.34h-5.89a3.55,3.55,0,0,1-3.26-2.65,1.77,1.77,0,0,1-.09-.56v-6.09c0-3.05,1.89-4.31,3-4.57a1.4,1.4,0,0,1,.41,0l67.21-.92h.27c15.85,2,16.65,15.93,16.66,16.07v.09l-.18,50.74a2,2,0,0,1-.61,1.38A1.9,1.9,0,0,1,1204.88-603.17Zm-9.1-4.53,7.23.61.18-48.64c0-.78-1-10.83-13.25-12.46l-66.61.91a1.69,1.69,0,0,0-.17.87v5.54h10.11a1.88,1.88,0,0,1,1.43.66,1.68,1.68,0,0,1,.18-.21,1.83,1.83,0,0,1,1.34-.54l49.38.55a10.42,10.42,0,0,1,7.23,2.41c2,1.8,3,4.39,3,7.71Zm-66.93-5,5.47.44v-45.13h0s-5.32,3.68-5.27,9.62S1128.91-619.23,1128.85-612.74Z"/></clipPath><clipPath id="clip-path-2"><path class="cls-1" d="M1210-606.64h-3.76v-49.61c-.09-1-1.31-11.31-12-12.13l.29-3.75c11.42.87,15.13,10.63,15.5,15.66v49.83Z"/></clipPath><clipPath id="clip-path-3"><path class="cls-1" d="M1130.4-674.17a1.89,1.89,0,0,1-1.88-1.87l-.12-19.84a1.87,1.87,0,0,1,1.82-1.89l9.65-.31h.09l3.42.06a1.89,1.89,0,0,1,1.85,1.92,1.88,1.88,0,0,1-1.92,1.84l-3.37-.06-7.77.25.11,18a1.88,1.88,0,0,1-1.87,1.89Z"/></clipPath><clipPath id="clip-path-4"><path class="cls-1" d="M1146-681.25h-.47a5.07,5.07,0,0,1-4.15-1.76,4.58,4.58,0,0,1-.8-3.5l.84-9.68c-.08-2.53.62-4.44,2.07-5.65a6,6,0,0,1,4.69-1.19l41.85-2,.23,0c2.51.51,4.26,1.53,5.19,3a4.48,4.48,0,0,1,.64,3.1c-.11,1.41-.78,9.73-1.45,12.36a5.77,5.77,0,0,1-4.77,4.33h-.18c-1.59,0-37.92.92-43.69.92m1.2-18.09a2,2,0,0,0-1.31.4,3.65,3.65,0,0,0-.71,2.73v.12l-.91,10.28a.82.82,0,0,0,.08.49c.11.14.5.29,1.23.3,3.66.07,41.35-.85,43.88-.91a2,2,0,0,0,1.52-1.52c.52-2,1.16-9.22,1.36-11.82l0-.32c0-.54-.81-1.26-2.66-1.68l-41.82,2-.23,0a2.33,2.33,0,0,0-.48,0"/></clipPath><clipPath id="clip-path-5"><path class="cls-1" d="M1182.71-696.15a1.12,1.12,0,0,0-.92-.27,1.62,1.62,0,0,0-1,.4,2.13,2.13,0,0,0-.62,1.23s0,.11,0,.18l2-.06c.5,0,.79-.17.86-.61a1,1,0,0,0-.21-.87m1.84,1a1.43,1.43,0,0,1-.61,1.08,2.65,2.65,0,0,1-1.42.4,9,9,0,0,1-1.86,0c-.39-.07-.51-.65-.57-.81a4.08,4.08,0,0,0-.07,1.09,1.14,1.14,0,0,0,.5,1,2.16,2.16,0,0,0,1.22.24c.32,0,.66,0,1-.07a7.81,7.81,0,0,0,.82-.11h0c.06,0,.13,0,.12.12l-.1.82c0,.06,0,.1-.12.13a6.71,6.71,0,0,1-1,.25,8.6,8.6,0,0,1-1.08.11,4.38,4.38,0,0,1-1.53-.15,2,2,0,0,1-.95-.59,2.08,2.08,0,0,1-.46-1,4.43,4.43,0,0,1,0-1.37l0-.41a3.8,3.8,0,0,1,1-2.32,3.56,3.56,0,0,1,2.5-.93,2.56,2.56,0,0,1,2.08.64,2.34,2.34,0,0,1,.47,1.92m-22.44-1.74-4.45.17c-.29,0-.39.21-.43.49s-.08.59-.11.83.09.31.3.3h.38l1.4,0c.11,0,0,0,0,0a2.36,2.36,0,0,0-1.29,1.89c0,.21-.34,2.67-.34,2.67s0,.11,0,.15c0,.24.14.29.23.28l.89,0h.08c.35,0,.45-.11.49-.46.07-.51.54-4.28.58-4.57l1.05,0c.48,0,1-.07,1.32.26s.23.71.16,1.26l-.37,3a.81.81,0,0,0,0,.15c0,.24.13.29.23.28l.89,0h.08c.35,0,.44-.11.49-.46,0-.13.48-3.76.51-4a1.89,1.89,0,0,0-2.08-2.07m25.06-.33c0-.24,0-.66-.48-.64l-.81,0a.43.43,0,0,0-.4.36l-.73,5.88c0,.32.06.44.22.44l1.17,0a.33.33,0,0,0,.31-.29l.1-.7s.23-1.91.43-3.5a.3.3,0,0,0-.34-.37l-1,0h-.1s0,0,0,0c.51-.09,1.48-.53,1.57-1.19m-20.64,1.93-1,0h-.08c.5-.1,1.48-.53,1.56-1.19,0-.25,0-.66-.48-.64l-.81,0a.41.41,0,0,0-.39.35l-.73,5.89c-.06.32.06.44.21.43l1.17,0a.35.35,0,0,0,.32-.29l.09-.7.44-3.51a.31.31,0,0,0-.35-.36m11.31-2.06a5,5,0,0,0-.91-.18,9.43,9.43,0,0,0-1.07,0,5.13,5.13,0,0,0-1,.15,2.8,2.8,0,0,0-.8.37,2.14,2.14,0,0,0-.56.6,2.24,2.24,0,0,0-.28.86,1.38,1.38,0,0,0,.25,1.11,2.47,2.47,0,0,0,1,.69l1,.38a1.92,1.92,0,0,1,.46.27.49.49,0,0,1,.14.43.64.64,0,0,1-.31.49,1.71,1.71,0,0,1-.75.16c-.32,0-.67,0-1.06,0s-.73,0-1-.06h0a.1.1,0,0,0-.11.09c0,.06,0,0,0,0l-.11.93c0,.11,0,.16.13.18a9.56,9.56,0,0,0,1.11.16,8.28,8.28,0,0,0,1.23,0,3.27,3.27,0,0,0,1.85-.56,2,2,0,0,0,.82-1.44,1.54,1.54,0,0,0-.23-1.13,2.26,2.26,0,0,0-1-.73l-1-.4a3.06,3.06,0,0,1-.45-.23.38.38,0,0,1-.14-.41.56.56,0,0,1,.3-.47,1.72,1.72,0,0,1,.69-.13h.88q.45,0,.87.06h.06a.1.1,0,0,0,.1-.09c0-.06,0,0,0,0l.11-.93c0-.12-.08-.16-.14-.18m-5.38,1.35a.1.1,0,0,1-.1.09h-.06c-.28,0-.57-.06-.86-.07h-.89a2.16,2.16,0,0,0-.69.13.56.56,0,0,0-.3.47.41.41,0,0,0,.14.42,3.06,3.06,0,0,0,.45.23l1,.4a2.2,2.2,0,0,1,1,.72,1.57,1.57,0,0,1,.24,1.14,2,2,0,0,1-.83,1.43,3.24,3.24,0,0,1-1.84.57,8.39,8.39,0,0,1-1.24,0,9.54,9.54,0,0,1-1.11-.17c-.1,0-.14-.07-.13-.17l.12-.93v0c0-.06,0-.11.11-.1h0c.31,0,.65.05,1,.06h1.05a1.66,1.66,0,0,0,.75-.17.62.62,0,0,0,.31-.49.49.49,0,0,0-.14-.43,1.75,1.75,0,0,0-.46-.26l-1-.38a2.47,2.47,0,0,1-1.05-.69,1.46,1.46,0,0,1-.25-1.11,2.09,2.09,0,0,1,.29-.86,1.92,1.92,0,0,1,.56-.61,2.35,2.35,0,0,1,.8-.36,3.79,3.79,0,0,1,1-.15,9.6,9.6,0,0,1,1.08,0,3.67,3.67,0,0,1,.9.18c.07,0,.16.06.14.18l-.11.93s0,0,0,0"/></clipPath><clipPath id="clip-path-6"><path class="cls-1" d="M1167.33-688c-.37,0-.45.12-.47.24s0,.15.18.15l.24,0Zm-.35.62c-.32,0-.46-.1-.43-.35s.27-.45.8-.51h0v0c0-.11,0-.16,0-.19s-.07-.05-.14-.05a1,1,0,0,0-.46.17l-.06,0,0-.29h0a1.21,1.21,0,0,1,.54-.17c.2,0,.32.05.37.17a.75.75,0,0,1,0,.31l-.11.83h-.08A2.76,2.76,0,0,1,1167-687.34Z"/></clipPath><clipPath id="clip-path-7"><path class="cls-1" d="M1168.13-688.93l0-.33.34,0,0,.34Zm-.19,1.54.18-1.34h.33l-.18,1.33Z"/></clipPath><clipPath id="clip-path-8"><path class="cls-1" d="M1169-687.4a.8.8,0,0,1-.37-.06h0l0-.32,0,0a.46.46,0,0,0,.31.1c.14,0,.23-.06.24-.14s0-.09-.07-.13L1169-688c-.23-.1-.31-.2-.28-.37a.54.54,0,0,1,.57-.42.65.65,0,0,1,.34.06h0l0,.29,0,0a.46.46,0,0,0-.28-.08c-.13,0-.22.06-.24.14s0,.09.2.17a.6.6,0,0,1,.25.15.29.29,0,0,1,.08.26.55.55,0,0,1-.59.42"/></clipPath><clipPath id="clip-path-9"><path class="cls-1" d="M1171.33-688.61a.51.51,0,0,0-.55.45c0,.28.1.42.38.41a.69.69,0,0,0,.2,0l.11-.83Zm-.09,1.74.08-.66a1,1,0,0,1-.24,0c-.45,0-.68-.21-.62-.62a.87.87,0,0,1,.94-.75,1.89,1.89,0,0,1,.4,0h0l-.26,2Z"/></clipPath><clipPath id="clip-path-10"><path class="cls-1" d="M1172.63-687.56a.59.59,0,0,1-.44-.1c-.09-.08-.11-.18-.08-.39l.11-.83h.32l-.11.81c0,.21,0,.28.27.27l.23,0,.14-1.07.33,0-.17,1.29h0a3.38,3.38,0,0,1-.57.07"/></clipPath><clipPath id="clip-path-11"><path class="cls-1" d="M1174.62-688.5c0-.16-.08-.24-.25-.23a.38.38,0,0,0-.36.25Zm-.37.89c-.44,0-.68-.22-.62-.63a.82.82,0,0,1,.78-.75.48.48,0,0,1,.47.22.62.62,0,0,1,0,.41v.09l-1,0h0c0,.24.12.37.38.36a.83.83,0,0,0,.46-.16l0,0,0,.29h0A1,1,0,0,1,1174.25-687.61Z"/></clipPath><clipPath id="clip-path-12"><path class="cls-1" d="M1175.83-687.7l.14-1h-.22l0-.24h.21v0a.83.83,0,0,1,.26-.58.67.67,0,0,1,.43-.16h.16l0,.25h-.14a.27.27,0,0,0-.23.11.59.59,0,0,0-.13.36v0l.34,0,0,.25h-.34l-.14,1Z"/></clipPath><clipPath id="clip-path-13"><path class="cls-1" d="M1177.49-688.35c-.36,0-.44.12-.46.24s0,.15.18.15a1,1,0,0,0,.24,0Zm-.34.63c-.32,0-.46-.11-.43-.36s.27-.45.8-.51h0v0a.47.47,0,0,0,0-.18s-.07-.06-.15-.06a.87.87,0,0,0-.45.18l-.06,0,0-.29h0a1,1,0,0,1,.54-.16c.19,0,.32,0,.36.16a.58.58,0,0,1,0,.31l-.11.83h-.08Z"/></clipPath><clipPath id="clip-path-14"><path class="cls-1" d="M1178.11-687.78l.17-1.24h0a1.61,1.61,0,0,1,.56-.12.63.63,0,0,1,.24,0h0l0,.27,0,0a.71.71,0,0,0-.21,0,.62.62,0,0,0-.26.06l-.14,1.05Z"/></clipPath><clipPath id="clip-path-15"><path class="cls-1" d="M1180.86-687.89l.11-.83c0-.19,0-.26-.23-.25a.55.55,0,0,0-.24.05.74.74,0,0,1,0,.2l-.11.85h-.33l.11-.83c0-.19,0-.26-.24-.25a.81.81,0,0,0-.25,0l-.14,1.06-.33,0,.17-1.26h0a3,3,0,0,1,.61-.11.77.77,0,0,1,.36.07,1.52,1.52,0,0,1,.46-.1.48.48,0,0,1,.41.13.36.36,0,0,1,.06.34l-.11.86Z"/></clipPath><clipPath id="clip-path-16"><path class="cls-1" d="M1165.81-687.31l.11-.84c0-.19,0-.26-.22-.25a.79.79,0,0,0-.25,0,.65.65,0,0,1,0,.2l-.12.86H1165l.11-.84c0-.19,0-.26-.24-.25a1.32,1.32,0,0,0-.26,0l-.14,1.06h-.32l.16-1.26h0a2,2,0,0,1,.61-.11.6.6,0,0,1,.36.07,1.29,1.29,0,0,1,.45-.11.56.56,0,0,1,.42.13.43.43,0,0,1,.06.34l-.11.86Z"/></clipPath><clipPath id="clip-path-17"><path class="cls-1" d="M1182.05-689.41l.57-.59.3,0-.63.6Zm.27.88c-.37,0-.45.12-.46.24s0,.15.17.15l.24,0Zm-.35.62c-.32,0-.46-.11-.42-.35s.27-.45.8-.51h0c0-.12,0-.16,0-.19s-.06,0-.14,0a.87.87,0,0,0-.46.17l-.06,0,0-.3h0a1.21,1.21,0,0,1,.54-.17c.2,0,.32,0,.37.17a.75.75,0,0,1,0,.31l-.11.83h-.07A3,3,0,0,1,1182-687.91Z"/></clipPath><clipPath id="clip-path-18"><path class="cls-1" d="M1183.55-688c-.43,0-.68-.24-.62-.64a.83.83,0,0,1,.83-.74.7.7,0,0,1,.35.06h0l0,.29,0,0a.47.47,0,0,0-.29-.08.49.49,0,0,0-.5.46.33.33,0,0,0,.38.41.56.56,0,0,0,.34-.12l0,0,0,.29h0a1,1,0,0,1-.42.11"/></clipPath><clipPath id="clip-path-19"><path class="cls-1" d="M1184.43-689.55l0-.33.35,0,0,.34Zm-.19,1.53.17-1.33h.33l-.18,1.33Z"/></clipPath><clipPath id="clip-path-20"><path class="cls-1" d="M1185.7-688.66c-.36,0-.44.12-.46.24s0,.15.17.15l.25,0Zm-.34.62c-.32,0-.46-.1-.43-.35s.27-.45.8-.51h0v0a.55.55,0,0,0,0-.19s-.07,0-.15,0a1,1,0,0,0-.46.17l-.05,0,0-.29h0a1.17,1.17,0,0,1,.54-.17c.19,0,.32,0,.36.17a.57.57,0,0,1,0,.31l-.11.83h-.08A2.86,2.86,0,0,1,1185.36-688Z"/></clipPath><clipPath id="clip-path-21"><path class="cls-1" d="M1154.14-692.94l-.55,3.1a4.37,4.37,0,0,0,2.8-3.19Z"/></clipPath><clipPath id="clip-path-22"><path class="cls-1" d="M1154.52-694.95l1.67-.06a4.13,4.13,0,0,0-1.36-1.75Z"/></clipPath><clipPath id="clip-path-23"><path class="cls-1" d="M1151.75-691.16c.14-.51.31-1.37,1.89-1.71.13,0,.11-.06,0,0l-5.09.19c0-.27.19-1.1.25-1.41.1-.51.36-.61.83-.62l2.78-.11.51-2.77a5.71,5.71,0,0,0-1.5-.15c-2.67.11-4.77,2-4.68,4.36s2.14,3.93,4.67,4Z"/></clipPath><clipPath id="clip-path-24"><polygon class="cls-1" points="1167.76 -607.68 1137.22 -610.09 1137.52 -613.84 1163.99 -611.75 1163.9 -658.89 1167.66 -658.9 1167.76 -607.68"/></clipPath><clipPath id="clip-path-25"><rect class="cls-2" x="1177.91" y="-622.63" width="3.76" height="27.92" transform="translate(1697.72 613.68) rotate(-85.67)"/></clipPath><clipPath id="clip-path-26"><path class="cls-1" d="M1171.43-624.35a1.87,1.87,0,0,1-1.62-.92,1.88,1.88,0,0,1,.65-2.58l1-.61v-1.9l-1.52-1.27a1.89,1.89,0,0,1-.25-2.65,1.89,1.89,0,0,1,2.65-.24l2.2,1.83a1.89,1.89,0,0,1,.68,1.45v3.85a1.86,1.86,0,0,1-.92,1.61l-2,1.16a1.85,1.85,0,0,1-1,.27"/></clipPath><clipPath id="clip-path-27"><path class="cls-1" d="M1159.69-624.89a1.85,1.85,0,0,1-1-.26l-2-1.16a1.89,1.89,0,0,1-.92-1.62v-3.85a1.85,1.85,0,0,1,.67-1.44l2.2-1.83a1.88,1.88,0,0,1,2.65.24,1.88,1.88,0,0,1-.24,2.65l-1.52,1.26v1.9l1,.61a1.88,1.88,0,0,1,.66,2.58,1.89,1.89,0,0,1-1.62.92"/></clipPath><clipPath id="clip-path-28"><path class="cls-2" d="M850.75-234.22H767.23L802.79-268a3.29,3.29,0,0,0,0-4.93,3.71,3.71,0,0,0-5.19,0l-42,39.81a3.29,3.29,0,0,0,0,4.93l41.85,39.81a3.7,3.7,0,0,0,5.18,0,3.28,3.28,0,0,0,0-4.93l-35.37-33.82h83.52a3.64,3.64,0,0,0,3.71-3.53A3.63,3.63,0,0,0,850.75-234.22Z"/></clipPath><clipPath id="clip-path-29"><path class="cls-2" d="M610.16-234.22h83.52L658.12-268a3.29,3.29,0,0,1,0-4.93,3.71,3.71,0,0,1,5.19,0l42,39.81a3.29,3.29,0,0,1,0,4.93l-41.86,39.81a3.7,3.7,0,0,1-5.18,0,3.29,3.29,0,0,1,0-4.93l35.37-33.82H610.16a3.63,3.63,0,0,1-3.7-3.53A3.62,3.62,0,0,1,610.16-234.22Z"/></clipPath></defs><title>icons</title><path class="cls-3" d="M1204.88-603.17h-.15l-11-.92A1.88,1.88,0,0,1,1192-606v-44.33a6.39,6.39,0,0,0-1.71-4.91,6.66,6.66,0,0,0-4.49-1.46.55.55,0,0,1-.18,0l-47.55-.53v46.91a1.87,1.87,0,0,1-.6,1.38,1.92,1.92,0,0,1-1.43.5l-9.25-.74a1.87,1.87,0,0,1-1.73-1.89c0-.3.27-29.76.21-36.75a14.85,14.85,0,0,1,3.35-9.34h-5.89a3.55,3.55,0,0,1-3.26-2.65,1.77,1.77,0,0,1-.09-.56v-6.09c0-3.05,1.89-4.31,3-4.57a1.4,1.4,0,0,1,.41,0l67.21-.92h.27c15.85,2,16.65,15.93,16.66,16.07v.09l-.18,50.74a2,2,0,0,1-.61,1.38A1.9,1.9,0,0,1,1204.88-603.17Zm-9.1-4.53,7.23.61.18-48.64c0-.78-1-10.83-13.25-12.46l-66.61.91a1.69,1.69,0,0,0-.17.87v5.54h10.11a1.88,1.88,0,0,1,1.43.66,1.68,1.68,0,0,1,.18-.21,1.83,1.83,0,0,1,1.34-.54l49.38.55a10.42,10.42,0,0,1,7.23,2.41c2,1.8,3,4.39,3,7.71Zm-66.93-5,5.47.44v-45.13h0s-5.32,3.68-5.27,9.62S1128.91-619.23,1128.85-612.74Z"/><g class="cls-4"><rect class="cls-2" x="-3378.39" y="-3187.1" width="6348.4" height="5052.27"/></g><path class="cls-3" d="M1210-606.64h-3.76v-49.61c-.09-1-1.31-11.31-12-12.13l.29-3.75c11.42.87,15.13,10.63,15.5,15.66v49.83Z"/><g class="cls-5"><rect class="cls-2" x="-3378.39" y="-3187.1" width="6348.4" height="5052.27"/></g><path class="cls-3" d="M1130.4-674.17a1.89,1.89,0,0,1-1.88-1.87l-.12-19.84a1.87,1.87,0,0,1,1.82-1.89l9.65-.31h.09l3.42.06a1.89,1.89,0,0,1,1.85,1.92,1.88,1.88,0,0,1-1.92,1.84l-3.37-.06-7.77.25.11,18a1.88,1.88,0,0,1-1.87,1.89Z"/><g class="cls-6"><rect class="cls-2" x="-3378.39" y="-3187.1" width="6348.4" height="5052.27"/></g><path class="cls-3" d="M1146-681.25h-.47a5.07,5.07,0,0,1-4.15-1.76,4.58,4.58,0,0,1-.8-3.5l.84-9.68c-.08-2.53.62-4.44,2.07-5.65a6,6,0,0,1,4.69-1.19l41.85-2,.23,0c2.51.51,4.26,1.53,5.19,3a4.48,4.48,0,0,1,.64,3.1c-.11,1.41-.78,9.73-1.45,12.36a5.77,5.77,0,0,1-4.77,4.33h-.18c-1.59,0-37.92.92-43.69.92m1.2-18.09a2,2,0,0,0-1.31.4,3.65,3.65,0,0,0-.71,2.73v.12l-.91,10.28a.82.82,0,0,0,.08.49c.11.14.5.29,1.23.3,3.66.07,41.35-.85,43.88-.91a2,2,0,0,0,1.52-1.52c.52-2,1.16-9.22,1.36-11.82l0-.32c0-.54-.81-1.26-2.66-1.68l-41.82,2-.23,0a2.33,2.33,0,0,0-.48,0"/><g class="cls-7"><rect class="cls-2" x="-3378.39" y="-3187.1" width="6348.4" height="5052.27"/></g><path class="cls-3" d="M1182.71-696.15a1.12,1.12,0,0,0-.92-.27,1.62,1.62,0,0,0-1,.4,2.13,2.13,0,0,0-.62,1.23s0,.11,0,.18l2-.06c.5,0,.79-.17.86-.61a1,1,0,0,0-.21-.87m1.84,1a1.43,1.43,0,0,1-.61,1.08,2.65,2.65,0,0,1-1.42.4,9,9,0,0,1-1.86,0c-.39-.07-.51-.65-.57-.81a4.08,4.08,0,0,0-.07,1.09,1.14,1.14,0,0,0,.5,1,2.16,2.16,0,0,0,1.22.24c.32,0,.66,0,1-.07a7.81,7.81,0,0,0,.82-.11h0c.06,0,.13,0,.12.12l-.1.82c0,.06,0,.1-.12.13a6.71,6.71,0,0,1-1,.25,8.6,8.6,0,0,1-1.08.11,4.38,4.38,0,0,1-1.53-.15,2,2,0,0,1-.95-.59,2.08,2.08,0,0,1-.46-1,4.43,4.43,0,0,1,0-1.37l0-.41a3.8,3.8,0,0,1,1-2.32,3.56,3.56,0,0,1,2.5-.93,2.56,2.56,0,0,1,2.08.64,2.34,2.34,0,0,1,.47,1.92m-22.44-1.74-4.45.17c-.29,0-.39.21-.43.49s-.08.59-.11.83.09.31.3.3h.38l1.4,0c.11,0,0,0,0,0a2.36,2.36,0,0,0-1.29,1.89c0,.21-.34,2.67-.34,2.67s0,.11,0,.15c0,.24.14.29.23.28l.89,0h.08c.35,0,.45-.11.49-.46.07-.51.54-4.28.58-4.57l1.05,0c.48,0,1-.07,1.32.26s.23.71.16,1.26l-.37,3a.81.81,0,0,0,0,.15c0,.24.13.29.23.28l.89,0h.08c.35,0,.44-.11.49-.46,0-.13.48-3.76.51-4a1.89,1.89,0,0,0-2.08-2.07m25.06-.33c0-.24,0-.66-.48-.64l-.81,0a.43.43,0,0,0-.4.36l-.73,5.88c0,.32.06.44.22.44l1.17,0a.33.33,0,0,0,.31-.29l.1-.7s.23-1.91.43-3.5a.3.3,0,0,0-.34-.37l-1,0h-.1s0,0,0,0c.51-.09,1.48-.53,1.57-1.19m-20.64,1.93-1,0h-.08c.5-.1,1.48-.53,1.56-1.19,0-.25,0-.66-.48-.64l-.81,0a.41.41,0,0,0-.39.35l-.73,5.89c-.06.32.06.44.21.43l1.17,0a.35.35,0,0,0,.32-.29l.09-.7.44-3.51a.31.31,0,0,0-.35-.36m11.31-2.06a5,5,0,0,0-.91-.18,9.43,9.43,0,0,0-1.07,0,5.13,5.13,0,0,0-1,.15,2.8,2.8,0,0,0-.8.37,2.14,2.14,0,0,0-.56.6,2.24,2.24,0,0,0-.28.86,1.38,1.38,0,0,0,.25,1.11,2.47,2.47,0,0,0,1,.69l1,.38a1.92,1.92,0,0,1,.46.27.49.49,0,0,1,.14.43.64.64,0,0,1-.31.49,1.71,1.71,0,0,1-.75.16c-.32,0-.67,0-1.06,0s-.73,0-1-.06h0a.1.1,0,0,0-.11.09c0,.06,0,0,0,0l-.11.93c0,.11,0,.16.13.18a9.56,9.56,0,0,0,1.11.16,8.28,8.28,0,0,0,1.23,0,3.27,3.27,0,0,0,1.85-.56,2,2,0,0,0,.82-1.44,1.54,1.54,0,0,0-.23-1.13,2.26,2.26,0,0,0-1-.73l-1-.4a3.06,3.06,0,0,1-.45-.23.38.38,0,0,1-.14-.41.56.56,0,0,1,.3-.47,1.72,1.72,0,0,1,.69-.13h.88q.45,0,.87.06h.06a.1.1,0,0,0,.1-.09c0-.06,0,0,0,0l.11-.93c0-.12-.08-.16-.14-.18m-5.38,1.35a.1.1,0,0,1-.1.09h-.06c-.28,0-.57-.06-.86-.07h-.89a2.16,2.16,0,0,0-.69.13.56.56,0,0,0-.3.47.41.41,0,0,0,.14.42,3.06,3.06,0,0,0,.45.23l1,.4a2.2,2.2,0,0,1,1,.72,1.57,1.57,0,0,1,.24,1.14,2,2,0,0,1-.83,1.43,3.24,3.24,0,0,1-1.84.57,8.39,8.39,0,0,1-1.24,0,9.54,9.54,0,0,1-1.11-.17c-.1,0-.14-.07-.13-.17l.12-.93v0c0-.06,0-.11.11-.1h0c.31,0,.65.05,1,.06h1.05a1.66,1.66,0,0,0,.75-.17.62.62,0,0,0,.31-.49.49.49,0,0,0-.14-.43,1.75,1.75,0,0,0-.46-.26l-1-.38a2.47,2.47,0,0,1-1.05-.69,1.46,1.46,0,0,1-.25-1.11,2.09,2.09,0,0,1,.29-.86,1.92,1.92,0,0,1,.56-.61,2.35,2.35,0,0,1,.8-.36,3.79,3.79,0,0,1,1-.15,9.6,9.6,0,0,1,1.08,0,3.67,3.67,0,0,1,.9.18c.07,0,.16.06.14.18l-.11.93s0,0,0,0"/><g class="cls-8"><rect class="cls-2" x="-3378.39" y="-3187.1" width="6348.4" height="5052.27"/></g><path class="cls-3" d="M1167.33-688c-.37,0-.45.12-.47.24s0,.15.18.15l.24,0Zm-.35.62c-.32,0-.46-.1-.43-.35s.27-.45.8-.51h0v0c0-.11,0-.16,0-.19s-.07-.05-.14-.05a1,1,0,0,0-.46.17l-.06,0,0-.29h0a1.21,1.21,0,0,1,.54-.17c.2,0,.32.05.37.17a.75.75,0,0,1,0,.31l-.11.83h-.08A2.76,2.76,0,0,1,1167-687.34Z"/><g class="cls-9"><rect class="cls-2" x="-3378.39" y="-3187.1" width="6348.4" height="5052.27"/></g><path class="cls-3" d="M1168.13-688.93l0-.33.34,0,0,.34Zm-.19,1.54.18-1.34h.33l-.18,1.33Z"/><g class="cls-10"><rect class="cls-2" x="-3378.39" y="-3187.1" width="6348.4" height="5052.27"/></g><path class="cls-3" d="M1169-687.4a.8.8,0,0,1-.37-.06h0l0-.32,0,0a.46.46,0,0,0,.31.1c.14,0,.23-.06.24-.14s0-.09-.07-.13L1169-688c-.23-.1-.31-.2-.28-.37a.54.54,0,0,1,.57-.42.65.65,0,0,1,.34.06h0l0,.29,0,0a.46.46,0,0,0-.28-.08c-.13,0-.22.06-.24.14s0,.09.2.17a.6.6,0,0,1,.25.15.29.29,0,0,1,.08.26.55.55,0,0,1-.59.42"/><g class="cls-11"><rect class="cls-2" x="-3378.39" y="-3187.1" width="6348.4" height="5052.27"/></g><path class="cls-3" d="M1171.33-688.61a.51.51,0,0,0-.55.45c0,.28.1.42.38.41a.69.69,0,0,0,.2,0l.11-.83Zm-.09,1.74.08-.66a1,1,0,0,1-.24,0c-.45,0-.68-.21-.62-.62a.87.87,0,0,1,.94-.75,1.89,1.89,0,0,1,.4,0h0l-.26,2Z"/><g class="cls-12"><rect class="cls-2" x="-3378.39" y="-3187.1" width="6348.4" height="5052.27"/></g><path class="cls-3" d="M1172.63-687.56a.59.59,0,0,1-.44-.1c-.09-.08-.11-.18-.08-.39l.11-.83h.32l-.11.81c0,.21,0,.28.27.27l.23,0,.14-1.07.33,0-.17,1.29h0a3.38,3.38,0,0,1-.57.07"/><g class="cls-13"><rect class="cls-2" x="-3378.39" y="-3187.1" width="6348.4" height="5052.27"/></g><path class="cls-3" d="M1174.62-688.5c0-.16-.08-.24-.25-.23a.38.38,0,0,0-.36.25Zm-.37.89c-.44,0-.68-.22-.62-.63a.82.82,0,0,1,.78-.75.48.48,0,0,1,.47.22.62.62,0,0,1,0,.41v.09l-1,0h0c0,.24.12.37.38.36a.83.83,0,0,0,.46-.16l0,0,0,.29h0A1,1,0,0,1,1174.25-687.61Z"/><g class="cls-14"><rect class="cls-2" x="-3378.39" y="-3187.1" width="6348.4" height="5052.27"/></g><path class="cls-3" d="M1175.83-687.7l.14-1h-.22l0-.24h.21v0a.83.83,0,0,1,.26-.58.67.67,0,0,1,.43-.16h.16l0,.25h-.14a.27.27,0,0,0-.23.11.59.59,0,0,0-.13.36v0l.34,0,0,.25h-.34l-.14,1Z"/><g class="cls-15"><rect class="cls-2" x="-3378.39" y="-3187.1" width="6348.4" height="5052.27"/></g><path class="cls-3" d="M1177.49-688.35c-.36,0-.44.12-.46.24s0,.15.18.15a1,1,0,0,0,.24,0Zm-.34.63c-.32,0-.46-.11-.43-.36s.27-.45.8-.51h0v0a.47.47,0,0,0,0-.18s-.07-.06-.15-.06a.87.87,0,0,0-.45.18l-.06,0,0-.29h0a1,1,0,0,1,.54-.16c.19,0,.32,0,.36.16a.58.58,0,0,1,0,.31l-.11.83h-.08Z"/><g class="cls-16"><rect class="cls-2" x="-3378.39" y="-3187.1" width="6348.4" height="5052.27"/></g><path class="cls-3" d="M1178.11-687.78l.17-1.24h0a1.61,1.61,0,0,1,.56-.12.63.63,0,0,1,.24,0h0l0,.27,0,0a.71.71,0,0,0-.21,0,.62.62,0,0,0-.26.06l-.14,1.05Z"/><g class="cls-17"><rect class="cls-2" x="-3378.39" y="-3187.1" width="6348.4" height="5052.27"/></g><path class="cls-3" d="M1180.86-687.89l.11-.83c0-.19,0-.26-.23-.25a.55.55,0,0,0-.24.05.74.74,0,0,1,0,.2l-.11.85h-.33l.11-.83c0-.19,0-.26-.24-.25a.81.81,0,0,0-.25,0l-.14,1.06-.33,0,.17-1.26h0a3,3,0,0,1,.61-.11.77.77,0,0,1,.36.07,1.52,1.52,0,0,1,.46-.1.48.48,0,0,1,.41.13.36.36,0,0,1,.06.34l-.11.86Z"/><g class="cls-18"><rect class="cls-2" x="-3378.39" y="-3187.1" width="6348.4" height="5052.27"/></g><path class="cls-3" d="M1165.81-687.31l.11-.84c0-.19,0-.26-.22-.25a.79.79,0,0,0-.25,0,.65.65,0,0,1,0,.2l-.12.86H1165l.11-.84c0-.19,0-.26-.24-.25a1.32,1.32,0,0,0-.26,0l-.14,1.06h-.32l.16-1.26h0a2,2,0,0,1,.61-.11.6.6,0,0,1,.36.07,1.29,1.29,0,0,1,.45-.11.56.56,0,0,1,.42.13.43.43,0,0,1,.06.34l-.11.86Z"/><g class="cls-19"><rect class="cls-2" x="-3378.39" y="-3187.1" width="6348.4" height="5052.27"/></g><path class="cls-3" d="M1182.05-689.41l.57-.59.3,0-.63.6Zm.27.88c-.37,0-.45.12-.46.24s0,.15.17.15l.24,0Zm-.35.62c-.32,0-.46-.11-.42-.35s.27-.45.8-.51h0c0-.12,0-.16,0-.19s-.06,0-.14,0a.87.87,0,0,0-.46.17l-.06,0,0-.3h0a1.21,1.21,0,0,1,.54-.17c.2,0,.32,0,.37.17a.75.75,0,0,1,0,.31l-.11.83h-.07A3,3,0,0,1,1182-687.91Z"/><g class="cls-20"><rect class="cls-2" x="-3378.39" y="-3187.1" width="6348.4" height="5052.27"/></g><path class="cls-3" d="M1183.55-688c-.43,0-.68-.24-.62-.64a.83.83,0,0,1,.83-.74.7.7,0,0,1,.35.06h0l0,.29,0,0a.47.47,0,0,0-.29-.08.49.49,0,0,0-.5.46.33.33,0,0,0,.38.41.56.56,0,0,0,.34-.12l0,0,0,.29h0a1,1,0,0,1-.42.11"/><g class="cls-21"><rect class="cls-2" x="-3378.39" y="-3187.1" width="6348.4" height="5052.27"/></g><path class="cls-3" d="M1184.43-689.55l0-.33.35,0,0,.34Zm-.19,1.53.17-1.33h.33l-.18,1.33Z"/><g class="cls-22"><rect class="cls-2" x="-3378.39" y="-3187.1" width="6348.4" height="5052.27"/></g><path class="cls-3" d="M1185.7-688.66c-.36,0-.44.12-.46.24s0,.15.17.15l.25,0Zm-.34.62c-.32,0-.46-.1-.43-.35s.27-.45.8-.51h0v0a.55.55,0,0,0,0-.19s-.07,0-.15,0a1,1,0,0,0-.46.17l-.05,0,0-.29h0a1.17,1.17,0,0,1,.54-.17c.19,0,.32,0,.36.17a.57.57,0,0,1,0,.31l-.11.83h-.08A2.86,2.86,0,0,1,1185.36-688Z"/><g class="cls-23"><rect class="cls-2" x="-3378.39" y="-3187.1" width="6348.4" height="5052.27"/></g><path class="cls-3" d="M1154.14-692.94l-.55,3.1a4.37,4.37,0,0,0,2.8-3.19Z"/><g class="cls-24"><rect class="cls-2" x="-3378.39" y="-3187.1" width="6348.4" height="5052.27"/></g><path class="cls-3" d="M1154.52-694.95l1.67-.06a4.13,4.13,0,0,0-1.36-1.75Z"/><g class="cls-25"><rect class="cls-2" x="-3378.39" y="-3187.1" width="6348.4" height="5052.27"/></g><path class="cls-3" d="M1151.75-691.16c.14-.51.31-1.37,1.89-1.71.13,0,.11-.06,0,0l-5.09.19c0-.27.19-1.1.25-1.41.1-.51.36-.61.83-.62l2.78-.11.51-2.77a5.71,5.71,0,0,0-1.5-.15c-2.67.11-4.77,2-4.68,4.36s2.14,3.93,4.67,4Z"/><g class="cls-26"><rect class="cls-2" x="-3378.39" y="-3187.1" width="6348.4" height="5052.27"/></g><polygon class="cls-3" points="1167.76 -607.68 1137.22 -610.09 1137.52 -613.84 1163.99 -611.75 1163.9 -658.89 1167.66 -658.9 1167.76 -607.68"/><g class="cls-27"><rect class="cls-2" x="-3378.39" y="-3187.1" width="6348.4" height="5052.27"/></g><rect class="cls-2" x="1177.91" y="-622.63" width="3.76" height="27.92" transform="translate(1697.72 613.68) rotate(-85.67)"/><g class="cls-28"><rect class="cls-2" x="-3378.39" y="-3187.1" width="6348.4" height="5052.27"/></g><path class="cls-3" d="M1171.43-624.35a1.87,1.87,0,0,1-1.62-.92,1.88,1.88,0,0,1,.65-2.58l1-.61v-1.9l-1.52-1.27a1.89,1.89,0,0,1-.25-2.65,1.89,1.89,0,0,1,2.65-.24l2.2,1.83a1.89,1.89,0,0,1,.68,1.45v3.85a1.86,1.86,0,0,1-.92,1.61l-2,1.16a1.85,1.85,0,0,1-1,.27"/><g class="cls-29"><rect class="cls-2" x="-3378.39" y="-3187.1" width="6348.4" height="5052.27"/></g><path class="cls-3" d="M1159.69-624.89a1.85,1.85,0,0,1-1-.26l-2-1.16a1.89,1.89,0,0,1-.92-1.62v-3.85a1.85,1.85,0,0,1,.67-1.44l2.2-1.83a1.88,1.88,0,0,1,2.65.24,1.88,1.88,0,0,1-.24,2.65l-1.52,1.26v1.9l1,.61a1.88,1.88,0,0,1,.66,2.58,1.89,1.89,0,0,1-1.62.92"/><g class="cls-30"><rect class="cls-2" x="-3378.39" y="-3187.1" width="6348.4" height="5052.27"/></g><path class="cls-2" d="M850.75-234.22H767.23L802.79-268a3.29,3.29,0,0,0,0-4.93,3.71,3.71,0,0,0-5.19,0l-42,39.81a3.29,3.29,0,0,0,0,4.93l41.85,39.81a3.7,3.7,0,0,0,5.18,0,3.28,3.28,0,0,0,0-4.93l-35.37-33.82h83.52a3.64,3.64,0,0,0,3.71-3.53A3.63,3.63,0,0,0,850.75-234.22Z"/><g class="cls-31"><rect class="cls-2" x="54.46" y="-2967.36" width="9600" height="25640"/></g><path class="cls-2" d="M610.16-234.22h83.52L658.12-268a3.29,3.29,0,0,1,0-4.93,3.71,3.71,0,0,1,5.19,0l42,39.81a3.29,3.29,0,0,1,0,4.93l-41.86,39.81a3.7,3.7,0,0,1-5.18,0,3.29,3.29,0,0,1,0-4.93l35.37-33.82H610.16a3.63,3.63,0,0,1-3.7-3.53A3.62,3.62,0,0,1,610.16-234.22Z"/><g class="cls-32"><rect class="cls-2" x="-8193.54" y="-2967.36" width="9600" height="25640"/></g><path class="cls-2" d="M115.35,12.65a7.5,7.5,0,0,0-10.61,0L12.65,104.74a7.5,7.5,0,1,0,10.61,10.61l92.09-92.09A7.5,7.5,0,0,0,115.35,12.65Z"/><path class="cls-2" d="M10.59,76.48a121.37,121.37,0,0,0,11.43,9L39.71,67.78A24.64,24.64,0,0,1,64,39.37a23.47,23.47,0,0,1,3.86.29L78,29.46c-14-3.33-27.84-1.65-41.61,4.74C23.25,40.31,12.06,49.09,2.19,59.66c-.26.29-.51.59-.76.89-1.86,2.24-2,4.7,0,6.83C4.41,70.51,7.38,73.64,10.59,76.48Z"/><path class="cls-2" d="M125.59,59.47a117.43,117.43,0,0,0-19.55-17L88.33,60.18a24.3,24.3,0,0,1,.29,3.74A24.56,24.56,0,0,1,64.07,88.57a23.35,23.35,0,0,1-3.85-.29L50,98.48a58.63,58.63,0,0,0,11.57,1.6,5.94,5.94,0,0,1,.94.15H65.3c2-.19,4-.34,6-.56A67.36,67.36,0,0,0,93.21,93a109.34,109.34,0,0,0,33.43-25.68A13.14,13.14,0,0,0,128,65V62.91A29.33,29.33,0,0,0,125.59,59.47Z"/></svg>