<svg id="Layer_1" data-name="Layer 1" xmlns="http://www.w3.org/2000/svg" xmlns:xlink="http://www.w3.org/1999/xlink" viewBox="0 0 128 128"><defs><style>.cls-1{fill:#8a9297;}.cls-2{clip-path:url(#clip-path);}.cls-3{fill:url(#linear-gradient);}.cls-4{fill:url(#linear-gradient-2);}.cls-5{fill:url(#linear-gradient-3);}.cls-6{fill:url(#linear-gradient-4);}.cls-7{fill:url(#linear-gradient-5);}.cls-8{fill:url(#linear-gradient-6);}.cls-9{fill:url(#linear-gradient-7);}.cls-10{fill:url(#linear-gradient-8);}.cls-11{fill:url(#linear-gradient-9);}.cls-12{fill:url(#linear-gradient-10);}.cls-13{fill:url(#linear-gradient-11);}.cls-14{fill:url(#linear-gradient-12);}.cls-15{fill:url(#linear-gradient-13);}.cls-16{fill:url(#linear-gradient-14);}.cls-17{fill:url(#linear-gradient-15);}.cls-18{fill:url(#linear-gradient-16);}.cls-19{fill:url(#linear-gradient-17);}.cls-20{fill:url(#linear-gradient-18);}</style><clipPath id="clip-path"><path class="cls-1" d="M757.7-1421.19h83.52L805.67-1455a3.29,3.29,0,0,1,0-4.93,3.7,3.7,0,0,1,5.18,0l42,39.81a3.29,3.29,0,0,1,0,4.93L811-1375.4a3.71,3.71,0,0,1-5.19,0,3.29,3.29,0,0,1,0-4.93l35.37-33.82H757.7a3.62,3.62,0,0,1-3.7-3.52A3.62,3.62,0,0,1,757.7-1421.19Z"/></clipPath><linearGradient id="linear-gradient" x1="64" y1="108.14" x2="64" y2="19.86" gradientUnits="userSpaceOnUse"><stop offset="0" stop-color="#083050"/><stop offset="1" stop-color="#3d85c6"/></linearGradient><linearGradient id="linear-gradient-2" x1="42.21" y1="73.63" x2="42.21" y2="67.07" xlink:href="#linear-gradient"/><linearGradient id="linear-gradient-3" x1="16.59" y1="84.53" x2="16.59" y2="79.35" xlink:href="#linear-gradient"/><linearGradient id="linear-gradient-4" x1="22.64" y1="84.53" x2="22.64" y2="79.35" xlink:href="#linear-gradient"/><linearGradient id="linear-gradient-5" x1="28.7" y1="84.53" x2="28.7" y2="79.35" xlink:href="#linear-gradient"/><linearGradient id="linear-gradient-6" x1="34.75" y1="84.53" x2="34.75" y2="79.35" xlink:href="#linear-gradient"/><linearGradient id="linear-gradient-7" x1="42.14" y1="84.53" x2="42.14" y2="79.35" xlink:href="#linear-gradient"/><linearGradient id="linear-gradient-8" x1="48.2" y1="84.53" x2="48.2" y2="79.35" xlink:href="#linear-gradient"/><linearGradient id="linear-gradient-9" x1="54.25" y1="84.53" x2="54.25" y2="79.35" xlink:href="#linear-gradient"/><linearGradient id="linear-gradient-10" x1="60.3" y1="84.53" x2="60.3" y2="79.35" xlink:href="#linear-gradient"/><linearGradient id="linear-gradient-11" x1="67.7" y1="84.53" x2="67.7" y2="79.35" xlink:href="#linear-gradient"/><linearGradient id="linear-gradient-12" x1="73.75" y1="84.53" x2="73.75" y2="79.35" xlink:href="#linear-gradient"/><linearGradient id="linear-gradient-13" x1="79.8" y1="84.53" x2="79.8" y2="79.35" xlink:href="#linear-gradient"/><linearGradient id="linear-gradient-14" x1="85.86" y1="84.53" x2="85.86" y2="79.35" xlink:href="#linear-gradient"/><linearGradient id="linear-gradient-15" x1="93.25" y1="84.53" x2="93.25" y2="79.35" xlink:href="#linear-gradient"/><linearGradient id="linear-gradient-16" x1="99.3" y1="84.53" x2="99.3" y2="79.35" xlink:href="#linear-gradient"/><linearGradient id="linear-gradient-17" x1="105.36" y1="84.53" x2="105.36" y2="79.35" xlink:href="#linear-gradient"/><linearGradient id="linear-gradient-18" x1="111.41" y1="84.53" x2="111.41" y2="79.35" xlink:href="#linear-gradient"/></defs><title>icon</title><path class="cls-1" d="M757.7-1421.19h83.52L805.67-1455a3.29,3.29,0,0,1,0-4.93,3.7,3.7,0,0,1,5.18,0l42,39.81a3.29,3.29,0,0,1,0,4.93L811-1375.4a3.71,3.71,0,0,1-5.19,0,3.29,3.29,0,0,1,0-4.93l35.37-33.82H757.7a3.62,3.62,0,0,1-3.7-3.52A3.62,3.62,0,0,1,757.7-1421.19Z"/><g class="cls-2"><rect class="cls-1" x="-8046" y="-4154.34" width="9600" height="25640"/></g><path class="cls-3" d="M109,19.86H19a15,15,0,0,0-15,15v5.2H4V51.63H4V93.14a15,15,0,0,0,15,15h90a15,15,0,0,0,15-15V34.86A15,15,0,0,0,109,19.86Zm-98,15a8,8,0,0,1,8-8h90a8,8,0,0,1,8,8v5.2H11Zm98,66.28H19a8,8,0,0,1-8-8V51.63H117V93.14A8,8,0,0,1,109,101.14Z"/><rect class="cls-4" x="14" y="67.07" width="56.43" height="6.56"/><rect class="cls-5" x="14" y="79.35" width="5.18" height="5.18"/><rect class="cls-6" x="20.05" y="79.35" width="5.18" height="5.18"/><rect class="cls-7" x="26.11" y="79.35" width="5.18" height="5.18"/><rect class="cls-8" x="32.16" y="79.35" width="5.18" height="5.18"/><rect class="cls-9" x="39.55" y="79.35" width="5.18" height="5.18"/><rect class="cls-10" x="45.61" y="79.35" width="5.18" height="5.18"/><rect class="cls-11" x="51.66" y="79.35" width="5.18" height="5.18"/><rect class="cls-12" x="57.71" y="79.35" width="5.18" height="5.18"/><rect class="cls-13" x="65.11" y="79.35" width="5.18" height="5.18"/><rect class="cls-14" x="71.16" y="79.35" width="5.18" height="5.18"/><rect class="cls-15" x="77.21" y="79.35" width="5.18" height="5.18"/><rect class="cls-16" x="83.27" y="79.35" width="5.18" height="5.18"/><rect class="cls-17" x="90.66" y="79.35" width="5.18" height="5.18"/><rect class="cls-18" x="96.71" y="79.35" width="5.18" height="5.18"/><rect class="cls-19" x="102.77" y="79.35" width="5.18" height="5.18"/><rect class="cls-20" x="108.82" y="79.35" width="5.18" height="5.18"/></svg>