<svg id="Layer_1" data-name="Layer 1" xmlns="http://www.w3.org/2000/svg" xmlns:xlink="http://www.w3.org/1999/xlink" viewBox="0 0 127.75 127.75"><defs><style>.cls-1,.cls-2,.cls-4{fill:#8a9297;}.cls-1{clip-rule:evenodd;}.cls-3{fill:none;}.cls-4{fill-rule:evenodd;}.cls-5{clip-path:url(#clip-path);}.cls-6{clip-path:url(#clip-path-2);}.cls-7{clip-path:url(#clip-path-3);}.cls-8{isolation:isolate;}.cls-9{clip-path:url(#clip-path-4);}.cls-10{clip-path:url(#clip-path-5);}.cls-11{clip-path:url(#clip-path-6);}.cls-12{clip-path:url(#clip-path-7);}.cls-13{clip-path:url(#clip-path-8);}.cls-14{clip-path:url(#clip-path-9);}.cls-15{clip-path:url(#clip-path-10);}.cls-16{clip-path:url(#clip-path-11);}.cls-17{clip-path:url(#clip-path-12);}.cls-18{clip-path:url(#clip-path-13);}.cls-19{clip-path:url(#clip-path-14);}.cls-20{clip-path:url(#clip-path-15);}.cls-21{clip-path:url(#clip-path-16);}.cls-22{clip-path:url(#clip-path-17);}.cls-23{clip-path:url(#clip-path-18);}.cls-24{clip-path:url(#clip-path-19);}.cls-25{clip-path:url(#clip-path-20);}.cls-26{clip-path:url(#clip-path-21);}.cls-27{clip-path:url(#clip-path-22);}.cls-28{clip-path:url(#clip-path-23);}.cls-29{clip-path:url(#clip-path-24);}.cls-30{clip-path:url(#clip-path-25);}.cls-31{clip-path:url(#clip-path-26);}.cls-32{clip-path:url(#clip-path-27);}.cls-33{clip-path:url(#clip-path-28);}.cls-34{clip-path:url(#clip-path-29);}.cls-35{clip-path:url(#clip-path-30);}.cls-36{clip-path:url(#clip-path-31);}.cls-37{clip-path:url(#clip-path-32);}.cls-38{clip-path:url(#clip-path-33);}</style><clipPath id="clip-path"><path class="cls-1" d="M97.24-21h-.16l-11-.92a1.87,1.87,0,0,1-1.72-1.87V-68.17a6.43,6.43,0,0,0-1.71-4.91,6.66,6.66,0,0,0-4.5-1.45,1.08,1.08,0,0,1-.18,0L30.43-75v46.9a1.91,1.91,0,0,1-.6,1.39,2,2,0,0,1-1.43.49L19.15-27a1.89,1.89,0,0,1-1.73-1.9c0-.29.28-29.76.22-36.75A14.71,14.71,0,0,1,21-75h-5.9a3.57,3.57,0,0,1-3.26-2.66,1.71,1.71,0,0,1-.09-.55v-6.09c0-3.06,1.89-4.32,3-4.58a1.84,1.84,0,0,1,.41,0l67.22-.92.26,0c15.86,2,16.65,15.93,16.66,16.07v.09l-.18,50.73a1.88,1.88,0,0,1-.61,1.38A1.9,1.9,0,0,1,97.24-21Zm-9.11-4.53,7.23.6.18-48.64c-.05-.78-1-10.83-13.25-12.45l-66.61.9a1.74,1.74,0,0,0-.17.88v5.53H25.62a1.88,1.88,0,0,1,1.43.66l.18-.2a1.84,1.84,0,0,1,1.34-.55L78-78.29a10.39,10.39,0,0,1,7.23,2.42c1.95,1.79,2.95,4.38,2.95,7.7ZM21.2-30.62l5.47.44V-75.3h0c-.05,0-5.32,3.68-5.27,9.62S21.26-37.1,21.2-30.62Z"/></clipPath><clipPath id="clip-path-2"><rect class="cls-2" x="-4486.03" y="-2604.97" width="6348.4" height="5052.27"/></clipPath><clipPath id="clip-path-3"><path class="cls-1" d="M102.35-24.51H98.59V-74.13c-.09-1-1.31-11.31-12-12.12L86.85-90c11.42.87,15.13,10.63,15.5,15.66v49.84Z"/></clipPath><clipPath id="clip-path-4"><path class="cls-1" d="M97.24-21a1.87,1.87,0,0,1-1.68-1,1.88,1.88,0,0,1,.83-2.53l21.19-10.65v-75.42l-14.3-4.77-12,.38h-.08l-4.64-.07a1.88,1.88,0,0,1-1.86-1.9,1.9,1.9,0,0,1,1.91-1.86l4.59.06,12.26-.39a1.82,1.82,0,0,1,.66.09l15.9,5.31a1.89,1.89,0,0,1,1.29,1.79V-34.1a1.88,1.88,0,0,1-1,1.68L98.08-21.25a1.83,1.83,0,0,1-.84.21"/></clipPath><clipPath id="clip-path-5"><rect class="cls-2" x="81.29" y="-122.93" width="44.09" height="105.81"/></clipPath><clipPath id="clip-path-6"><path class="cls-1" d="M22.75-92a1.88,1.88,0,0,1-1.88-1.87l-.12-19.84a1.87,1.87,0,0,1,1.82-1.89l9.65-.31h.09l3.42.06A1.89,1.89,0,0,1,37.58-114a1.89,1.89,0,0,1-1.92,1.85l-3.37-.06-7.77.24.11,18A1.87,1.87,0,0,1,22.76-92Z"/></clipPath><clipPath id="clip-path-7"><path class="cls-1" d="M38.39-99.13h-.46a5,5,0,0,1-4.15-1.76,4.58,4.58,0,0,1-.81-3.49l.84-9.68c-.08-2.54.62-4.44,2.07-5.66a6,6,0,0,1,4.69-1.19l41.85-2,.23.05c2.51.51,4.26,1.53,5.19,3a4.48,4.48,0,0,1,.64,3.1c-.11,1.41-.78,9.74-1.45,12.36a5.76,5.76,0,0,1-4.77,4.33h-.18c-1.59,0-37.92.92-43.69.92m1.2-18.09a2,2,0,0,0-1.31.4,3.61,3.61,0,0,0-.7,2.73v.12l-.91,10.28a.85.85,0,0,0,.08.5,1.86,1.86,0,0,0,1.23.3c3.66.07,41.36-.85,43.88-.91a2,2,0,0,0,1.53-1.52c.51-2,1.15-9.23,1.35-11.83l0-.31c0-.55-.81-1.27-2.65-1.69l-41.83,2-.23-.05a2.33,2.33,0,0,0-.48,0"/></clipPath><clipPath id="clip-path-8"><path class="cls-1" d="M75.06-114a1.12,1.12,0,0,0-.92-.27,1.62,1.62,0,0,0-1,.4,2.1,2.1,0,0,0-.61,1.23,1.06,1.06,0,0,0,0,.18l2-.06c.5,0,.79-.17.86-.61a1,1,0,0,0-.21-.87m1.84,1a1.43,1.43,0,0,1-.61,1.07,2.74,2.74,0,0,1-1.42.41,9.29,9.29,0,0,1-1.86,0c-.39-.07-.51-.65-.56-.81a3.89,3.89,0,0,0-.08,1.09,1.17,1.17,0,0,0,.5,1,2.16,2.16,0,0,0,1.22.24l1-.07c.34,0,.53-.07.81-.12h0c.06,0,.14,0,.12.12l-.1.82a.17.17,0,0,1-.11.14,8.64,8.64,0,0,1-1.06.25c-.38.06-.74.09-1.08.11a4.64,4.64,0,0,1-1.53-.16,2,2,0,0,1-1-.59,2.08,2.08,0,0,1-.46-1,4.76,4.76,0,0,1,0-1.37l0-.4a3.83,3.83,0,0,1,1-2.33,3.65,3.65,0,0,1,2.5-.93,2.58,2.58,0,0,1,2.08.64A2.36,2.36,0,0,1,76.9-113m-22.44-1.74-4.45.17c-.29,0-.39.2-.43.49s-.08.58-.11.82.09.32.3.31l.38,0,1.4,0c.12,0,.05,0,0,0a2.36,2.36,0,0,0-1.29,1.89c0,.22-.33,2.67-.33,2.67a.89.89,0,0,0,0,.15c0,.24.14.29.23.28l.89,0h.08c.35,0,.45-.11.49-.46.07-.51.54-4.28.58-4.57l1.05,0c.48,0,1-.07,1.33.26s.22.71.15,1.26l-.37,3a.86.86,0,0,0,0,.16c0,.23.14.28.23.28l.89,0h.08c.35,0,.45-.11.49-.47,0-.13.48-3.76.51-4a1.87,1.87,0,0,0-2.08-2.07m25.06-.34c0-.24,0-.66-.48-.64l-.81,0a.44.44,0,0,0-.4.36l-.73,5.88c0,.33.06.44.22.44l1.17-.05a.33.33,0,0,0,.32-.28l.09-.71s.23-1.91.43-3.5a.31.31,0,0,0-.34-.37l-1,0h-.1s0,0,0,0c.51-.1,1.49-.54,1.57-1.2m-20.64,1.93-1,0h-.08c.5-.09,1.48-.53,1.56-1.19,0-.24,0-.66-.47-.64l-.81,0a.42.42,0,0,0-.4.35L57-108.66c0,.32.06.44.21.43l1.17,0a.34.34,0,0,0,.32-.29l.09-.7s.24-1.92.44-3.5a.31.31,0,0,0-.35-.37m11.31-2.05a3.67,3.67,0,0,0-.9-.18,6.44,6.44,0,0,0-1.08,0,4.29,4.29,0,0,0-1,.14,2.57,2.57,0,0,0-.8.37,2,2,0,0,0-.57.6,2.24,2.24,0,0,0-.28.86,1.45,1.45,0,0,0,.25,1.12,2.47,2.47,0,0,0,1,.69l1,.38a1.75,1.75,0,0,1,.46.26.49.49,0,0,1,.14.43.64.64,0,0,1-.31.49,1.58,1.58,0,0,1-.75.16c-.32,0-.67,0-1.06,0s-.73,0-1-.06h0a.1.1,0,0,0-.11.09v0l-.12.93a.14.14,0,0,0,.13.18c.35.07.73.13,1.11.17s.8,0,1.24,0a3.24,3.24,0,0,0,1.84-.57,2,2,0,0,0,.82-1.44,1.54,1.54,0,0,0-.23-1.13,2.25,2.25,0,0,0-1-.72l-1-.41a2.32,2.32,0,0,1-.45-.23.39.39,0,0,1-.14-.41.56.56,0,0,1,.3-.47,1.72,1.72,0,0,1,.69-.13c.29,0,.59,0,.89,0a8.09,8.09,0,0,1,.86.07h.06a.12.12,0,0,0,.1-.1s0,0,0,0l.11-.93c0-.11-.07-.15-.14-.17m-5.38,1.34a.1.1,0,0,1-.09.09h-.07c-.28,0-.57,0-.86-.06h-.88a1.69,1.69,0,0,0-.69.13.55.55,0,0,0-.31.47.4.4,0,0,0,.15.41,2.29,2.29,0,0,0,.45.23l1,.4a2.14,2.14,0,0,1,1,.72,1.58,1.58,0,0,1,.24,1.14,2,2,0,0,1-.83,1.43,3.24,3.24,0,0,1-1.84.57,8.25,8.25,0,0,1-1.23,0c-.39,0-.77-.09-1.12-.16a.14.14,0,0,1-.13-.18l.12-.93v0a.09.09,0,0,1,.11-.09h0c.31,0,.66,0,1,.06h1a1.61,1.61,0,0,0,.76-.17.62.62,0,0,0,.3-.49.47.47,0,0,0-.14-.42,1.51,1.51,0,0,0-.46-.27l-1-.38a2.47,2.47,0,0,1-1-.69,1.46,1.46,0,0,1-.25-1.11,2.24,2.24,0,0,1,.29-.86,1.89,1.89,0,0,1,.56-.6,2.36,2.36,0,0,1,.8-.37,5,5,0,0,1,1-.15,9.6,9.6,0,0,1,1.08,0,4.93,4.93,0,0,1,.9.18c.07,0,.16.06.14.18l-.11.93s0,0,0,0"/></clipPath><clipPath id="clip-path-9"><path class="cls-1" d="M59.68-105.84c-.37,0-.45.12-.46.24s0,.15.17.15a1,1,0,0,0,.24,0Zm-.35.63c-.32,0-.46-.11-.43-.36s.28-.45.81-.51h0v0c0-.11,0-.16,0-.18s-.06-.06-.14-.06a.9.9,0,0,0-.46.18l-.06,0,0-.29h0a1.18,1.18,0,0,1,.54-.16c.2,0,.32,0,.37.16a.76.76,0,0,1,0,.31l-.11.83h-.08Z"/></clipPath><clipPath id="clip-path-10"><path class="cls-1" d="M60.49-106.8l0-.34h.34l0,.33Zm-.19,1.53.17-1.33.33,0-.18,1.34Z"/></clipPath><clipPath id="clip-path-11"><path class="cls-1" d="M61.34-105.28a.74.74,0,0,1-.36-.06h0l0-.32,0,0a.42.42,0,0,0,.31.1c.14,0,.23-.06.24-.14s0-.09-.07-.13l-.16-.08c-.24-.1-.31-.2-.29-.37a.54.54,0,0,1,.57-.42.76.76,0,0,1,.34.06h0l0,.29,0,0a.46.46,0,0,0-.28-.08c-.13,0-.22.06-.23.14s0,.09.19.17a.73.73,0,0,1,.25.15.26.26,0,0,1,.08.26.55.55,0,0,1-.59.42"/></clipPath><clipPath id="clip-path-12"><path class="cls-1" d="M63.68-106.49a.5.5,0,0,0-.54.46c0,.27.09.41.37.4a.69.69,0,0,0,.2,0l.11-.83Zm-.09,1.75.09-.67-.25,0c-.44,0-.68-.22-.62-.63a.88.88,0,0,1,.94-.75l.4,0h0l-.26,2Z"/></clipPath><clipPath id="clip-path-13"><path class="cls-1" d="M65-105.43a.65.65,0,0,1-.44-.11c-.09-.07-.11-.18-.08-.39l.11-.83h.32l-.1.81c0,.22,0,.28.26.27a.91.91,0,0,0,.23,0l.14-1.07.33,0-.17,1.29h0a3.51,3.51,0,0,1-.57.08"/></clipPath><clipPath id="clip-path-14"><path class="cls-1" d="M67-106.38a.22.22,0,0,0-.26-.23.39.39,0,0,0-.36.25Zm-.38.9c-.44,0-.68-.22-.62-.64a.81.81,0,0,1,.78-.74.47.47,0,0,1,.47.21.57.57,0,0,1,0,.41v.09l-1,0v0c0,.23.12.36.38.35a.76.76,0,0,0,.46-.16l0,0,0,.29h0A1.06,1.06,0,0,1,66.6-105.48Z"/></clipPath><clipPath id="clip-path-15"><path class="cls-1" d="M68.19-105.57l.13-1.05h-.21l0-.24h.22v0a.83.83,0,0,1,.26-.58.76.76,0,0,1,.43-.16h.16l0,.25H69a.3.3,0,0,0-.23.11.54.54,0,0,0-.12.36v0H69l0,.24h-.34l-.14,1.06Z"/></clipPath><clipPath id="clip-path-16"><path class="cls-1" d="M69.85-106.23c-.37,0-.45.13-.47.25s0,.15.18.14l.24,0Zm-.35.63c-.32,0-.46-.11-.43-.36s.27-.45.8-.51h0c0-.12,0-.17,0-.19s-.07-.06-.14,0a.77.77,0,0,0-.46.17l-.06,0,0-.29h0a1.32,1.32,0,0,1,.54-.16c.2,0,.32,0,.36.16a.62.62,0,0,1,0,.32l-.11.83H70A4.11,4.11,0,0,1,69.5-105.6Z"/></clipPath><clipPath id="clip-path-17"><path class="cls-1" d="M70.46-105.66l.17-1.24h0a1.87,1.87,0,0,1,.56-.12.69.69,0,0,1,.25,0h0l0,.27,0,0a.71.71,0,0,0-.21,0,.82.82,0,0,0-.26.06l-.14,1Z"/></clipPath><clipPath id="clip-path-18"><path class="cls-1" d="M73.21-105.76l.11-.84c0-.19,0-.26-.22-.25a.74.74,0,0,0-.25,0,.74.74,0,0,1,0,.2l-.11.85-.33,0,.11-.84c0-.19,0-.26-.24-.25a1.29,1.29,0,0,0-.25,0l-.14,1.07h-.32l.16-1.26h0a2.13,2.13,0,0,1,.61-.11.58.58,0,0,1,.36.07,1.29,1.29,0,0,1,.46-.11.52.52,0,0,1,.41.13.39.39,0,0,1,.07.34l-.12.86Z"/></clipPath><clipPath id="clip-path-19"><path class="cls-1" d="M58.16-105.19l.11-.83c0-.2,0-.26-.22-.26a1.38,1.38,0,0,0-.25,0,.66.66,0,0,1,0,.2l-.12.86h-.32l.11-.83c0-.2,0-.26-.24-.26a1.11,1.11,0,0,0-.25,0l-.14,1.06h-.33l.17-1.25h0a2.39,2.39,0,0,1,.61-.11.58.58,0,0,1,.36.07,1.08,1.08,0,0,1,.45-.1.56.56,0,0,1,.42.12.42.42,0,0,1,.06.35l-.11.86Z"/></clipPath><clipPath id="clip-path-20"><path class="cls-1" d="M74.41-107.29l.56-.59.3,0-.63.6Zm.26.88c-.37,0-.45.12-.46.24s0,.15.17.15a.9.9,0,0,0,.24,0Zm-.35.62c-.31,0-.46-.1-.42-.35s.27-.45.8-.51h0v0a.43.43,0,0,0,0-.19s-.07,0-.15,0a1,1,0,0,0-.46.17l0,0,0-.29h0a1.1,1.1,0,0,1,.54-.16c.2,0,.32,0,.37.16a.75.75,0,0,1,0,.31l-.11.83h-.07A3,3,0,0,1,74.32-105.79Z"/></clipPath><clipPath id="clip-path-21"><path class="cls-1" d="M75.91-105.84c-.44,0-.69-.24-.63-.64a.83.83,0,0,1,.83-.74,1,1,0,0,1,.35.06h0l0,.3,0,0a.37.37,0,0,0-.29-.08.49.49,0,0,0-.5.45.33.33,0,0,0,.38.41.62.62,0,0,0,.34-.11l.05,0,0,.29h0a1,1,0,0,1-.41.11"/></clipPath><clipPath id="clip-path-22"><path class="cls-1" d="M76.78-107.42l0-.34h.35l0,.33Zm-.19,1.53.17-1.33.33,0-.18,1.34Z"/></clipPath><clipPath id="clip-path-23"><path class="cls-1" d="M78.06-106.54c-.37,0-.45.12-.47.24s0,.15.18.15a1,1,0,0,0,.24,0Zm-.35.63c-.32,0-.46-.11-.43-.36s.27-.45.8-.51h0v0c0-.11,0-.16,0-.18S78-107,78-107a.87.87,0,0,0-.46.18l-.06,0,0-.29h0a1,1,0,0,1,.54-.16c.2,0,.32,0,.36.16a.58.58,0,0,1,0,.31l-.11.83h-.08Z"/></clipPath><clipPath id="clip-path-24"><path class="cls-1" d="M46.49-110.82l-.55,3.11a4.39,4.39,0,0,0,2.8-3.19Z"/></clipPath><clipPath id="clip-path-25"><path class="cls-1" d="M46.87-112.83l1.67-.06a4.08,4.08,0,0,0-1.35-1.74Z"/></clipPath><clipPath id="clip-path-26"><path class="cls-1" d="M44.11-109c.13-.51.3-1.37,1.88-1.71.13,0,.11-.06,0,0l-5.09.19c0-.27.19-1.1.25-1.41.1-.5.36-.6.83-.62l2.78-.11.51-2.77a5.67,5.67,0,0,0-1.5-.14c-2.67.1-4.77,2-4.68,4.35s2.14,3.93,4.67,4Z"/></clipPath><clipPath id="clip-path-27"><polygon class="cls-1" points="60.11 -25.56 29.57 -27.96 29.87 -31.71 56.34 -29.63 56.25 -76.77 60.01 -76.78 60.11 -25.56"/></clipPath><clipPath id="clip-path-28"><rect class="cls-2" x="70.26" y="-40.5" width="3.76" height="27.92" transform="translate(93.17 47.4) rotate(-85.67)"/></clipPath><clipPath id="clip-path-29"><path class="cls-1" d="M63.78-42.23a1.87,1.87,0,0,1-1.62-.92,1.89,1.89,0,0,1,.65-2.58l1-.61v-1.9L62.33-49.5a1.88,1.88,0,0,1-.24-2.65,1.88,1.88,0,0,1,2.65-.24l2.19,1.83a1.86,1.86,0,0,1,.68,1.44v3.85a1.89,1.89,0,0,1-.92,1.62l-2,1.16a1.9,1.9,0,0,1-1,.26"/></clipPath><clipPath id="clip-path-30"><path class="cls-1" d="M52-42.77a1.85,1.85,0,0,1-1-.26l-1.95-1.16a1.88,1.88,0,0,1-.92-1.62v-3.85a1.89,1.89,0,0,1,.68-1.44l2.19-1.83a1.88,1.88,0,0,1,2.65.24A1.88,1.88,0,0,1,53.49-50L52-48.77v1.89l1,.61a1.88,1.88,0,0,1,.66,2.58,1.89,1.89,0,0,1-1.62.92"/></clipPath><clipPath id="clip-path-31"><path class="cls-2" d="M-256.9,347.9h-83.51l35.55-33.82a3.29,3.29,0,0,0,0-4.93,3.7,3.7,0,0,0-5.18,0l-42,39.81a3.29,3.29,0,0,0,0,4.93l41.85,39.81a3.71,3.71,0,0,0,5.19,0,3.29,3.29,0,0,0,0-4.93L-340.41,355h83.51a3.63,3.63,0,0,0,3.71-3.52A3.64,3.64,0,0,0-256.9,347.9Z"/></clipPath><clipPath id="clip-path-32"><path class="cls-2" d="M-497.49,347.9H-414l-35.56-33.82a3.29,3.29,0,0,1,0-4.93,3.71,3.71,0,0,1,5.19,0l42,39.81a3.29,3.29,0,0,1,0,4.93l-41.85,39.81a3.71,3.71,0,0,1-5.19,0,3.29,3.29,0,0,1,0-4.93L-414,355h-83.52a3.62,3.62,0,0,1-3.7-3.52A3.63,3.63,0,0,1-497.49,347.9Z"/></clipPath><clipPath id="clip-path-33"><rect class="cls-3" x="-0.12" y="-0.12" width="128" height="128"/></clipPath></defs><title>icons</title><path class="cls-4" d="M97.24-21h-.16l-11-.92a1.87,1.87,0,0,1-1.72-1.87V-68.17a6.43,6.43,0,0,0-1.71-4.91,6.66,6.66,0,0,0-4.5-1.45,1.08,1.08,0,0,1-.18,0L30.43-75v46.9a1.91,1.91,0,0,1-.6,1.39,2,2,0,0,1-1.43.49L19.15-27a1.89,1.89,0,0,1-1.73-1.9c0-.29.28-29.76.22-36.75A14.71,14.71,0,0,1,21-75h-5.9a3.57,3.57,0,0,1-3.26-2.66,1.71,1.71,0,0,1-.09-.55v-6.09c0-3.06,1.89-4.32,3-4.58a1.84,1.84,0,0,1,.41,0l67.22-.92.26,0c15.86,2,16.65,15.93,16.66,16.07v.09l-.18,50.73a1.88,1.88,0,0,1-.61,1.38A1.9,1.9,0,0,1,97.24-21Zm-9.11-4.53,7.23.6.18-48.64c-.05-.78-1-10.83-13.25-12.45l-66.61.9a1.74,1.74,0,0,0-.17.88v5.53H25.62a1.88,1.88,0,0,1,1.43.66l.18-.2a1.84,1.84,0,0,1,1.34-.55L78-78.29a10.39,10.39,0,0,1,7.23,2.42c1.95,1.79,2.95,4.38,2.95,7.7ZM21.2-30.62l5.47.44V-75.3h0c-.05,0-5.32,3.68-5.27,9.62S21.26-37.1,21.2-30.62Z"/><g class="cls-5"><rect class="cls-2" x="-4486.03" y="-2604.97" width="6348.4" height="5052.27"/><g class="cls-6"><rect class="cls-2" x="-10.3" y="-111.87" width="131.64" height="112.87"/></g></g><path class="cls-4" d="M102.35-24.51H98.59V-74.13c-.09-1-1.31-11.31-12-12.12L86.85-90c11.42.87,15.13,10.63,15.5,15.66v49.84Z"/><g class="cls-7"><rect class="cls-2" x="-4486.03" y="-2604.97" width="6348.4" height="5052.27"/></g><g class="cls-8"><path class="cls-4" d="M97.24-21a1.87,1.87,0,0,1-1.68-1,1.88,1.88,0,0,1,.83-2.53l21.19-10.65v-75.42l-14.3-4.77-12,.38h-.08l-4.64-.07a1.88,1.88,0,0,1-1.86-1.9,1.9,1.9,0,0,1,1.91-1.86l4.59.06,12.26-.39a1.82,1.82,0,0,1,.66.09l15.9,5.31a1.89,1.89,0,0,1,1.29,1.79V-34.1a1.88,1.88,0,0,1-1,1.68L98.08-21.25a1.83,1.83,0,0,1-.84.21"/><g class="cls-9"><rect class="cls-2" x="81.29" y="-122.93" width="44.09" height="105.81"/><g class="cls-10"><rect class="cls-2" x="62.69" y="-141.27" width="80.7" height="142.27"/></g></g></g><path class="cls-4" d="M22.75-92a1.88,1.88,0,0,1-1.88-1.87l-.12-19.84a1.87,1.87,0,0,1,1.82-1.89l9.65-.31h.09l3.42.06A1.89,1.89,0,0,1,37.58-114a1.89,1.89,0,0,1-1.92,1.85l-3.37-.06-7.77.24.11,18A1.87,1.87,0,0,1,22.76-92Z"/><g class="cls-11"><rect class="cls-2" x="-4486.03" y="-2604.97" width="6348.4" height="5052.27"/></g><path class="cls-4" d="M38.39-99.13h-.46a5,5,0,0,1-4.15-1.76,4.58,4.58,0,0,1-.81-3.49l.84-9.68c-.08-2.54.62-4.44,2.07-5.66a6,6,0,0,1,4.69-1.19l41.85-2,.23.05c2.51.51,4.26,1.53,5.19,3a4.48,4.48,0,0,1,.64,3.1c-.11,1.41-.78,9.74-1.45,12.36a5.76,5.76,0,0,1-4.77,4.33h-.18c-1.59,0-37.92.92-43.69.92m1.2-18.09a2,2,0,0,0-1.31.4,3.61,3.61,0,0,0-.7,2.73v.12l-.91,10.28a.85.85,0,0,0,.08.5,1.86,1.86,0,0,0,1.23.3c3.66.07,41.36-.85,43.88-.91a2,2,0,0,0,1.53-1.52c.51-2,1.15-9.23,1.35-11.83l0-.31c0-.55-.81-1.27-2.65-1.69l-41.83,2-.23-.05a2.33,2.33,0,0,0-.48,0"/><g class="cls-12"><rect class="cls-2" x="-4486.03" y="-2604.97" width="6348.4" height="5052.27"/></g><path class="cls-4" d="M75.06-114a1.12,1.12,0,0,0-.92-.27,1.62,1.62,0,0,0-1,.4,2.1,2.1,0,0,0-.61,1.23,1.06,1.06,0,0,0,0,.18l2-.06c.5,0,.79-.17.86-.61a1,1,0,0,0-.21-.87m1.84,1a1.43,1.43,0,0,1-.61,1.07,2.74,2.74,0,0,1-1.42.41,9.29,9.29,0,0,1-1.86,0c-.39-.07-.51-.65-.56-.81a3.89,3.89,0,0,0-.08,1.09,1.17,1.17,0,0,0,.5,1,2.16,2.16,0,0,0,1.22.24l1-.07c.34,0,.53-.07.81-.12h0c.06,0,.14,0,.12.12l-.1.82a.17.17,0,0,1-.11.14,8.64,8.64,0,0,1-1.06.25c-.38.06-.74.09-1.08.11a4.64,4.64,0,0,1-1.53-.16,2,2,0,0,1-1-.59,2.08,2.08,0,0,1-.46-1,4.76,4.76,0,0,1,0-1.37l0-.4a3.83,3.83,0,0,1,1-2.33,3.65,3.65,0,0,1,2.5-.93,2.58,2.58,0,0,1,2.08.64A2.36,2.36,0,0,1,76.9-113m-22.44-1.74-4.45.17c-.29,0-.39.2-.43.49s-.08.58-.11.82.09.32.3.31l.38,0,1.4,0c.12,0,.05,0,0,0a2.36,2.36,0,0,0-1.29,1.89c0,.22-.33,2.67-.33,2.67a.89.89,0,0,0,0,.15c0,.24.14.29.23.28l.89,0h.08c.35,0,.45-.11.49-.46.07-.51.54-4.28.58-4.57l1.05,0c.48,0,1-.07,1.33.26s.22.71.15,1.26l-.37,3a.86.86,0,0,0,0,.16c0,.23.14.28.23.28l.89,0h.08c.35,0,.45-.11.49-.47,0-.13.48-3.76.51-4a1.87,1.87,0,0,0-2.08-2.07m25.06-.34c0-.24,0-.66-.48-.64l-.81,0a.44.44,0,0,0-.4.36l-.73,5.88c0,.33.06.44.22.44l1.17-.05a.33.33,0,0,0,.32-.28l.09-.71s.23-1.91.43-3.5a.31.31,0,0,0-.34-.37l-1,0h-.1s0,0,0,0c.51-.1,1.49-.54,1.57-1.2m-20.64,1.93-1,0h-.08c.5-.09,1.48-.53,1.56-1.19,0-.24,0-.66-.47-.64l-.81,0a.42.42,0,0,0-.4.35L57-108.66c0,.32.06.44.21.43l1.17,0a.34.34,0,0,0,.32-.29l.09-.7s.24-1.92.44-3.5a.31.31,0,0,0-.35-.37m11.31-2.05a3.67,3.67,0,0,0-.9-.18,6.44,6.44,0,0,0-1.08,0,4.29,4.29,0,0,0-1,.14,2.57,2.57,0,0,0-.8.37,2,2,0,0,0-.57.6,2.24,2.24,0,0,0-.28.86,1.45,1.45,0,0,0,.25,1.12,2.47,2.47,0,0,0,1,.69l1,.38a1.75,1.75,0,0,1,.46.26.49.49,0,0,1,.14.43.64.64,0,0,1-.31.49,1.58,1.58,0,0,1-.75.16c-.32,0-.67,0-1.06,0s-.73,0-1-.06h0a.1.1,0,0,0-.11.09v0l-.12.93a.14.14,0,0,0,.13.18c.35.07.73.13,1.11.17s.8,0,1.24,0a3.24,3.24,0,0,0,1.84-.57,2,2,0,0,0,.82-1.44,1.54,1.54,0,0,0-.23-1.13,2.25,2.25,0,0,0-1-.72l-1-.41a2.32,2.32,0,0,1-.45-.23.39.39,0,0,1-.14-.41.56.56,0,0,1,.3-.47,1.72,1.72,0,0,1,.69-.13c.29,0,.59,0,.89,0a8.09,8.09,0,0,1,.86.07h.06a.12.12,0,0,0,.1-.1s0,0,0,0l.11-.93c0-.11-.07-.15-.14-.17m-5.38,1.34a.1.1,0,0,1-.09.09h-.07c-.28,0-.57,0-.86-.06h-.88a1.69,1.69,0,0,0-.69.13.55.55,0,0,0-.31.47.4.4,0,0,0,.15.41,2.29,2.29,0,0,0,.45.23l1,.4a2.14,2.14,0,0,1,1,.72,1.58,1.58,0,0,1,.24,1.14,2,2,0,0,1-.83,1.43,3.24,3.24,0,0,1-1.84.57,8.25,8.25,0,0,1-1.23,0c-.39,0-.77-.09-1.12-.16a.14.14,0,0,1-.13-.18l.12-.93v0a.09.09,0,0,1,.11-.09h0c.31,0,.66,0,1,.06h1a1.61,1.61,0,0,0,.76-.17.62.62,0,0,0,.3-.49.47.47,0,0,0-.14-.42,1.51,1.51,0,0,0-.46-.27l-1-.38a2.47,2.47,0,0,1-1-.69,1.46,1.46,0,0,1-.25-1.11,2.24,2.24,0,0,1,.29-.86,1.89,1.89,0,0,1,.56-.6,2.36,2.36,0,0,1,.8-.37,5,5,0,0,1,1-.15,9.6,9.6,0,0,1,1.08,0,4.93,4.93,0,0,1,.9.18c.07,0,.16.06.14.18l-.11.93s0,0,0,0"/><g class="cls-13"><rect class="cls-2" x="-4486.03" y="-2604.97" width="6348.4" height="5052.27"/></g><path class="cls-4" d="M59.68-105.84c-.37,0-.45.12-.46.24s0,.15.17.15a1,1,0,0,0,.24,0Zm-.35.63c-.32,0-.46-.11-.43-.36s.28-.45.81-.51h0v0c0-.11,0-.16,0-.18s-.06-.06-.14-.06a.9.9,0,0,0-.46.18l-.06,0,0-.29h0a1.18,1.18,0,0,1,.54-.16c.2,0,.32,0,.37.16a.76.76,0,0,1,0,.31l-.11.83h-.08Z"/><g class="cls-14"><rect class="cls-2" x="-4486.03" y="-2604.97" width="6348.4" height="5052.27"/></g><path class="cls-4" d="M60.49-106.8l0-.34h.34l0,.33Zm-.19,1.53.17-1.33.33,0-.18,1.34Z"/><g class="cls-15"><rect class="cls-2" x="-4486.03" y="-2604.97" width="6348.4" height="5052.27"/></g><path class="cls-4" d="M61.34-105.28a.74.74,0,0,1-.36-.06h0l0-.32,0,0a.42.42,0,0,0,.31.1c.14,0,.23-.06.24-.14s0-.09-.07-.13l-.16-.08c-.24-.1-.31-.2-.29-.37a.54.54,0,0,1,.57-.42.76.76,0,0,1,.34.06h0l0,.29,0,0a.46.46,0,0,0-.28-.08c-.13,0-.22.06-.23.14s0,.09.19.17a.73.73,0,0,1,.25.15.26.26,0,0,1,.08.26.55.55,0,0,1-.59.42"/><g class="cls-16"><rect class="cls-2" x="-4486.03" y="-2604.97" width="6348.4" height="5052.27"/></g><path class="cls-4" d="M63.68-106.49a.5.5,0,0,0-.54.46c0,.27.09.41.37.4a.69.69,0,0,0,.2,0l.11-.83Zm-.09,1.75.09-.67-.25,0c-.44,0-.68-.22-.62-.63a.88.88,0,0,1,.94-.75l.4,0h0l-.26,2Z"/><g class="cls-17"><rect class="cls-2" x="-4486.03" y="-2604.97" width="6348.4" height="5052.27"/></g><path class="cls-4" d="M65-105.43a.65.65,0,0,1-.44-.11c-.09-.07-.11-.18-.08-.39l.11-.83h.32l-.1.81c0,.22,0,.28.26.27a.91.91,0,0,0,.23,0l.14-1.07.33,0-.17,1.29h0a3.51,3.51,0,0,1-.57.08"/><g class="cls-18"><rect class="cls-2" x="-4486.03" y="-2604.97" width="6348.4" height="5052.27"/></g><path class="cls-4" d="M67-106.38a.22.22,0,0,0-.26-.23.39.39,0,0,0-.36.25Zm-.38.9c-.44,0-.68-.22-.62-.64a.81.81,0,0,1,.78-.74.47.47,0,0,1,.47.21.57.57,0,0,1,0,.41v.09l-1,0v0c0,.23.12.36.38.35a.76.76,0,0,0,.46-.16l0,0,0,.29h0A1.06,1.06,0,0,1,66.6-105.48Z"/><g class="cls-19"><rect class="cls-2" x="-4486.03" y="-2604.97" width="6348.4" height="5052.27"/></g><path class="cls-4" d="M68.19-105.57l.13-1.05h-.21l0-.24h.22v0a.83.83,0,0,1,.26-.58.76.76,0,0,1,.43-.16h.16l0,.25H69a.3.3,0,0,0-.23.11.54.54,0,0,0-.12.36v0H69l0,.24h-.34l-.14,1.06Z"/><g class="cls-20"><rect class="cls-2" x="-4486.03" y="-2604.97" width="6348.4" height="5052.27"/></g><path class="cls-4" d="M69.85-106.23c-.37,0-.45.13-.47.25s0,.15.18.14l.24,0Zm-.35.63c-.32,0-.46-.11-.43-.36s.27-.45.8-.51h0c0-.12,0-.17,0-.19s-.07-.06-.14,0a.77.77,0,0,0-.46.17l-.06,0,0-.29h0a1.32,1.32,0,0,1,.54-.16c.2,0,.32,0,.36.16a.62.62,0,0,1,0,.32l-.11.83H70A4.11,4.11,0,0,1,69.5-105.6Z"/><g class="cls-21"><rect class="cls-2" x="-4486.03" y="-2604.97" width="6348.4" height="5052.27"/></g><path class="cls-4" d="M70.46-105.66l.17-1.24h0a1.87,1.87,0,0,1,.56-.12.69.69,0,0,1,.25,0h0l0,.27,0,0a.71.71,0,0,0-.21,0,.82.82,0,0,0-.26.06l-.14,1Z"/><g class="cls-22"><rect class="cls-2" x="-4486.03" y="-2604.97" width="6348.4" height="5052.27"/></g><path class="cls-4" d="M73.21-105.76l.11-.84c0-.19,0-.26-.22-.25a.74.74,0,0,0-.25,0,.74.74,0,0,1,0,.2l-.11.85-.33,0,.11-.84c0-.19,0-.26-.24-.25a1.29,1.29,0,0,0-.25,0l-.14,1.07h-.32l.16-1.26h0a2.13,2.13,0,0,1,.61-.11.58.58,0,0,1,.36.07,1.29,1.29,0,0,1,.46-.11.52.52,0,0,1,.41.13.39.39,0,0,1,.07.34l-.12.86Z"/><g class="cls-23"><rect class="cls-2" x="-4486.03" y="-2604.97" width="6348.4" height="5052.27"/></g><path class="cls-4" d="M58.16-105.19l.11-.83c0-.2,0-.26-.22-.26a1.38,1.38,0,0,0-.25,0,.66.66,0,0,1,0,.2l-.12.86h-.32l.11-.83c0-.2,0-.26-.24-.26a1.11,1.11,0,0,0-.25,0l-.14,1.06h-.33l.17-1.25h0a2.39,2.39,0,0,1,.61-.11.58.58,0,0,1,.36.07,1.08,1.08,0,0,1,.45-.1.56.56,0,0,1,.42.12.42.42,0,0,1,.06.35l-.11.86Z"/><g class="cls-24"><rect class="cls-2" x="-4486.03" y="-2604.97" width="6348.4" height="5052.27"/></g><path class="cls-4" d="M74.41-107.29l.56-.59.3,0-.63.6Zm.26.88c-.37,0-.45.12-.46.24s0,.15.17.15a.9.9,0,0,0,.24,0Zm-.35.62c-.31,0-.46-.1-.42-.35s.27-.45.8-.51h0v0a.43.43,0,0,0,0-.19s-.07,0-.15,0a1,1,0,0,0-.46.17l0,0,0-.29h0a1.1,1.1,0,0,1,.54-.16c.2,0,.32,0,.37.16a.75.75,0,0,1,0,.31l-.11.83h-.07A3,3,0,0,1,74.32-105.79Z"/><g class="cls-25"><rect class="cls-2" x="-4486.03" y="-2604.97" width="6348.4" height="5052.27"/></g><path class="cls-4" d="M75.91-105.84c-.44,0-.69-.24-.63-.64a.83.83,0,0,1,.83-.74,1,1,0,0,1,.35.06h0l0,.3,0,0a.37.37,0,0,0-.29-.08.49.49,0,0,0-.5.45.33.33,0,0,0,.38.41.62.62,0,0,0,.34-.11l.05,0,0,.29h0a1,1,0,0,1-.41.11"/><g class="cls-26"><rect class="cls-2" x="-4486.03" y="-2604.97" width="6348.4" height="5052.27"/></g><path class="cls-4" d="M76.78-107.42l0-.34h.35l0,.33Zm-.19,1.53.17-1.33.33,0-.18,1.34Z"/><g class="cls-27"><rect class="cls-2" x="-4486.03" y="-2604.97" width="6348.4" height="5052.27"/></g><path class="cls-4" d="M78.06-106.54c-.37,0-.45.12-.47.24s0,.15.18.15a1,1,0,0,0,.24,0Zm-.35.63c-.32,0-.46-.11-.43-.36s.27-.45.8-.51h0v0c0-.11,0-.16,0-.18S78-107,78-107a.87.87,0,0,0-.46.18l-.06,0,0-.29h0a1,1,0,0,1,.54-.16c.2,0,.32,0,.36.16a.58.58,0,0,1,0,.31l-.11.83h-.08Z"/><g class="cls-28"><rect class="cls-2" x="-4486.03" y="-2604.97" width="6348.4" height="5052.27"/></g><path class="cls-4" d="M46.49-110.82l-.55,3.11a4.39,4.39,0,0,0,2.8-3.19Z"/><g class="cls-29"><rect class="cls-2" x="-4486.03" y="-2604.97" width="6348.4" height="5052.27"/></g><path class="cls-4" d="M46.87-112.83l1.67-.06a4.08,4.08,0,0,0-1.35-1.74Z"/><g class="cls-30"><rect class="cls-2" x="-4486.03" y="-2604.97" width="6348.4" height="5052.27"/></g><path class="cls-4" d="M44.11-109c.13-.51.3-1.37,1.88-1.71.13,0,.11-.06,0,0l-5.09.19c0-.27.19-1.1.25-1.41.1-.5.36-.6.83-.62l2.78-.11.51-2.77a5.67,5.67,0,0,0-1.5-.14c-2.67.1-4.77,2-4.68,4.35s2.14,3.93,4.67,4Z"/><g class="cls-31"><rect class="cls-2" x="-4486.03" y="-2604.97" width="6348.4" height="5052.27"/></g><polygon class="cls-4" points="60.11 -25.56 29.57 -27.96 29.87 -31.71 56.34 -29.63 56.25 -76.77 60.01 -76.78 60.11 -25.56"/><g class="cls-32"><rect class="cls-2" x="-4486.03" y="-2604.97" width="6348.4" height="5052.27"/></g><rect class="cls-2" x="70.26" y="-40.5" width="3.76" height="27.92" transform="translate(93.17 47.4) rotate(-85.67)"/><g class="cls-33"><rect class="cls-2" x="-4486.03" y="-2604.97" width="6348.4" height="5052.27"/></g><path class="cls-4" d="M63.78-42.23a1.87,1.87,0,0,1-1.62-.92,1.89,1.89,0,0,1,.65-2.58l1-.61v-1.9L62.33-49.5a1.88,1.88,0,0,1-.24-2.65,1.88,1.88,0,0,1,2.65-.24l2.19,1.83a1.86,1.86,0,0,1,.68,1.44v3.85a1.89,1.89,0,0,1-.92,1.62l-2,1.16a1.9,1.9,0,0,1-1,.26"/><g class="cls-34"><rect class="cls-2" x="-4486.03" y="-2604.97" width="6348.4" height="5052.27"/></g><path class="cls-4" d="M52-42.77a1.85,1.85,0,0,1-1-.26l-1.95-1.16a1.88,1.88,0,0,1-.92-1.62v-3.85a1.89,1.89,0,0,1,.68-1.44l2.19-1.83a1.88,1.88,0,0,1,2.65.24A1.88,1.88,0,0,1,53.49-50L52-48.77v1.89l1,.61a1.88,1.88,0,0,1,.66,2.58,1.89,1.89,0,0,1-1.62.92"/><g class="cls-35"><rect class="cls-2" x="-4486.03" y="-2604.97" width="6348.4" height="5052.27"/></g><path class="cls-2" d="M-256.9,347.9h-83.51l35.55-33.82a3.29,3.29,0,0,0,0-4.93,3.7,3.7,0,0,0-5.18,0l-42,39.81a3.29,3.29,0,0,0,0,4.93l41.85,39.81a3.71,3.71,0,0,0,5.19,0,3.29,3.29,0,0,0,0-4.93L-340.41,355h83.51a3.63,3.63,0,0,0,3.71-3.52A3.64,3.64,0,0,0-256.9,347.9Z"/><g class="cls-36"><rect class="cls-2" x="-1053.19" y="-2385.24" width="9600" height="25640"/></g><path class="cls-2" d="M-497.49,347.9H-414l-35.56-33.82a3.29,3.29,0,0,1,0-4.93,3.71,3.71,0,0,1,5.19,0l42,39.81a3.29,3.29,0,0,1,0,4.93l-41.85,39.81a3.71,3.71,0,0,1-5.19,0,3.29,3.29,0,0,1,0-4.93L-414,355h-83.52a3.62,3.62,0,0,1-3.7-3.52A3.63,3.63,0,0,1-497.49,347.9Z"/><g class="cls-37"><rect class="cls-2" x="-9301.19" y="-2385.24" width="9600" height="25640"/></g><g class="cls-38"><path class="cls-2" d="M45,123H11.2V36.75H-7.11a7.66,7.66,0,0,1-6.11-3,7.66,7.66,0,0,1-1.35-6.68L-10.33,11A7.71,7.71,0,0,1-2.87,5.22H69.51A7.72,7.72,0,0,1,77,14.91L72.74,31a7.74,7.74,0,0,1-7.47,5.75H45ZM19.2,115H37V28.75h28l4.1-15.53H-2.65L-6.74,28.75H19.2Z"/><path class="cls-2" d="M140.8,39.07h-.49c-7.6.1-15.12.15-22.66.15s-15.11,0-22.8-.15h-.48c-3.89,0-8,2.67-12.35,7.93a3.78,3.78,0,0,0-.56.92L74.51,63.68l-9.66-.16h-.16A3.86,3.86,0,0,0,62,64.67a4,4,0,0,0-1.2,2.85c0,5.69,2.1,9.39,6.77,11.91L66,82.92a4.08,4.08,0,0,0-.34,1.61v30.21A8.32,8.32,0,0,0,74,123H88.64a8.31,8.31,0,0,0,8.3-8.3v-1.18h41.28v1.18a8.31,8.31,0,0,0,8.3,8.3h14.66a8.31,8.31,0,0,0,8.3-8.3V84.53a3.91,3.91,0,0,0-.34-1.61l-1.54-3.49c4.68-2.52,6.77-6.21,6.77-11.91a4,4,0,0,0-1.19-2.85,4,4,0,0,0-2.72-1.15h-.15l-9.67.16L153.7,47.92a4.16,4.16,0,0,0-.57-.92c-4.29-5.26-8.46-7.93-12.33-7.93ZM77.1,71.72a4,4,0,0,0,3.66-2.39l7.79-17.67c3.82-4.54,5.74-4.59,5.86-4.59h.24c7.76.1,15.39.15,23,.15s15.19,0,22.86-.15h.23s1.93-.09,5.86,4.59l7.79,17.67a4,4,0,0,0,3.66,2.39h.07l6.89-.11a5.49,5.49,0,0,1-.73.52h-2.51a4,4,0,0,0-3.66,5.61l3.37,7.64v29.36a.35.35,0,0,1-.3.3H146.52a.35.35,0,0,1-.3-.3v-5.18a4,4,0,0,0-4-4H92.94a4,4,0,0,0-4,4v5.18a.35.35,0,0,1-.3.3H74a.35.35,0,0,1-.3-.3V85.38L77,77.74a4,4,0,0,0-3.65-5.61H70.88a5.63,5.63,0,0,1-.74-.52l6.9.11Z"/><path class="cls-2" d="M139.48,50.51H95.68c-1.37.2-2.74,1.37-4.3,3.13-2.74,6.06-5.68,11.93-8.41,18h69.41c-2.93-6.06-5.86-11.93-8.6-18-1.56-1.76-2.93-2.93-4.3-3.13ZM95.55,63.63c.8-1.69,1.61-3.4,2.4-5.12h39.26c.79,1.72,1.59,3.42,2.4,5.12Z"/><path class="cls-2" d="M89.41,83.51a6.85,6.85,0,1,0,6.84,6.85,6.85,6.85,0,0,0-6.84-6.85Z"/><path class="cls-2" d="M129.31,89.57H105.85a3.53,3.53,0,0,0,0,7h23.46a3.52,3.52,0,0,0,0-7Z"/></g></svg>