<svg width="29" height="30" viewBox="0 0 29 30" fill="none" xmlns="http://www.w3.org/2000/svg">
<path d="M11.7539 0C11.5175 0.00280567 11.284 0.0526242 11.0664 0.146653C10.5525 0.366633 10.2006 0.824924 10.0239 1.25322C9.84709 1.68151 9.79472 2.10981 9.79472 2.5631V15.0186C9.79472 16.8384 10.5574 18.7233 11.8079 20.0082L19.975 28.419C20.2893 28.7407 20.6264 29.0023 21.0471 29.1773C21.4693 29.3506 22.0291 29.4156 22.5446 29.1973C23.0586 28.9773 23.4105 28.5174 23.5872 28.0891C23.764 27.6625 23.8164 27.2342 23.8164 26.7809V14.3237C23.7981 12.4593 23.0775 10.6732 21.8032 9.33414L15.335 2.67309H25.1126C25.8524 2.67309 26.4089 3.2447 26.4089 4.0063V18.6716C26.4032 19.0226 26.5344 19.3616 26.7736 19.6143C27.0129 19.867 27.3408 20.0128 27.6855 20.0198C27.8595 20.0214 28.0321 19.9875 28.193 19.9201C28.3539 19.8526 28.4999 19.7531 28.6224 19.6273C28.7449 19.5014 28.8414 19.3519 28.9062 19.1875C28.9711 19.0231 29.0029 18.8471 28.9998 18.6699H28.9949V4.00796C28.9949 1.8165 27.2436 0.00833257 25.1126 0.00833257C20.6592 0.00666605 16.2073 0.00333303 11.7539 0ZM12.3873 3.40802L19.9717 11.2173C20.5217 11.7822 21.2255 13.5238 21.2255 14.3237V25.9343L13.6393 18.125C13.0894 17.56 12.3856 15.8185 12.3873 15.0186V3.40969V3.40802ZM18.6329 15.3469C18.4618 15.3478 18.2926 15.383 18.1348 15.4504C17.9771 15.5179 17.834 15.6164 17.7136 15.7402C17.5932 15.864 17.498 16.0107 17.4333 16.172C17.3686 16.3333 17.3358 16.5059 17.3366 16.6801C17.3366 17.4151 17.916 18.0133 18.6329 18.0133C18.9782 18.0111 19.3084 17.8695 19.5512 17.6195C19.7939 17.3695 19.9293 17.0317 19.9275 16.6801C19.9275 16.3118 19.7835 15.9785 19.5478 15.7369C19.4281 15.6132 19.2854 15.515 19.1281 15.4481C18.9707 15.3811 18.8018 15.3467 18.6313 15.3469H18.6329ZM5.16775 17.885C4.99423 17.8852 4.82254 17.9212 4.66304 17.9908C4.50355 18.0604 4.35955 18.1622 4.23974 18.29C4.00049 18.5444 3.869 18.8844 3.87359 19.2367C3.87818 19.5889 4.01849 19.9252 4.26429 20.1731L6.0974 22.0563L6.63261 22.6079H1.29695C1.02219 22.6098 0.755025 22.6999 0.533462 22.8654C0.311899 23.0308 0.147227 23.2632 0.0628759 23.5295C-0.0233017 23.8034 -0.0208343 24.0983 0.0699149 24.3707C0.160664 24.6431 0.334901 24.8787 0.566981 25.0427C0.830156 25.2202 1.14436 25.3024 1.45898 25.276H6.63424L6.09577 25.8276L4.26266 27.7141C4.01708 27.9622 3.87706 28.2987 3.87278 28.6509C3.86849 29.0032 4.00028 29.343 4.23974 29.5973C4.3598 29.7246 4.50389 29.8259 4.66336 29.8951C4.82284 29.9643 4.9944 30 5.16775 30C5.34111 30 5.51267 29.9643 5.67215 29.8951C5.83162 29.8259 5.97571 29.7246 6.09577 29.5973L8.84543 26.7709C9.57072 26.0144 9.97673 24.9991 9.97673 23.942C9.97673 22.8848 9.57072 21.8695 8.84543 21.1131L6.09577 18.2866C5.97573 18.1594 5.83162 18.0582 5.67213 17.9891C5.51263 17.9201 5.34106 17.8847 5.16775 17.885Z" fill="#911436"/>
</svg>
