<svg id="Layer_1" data-name="Layer 1" xmlns="http://www.w3.org/2000/svg" viewBox="0 0 181.29 300"><defs><style>.cls-1{fill:#f5841f;}.cls-2{fill:#25a9e0;}.cls-3{fill:#2b2e31;}.cls-4{fill:#251c12;}.cls-5{fill:#454a4f;}</style></defs><title>turing</title><rect class="cls-1" x="199.87" y="138.88" width="99.23" height="99.23" rx="23.29" transform="translate(-219.57 131.62) rotate(-45)"/><path class="cls-2" d="M338.42,380.87,261,270.31a13.46,13.46,0,0,0-11-5.73h0a13.46,13.46,0,0,0-11,5.73L161.58,380.87A12.16,12.16,0,0,0,171.53,400h37.76a12.32,12.32,0,0,0,10.11-5.26L250,351l30.6,43.7A12.32,12.32,0,0,0,290.71,400h37.76A12.16,12.16,0,0,0,338.42,380.87Z" transform="translate(-159.36 -100)"/><path class="cls-3" d="M228.3,189.06l-4.77,4.55,1.94-6.28a6.55,6.55,0,1,0,2.83,1.73Z" transform="translate(-159.36 -100)"/><path class="cls-3" d="M279.31,189.06l-4.77,4.55,1.94-6.28a6.55,6.55,0,1,0,2.83,1.73Z" transform="translate(-159.36 -100)"/><path class="cls-3" d="M251.79,237c-1.62,0-3.2.39-3.27,1.53s13.17,1.14,24-8C272.54,230.52,261.69,236.8,251.79,237Z" transform="translate(-159.36 -100)"/><rect class="cls-4" x="91.81" y="140.12" width="17.15" height="9.44" rx="3.72"/><path class="cls-5" d="M314,174.63v-2a62.74,62.74,0,0,0-125.47,0v2.1a17.81,17.81,0,0,0,7.14,34.12,5.22,5.22,0,0,0,5.22-5.22V178.48a5.22,5.22,0,0,0-5.22-5.22h-.29v-.61a55.89,55.89,0,0,1,111.77,0v.61h0a5.22,5.22,0,0,0-5.22,5.22v25.17a5.22,5.22,0,0,0,5.22,5.22h.07l-16,29.15a10.47,10.47,0,0,1-8.94,5h-14a3.56,3.56,0,0,1,.11.86v2a3.43,3.43,0,0,1-.11.86h14a14.2,14.2,0,0,0,12.1-6.71l17.43-31.73A17.81,17.81,0,0,0,314,174.63Z" transform="translate(-159.36 -100)"/><path class="cls-3" d="M311.68,177.11c.69-6.82,1.12-12.45.74-13.16-.9-1.66-6.65-11.26-6.65-11.26-9.85-18.67-26.22-38.11-27.88-40a2.54,2.54,0,0,0-3.58-.38c-5.63-7.29-9.72-7.16-9.72-7.16,1.28,1.79,0,5.24,0,5.24-4-8.31-10-9.34-10-9.34a16.68,16.68,0,0,1,1,7.68A17.62,17.62,0,0,0,243.1,100a47,47,0,0,0,.64,5.12c.51,2.81-.9,7.29-.9,7.29s-1.79-4.1-2.81-4-7.8,5.37-18,15.48-28.78,31.84-30.57,34.4-3.2,9.72-1.78,16.24c.13.6.29,1.31.47,2.12l-.73.15a1.92,1.92,0,0,0-1.55,1.93,64.57,64.57,0,0,0,1,10,2,2,0,0,0,2,1.6l2.34-.14c1.44,6.34,2.73,12,2.73,12l.36-.12c.29,1.43.6,2.88.93,4.27,1.88,8,7.18,10,19.7,9.89s18.13-.24,22.27-7.34,5.62-15.48,11-15.51c5.12-.07,6.87,8.41,11,15.51s9.74,7.2,22.26,7.34,17.83-1.93,19.71-9.89c.45-1.91.86-3.92,1.23-5.85,2.09.76,4.3,1.7,4.3,1.7.32-2.39.89-6.85,1.49-11.9a1.93,1.93,0,0,0,1.36-1.52,63.59,63.59,0,0,0,1-10A2,2,0,0,0,311.68,177.11Zm-21.51-8.68c9.59-3.2,10.23,1.66,10.23,1.66a45,45,0,0,1,1.49,5.09c-9.53-1.55-20.3-2.79-27.86-2.6A124.86,124.86,0,0,0,290.17,168.43Zm-51.88,33.4c-4,9.66-13.56,9.57-24.35,9.22s-11.24-4.72-12.85-10.59h0l1.34-.44c-1.36-4.21-2-10.82-2.22-16.35a6.44,6.44,0,0,1,4.06-3.44c7.8-2.36,19.72-1.87,27-1s11.57,3.89,11.41,7.2S242.28,192.16,238.29,201.83Zm18-24.18c-1.05,1.95-4.45,2-6.06,2.12-1.61-.08-5-.17-6.06-2.12s-5.24-3-14.62-4.23c-7.9-1-18.84-.1-29.27,1.49a6.3,6.3,0,0,1,.14-1c.51-1.66,9.34-5.37,13.43-5.49s25.71,5.24,39,5.88a80.6,80.6,0,0,0,11.29-.31C258.73,175.17,257.08,176.1,256.25,177.65Zm43,22.81c-1.61,5.87-2.05,10.25-12.85,10.59s-20.36.44-24.35-9.22-4.21-12.21-4.37-15.43,4.14-6.37,11.4-7.2,19.19-1.33,27,1S300.89,194.6,299.29,200.46Z" transform="translate(-159.36 -100)"/></svg>