<svg id="Layer_1" data-name="Layer 1" xmlns="http://www.w3.org/2000/svg" viewBox="0 0 128 128"><defs><style>.cls-1{fill:#fff;}</style></defs><title>icon</title><path class="cls-1" d="M42.85,61.68H68.08V54.47H42.86V11.21H53.66V32.84a3.6,3.6,0,0,0,2.23,3.33,3.51,3.51,0,0,0,1.38.28,3.6,3.6,0,0,0,2.55-1.06l8.26-8.26,8.27,8.26a3.61,3.61,0,0,0,6.16-2.55V11.21H93.32V50.87h7.21V11.21A7.21,7.21,0,0,0,93.32,4H42.85a7.21,7.21,0,0,0-7.21,7.21V54.47A7.21,7.21,0,0,0,42.85,61.68Zm18-50.47H75.3V24.14l-4.67-4.66a3.59,3.59,0,0,0-5.09,0l-4.67,4.66Z"/><path class="cls-1" d="M117.53,62.7A10.4,10.4,0,0,0,111,56a6.65,6.65,0,0,0-2.49-.44,7.15,7.15,0,0,0-4.15,1.29L79.8,73.07l-.17,0L53.21,68.25a25,25,0,0,0-21.15,5.84l-21,18.35A3.6,3.6,0,0,0,10.32,97l14.42,25.23A3.55,3.55,0,0,0,27,123.9a3.31,3.31,0,0,0,.83.1,3.62,3.62,0,0,0,2-.61l17.21-11.48a10.81,10.81,0,0,1,7.26-1.74l13.79,1.61a21.78,21.78,0,0,0,19.38-7.18l28.4-32.51A10.36,10.36,0,0,0,117.53,62.7Zm-7.22,4.85L82.09,99.84a14.45,14.45,0,0,1-13,4.79L55.18,103a18.2,18.2,0,0,0-12.08,2.88l-14,9.36L18,95.93,36.81,79.52a17.92,17.92,0,0,1,15.11-4.18L78.25,80.1l.07,0h0a5.37,5.37,0,0,1-4.62,5.34L56.2,88a3.61,3.61,0,1,0,1,7.14l17.53-2.49a12.54,12.54,0,0,0,10.8-12.51,7.18,7.18,0,0,0-.29-2l23.31-15.37a3.23,3.23,0,0,1,2.07,2.11A3.15,3.15,0,0,1,110.31,67.55Z"/></svg>