<svg id="Layer_1" data-name="Layer 1" xmlns="http://www.w3.org/2000/svg" viewBox="0 0 128 128"><defs><style>.cls-1{fill:#333;}</style></defs><title>icon</title><path class="cls-1" d="M9,102.19a8,8,0,0,1,.27-1.69,31.81,31.81,0,0,1,2-5.28Q32.47,58.43,53.62,21.73a15.68,15.68,0,0,1,4-4.74,10.16,10.16,0,0,1,12.86.16,16.23,16.23,0,0,1,4,4.89l40,69.25c.89,1.56,1.82,3.1,2.69,4.69a12.5,12.5,0,0,1,1.49,9.1c-1.14,4.46-4.29,6.78-8.59,7.77l-1.79.38H19.85l-1.9-.38a10.54,10.54,0,0,1-8.46-7.44c-.22-.75-.3-1.53-.46-2.27Zm55.1,2.07h42.23a12.53,12.53,0,0,0,2.58-.36,1.23,1.23,0,0,0,1.13-1.33,1.45,1.45,0,0,0-.08-.36,12.56,12.56,0,0,0-1-2.63Q103.3,89.74,97.6,79.91q-15.4-26.7-30.84-53.4a11.87,11.87,0,0,0-1.85-2.32,1.13,1.13,0,0,0-1.6-.09l-.09.09a10.54,10.54,0,0,0-1.69,2.08Q40.2,63,19,99.8a10,10,0,0,0-.88,2.24c-.27,1,0,1.56,1,1.84a10,10,0,0,0,2.67.36Z"/><path class="cls-1" d="M57.24,50.66a28.92,28.92,0,0,1,.26-4.26,6.91,6.91,0,0,1,8-5.65,6.7,6.7,0,0,1,1.81.57,6,6,0,0,1,3.27,5.08,31.8,31.8,0,0,1,.11,8.77c-.45,5.43-.89,10.85-1.44,16.28a42.31,42.31,0,0,1-1.18,7.06,4.13,4.13,0,0,1-5,3l-.2-.06a3.45,3.45,0,0,1-2.93-2.55,37.48,37.48,0,0,1-1.2-6.49C58.12,65.41,57.72,58.42,57.24,50.66Z"/><path class="cls-1" d="M57.24,92.22a6.82,6.82,0,0,1,13.63-.09v.09A6.67,6.67,0,0,1,64.3,99h-.2a6.6,6.6,0,0,1-6.85-6.34C57.24,92.51,57.24,92.36,57.24,92.22Z"/></svg>