<svg id="Layer_1" data-name="Layer 1" xmlns="http://www.w3.org/2000/svg" viewBox="0 0 128 128"><defs><style>.cls-1{fill:#fff;}</style></defs><title>icon</title><path class="cls-1" d="M119.38,43.74v0h-18.5L77.39,20.14a5,5,0,0,0-7,7.07L86.79,43.7H41.16L57.61,27.21a5,5,0,1,0-7-7.07L27.06,43.7H7.71l0,.18A5,5,0,0,0,9,53.7h.52L17.27,97A15,15,0,0,0,32,109.33H95.11A15,15,0,0,0,109.83,97l7.76-43.28H119a5,5,0,0,0,.37-10ZM100,95.21a5,5,0,0,1-4.91,4.12H32a5,5,0,0,1-4.91-4.12L19.64,53.7h87.82Z"/><path class="cls-1" d="M63.55,88.93a5,5,0,0,0,5-5V68.54a5,5,0,1,0-10,0V83.93A5,5,0,0,0,63.55,88.93Z"/><path class="cls-1" d="M82,88.83a4.61,4.61,0,0,0,1,.1,5,5,0,0,0,4.89-4.05l3-15.38a5,5,0,1,0-9.79-1.92L78.1,83A5,5,0,0,0,82,88.83Z"/><path class="cls-1" d="M39.21,84.88a5,5,0,0,0,4.89,4.05,4.61,4.61,0,0,0,1-.1A5,5,0,0,0,49,83L46,67.58a5,5,0,1,0-9.79,1.92Z"/></svg>