<svg id="Layer_1" data-name="Layer 1" xmlns="http://www.w3.org/2000/svg" viewBox="0 0 128 128"><defs><style>.cls-1{fill:#333;}</style></defs><title>icon</title><path class="cls-1" d="M128,84.36a15.8,15.8,0,0,0-15.78-15.78h-1.89l-3.72-12.24a7.83,7.83,0,0,0,1.37.11H111A2.5,2.5,0,0,0,113.53,54V41.29A2.49,2.49,0,0,0,111,38.8H108a8.84,8.84,0,0,0-4.89,1.48v-1.8A2.5,2.5,0,0,0,100.6,36H84a5.82,5.82,0,1,0,0,11.63h6.93l2.2,28.78L86,83.53H70.49l-3.28-13.7h.88a5.56,5.56,0,0,0,5.55-5.55V59.62a5.56,5.56,0,0,0-5.55-5.55H52.93a12.52,12.52,0,0,0-12.5,12.26A28.58,28.58,0,0,0,20.87,93.49,2.5,2.5,0,0,0,23.37,96h8.92a15.08,15.08,0,0,0,1.36,4.15c.17.33.34.65.53,1l.08.13c.22.36.4.64.59.9l0,0A15,15,0,0,0,61.79,96H91.25A2.47,2.47,0,0,0,93,95.25l5.53-5.52a14.76,14.76,0,0,0-.48,3.74A14.93,14.93,0,0,0,113,108.39,14.76,14.76,0,0,0,123.5,104a.39.39,0,0,0,.24-.12,14.87,14.87,0,0,0,2.62-17.21A2.48,2.48,0,0,0,128,84.36ZM108,43.78h.57v7.69H108a3.82,3.82,0,0,1-3.66-2.67l0-.08a4.12,4.12,0,0,1-.16-1.1A3.85,3.85,0,0,1,108,43.78ZM84,42.63A.83.83,0,0,1,84,41H98.1v1.66H84ZM52.93,59.05H68.09a.58.58,0,0,1,.57.57v4.66a.58.58,0,0,1-.57.57H45.61A7.5,7.5,0,0,1,52.93,59.05Zm-11.68,43ZM53.63,101c-.18.16-.34.28-.5.41l-.19.14-.45.32-.27.16-.08,0c-.19.12-.4.23-.6.33l-.45.22-.34.14-.56.21-.1,0L50,103a10,10,0,0,1-5.88,0c-.27-.08-.55-.19-.86-.31l-.11-.05a9.75,9.75,0,0,1-1.62-.88l0,0,0,0c-.2-.14-.41-.29-.62-.46l-.16-.13a7,7,0,0,1-.57-.52l0,0,0,0a7,7,0,0,1-.56-.61l-.18-.23,0,0-.28-.38-.25-.36a1.74,1.74,0,0,0-.11-.18l0-.09A10,10,0,0,1,37.38,96h19.3A10,10,0,0,1,53.63,101Zm46.76-19.08a2.47,2.47,0,0,0-1.76.73L90.22,91H32.65A14.66,14.66,0,0,1,47,78.9a2.5,2.5,0,0,0,0-5A19.55,19.55,0,0,0,27.61,91H26A23.8,23.8,0,0,1,49.52,69.83H62.09l4,16.77a2.48,2.48,0,0,0,2.42,1.91H87a2.48,2.48,0,0,0,1.76-.73l8.69-8.66a2.51,2.51,0,0,0,.73-2L95.92,47.62h2.83l.76,2.48.06.23L106.1,71.8a2.48,2.48,0,0,0,2.38,1.76h3.74a10.82,10.82,0,0,1,10.51,8.31H100.39ZM113,103.41a9.85,9.85,0,0,1-4.66-1.17l-.17-.09,0,0-.49-.3-.4-.27-.18-.14-.05,0a10,10,0,0,1-1.37-14.54h14.76a9.93,9.93,0,0,1-7.4,16.56Z"/><path class="cls-1" d="M49.29,48h20a4,4,0,0,0,.88-.08,3.63,3.63,0,0,0,2.9-3.7V23.37a3.64,3.64,0,0,0-3.81-3.79h-20a3.64,3.64,0,0,0-3.78,3.75q0,10.44,0,20.88A3.6,3.6,0,0,0,49.29,48ZM58.3,24h2v3.4a2.09,2.09,0,0,0-2,0Zm-8.38,0h3.95v1.46c0,2,0,4.07,0,6.1a2.25,2.25,0,0,0,1.23,2.18,2.11,2.11,0,0,0,1,.24,2.46,2.46,0,0,0,1.51-.57l1-.73.75-.55.66.48,1.06.79a2.48,2.48,0,0,0,1.53.58,2.11,2.11,0,0,0,1-.25,2.26,2.26,0,0,0,1.2-2.21V24h3.94V43.55H49.92Z"/><path class="cls-1" d="M16.84,92.25H3.5a2.5,2.5,0,0,1,0-5H16.84a2.5,2.5,0,1,1,0,5Z"/><path class="cls-1" d="M26.84,72.25H10.5a2.5,2.5,0,0,1,0-5H26.84a2.5,2.5,0,1,1,0,5Z"/><path class="cls-1" d="M19.84,82.25H2.5a2.5,2.5,0,0,1,0-5H19.84a2.5,2.5,0,1,1,0,5Z"/></svg>