<svg width="355" height="223" viewBox="0 0 355 223" fill="none" xmlns="http://www.w3.org/2000/svg">
<path d="M190.28 149.334H51.9707V166.415H190.28V149.334Z" fill="#025B8F"/>
<path d="M277.972 108.068C261.382 101.473 248.854 86.7591 245.299 68.6632C242.252 67.8175 239.036 67.3102 235.65 67.3102C234.126 67.3102 232.603 67.4793 230.91 67.6484V60.8836C230.91 56.9938 229.725 53.2731 227.355 50.229C225.323 47.523 222.445 45.3244 218.89 43.9715C217.028 43.295 214.997 42.7876 212.627 42.4494C210.934 42.2803 208.902 42.1111 206.532 42.1111C204.162 42.1111 202.131 42.2803 200.438 42.4494C198.068 42.7876 196.036 43.295 194.174 43.9715C190.619 45.3244 187.91 47.3539 185.71 50.229C183.34 53.2731 182.155 56.9938 182.155 60.8836V72.0456C181.647 72.0456 181.139 71.8764 180.462 71.8764C178.769 71.7073 176.907 71.5382 174.706 71.5382C172.505 71.5382 170.474 71.5382 168.95 71.8764C166.58 72.0456 164.549 72.5529 162.856 73.2294C159.301 74.4133 156.253 76.6118 154.222 79.3178L154.053 79.1487C151.852 76.4427 148.974 74.4133 145.419 73.2294C143.557 72.5529 141.525 72.2147 139.325 71.8764C137.632 71.7073 135.77 71.5382 133.569 71.5382C131.368 71.5382 129.506 71.5382 127.813 71.8764C127.474 71.8764 126.967 72.0456 126.628 72.0456V61.0527C126.628 57.1629 125.443 53.4423 123.073 50.3981C121.041 47.6921 118.164 45.4936 114.608 44.1406C112.746 43.4641 110.715 42.9568 108.345 42.6185C106.652 42.4494 104.62 42.2803 102.25 42.2803C99.8803 42.2803 97.8489 42.4494 96.156 42.6185C93.7859 42.9568 91.7545 43.4641 89.8923 44.1406C86.3372 45.4936 83.6286 47.523 81.4279 50.3981C80.92 51.0746 80.4121 51.751 80.0736 52.4275C78.7192 51.751 77.1956 51.2437 75.672 50.7363C72.9634 49.8907 70.0855 49.0451 67.0383 48.5377C63.8218 48.0304 60.4361 47.6921 57.0503 47.6921C48.9244 47.6921 41.3064 49.0451 34.3656 51.9202C27.0862 54.7952 20.8225 59.1924 15.5746 64.9425C10.4959 70.5235 6.60226 77.2883 3.89364 85.237C1.35431 92.6783 0 101.304 0 110.436C0 119.569 1.18502 127.686 3.55506 134.789C6.09439 142.569 9.81874 149.165 14.8974 154.577C19.9761 160.158 26.2397 164.217 33.3499 167.092C40.1214 169.628 47.5701 170.981 55.5267 170.981C59.5896 170.981 63.4833 170.643 67.2076 169.967C70.7627 169.29 73.9792 168.445 76.8571 167.43C79.3964 166.584 81.5972 165.569 83.6286 164.386C85.4908 166.077 87.8608 167.43 90.4002 168.445C92.2623 169.121 94.2938 169.459 96.6638 169.798C98.3567 169.967 100.219 170.136 102.42 170.136C104.62 170.136 106.652 170.136 108.175 169.798C110.546 169.628 112.577 169.121 114.27 168.445C117.656 167.261 120.534 165.4 122.734 162.694C124.935 164.555 127.474 166.246 130.183 167.43C135.262 169.798 141.017 170.981 147.62 170.981C153.037 170.981 158.454 169.798 163.533 167.599C163.871 167.768 164.041 167.768 164.379 167.937C166.242 168.783 168.442 169.29 170.812 169.628C172.336 169.798 174.198 169.967 176.399 169.967C178.43 169.967 180.292 169.798 181.816 169.628C184.186 169.29 186.218 168.783 188.08 168.106C189.095 167.768 190.111 167.261 190.958 166.584C191.973 167.261 192.989 167.768 194.005 168.106C196.036 168.952 198.068 169.459 200.607 169.628C202.131 169.798 203.654 169.798 205.686 169.798C207.548 169.798 209.241 169.798 210.764 169.628C213.304 169.459 215.335 168.952 217.367 168.106C217.536 168.106 217.705 167.937 217.875 167.937C220.075 168.952 222.276 169.628 224.646 170.136C227.524 170.812 230.571 171.15 233.788 171.15C234.296 171.15 234.803 171.15 235.311 171.15C235.65 171.15 235.988 171.15 236.158 171.15C239.374 171.15 242.591 170.643 245.469 169.967C264.768 165.739 279.326 145.106 279.326 120.414C279.326 120.076 279.326 119.738 279.326 119.399C278.988 115.51 278.649 111.789 277.972 108.068Z" fill="#025B8F"/>
<path d="M78.8865 142.907C78.8865 144.091 78.8865 145.106 78.7172 145.782C78.7172 146.628 78.5479 147.304 78.3786 147.812C78.2093 148.319 78.04 148.826 77.8707 149.334C77.7015 149.672 77.1936 150.179 76.6857 150.687C76.1779 151.194 75.1621 151.871 73.8078 152.716C72.2842 153.562 70.5913 154.407 68.5599 155.084C66.5284 155.76 64.1584 156.437 61.4498 156.944C58.7411 157.452 55.8632 157.621 52.816 157.621C46.7216 157.621 41.1351 156.606 36.2257 154.746C31.3164 152.885 27.0842 150.01 23.6984 146.29C20.3126 142.569 17.604 137.834 15.7418 132.253C13.8796 126.672 13.0332 120.076 13.0332 112.635C13.0332 105.024 14.0489 98.4284 16.0804 92.5091C18.1119 86.5899 20.9898 81.6854 24.5448 77.7956C28.0999 73.7367 32.5014 70.8616 37.58 68.6631C42.6587 66.6336 48.2452 65.6189 54.3396 65.6189C56.879 65.6189 59.249 65.788 61.4498 66.2954C63.8198 66.6336 65.8512 67.3101 67.8827 67.9866C69.9142 68.663 71.6071 69.3395 73.1307 70.3543C74.6543 71.1999 75.8393 72.0455 76.3471 72.5528C77.0243 73.2293 77.3629 73.7367 77.7015 74.0749C77.8708 74.4132 78.04 75.0896 78.2093 75.597C78.3786 76.2735 78.3786 76.95 78.5479 77.7956C78.5479 78.6412 78.7172 79.825 78.7172 81.0089C78.7172 82.3619 78.7172 83.5457 78.5479 84.5604C78.3786 85.5751 78.3786 86.2516 78.04 86.9281C77.8707 87.6046 77.5322 87.9429 77.1936 88.2811C76.855 88.6193 76.5164 88.6193 76.0086 88.6193C75.3314 88.6193 74.485 88.2811 73.4692 87.4355C72.4535 86.5899 71.0992 85.7443 69.4063 84.7296C67.7134 83.7148 65.682 82.8692 63.4812 82.0236C61.1112 81.178 58.4025 80.8398 55.1861 80.8398C51.631 80.8398 48.4145 81.5163 45.7059 83.0383C42.9973 84.5604 40.6273 86.5899 38.5958 89.2958C36.5643 92.0018 35.21 95.2151 34.1943 99.1048C33.1785 102.995 32.6707 107.223 32.6707 111.958C32.6707 117.201 33.1786 121.767 34.3636 125.488C35.3793 129.378 36.9029 132.422 38.9344 134.959C40.9658 137.495 43.3359 139.356 46.2138 140.54C49.0917 141.723 52.1389 142.4 55.6939 142.4C58.9104 142.4 61.619 142.062 63.9891 141.216C66.3591 140.54 68.3906 139.694 70.0835 138.679C71.7764 137.834 73.1307 136.988 74.1464 136.142C75.1621 135.466 76.0086 134.959 76.6857 134.959C77.1936 134.959 77.5322 135.128 77.8707 135.297C78.2093 135.466 78.3786 135.804 78.5479 136.481C78.7172 136.988 78.8865 137.834 78.8865 138.848C78.7172 140.032 78.8865 141.216 78.8865 142.907Z" fill="#9C9B9B"/>
<path d="M108.174 154.069C108.174 154.577 108.004 154.915 107.835 155.253C107.497 155.591 107.158 155.93 106.481 156.099C105.804 156.268 104.957 156.437 103.772 156.606C102.587 156.775 101.233 156.775 99.54 156.775C97.8471 156.775 96.4928 156.775 95.3078 156.606C94.1227 156.437 93.2763 156.268 92.5991 156.099C91.922 155.93 91.4141 155.591 91.2448 155.253C90.9063 154.915 90.9062 154.577 90.9062 154.069V63.5894C90.9062 63.0821 91.0755 62.7438 91.2448 62.4056C91.5834 62.0673 91.922 61.7291 92.5991 61.56C93.2763 61.3908 94.1227 61.0526 95.3078 61.0526C96.4928 60.8835 97.8471 60.8835 99.54 60.8835C101.233 60.8835 102.587 60.8835 103.772 61.0526C104.957 61.2217 105.804 61.3908 106.481 61.56C107.158 61.7291 107.666 62.0673 107.835 62.4056C108.174 62.7438 108.174 63.2512 108.174 63.5894V154.069Z" fill="#9C9B9B"/>
<path d="M180.796 154.069C180.796 154.577 180.627 154.915 180.458 155.253C180.288 155.591 179.78 155.93 179.273 156.099C178.765 156.268 177.918 156.437 177.072 156.606C176.056 156.775 174.871 156.775 173.517 156.775C171.993 156.775 170.808 156.775 169.792 156.606C168.777 156.437 168.1 156.268 167.592 156.099C167.084 155.93 166.576 155.591 166.407 155.253C166.237 154.915 166.068 154.577 166.068 154.069V146.966C162.682 150.687 159.297 153.393 155.741 155.253C152.186 157.113 148.631 157.959 144.907 157.959C140.675 157.959 137.12 157.283 134.242 155.93C131.364 154.577 128.994 152.716 127.301 150.349C125.608 147.981 124.254 145.275 123.577 142.062C122.899 138.848 122.392 134.959 122.392 130.392V92.6783C122.392 92.1709 122.561 91.8327 122.73 91.4944C122.899 91.1562 123.407 90.818 124.084 90.6488C124.762 90.4797 125.608 90.3106 126.793 90.1415C127.978 89.9723 129.332 89.9724 131.025 89.9724C132.718 89.9724 134.073 89.9723 135.258 90.1415C136.443 90.3106 137.289 90.4797 137.966 90.6488C138.643 90.818 139.151 91.1562 139.32 91.4944C139.659 91.8327 139.659 92.1709 139.659 92.6783V127.348C139.659 130.561 139.828 132.929 140.336 134.789C140.675 136.481 141.352 138.003 142.198 139.187C143.045 140.37 144.061 141.385 145.415 142.062C146.769 142.738 148.293 143.076 149.986 143.076C152.186 143.076 154.387 142.231 156.588 140.709C158.789 139.187 161.159 136.819 163.698 133.775V92.6783C163.698 92.1709 163.867 91.8327 164.037 91.4944C164.206 91.1562 164.714 90.818 165.391 90.6488C166.068 90.4797 166.915 90.3106 168.1 90.1415C169.285 89.9723 170.639 89.9724 172.332 89.9724C174.025 89.9724 175.379 89.9723 176.564 90.1415C177.749 90.3106 178.595 90.4797 179.103 90.6488C179.781 90.818 180.288 91.1562 180.458 91.4944C180.796 91.8327 180.796 92.1709 180.796 92.6783V154.069Z" fill="#9C9B9B"/>
<path d="M257.318 122.613C257.318 128.024 256.641 132.929 255.456 137.326C254.271 141.723 252.578 145.444 250.208 148.488C248.007 151.532 245.129 153.9 241.912 155.591C238.696 157.282 234.972 158.128 230.739 158.128C228.708 158.128 226.676 157.959 224.984 157.621C223.121 157.282 221.429 156.606 219.905 155.76C218.212 154.915 216.688 153.731 215.165 152.378C213.641 151.025 211.948 149.503 210.255 147.643V154.238C210.255 154.746 210.086 155.084 209.917 155.591C209.748 155.929 209.24 156.268 208.732 156.437C208.224 156.606 207.378 156.775 206.362 156.944C205.346 157.113 204.161 157.113 202.807 157.113C201.452 157.113 200.267 157.113 199.252 156.944C198.236 156.775 197.559 156.775 197.051 156.437C196.543 156.268 196.035 155.929 195.866 155.591C195.697 155.253 195.527 154.746 195.527 154.238V63.5894C195.527 63.0821 195.697 62.7438 195.866 62.4056C196.204 62.0673 196.543 61.7291 197.22 61.56C197.897 61.3908 198.744 61.0526 199.929 61.0526C201.114 60.8835 202.468 60.8835 204.161 60.8835C205.854 60.8835 207.208 60.8835 208.393 61.0526C209.578 61.2217 210.425 61.3908 211.102 61.56C211.779 61.7291 212.287 62.0673 212.456 62.4056C212.795 62.7438 212.795 63.2512 212.795 63.5894V97.5827C214.318 96.0606 215.842 94.7077 217.535 93.5238C219.058 92.34 220.582 91.4944 222.275 90.8179C223.799 90.1414 225.491 89.6341 227.015 89.2958C228.708 88.9576 230.401 88.7884 232.263 88.7884C236.834 88.7884 240.727 89.6341 243.775 91.4944C246.991 93.3547 249.53 95.7224 251.562 98.7666C253.593 101.811 254.948 105.362 255.963 109.59C256.81 113.649 257.318 118.046 257.318 122.613ZM239.373 123.796C239.373 121.26 239.204 118.723 238.865 116.186C238.527 113.818 237.85 111.62 236.834 109.759C235.818 107.899 234.633 106.377 233.109 105.193C231.586 104.009 229.554 103.502 227.354 103.502C226.169 103.502 225.153 103.671 223.968 104.009C222.783 104.348 221.767 104.855 220.582 105.701C219.397 106.546 218.212 107.561 217.027 108.745C215.842 109.929 214.488 111.451 213.133 113.311V133.605C215.503 136.65 217.873 139.017 220.074 140.709C222.275 142.4 224.645 143.076 227.015 143.076C229.216 143.076 231.247 142.569 232.771 141.385C234.294 140.201 235.649 138.679 236.665 136.988C237.68 135.128 238.527 133.098 238.865 130.73C239.035 128.532 239.373 126.164 239.373 123.796Z" fill="#9C9B9B"/>
<path d="M81.4276 140.371C81.4276 141.554 81.4276 142.569 81.2583 143.246C81.2583 144.091 81.089 144.768 80.9197 145.275C80.7504 145.782 80.5811 146.29 80.4118 146.797C80.2425 147.135 79.7347 147.643 79.2268 148.15C78.7189 148.657 77.7032 149.334 76.3489 150.18C74.8253 151.025 73.1324 151.871 71.1009 152.547C69.0695 153.224 66.6994 153.9 63.9908 154.408C61.2822 154.915 58.4043 155.084 55.3571 155.084C49.2627 155.084 43.6762 154.069 38.7668 152.209C33.8574 150.349 29.6252 147.474 26.2394 143.753C22.8536 140.032 20.145 135.297 18.2828 129.716C16.4207 124.135 15.5742 117.539 15.5742 110.098C15.5742 102.487 16.59 95.8917 18.6214 89.9724C20.6529 84.0532 23.5308 79.1487 27.0859 75.2589C30.6409 71.2 35.0424 68.3249 40.1211 66.1264C45.1998 64.0969 50.7863 63.0822 56.8807 63.0822C59.42 63.0822 61.7901 63.2513 63.9908 63.7587C66.3609 64.0969 68.3923 64.7734 70.4238 65.4499C72.4553 66.1264 74.1481 66.8029 75.6717 67.8176C77.1953 68.6632 78.3804 69.5088 78.8882 70.0161C79.5654 70.6926 79.904 71.2 80.2425 71.5382C80.4118 71.8765 80.5811 72.553 80.7504 73.0603C80.9197 73.7368 80.9197 74.4133 81.089 75.2589C81.089 76.1045 81.2583 77.2884 81.2583 78.4722C81.2583 79.8252 81.2583 81.009 81.089 82.0237C80.9197 83.0385 80.9197 83.715 80.5811 84.3914C80.4118 85.0679 80.0732 85.4062 79.7347 85.7444C79.3961 86.0827 79.0575 86.0827 78.5497 86.0827C77.8725 86.0827 77.0261 85.7444 76.0103 84.8988C74.9946 84.0532 73.6403 83.2076 71.9474 82.1929C70.2545 81.1781 68.223 80.3325 66.0223 79.4869C63.6522 78.6413 60.9436 78.3031 57.7271 78.3031C54.1721 78.3031 50.9556 78.9796 48.247 80.5017C45.5383 82.0238 43.1683 84.0532 41.1368 86.7591C39.1054 89.4651 37.751 92.6784 36.7353 96.5682C35.7196 100.458 35.2117 104.686 35.2117 109.421C35.2117 114.664 35.7196 119.23 36.9046 122.951C37.9203 126.841 39.4439 129.885 41.4754 132.422C43.5069 134.959 45.8769 136.819 48.7548 138.003C51.6327 139.187 54.6799 139.863 58.235 139.863C61.4515 139.863 64.1601 139.525 66.5302 138.679C68.9002 138.003 70.9317 137.157 72.6245 136.143C74.3174 135.297 75.6717 134.451 76.6875 133.606C77.7032 132.929 78.5497 132.422 79.2268 132.422C79.7347 132.422 80.0732 132.591 80.4118 132.76C80.7504 132.929 80.9197 133.267 81.089 133.944C81.2583 134.451 81.4276 135.297 81.4276 136.312C81.2583 137.326 81.4276 138.679 81.4276 140.371Z" fill="#FFCB05"/>
<path d="M110.715 151.532C110.715 152.04 110.545 152.378 110.376 152.716C110.038 153.054 109.699 153.393 109.022 153.562C108.345 153.731 107.498 153.9 106.313 154.069C105.128 154.238 103.774 154.238 102.081 154.238C100.388 154.238 99.0338 154.238 97.8488 154.069C96.6638 153.9 95.8173 153.731 95.1402 153.562C94.463 153.393 93.9551 153.054 93.7859 152.716C93.4473 152.378 93.4473 152.04 93.4473 151.532V61.0527C93.4473 60.5453 93.6166 60.2071 93.7859 59.8688C94.1244 59.5306 94.463 59.1923 95.1402 59.0232C95.8173 58.8541 96.6638 58.5159 97.8488 58.5159C99.0338 58.3468 100.388 58.3467 102.081 58.3467C103.774 58.3467 105.128 58.3468 106.313 58.5159C107.498 58.685 108.345 58.8541 109.022 59.0232C109.699 59.1923 110.207 59.5306 110.376 59.8688C110.715 60.2071 110.715 60.7144 110.715 61.0527V151.532Z" fill="#FFCB05"/>
<path d="M183.337 151.532C183.337 152.04 183.168 152.378 182.999 152.716C182.829 153.055 182.322 153.393 181.814 153.562C181.306 153.731 180.459 153.9 179.613 154.069C178.597 154.238 177.412 154.238 176.058 154.238C174.534 154.238 173.349 154.238 172.333 154.069C171.318 153.9 170.641 153.731 170.133 153.562C169.625 153.393 169.117 153.055 168.948 152.716C168.778 152.378 168.609 152.04 168.609 151.532V144.429C165.223 148.15 161.838 150.856 158.283 152.716C154.727 154.577 151.172 155.422 147.448 155.422C143.216 155.422 139.661 154.746 136.783 153.393C133.905 152.04 131.535 150.179 129.842 147.812C128.149 145.444 126.795 142.738 126.118 139.525C125.44 136.312 124.933 132.422 124.933 127.856V90.1415C124.933 89.6341 125.102 89.2959 125.271 88.9577C125.44 88.6194 125.948 88.2812 126.626 88.1121C127.303 87.9429 128.149 87.7738 129.334 87.6047C130.519 87.4356 131.873 87.4356 133.566 87.4356C135.259 87.4356 136.614 87.4356 137.799 87.6047C138.984 87.7738 139.83 87.9429 140.507 88.1121C141.184 88.2812 141.692 88.6194 141.861 88.9577C142.2 89.2959 142.2 89.6341 142.2 90.1415V124.811C142.2 128.025 142.369 130.392 142.877 132.253C143.216 133.944 143.893 135.466 144.739 136.65C145.586 137.834 146.602 138.848 147.956 139.525C149.31 140.201 150.834 140.54 152.527 140.54C154.727 140.54 156.928 139.694 159.129 138.172C161.33 136.65 163.7 134.282 166.239 131.238V90.1415C166.239 89.6341 166.408 89.2959 166.578 88.9577C166.747 88.6194 167.255 88.2812 167.932 88.1121C168.609 87.9429 169.456 87.7738 170.641 87.6047C171.826 87.4356 173.18 87.4356 174.873 87.4356C176.566 87.4356 177.92 87.4356 179.105 87.6047C180.29 87.7738 181.137 87.9429 181.644 88.1121C182.322 88.2812 182.829 88.6194 182.999 88.9577C183.337 89.2959 183.337 89.6341 183.337 90.1415V151.532Z" fill="#FFCB05"/>
<path d="M259.858 120.076C259.858 125.488 259.181 130.392 257.996 134.789C256.811 139.187 255.118 142.907 252.748 145.951C250.547 148.996 247.669 151.363 244.453 153.054C241.236 154.746 237.512 155.591 233.279 155.591C231.248 155.591 229.217 155.422 227.524 155.084C225.661 154.746 223.969 154.069 222.445 153.224C220.752 152.378 219.228 151.194 217.705 149.841C216.181 148.488 214.488 146.966 212.796 145.106V151.701C212.796 152.209 212.626 152.547 212.457 153.054C212.288 153.393 211.78 153.731 211.272 153.9C210.764 154.069 209.918 154.238 208.902 154.407C207.886 154.577 206.701 154.577 205.347 154.577C203.992 154.577 202.807 154.577 201.792 154.407C200.776 154.238 200.099 154.238 199.591 153.9C199.083 153.731 198.575 153.393 198.406 153.054C198.237 152.716 198.067 152.209 198.067 151.701V61.0527C198.067 60.5453 198.237 60.2071 198.406 59.8688C198.745 59.5306 199.083 59.1923 199.76 59.0232C200.437 58.8541 201.284 58.5159 202.469 58.5159C203.654 58.3468 205.008 58.3467 206.701 58.3467C208.394 58.3467 209.748 58.3468 210.933 58.5159C212.118 58.685 212.965 58.8541 213.642 59.0232C214.319 59.1923 214.827 59.5306 214.996 59.8688C215.335 60.2071 215.335 60.7144 215.335 61.0527V95.046C216.858 93.5239 218.382 92.1709 220.075 90.9871C221.599 89.8032 223.122 88.9576 224.815 88.2811C226.339 87.6047 228.032 87.0973 229.555 86.7591C231.248 86.4208 232.941 86.2517 234.803 86.2517C239.374 86.2517 243.268 87.0973 246.315 88.9576C249.531 90.818 252.071 93.1856 254.102 96.2298C256.133 99.274 257.488 102.826 258.503 107.054C259.35 111.112 259.858 115.51 259.858 120.076ZM241.913 121.26C241.913 118.723 241.744 116.186 241.405 113.649C241.067 111.282 240.39 109.083 239.374 107.223C238.358 105.362 237.173 103.84 235.65 102.656C234.126 101.473 232.094 100.965 229.894 100.965C228.709 100.965 227.693 101.134 226.508 101.473C225.323 101.811 224.307 102.318 223.122 103.164C221.937 104.009 220.752 105.024 219.567 106.208C218.382 107.392 217.028 108.914 215.673 110.774V131.069C218.043 134.113 220.414 136.481 222.614 138.172C224.815 139.863 227.185 140.54 229.555 140.54C231.756 140.54 233.787 140.032 235.311 138.848C236.835 137.664 238.189 136.142 239.205 134.451C240.22 132.591 241.067 130.561 241.405 128.194C241.575 125.995 241.913 123.627 241.913 121.26Z" fill="#FFCB05"/>
<path d="M257.659 107.223C256.812 103.164 255.289 99.7814 253.427 96.7372C251.564 93.8621 249.025 91.4944 245.978 89.6341C242.931 87.9429 239.206 87.0973 234.805 87.0973C233.112 87.0973 231.25 87.2664 229.726 87.6047C228.203 87.9429 226.51 88.4503 225.155 89.1267C223.632 89.8032 222.108 90.6488 220.585 91.8327C219.061 92.8474 217.537 94.2004 216.014 95.7225L214.49 97.2446V61.0527C214.49 60.7144 214.49 60.5453 214.321 60.3762C214.152 60.207 213.982 60.0379 213.305 59.6997C212.628 59.5306 211.951 59.3614 210.935 59.1923C209.919 59.0232 208.565 59.0232 206.872 59.0232C205.179 59.0232 203.825 59.0232 202.809 59.1923C201.794 59.3614 200.947 59.5306 200.27 59.6997C199.593 59.8688 199.424 60.207 199.254 60.3762C199.085 60.5453 199.085 60.8835 199.085 61.0527V122.613C204.502 122.444 209.75 122.105 214.66 121.429V110.436L214.829 110.267C216.183 108.407 217.537 106.884 218.892 105.531C220.246 104.179 221.431 103.164 222.616 102.318C223.801 101.473 225.155 100.965 226.34 100.627C227.525 100.289 228.71 100.12 229.896 100.12C232.435 100.12 234.466 100.796 236.159 101.98C237.852 103.164 239.206 104.855 240.222 106.715C241.238 108.745 241.915 110.943 242.254 113.48C242.423 114.157 242.423 114.833 242.592 115.341C248.517 113.48 253.765 111.451 258.336 109.421C257.997 108.745 257.828 108.068 257.659 107.223Z" fill="url(#paint0_linear)"/>
<path d="M181.311 88.9576C180.803 88.7885 179.957 88.6194 178.941 88.4503C177.925 88.2812 176.402 88.2812 174.878 88.2812C173.185 88.2812 171.831 88.2812 170.815 88.4503C169.799 88.6194 168.953 88.7885 168.276 88.9576C167.599 89.1268 167.429 89.465 167.26 89.465C167.091 89.6341 167.091 89.9724 167.091 90.1415V120.076C172.339 121.091 177.587 121.767 182.665 122.105V90.1415C182.665 89.8032 182.665 89.6341 182.496 89.465C182.158 89.2959 181.988 89.1268 181.311 88.9576Z" fill="url(#paint1_linear)"/>
<path d="M141.188 113.649V90.1415C141.188 89.8032 141.188 89.6341 141.019 89.465C140.849 89.2958 140.68 89.1267 140.003 88.9576C139.326 88.7885 138.649 88.6194 137.463 88.4502C136.448 88.2811 134.924 88.2811 133.401 88.2811C131.708 88.2811 130.353 88.2811 129.338 88.4502C128.322 88.6194 127.475 88.7885 126.798 88.9576C126.121 89.1267 125.952 89.465 125.783 89.465C125.613 89.6341 125.613 89.9723 125.613 90.1415V110.098C130.861 111.112 136.109 112.127 141.188 113.649Z" fill="url(#paint2_linear)"/>
<path d="M109.871 107.73V61.0527C109.871 60.7144 109.871 60.5453 109.702 60.3762C109.533 60.207 109.363 60.0379 108.686 59.6997C108.009 59.5306 107.332 59.3614 106.316 59.1923C105.3 59.0232 103.946 59.0232 102.253 59.0232C100.56 59.0232 99.2059 59.0232 98.1902 59.1923C97.1744 59.3614 96.328 59.5306 95.6508 59.6997C94.9737 59.8688 94.8044 60.207 94.6351 60.3762C94.4658 60.5453 94.4658 60.8835 94.4658 61.0527V106.546C99.3752 106.884 104.623 107.223 109.871 107.73Z" fill="url(#paint3_linear)"/>
<path d="M303.029 213.938H169.799C165.736 213.938 162.689 210.387 163.366 206.497L167.598 173.687C168.275 169.628 171.661 166.753 175.724 166.753H308.954C313.017 166.753 316.064 170.305 315.387 174.195L311.155 207.004C310.478 211.063 307.092 213.938 303.029 213.938Z" fill="#FFCB05"/>
<path opacity="0.3" d="M186.894 222.225H17.944C12.8654 222.225 8.97173 217.659 9.81818 212.754L15.2354 171.15C15.9126 166.077 20.3141 162.356 25.562 162.356H194.512C199.591 162.356 203.485 166.922 202.638 171.827L197.221 213.431C196.374 218.504 191.973 222.225 186.894 222.225Z" fill="#010101"/>
<path d="M189.096 220.365H20.1462C15.0675 220.365 11.1739 215.798 12.0203 210.894L17.4376 169.29C18.1147 164.216 22.5162 160.496 27.7642 160.496H196.714C201.793 160.496 205.687 165.062 204.84 169.967L199.423 211.57C198.577 216.475 194.175 220.365 189.096 220.365Z" fill="white" stroke="#D9D9D8" stroke-width="0.253933" stroke-miterlimit="10"/>
<path d="M169.63 180.79C168.953 179.945 167.768 179.607 166.075 179.607C164.551 179.607 163.197 180.114 162.012 180.959C160.827 181.805 159.98 183.496 159.473 185.695C159.473 185.695 159.473 186.033 159.303 186.371C159.303 186.371 163.535 186.371 166.921 186.371C168.953 186.371 169.968 185.864 170.307 184.173C170.476 182.651 170.307 181.467 169.63 180.79ZM176.571 185.018C176.232 186.879 175.386 188.232 174.031 189.077C172.508 189.923 170.646 190.43 168.445 190.43C168.445 190.43 163.705 190.599 161.165 190.092C159.642 189.754 159.303 187.555 159.134 186.879C158.626 189.416 158.626 191.107 158.626 191.107C158.626 192.967 159.303 194.151 160.488 194.997C161.673 195.673 163.197 196.18 165.228 196.18C166.413 196.18 167.768 196.18 169.122 196.011C170.476 195.842 171.153 195.842 172.338 195.673H172.508C172.677 195.673 173.016 195.673 173.016 196.18L172.508 199.394C172.508 199.563 172.338 199.732 172 199.901C170.646 200.239 169.291 200.578 167.768 200.747C166.244 200.916 164.89 201.085 163.535 201.085C161.165 201.085 159.134 200.747 157.61 200.239C156.087 199.732 154.902 198.886 154.055 197.872C153.209 196.857 152.701 195.504 152.362 193.982C152.193 192.46 152.193 190.599 152.532 188.739L152.87 187.217C153.547 183.496 154.902 180.452 157.272 178.254C159.642 176.055 162.858 175.04 167.091 175.04C170.815 175.04 173.523 176.055 175.047 177.746C176.571 179.268 177.079 181.974 176.571 185.018ZM89.5563 175.04C87.017 175.04 74.151 175.04 72.2888 175.04C71.1038 175.04 70.7652 175.717 70.596 176.901C70.4267 177.915 70.2574 179.099 70.0881 180.114C69.9188 180.959 70.4267 181.298 71.2731 181.298C71.781 181.298 72.2889 181.298 72.7967 181.298C75.1668 181.298 78.0447 181.298 78.214 181.298C78.7218 181.298 78.3832 181.467 78.214 181.467C77.0289 181.805 73.6432 184.004 72.966 188.57C72.7967 189.416 71.2731 198.886 71.2731 198.886C71.2731 199.055 71.2731 199.394 71.2731 199.563C71.2731 200.408 71.781 200.747 72.1196 200.747H75.6746C75.6746 200.747 75.6746 200.747 76.0132 200.747C77.3675 200.747 77.7061 200.408 78.0447 199.055C78.3832 197.026 80.7533 182.482 80.9226 181.467C81.9383 181.467 83.2926 181.467 84.9855 181.467C86.8477 181.467 89.0484 181.298 90.0642 182.651C91.0799 184.004 90.9106 185.357 90.572 187.555L88.7099 199.055C88.7099 199.225 88.7099 199.563 88.7099 199.732C88.7099 200.578 89.2177 200.916 89.5563 200.916H93.1114C93.1114 200.916 93.1114 200.916 93.4499 200.916C94.8042 200.916 95.1428 200.578 95.4814 199.225C95.4814 198.717 97.8514 184.68 98.0207 183.665C98.3593 176.731 92.0956 175.04 89.5563 175.04ZM187.067 177.408C187.236 176.562 187.236 174.871 185.374 174.871H182.157C181.48 174.871 180.634 175.378 180.634 176.224L176.909 199.055C176.74 200.239 177.079 200.747 177.756 200.747H182.326C183.004 200.747 183.512 200.239 183.681 199.732L184.189 197.026C184.189 197.026 185.374 189.585 186.389 183.496C186.559 182.482 185.882 181.974 185.035 181.974H181.311H180.972C180.972 181.974 180.803 181.974 181.141 181.974C182.834 181.467 186.559 179.945 187.067 177.408ZM106.485 181.805H102.761H102.422C102.422 181.805 102.253 181.805 102.592 181.805C104.623 181.467 108.517 179.945 108.855 177.408C109.025 176.562 109.025 174.871 107.162 174.871H103.946C103.269 174.871 102.422 175.378 102.422 176.224L98.6979 199.055C98.5286 200.239 98.8672 200.747 99.5443 200.747H104.115C104.792 200.747 105.3 200.239 105.469 199.732L105.977 197.026C105.977 197.026 107.162 189.585 108.178 183.496C108.009 182.312 107.332 181.805 106.485 181.805ZM150.839 175.548C149.823 175.209 148.638 174.871 147.284 174.702C145.929 174.533 144.575 174.364 143.052 174.364C141.697 174.364 140.343 174.533 139.158 174.871C137.973 175.209 136.957 175.548 135.941 176.224C135.095 176.731 134.249 177.577 133.741 178.423C133.063 179.268 132.725 180.452 132.556 181.636C132.217 183.496 132.556 184.849 133.402 186.033C134.249 187.217 135.603 188.063 137.465 188.908L141.189 190.599C141.867 190.938 142.544 191.276 142.882 191.614C143.39 191.952 143.559 192.629 143.39 193.305C143.221 194.151 142.882 194.827 142.205 195.166C141.528 195.504 140.512 195.673 139.158 195.673C137.973 195.673 136.619 195.673 135.095 195.504C133.571 195.504 132.217 195.335 131.032 195.166C131.032 195.166 131.032 195.166 130.863 195.166C130.524 195.166 130.524 195.335 130.355 195.504C130.355 195.673 130.355 195.504 130.355 195.673L129.847 199.225C129.847 199.563 129.847 199.901 130.355 199.901C131.709 200.239 133.233 200.578 134.756 200.747C136.28 200.916 137.804 201.085 139.496 201.085C142.374 201.085 144.914 200.408 146.776 199.225C148.638 197.872 149.823 196.18 150.162 193.813C150.5 191.952 150.162 190.599 149.485 189.416C148.638 188.232 147.453 187.217 145.591 186.54L141.697 184.849C141.02 184.511 140.343 184.173 140.004 183.835C139.496 183.496 139.327 182.989 139.496 182.143C139.666 181.298 140.004 180.621 140.682 180.283C141.359 179.945 142.205 179.945 143.39 179.945C144.575 179.945 145.76 179.945 146.776 180.114C147.961 180.283 148.977 180.283 150.162 180.452H150.331C150.5 180.452 150.67 180.283 150.67 180.114C150.67 179.945 150.67 180.114 150.67 179.945L151.177 176.393C151.347 175.717 151.008 175.548 150.839 175.548ZM129.678 179.945C129.678 180.114 129.508 180.283 129.339 180.283C129.17 180.283 129.339 180.283 129.339 180.283C129.17 180.283 129.17 180.283 129.17 180.283C128.154 180.114 126.969 179.945 125.784 179.945C124.599 179.945 123.414 179.776 122.398 179.776C121.213 179.776 120.367 179.945 119.69 180.114C119.013 180.452 118.505 180.959 118.505 181.974C118.335 182.651 118.505 183.327 119.013 183.665C119.351 184.004 120.028 184.342 120.705 184.68L124.599 186.371C126.292 187.217 127.646 188.063 128.493 189.246C129.339 190.43 129.508 191.952 129.17 193.644C128.831 196.011 127.646 197.872 125.784 199.055C123.922 200.408 121.383 200.916 118.505 200.916C116.812 200.916 115.288 200.747 113.765 200.578C112.241 200.408 110.887 200.07 109.363 199.732C109.024 199.732 108.855 199.394 108.855 199.055L109.363 195.504C109.363 195.504 109.363 195.673 109.363 195.335C109.363 195.166 109.532 194.997 109.871 194.997C110.04 194.997 110.04 194.997 110.04 194.997C111.225 195.166 112.58 195.335 114.103 195.335C115.627 195.335 116.981 195.504 118.166 195.504C119.52 195.504 120.536 195.335 121.213 194.997C121.89 194.658 122.398 193.982 122.398 193.136C122.568 192.46 122.398 191.783 121.89 191.445C121.552 191.107 120.875 190.769 120.198 190.43L116.473 188.739C114.611 187.893 113.257 187.048 112.41 185.864C111.564 184.68 111.225 183.327 111.564 181.467C111.733 180.114 112.241 179.099 112.749 178.254C113.426 177.408 114.103 176.562 114.95 176.055C115.796 175.548 116.981 175.04 118.166 174.702C119.351 174.364 120.705 174.195 122.06 174.195C123.414 174.195 124.938 174.364 126.292 174.533C127.646 174.702 128.831 175.04 129.847 175.378C130.186 175.548 130.524 175.717 130.355 176.055L129.678 179.945C129.678 179.945 129.678 179.776 129.678 179.945Z" fill="#025B8F"/>
<path d="M108.516 210.217C107.162 210.386 106.824 210.556 106.654 211.063C106.654 211.401 106.824 211.57 107.331 211.57C107.501 211.57 107.839 211.57 108.347 211.401L108.516 210.217ZM106.993 212.585C105.808 212.585 105.3 212.078 105.469 211.063C105.639 209.879 106.654 209.372 108.686 209.203C108.686 208.695 108.855 208.526 108.686 208.526C108.686 208.357 108.347 208.357 108.178 208.357C107.67 208.357 106.993 208.526 106.316 209.033L106.146 209.203L106.316 208.019C107.162 207.681 107.839 207.511 108.516 207.511C109.194 207.511 109.701 207.681 109.871 208.188C110.04 208.526 109.871 208.695 109.871 209.372L109.363 212.585H109.024C108.178 212.585 107.67 212.585 106.993 212.585Z" fill="#E52F36"/>
<path d="M111.732 206.666L111.901 205.313H113.256L113.086 206.666H111.732ZM110.886 212.585L111.732 207.511H112.917L112.071 212.585H110.886Z" fill="#E52F36"/>
<path d="M114.947 212.754C114.439 212.754 114.101 212.585 113.593 212.416L113.762 211.232L113.931 211.401C114.27 211.739 114.609 211.909 115.116 211.909C115.624 211.909 115.963 211.739 116.132 211.401C116.132 211.232 116.132 211.063 115.963 210.894C115.794 210.894 115.794 210.725 115.286 210.556C114.439 210.048 114.101 209.71 114.27 209.033C114.439 208.188 115.286 207.511 116.64 207.511C117.148 207.511 117.486 207.511 117.994 207.85L117.825 209.033L117.656 208.864C117.317 208.695 116.979 208.526 116.471 208.526C115.963 208.526 115.624 208.695 115.624 209.033C115.624 209.203 115.624 209.372 116.301 209.71C116.809 209.879 117.148 210.048 117.317 210.386C117.486 210.725 117.656 211.063 117.656 211.401C117.148 212.078 116.132 212.754 114.947 212.754Z" fill="#E52F36"/>
<path d="M124.261 208.357C123.076 208.357 122.229 209.033 122.06 210.048C121.891 211.063 122.399 211.739 123.414 211.739C123.753 211.739 123.922 211.739 124.261 211.57L124.769 208.357C124.599 208.357 124.43 208.357 124.261 208.357ZM123.584 215.122L124.092 212.585C123.753 212.585 123.414 212.754 123.076 212.754C121.383 212.754 120.537 211.739 120.706 210.217C121.044 208.526 122.399 207.511 124.43 207.511C124.938 207.511 125.446 207.511 125.954 207.681H126.123L124.769 215.291H123.584V215.122Z" fill="#E52F36"/>
<path d="M129.002 212.585C128.156 212.585 127.648 212.416 127.309 212.078C126.971 211.739 126.971 211.401 126.971 210.556L127.479 207.342H128.664L128.156 210.556C127.986 211.401 128.325 211.57 129.171 211.57C129.51 211.57 129.679 211.57 130.018 211.57L130.695 207.342H131.88L131.034 212.247H130.864C130.356 212.585 129.679 212.585 129.002 212.585Z" fill="#E52F36"/>
<path d="M136.958 209.203C136.958 208.526 136.619 208.188 135.942 208.188C135.265 208.188 134.757 208.526 134.419 209.203H136.958ZM135.434 212.754C133.741 212.754 132.895 211.739 133.064 210.217C133.403 208.526 134.588 207.511 136.281 207.511C137.127 207.511 137.804 207.85 138.143 208.357C138.312 208.695 138.312 209.203 138.312 209.879V210.217H134.588C134.419 211.063 134.926 211.57 135.942 211.57C136.619 211.57 137.127 211.401 137.804 211.063L137.974 210.894L137.804 212.078C136.789 212.585 136.111 212.754 135.434 212.754Z" fill="#E52F36"/>
<path d="M141.528 212.585L142.205 208.526H141.358L141.528 207.511H142.374V207.342C142.543 206.158 142.882 205.651 143.559 205.144C144.067 204.805 144.575 204.636 145.252 204.636C145.421 204.636 145.591 204.636 145.76 204.636H145.929L145.76 205.651H145.591C145.421 205.651 145.252 205.651 145.252 205.651C144.913 205.651 144.575 205.82 144.406 205.989C144.067 206.328 144.067 206.666 143.898 207.342V207.511H145.252L145.083 208.526H143.728L143.051 212.585H141.528Z" fill="#E52F36"/>
<path d="M148.132 210.217C146.777 210.386 146.439 210.556 146.269 211.063C146.269 211.401 146.439 211.57 146.947 211.57C147.116 211.57 147.454 211.57 147.962 211.401L148.132 210.217ZM146.608 212.585C145.423 212.585 144.915 212.078 145.084 211.063C145.254 209.879 146.269 209.372 148.301 209.203C148.301 208.695 148.47 208.526 148.301 208.526C148.301 208.357 147.962 208.357 147.793 208.357C147.285 208.357 146.608 208.526 145.931 209.033L145.762 209.203L145.931 208.019C146.777 207.681 147.454 207.511 148.132 207.511C148.809 207.511 149.317 207.681 149.486 208.188C149.655 208.526 149.486 208.695 149.486 209.372L148.978 212.585H148.64C147.793 212.585 147.285 212.585 146.608 212.585Z" fill="#E52F36"/>
<path d="M150.501 212.585L151.347 207.85C152.025 207.681 152.871 207.511 153.548 207.511C153.887 207.511 154.225 207.511 154.564 207.681L154.395 208.695H154.225C153.887 208.526 153.717 208.526 153.379 208.526C153.04 208.526 152.702 208.526 152.363 208.695L151.686 212.754H150.501V212.585Z" fill="#E52F36"/>
<path d="M161.166 212.585L161.674 209.372C161.843 208.695 161.505 208.357 160.827 208.357C160.489 208.357 160.15 208.357 159.812 208.526C159.812 208.695 159.812 208.864 159.812 209.372L159.304 212.754H158.119L158.627 209.541C158.796 208.864 158.457 208.526 157.78 208.526C157.442 208.526 157.103 208.526 156.765 208.695L156.087 212.754H154.902L155.749 207.85H155.918C156.765 207.681 157.611 207.511 158.288 207.511C158.965 207.511 159.304 207.681 159.642 207.85C160.32 207.681 160.827 207.511 161.505 207.511C162.182 207.511 162.859 207.681 163.028 208.019C163.367 208.357 163.367 208.695 163.198 209.372L162.69 212.754H161.166V212.585Z" fill="#E52F36"/>
<path d="M102.592 212.585L103.1 209.372C103.269 208.695 102.93 208.357 102.253 208.357C101.915 208.357 101.576 208.357 101.237 208.526C101.237 208.695 101.237 208.864 101.237 209.372L100.73 212.754H99.5446L100.052 209.541C100.222 208.864 99.8832 208.526 99.206 208.526C98.8674 208.526 98.5289 208.526 98.1903 208.695L97.5131 212.754H96.3281L97.1746 207.85H97.3439C98.1903 207.681 99.0367 207.511 99.7139 207.511C100.391 207.511 100.73 207.681 101.068 207.85C101.745 207.681 102.253 207.511 102.93 207.511C103.608 207.511 104.285 207.681 104.454 208.019C104.793 208.357 104.793 208.695 104.623 209.372L104.115 212.754H102.592V212.585Z" fill="#E52F36"/>
<path d="M166.075 206.835L168.445 204.636L169.63 204.805L167.091 207.004L166.075 206.835ZM166.922 210.217C165.567 210.386 165.229 210.556 165.06 211.063C165.06 211.401 165.229 211.57 165.737 211.57C165.906 211.57 166.245 211.57 166.752 211.401L166.922 210.217ZM165.398 212.585C164.213 212.585 163.705 212.078 163.875 211.063C164.044 209.879 165.06 209.372 167.091 209.203C167.091 208.695 167.26 208.526 167.091 208.526C167.091 208.357 166.752 208.357 166.583 208.357C166.075 208.357 165.398 208.526 164.721 209.034L164.552 209.203L164.721 208.019C165.567 207.681 166.245 207.511 166.922 207.511C167.599 207.511 168.107 207.681 168.276 208.188C168.445 208.526 168.276 208.695 168.276 209.372L167.768 212.585H167.43C166.583 212.585 166.075 212.585 165.398 212.585Z" fill="#E52F36"/>
<path d="M171.662 212.754C169.969 212.754 169.122 211.739 169.292 210.217C169.63 208.526 170.985 207.511 172.678 207.511C173.185 207.511 173.524 207.681 174.032 207.85L173.863 209.033L173.693 208.864C173.355 208.526 173.016 208.526 172.508 208.526C171.492 208.526 170.646 209.203 170.477 210.217C170.307 211.232 170.815 211.909 171.831 211.909C172.339 211.909 172.678 211.739 173.185 211.57L173.355 211.401L173.185 212.585C172.678 212.585 172.17 212.754 171.662 212.754Z" fill="#E52F36"/>
<path d="M175.215 206.666L175.384 205.313H176.738L176.569 206.666H175.215ZM174.368 212.585L175.215 207.511H176.4L175.553 212.585H174.368Z" fill="#E52F36"/>
<path d="M180.126 210.217C178.771 210.386 178.433 210.556 178.264 211.063C178.264 211.401 178.433 211.57 178.941 211.57C179.11 211.57 179.449 211.57 179.957 211.401L180.126 210.217ZM178.602 212.585C177.417 212.585 176.909 212.078 177.079 211.063C177.248 209.879 178.264 209.372 180.295 209.203C180.295 208.695 180.464 208.526 180.295 208.526C180.295 208.357 179.957 208.357 179.787 208.357C179.279 208.357 178.602 208.526 177.925 209.034L177.756 209.203L177.925 208.019C178.772 207.681 179.449 207.511 180.126 207.511C180.803 207.511 181.311 207.681 181.48 208.188C181.649 208.526 181.48 208.695 181.48 209.372L180.972 212.585H180.634C179.787 212.585 179.279 212.585 178.602 212.585Z" fill="#E52F36"/>
<path d="M57.8997 188.908L55.3604 200.916C61.1162 198.886 65.5177 194.32 66.7027 188.908H57.8997Z" fill="#E52F36"/>
<path d="M59.7598 181.298H66.1928C65.177 178.592 63.4841 176.224 61.1141 174.364L59.7598 181.298Z" fill="#E52F36"/>
<path d="M48.4183 195.504C49.0955 193.474 49.7727 190.261 56.0363 189.077C56.5442 188.908 56.5442 188.908 56.2056 188.908C55.5285 188.908 36.3988 188.908 36.3988 188.908C36.5681 187.893 37.2453 184.68 37.5839 183.496C38.0917 181.636 39.1075 181.129 40.9696 181.129H51.6348L54.0049 170.474C52.1427 169.967 50.2805 169.628 48.2491 169.628C37.7532 169.628 29.458 176.901 29.458 185.864C29.458 194.489 37.2453 201.423 47.064 202.1L48.4183 195.504Z" fill="#E52F36"/>
<path d="M214.319 176.393H214.658C215.843 176.393 217.028 176.224 217.874 176.224C220.583 176.224 222.445 176.731 223.8 177.746C225.154 178.761 226 180.452 226 182.651C226 184.849 225.154 186.71 223.63 187.893C222.276 188.908 220.583 189.416 217.874 189.416C216.859 189.416 215.504 189.416 214.489 189.246V176.393H214.319ZM217.367 186.541C218.044 186.541 218.382 186.541 218.552 186.541C221.26 186.541 222.784 185.188 222.784 182.651C222.784 181.467 222.445 180.452 221.768 179.945C221.091 179.268 220.075 178.93 218.552 178.93C218.213 178.93 217.874 178.93 217.197 179.099V186.541H217.367Z" fill="#025B8F"/>
<path d="M229.388 185.526C229.557 186.54 230.403 187.217 231.758 187.217C232.773 187.217 233.789 186.879 234.636 186.371V188.57C233.62 189.077 232.435 189.416 231.25 189.416C228.372 189.416 226.51 187.724 226.51 184.849C226.51 181.974 228.203 180.114 230.911 180.114C233.451 180.114 234.974 181.805 234.974 184.68C234.974 184.849 234.974 185.018 234.974 185.357V185.526H229.388ZM232.604 183.496C232.435 182.482 231.927 181.974 231.081 181.974C230.065 181.974 229.557 182.651 229.388 183.496H232.604Z" fill="#025B8F"/>
<path d="M216.183 195.842C216.352 196.857 216.69 198.041 217.198 199.394C217.198 199.563 217.368 199.901 217.537 200.408C217.706 200.916 217.706 200.916 217.875 201.254L218.045 203.114L218.214 201.254L218.383 200.916C218.722 200.07 219.061 199.225 219.399 198.379C219.738 197.364 219.907 196.688 220.076 195.842H222.954L222.785 196.18C222.277 197.703 221.938 198.886 221.261 200.408C220.753 201.761 220.076 203.114 219.399 204.298L219.23 204.636H216.521L216.352 204.298C214.998 201.423 214.151 198.548 213.305 195.842H216.183Z" fill="#025B8F"/>
<path d="M223.634 196.519C224.819 196.011 226.004 195.673 227.358 195.673C228.713 195.673 229.728 196.011 230.067 196.857C230.236 197.195 230.405 197.872 230.405 198.886V204.467C229.22 204.637 227.527 204.806 226.512 204.806C224.142 204.806 223.126 203.96 223.126 202.269C223.126 200.409 224.48 199.394 227.866 199.225V198.548C227.866 198.041 227.697 197.872 226.85 197.872C225.835 197.872 224.65 198.21 223.634 198.717V196.519ZM227.866 200.916C226.004 201.085 225.496 201.423 225.496 202.1C225.496 202.607 225.835 202.945 226.512 202.945C226.85 202.945 227.358 202.945 227.866 202.776V200.916Z" fill="#025B8F"/>
<path d="M231.758 196.35C233.451 195.842 234.805 195.673 236.159 195.673C237.514 195.673 238.529 196.011 239.207 196.688C239.714 197.364 239.884 197.872 239.884 199.394V204.806H237.175V199.563C237.175 198.548 236.836 198.041 235.821 198.041C235.482 198.041 235.144 198.041 234.466 198.21V204.806H231.758V196.35Z" fill="#025B8F"/>
<path d="M240.561 196.011H242.084V193.475H244.793V196.011H246.655V198.041H244.793V201.085C244.793 202.269 244.962 202.607 245.978 202.607C246.147 202.607 246.316 202.607 246.655 202.438V204.467C246.147 204.637 245.639 204.637 245.131 204.637C243.946 204.637 243.1 204.298 242.592 203.791C242.253 203.284 242.084 202.945 242.084 201.423V198.041H240.73V196.011H240.561Z" fill="#025B8F"/>
<path d="M247.84 196.519C249.025 196.011 250.21 195.673 251.564 195.673C252.919 195.673 253.934 196.011 254.273 196.857C254.442 197.195 254.611 197.872 254.611 198.886V204.467C253.426 204.637 251.734 204.806 250.718 204.806C248.348 204.806 247.332 203.96 247.332 202.269C247.332 200.409 248.686 199.394 252.072 199.225V198.548C252.072 198.041 251.903 197.872 251.056 197.872C250.041 197.872 248.856 198.21 247.84 198.717V196.519ZM252.072 200.916C250.21 201.085 249.702 201.423 249.702 202.1C249.702 202.607 250.041 202.945 250.718 202.945C251.056 202.945 251.564 202.945 252.072 202.776V200.916Z" fill="#025B8F"/>
<path d="M255.624 206.159C256.64 206.666 257.487 206.835 258.672 206.835C260.534 206.835 261.211 206.159 261.211 204.298C260.703 204.637 260.195 204.637 259.349 204.637C256.979 204.637 255.455 203.114 255.455 200.578C255.455 197.364 257.656 195.673 261.719 195.673C262.904 195.673 263.92 195.842 265.274 196.011V198.21C264.597 198.041 264.258 198.041 263.75 198.041V198.379V199.563V201.085C263.75 201.423 263.75 201.761 263.75 202.269C263.75 202.607 263.75 202.776 263.75 202.945C263.75 205.313 263.581 206.497 262.904 207.342C262.057 208.695 260.534 209.372 258.502 209.372C257.487 209.372 256.471 209.203 255.455 208.865V206.159H255.624ZM261.211 197.872C261.211 197.872 261.042 197.872 261.211 197.872H260.872C260.364 197.872 259.687 198.041 259.349 198.21C258.672 198.548 258.333 199.225 258.333 200.239C258.333 201.592 259.01 202.438 260.195 202.438C260.534 202.438 260.872 202.438 261.211 202.269V202.1V201.423C261.211 201.085 261.211 200.747 261.211 200.408V199.056V198.21V197.872Z" fill="#025B8F"/>
<path d="M268.153 201.085C268.323 202.1 269.169 202.776 270.523 202.776C271.539 202.776 272.555 202.438 273.401 201.931V204.129C272.386 204.636 271.201 204.975 270.015 204.975C267.138 204.975 265.275 203.284 265.275 200.408C265.275 197.533 266.968 195.673 269.677 195.673C272.216 195.673 273.74 197.364 273.74 200.239C273.74 200.408 273.74 200.578 273.74 200.916V201.085H268.153ZM271.539 199.056C271.37 198.041 270.862 197.533 270.015 197.533C269 197.533 268.492 198.21 268.323 199.056H271.539Z" fill="#025B8F"/>
<path d="M275.266 196.35C276.959 195.842 278.313 195.673 279.667 195.673C281.021 195.673 282.037 196.011 282.714 196.688C283.222 197.364 283.392 197.872 283.392 199.394V204.806H280.683V199.563C280.683 198.548 280.344 198.041 279.329 198.041C278.99 198.041 278.651 198.041 277.974 198.21V204.806H275.266V196.35Z" fill="#025B8F"/>
<path d="M284.745 202.1C285.761 202.607 286.438 202.776 287.454 202.776C288.131 202.776 288.639 202.607 288.639 202.269C288.639 202.1 288.469 201.931 288.131 201.761L286.946 201.254C285.253 200.408 284.745 199.901 284.745 198.548C284.745 196.857 286.099 195.842 288.469 195.842C289.316 195.842 290.162 196.011 291.009 196.35V198.548C290.162 198.21 289.485 198.041 288.808 198.041C287.962 198.041 287.623 198.21 287.623 198.717C287.623 198.886 287.623 198.886 287.792 199.055C287.792 199.055 287.962 199.225 288.131 199.225C288.469 199.394 288.808 199.563 289.147 199.732C290.84 200.578 291.347 201.085 291.347 202.438C291.347 204.298 289.993 205.313 287.623 205.313C286.607 205.313 285.761 205.144 284.914 204.806V202.1H284.745Z" fill="#025B8F"/>
<path d="M299.304 108.068C328.287 108.068 351.783 84.5957 351.783 55.6408C351.783 26.6858 328.287 3.21323 299.304 3.21323C270.32 3.21323 246.824 26.6858 246.824 55.6408C246.824 84.5957 270.32 108.068 299.304 108.068Z" fill="#F7941D"/>
<path d="M302.522 104.855C331.505 104.855 355.001 81.3824 355.001 52.4275C355.001 23.4726 331.505 0 302.522 0C273.538 0 250.042 23.4726 250.042 52.4275C250.042 81.3824 273.538 104.855 302.522 104.855Z" fill="#FFD200"/>
<path d="M302.686 1.18314C288.297 1.18314 275.092 7.10237 265.781 16.5732C275.092 7.60974 287.789 2.02874 301.84 2.02874C330.28 2.02874 353.304 24.8601 353.304 52.9342C353.304 66.8021 347.717 79.3171 338.575 88.4496C348.225 79.1479 354.15 66.2947 354.15 52.0886C354.319 23.8454 331.127 1.18314 302.686 1.18314Z" fill="#FFE881"/>
<path d="M302.521 91.4944C324.118 91.4944 341.627 74.0036 341.627 52.4275C341.627 30.8514 324.118 13.3605 302.521 13.3605C280.923 13.3605 263.415 30.8514 263.415 52.4275C263.415 74.0036 280.923 91.4944 302.521 91.4944Z" fill="#FDB515"/>
<path d="M300.997 16.0665C322.666 16.0665 340.103 33.4859 340.103 55.1334C340.103 61.0527 338.749 66.6337 336.379 71.7073C339.595 65.9572 341.627 59.3615 341.627 52.2584C341.627 30.6109 324.19 13.1914 302.521 13.1914C286.946 13.1914 273.403 22.3239 267.14 35.6845C273.911 24.0152 286.439 16.0665 300.997 16.0665Z" fill="#F7941D"/>
<path d="M310.477 31.6256C306.245 31.6256 286.438 31.4565 281.021 31.4565L280.683 30.2727L278.313 31.7948C277.635 32.3021 277.128 33.3169 276.958 34.5007C276.62 36.1919 276.281 38.3905 275.943 40.0817C275.773 41.6038 276.45 42.2803 277.805 42.2803C278.82 42.2803 279.667 42.2803 280.344 42.2803C284.407 42.2803 289.486 42.2803 289.824 42.2803C290.671 42.2803 290.163 42.6185 289.824 42.6185C287.793 43.295 281.868 46.8465 280.513 55.1335C280.344 56.6555 277.297 73.2294 277.297 73.2294C277.297 73.5676 277.128 73.9059 277.128 74.2441C277.128 75.7662 277.974 76.2736 278.651 76.2736H284.746C284.746 76.2736 284.746 76.2736 285.253 76.2736C286.269 76.2736 286.946 76.1044 287.454 75.7662L289.486 74.4132L288.978 73.5676L288.47 73.9059C288.47 73.7368 288.47 73.5676 288.639 73.3985C289.316 70.0161 293.718 44.4788 294.056 42.4494C295.919 42.4494 298.119 42.4494 301.167 42.4494C304.383 42.4494 308.446 42.2803 310.139 44.648C311.832 47.0156 311.493 49.5525 310.816 53.2731L307.43 73.5676C307.43 73.9059 307.261 74.2441 307.261 74.5824C307.261 76.1045 308.107 76.6118 308.785 76.6118H314.879C314.879 76.6118 314.879 76.6118 315.387 76.6118C316.572 76.6118 317.418 76.4427 317.926 75.9353L320.127 74.4132L319.28 73.0603L318.773 73.3985C319.28 70.5235 323.174 48.1995 323.513 46.5083C326.052 34.8389 315.048 31.6256 310.477 31.6256Z" fill="#F7941D"/>
<path d="M312.848 29.9345C308.277 29.9345 285.931 29.7654 282.546 29.7654C280.514 29.7654 279.837 31.1184 279.498 32.9787C279.16 34.6699 278.821 36.8685 278.483 38.5597C278.313 40.0818 278.99 40.7583 280.345 40.7583C281.361 40.7583 282.207 40.7583 282.884 40.7583C286.947 40.7583 292.026 40.7583 292.364 40.7583C293.211 40.7583 292.703 41.0965 292.364 41.0965C290.333 41.773 284.408 45.3245 283.053 53.6115C282.884 55.1336 279.837 71.7074 279.837 71.7074C279.837 72.0457 279.668 72.3839 279.668 72.7221C279.668 74.2442 280.514 74.7516 281.191 74.7516H287.286C287.286 74.7516 287.286 74.7516 287.793 74.7516C290.164 74.5825 290.841 74.0751 291.349 71.7074C292.026 68.325 296.427 42.7877 296.766 40.7583C298.628 40.7583 300.829 40.7583 303.876 40.7583C307.092 40.7583 311.155 40.5892 312.848 42.9568C314.541 45.3245 314.202 47.8614 313.525 51.582L310.14 71.8765C310.14 72.2148 309.97 72.553 309.97 72.8913C309.97 74.4134 310.817 74.9207 311.494 74.9207H317.588C317.588 74.9207 317.588 74.9207 318.096 74.9207C320.466 74.7516 321.143 74.2442 321.651 71.8765C321.82 71.0309 326.053 46.5084 326.391 44.6481C328.423 33.317 317.419 30.1037 312.848 29.9345Z" fill="#FFD200"/>
<path d="M279.667 34.5007C280.006 32.6404 280.683 31.2874 282.714 31.2874C286.1 31.2874 307.938 31.4566 312.509 31.4566C316.572 31.4566 325.714 34.1625 326.052 43.1259C326.391 33.3169 316.741 30.611 312.509 30.4418C307.938 30.4418 286.1 30.2727 282.714 30.2727C280.683 30.2727 280.006 31.6257 279.667 33.486C279.329 35.1772 278.99 37.3758 278.651 39.067C278.651 39.4052 278.651 39.7435 278.651 40.0817C278.99 38.3905 279.329 36.1919 279.667 34.5007Z" fill="white"/>
<path d="M314.37 53.2732C314.709 51.2438 315.048 49.5526 314.878 48.1996C314.878 49.3835 314.54 50.7364 314.37 52.2585L310.985 72.553C310.985 72.8912 310.815 73.2295 310.815 73.5677C310.815 73.7368 310.815 74.0751 310.815 74.2442C310.815 74.0751 310.815 73.7368 310.985 73.5677C310.985 73.3986 314.37 53.2732 314.37 53.2732Z" fill="white"/>
<path d="M283.902 55.1335C285.257 47.0157 291.351 43.295 293.213 42.6185C293.552 42.6185 293.89 42.2803 293.213 42.2803C293.044 42.2803 292.536 42.2803 291.859 42.2803C289.32 43.8024 285.087 47.3539 283.902 54.1188C283.733 55.6408 280.686 72.2147 280.686 72.2147C280.686 72.553 280.517 72.8912 280.517 73.2294C280.517 73.3986 280.517 73.7368 280.517 73.9059C280.517 73.7368 280.517 73.3986 280.686 73.2294C280.855 73.2294 283.733 56.6556 283.902 55.1335Z" fill="white"/>
<defs>
<linearGradient id="paint0_linear" x1="226.62" y1="141.098" x2="228.764" y2="76.7244" gradientUnits="userSpaceOnUse">
<stop stop-color="white" stop-opacity="0.5"/>
<stop offset="1" stop-color="white" stop-opacity="0"/>
</linearGradient>
<linearGradient id="paint1_linear" x1="167.055" y1="105.19" x2="182.567" y2="105.19" gradientUnits="userSpaceOnUse">
<stop stop-color="white" stop-opacity="0.5"/>
<stop offset="1" stop-color="white" stop-opacity="0"/>
</linearGradient>
<linearGradient id="paint2_linear" x1="125.674" y1="100.925" x2="141.255" y2="100.925" gradientUnits="userSpaceOnUse">
<stop stop-color="white" stop-opacity="0.5"/>
<stop offset="1" stop-color="white" stop-opacity="0"/>
</linearGradient>
<linearGradient id="paint3_linear" x1="100.282" y1="136.891" x2="102.426" y2="72.5174" gradientUnits="userSpaceOnUse">
<stop stop-color="white" stop-opacity="0.5"/>
<stop offset="1" stop-color="white" stop-opacity="0"/>
</linearGradient>
</defs>
</svg>
