<svg width="216" height="423" viewBox="0 0 216 423" fill="none" xmlns="http://www.w3.org/2000/svg">
<g clip-path="url(#clip0)">
<path d="M351.878 343.985C371.013 284.029 395.4 244.633 421.245 219.254C493.456 148.208 459.236 24.8967 359.915 4.76858C337.185 0.142081 313.202 -0.555539 288.145 4.06894C161.852 27.5463 66.688 141.616 75.5439 258.926C80.8735 329.823 123.021 384.402 183.449 412.006C243.336 439.399 330.656 410.714 351.878 343.985Z" fill="url(#paint0_linear)"/>
<path d="M281.447 -29.0098L281.446 -29.0094C224.164 20.6146 174.35 45.838 131.8 55.726C13.4296 83.354 -28.5767 231.026 60.5419 313.703L60.5422 313.704C80.9486 332.668 105.097 348.387 133.675 359.323C277.932 414.31 446.93 356.854 511.255 231.04L511.667 231.251L511.255 231.04C550.145 155.035 541.091 72.729 496.412 6.62052L496.796 6.36142L496.412 6.62032C474.32 -26.1041 436.431 -48.7845 396.118 -56.3898C355.808 -63.9946 313.134 -56.517 281.447 -29.0098Z" stroke="#FFCB05" stroke-width="0.925261"/>
</g>
<defs>
<linearGradient id="paint0_linear" x1="178.122" y1="51.0942" x2="370.877" y2="361.129" gradientUnits="userSpaceOnUse">
<stop stop-color="#4D80C1"/>
<stop offset="1" stop-color="#00529B"/>
</linearGradient>
<clipPath id="clip0">
<rect width="216" height="423" fill="white"/>
</clipPath>
</defs>
</svg>
