<svg width="532" height="599" viewBox="0 0 532 599" fill="none" xmlns="http://www.w3.org/2000/svg">
<g clip-path="url(#clip0)">
<path d="M96.058 178.543C173.422 183.931 229.636 173.945 270.463 155.907C384.692 105.572 510.307 200.901 488.132 323.791C483.08 351.924 472.959 379.704 456.255 406.289C371.869 540.21 197.926 597.238 67.6332 533.684C-11.1193 495.301 -54.423 422.19 -58.5166 340.429C-62.6156 259.384 9.98764 172.46 96.058 178.543Z" fill="#FFCB05"/>
<path d="M393.212 383.562C310.309 426.558 258.745 472.112 228.05 516.331C142.519 639.29 -45.6963 620.151 -99.7881 480.463L-99.7883 480.462C-112.211 448.462 -119.216 413.654 -118.725 375.951C-116.006 185.736 26.7317 18.3874 200.081 2.01777L200.028 1.45021L200.081 2.01772C304.817 -7.90594 394.937 39.9365 450.292 121.195L450.763 120.875L450.292 121.196C477.703 161.392 486.422 215.103 476.775 264.726C467.129 314.344 439.137 359.803 393.212 383.562Z" stroke="#FFCB05" stroke-width="1.14015"/>
</g>
<defs>
<clipPath id="clip0">
<rect width="532" height="599" fill="white"/>
</clipPath>
</defs>
</svg>
