<svg width="28" height="28" viewBox="0 0 28 28" fill="none" xmlns="http://www.w3.org/2000/svg">
<g clip-path="url(#clip0)">
<path d="M13.96 0.375732C6.67513 0.375732 0.767578 6.46606 0.767578 13.9763C0.767578 21.4865 6.67513 27.5768 13.96 27.5768C21.2448 27.5768 27.1524 21.4865 27.1524 13.9763C27.1524 6.46606 21.2448 0.375732 13.96 0.375732ZM10.1264 20.9359H6.91347V10.9707H10.1264V20.9359ZM8.52004 9.6099H8.4991C7.42094 9.6099 6.72364 8.84474 6.72364 7.88845C6.72364 6.91058 7.44228 6.16659 8.54138 6.16659C9.64047 6.16659 10.3168 6.91058 10.3378 7.88845C10.3378 8.84474 9.64047 9.6099 8.52004 9.6099ZM21.7116 20.9359H18.4991V15.6048C18.4991 14.265 18.0339 13.3512 16.8714 13.3512C15.9838 13.3512 15.4552 13.9676 15.2229 14.5626C15.138 14.7755 15.1172 15.0731 15.1172 15.3709V20.9359H11.9045C11.9045 20.9359 11.9466 11.9056 11.9045 10.9707H15.1172V12.3816C15.5442 11.7026 16.3081 10.7368 18.0127 10.7368C20.1266 10.7368 21.7116 12.161 21.7116 15.2219V20.9359Z" fill="#FFCB05"/>
</g>
<defs>
<clipPath id="clip0">
<rect width="26.3848" height="27.2011" fill="white" transform="translate(0.767578 0.375732)"/>
</clipPath>
</defs>
</svg>
