<svg width="28" height="29" viewBox="0 0 28 29" fill="none" xmlns="http://www.w3.org/2000/svg">
<g clip-path="url(#clip0)">
<path d="M12.3408 17.1013L16.821 14.537L12.3408 11.9727V17.1013Z" fill="#FFCB05"/>
<path d="M14.0554 0.849121C6.44984 0.849121 0.282227 6.97843 0.282227 14.5367C0.282227 22.095 6.44984 28.2243 14.0554 28.2243C21.6609 28.2243 27.8285 22.095 27.8285 14.5367C27.8285 6.97843 21.6609 0.849121 14.0554 0.849121ZM22.6615 14.5507C22.6615 14.5507 22.6615 17.3266 22.3072 18.6652C22.1086 19.3979 21.5273 19.9756 20.79 20.1727C19.4431 20.5251 14.0554 20.5251 14.0554 20.5251C14.0554 20.5251 8.68176 20.5251 7.32075 20.1587C6.5835 19.9616 6.0022 19.3837 5.80359 18.651C5.44905 17.3266 5.44905 14.5367 5.44905 14.5367C5.44905 14.5367 5.44905 11.761 5.80359 10.4225C6.00199 9.6898 6.59758 9.0979 7.32075 8.90074C8.66768 8.5484 14.0554 8.5484 14.0554 8.5484C14.0554 8.5484 19.4431 8.5484 20.79 8.91473C21.5273 9.11189 22.1086 9.6898 22.3072 10.4225C22.6758 11.761 22.6615 14.5507 22.6615 14.5507Z" fill="#FFCB05"/>
</g>
<defs>
<clipPath id="clip0">
<rect width="27.5463" height="27.3752" fill="white" transform="translate(0.282227 0.849121)"/>
</clipPath>
</defs>
</svg>
