<svg width="50" height="39" viewBox="0 0 50 39" fill="none" xmlns="http://www.w3.org/2000/svg">
<path d="M0 0H42C46.4183 0 50 3.58172 50 8V31C50 35.4183 46.4183 39 42 39H0V0Z" fill="#911436"/>
<path d="M34.7993 27.7854L28.9015 21.8661C30.1902 20.3112 30.8305 18.3195 30.6892 16.3048C30.5479 14.2901 29.636 12.4073 28.1428 11.0474C26.6497 9.68747 24.69 8.95501 22.6709 9.00214C20.6519 9.04927 18.7285 9.87236 17.3004 11.3004C15.8724 12.7285 15.0493 14.6519 15.0021 16.6709C14.955 18.69 15.6875 20.6497 17.0474 22.1428C18.4073 23.636 20.2901 24.5479 22.3048 24.6892C24.3195 24.8305 26.3112 24.1902 27.8661 22.9015L33.764 28.7993C33.8303 28.8662 33.9093 28.9193 33.9963 28.9556C34.0833 28.9918 34.1766 29.0105 34.2709 29.0105C34.3652 29.0105 34.4585 28.9918 34.5455 28.9556C34.6325 28.9193 34.7115 28.8662 34.7779 28.7993C34.8462 28.7343 34.901 28.6565 34.9391 28.5702C34.9772 28.484 34.9978 28.3911 34.9998 28.2968C35.0018 28.2025 34.9851 28.1088 34.9507 28.021C34.9163 27.9332 34.8648 27.8532 34.7993 27.7854ZM16.4418 16.868C16.4387 15.8216 16.6911 14.7902 17.1772 13.8635C17.6633 12.9368 18.3684 12.1429 19.2311 11.5506C20.0938 10.9584 21.0881 10.5858 22.1276 10.4652C23.1671 10.3447 24.2203 10.4798 25.1956 10.8588C26.171 11.2379 27.0391 11.8494 27.7244 12.6402C28.4097 13.431 28.8915 14.3772 29.128 15.3966C29.3644 16.416 29.3483 17.4777 29.0812 18.4894C28.814 19.5012 28.3037 20.4324 27.5948 21.2021C27.5064 21.238 27.4262 21.2913 27.3587 21.3587C27.2913 21.4262 27.238 21.5064 27.2021 21.5948C26.2831 22.4343 25.14 22.9889 23.9118 23.1911C22.6836 23.3933 21.4231 23.2344 20.2834 22.7338C19.1438 22.2331 18.1741 21.4123 17.4921 20.371C16.8101 19.3297 16.4453 18.1128 16.4418 16.868Z" fill="white"/>
</svg>
