<svg id="Layer_1" data-name="Layer 1" xmlns="http://www.w3.org/2000/svg" viewBox="0 0 128 128"><defs><style>.cls-1{fill:#fff;}</style></defs><title>icon</title><path class="cls-1" d="M84.1,81.62a14.63,14.63,0,0,1,.13-2.19,3.56,3.56,0,0,1,4.11-2.91,3.75,3.75,0,0,1,.93.3A3.08,3.08,0,0,1,91,79.43,16.22,16.22,0,0,1,91,83.94c-.23,2.79-.46,5.58-.74,8.38A21.34,21.34,0,0,1,89.66,96a2.11,2.11,0,0,1-2.57,1.54l-.11,0a1.78,1.78,0,0,1-1.5-1.31,18.9,18.9,0,0,1-.62-3.34C84.55,89.21,84.34,85.61,84.1,81.62Z"/><path class="cls-1" d="M84.1,103a3.51,3.51,0,0,1,7,0v0a3.43,3.43,0,0,1-3.38,3.48h-.1a3.38,3.38,0,0,1-3.53-3.26Z"/><path class="cls-1" d="M94.11,58.58a7.5,7.5,0,0,0-13,0L53,107.23a7.5,7.5,0,0,0,6.49,11.25h56.18a7.5,7.5,0,0,0,6.49-11.25Zm20.73,52.9H58.66l.87-1.5L86.75,62.83l.87-1.5.87,1.5L115.71,110l.86,1.5Z"/><path class="cls-1" d="M12.31,48.27h84l.25.16a16.4,16.4,0,0,1,4.9,4.88V27.63A10.79,10.79,0,0,0,90.91,17c-1.77,0-3.55,0-5.32,0H76.37l0-1v-.23a21,21,0,0,0,0-2.51A4.93,4.93,0,0,0,75.67,11a4.48,4.48,0,0,0-1.36-1c-.25-.14-.46-.26-.66-.39h-1l-.54.25a5.62,5.62,0,0,0-1.19.65,2.87,2.87,0,0,0-1.1,2.44c0,.9,0,1.79,0,2.7V17H36.5l0-1,.5-.05v0h-.5a19.75,19.75,0,0,1,0-2,3.75,3.75,0,0,0-2.8-4.34h-1c-1.83.63-2.72,1.71-2.75,3.39,0,.7,0,1.4,0,2.1V17L29,17H15.88A10.85,10.85,0,0,0,5,25.88l0,.19-.1.16,0,0v67l.13.46c.09.35.18.7.29,1a10.77,10.77,0,0,0,10,7.75h30.2l3.88-6.73H15.85a4.25,4.25,0,0,1-4.4-3.11,4.53,4.53,0,0,1-.13-1.2q0-21.09,0-42.17v-1Zm-1-20.22a4.19,4.19,0,0,1,4.53-4.49h14V24.9c0,.9,0,1.75,0,2.62A3.27,3.27,0,0,0,33.12,31a3.2,3.2,0,0,0,3.22-3.07c0-1,0-1.92,0-2.86V23.61H69.73V25c0,.91,0,1.78,0,2.64A3.36,3.36,0,0,0,73,31h0a3.34,3.34,0,0,0,3.26-3.42c0-.87,0-1.74,0-2.64V23.56H90.45a4.2,4.2,0,0,1,4.38,4.24c0,3.19,0,6.41,0,9.54v4.22H11.31V28.05Z"/></svg>