<svg id="Layer_1" data-name="Layer 1" xmlns="http://www.w3.org/2000/svg" viewBox="0 0 128 128"><defs><style>.cls-1{fill:#fff;}</style></defs><title>icon</title><path class="cls-1" d="M105.83,34.3l3.75,3.75a3.5,3.5,0,1,0,5-4.95L102.07,20.64a3.5,3.5,0,0,0-4.94,4.95l3.75,3.76L96.7,33.52A51,51,0,0,0,68.18,21.63V13.11h9.3a4.5,4.5,0,1,0,0-9H49.87a4.5,4.5,0,0,0,0,9h9.31v8.52a51.26,51.26,0,1,0,42.56,16.76ZM63.68,114.89a42.24,42.24,0,1,1,42.23-42.24A42.29,42.29,0,0,1,63.68,114.89Z"/><path class="cls-1" d="M86.67,43.56l-19,20q-.27-.12-.54-.21V49.08a3.5,3.5,0,0,0-7,0V63.34a10,10,0,1,0,12.53,5.13l19-20.09a3.5,3.5,0,1,0-5.08-4.82Zm-23,32.06a3,3,0,1,1,3-3A3,3,0,0,1,63.68,75.62Z"/></svg>