<svg id="Layer_1" data-name="Layer 1" xmlns="http://www.w3.org/2000/svg" viewBox="0 0 128 128"><defs><style>.cls-1{fill:#333;}</style></defs><title>icon</title><path class="cls-1" d="M102.66,58.26V26.37A11.87,11.87,0,0,0,90.81,14.52h-14V9.35a3.31,3.31,0,1,0-6.61,0v5.17H36.49V9.35a3.31,3.31,0,1,0-6.61,0v5.17h-14A11.86,11.86,0,0,0,4,26.37v62.4a11.86,11.86,0,0,0,11.84,11.85H60.3a32.9,32.9,0,1,0,42.36-42.36ZM15.84,21.14h14v5.18a3.31,3.31,0,0,0,6.61,0V21.14H70.17v5.18a3.31,3.31,0,0,0,6.61,0V21.14h14A5.23,5.23,0,0,1,96,26.37V39.58H10.61V26.37A5.23,5.23,0,0,1,15.84,21.14Zm0,72.86a5.23,5.23,0,0,1-5.23-5.23V46.2H96V56.53a32.18,32.18,0,0,0-4.94-.37,32.94,32.94,0,0,0-32.9,32.9A32.18,32.18,0,0,0,58.57,94ZM91.1,115.35a26.29,26.29,0,1,1,26.29-26.29A26.32,26.32,0,0,1,91.1,115.35Z"/><path class="cls-1" d="M104.85,91H93.46v-18a2.37,2.37,0,0,0-4.73,0V95.69h16.12a2.37,2.37,0,0,0,0-4.73Z"/></svg>