<svg id="Layer_1" data-name="Layer 1" xmlns="http://www.w3.org/2000/svg" viewBox="0 0 128 128"><defs><style>.cls-1{fill:#fff;}</style></defs><title>icon</title><path class="cls-1" d="M97,101.72v-26a33.09,33.09,0,1,0-66.17,0v25.85a6.22,6.22,0,0,0-5.21,6.18A6.42,6.42,0,0,0,32,114.06H96.22a6.42,6.42,0,0,0,6.37-6.36A6.56,6.56,0,0,0,97,101.72ZM63.81,51.56a24.33,24.33,0,0,1,24.31,24.3v25.86H39.69v-26A24.13,24.13,0,0,1,63.81,51.56Z"/><path class="cls-1" d="M49,77.22a2.56,2.56,0,0,1-2.51-2.51A17.21,17.21,0,0,1,63.61,57.54a16.21,16.21,0,0,1,6.76,1.35,2.51,2.51,0,1,1-1.93,4.63,13.46,13.46,0,0,0-4.83-1A12.43,12.43,0,0,0,51.27,74.9,2.14,2.14,0,0,1,49,77.22Z"/><path class="cls-1" d="M15.38,79.53H8.82C5.74,79.34,4,77.6,4,74.9s1.74-4.44,4.82-4.63H21.94c3.09,0,4.83,1.74,5,4.44,0,2.89-1.74,4.63-5,4.82C19.63,79.72,17.5,79.53,15.38,79.53Z"/><path class="cls-1" d="M112.62,70.46h6.75c2.89.2,4.63,1.93,4.63,4.44,0,2.7-1.74,4.44-4.63,4.63q-6.95.28-13.89,0c-2.89,0-4.44-1.93-4.44-4.63s1.74-4.44,4.63-4.44C108.18,70.27,110.3,70.46,112.62,70.46Z"/><path class="cls-1" d="M108.37,34.77h0a4.37,4.37,0,0,0-1.54-3.09,3.69,3.69,0,0,0-3.28-1.15,4.4,4.4,0,0,0-3.47,1.35c-3.28,3.28-6.56,6.56-9.84,10a4.59,4.59,0,0,0-1.35,3.67h0a4.35,4.35,0,0,0,1.54,3.08,3.7,3.7,0,0,0,3.28,1.16,4.47,4.47,0,0,0,3.47-1.35c3.28-3.28,6.56-6.56,9.84-10a5.75,5.75,0,0,0,1.35-3.67Z"/><path class="cls-1" d="M17.7,36.12h0a5.2,5.2,0,0,1,1.16-3.28,4.41,4.41,0,0,1,3.28-1.54,4.62,4.62,0,0,1,3.47,1c3.66,2.9,7.33,5.79,10.8,8.88a4.37,4.37,0,0,1,1.74,3.47h0a4.59,4.59,0,0,1-4.44,4.63,4.6,4.6,0,0,1-3.47-1c-3.67-2.9-7.33-5.79-10.81-8.88a3.8,3.8,0,0,1-1.73-3.28Z"/><path class="cls-1" d="M68.44,25.7v7c-.2,2.89-1.93,4.63-4.63,4.44a4.11,4.11,0,0,1-4.25-4.44c0-4.82-.19-9.45,0-14.28A4.48,4.48,0,0,1,64,13.94a4.62,4.62,0,0,1,4.44,4.43c.19,2.51,0,5,0,7.33Z"/></svg>