<svg id="Layer_1" data-name="Layer 1" xmlns="http://www.w3.org/2000/svg" xmlns:xlink="http://www.w3.org/1999/xlink" viewBox="0 0 128 128"><defs><style>.cls-1{fill:#8a9297;}.cls-2{clip-path:url(#clip-path);}.cls-3{clip-path:url(#clip-path-2);}</style><clipPath id="clip-path"><path class="cls-1" d="M696.44-86.87H612.92l35.55-33.82a3.29,3.29,0,0,0,0-4.93,3.7,3.7,0,0,0-5.18,0l-42,39.81a3.29,3.29,0,0,0,0,4.93L643.1-41.07a3.71,3.71,0,0,0,5.19,0,3.29,3.29,0,0,0,0-4.93L612.92-79.83h83.52a3.62,3.62,0,0,0,3.7-3.52A3.62,3.62,0,0,0,696.44-86.87Z"/></clipPath><clipPath id="clip-path-2"><path class="cls-1" d="M455.84-86.87h83.52l-35.55-33.82a3.28,3.28,0,0,1,0-4.93,3.7,3.7,0,0,1,5.18,0l42,39.81a3.29,3.29,0,0,1,0,4.93L509.18-41.07a3.71,3.71,0,0,1-5.19,0A3.29,3.29,0,0,1,504-46l35.37-33.83H455.84a3.62,3.62,0,0,1-3.7-3.52A3.62,3.62,0,0,1,455.84-86.87Z"/></clipPath></defs><title>icon</title><path class="cls-1" d="M696.44-86.87H612.92l35.55-33.82a3.29,3.29,0,0,0,0-4.93,3.7,3.7,0,0,0-5.18,0l-42,39.81a3.29,3.29,0,0,0,0,4.93L643.1-41.07a3.71,3.71,0,0,0,5.19,0,3.29,3.29,0,0,0,0-4.93L612.92-79.83h83.52a3.62,3.62,0,0,0,3.7-3.52A3.62,3.62,0,0,0,696.44-86.87Z"/><g class="cls-2"><rect class="cls-1" x="-99.86" y="-2820.01" width="9600" height="25640"/></g><path class="cls-1" d="M455.84-86.87h83.52l-35.55-33.82a3.28,3.28,0,0,1,0-4.93,3.7,3.7,0,0,1,5.18,0l42,39.81a3.29,3.29,0,0,1,0,4.93L509.18-41.07a3.71,3.71,0,0,1-5.19,0A3.29,3.29,0,0,1,504-46l35.37-33.83H455.84a3.62,3.62,0,0,1-3.7-3.52A3.62,3.62,0,0,1,455.84-86.87Z"/><g class="cls-3"><rect class="cls-1" x="-8347.86" y="-2820.01" width="9600" height="25640"/></g><path class="cls-1" d="M30.57,101.22a4,4,0,1,0,4,4A4,4,0,0,0,30.57,101.22Z"/><path class="cls-1" d="M113.13,95.71H44.26a16.74,16.74,0,0,0-4.36-4.32V21.45A15.31,15.31,0,0,0,24.61,6.16H14.9A9.4,9.4,0,1,0,14.9,25h6.21V91.49a16.65,16.65,0,1,0,23.26,23h68.76a9.4,9.4,0,0,0,0-18.79ZM14.9,18a2.4,2.4,0,1,1,0-4.79h9.71a8.3,8.3,0,0,1,8.29,8.29V88.7a17.73,17.73,0,0,0-2.33-.18,16.55,16.55,0,0,0-2.46.2V21.45a3.5,3.5,0,0,0-3.5-3.5Zm15.67,96.89a9.66,9.66,0,1,1,9.66-9.66A9.67,9.67,0,0,1,30.57,114.84Zm82.56-7.34H47.05a16.14,16.14,0,0,0,.18-2.32,16.8,16.8,0,0,0-.2-2.47h66.1a2.4,2.4,0,0,1,0,4.79Z"/><path class="cls-1" d="M52.22,90.33h56a7.15,7.15,0,0,0,7.14-7.14v-58a7.15,7.15,0,0,0-7.14-7.14h-56a7.14,7.14,0,0,0-7.14,7.14v58A7.14,7.14,0,0,0,52.22,90.33ZM74.6,25.09H85.45V41.14l-2.48-2a4.71,4.71,0,0,0-5.89,0l-2.48,2Zm-22.52.14a.14.14,0,0,1,.14-.14H67.6V45.93a4.67,4.67,0,0,0,2.67,4.25,4.77,4.77,0,0,0,2,.46,4.65,4.65,0,0,0,2.94-1L80,45.76,84.8,49.6a4.7,4.7,0,0,0,7.65-3.67V25.09h15.73a.14.14,0,0,1,.14.14v58a.14.14,0,0,1-.14.14h-56a.14.14,0,0,1-.14-.14Z"/></svg>