<svg width="92" height="92" viewBox="0 0 92 92" fill="none" xmlns="http://www.w3.org/2000/svg">
<path fill-rule="evenodd" clip-rule="evenodd" d="M36.3207 30.5506L34.6238 31.3092C33.8888 31.6378 33.5584 32.5003 33.887 33.2353C34.2156 33.9703 35.079 34.3002 35.814 33.9716L37.5109 33.2131C38.2459 32.8845 38.5758 32.0211 38.2472 31.2861C37.9187 30.551 37.0557 30.2221 36.3207 30.5506Z" fill="#F7BF20"/>
<path fill-rule="evenodd" clip-rule="evenodd" d="M52.5235 26.5012L41.3835 31.4813C40.6485 31.8099 39.7851 31.48 39.4565 30.745C39.1279 30.01 39.4583 29.1475 40.1933 28.8189L51.8848 23.5923C52.2386 23.4341 52.6392 23.4233 53.001 23.5608L74.5235 31.7851C75.2756 32.0733 75.6522 32.9156 75.3653 33.6683L67.141 55.1907C67.0026 55.553 66.7274 55.8442 66.3736 56.0024L24.781 74.5962C24.045 74.9252 23.1826 74.5948 22.854 73.8598L9.55543 44.1121C9.22685 43.3771 9.55623 42.5151 10.2922 42.1861L30.7492 33.0408C31.4842 32.7123 32.3472 33.0413 32.6758 33.7763C33.0044 34.5113 32.6744 35.3747 31.9394 35.7033L12.8131 44.2536L24.9211 71.3379L64.6314 53.5856L72.1203 33.9897L52.5235 26.5012Z" fill="#F7BF20"/>
<path fill-rule="evenodd" clip-rule="evenodd" d="M53.6709 37.7114C52.5418 35.1856 49.5743 34.0517 47.0485 35.1808C44.5219 36.3103 43.3879 39.2778 44.517 41.8036C45.6466 44.3302 48.6141 45.4642 51.1407 44.3347C53.6665 43.2055 54.8004 40.238 53.6709 37.7114ZM51.0081 38.9018C51.4806 39.9587 51.0063 41.1997 49.9503 41.6718C48.8934 42.1443 47.6524 41.6701 47.1799 40.6132C46.7078 39.5571 47.1816 38.3153 48.2385 37.8428C49.2946 37.3707 50.536 37.8458 51.0081 38.9018Z" fill="#F7BF20"/>
<path fill-rule="evenodd" clip-rule="evenodd" d="M54.438 49.1846L35.2277 41.8438C34.4757 41.5565 33.6317 41.9338 33.3444 42.6857C33.0571 43.4377 33.4343 44.2816 34.1863 44.569L53.3967 51.9098C54.1486 52.1971 54.9926 51.8198 55.2799 51.0679C55.5673 50.3159 55.19 49.472 54.438 49.1846Z" fill="#F7BF20"/>
<path fill-rule="evenodd" clip-rule="evenodd" d="M42.4619 51.5978C41.3328 49.072 38.3653 47.938 35.8395 49.0671C33.3129 50.1967 32.1789 53.1642 33.3081 55.69C34.4376 58.2166 37.4051 59.3505 39.9317 58.221C42.4575 57.0919 43.5914 54.1244 42.4619 51.5978ZM39.7991 52.7882C40.2716 53.8451 39.7973 55.0861 38.7413 55.5582C37.6844 56.0307 36.4434 55.5564 35.9709 54.4996C35.4988 53.4435 35.9726 52.2016 37.0295 51.7291C38.0856 51.257 39.327 51.7321 39.7991 52.7882Z" fill="#F7BF20"/>
</svg>
