<svg width="35" height="35" viewBox="0 0 35 35" fill="none" xmlns="http://www.w3.org/2000/svg">
<mask id="mask0" mask-type="alpha" maskUnits="userSpaceOnUse" x="0" y="0" width="35" height="35">
<circle cx="17.5" cy="17.5" r="17.5" fill="#C4C4C4"/>
</mask>
<g mask="url(#mask0)">
<circle cx="17.5" cy="17.5" r="16.5" stroke="white" stroke-width="2"/>
<path d="M17.6034 18.1208C20.753 18.1208 23.3062 15.5567 23.3062 12.3937C23.3062 9.23075 20.753 6.66666 17.6034 6.66666C14.4539 6.66666 11.9006 9.23075 11.9006 12.3937C11.9006 15.5567 14.4539 18.1208 17.6034 18.1208Z" fill="white"/>
<path d="M5.01177 30.5532C5.78992 24.9005 11.1306 20.5259 17.6032 20.5259C24.0761 20.5259 29.4168 24.9005 30.1949 30.5532C30.3028 31.3368 29.654 31.9803 28.8668 31.9803L17.6032 38.75L6.3399 31.9803C5.55245 31.9806 4.90389 31.3368 5.01177 30.5532Z" fill="white"/>
</g>
</svg>
