<svg width="38" height="35" viewBox="0 0 38 35" fill="none" xmlns="http://www.w3.org/2000/svg">
<path d="M36.097 16.4465C35.7454 16.1405 35.1594 15.7198 34.8078 15.4138C33.7921 14.6871 32.7763 13.9221 32.4248 12.9277C32.0732 11.895 32.4638 10.6328 32.8545 9.44715C32.9717 9.02643 33.167 8.45271 33.2451 8.03199L33.5186 6.65508L32.1122 6.50209C31.6434 6.46384 31.0184 6.46384 30.5887 6.42559C29.2995 6.42559 28.0103 6.42559 27.1118 5.77538C26.2133 5.16342 25.8226 3.9395 25.3929 2.71558C25.2366 2.29485 25.0413 1.72114 24.846 1.30042L24.26 0L23.0099 0.726704C22.6192 0.956189 22.1504 1.30042 21.7988 1.5299C20.744 2.25661 19.6502 3.02156 18.5173 3.02156C17.3844 3.02156 16.2905 2.25661 15.2357 1.5299C14.8841 1.30042 14.4153 0.956189 14.0247 0.726704L12.7746 0L12.1886 1.30042C11.9933 1.72114 11.7979 2.3331 11.6417 2.75383C11.251 3.9395 10.8213 5.16342 9.96182 5.77538C9.0633 6.42559 7.73506 6.42559 6.48495 6.42559C6.05522 6.42559 5.3911 6.42559 4.96138 6.50209L3.555 6.65508L3.86753 8.03199C3.94566 8.45271 4.14099 9.06467 4.29726 9.44715C4.68792 10.6328 5.07858 11.895 4.72698 12.9277C4.41445 13.9221 3.35967 14.6871 2.34396 15.4138C1.9533 15.6815 1.36731 16.1022 1.05478 16.4082L0 17.3644L1.01572 18.2823C1.36731 18.5883 1.9533 19.009 2.34396 19.315C3.35967 20.0417 4.37539 20.8067 4.72698 21.8011C5.07858 22.8338 4.68792 24.096 4.29726 25.2816C4.18006 25.7024 3.98473 26.2761 3.9066 26.6968L3.63313 28.0737L5.03951 28.2267C5.5083 28.265 6.13336 28.265 6.56308 28.3032C7.85226 28.3032 9.14144 28.3032 10.04 28.9534C10.9385 29.5654 11.3291 30.7893 11.7589 32.0132C11.9151 32.4339 12.1104 33.0077 12.3058 33.4284L12.8918 34.7288L14.1419 34.0021C14.5325 33.7726 15.0013 33.4666 15.3529 33.1989C16.4077 32.4722 17.5016 31.7072 18.6345 31.7072C19.7674 31.7072 20.8612 32.4722 21.916 33.1989C22.2676 33.4284 22.7364 33.7726 23.1271 34.0021L24.3772 34.7288L24.9632 33.4284C25.1585 33.0077 25.3538 32.3957 25.5101 32.0132C25.9007 30.8275 26.3305 29.6036 27.1899 28.9917C28.0884 28.3415 29.4167 28.3414 30.6668 28.3414C31.0965 28.3414 31.7606 28.3414 32.1904 28.265L33.5967 28.112L33.2842 26.7351C33.2061 26.3143 33.0107 25.7406 32.8545 25.3199C32.4638 24.1342 32.0732 22.872 32.4248 21.8394C32.7763 20.8449 33.7921 20.08 34.8468 19.3533C35.2375 19.0855 35.7844 18.6648 36.136 18.3588L37.1517 17.4409L36.097 16.4465ZM29.9636 20.9979C29.4167 22.6808 29.8855 24.3637 30.3152 25.7406C28.8307 25.7406 27.0727 25.8171 25.5882 26.888C24.1428 27.9207 23.5177 29.5271 23.0489 30.904C21.8379 30.0626 20.3534 29.1064 18.5563 29.1064C16.7202 29.1064 15.2748 30.0243 14.0637 30.904C13.595 29.5271 12.9699 27.9207 11.5245 26.888C10.04 25.8554 8.28198 25.7789 6.79748 25.7406C7.2272 24.3637 7.69599 22.6808 7.14907 20.9979C6.60215 19.315 5.15671 18.2441 3.98473 17.3644C5.15671 16.523 6.60215 15.452 7.14907 13.7309C7.69599 12.048 7.2272 10.3651 6.79748 8.98818C8.28198 8.98818 10.04 8.91168 11.5245 7.84075C12.9699 6.80807 13.595 5.20167 14.0637 3.82476C15.2748 4.6662 16.7593 5.62239 18.5563 5.62239C20.3924 5.62239 21.8769 4.6662 23.0489 3.82476C23.5177 5.20167 24.1428 6.80807 25.5882 7.84075C27.0727 8.87344 28.8307 8.94993 30.3152 8.98818C29.8855 10.3651 29.4167 12.048 29.9636 13.7309C30.5105 15.452 31.956 16.523 33.1279 17.3644C31.956 18.2058 30.5496 19.2768 29.9636 20.9979Z" fill="#D13061"/>
<path d="M7.26869 27.46L10.0954 27.8638L11.7107 28.6714L12.5184 29.8829L14.1337 31.902L17.3643 29.4791L18.5757 29.0753L20.9987 31.4982L23.0178 31.902L24.2293 30.6906L26.2484 27.8638L28.6713 27.0561L30.2866 25.8447L31.4981 21.4026L34.3248 18.9797L35.1325 17.3644L33.5172 16.1529L30.6904 12.9223V7.67263H28.6713L26.6522 6.46116L23.0178 2.0191L20.5949 4.44204L18.9796 4.03822L16.5566 4.84587L13.7299 2.42293L10.4993 6.86498L8.48016 7.67263L6.05722 8.07645V11.7109L4.0381 16.1529L3.63428 18.5759L4.44192 19.3835L4.84575 19.7873L5.65339 20.595L6.86486 22.2103L5.24957 25.037L7.26869 27.46Z" fill="#D13061"/>
</svg>
