<svg width="25" height="19" viewBox="0 0 25 19" fill="none" xmlns="http://www.w3.org/2000/svg">
<g clip-path="url(#clip0_360_1551)">
<mask id="path-1-inside-1_360_1551" fill="white">
<path d="M21.0056 0H3.99444C2.93406 0.00146351 1.91765 0.421344 1.16863 1.16735C0.419604 1.91336 -0.000736432 2.92443 9.68577e-07 3.97835V15.0216C-0.000736432 16.0755 0.419604 17.0867 1.16863 17.8327C1.91765 18.5787 2.93406 18.9986 3.99444 19H21.0056C22.066 18.9986 23.0824 18.5787 23.8314 17.8327C24.5804 17.0867 25.0007 16.0755 25 15.0216V3.97835C25.0007 2.92443 24.5804 1.91336 23.8314 1.16735C23.0824 0.421344 22.066 0.00146351 21.0056 0ZM3.99444 1.24513H21.0056C21.3662 1.2455 21.7232 1.3165 22.0562 1.45408C22.3893 1.59168 22.6917 1.79315 22.9463 2.04699C23.201 2.30082 23.4027 2.60205 23.5401 2.93345C23.6776 3.26484 23.748 3.61992 23.7473 3.97835V4.07222H1.24723V3.97835C1.24649 3.61944 1.31704 3.26393 1.4548 2.93217C1.59257 2.60041 1.79486 2.29894 2.05007 2.04503C2.30527 1.79112 2.60839 1.58977 2.94205 1.4525C3.2757 1.31524 3.63333 1.24477 3.99444 1.24513ZM21.0056 17.7549H3.99444C3.63381 17.7545 3.27677 17.6835 2.94376 17.5459C2.61075 17.4083 2.30829 17.2069 2.05365 16.953C1.79904 16.6992 1.59725 16.398 1.45982 16.0665C1.3224 15.7352 1.25205 15.3801 1.25277 15.0216V7.84351H23.7527V15.0216C23.7535 15.3805 23.683 15.736 23.5452 16.0678C23.4074 16.3996 23.2051 16.701 22.9499 16.955C22.6948 17.2089 22.3915 17.4103 22.058 17.5475C21.7243 17.6847 21.3667 17.7553 21.0056 17.7549Z"/>
</mask>
<path d="M21.0056 0H3.99444C2.93406 0.00146351 1.91765 0.421344 1.16863 1.16735C0.419604 1.91336 -0.000736432 2.92443 9.68577e-07 3.97835V15.0216C-0.000736432 16.0755 0.419604 17.0867 1.16863 17.8327C1.91765 18.5787 2.93406 18.9986 3.99444 19H21.0056C22.066 18.9986 23.0824 18.5787 23.8314 17.8327C24.5804 17.0867 25.0007 16.0755 25 15.0216V3.97835C25.0007 2.92443 24.5804 1.91336 23.8314 1.16735C23.0824 0.421344 22.066 0.00146351 21.0056 0ZM3.99444 1.24513H21.0056C21.3662 1.2455 21.7232 1.3165 22.0562 1.45408C22.3893 1.59168 22.6917 1.79315 22.9463 2.04699C23.201 2.30082 23.4027 2.60205 23.5401 2.93345C23.6776 3.26484 23.748 3.61992 23.7473 3.97835V4.07222H1.24723V3.97835C1.24649 3.61944 1.31704 3.26393 1.4548 2.93217C1.59257 2.60041 1.79486 2.29894 2.05007 2.04503C2.30527 1.79112 2.60839 1.58977 2.94205 1.4525C3.2757 1.31524 3.63333 1.24477 3.99444 1.24513ZM21.0056 17.7549H3.99444C3.63381 17.7545 3.27677 17.6835 2.94376 17.5459C2.61075 17.4083 2.30829 17.2069 2.05365 16.953C1.79904 16.6992 1.59725 16.398 1.45982 16.0665C1.3224 15.7352 1.25205 15.3801 1.25277 15.0216V7.84351H23.7527V15.0216C23.7535 15.3805 23.683 15.736 23.5452 16.0678C23.4074 16.3996 23.2051 16.701 22.9499 16.955C22.6948 17.2089 22.3915 17.4103 22.058 17.5475C21.7243 17.6847 21.3667 17.7553 21.0056 17.7549Z" fill="#911436"/>
<path d="M21.0056 0L21.0125 -5H21.0056V0ZM3.99444 0V-5L3.98754 -5L3.99444 0ZM1.16863 1.16735L-2.35975 -2.37532L-2.35977 -2.3753L1.16863 1.16735ZM9.68577e-07 3.97835H5L5 3.97485L9.68577e-07 3.97835ZM9.68577e-07 15.0216L5 15.0251V15.0216H9.68577e-07ZM1.16863 17.8327L-2.35972 21.3754L-2.35971 21.3754L1.16863 17.8327ZM3.99444 19L3.98772 24H3.99444V19ZM21.0056 19V24L21.0123 24L21.0056 19ZM23.8314 17.8327L27.3597 21.3755L27.36 21.3752L23.8314 17.8327ZM25 15.0216H20L20 15.025L25 15.0216ZM25 3.97835L20 3.97496V3.97835H25ZM23.8314 1.16735L27.3601 -2.37508L27.3598 -2.37537L23.8314 1.16735ZM3.99444 1.24513L3.98951 6.24513H3.99444V1.24513ZM21.0056 1.24513L21.0107 -3.75487H21.0056V1.24513ZM22.0562 1.45408L20.1468 6.07514L20.1472 6.07533L22.0562 1.45408ZM22.9463 2.04699L19.4164 5.5881L19.4164 5.58818L22.9463 2.04699ZM23.5401 2.93345L18.9213 4.8482L18.9219 4.84962L23.5401 2.93345ZM23.7473 3.97835L18.7473 3.96839V3.97835H23.7473ZM23.7473 4.07222V9.07222H28.7473V4.07222H23.7473ZM1.24723 4.07222H-3.75277V9.07222H1.24723V4.07222ZM1.24723 3.97835H6.24724L6.24722 3.96807L1.24723 3.97835ZM1.4548 2.93217L-3.16286 1.01457L-3.1629 1.01465L1.4548 2.93217ZM2.05007 2.04503L5.57655 5.5896L5.57663 5.58952L2.05007 2.04503ZM21.0056 17.7549L21.0105 12.7549H21.0056V17.7549ZM3.99444 17.7549L3.9895 22.7549H3.99444V17.7549ZM2.05365 16.953L5.58402 13.4123L5.58327 13.4115L2.05365 16.953ZM1.45982 16.0665L6.0785 14.1514L6.07832 14.1509L1.45982 16.0665ZM1.25277 15.0216L6.25277 15.0318V15.0216H1.25277ZM1.25277 7.84351V2.84351H-3.74723V7.84351H1.25277ZM23.7527 7.84351H28.7527V2.84351H23.7527V7.84351ZM23.7527 15.0216H18.7527L18.7527 15.0316L23.7527 15.0216ZM23.5452 16.0678L28.1625 17.9863L28.1631 17.9849L23.5452 16.0678ZM22.9499 16.955L26.4769 20.4991L26.4769 20.4991L22.9499 16.955ZM22.058 17.5475L20.1566 12.9231L20.1557 12.9234L22.058 17.5475ZM21.0056 -5H3.99444V5H21.0056V-5ZM3.98754 -5C1.6115 -4.99672 -0.672118 -4.05615 -2.35975 -2.37532L4.69701 4.71002C4.50743 4.89884 4.25662 4.99964 4.00134 5L3.98754 -5ZM-2.35977 -2.3753C-4.04843 -0.693442 -5.00167 1.59253 -5 3.98185L5 3.97485C5.0002 4.25633 4.88764 4.52016 4.69703 4.71L-2.35977 -2.3753ZM-5 3.97835V15.0216H5V3.97835H-5ZM-5 15.0181C-5.00167 17.4073 -4.04851 19.6935 -2.35972 21.3754L4.69697 14.29C4.88772 14.4799 5.0002 14.7438 5 15.0251L-5 15.0181ZM-2.35971 21.3754C-0.672138 23.0561 1.6115 23.9968 3.98772 24L4.00116 14C4.25662 14.0003 4.50745 14.1012 4.69697 14.29L-2.35971 21.3754ZM3.99444 24H21.0056V14H3.99444V24ZM21.0123 24C23.3885 23.9968 25.6721 23.0561 27.3597 21.3755L20.3031 14.2899C20.4926 14.1012 20.7434 14.0003 20.9989 14L21.0123 24ZM27.36 21.3752C29.0485 19.6933 30.0016 17.4074 30 15.0182L20 15.025C19.9998 14.7437 20.1122 14.4801 20.3029 14.2902L27.36 21.3752ZM30 15.0216V3.97835H20V15.0216H30ZM30 3.98174C30.0016 1.59248 29.0484 -0.693326 27.3601 -2.37508L20.3028 4.70978C20.1123 4.52004 19.9998 4.25638 20 3.97496L30 3.98174ZM27.3598 -2.37537C25.6721 -4.05616 23.3885 -4.99672 21.0125 -5L20.9987 5C20.7434 4.99964 20.4926 4.89884 20.3031 4.71007L27.3598 -2.37537ZM3.99444 6.24513H21.0056V-3.75487H3.99444V6.24513ZM21.0005 6.24513C20.7084 6.24483 20.4184 6.18736 20.1468 6.07514L23.9656 -3.16698C23.0281 -3.55436 22.024 -3.75383 21.0107 -3.75487L21.0005 6.24513ZM20.1472 6.07533C19.8753 5.96298 19.6267 5.79774 19.4164 5.5881L26.4763 -1.49412C25.7567 -2.21144 24.9033 -2.77962 23.9651 -3.16716L20.1472 6.07533ZM19.4164 5.58818C19.2056 5.37797 19.0368 5.12679 18.9213 4.8482L28.159 1.01869C27.7687 0.0773096 27.1964 -0.776333 26.4762 -1.49421L19.4164 5.58818ZM18.9219 4.84962C18.8061 4.57069 18.7467 4.27112 18.7473 3.96839L28.7473 3.98831C28.7493 2.96872 28.5491 1.95899 28.1584 1.01728L18.9219 4.84962ZM18.7473 3.97835V4.07222H28.7473V3.97835H18.7473ZM23.7473 -0.927778H1.24723V9.07222H23.7473V-0.927778ZM6.24723 4.07222V3.97835H-3.75277V4.07222H6.24723ZM6.24722 3.96807C6.24784 4.27145 6.18816 4.57114 6.07249 4.8497L-3.1629 1.01465C-3.55409 1.95671 -3.75486 2.96743 -3.75276 3.98863L6.24722 3.96807ZM6.07246 4.84978C5.95678 5.12833 5.78775 5.37947 5.57655 5.5896L-1.4764 -1.49954C-2.19804 -0.78159 -2.77164 0.0724969 -3.16286 1.01457L6.07246 4.84978ZM5.57663 5.58952C5.36542 5.79966 5.11628 5.96462 4.84433 6.0765L1.03977 -3.17149C0.100502 -2.78509 -0.754874 -2.21742 -1.47649 -1.49946L5.57663 5.58952ZM4.84433 6.0765C4.57235 6.18839 4.28195 6.24542 3.98951 6.24513L3.99937 -3.75487C2.98472 -3.75587 1.97905 -3.55791 1.03977 -3.17149L4.84433 6.0765ZM21.0056 12.7549H3.99444V22.7549H21.0056V12.7549ZM3.99938 12.7549C4.29169 12.7552 4.58186 12.8127 4.85354 12.925L1.03398 22.1668C1.97169 22.5544 2.97593 22.7539 3.9895 22.7549L3.99938 12.7549ZM4.85354 12.925C5.12414 13.0368 5.37282 13.2017 5.58402 13.4123L-1.47671 20.4937C-0.75625 21.212 0.0973605 21.7797 1.03398 22.1668L4.85354 12.925ZM5.58327 13.4115C5.7946 13.6222 5.96323 13.8734 6.0785 14.1514L-3.15886 17.9817C-2.76873 18.9225 -2.19653 19.7763 -1.47596 20.4944L5.58327 13.4115ZM6.07832 14.1509C6.19394 14.4297 6.25338 14.7291 6.25276 15.0318L-3.74722 15.0115C-3.74928 16.0312 -3.54913 17.0407 -3.15868 17.9821L6.07832 14.1509ZM6.25277 15.0216V7.84351H-3.74723V15.0216H6.25277ZM1.25277 12.8435H23.7527V2.84351H1.25277V12.8435ZM18.7527 7.84351V15.0216H28.7527V7.84351H18.7527ZM18.7527 15.0316C18.7521 14.729 18.8116 14.4296 18.9274 14.1508L28.1631 17.9849C28.5544 17.0425 28.7548 16.032 28.7527 15.0117L18.7527 15.0316ZM18.9279 14.1493C19.0435 13.8712 19.2123 13.6205 19.4229 13.4109L26.4769 20.4991C27.1979 19.7815 27.7713 18.928 28.1625 17.9863L18.9279 14.1493ZM19.4229 13.4109C19.6345 13.2004 19.884 13.0352 20.1566 12.9231L23.9594 22.1718C24.8991 21.7854 25.755 21.2174 26.4769 20.4991L19.4229 13.4109ZM20.1557 12.9234C20.427 12.8119 20.7173 12.7546 21.0105 12.7549L21.0007 22.7549C22.016 22.7559 23.0216 22.5576 23.9602 22.1715L20.1557 12.9234Z" fill="#911436" mask="url(#path-1-inside-1_360_1551)"/>
</g>
<defs>
<clipPath id="clip0_360_1551">
<rect width="25" height="19" fill="white"/>
</clipPath>
</defs>
</svg>
