<svg id="Layer_1" data-name="Layer 1" xmlns="http://www.w3.org/2000/svg" xmlns:xlink="http://www.w3.org/1999/xlink" viewBox="0 0 128 128"><defs><style>.cls-1{fill:#8a9297;}.cls-2{clip-path:url(#clip-path);}.cls-3{clip-path:url(#clip-path-2);}.cls-4{fill:url(#linear-gradient);}.cls-5{fill:url(#linear-gradient-2);}</style><clipPath id="clip-path"><path class="cls-1" d="M702.3-1271.61H618.78l35.55-33.82a3.3,3.3,0,0,0,0-4.94,3.7,3.7,0,0,0-5.18,0l-42,39.81a3.3,3.3,0,0,0,0,4.94L649-1225.81a3.71,3.71,0,0,0,5.19,0,3.3,3.3,0,0,0,0-4.94l-35.37-33.82H702.3a3.62,3.62,0,0,0,3.7-3.52A3.62,3.62,0,0,0,702.3-1271.61Z"/></clipPath><clipPath id="clip-path-2"><path class="cls-1" d="M461.7-1271.61h83.52l-35.55-33.82a3.3,3.3,0,0,1,0-4.94,3.7,3.7,0,0,1,5.18,0l42,39.81a3.3,3.3,0,0,1,0,4.94L515-1225.81a3.71,3.71,0,0,1-5.19,0,3.3,3.3,0,0,1,0-4.94l35.37-33.82H461.7a3.62,3.62,0,0,1-3.7-3.52A3.62,3.62,0,0,1,461.7-1271.61Z"/></clipPath><linearGradient id="linear-gradient" x1="98.81" y1="95.41" x2="98.81" y2="67.35" gradientUnits="userSpaceOnUse"><stop offset="0" stop-color="#083050"/><stop offset="1" stop-color="#3d85c6"/></linearGradient><linearGradient id="linear-gradient-2" x1="64" y1="121.85" x2="64" y2="6.15" xlink:href="#linear-gradient"/></defs><title>icon</title><path class="cls-1" d="M702.3-1271.61H618.78l35.55-33.82a3.3,3.3,0,0,0,0-4.94,3.7,3.7,0,0,0-5.18,0l-42,39.81a3.3,3.3,0,0,0,0,4.94L649-1225.81a3.71,3.71,0,0,0,5.19,0,3.3,3.3,0,0,0,0-4.94l-35.37-33.82H702.3a3.62,3.62,0,0,0,3.7-3.52A3.62,3.62,0,0,0,702.3-1271.61Z"/><g class="cls-2"><rect class="cls-1" x="-94" y="-4004.76" width="9600" height="25640"/></g><path class="cls-1" d="M461.7-1271.61h83.52l-35.55-33.82a3.3,3.3,0,0,1,0-4.94,3.7,3.7,0,0,1,5.18,0l42,39.81a3.3,3.3,0,0,1,0,4.94L515-1225.81a3.71,3.71,0,0,1-5.19,0,3.3,3.3,0,0,1,0-4.94l35.37-33.82H461.7a3.62,3.62,0,0,1-3.7-3.52A3.62,3.62,0,0,1,461.7-1271.61Z"/><g class="cls-3"><rect class="cls-1" x="-8342" y="-4004.76" width="9600" height="25640"/></g><path class="cls-4" d="M110.53,90.49c-5.29-.93-10.58-1.86-15.91-2.72-1.18-.21-1.51-.74-1.68-1.84-.86-5.8-1.78-11.6-2.73-17.34a4.22,4.22,0,0,0-.7-1.24,4.45,4.45,0,0,0-.64,1.17c-.69,4.08-1.38,8.18-2,12.27-.51,3.36-1,6.72-1.35,10.09A4,4,0,0,0,89,95.4a3.64,3.64,0,0,0,.66,0l.68-.08c6.74-1.09,13.5-2.16,20.24-3.28a6.66,6.66,0,0,0,1.55-.73A6.37,6.37,0,0,0,110.53,90.49Z"/><path class="cls-5" d="M102.86,58.3q0-16.51,0-33A11.79,11.79,0,0,0,91.33,13.65l-5.32,0H77.8v-.22a23.17,23.17,0,0,0,0-2.63A5.7,5.7,0,0,0,76.89,8a5.26,5.26,0,0,0-1.67-1.3l-.63-.38a.84.84,0,0,0-.49-.15h-1a.82.82,0,0,0-.4.1l-.53.24a6.44,6.44,0,0,0-1.39.78,3.89,3.89,0,0,0-1.48,3.24v3.07H37.9V13.5a17.83,17.83,0,0,1,0-1.94,4.76,4.76,0,0,0-3.51-5.37.75.75,0,0,0-.26,0h-1a.87.87,0,0,0-.28,0c-2.27.77-3.43,2.22-3.48,4.33,0,.71,0,1.41,0,2.12v1H16.3A11.83,11.83,0,0,0,4.39,23.3l-.08.13a.92.92,0,0,0-.11.43v67a1,1,0,0,0,0,.24l.13.48c.09.36.19.71.29,1.07a11.78,11.78,0,0,0,10.92,8.46H60.33a32.9,32.9,0,1,0,42.53-42.8ZM12.73,25.68a3.2,3.2,0,0,1,3.53-3.5h13v.34c0,.9,0,1.76,0,2.64a4.33,4.33,0,0,0,3.12,4.3,4.48,4.48,0,0,0,1.15.15,4.2,4.2,0,0,0,4.22-4c0-1,0-2,0-2.91,0-.15,0-.29,0-.44H69.15v3a4.38,4.38,0,0,0,4.27,4.4h0a4.33,4.33,0,0,0,4.26-4.42v-3H90.86a3.21,3.21,0,0,1,3.39,3.26c0,3.17,0,6.4,0,9.52,0,1.08,0,2.15,0,3.23H12.73V37.5C12.73,33.56,12.72,29.62,12.73,25.68ZM56.25,92.37h-40A3.27,3.27,0,0,1,12.83,90a3.41,3.41,0,0,1-.1-.94V46.89H94.27v9.33c-1.11-.11-2.23-.17-3.37-.17h0A32.91,32.91,0,0,0,58,89c0,1.14.07,2.27.18,3.38Zm34.47,23a26.82,26.82,0,0,1-23.11-14.27,25.55,25.55,0,0,1-2.41-6.43v0c-.17-.75-.31-1.51-.41-2.29h0a24.73,24.73,0,0,1-.23-3.46,26.92,26.92,0,0,1,16-24h0c.38-.18.78-.34,1.17-.49h0a25.76,25.76,0,0,1,3.67-1.08h0a24.13,24.13,0,0,1,5.53-.5,24.05,24.05,0,0,1,3.4.16,24.93,24.93,0,0,1,8.59,2.71,26.92,26.92,0,0,1,14.32,23.35C117.18,103.18,105,115.42,90.72,115.38Z"/></svg>