<?xml version="1.0" encoding="utf-8"?>
<!-- Generator: Adobe Illustrator 23.0.6, SVG Export Plug-In . SVG Version: 6.00 Build 0)  -->
<svg version="1.1" id="Layer_1" xmlns="http://www.w3.org/2000/svg" xmlns:xlink="http://www.w3.org/1999/xlink" x="0px" y="0px"
	 viewBox="0 0 128 128" style="enable-background:new 0 0 128 128;" xml:space="preserve">
<style type="text/css">
	.st0{fill:#444444;}
</style>
<title>icon</title>
<path class="st0" d="M70.9,49.5H50.2c-1.4,0-1.8,0.9-2.1,2.3c-0.2,1.2-0.5,2.8-0.6,4s0.3,1.5,1.3,1.5h8.3c0.5,0,0.2,0.2,0,0.2
	c-1.3,0.5-5.4,3.1-6.3,9l-2,13c0,0.3-0.1,0.5-0.1,0.8c0,1.2,0.6,1.4,1,1.4h4.5c1.6-0.1,2.1-0.4,2.3-2.2c0.4-2.5,3.3-20.9,3.5-22.3
	h4.9c2.2,0,4.9-0.2,6.1,1.5s0.9,3.5,0.5,6.2l-2.2,14.6c-0.1,0.3-0.1,0.5-0.1,0.8c0,1.2,0.6,1.4,1,1.4h4.5c1.6-0.1,2.1-0.4,2.3-2.2
	c0.1-0.6,2.9-18.3,3.1-19.6C81.4,51.8,74,49.6,70.9,49.5"/>
<path class="st0" d="M117.6,67.8l-3.1,15.1c6.8-2.4,11.9-8.1,13.5-15.1H117.6z"/>
<path class="st0" d="M119.7,58.1h7.8c-1.2-3.4-3.3-6.5-6-8.8L119.7,58.1z"/>
<path class="st0" d="M106.2,76.1c0.7-2.5,1.7-6.6,9-8c0.6-0.1,0.6-0.3,0.1-0.3H91.7c0.3-1.3,1.1-5.3,1.4-6.9c0.6-2.4,1.8-2.9,4-2.9
	H110l2.8-13.5c-2.2-0.7-4.6-1-6.9-1c-12.4,0-22.5,9.2-22.5,20.4c0,10.8,9.2,19.7,20.9,20.4L106.2,76.1z"/>
<path class="st0" d="M20.2,72.1c0.1,2.8-1,5.6-3.2,7.5c-2.1,1.8-5.1,2.7-8.9,2.7c-1.5,0-3-0.2-4.5-0.5c-1.3-0.3-2.5-0.8-3.7-1.5
	v-7.6c1.3,0.8,2.7,1.5,4.2,1.9C5.5,75,7,75.3,8.4,75.3c0.9,0.1,1.7-0.2,2.4-0.7c0.8-0.8,1.1-2,0.6-3c-0.2-0.4-0.4-0.7-0.7-1
	c-0.3-0.3-1.2-1.1-2.6-2.2c-1.5-1.1-2.7-2.5-3.7-4.2c-0.8-1.4-1.2-3-1.1-4.7c-0.1-3.7,2.1-7.1,5.4-8.6c1.8-0.8,3.8-1.3,5.8-1.2
	c3.2-0.1,6.5,0.7,9.3,2.3l-2.9,6.4c-1.9-1.1-4.1-1.8-6.3-1.9c-0.8,0-1.5,0.2-2.1,0.6c-0.5,0.4-0.8,1.1-0.8,1.8c0,0.7,0.3,1.4,0.7,2
	c0.8,0.9,1.8,1.7,2.8,2.4c1.5,1,2.8,2.4,3.8,3.9C19.8,68.8,20.3,70.4,20.2,72.1"/>
<path class="st0" d="M38.3,75.9h-9.7L26,81.8h-8.8l16.1-31.6h10.9l2.7,31.6h-8.2L38.3,75.9z M31.7,69.1h6.3L37.7,60v-1.9
	c0-0.9,0-1.9,0.1-2.8c-0.3,1.2-0.8,2.4-1.3,3.6L31.7,69.1z"/>
</svg>
