<svg id="Layer_1" data-name="Layer 1" xmlns="http://www.w3.org/2000/svg" xmlns:xlink="http://www.w3.org/1999/xlink" viewBox="0 0 127.75 127.75"><defs><style>.cls-1,.cls-2,.cls-3{fill:#8a9297;}.cls-1{clip-rule:evenodd;}.cls-3{fill-rule:evenodd;}.cls-4{clip-path:url(#clip-path);}.cls-5{clip-path:url(#clip-path-2);}.cls-6{clip-path:url(#clip-path-3);}.cls-7{clip-path:url(#clip-path-4);}.cls-8{clip-path:url(#clip-path-5);}.cls-9{clip-path:url(#clip-path-6);}.cls-10{clip-path:url(#clip-path-7);}.cls-11{clip-path:url(#clip-path-8);}.cls-12{clip-path:url(#clip-path-9);}.cls-13{clip-path:url(#clip-path-10);}.cls-14{clip-path:url(#clip-path-11);}.cls-15{clip-path:url(#clip-path-12);}.cls-16{clip-path:url(#clip-path-13);}.cls-17{clip-path:url(#clip-path-14);}.cls-18{clip-path:url(#clip-path-15);}.cls-19{clip-path:url(#clip-path-16);}.cls-20{clip-path:url(#clip-path-17);}.cls-21{clip-path:url(#clip-path-18);}.cls-22{clip-path:url(#clip-path-19);}.cls-23{clip-path:url(#clip-path-20);}.cls-24{clip-path:url(#clip-path-21);}.cls-25{clip-path:url(#clip-path-22);}.cls-26{clip-path:url(#clip-path-23);}.cls-27{clip-path:url(#clip-path-24);}.cls-28{clip-path:url(#clip-path-25);}.cls-29{clip-path:url(#clip-path-26);}.cls-30{clip-path:url(#clip-path-27);}.cls-31{clip-path:url(#clip-path-28);}.cls-32{clip-path:url(#clip-path-29);}</style><clipPath id="clip-path"><path class="cls-1" d="M-50.52,114.91h-.15l-11-.91a1.88,1.88,0,0,1-1.73-1.88V67.79a6.39,6.39,0,0,0-1.71-4.91,6.6,6.6,0,0,0-4.49-1.46h-.18l-47.55-.53v46.91a1.91,1.91,0,0,1-.6,1.38,1.89,1.89,0,0,1-1.43.49l-9.25-.73a1.88,1.88,0,0,1-1.73-1.89c0-.3.27-29.77.21-36.75A14.85,14.85,0,0,1-126.77,61h-5.89a3.54,3.54,0,0,1-3.26-2.65,1.77,1.77,0,0,1-.09-.56V51.67c0-3.05,1.89-4.31,3-4.58a2.73,2.73,0,0,1,.4-.05l67.22-.91h.26c15.86,2,16.66,15.93,16.67,16.07v.09L-48.64,113a1.88,1.88,0,0,1-.61,1.38A1.85,1.85,0,0,1-50.52,114.91Zm-9.11-4.53,7.24.6.17-48.64c-.05-.78-.94-10.82-13.24-12.45l-66.61.91a1.66,1.66,0,0,0-.18.87v5.54h10.12a1.88,1.88,0,0,1,1.43.66.91.91,0,0,1,.18-.21,1.82,1.82,0,0,1,1.34-.54l49.38.54a10.36,10.36,0,0,1,7.22,2.42c2,1.79,2.95,4.39,2.95,7.71Zm-66.92-5,5.47.43V60.65h0s-5.32,3.68-5.26,9.63S-126.5,98.85-126.55,105.34Z"/></clipPath><clipPath id="clip-path-2"><path class="cls-1" d="M-45.4,111.44h-3.76V61.82c-.09-1-1.31-11.3-12-12.12l.28-3.75c11.42.87,15.14,10.62,15.51,15.66v49.83Z"/></clipPath><clipPath id="clip-path-3"><path class="cls-1" d="M-125,43.91A1.88,1.88,0,0,1-126.88,42L-127,22.2a1.88,1.88,0,0,1,1.82-1.9l9.64-.3h.1l3.42.06A1.87,1.87,0,0,1-110.18,22a1.87,1.87,0,0,1-1.91,1.85l-3.37-.06-7.77.25.11,18a1.89,1.89,0,0,1-1.87,1.9Z"/></clipPath><clipPath id="clip-path-4"><path class="cls-1" d="M-109.36,36.83h-.47A5,5,0,0,1-114,35.06a4.56,4.56,0,0,1-.8-3.49l.84-9.68c-.08-2.54.62-4.44,2.06-5.65a6.11,6.11,0,0,1,4.7-1.2l41.85-2,.23,0c2.51.51,4.25,1.53,5.19,3a4.46,4.46,0,0,1,.64,3.09c-.11,1.42-.78,9.74-1.45,12.36a5.76,5.76,0,0,1-4.77,4.33l-.18,0c-1.6,0-37.92.92-43.69.92m1.2-18.09a2.07,2.07,0,0,0-1.31.39,3.66,3.66,0,0,0-.71,2.73V22l-.91,10.29a.75.75,0,0,0,.08.49,1.83,1.83,0,0,0,1.23.3c3.66.07,41.35-.85,43.88-.91a2,2,0,0,0,1.52-1.52c.52-2,1.15-9.22,1.35-11.83l.05-.31c0-.54-.81-1.27-2.66-1.68l-41.82,2-.23-.05a4.69,4.69,0,0,0-.48,0"/></clipPath><clipPath id="clip-path-5"><path class="cls-1" d="M-72.69,21.92a1.2,1.2,0,0,0-.92-.27,1.68,1.68,0,0,0-1,.4,2.2,2.2,0,0,0-.62,1.24s0,.1,0,.17,1.09,0,2-.06c.5,0,.79-.16.85-.6a1,1,0,0,0-.2-.88m1.84,1a1.41,1.41,0,0,1-.62,1.08,2.71,2.71,0,0,1-1.42.4,9.83,9.83,0,0,1-1.86,0c-.38-.08-.5-.65-.56-.81a4.08,4.08,0,0,0-.07,1.09,1.12,1.12,0,0,0,.5,1,2.14,2.14,0,0,0,1.21.24c.33,0,.66,0,1-.07s.54-.07.81-.11h0c.07,0,.14,0,.13.12l-.1.83c0,.06,0,.1-.12.13a6.71,6.71,0,0,1-1,.25,8.6,8.6,0,0,1-1.08.11A4.63,4.63,0,0,1-75.57,27a2.12,2.12,0,0,1-1-.59,2,2,0,0,1-.46-1,4.36,4.36,0,0,1,0-1.36l0-.41a3.86,3.86,0,0,1,1-2.33,3.6,3.6,0,0,1,2.5-.92,2.56,2.56,0,0,1,2.07.63A2.33,2.33,0,0,1-70.85,23m-22.44-1.74-4.45.17c-.29,0-.39.21-.44.49l-.1.82c0,.23.08.32.3.31h.38l1.4-.06c.11,0,0,0,0,.05a2.36,2.36,0,0,0-1.29,1.9c0,.21-.34,2.67-.34,2.67a.76.76,0,0,0,0,.15c0,.23.14.28.23.28l.89,0h.08c.35,0,.45-.11.49-.47s.54-4.27.58-4.56l1,0c.49,0,1.06-.07,1.33.25s.23.71.16,1.27l-.37,3a.81.81,0,0,0,0,.15c0,.23.13.28.22.28l.9,0h.08c.35,0,.44-.11.49-.47,0-.12.48-3.76.51-4a1.88,1.88,0,0,0-2.08-2.07m25.05-.33c0-.24,0-.66-.47-.64l-.81,0a.42.42,0,0,0-.4.35l-.73,5.89c0,.32.06.44.22.43l1.17,0a.35.35,0,0,0,.31-.29l.1-.7s.23-1.92.43-3.5a.31.31,0,0,0-.35-.37l-1,0h-.11s0,0,0,0c.51-.09,1.48-.53,1.56-1.19m-20.63,1.92-.95,0h-.11s0,0,0,0c.51-.1,1.49-.54,1.57-1.2,0-.24,0-.66-.48-.64l-.81,0a.4.4,0,0,0-.39.35l-.73,5.89c-.06.32,0,.43.21.43l1.17-.05A.33.33,0,0,0-89,27.4l.09-.71s.24-1.91.43-3.5a.31.31,0,0,0-.34-.37m11.31-2.05a5,5,0,0,0-.91-.18,9.49,9.49,0,0,0-1.07,0,4.46,4.46,0,0,0-1,.15,2.56,2.56,0,0,0-.8.37,2.14,2.14,0,0,0-.56.6,2.24,2.24,0,0,0-.28.86,1.38,1.38,0,0,0,.25,1.11,2.47,2.47,0,0,0,1,.69l1,.38a1.67,1.67,0,0,1,.45.26.47.47,0,0,1,.15.43.62.62,0,0,1-.31.49,1.61,1.61,0,0,1-.76.17h-1.05c-.38,0-.73,0-1-.06h0a.1.1,0,0,0-.11.1c0,.05,0,0,0,0l-.11.93c0,.11,0,.16.12.18.36.07.73.12,1.12.16a8.28,8.28,0,0,0,1.23,0,3.3,3.3,0,0,0,1.85-.57,2,2,0,0,0,.82-1.43,1.58,1.58,0,0,0-.23-1.14,2.25,2.25,0,0,0-1-.72l-1-.4A3.06,3.06,0,0,1-80.3,23a.38.38,0,0,1-.14-.41.57.57,0,0,1,.3-.48,2,2,0,0,1,.69-.12,8.61,8.61,0,0,1,.88,0l.87.07h.06a.11.11,0,0,0,.1-.09c0-.06,0,0,0,0l.12-.93a.17.17,0,0,0-.14-.18m-5.38,1.35a.12.12,0,0,1-.1.09h-.06a8.09,8.09,0,0,0-.86-.07c-.3,0-.6,0-.89,0a1.92,1.92,0,0,0-.69.13.56.56,0,0,0-.3.47.39.39,0,0,0,.14.41,2.32,2.32,0,0,0,.45.23l1,.41a2.25,2.25,0,0,1,1,.72A1.54,1.54,0,0,1-83,25.64a2,2,0,0,1-.82,1.44,3.28,3.28,0,0,1-1.85.57q-.65,0-1.23,0c-.38,0-.76-.1-1.11-.17a.14.14,0,0,1-.13-.18l.12-.93v0a.1.1,0,0,1,.11-.09h0c.3,0,.65.05,1,.06s.74,0,1.06,0a1.58,1.58,0,0,0,.75-.16.62.62,0,0,0,.31-.49.49.49,0,0,0-.14-.43,1.93,1.93,0,0,0-.46-.26l-1-.38a2.47,2.47,0,0,1-1-.69,1.41,1.41,0,0,1-.25-1.12,2.24,2.24,0,0,1,.28-.86,2.14,2.14,0,0,1,.56-.6,2.8,2.8,0,0,1,.8-.37,4.46,4.46,0,0,1,1-.14,6.32,6.32,0,0,1,1.07,0A3.66,3.66,0,0,1-83,21c.06,0,.16.06.14.17l-.11.93s0,0,0,0"/></clipPath><clipPath id="clip-path-6"><path class="cls-1" d="M-88.08,30.11c-.36.05-.44.13-.46.25s0,.15.17.14l.25,0Zm-.34.63c-.32,0-.46-.11-.43-.36s.27-.44.8-.51h0a.53.53,0,0,0,0-.19s-.07-.06-.15-.05a.82.82,0,0,0-.46.17l0,0,0-.3h0a1.28,1.28,0,0,1,.54-.16c.19,0,.32.05.36.17a.57.57,0,0,1,0,.31l-.11.83h-.08A4.35,4.35,0,0,1-88.42,30.74Z"/></clipPath><clipPath id="clip-path-7"><path class="cls-1" d="M-87.27,29.15l0-.34h.34l0,.34Zm-.19,1.53.18-1.33H-87l-.17,1.33Z"/></clipPath><clipPath id="clip-path-8"><path class="cls-1" d="M-86.41,30.68a1,1,0,0,1-.37-.06h0l0-.32,0,0a.46.46,0,0,0,.32.11c.14,0,.23-.06.24-.15a.1.1,0,0,0-.07-.12.64.64,0,0,0-.17-.08c-.23-.1-.31-.2-.28-.37a.54.54,0,0,1,.57-.42.65.65,0,0,1,.34.06h0l0,.3,0,0a.43.43,0,0,0-.29-.08c-.13,0-.22.06-.23.14s0,.08.2.17a.51.51,0,0,1,.25.15.28.28,0,0,1,.08.25.55.55,0,0,1-.59.43"/></clipPath><clipPath id="clip-path-9"><path class="cls-1" d="M-84.07,29.46a.52.52,0,0,0-.55.46c0,.28.1.42.38.41l.19,0,.11-.83Zm-.1,1.75.09-.67a.71.71,0,0,1-.24,0c-.45,0-.68-.22-.63-.63a.88.88,0,0,1,1-.74,1.33,1.33,0,0,1,.39,0h0l-.26,2Z"/></clipPath><clipPath id="clip-path-10"><path class="cls-1" d="M-82.77,30.52a.57.57,0,0,1-.44-.1c-.09-.08-.11-.19-.09-.39l.11-.84h.33L-83,30c0,.22,0,.28.27.27l.23,0,.14-1.08H-82l-.17,1.29h0a3.67,3.67,0,0,1-.57.08"/></clipPath><clipPath id="clip-path-11"><path class="cls-1" d="M-80.78,29.58c0-.17-.09-.24-.25-.24a.41.41,0,0,0-.37.26Zm-.37.89c-.45,0-.68-.22-.62-.63a.81.81,0,0,1,.77-.75.49.49,0,0,1,.48.22.61.61,0,0,1,0,.41l0,.09-1,0v0c0,.23.11.37.38.36a.85.85,0,0,0,.45-.16l.06,0,0,.29h0A1.16,1.16,0,0,1-81.15,30.47Z"/></clipPath><clipPath id="clip-path-12"><path class="cls-1" d="M-79.57,30.38l.14-1.05h-.22l0-.24h.21v0a.77.77,0,0,1,.26-.57.74.74,0,0,1,.43-.17h.16l0,.24h-.14a.33.33,0,0,0-.24.1.75.75,0,0,0-.12.37v0h.34l0,.24-.34,0-.14,1.05Z"/></clipPath><clipPath id="clip-path-13"><path class="cls-1" d="M-77.91,29.73c-.36,0-.44.12-.46.24s0,.15.17.15l.25,0Zm-.35.62c-.31,0-.45-.1-.42-.35s.27-.45.8-.51h0v0a.55.55,0,0,0,0-.19s-.07-.05-.15-.05a1,1,0,0,0-.46.17l0,0,0-.29h0a1.17,1.17,0,0,1,.54-.17c.19,0,.32.05.36.17a.57.57,0,0,1,0,.31l-.11.83h-.08A3,3,0,0,1-78.26,30.35Z"/></clipPath><clipPath id="clip-path-14"><path class="cls-1" d="M-77.29,30.3l.17-1.25h0a1.58,1.58,0,0,1,.56-.13.93.93,0,0,1,.24,0h0l0,.26h0a.37.37,0,0,0-.21,0,.8.8,0,0,0-.26.05L-77,30.28Z"/></clipPath><clipPath id="clip-path-15"><path class="cls-1" d="M-74.55,30.19l.11-.83c0-.19,0-.26-.22-.26a1.14,1.14,0,0,0-.24,0,1.64,1.64,0,0,1,0,.2l-.11.86h-.33l.11-.83c0-.2,0-.26-.24-.25a.77.77,0,0,0-.25,0l-.14,1.06h-.33L-76,29h0a2.39,2.39,0,0,1,.61-.11A.58.58,0,0,1-75,29a1.27,1.27,0,0,1,.46-.1.5.5,0,0,1,.41.13.36.36,0,0,1,.06.34l-.11.86Z"/></clipPath><clipPath id="clip-path-16"><path class="cls-1" d="M-89.59,30.76l.11-.83c0-.19,0-.26-.22-.25a.79.79,0,0,0-.25.05.47.47,0,0,1,0,.2l-.11.85h-.32l.11-.83c0-.19,0-.26-.25-.25a.81.81,0,0,0-.25,0l-.14,1.06-.32,0,.16-1.26h0a3,3,0,0,1,.6-.11.82.82,0,0,1,.37.07,1.53,1.53,0,0,1,.45-.1.48.48,0,0,1,.41.13.38.38,0,0,1,.07.34l-.12.86Z"/></clipPath><clipPath id="clip-path-17"><path class="cls-1" d="M-73.35,28.67l.57-.59h.3l-.63.6Zm.27.87c-.37.05-.45.13-.47.25s0,.15.18.14l.24,0Zm-.35.63c-.32,0-.46-.11-.43-.36s.28-.44.8-.51h0c0-.12,0-.16,0-.19s-.07-.06-.14-.05a.77.77,0,0,0-.46.17l-.06,0,0-.29h0a1.32,1.32,0,0,1,.54-.16c.2,0,.32.05.37.16a.81.81,0,0,1,0,.32l-.11.83h-.08A4.11,4.11,0,0,1-73.43,30.17Z"/></clipPath><clipPath id="clip-path-18"><path class="cls-1" d="M-71.85,30.11a.54.54,0,0,1-.63-.64.84.84,0,0,1,.84-.73.65.65,0,0,1,.34.06h0l0,.29,0,0a.52.52,0,0,0-.3-.08.49.49,0,0,0-.49.45c0,.28.1.43.38.42a.74.74,0,0,0,.34-.12l.05,0,0,.29h0a.86.86,0,0,1-.41.1"/></clipPath><clipPath id="clip-path-19"><path class="cls-1" d="M-71,28.53l0-.34h.34l0,.34Zm-.19,1.53.17-1.33h.33l-.18,1.33Z"/></clipPath><clipPath id="clip-path-20"><path class="cls-1" d="M-69.7,29.41c-.36.05-.44.13-.46.25s0,.15.17.14l.25,0ZM-70,30q-.47,0-.42-.36c0-.3.27-.44.8-.51h0a.53.53,0,0,0,0-.19s-.07-.06-.15,0a.82.82,0,0,0-.46.17l0,0,0-.3h0a1.36,1.36,0,0,1,.55-.16c.19,0,.31.05.36.17a.57.57,0,0,1,0,.31l-.11.83h-.08A4.48,4.48,0,0,1-70,30Z"/></clipPath><clipPath id="clip-path-21"><path class="cls-1" d="M-101.26,25.13l-.55,3.11A4.37,4.37,0,0,0-99,25.05Z"/></clipPath><clipPath id="clip-path-22"><path class="cls-1" d="M-100.88,23.13l1.67-.07a4.11,4.11,0,0,0-1.36-1.74Z"/></clipPath><clipPath id="clip-path-23"><path class="cls-1" d="M-103.65,26.91c.14-.51.31-1.36,1.88-1.7.14,0,.12-.06,0-.06l-5.09.2c0-.27.18-1.1.25-1.42.1-.5.36-.6.83-.62l2.78-.1.51-2.77a5.31,5.31,0,0,0-1.5-.15c-2.68.1-4.77,2.05-4.69,4.35s2.15,3.93,4.68,4Z"/></clipPath><clipPath id="clip-path-24"><polygon class="cls-1" points="-87.64 110.39 -118.18 107.99 -117.89 104.24 -91.41 106.32 -91.5 59.18 -87.74 59.18 -87.64 110.39"/></clipPath><clipPath id="clip-path-25"><rect class="cls-2" x="-77.49" y="95.45" width="3.76" height="27.92" transform="translate(-179.01 25.76) rotate(-85.67)"/></clipPath><clipPath id="clip-path-26"><path class="cls-1" d="M-84,93.73a1.89,1.89,0,0,1-1.62-.93,1.88,1.88,0,0,1,.66-2.57l1-.62V87.72l-1.52-1.27a1.89,1.89,0,0,1-.24-2.65A1.88,1.88,0,0,1-83,83.56l2.2,1.83a1.89,1.89,0,0,1,.68,1.45v3.84a1.88,1.88,0,0,1-.92,1.62l-2,1.16a1.86,1.86,0,0,1-1,.27"/></clipPath><clipPath id="clip-path-27"><path class="cls-1" d="M-95.71,93.19a1.86,1.86,0,0,1-1-.27l-2-1.16a1.89,1.89,0,0,1-.93-1.61V86.3a1.89,1.89,0,0,1,.68-1.45l2.2-1.83a1.89,1.89,0,0,1,2.65.24,1.88,1.88,0,0,1-.24,2.65l-1.52,1.27v1.9l1,.61a1.89,1.89,0,0,1,.66,2.58,1.89,1.89,0,0,1-1.62.92"/></clipPath><clipPath id="clip-path-28"><path class="cls-2" d="M-404.65,483.86h-83.52L-452.61,450a3.3,3.3,0,0,0,0-4.94,3.71,3.71,0,0,0-5.19,0l-42,39.81a3.29,3.29,0,0,0,0,4.94L-458,529.66a3.7,3.7,0,0,0,5.18,0,3.3,3.3,0,0,0,0-4.94l-35.37-33.82h83.52a3.63,3.63,0,0,0,3.71-3.52A3.63,3.63,0,0,0-404.65,483.86Z"/></clipPath><clipPath id="clip-path-29"><path class="cls-2" d="M-645.24,483.86h83.52L-597.28,450a3.3,3.3,0,0,1,0-4.94,3.71,3.71,0,0,1,5.19,0l42,39.81a3.29,3.29,0,0,1,0,4.94l-41.85,39.81a3.7,3.7,0,0,1-5.18,0,3.3,3.3,0,0,1,0-4.94l35.37-33.82h-83.52a3.62,3.62,0,0,1-3.7-3.52A3.62,3.62,0,0,1-645.24,483.86Z"/></clipPath></defs><title>icons</title><path class="cls-3" d="M-50.52,114.91h-.15l-11-.91a1.88,1.88,0,0,1-1.73-1.88V67.79a6.39,6.39,0,0,0-1.71-4.91,6.6,6.6,0,0,0-4.49-1.46h-.18l-47.55-.53v46.91a1.91,1.91,0,0,1-.6,1.38,1.89,1.89,0,0,1-1.43.49l-9.25-.73a1.88,1.88,0,0,1-1.73-1.89c0-.3.27-29.77.21-36.75A14.85,14.85,0,0,1-126.77,61h-5.89a3.54,3.54,0,0,1-3.26-2.65,1.77,1.77,0,0,1-.09-.56V51.67c0-3.05,1.89-4.31,3-4.58a2.73,2.73,0,0,1,.4-.05l67.22-.91h.26c15.86,2,16.66,15.93,16.67,16.07v.09L-48.64,113a1.88,1.88,0,0,1-.61,1.38A1.85,1.85,0,0,1-50.52,114.91Zm-9.11-4.53,7.24.6.17-48.64c-.05-.78-.94-10.82-13.24-12.45l-66.61.91a1.66,1.66,0,0,0-.18.87v5.54h10.12a1.88,1.88,0,0,1,1.43.66.91.91,0,0,1,.18-.21,1.82,1.82,0,0,1,1.34-.54l49.38.54a10.36,10.36,0,0,1,7.22,2.42c2,1.79,2.95,4.39,2.95,7.71Zm-66.92-5,5.47.43V60.65h0s-5.32,3.68-5.26,9.63S-126.5,98.85-126.55,105.34Z"/><g class="cls-4"><rect class="cls-2" x="-4633.79" y="-2469.02" width="6348.4" height="5052.27"/></g><path class="cls-3" d="M-45.4,111.44h-3.76V61.82c-.09-1-1.31-11.3-12-12.12l.28-3.75c11.42.87,15.14,10.62,15.51,15.66v49.83Z"/><g class="cls-5"><rect class="cls-2" x="-4633.79" y="-2469.02" width="6348.4" height="5052.27"/></g><path class="cls-3" d="M-125,43.91A1.88,1.88,0,0,1-126.88,42L-127,22.2a1.88,1.88,0,0,1,1.82-1.9l9.64-.3h.1l3.42.06A1.87,1.87,0,0,1-110.18,22a1.87,1.87,0,0,1-1.91,1.85l-3.37-.06-7.77.25.11,18a1.89,1.89,0,0,1-1.87,1.9Z"/><g class="cls-6"><rect class="cls-2" x="-4633.79" y="-2469.02" width="6348.4" height="5052.27"/></g><path class="cls-3" d="M-109.36,36.83h-.47A5,5,0,0,1-114,35.06a4.56,4.56,0,0,1-.8-3.49l.84-9.68c-.08-2.54.62-4.44,2.06-5.65a6.11,6.11,0,0,1,4.7-1.2l41.85-2,.23,0c2.51.51,4.25,1.53,5.19,3a4.46,4.46,0,0,1,.64,3.09c-.11,1.42-.78,9.74-1.45,12.36a5.76,5.76,0,0,1-4.77,4.33l-.18,0c-1.6,0-37.92.92-43.69.92m1.2-18.09a2.07,2.07,0,0,0-1.31.39,3.66,3.66,0,0,0-.71,2.73V22l-.91,10.29a.75.75,0,0,0,.08.49,1.83,1.83,0,0,0,1.23.3c3.66.07,41.35-.85,43.88-.91a2,2,0,0,0,1.52-1.52c.52-2,1.15-9.22,1.35-11.83l.05-.31c0-.54-.81-1.27-2.66-1.68l-41.82,2-.23-.05a4.69,4.69,0,0,0-.48,0"/><g class="cls-7"><rect class="cls-2" x="-4633.79" y="-2469.02" width="6348.4" height="5052.27"/></g><path class="cls-3" d="M-72.69,21.92a1.2,1.2,0,0,0-.92-.27,1.68,1.68,0,0,0-1,.4,2.2,2.2,0,0,0-.62,1.24s0,.1,0,.17,1.09,0,2-.06c.5,0,.79-.16.85-.6a1,1,0,0,0-.2-.88m1.84,1a1.41,1.41,0,0,1-.62,1.08,2.71,2.71,0,0,1-1.42.4,9.83,9.83,0,0,1-1.86,0c-.38-.08-.5-.65-.56-.81a4.08,4.08,0,0,0-.07,1.09,1.12,1.12,0,0,0,.5,1,2.14,2.14,0,0,0,1.21.24c.33,0,.66,0,1-.07s.54-.07.81-.11h0c.07,0,.14,0,.13.12l-.1.83c0,.06,0,.1-.12.13a6.71,6.71,0,0,1-1,.25,8.6,8.6,0,0,1-1.08.11A4.63,4.63,0,0,1-75.57,27a2.12,2.12,0,0,1-1-.59,2,2,0,0,1-.46-1,4.36,4.36,0,0,1,0-1.36l0-.41a3.86,3.86,0,0,1,1-2.33,3.6,3.6,0,0,1,2.5-.92,2.56,2.56,0,0,1,2.07.63A2.33,2.33,0,0,1-70.85,23m-22.44-1.74-4.45.17c-.29,0-.39.21-.44.49l-.1.82c0,.23.08.32.3.31h.38l1.4-.06c.11,0,0,0,0,.05a2.36,2.36,0,0,0-1.29,1.9c0,.21-.34,2.67-.34,2.67a.76.76,0,0,0,0,.15c0,.23.14.28.23.28l.89,0h.08c.35,0,.45-.11.49-.47s.54-4.27.58-4.56l1,0c.49,0,1.06-.07,1.33.25s.23.71.16,1.27l-.37,3a.81.81,0,0,0,0,.15c0,.23.13.28.22.28l.9,0h.08c.35,0,.44-.11.49-.47,0-.12.48-3.76.51-4a1.88,1.88,0,0,0-2.08-2.07m25.05-.33c0-.24,0-.66-.47-.64l-.81,0a.42.42,0,0,0-.4.35l-.73,5.89c0,.32.06.44.22.43l1.17,0a.35.35,0,0,0,.31-.29l.1-.7s.23-1.92.43-3.5a.31.31,0,0,0-.35-.37l-1,0h-.11s0,0,0,0c.51-.09,1.48-.53,1.56-1.19m-20.63,1.92-.95,0h-.11s0,0,0,0c.51-.1,1.49-.54,1.57-1.2,0-.24,0-.66-.48-.64l-.81,0a.4.4,0,0,0-.39.35l-.73,5.89c-.06.32,0,.43.21.43l1.17-.05A.33.33,0,0,0-89,27.4l.09-.71s.24-1.91.43-3.5a.31.31,0,0,0-.34-.37m11.31-2.05a5,5,0,0,0-.91-.18,9.49,9.49,0,0,0-1.07,0,4.46,4.46,0,0,0-1,.15,2.56,2.56,0,0,0-.8.37,2.14,2.14,0,0,0-.56.6,2.24,2.24,0,0,0-.28.86,1.38,1.38,0,0,0,.25,1.11,2.47,2.47,0,0,0,1,.69l1,.38a1.67,1.67,0,0,1,.45.26.47.47,0,0,1,.15.43.62.62,0,0,1-.31.49,1.61,1.61,0,0,1-.76.17h-1.05c-.38,0-.73,0-1-.06h0a.1.1,0,0,0-.11.1c0,.05,0,0,0,0l-.11.93c0,.11,0,.16.12.18.36.07.73.12,1.12.16a8.28,8.28,0,0,0,1.23,0,3.3,3.3,0,0,0,1.85-.57,2,2,0,0,0,.82-1.43,1.58,1.58,0,0,0-.23-1.14,2.25,2.25,0,0,0-1-.72l-1-.4A3.06,3.06,0,0,1-80.3,23a.38.38,0,0,1-.14-.41.57.57,0,0,1,.3-.48,2,2,0,0,1,.69-.12,8.61,8.61,0,0,1,.88,0l.87.07h.06a.11.11,0,0,0,.1-.09c0-.06,0,0,0,0l.12-.93a.17.17,0,0,0-.14-.18m-5.38,1.35a.12.12,0,0,1-.1.09h-.06a8.09,8.09,0,0,0-.86-.07c-.3,0-.6,0-.89,0a1.92,1.92,0,0,0-.69.13.56.56,0,0,0-.3.47.39.39,0,0,0,.14.41,2.32,2.32,0,0,0,.45.23l1,.41a2.25,2.25,0,0,1,1,.72A1.54,1.54,0,0,1-83,25.64a2,2,0,0,1-.82,1.44,3.28,3.28,0,0,1-1.85.57q-.65,0-1.23,0c-.38,0-.76-.1-1.11-.17a.14.14,0,0,1-.13-.18l.12-.93v0a.1.1,0,0,1,.11-.09h0c.3,0,.65.05,1,.06s.74,0,1.06,0a1.58,1.58,0,0,0,.75-.16.62.62,0,0,0,.31-.49.49.49,0,0,0-.14-.43,1.93,1.93,0,0,0-.46-.26l-1-.38a2.47,2.47,0,0,1-1-.69,1.41,1.41,0,0,1-.25-1.12,2.24,2.24,0,0,1,.28-.86,2.14,2.14,0,0,1,.56-.6,2.8,2.8,0,0,1,.8-.37,4.46,4.46,0,0,1,1-.14,6.32,6.32,0,0,1,1.07,0A3.66,3.66,0,0,1-83,21c.06,0,.16.06.14.17l-.11.93s0,0,0,0"/><g class="cls-8"><rect class="cls-2" x="-4633.79" y="-2469.02" width="6348.4" height="5052.27"/></g><path class="cls-3" d="M-88.08,30.11c-.36.05-.44.13-.46.25s0,.15.17.14l.25,0Zm-.34.63c-.32,0-.46-.11-.43-.36s.27-.44.8-.51h0a.53.53,0,0,0,0-.19s-.07-.06-.15-.05a.82.82,0,0,0-.46.17l0,0,0-.3h0a1.28,1.28,0,0,1,.54-.16c.19,0,.32.05.36.17a.57.57,0,0,1,0,.31l-.11.83h-.08A4.35,4.35,0,0,1-88.42,30.74Z"/><g class="cls-9"><rect class="cls-2" x="-4633.79" y="-2469.02" width="6348.4" height="5052.27"/></g><path class="cls-3" d="M-87.27,29.15l0-.34h.34l0,.34Zm-.19,1.53.18-1.33H-87l-.17,1.33Z"/><g class="cls-10"><rect class="cls-2" x="-4633.79" y="-2469.02" width="6348.4" height="5052.27"/></g><path class="cls-3" d="M-86.41,30.68a1,1,0,0,1-.37-.06h0l0-.32,0,0a.46.46,0,0,0,.32.11c.14,0,.23-.06.24-.15a.1.1,0,0,0-.07-.12.64.64,0,0,0-.17-.08c-.23-.1-.31-.2-.28-.37a.54.54,0,0,1,.57-.42.65.65,0,0,1,.34.06h0l0,.3,0,0a.43.43,0,0,0-.29-.08c-.13,0-.22.06-.23.14s0,.08.2.17a.51.51,0,0,1,.25.15.28.28,0,0,1,.08.25.55.55,0,0,1-.59.43"/><g class="cls-11"><rect class="cls-2" x="-4633.79" y="-2469.02" width="6348.4" height="5052.27"/></g><path class="cls-3" d="M-84.07,29.46a.52.52,0,0,0-.55.46c0,.28.1.42.38.41l.19,0,.11-.83Zm-.1,1.75.09-.67a.71.71,0,0,1-.24,0c-.45,0-.68-.22-.63-.63a.88.88,0,0,1,1-.74,1.33,1.33,0,0,1,.39,0h0l-.26,2Z"/><g class="cls-12"><rect class="cls-2" x="-4633.79" y="-2469.02" width="6348.4" height="5052.27"/></g><path class="cls-3" d="M-82.77,30.52a.57.57,0,0,1-.44-.1c-.09-.08-.11-.19-.09-.39l.11-.84h.33L-83,30c0,.22,0,.28.27.27l.23,0,.14-1.08H-82l-.17,1.29h0a3.67,3.67,0,0,1-.57.08"/><g class="cls-13"><rect class="cls-2" x="-4633.79" y="-2469.02" width="6348.4" height="5052.27"/></g><path class="cls-3" d="M-80.78,29.58c0-.17-.09-.24-.25-.24a.41.41,0,0,0-.37.26Zm-.37.89c-.45,0-.68-.22-.62-.63a.81.81,0,0,1,.77-.75.49.49,0,0,1,.48.22.61.61,0,0,1,0,.41l0,.09-1,0v0c0,.23.11.37.38.36a.85.85,0,0,0,.45-.16l.06,0,0,.29h0A1.16,1.16,0,0,1-81.15,30.47Z"/><g class="cls-14"><rect class="cls-2" x="-4633.79" y="-2469.02" width="6348.4" height="5052.27"/></g><path class="cls-3" d="M-79.57,30.38l.14-1.05h-.22l0-.24h.21v0a.77.77,0,0,1,.26-.57.74.74,0,0,1,.43-.17h.16l0,.24h-.14a.33.33,0,0,0-.24.1.75.75,0,0,0-.12.37v0h.34l0,.24-.34,0-.14,1.05Z"/><g class="cls-15"><rect class="cls-2" x="-4633.79" y="-2469.02" width="6348.4" height="5052.27"/></g><path class="cls-3" d="M-77.91,29.73c-.36,0-.44.12-.46.24s0,.15.17.15l.25,0Zm-.35.62c-.31,0-.45-.1-.42-.35s.27-.45.8-.51h0v0a.55.55,0,0,0,0-.19s-.07-.05-.15-.05a1,1,0,0,0-.46.17l0,0,0-.29h0a1.17,1.17,0,0,1,.54-.17c.19,0,.32.05.36.17a.57.57,0,0,1,0,.31l-.11.83h-.08A3,3,0,0,1-78.26,30.35Z"/><g class="cls-16"><rect class="cls-2" x="-4633.79" y="-2469.02" width="6348.4" height="5052.27"/></g><path class="cls-3" d="M-77.29,30.3l.17-1.25h0a1.58,1.58,0,0,1,.56-.13.93.93,0,0,1,.24,0h0l0,.26h0a.37.37,0,0,0-.21,0,.8.8,0,0,0-.26.05L-77,30.28Z"/><g class="cls-17"><rect class="cls-2" x="-4633.79" y="-2469.02" width="6348.4" height="5052.27"/></g><path class="cls-3" d="M-74.55,30.19l.11-.83c0-.19,0-.26-.22-.26a1.14,1.14,0,0,0-.24,0,1.64,1.64,0,0,1,0,.2l-.11.86h-.33l.11-.83c0-.2,0-.26-.24-.25a.77.77,0,0,0-.25,0l-.14,1.06h-.33L-76,29h0a2.39,2.39,0,0,1,.61-.11A.58.58,0,0,1-75,29a1.27,1.27,0,0,1,.46-.1.5.5,0,0,1,.41.13.36.36,0,0,1,.06.34l-.11.86Z"/><g class="cls-18"><rect class="cls-2" x="-4633.79" y="-2469.02" width="6348.4" height="5052.27"/></g><path class="cls-3" d="M-89.59,30.76l.11-.83c0-.19,0-.26-.22-.25a.79.79,0,0,0-.25.05.47.47,0,0,1,0,.2l-.11.85h-.32l.11-.83c0-.19,0-.26-.25-.25a.81.81,0,0,0-.25,0l-.14,1.06-.32,0,.16-1.26h0a3,3,0,0,1,.6-.11.82.82,0,0,1,.37.07,1.53,1.53,0,0,1,.45-.1.48.48,0,0,1,.41.13.38.38,0,0,1,.07.34l-.12.86Z"/><g class="cls-19"><rect class="cls-2" x="-4633.79" y="-2469.02" width="6348.4" height="5052.27"/></g><path class="cls-3" d="M-73.35,28.67l.57-.59h.3l-.63.6Zm.27.87c-.37.05-.45.13-.47.25s0,.15.18.14l.24,0Zm-.35.63c-.32,0-.46-.11-.43-.36s.28-.44.8-.51h0c0-.12,0-.16,0-.19s-.07-.06-.14-.05a.77.77,0,0,0-.46.17l-.06,0,0-.29h0a1.32,1.32,0,0,1,.54-.16c.2,0,.32.05.37.16a.81.81,0,0,1,0,.32l-.11.83h-.08A4.11,4.11,0,0,1-73.43,30.17Z"/><g class="cls-20"><rect class="cls-2" x="-4633.79" y="-2469.02" width="6348.4" height="5052.27"/></g><path class="cls-3" d="M-71.85,30.11a.54.54,0,0,1-.63-.64.84.84,0,0,1,.84-.73.65.65,0,0,1,.34.06h0l0,.29,0,0a.52.52,0,0,0-.3-.08.49.49,0,0,0-.49.45c0,.28.1.43.38.42a.74.74,0,0,0,.34-.12l.05,0,0,.29h0a.86.86,0,0,1-.41.1"/><g class="cls-21"><rect class="cls-2" x="-4633.79" y="-2469.02" width="6348.4" height="5052.27"/></g><path class="cls-3" d="M-71,28.53l0-.34h.34l0,.34Zm-.19,1.53.17-1.33h.33l-.18,1.33Z"/><g class="cls-22"><rect class="cls-2" x="-4633.79" y="-2469.02" width="6348.4" height="5052.27"/></g><path class="cls-3" d="M-69.7,29.41c-.36.05-.44.13-.46.25s0,.15.17.14l.25,0ZM-70,30q-.47,0-.42-.36c0-.3.27-.44.8-.51h0a.53.53,0,0,0,0-.19s-.07-.06-.15,0a.82.82,0,0,0-.46.17l0,0,0-.3h0a1.36,1.36,0,0,1,.55-.16c.19,0,.31.05.36.17a.57.57,0,0,1,0,.31l-.11.83h-.08A4.48,4.48,0,0,1-70,30Z"/><g class="cls-23"><rect class="cls-2" x="-4633.79" y="-2469.02" width="6348.4" height="5052.27"/></g><path class="cls-3" d="M-101.26,25.13l-.55,3.11A4.37,4.37,0,0,0-99,25.05Z"/><g class="cls-24"><rect class="cls-2" x="-4633.79" y="-2469.02" width="6348.4" height="5052.27"/></g><path class="cls-3" d="M-100.88,23.13l1.67-.07a4.11,4.11,0,0,0-1.36-1.74Z"/><g class="cls-25"><rect class="cls-2" x="-4633.79" y="-2469.02" width="6348.4" height="5052.27"/></g><path class="cls-3" d="M-103.65,26.91c.14-.51.31-1.36,1.88-1.7.14,0,.12-.06,0-.06l-5.09.2c0-.27.18-1.1.25-1.42.1-.5.36-.6.83-.62l2.78-.1.51-2.77a5.31,5.31,0,0,0-1.5-.15c-2.68.1-4.77,2.05-4.69,4.35s2.15,3.93,4.68,4Z"/><g class="cls-26"><rect class="cls-2" x="-4633.79" y="-2469.02" width="6348.4" height="5052.27"/></g><polygon class="cls-3" points="-87.64 110.39 -118.18 107.99 -117.89 104.24 -91.41 106.32 -91.5 59.18 -87.74 59.18 -87.64 110.39"/><g class="cls-27"><rect class="cls-2" x="-4633.79" y="-2469.02" width="6348.4" height="5052.27"/></g><rect class="cls-2" x="-77.49" y="95.45" width="3.76" height="27.92" transform="translate(-179.01 25.76) rotate(-85.67)"/><g class="cls-28"><rect class="cls-2" x="-4633.79" y="-2469.02" width="6348.4" height="5052.27"/></g><path class="cls-3" d="M-84,93.73a1.89,1.89,0,0,1-1.62-.93,1.88,1.88,0,0,1,.66-2.57l1-.62V87.72l-1.52-1.27a1.89,1.89,0,0,1-.24-2.65A1.88,1.88,0,0,1-83,83.56l2.2,1.83a1.89,1.89,0,0,1,.68,1.45v3.84a1.88,1.88,0,0,1-.92,1.62l-2,1.16a1.86,1.86,0,0,1-1,.27"/><g class="cls-29"><rect class="cls-2" x="-4633.79" y="-2469.02" width="6348.4" height="5052.27"/></g><path class="cls-3" d="M-95.71,93.19a1.86,1.86,0,0,1-1-.27l-2-1.16a1.89,1.89,0,0,1-.93-1.61V86.3a1.89,1.89,0,0,1,.68-1.45l2.2-1.83a1.89,1.89,0,0,1,2.65.24,1.88,1.88,0,0,1-.24,2.65l-1.52,1.27v1.9l1,.61a1.89,1.89,0,0,1,.66,2.58,1.89,1.89,0,0,1-1.62.92"/><g class="cls-30"><rect class="cls-2" x="-4633.79" y="-2469.02" width="6348.4" height="5052.27"/></g><path class="cls-2" d="M-404.65,483.86h-83.52L-452.61,450a3.3,3.3,0,0,0,0-4.94,3.71,3.71,0,0,0-5.19,0l-42,39.81a3.29,3.29,0,0,0,0,4.94L-458,529.66a3.7,3.7,0,0,0,5.18,0,3.3,3.3,0,0,0,0-4.94l-35.37-33.82h83.52a3.63,3.63,0,0,0,3.71-3.52A3.63,3.63,0,0,0-404.65,483.86Z"/><g class="cls-31"><rect class="cls-2" x="-1200.94" y="-2249.29" width="9600" height="25640"/></g><path class="cls-2" d="M-645.24,483.86h83.52L-597.28,450a3.3,3.3,0,0,1,0-4.94,3.71,3.71,0,0,1,5.19,0l42,39.81a3.29,3.29,0,0,1,0,4.94l-41.85,39.81a3.7,3.7,0,0,1-5.18,0,3.3,3.3,0,0,1,0-4.94l35.37-33.82h-83.52a3.62,3.62,0,0,1-3.7-3.52A3.62,3.62,0,0,1-645.24,483.86Z"/><g class="cls-32"><rect class="cls-2" x="-9448.94" y="-2249.29" width="9600" height="25640"/></g><path class="cls-2" d="M127.88,88.21A18.88,18.88,0,0,0,109,69.35h-2.25l-4.45-14.62a11.19,11.19,0,0,0,1.63.13h3.66a3,3,0,0,0,3-3V36.74a3,3,0,0,0-3-3H104a10.61,10.61,0,0,0-5.84,1.77V33.39a3,3,0,0,0-3-3H75.29a6.95,6.95,0,1,0,0,13.89h8.28L86.2,78.69l-8.55,8.52H59.16L55.25,70.84h1a6.64,6.64,0,0,0,6.64-6.63V58.65A6.65,6.65,0,0,0,56.29,52H38.18A15,15,0,0,0,23.24,66.66,34.14,34.14,0,0,0-.12,99.11a3,3,0,0,0,3,3H13.52a17.53,17.53,0,0,0,1.62,5c.2.4.41.78.63,1.16l.1.15c.26.43.48.77.7,1.07l.05.07a17.87,17.87,0,0,0,32.15-7.4H84a3,3,0,0,0,2.1-.87l6.61-6.6a17.81,17.81,0,0,0,29.82,17.09.53.53,0,0,0,.28-.14,17.74,17.74,0,0,0,5.1-12.46,18,18,0,0,0-2-8.11A3,3,0,0,0,127.88,88.21ZM104,39.72h.68V48.9H104a4.58,4.58,0,0,1-4.37-3.18l0-.1a4.51,4.51,0,0,1-.19-1.31A4.6,4.6,0,0,1,104,39.72ZM75.29,38.35a1,1,0,0,1,0-2H92.16v2H75.29ZM38.18,58H56.29a.68.68,0,0,1,.68.69v5.56a.68.68,0,0,1-.68.68H29.43A9,9,0,0,1,38.18,58Zm-14,51.43ZM39,108l-.59.48-.23.17c-.18.13-.35.26-.54.38l-.32.2-.09,0c-.24.14-.48.28-.73.4L36,110l-.4.17-.68.25-.11,0-.17.06a12.14,12.14,0,0,1-7,0c-.33-.11-.66-.23-1-.38l-.14-.06a11.23,11.23,0,0,1-1.93-1l-.05,0-.07,0c-.23-.16-.48-.35-.73-.55l-.19-.15a8.18,8.18,0,0,1-.68-.63l-.06,0,0,0c-.21-.21-.43-.45-.67-.73l-.22-.27,0-.06q-.16-.21-.33-.45c-.1-.14-.21-.28-.3-.43a2.39,2.39,0,0,1-.13-.21l-.07-.11a12.26,12.26,0,0,1-1.32-3.13H42.66A12,12,0,0,1,39,108Zm55.87-22.8a3,3,0,0,0-2.1.87l-10,10H14A17.51,17.51,0,0,1,31.13,81.67a3,3,0,1,0,0-6A23.34,23.34,0,0,0,7.93,96.14H6A28.45,28.45,0,0,1,34.1,70.84h15l4.79,20a3,3,0,0,0,2.9,2.28H78.88A3,3,0,0,0,81,92.29L91.38,81.94a3,3,0,0,0,.86-2.34l-2.7-35.3h3.39l.9,3c0,.09,0,.18.08.27l7.8,25.65a3,3,0,0,0,2.85,2.11H109a12.92,12.92,0,0,1,12.56,9.93H94.88ZM109.93,111a11.77,11.77,0,0,1-5.57-1.4l-.21-.11,0,0-.59-.35-.47-.33-.22-.16,0,0a11.88,11.88,0,0,1-1.64-17.37h17.63A11.87,11.87,0,0,1,109.93,111Z"/><path class="cls-2" d="M33.83,44.71H57.75a5,5,0,0,0,1-.09,4.35,4.35,0,0,0,3.47-4.42V15.33a4.36,4.36,0,0,0-4.56-4.53H33.83a4.36,4.36,0,0,0-4.52,4.48V40.23A4.31,4.31,0,0,0,33.83,44.71ZM44.59,16.09H47v4.07a2.51,2.51,0,0,0-1.18-.3,2.6,2.6,0,0,0-1.21.31Zm-10,0H39.3v9a2.68,2.68,0,0,0,1.46,2.6,2.54,2.54,0,0,0,1.16.28,2.92,2.92,0,0,0,1.81-.68l1.17-.87.9-.66.78.58c.43.31.85.62,1.26.94a3,3,0,0,0,1.83.69,2.59,2.59,0,0,0,1.19-.3A2.7,2.7,0,0,0,52.29,25c0-2.42,0-4.84,0-7.26V16.06H57V39.45H34.58Z"/></svg>