<svg id="Layer_1" data-name="Layer 1" xmlns="http://www.w3.org/2000/svg" viewBox="0 0 128 128"><defs><style>.cls-1{fill:#333;}</style></defs><title>x-rounded</title><path class="cls-1" d="M64,0a64,64,0,1,0,64,64A64,64,0,0,0,64,0ZM89.72,84.61a2.28,2.28,0,0,1,0,.26s0,.06,0,.1a1.4,1.4,0,0,1-.09.29s0,0,0,0a2.15,2.15,0,0,1-.14.26l0,.06a2.43,2.43,0,0,1-.2.25s0,0,0,0h0l-3.34,3.35h0a2.07,2.07,0,0,1-2.73-.13L63.71,69.75h0L44.32,89.14a2.09,2.09,0,0,1-2.74.13h0l-3.34-3.35h0l0,0a2.43,2.43,0,0,1-.2-.25l0-.06a2.15,2.15,0,0,1-.14-.26l0-.1a2.17,2.17,0,0,1-.07-.24.66.66,0,0,1,0-.14,1.5,1.5,0,0,1,0-.22h0a1.79,1.79,0,0,1,.54-1.3L41.57,80h0L57.74,63.79h0L38.36,44.4a2.1,2.1,0,0,1-.14-2.74h0l3.34-3.35h0l0,0a1.64,1.64,0,0,1,.25-.21l.06,0,.26-.14.1,0,.25-.08h.13l.22,0h0a1.86,1.86,0,0,1,1.31.54l3.34,3.35h0L63.7,57.83h0L79.87,41.67h0l3.35-3.35a1.86,1.86,0,0,1,1.31-.54h0l.25,0h.1l.3.09h0a2.29,2.29,0,0,1,.27.14l.06,0a1.57,1.57,0,0,1,.24.21l0,0h0l3.34,3.35h0a2.06,2.06,0,0,1-.13,2.72L69.67,63.79h0L85.83,80h0l3.34,3.35a1.83,1.83,0,0,1,.54,1.3Z"/></svg>