<svg width="33" height="38" viewBox="0 0 33 38" fill="none" xmlns="http://www.w3.org/2000/svg">
<g clip-path="url(#clip0_1042_965)">
<path d="M18.2406 8.45887L29.0869 22.963C29.9137 24.0687 29.6877 25.6354 28.582 26.4623L18.2247 34.2075C17.1189 35.0344 15.5523 34.8083 14.7254 33.7026L3.84506 19.153C3.50999 18.7049 3.33491 18.1574 3.34783 17.5981L3.58274 7.43196C3.61961 5.83665 5.12136 4.68375 6.67203 5.06031L16.8284 7.52667C17.3932 7.66382 17.8925 7.99344 18.2406 8.45887Z" stroke="#315C8E" stroke-width="3"/>
<path d="M11.6907 18.9526C11.6458 18.8521 11.6425 18.7516 11.681 18.651C11.7194 18.5503 11.7869 18.4784 11.8835 18.4352C11.984 18.3903 12.0845 18.3871 12.1851 18.4255C12.2858 18.464 12.3585 18.5334 12.4034 18.6339C12.4466 18.7305 12.449 18.8291 12.4106 18.9297C12.3721 19.0303 12.3027 19.1031 12.2022 19.148C12.1056 19.1912 12.007 19.1936 11.9064 19.1551C11.8058 19.1167 11.7339 19.0492 11.6907 18.9526ZM13.7652 18.025C13.5527 17.5498 13.2033 17.2193 12.7169 17.0335C12.2288 16.8438 11.7472 16.8552 11.272 17.0677C10.7969 17.2802 10.4672 17.6315 10.2831 18.1217C10.0973 18.6081 10.1107 19.0889 10.3231 19.5641C10.5339 20.0354 10.8833 20.3659 11.3714 20.5555C11.8578 20.7414 12.3385 20.728 12.8137 20.5156C13.2889 20.3031 13.6194 19.9537 13.8052 19.4673C13.9893 18.9771 13.976 18.4963 13.7652 18.025ZM18.9069 21.9352C18.8064 21.9802 18.7059 21.9834 18.6053 21.945C18.5046 21.9065 18.4319 21.8371 18.3869 21.7366C18.3438 21.64 18.3414 21.5414 18.3798 21.4408C18.4183 21.3402 18.4877 21.2674 18.5882 21.2225C18.6847 21.1793 18.7833 21.1769 18.884 21.2154C18.9846 21.2538 19.0565 21.3213 19.0997 21.4179C19.1446 21.5184 19.1478 21.6189 19.1094 21.7195C19.071 21.8202 19.0034 21.8921 18.9069 21.9352ZM17.9767 19.8549C17.5015 20.0674 17.171 20.4168 16.9852 20.9032C16.7994 21.3896 16.8127 21.8704 17.0252 22.3455C17.2376 22.8207 17.5871 23.1512 18.0734 23.337C18.5598 23.5228 19.0406 23.5095 19.5158 23.297C19.9909 23.0845 20.3214 22.7351 20.5072 22.2487C20.6931 21.7624 20.6797 21.2816 20.4673 20.8064C20.2548 20.3313 19.9054 20.0008 19.419 19.815C18.9326 19.6291 18.4518 19.6425 17.9767 19.8549ZM16.5547 14.8864C16.3539 14.8417 16.1658 14.8772 15.9903 14.9927C15.817 15.1027 15.7088 15.26 15.6659 15.4646L13.7292 24.6467C13.6845 24.8475 13.718 25.0365 13.8297 25.2137C13.9435 25.3853 14.1019 25.4906 14.3048 25.5297C14.4643 25.565 14.6174 25.5498 14.7642 25.4842C14.996 25.3806 15.1372 25.2039 15.1877 24.9541L17.1303 15.7694C17.1749 15.5686 17.1404 15.3824 17.0265 15.2108C16.9149 15.0336 16.7576 14.9255 16.5547 14.8864Z" fill="#315C8E"/>
</g>
<defs>
<clipPath id="clip0_1042_965">
<rect width="33" height="38" fill="white"/>
</clipPath>
</defs>
</svg>
