<svg xmlns="http://www.w3.org/2000/svg" width="32" height="25" viewBox="0 0 32 25">
    <path fill="#444" fill-rule="evenodd" d="M14.276.406c.521.542.521 1.43 0 1.972l-4.39 4.569h12.229l-4.391-4.569c-.521-.541-.521-1.43 0-1.972.521-.541 1.364-.541 1.885 0l6.276 6.541h4.782c.736 0 1.333.625 1.333 1.389 0 .763-.597 1.388-1.333 1.388h-.222l-2.069 11.86C28.031 23.556 26.375 25 24.441 25H7.56c-1.934 0-3.59-1.444-3.935-3.416l-2.07-11.86h-.22C.596 9.724 0 9.1 0 8.336c0-.764.597-1.389 1.333-1.389h4.782L12.39.407c.521-.542 1.364-.542 1.885 0zM4.264 9.724l1.983 11.36c.114.653.668 1.139 1.312 1.139H24.44c.644 0 1.196-.486 1.311-1.14l1.984-11.359H4.264zm5.516 2.792c.727-.125 1.415.388 1.535 1.152l.666 4.166c.122.75-.369 1.472-1.094 1.597-.727.125-1.415-.389-1.535-1.152l-.667-4.166c-.121-.75.37-1.472 1.095-1.597zm12.44 0c.725.125 1.216.847 1.095 1.597l-.667 4.166c-.12.763-.808 1.277-1.535 1.152-.725-.125-1.216-.847-1.094-1.597l.666-4.166c.12-.764.808-1.277 1.535-1.152zM16 12.502c.736 0 1.333.625 1.333 1.388v4.167c0 .763-.597 1.388-1.333 1.388s-1.333-.625-1.333-1.388V13.89c0-.763.597-1.388 1.333-1.388z"/>
</svg>
