<?xml version="1.0" encoding="utf-8"?>
<!-- Generator: Adobe Illustrator 23.0.6, SVG Export Plug-In . SVG Version: 6.00 Build 0)  -->
<svg version="1.1" id="Layer_1" xmlns="http://www.w3.org/2000/svg" xmlns:xlink="http://www.w3.org/1999/xlink" x="0px" y="0px"
	 viewBox="0 0 128 128" style="enable-background:new 0 0 128 128;" xml:space="preserve">
<style type="text/css">
	.st0{fill:#F86C6B;}
</style>
<title>icon_disliked</title>
<path class="st0" d="M59.1,112.7c-5.3-1.2-8.3-4.6-9.4-9.7c-0.2-1.3-0.3-2.6-0.3-3.9V79.2h-1.2c-7.7,0-15.4-0.1-23.1,0
	c-5.4,0.1-9.4-2.3-12.4-6.6c-2.7-4.2-4.5-8.9-5.3-13.8c-1.7-8.8-1-17.9,2-26.3c1.7-5.4,5.1-10.1,9.7-13.4c3-1.9,6.4-3.1,10-3.5
	c7.8-1.3,15.4-0.1,22.9,2c7,2,13.8,4.4,20.7,6.5c3.7,1.2,7.5,2.1,11.3,2.7c2.4,0.2,4.7,0.2,7.1,0.1v-2c-0.2-2.3,1.5-4.3,3.8-4.5h22
	c2.3-0.2,4.3,1.5,4.5,3.8v50.1c0.2,2.3-1.5,4.3-3.8,4.5H95.5c-2.3,0.3-4.3-1.4-4.6-3.7l0,0v-0.4c0-0.1-0.1-0.3-0.1-0.4
	c-1.4,0.9-2.8,1.6-4.2,2.6c-6.3,4.5-10.9,11-13.1,18.4c-0.3,1.4-0.5,2.9-0.5,4.4c0,2.8-0.8,5.4-2.2,7.8c-1.8,3-4.9,4.9-8.3,5.4
	C61.4,113,60.2,112.9,59.1,112.7z M97.1,26.6v46.1H115V26.6H97.1z"/>
</svg>
