<svg id="Layer_1" data-name="Layer 1" xmlns="http://www.w3.org/2000/svg" viewBox="0 0 128 128"><defs><style>.cls-1{fill:#333;}</style></defs><title>icons_pin</title><path class="cls-1" d="M71.34,66H46.46c-1.63,0-2.21,1.07-2.52,2.64-.25,1.34-.56,3.24-.76,4.58S43.59,75,44.78,75h10c.63,0,.24.21,0,.28-1.61.5-6.49,3.57-7.59,10.29-.19,1.18-2.45,14.82-2.45,14.82a5.36,5.36,0,0,0-.11.85c-.05,1.3.71,1.61,1.21,1.61h5l.46,0c2-.09,2.5-.51,2.83-2.49C54.58,97.52,58,76.6,58.29,75h5.86c2.69,0,5.91-.18,7.36,1.71s1.11,4,.61,7.07c0,0-2.71,16.62-2.71,16.62a6.74,6.74,0,0,0-.1.85c0,1.3.7,1.61,1.21,1.61h5l.46,0c2-.09,2.5-.51,2.83-2.49.11-.7,3.47-20.89,3.71-22.35C84.06,68.57,75.1,66,71.34,66Z"/><path class="cls-1" d="M115.09,104.41h-6V71.66a3.91,3.91,0,0,0-7.82,0v32.75H26.78V71.66a3.91,3.91,0,0,0-7.82,0v32.75H12.91a3.91,3.91,0,1,0,0,7.82h9.81l.15,0,.15,0h82l.15,0,.15,0h9.81a3.91,3.91,0,0,0,0-7.82Z"/><path class="cls-1" d="M10.53,46.06a3.7,3.7,0,0,0-.07.66A13.86,13.86,0,0,0,24.3,60.57a13.71,13.71,0,0,0,9.93-4.22,13.78,13.78,0,0,0,19.87,0,13.79,13.79,0,0,0,19.88,0,13.78,13.78,0,0,0,19.86,0,13.72,13.72,0,0,0,9.93,4.23,13.86,13.86,0,0,0,13.84-13.85c0-.14,0-.27,0-.4a2.2,2.2,0,0,0,0-.36,1.05,1.05,0,0,0,0-.19,3.21,3.21,0,0,0-.15-.53l-10.77-27a3.89,3.89,0,0,0-3.64-2.47H25.14a3.27,3.27,0,0,0-.7.08l-.2,0a4.48,4.48,0,0,0-.52.16l-.15.06a3.77,3.77,0,0,0-1.15.78.81.81,0,0,0-.09.1,2.79,2.79,0,0,0-.35.42l-.12.17a3.55,3.55,0,0,0-.23.43,1.86,1.86,0,0,0-.1.2l0,0-10.76,27a2.19,2.19,0,0,0-.1.34c0,.13-.09.26-.12.4Zm87.34,1.88s-.07-.28-.2-.67L90.84,23.58h9.43l9.46,23.73a6,6,0,0,1-11.86.63Zm-27.81-1.1a6,6,0,0,1-12-.12s0,0,0,0l1.69-23.11h8.68l1.68,23s0,.08,0,.12Zm-39.82.88a6,6,0,0,1-11.9-.41L27.8,23.58h9.39L30.31,47.41a.15.15,0,0,1,0,.07ZM45.33,23.58h6.54l-1.7,23.2A6,6,0,0,1,38.28,48ZM78,47.8,76.23,23.58H82.7l7.06,24.49A6,6,0,0,1,78,47.8Z"/></svg>