<svg id="Layer_1" data-name="Layer 1" xmlns="http://www.w3.org/2000/svg" xmlns:xlink="http://www.w3.org/1999/xlink" viewBox="0 0 128 128"><defs><style>.cls-1,.cls-2,.cls-3{fill:#8a9297;}.cls-1{clip-rule:evenodd;}.cls-3{fill-rule:evenodd;}.cls-4{clip-path:url(#clip-path);}.cls-5{clip-path:url(#clip-path-2);}.cls-6{clip-path:url(#clip-path-3);}.cls-7{clip-path:url(#clip-path-4);}.cls-8{clip-path:url(#clip-path-5);}.cls-9{clip-path:url(#clip-path-6);}.cls-10{clip-path:url(#clip-path-7);}.cls-11{clip-path:url(#clip-path-8);}.cls-12{clip-path:url(#clip-path-9);}.cls-13{clip-path:url(#clip-path-10);}.cls-14{clip-path:url(#clip-path-11);}.cls-15{clip-path:url(#clip-path-12);}.cls-16{clip-path:url(#clip-path-13);}.cls-17{clip-path:url(#clip-path-14);}.cls-18{clip-path:url(#clip-path-15);}.cls-19{clip-path:url(#clip-path-16);}.cls-20{clip-path:url(#clip-path-17);}.cls-21{clip-path:url(#clip-path-18);}.cls-22{clip-path:url(#clip-path-19);}.cls-23{clip-path:url(#clip-path-20);}.cls-24{clip-path:url(#clip-path-21);}.cls-25{clip-path:url(#clip-path-22);}.cls-26{clip-path:url(#clip-path-23);}.cls-27{clip-path:url(#clip-path-24);}.cls-28{clip-path:url(#clip-path-25);}.cls-29{clip-path:url(#clip-path-26);}.cls-30{clip-path:url(#clip-path-27);}.cls-31{clip-path:url(#clip-path-28);}.cls-32{clip-path:url(#clip-path-29);}</style><clipPath id="clip-path"><path class="cls-1" d="M908.88-751.45h-.15l-11-.92a1.88,1.88,0,0,1-1.73-1.87v-44.33a6.39,6.39,0,0,0-1.71-4.91,6.62,6.62,0,0,0-4.49-1.45h-.18l-47.55-.53v46.91a1.87,1.87,0,0,1-.6,1.38,1.92,1.92,0,0,1-1.43.5l-9.25-.74a1.87,1.87,0,0,1-1.73-1.89c0-.29.27-29.76.21-36.75a14.87,14.87,0,0,1,3.35-9.34h-5.89a3.55,3.55,0,0,1-3.26-2.65,1.76,1.76,0,0,1-.09-.55v-6.09c0-3.06,1.89-4.32,3-4.58a1.84,1.84,0,0,1,.41,0l67.21-.92a1.23,1.23,0,0,1,.27,0c15.85,2,16.65,15.92,16.66,16.06v.09l-.18,50.74a2,2,0,0,1-.61,1.38A1.9,1.9,0,0,1,908.88-751.45Zm-9.1-4.52,7.23.6.18-48.64c-.05-.78-1-10.83-13.25-12.45l-66.61.9a1.71,1.71,0,0,0-.17.88v5.53h10.11a1.88,1.88,0,0,1,1.43.66,1.68,1.68,0,0,1,.18-.21,1.83,1.83,0,0,1,1.34-.54l49.38.55a10.42,10.42,0,0,1,7.23,2.41c1.95,1.8,2.95,4.39,2.95,7.71Zm-66.93-5,5.47.44v-45.13h0c-.05,0-5.32,3.68-5.27,9.62S832.91-767.51,832.85-761Z"/></clipPath><clipPath id="clip-path-2"><path class="cls-1" d="M914-754.92h-3.76v-49.61c-.09-1-1.31-11.31-12-12.12l.29-3.76c11.42.87,15.13,10.63,15.5,15.66v49.83Z"/></clipPath><clipPath id="clip-path-3"><path class="cls-1" d="M834.4-822.45a1.88,1.88,0,0,1-1.88-1.87l-.12-19.84a1.87,1.87,0,0,1,1.82-1.89l9.65-.31H844l3.42.06a1.89,1.89,0,0,1,1.85,1.92,1.88,1.88,0,0,1-1.92,1.84l-3.37-.06-7.77.25.11,18a1.88,1.88,0,0,1-1.87,1.89Z"/></clipPath><clipPath id="clip-path-4"><path class="cls-1" d="M850-829.53h-.47a5.07,5.07,0,0,1-4.15-1.76,4.57,4.57,0,0,1-.8-3.49l.84-9.69c-.08-2.53.62-4.43,2.07-5.65a6,6,0,0,1,4.69-1.19l41.85-2,.23.05c2.51.51,4.26,1.53,5.19,3a4.48,4.48,0,0,1,.64,3.1c-.11,1.41-.78,9.73-1.45,12.36a5.77,5.77,0,0,1-4.77,4.33h-.18c-1.59,0-37.92.92-43.69.92m1.2-18.09a2,2,0,0,0-1.31.4,3.65,3.65,0,0,0-.71,2.73v.12l-.91,10.28a.85.85,0,0,0,.08.5,1.92,1.92,0,0,0,1.23.3c3.66.06,41.35-.86,43.88-.92a2,2,0,0,0,1.52-1.52c.52-2,1.16-9.22,1.36-11.82l0-.31c0-.55-.81-1.27-2.66-1.69l-41.82,2-.23-.05a2.33,2.33,0,0,0-.48,0"/></clipPath><clipPath id="clip-path-5"><path class="cls-1" d="M886.71-844.43a1.12,1.12,0,0,0-.92-.27,1.62,1.62,0,0,0-1,.4,2.17,2.17,0,0,0-.62,1.23s0,.11,0,.18l1.95-.06c.5,0,.79-.17.86-.61a1,1,0,0,0-.21-.87m1.84,1a1.43,1.43,0,0,1-.61,1.08,2.65,2.65,0,0,1-1.42.4,9,9,0,0,1-1.86,0c-.39-.07-.51-.65-.57-.81a4.08,4.08,0,0,0-.07,1.09,1.17,1.17,0,0,0,.5,1,2.25,2.25,0,0,0,1.22.24c.32,0,.66,0,1-.08a7.81,7.81,0,0,0,.82-.11h0c.06,0,.13,0,.12.12l-.1.82c0,.06,0,.1-.12.14a8.08,8.08,0,0,1-1,.24,8.69,8.69,0,0,1-1.08.12,4.6,4.6,0,0,1-1.53-.16,2,2,0,0,1-1-.59,2.08,2.08,0,0,1-.46-1,4.43,4.43,0,0,1,0-1.37l.05-.41a3.8,3.8,0,0,1,1-2.32,3.6,3.6,0,0,1,2.5-.93,2.6,2.6,0,0,1,2.08.64,2.34,2.34,0,0,1,.47,1.92m-22.44-1.73-4.45.16c-.29,0-.39.21-.43.49s-.08.59-.11.83.09.31.3.31l.38,0,1.4,0c.11,0,0,0,0,0a2.36,2.36,0,0,0-1.29,1.89c0,.21-.34,2.67-.34,2.67s0,.11,0,.15c0,.24.14.29.23.28l.89,0h.08c.35,0,.45-.11.49-.46.07-.51.54-4.28.58-4.57l1,0c.48,0,1.05-.07,1.32.26s.23.71.16,1.26l-.37,3a.81.81,0,0,0,0,.15c0,.24.13.29.23.28l.89,0h.08c.35,0,.44-.11.49-.46,0-.13.48-3.76.51-4a1.88,1.88,0,0,0-2.08-2.07m25.06-.34c0-.24,0-.66-.48-.64l-.81,0a.43.43,0,0,0-.4.36l-.73,5.88c0,.32.06.44.22.44l1.17-.05a.32.32,0,0,0,.31-.28l.1-.71s.23-1.91.43-3.5a.31.31,0,0,0-.34-.37l-1,0h-.08c.51-.09,1.48-.53,1.57-1.19m-20.64,1.93-.95,0h-.08c.5-.09,1.48-.53,1.56-1.19,0-.24,0-.66-.48-.64l-.81,0a.42.42,0,0,0-.39.35l-.73,5.89c-.06.32.06.44.21.43l1.17,0a.35.35,0,0,0,.32-.29l.09-.7.44-3.51a.31.31,0,0,0-.35-.36m11.31-2.06a4.34,4.34,0,0,0-.91-.17,6.32,6.32,0,0,0-1.07,0,4.46,4.46,0,0,0-1,.14,2.8,2.8,0,0,0-.8.37,2.14,2.14,0,0,0-.56.6,2.24,2.24,0,0,0-.28.86,1.37,1.37,0,0,0,.25,1.11,2.38,2.38,0,0,0,1,.69l1,.38a1.92,1.92,0,0,1,.46.27.49.49,0,0,1,.14.43.64.64,0,0,1-.31.49,1.58,1.58,0,0,1-.75.16c-.32,0-.67,0-1.06,0s-.73,0-1-.06h0a.1.1,0,0,0-.11.09c0,.06,0,0,0,0l-.11.93c0,.11,0,.16.13.18a9.56,9.56,0,0,0,1.11.16,9.85,9.85,0,0,0,1.23,0,3.28,3.28,0,0,0,1.85-.57,2,2,0,0,0,.82-1.44,1.54,1.54,0,0,0-.23-1.13,2.18,2.18,0,0,0-1-.72l-1-.41a3.06,3.06,0,0,1-.45-.23.38.38,0,0,1-.14-.41.56.56,0,0,1,.3-.47,1.72,1.72,0,0,1,.69-.13h.88q.45,0,.87.06h.06a.13.13,0,0,0,.1-.1s0,0,0,0l.11-.93c0-.11-.08-.16-.14-.18m-5.38,1.35a.1.1,0,0,1-.1.09h-.06c-.28,0-.57-.06-.86-.07h-.89a2.16,2.16,0,0,0-.69.13.56.56,0,0,0-.3.48.4.4,0,0,0,.14.41,3.06,3.06,0,0,0,.45.23l1,.4a2.2,2.2,0,0,1,1,.72,1.57,1.57,0,0,1,.24,1.14,2,2,0,0,1-.83,1.43,3.24,3.24,0,0,1-1.84.57,8.39,8.39,0,0,1-1.24,0,9.54,9.54,0,0,1-1.11-.17c-.1,0-.14-.07-.13-.17l.12-.93v0a.11.11,0,0,1,.11-.1h0c.31,0,.65,0,1,.06h1a1.53,1.53,0,0,0,.75-.17.62.62,0,0,0,.31-.49.49.49,0,0,0-.14-.43,1.75,1.75,0,0,0-.46-.26l-1-.38a2.47,2.47,0,0,1-1-.69,1.46,1.46,0,0,1-.25-1.11,2.09,2.09,0,0,1,.29-.86,1.89,1.89,0,0,1,.56-.6,2.36,2.36,0,0,1,.8-.37,4.28,4.28,0,0,1,1-.15,9.6,9.6,0,0,1,1.08,0,4.93,4.93,0,0,1,.9.18c.07,0,.16.06.14.18l-.11.93s0,0,0,0"/></clipPath><clipPath id="clip-path-6"><path class="cls-1" d="M871.33-836.24c-.37,0-.45.12-.47.24s0,.15.18.15l.24,0Zm-.35.62c-.32,0-.46-.1-.43-.35s.27-.45.8-.51h0v0c0-.11,0-.16,0-.19a.17.17,0,0,0-.14,0,1,1,0,0,0-.46.17l-.06,0,0-.29h0a1.07,1.07,0,0,1,.54-.16c.2,0,.32,0,.37.16a.75.75,0,0,1,0,.31l-.11.83h-.08A2.76,2.76,0,0,1,871-835.62Z"/></clipPath><clipPath id="clip-path-7"><path class="cls-1" d="M872.13-837.2l0-.34.34,0,0,.34Zm-.19,1.53.18-1.33.33,0-.18,1.33Z"/></clipPath><clipPath id="clip-path-8"><path class="cls-1" d="M873-835.68a.8.8,0,0,1-.37-.06h0l0-.32.05,0a.46.46,0,0,0,.31.1c.14,0,.23-.06.24-.14s0-.09-.07-.13l-.17-.08c-.23-.1-.31-.2-.28-.37a.54.54,0,0,1,.57-.42.65.65,0,0,1,.34.06h0l0,.29,0,0a.46.46,0,0,0-.28-.08c-.13,0-.22.06-.24.14s0,.09.2.17a.6.6,0,0,1,.25.15.29.29,0,0,1,.08.26.55.55,0,0,1-.59.42"/></clipPath><clipPath id="clip-path-9"><path class="cls-1" d="M875.33-836.89a.51.51,0,0,0-.55.45c0,.28.1.42.38.41a.69.69,0,0,0,.2,0l.11-.83Zm-.09,1.74.08-.66-.24,0c-.45,0-.68-.22-.62-.63a.87.87,0,0,1,.94-.75,1.89,1.89,0,0,1,.4,0h0l-.26,2Z"/></clipPath><clipPath id="clip-path-10"><path class="cls-1" d="M876.63-835.84a.59.59,0,0,1-.44-.1c-.09-.08-.11-.18-.08-.39l.11-.83h.32l-.11.81c0,.21,0,.28.27.27a.91.91,0,0,0,.23,0l.14-1.07.33,0-.17,1.29h0a2.59,2.59,0,0,1-.57.07"/></clipPath><clipPath id="clip-path-11"><path class="cls-1" d="M878.62-836.78c0-.16-.08-.24-.25-.23a.39.39,0,0,0-.36.25Zm-.37.9c-.44,0-.68-.23-.62-.64a.82.82,0,0,1,.78-.75.49.49,0,0,1,.47.22.62.62,0,0,1,0,.41v.09l-1,0v0c0,.23.12.36.38.35a.83.83,0,0,0,.46-.16l.05,0,0,.29h0A1.06,1.06,0,0,1,878.25-835.88Z"/></clipPath><clipPath id="clip-path-12"><path class="cls-1" d="M879.83-836,880-837h-.22l0-.24H880v0a.83.83,0,0,1,.26-.58.67.67,0,0,1,.43-.16h.16l0,.25h-.14a.3.3,0,0,0-.23.11.59.59,0,0,0-.13.36v0h.34l0,.24h-.34l-.14,1Z"/></clipPath><clipPath id="clip-path-13"><path class="cls-1" d="M881.49-836.63c-.36,0-.44.12-.46.25s0,.15.18.14l.24,0Zm-.34.63c-.32,0-.46-.11-.43-.36s.27-.45.8-.51h0v0a.47.47,0,0,0,0-.18s-.07-.06-.15-.06a.87.87,0,0,0-.45.18l-.06,0,0-.29h0a1.15,1.15,0,0,1,.54-.16c.19,0,.32,0,.36.16a.59.59,0,0,1,0,.31l-.11.83-.08,0Z"/></clipPath><clipPath id="clip-path-14"><path class="cls-1" d="M882.11-836.06l.17-1.24h0a1.61,1.61,0,0,1,.56-.12.63.63,0,0,1,.24,0h0l0,.27,0,0a.71.71,0,0,0-.21,0,.62.62,0,0,0-.26.06l-.14,1Z"/></clipPath><clipPath id="clip-path-15"><path class="cls-1" d="M884.86-836.17,885-837c0-.19,0-.26-.23-.25a.74.74,0,0,0-.24,0,.74.74,0,0,1,0,.2l-.11.85-.33,0,.11-.84c0-.19,0-.26-.24-.25a.81.81,0,0,0-.25,0l-.14,1.07h-.33l.17-1.26h0a3,3,0,0,1,.61-.11.66.66,0,0,1,.36.08,1.29,1.29,0,0,1,.46-.11.52.52,0,0,1,.41.13.36.36,0,0,1,.06.34l-.11.86Z"/></clipPath><clipPath id="clip-path-16"><path class="cls-1" d="M869.81-835.59l.11-.84c0-.19,0-.26-.22-.25a.79.79,0,0,0-.25,0,.65.65,0,0,1,0,.2l-.12.86H869l.11-.84c0-.19,0-.26-.24-.25a1.32,1.32,0,0,0-.26,0l-.14,1.06h-.32l.16-1.26h0a2,2,0,0,1,.61-.11.6.6,0,0,1,.36.07,1.08,1.08,0,0,1,.45-.1.52.52,0,0,1,.42.12.44.44,0,0,1,.06.35l-.11.86Z"/></clipPath><clipPath id="clip-path-17"><path class="cls-1" d="M886.05-837.69l.57-.59.3,0-.63.6Zm.27.88c-.37,0-.45.12-.46.24s0,.15.17.15l.24,0Zm-.35.62c-.32,0-.46-.1-.42-.35s.27-.45.8-.51h0v0c0-.11,0-.16,0-.19s-.06,0-.14,0a1,1,0,0,0-.46.17l-.06,0,0-.29h0a1.21,1.21,0,0,1,.54-.17c.2,0,.32.05.37.17a.75.75,0,0,1,0,.31l-.11.83h-.07A3,3,0,0,1,886-836.19Z"/></clipPath><clipPath id="clip-path-18"><path class="cls-1" d="M887.55-836.24c-.43,0-.68-.24-.62-.64a.83.83,0,0,1,.83-.74.83.83,0,0,1,.35.06h0l0,.29,0,0a.47.47,0,0,0-.29-.08.49.49,0,0,0-.5.46.33.33,0,0,0,.38.41.62.62,0,0,0,.34-.11l0,0,0,.29h0a1,1,0,0,1-.42.11"/></clipPath><clipPath id="clip-path-19"><path class="cls-1" d="M888.43-837.83l0-.33.35,0-.05.34Zm-.19,1.54.17-1.34h.33l-.18,1.33Z"/></clipPath><clipPath id="clip-path-20"><path class="cls-1" d="M889.7-836.94c-.36,0-.44.12-.46.24s0,.15.17.15l.25,0Zm-.34.62c-.32,0-.46-.1-.43-.35s.27-.45.8-.51h0v0a.55.55,0,0,0,0-.19s-.07-.05-.15-.05a1,1,0,0,0-.46.17l0,0,0-.29h0a1,1,0,0,1,.54-.16c.19,0,.32,0,.36.16a.57.57,0,0,1,0,.31l-.11.83h-.08A2.86,2.86,0,0,1,889.36-836.32Z"/></clipPath><clipPath id="clip-path-21"><path class="cls-1" d="M858.14-841.22l-.55,3.11a4.39,4.39,0,0,0,2.8-3.2Z"/></clipPath><clipPath id="clip-path-22"><path class="cls-1" d="M858.52-843.23l1.67-.06a4.19,4.19,0,0,0-1.36-1.75Z"/></clipPath><clipPath id="clip-path-23"><path class="cls-1" d="M855.75-839.44c.14-.51.31-1.37,1.89-1.71.13,0,.11-.06,0-.05l-5.09.19c0-.27.19-1.1.25-1.41.1-.5.36-.61.83-.62l2.78-.11.51-2.77a5.71,5.71,0,0,0-1.5-.14c-2.67.1-4.77,2-4.68,4.35s2.14,3.93,4.67,4Z"/></clipPath><clipPath id="clip-path-24"><polygon class="cls-1" points="871.76 -755.96 841.22 -758.36 841.52 -762.12 867.99 -760.03 867.9 -807.17 871.66 -807.18 871.76 -755.96"/></clipPath><clipPath id="clip-path-25"><rect class="cls-2" x="881.91" y="-770.9" width="3.76" height="27.92" transform="translate(1571.91 181.43) rotate(-85.67)"/></clipPath><clipPath id="clip-path-26"><path class="cls-1" d="M875.43-772.63a1.87,1.87,0,0,1-1.62-.92,1.88,1.88,0,0,1,.65-2.58l1-.61v-1.9L874-779.9a1.89,1.89,0,0,1-.25-2.65,1.89,1.89,0,0,1,2.65-.25l2.2,1.84a1.86,1.86,0,0,1,.68,1.44v3.85a1.89,1.89,0,0,1-.92,1.62l-2,1.15a1.85,1.85,0,0,1-1,.27"/></clipPath><clipPath id="clip-path-27"><path class="cls-1" d="M863.69-773.17a1.85,1.85,0,0,1-1-.26l-2-1.16a1.89,1.89,0,0,1-.92-1.62v-3.85a1.86,1.86,0,0,1,.67-1.44l2.2-1.83a1.88,1.88,0,0,1,2.65.24,1.88,1.88,0,0,1-.24,2.65l-1.52,1.26v1.9l1,.61a1.88,1.88,0,0,1,.66,2.58,1.89,1.89,0,0,1-1.62.92"/></clipPath><clipPath id="clip-path-28"><path class="cls-2" d="M554.75-382.5H471.23l35.56-33.82a3.29,3.29,0,0,0,0-4.93,3.71,3.71,0,0,0-5.19,0l-42,39.81a3.29,3.29,0,0,0,0,4.93l41.85,39.81a3.7,3.7,0,0,0,5.18,0,3.28,3.28,0,0,0,0-4.93l-35.37-33.82h83.52a3.64,3.64,0,0,0,3.71-3.53A3.63,3.63,0,0,0,554.75-382.5Z"/></clipPath><clipPath id="clip-path-29"><path class="cls-2" d="M314.16-382.5h83.52l-35.56-33.82a3.29,3.29,0,0,1,0-4.93,3.71,3.71,0,0,1,5.19,0l42,39.81a3.29,3.29,0,0,1,0,4.93L367.49-336.7a3.7,3.7,0,0,1-5.18,0,3.29,3.29,0,0,1,0-4.93l35.37-33.82H314.16a3.63,3.63,0,0,1-3.7-3.53A3.62,3.62,0,0,1,314.16-382.5Z"/></clipPath></defs><title>icon</title><path class="cls-3" d="M908.88-751.45h-.15l-11-.92a1.88,1.88,0,0,1-1.73-1.87v-44.33a6.39,6.39,0,0,0-1.71-4.91,6.62,6.62,0,0,0-4.49-1.45h-.18l-47.55-.53v46.91a1.87,1.87,0,0,1-.6,1.38,1.92,1.92,0,0,1-1.43.5l-9.25-.74a1.87,1.87,0,0,1-1.73-1.89c0-.29.27-29.76.21-36.75a14.87,14.87,0,0,1,3.35-9.34h-5.89a3.55,3.55,0,0,1-3.26-2.65,1.76,1.76,0,0,1-.09-.55v-6.09c0-3.06,1.89-4.32,3-4.58a1.84,1.84,0,0,1,.41,0l67.21-.92a1.23,1.23,0,0,1,.27,0c15.85,2,16.65,15.92,16.66,16.06v.09l-.18,50.74a2,2,0,0,1-.61,1.38A1.9,1.9,0,0,1,908.88-751.45Zm-9.1-4.52,7.23.6.18-48.64c-.05-.78-1-10.83-13.25-12.45l-66.61.9a1.71,1.71,0,0,0-.17.88v5.53h10.11a1.88,1.88,0,0,1,1.43.66,1.68,1.68,0,0,1,.18-.21,1.83,1.83,0,0,1,1.34-.54l49.38.55a10.42,10.42,0,0,1,7.23,2.41c1.95,1.8,2.95,4.39,2.95,7.71Zm-66.93-5,5.47.44v-45.13h0c-.05,0-5.32,3.68-5.27,9.62S832.91-767.51,832.85-761Z"/><g class="cls-4"><rect class="cls-2" x="-3674.39" y="-3335.38" width="6348.4" height="5052.27"/></g><path class="cls-3" d="M914-754.92h-3.76v-49.61c-.09-1-1.31-11.31-12-12.12l.29-3.76c11.42.87,15.13,10.63,15.5,15.66v49.83Z"/><g class="cls-5"><rect class="cls-2" x="-3674.39" y="-3335.38" width="6348.4" height="5052.27"/></g><path class="cls-3" d="M834.4-822.45a1.88,1.88,0,0,1-1.88-1.87l-.12-19.84a1.87,1.87,0,0,1,1.82-1.89l9.65-.31H844l3.42.06a1.89,1.89,0,0,1,1.85,1.92,1.88,1.88,0,0,1-1.92,1.84l-3.37-.06-7.77.25.11,18a1.88,1.88,0,0,1-1.87,1.89Z"/><g class="cls-6"><rect class="cls-2" x="-3674.39" y="-3335.38" width="6348.4" height="5052.27"/></g><path class="cls-3" d="M850-829.53h-.47a5.07,5.07,0,0,1-4.15-1.76,4.57,4.57,0,0,1-.8-3.49l.84-9.69c-.08-2.53.62-4.43,2.07-5.65a6,6,0,0,1,4.69-1.19l41.85-2,.23.05c2.51.51,4.26,1.53,5.19,3a4.48,4.48,0,0,1,.64,3.1c-.11,1.41-.78,9.73-1.45,12.36a5.77,5.77,0,0,1-4.77,4.33h-.18c-1.59,0-37.92.92-43.69.92m1.2-18.09a2,2,0,0,0-1.31.4,3.65,3.65,0,0,0-.71,2.73v.12l-.91,10.28a.85.85,0,0,0,.08.5,1.92,1.92,0,0,0,1.23.3c3.66.06,41.35-.86,43.88-.92a2,2,0,0,0,1.52-1.52c.52-2,1.16-9.22,1.36-11.82l0-.31c0-.55-.81-1.27-2.66-1.69l-41.82,2-.23-.05a2.33,2.33,0,0,0-.48,0"/><g class="cls-7"><rect class="cls-2" x="-3674.39" y="-3335.38" width="6348.4" height="5052.27"/></g><path class="cls-3" d="M886.71-844.43a1.12,1.12,0,0,0-.92-.27,1.62,1.62,0,0,0-1,.4,2.17,2.17,0,0,0-.62,1.23s0,.11,0,.18l1.95-.06c.5,0,.79-.17.86-.61a1,1,0,0,0-.21-.87m1.84,1a1.43,1.43,0,0,1-.61,1.08,2.65,2.65,0,0,1-1.42.4,9,9,0,0,1-1.86,0c-.39-.07-.51-.65-.57-.81a4.08,4.08,0,0,0-.07,1.09,1.17,1.17,0,0,0,.5,1,2.25,2.25,0,0,0,1.22.24c.32,0,.66,0,1-.08a7.81,7.81,0,0,0,.82-.11h0c.06,0,.13,0,.12.12l-.1.82c0,.06,0,.1-.12.14a8.08,8.08,0,0,1-1,.24,8.69,8.69,0,0,1-1.08.12,4.6,4.6,0,0,1-1.53-.16,2,2,0,0,1-1-.59,2.08,2.08,0,0,1-.46-1,4.43,4.43,0,0,1,0-1.37l.05-.41a3.8,3.8,0,0,1,1-2.32,3.6,3.6,0,0,1,2.5-.93,2.6,2.6,0,0,1,2.08.64,2.34,2.34,0,0,1,.47,1.92m-22.44-1.73-4.45.16c-.29,0-.39.21-.43.49s-.08.59-.11.83.09.31.3.31l.38,0,1.4,0c.11,0,0,0,0,0a2.36,2.36,0,0,0-1.29,1.89c0,.21-.34,2.67-.34,2.67s0,.11,0,.15c0,.24.14.29.23.28l.89,0h.08c.35,0,.45-.11.49-.46.07-.51.54-4.28.58-4.57l1,0c.48,0,1.05-.07,1.32.26s.23.71.16,1.26l-.37,3a.81.81,0,0,0,0,.15c0,.24.13.29.23.28l.89,0h.08c.35,0,.44-.11.49-.46,0-.13.48-3.76.51-4a1.88,1.88,0,0,0-2.08-2.07m25.06-.34c0-.24,0-.66-.48-.64l-.81,0a.43.43,0,0,0-.4.36l-.73,5.88c0,.32.06.44.22.44l1.17-.05a.32.32,0,0,0,.31-.28l.1-.71s.23-1.91.43-3.5a.31.31,0,0,0-.34-.37l-1,0h-.08c.51-.09,1.48-.53,1.57-1.19m-20.64,1.93-.95,0h-.08c.5-.09,1.48-.53,1.56-1.19,0-.24,0-.66-.48-.64l-.81,0a.42.42,0,0,0-.39.35l-.73,5.89c-.06.32.06.44.21.43l1.17,0a.35.35,0,0,0,.32-.29l.09-.7.44-3.51a.31.31,0,0,0-.35-.36m11.31-2.06a4.34,4.34,0,0,0-.91-.17,6.32,6.32,0,0,0-1.07,0,4.46,4.46,0,0,0-1,.14,2.8,2.8,0,0,0-.8.37,2.14,2.14,0,0,0-.56.6,2.24,2.24,0,0,0-.28.86,1.37,1.37,0,0,0,.25,1.11,2.38,2.38,0,0,0,1,.69l1,.38a1.92,1.92,0,0,1,.46.27.49.49,0,0,1,.14.43.64.64,0,0,1-.31.49,1.58,1.58,0,0,1-.75.16c-.32,0-.67,0-1.06,0s-.73,0-1-.06h0a.1.1,0,0,0-.11.09c0,.06,0,0,0,0l-.11.93c0,.11,0,.16.13.18a9.56,9.56,0,0,0,1.11.16,9.85,9.85,0,0,0,1.23,0,3.28,3.28,0,0,0,1.85-.57,2,2,0,0,0,.82-1.44,1.54,1.54,0,0,0-.23-1.13,2.18,2.18,0,0,0-1-.72l-1-.41a3.06,3.06,0,0,1-.45-.23.38.38,0,0,1-.14-.41.56.56,0,0,1,.3-.47,1.72,1.72,0,0,1,.69-.13h.88q.45,0,.87.06h.06a.13.13,0,0,0,.1-.1s0,0,0,0l.11-.93c0-.11-.08-.16-.14-.18m-5.38,1.35a.1.1,0,0,1-.1.09h-.06c-.28,0-.57-.06-.86-.07h-.89a2.16,2.16,0,0,0-.69.13.56.56,0,0,0-.3.48.4.4,0,0,0,.14.41,3.06,3.06,0,0,0,.45.23l1,.4a2.2,2.2,0,0,1,1,.72,1.57,1.57,0,0,1,.24,1.14,2,2,0,0,1-.83,1.43,3.24,3.24,0,0,1-1.84.57,8.39,8.39,0,0,1-1.24,0,9.54,9.54,0,0,1-1.11-.17c-.1,0-.14-.07-.13-.17l.12-.93v0a.11.11,0,0,1,.11-.1h0c.31,0,.65,0,1,.06h1a1.53,1.53,0,0,0,.75-.17.62.62,0,0,0,.31-.49.49.49,0,0,0-.14-.43,1.75,1.75,0,0,0-.46-.26l-1-.38a2.47,2.47,0,0,1-1-.69,1.46,1.46,0,0,1-.25-1.11,2.09,2.09,0,0,1,.29-.86,1.89,1.89,0,0,1,.56-.6,2.36,2.36,0,0,1,.8-.37,4.28,4.28,0,0,1,1-.15,9.6,9.6,0,0,1,1.08,0,4.93,4.93,0,0,1,.9.18c.07,0,.16.06.14.18l-.11.93s0,0,0,0"/><g class="cls-8"><rect class="cls-2" x="-3674.39" y="-3335.38" width="6348.4" height="5052.27"/></g><path class="cls-3" d="M871.33-836.24c-.37,0-.45.12-.47.24s0,.15.18.15l.24,0Zm-.35.62c-.32,0-.46-.1-.43-.35s.27-.45.8-.51h0v0c0-.11,0-.16,0-.19a.17.17,0,0,0-.14,0,1,1,0,0,0-.46.17l-.06,0,0-.29h0a1.07,1.07,0,0,1,.54-.16c.2,0,.32,0,.37.16a.75.75,0,0,1,0,.31l-.11.83h-.08A2.76,2.76,0,0,1,871-835.62Z"/><g class="cls-9"><rect class="cls-2" x="-3674.39" y="-3335.38" width="6348.4" height="5052.27"/></g><path class="cls-3" d="M872.13-837.2l0-.34.34,0,0,.34Zm-.19,1.53.18-1.33.33,0-.18,1.33Z"/><g class="cls-10"><rect class="cls-2" x="-3674.39" y="-3335.38" width="6348.4" height="5052.27"/></g><path class="cls-3" d="M873-835.68a.8.8,0,0,1-.37-.06h0l0-.32.05,0a.46.46,0,0,0,.31.1c.14,0,.23-.06.24-.14s0-.09-.07-.13l-.17-.08c-.23-.1-.31-.2-.28-.37a.54.54,0,0,1,.57-.42.65.65,0,0,1,.34.06h0l0,.29,0,0a.46.46,0,0,0-.28-.08c-.13,0-.22.06-.24.14s0,.09.2.17a.6.6,0,0,1,.25.15.29.29,0,0,1,.08.26.55.55,0,0,1-.59.42"/><g class="cls-11"><rect class="cls-2" x="-3674.39" y="-3335.38" width="6348.4" height="5052.27"/></g><path class="cls-3" d="M875.33-836.89a.51.51,0,0,0-.55.45c0,.28.1.42.38.41a.69.69,0,0,0,.2,0l.11-.83Zm-.09,1.74.08-.66-.24,0c-.45,0-.68-.22-.62-.63a.87.87,0,0,1,.94-.75,1.89,1.89,0,0,1,.4,0h0l-.26,2Z"/><g class="cls-12"><rect class="cls-2" x="-3674.39" y="-3335.38" width="6348.4" height="5052.27"/></g><path class="cls-3" d="M876.63-835.84a.59.59,0,0,1-.44-.1c-.09-.08-.11-.18-.08-.39l.11-.83h.32l-.11.81c0,.21,0,.28.27.27a.91.91,0,0,0,.23,0l.14-1.07.33,0-.17,1.29h0a2.59,2.59,0,0,1-.57.07"/><g class="cls-13"><rect class="cls-2" x="-3674.39" y="-3335.38" width="6348.4" height="5052.27"/></g><path class="cls-3" d="M878.62-836.78c0-.16-.08-.24-.25-.23a.39.39,0,0,0-.36.25Zm-.37.9c-.44,0-.68-.23-.62-.64a.82.82,0,0,1,.78-.75.49.49,0,0,1,.47.22.62.62,0,0,1,0,.41v.09l-1,0v0c0,.23.12.36.38.35a.83.83,0,0,0,.46-.16l.05,0,0,.29h0A1.06,1.06,0,0,1,878.25-835.88Z"/><g class="cls-14"><rect class="cls-2" x="-3674.39" y="-3335.38" width="6348.4" height="5052.27"/></g><path class="cls-3" d="M879.83-836,880-837h-.22l0-.24H880v0a.83.83,0,0,1,.26-.58.67.67,0,0,1,.43-.16h.16l0,.25h-.14a.3.3,0,0,0-.23.11.59.59,0,0,0-.13.36v0h.34l0,.24h-.34l-.14,1Z"/><g class="cls-15"><rect class="cls-2" x="-3674.39" y="-3335.38" width="6348.4" height="5052.27"/></g><path class="cls-3" d="M881.49-836.63c-.36,0-.44.12-.46.25s0,.15.18.14l.24,0Zm-.34.63c-.32,0-.46-.11-.43-.36s.27-.45.8-.51h0v0a.47.47,0,0,0,0-.18s-.07-.06-.15-.06a.87.87,0,0,0-.45.18l-.06,0,0-.29h0a1.15,1.15,0,0,1,.54-.16c.19,0,.32,0,.36.16a.59.59,0,0,1,0,.31l-.11.83-.08,0Z"/><g class="cls-16"><rect class="cls-2" x="-3674.39" y="-3335.38" width="6348.4" height="5052.27"/></g><path class="cls-3" d="M882.11-836.06l.17-1.24h0a1.61,1.61,0,0,1,.56-.12.63.63,0,0,1,.24,0h0l0,.27,0,0a.71.71,0,0,0-.21,0,.62.62,0,0,0-.26.06l-.14,1Z"/><g class="cls-17"><rect class="cls-2" x="-3674.39" y="-3335.38" width="6348.4" height="5052.27"/></g><path class="cls-3" d="M884.86-836.17,885-837c0-.19,0-.26-.23-.25a.74.74,0,0,0-.24,0,.74.74,0,0,1,0,.2l-.11.85-.33,0,.11-.84c0-.19,0-.26-.24-.25a.81.81,0,0,0-.25,0l-.14,1.07h-.33l.17-1.26h0a3,3,0,0,1,.61-.11.66.66,0,0,1,.36.08,1.29,1.29,0,0,1,.46-.11.52.52,0,0,1,.41.13.36.36,0,0,1,.06.34l-.11.86Z"/><g class="cls-18"><rect class="cls-2" x="-3674.39" y="-3335.38" width="6348.4" height="5052.27"/></g><path class="cls-3" d="M869.81-835.59l.11-.84c0-.19,0-.26-.22-.25a.79.79,0,0,0-.25,0,.65.65,0,0,1,0,.2l-.12.86H869l.11-.84c0-.19,0-.26-.24-.25a1.32,1.32,0,0,0-.26,0l-.14,1.06h-.32l.16-1.26h0a2,2,0,0,1,.61-.11.6.6,0,0,1,.36.07,1.08,1.08,0,0,1,.45-.1.52.52,0,0,1,.42.12.44.44,0,0,1,.06.35l-.11.86Z"/><g class="cls-19"><rect class="cls-2" x="-3674.39" y="-3335.38" width="6348.4" height="5052.27"/></g><path class="cls-3" d="M886.05-837.69l.57-.59.3,0-.63.6Zm.27.88c-.37,0-.45.12-.46.24s0,.15.17.15l.24,0Zm-.35.62c-.32,0-.46-.1-.42-.35s.27-.45.8-.51h0v0c0-.11,0-.16,0-.19s-.06,0-.14,0a1,1,0,0,0-.46.17l-.06,0,0-.29h0a1.21,1.21,0,0,1,.54-.17c.2,0,.32.05.37.17a.75.75,0,0,1,0,.31l-.11.83h-.07A3,3,0,0,1,886-836.19Z"/><g class="cls-20"><rect class="cls-2" x="-3674.39" y="-3335.38" width="6348.4" height="5052.27"/></g><path class="cls-3" d="M887.55-836.24c-.43,0-.68-.24-.62-.64a.83.83,0,0,1,.83-.74.83.83,0,0,1,.35.06h0l0,.29,0,0a.47.47,0,0,0-.29-.08.49.49,0,0,0-.5.46.33.33,0,0,0,.38.41.62.62,0,0,0,.34-.11l0,0,0,.29h0a1,1,0,0,1-.42.11"/><g class="cls-21"><rect class="cls-2" x="-3674.39" y="-3335.38" width="6348.4" height="5052.27"/></g><path class="cls-3" d="M888.43-837.83l0-.33.35,0-.05.34Zm-.19,1.54.17-1.34h.33l-.18,1.33Z"/><g class="cls-22"><rect class="cls-2" x="-3674.39" y="-3335.38" width="6348.4" height="5052.27"/></g><path class="cls-3" d="M889.7-836.94c-.36,0-.44.12-.46.24s0,.15.17.15l.25,0Zm-.34.62c-.32,0-.46-.1-.43-.35s.27-.45.8-.51h0v0a.55.55,0,0,0,0-.19s-.07-.05-.15-.05a1,1,0,0,0-.46.17l0,0,0-.29h0a1,1,0,0,1,.54-.16c.19,0,.32,0,.36.16a.57.57,0,0,1,0,.31l-.11.83h-.08A2.86,2.86,0,0,1,889.36-836.32Z"/><g class="cls-23"><rect class="cls-2" x="-3674.39" y="-3335.38" width="6348.4" height="5052.27"/></g><path class="cls-3" d="M858.14-841.22l-.55,3.11a4.39,4.39,0,0,0,2.8-3.2Z"/><g class="cls-24"><rect class="cls-2" x="-3674.39" y="-3335.38" width="6348.4" height="5052.27"/></g><path class="cls-3" d="M858.52-843.23l1.67-.06a4.19,4.19,0,0,0-1.36-1.75Z"/><g class="cls-25"><rect class="cls-2" x="-3674.39" y="-3335.38" width="6348.4" height="5052.27"/></g><path class="cls-3" d="M855.75-839.44c.14-.51.31-1.37,1.89-1.71.13,0,.11-.06,0-.05l-5.09.19c0-.27.19-1.1.25-1.41.1-.5.36-.61.83-.62l2.78-.11.51-2.77a5.71,5.71,0,0,0-1.5-.14c-2.67.1-4.77,2-4.68,4.35s2.14,3.93,4.67,4Z"/><g class="cls-26"><rect class="cls-2" x="-3674.39" y="-3335.38" width="6348.4" height="5052.27"/></g><polygon class="cls-3" points="871.76 -755.96 841.22 -758.36 841.52 -762.12 867.99 -760.03 867.9 -807.17 871.66 -807.18 871.76 -755.96"/><g class="cls-27"><rect class="cls-2" x="-3674.39" y="-3335.38" width="6348.4" height="5052.27"/></g><rect class="cls-2" x="881.91" y="-770.9" width="3.76" height="27.92" transform="translate(1571.91 181.43) rotate(-85.67)"/><g class="cls-28"><rect class="cls-2" x="-3674.39" y="-3335.38" width="6348.4" height="5052.27"/></g><path class="cls-3" d="M875.43-772.63a1.87,1.87,0,0,1-1.62-.92,1.88,1.88,0,0,1,.65-2.58l1-.61v-1.9L874-779.9a1.89,1.89,0,0,1-.25-2.65,1.89,1.89,0,0,1,2.65-.25l2.2,1.84a1.86,1.86,0,0,1,.68,1.44v3.85a1.89,1.89,0,0,1-.92,1.62l-2,1.15a1.85,1.85,0,0,1-1,.27"/><g class="cls-29"><rect class="cls-2" x="-3674.39" y="-3335.38" width="6348.4" height="5052.27"/></g><path class="cls-3" d="M863.69-773.17a1.85,1.85,0,0,1-1-.26l-2-1.16a1.89,1.89,0,0,1-.92-1.62v-3.85a1.86,1.86,0,0,1,.67-1.44l2.2-1.83a1.88,1.88,0,0,1,2.65.24,1.88,1.88,0,0,1-.24,2.65l-1.52,1.26v1.9l1,.61a1.88,1.88,0,0,1,.66,2.58,1.89,1.89,0,0,1-1.62.92"/><g class="cls-30"><rect class="cls-2" x="-3674.39" y="-3335.38" width="6348.4" height="5052.27"/></g><path class="cls-2" d="M554.75-382.5H471.23l35.56-33.82a3.29,3.29,0,0,0,0-4.93,3.71,3.71,0,0,0-5.19,0l-42,39.81a3.29,3.29,0,0,0,0,4.93l41.85,39.81a3.7,3.7,0,0,0,5.18,0,3.28,3.28,0,0,0,0-4.93l-35.37-33.82h83.52a3.64,3.64,0,0,0,3.71-3.53A3.63,3.63,0,0,0,554.75-382.5Z"/><g class="cls-31"><rect class="cls-2" x="-241.54" y="-3115.64" width="9600" height="25640"/></g><path class="cls-2" d="M314.16-382.5h83.52l-35.56-33.82a3.29,3.29,0,0,1,0-4.93,3.71,3.71,0,0,1,5.19,0l42,39.81a3.29,3.29,0,0,1,0,4.93L367.49-336.7a3.7,3.7,0,0,1-5.18,0,3.29,3.29,0,0,1,0-4.93l35.37-33.82H314.16a3.63,3.63,0,0,1-3.7-3.53A3.62,3.62,0,0,1,314.16-382.5Z"/><g class="cls-32"><rect class="cls-2" x="-8489.54" y="-3115.64" width="9600" height="25640"/></g><path class="cls-2" d="M115.89,20.83l-7.16-7.16A13.09,13.09,0,0,0,102,9.27l-.15,0h-2.9a11.74,11.74,0,0,0-5.47,3.08q-8.59,8.6-17.2,17.16C65,40.7,53.39,52.28,42.05,63.73l0,0a6.52,6.52,0,0,0-1.57,2.82c-.49,1.63-.94,3.24-1.38,4.81s-.9,3.18-1.39,4.81L36.36,80.8c-.81,2.91-1.64,5.91-2.3,8.87a4.51,4.51,0,0,0,0,2.19s0,0,0,.06a3.79,3.79,0,0,0,3.41,2.61,2.64,2.64,0,0,0,1.16-.19L61.52,88a7,7,0,0,0,3.16-1.76L115.91,35l.49-.49a10,10,0,0,0,2.6-6.73A9.92,9.92,0,0,0,115.89,20.83Zm-71,57.3c.28-1,.57-2,.82-3l.28-1.11,7.92,8.06-.6.14c-1.08.24-2.17.54-3.22.82s-1.93.52-2.9.75L45,81.72l-.94-.93C44.32,79.9,44.58,79,44.84,78.13ZM103.4,36.58l-42,42L49.64,66.7l42-42Zm7.92-8.53a1.88,1.88,0,0,1-.67,1.29l-1.28,1.27L109,31,97,18.91l.14-.14.82-.82.81-.82a2.08,2.08,0,0,1,2.9,0l2.62,2.62L106.53,22l3,2.95,1,1A3,3,0,0,1,111.32,28.05Z"/><path class="cls-2" d="M93.34,64.08H93a4.67,4.67,0,0,0-4.58,3.85s0,0,0,.08v39.77c0,1.69-.43,2.12-2.12,2.12h-66c-1.68,0-2.12-.43-2.12-2.12V41.66a2.31,2.31,0,0,1,.51-1.61A1.94,1.94,0,0,1,20,39.49a1.27,1.27,0,0,1,.34,0H60a4.75,4.75,0,0,0,3.1-1.65,4.41,4.41,0,0,0,.93-3.3,1.54,1.54,0,0,0-.2-.82c-.19-.95-1.06-3.4-4.88-3.4H20.14a13,13,0,0,0-2.55.17A10.53,10.53,0,0,0,9,41.18v66.6A20,20,0,0,0,9.34,111a10.43,10.43,0,0,0,10.14,7.78H86.92a10.41,10.41,0,0,0,10.31-10.3V68.7a3.87,3.87,0,0,0-.81-3A4.35,4.35,0,0,0,93.34,64.08Z"/></svg>