<svg id="Layer_1" data-name="Layer 1" xmlns="http://www.w3.org/2000/svg" xmlns:xlink="http://www.w3.org/1999/xlink" viewBox="0 0 128 128"><defs><style>.cls-1,.cls-2,.cls-5{fill:#8a9297;}.cls-1{clip-rule:evenodd;}.cls-3{opacity:0.4;}.cls-4{fill:#fff;}.cls-5{fill-rule:evenodd;}.cls-6{clip-path:url(#clip-path);}.cls-7{clip-path:url(#clip-path-2);}.cls-8{clip-path:url(#clip-path-3);}.cls-9{clip-path:url(#clip-path-4);}.cls-10{clip-path:url(#clip-path-5);}.cls-11{clip-path:url(#clip-path-6);}.cls-12{clip-path:url(#clip-path-7);}.cls-13{clip-path:url(#clip-path-8);}.cls-14{clip-path:url(#clip-path-9);}.cls-15{clip-path:url(#clip-path-10);}.cls-16{clip-path:url(#clip-path-11);}.cls-17{clip-path:url(#clip-path-12);}.cls-18{clip-path:url(#clip-path-13);}.cls-19{clip-path:url(#clip-path-14);}.cls-20{clip-path:url(#clip-path-15);}.cls-21{clip-path:url(#clip-path-16);}.cls-22{clip-path:url(#clip-path-17);}.cls-23{clip-path:url(#clip-path-18);}.cls-24{clip-path:url(#clip-path-19);}.cls-25{clip-path:url(#clip-path-20);}.cls-26{clip-path:url(#clip-path-21);}.cls-27{clip-path:url(#clip-path-22);}.cls-28{clip-path:url(#clip-path-23);}.cls-29{clip-path:url(#clip-path-24);}.cls-30{clip-path:url(#clip-path-25);}.cls-31{clip-path:url(#clip-path-26);}.cls-32{clip-path:url(#clip-path-27);}.cls-33{clip-path:url(#clip-path-28);}.cls-34{clip-path:url(#clip-path-29);}</style><clipPath id="clip-path"><path class="cls-1" d="M760.43-308.47h-.16l-11-.91a1.88,1.88,0,0,1-1.72-1.88v-44.32a6.43,6.43,0,0,0-1.71-4.91,6.62,6.62,0,0,0-4.5-1.46h-.17l-47.55-.53v46.91a1.88,1.88,0,0,1-.61,1.38,1.85,1.85,0,0,1-1.42.49l-9.25-.73a1.89,1.89,0,0,1-1.74-1.89c0-.3.28-29.77.22-36.75a14.79,14.79,0,0,1,3.35-9.34h-5.9a3.56,3.56,0,0,1-3.26-2.65,1.77,1.77,0,0,1-.08-.56v-6.09c0-3.05,1.89-4.32,3-4.58a1.92,1.92,0,0,1,.41,0l67.22-.91h.26c15.86,2,16.65,15.93,16.66,16.07v.09l-.18,50.74a1.88,1.88,0,0,1-.61,1.38A1.87,1.87,0,0,1,760.43-308.47ZM751.32-313l7.23.6.18-48.64c-.05-.78-1-10.82-13.25-12.45l-66.6.91a1.56,1.56,0,0,0-.18.87v5.54h10.11a1.87,1.87,0,0,1,1.43.66l.18-.21a1.84,1.84,0,0,1,1.35-.54l49.38.54a10.37,10.37,0,0,1,7.22,2.42c2,1.79,3,4.39,3,7.71Zm-66.93-5,5.47.43v-45.12h0c-.05,0-5.32,3.68-5.27,9.63S684.45-324.53,684.39-318Z"/></clipPath><clipPath id="clip-path-2"><path class="cls-1" d="M765.55-311.94h-3.77v-49.62c-.09-1-1.31-11.3-12-12.12l.29-3.75c11.42.87,15.13,10.62,15.5,15.66v49.83Z"/></clipPath><clipPath id="clip-path-3"><path class="cls-1" d="M685.94-379.47a1.89,1.89,0,0,1-1.88-1.87l-.12-19.85a1.87,1.87,0,0,1,1.82-1.89l9.65-.3h.09l3.42.06a1.88,1.88,0,0,1,1.85,1.91,1.88,1.88,0,0,1-1.92,1.85l-3.37-.06-7.76.25.11,18a1.89,1.89,0,0,1-1.87,1.9Z"/></clipPath><clipPath id="clip-path-4"><path class="cls-1" d="M701.58-386.55h-.46a5,5,0,0,1-4.15-1.76,4.52,4.52,0,0,1-.8-3.49l.83-9.68c-.07-2.54.62-4.44,2.07-5.65a6.1,6.1,0,0,1,4.7-1.2l41.84-2,.23,0c2.51.51,4.26,1.53,5.19,3a4.35,4.35,0,0,1,.64,3.09c-.11,1.42-.78,9.74-1.45,12.36a5.74,5.74,0,0,1-4.77,4.33l-.18,0c-1.59,0-37.92.92-43.69.92m1.2-18.09a2.07,2.07,0,0,0-1.31.39,3.62,3.62,0,0,0-.7,2.73v.12l-.91,10.29a.9.9,0,0,0,.08.49,1.87,1.87,0,0,0,1.24.3c3.65.07,41.35-.85,43.87-.91a2,2,0,0,0,1.53-1.52c.52-2,1.15-9.22,1.35-11.83l0-.31c0-.54-.81-1.27-2.65-1.68l-41.83,2-.23-.05a4.69,4.69,0,0,0-.48,0"/></clipPath><clipPath id="clip-path-5"><path class="cls-1" d="M738.26-401.46a1.22,1.22,0,0,0-.93-.27,1.68,1.68,0,0,0-1,.4,2.13,2.13,0,0,0-.61,1.24s0,.1,0,.17,1.1,0,2-.06c.51,0,.79-.16.86-.6a1,1,0,0,0-.2-.88m1.83,1a1.43,1.43,0,0,1-.61,1.08,2.71,2.71,0,0,1-1.42.4,9.83,9.83,0,0,1-1.86,0c-.38-.08-.51-.65-.56-.81a3.89,3.89,0,0,0-.08,1.09,1.14,1.14,0,0,0,.5,1,2.16,2.16,0,0,0,1.22.24c.32,0,.66,0,1-.07l.81-.11h0c.06,0,.14,0,.12.12l-.1.83c0,.06,0,.1-.11.13a6.84,6.84,0,0,1-1.06.25,8.42,8.42,0,0,1-1.08.11,4.38,4.38,0,0,1-1.53-.16,2,2,0,0,1-1-.58,2.11,2.11,0,0,1-.46-1,4.69,4.69,0,0,1,0-1.36l0-.41a3.91,3.91,0,0,1,1-2.33,3.62,3.62,0,0,1,2.51-.92,2.56,2.56,0,0,1,2.07.63,2.36,2.36,0,0,1,.47,1.93m-22.44-1.74-4.45.17c-.29,0-.39.21-.43.49s-.08.58-.11.82.09.32.3.31h.38l1.4-.06c.12,0,0,0,0,.05a2.38,2.38,0,0,0-1.28,1.9c0,.21-.34,2.67-.34,2.67a.77.77,0,0,0,0,.15c0,.23.14.28.23.28l.9,0h.08c.35,0,.44-.11.49-.47s.54-4.27.57-4.56l1,0c.48,0,1.06-.07,1.33.25s.22.71.16,1.27c0,0-.38,3-.38,3s0,.11,0,.15c0,.23.14.28.23.28l.89,0h.08c.35,0,.45-.11.49-.47,0-.12.48-3.76.51-4,.22-1.7-1.4-2.09-2.08-2.07m25.06-.33c0-.24,0-.66-.48-.64l-.81,0a.42.42,0,0,0-.39.35l-.73,5.89c-.06.32.05.44.21.43l1.17,0a.35.35,0,0,0,.32-.29l.09-.7s.24-1.92.43-3.51a.3.3,0,0,0-.34-.36l-.95,0h-.11s0,0,0,0c.51-.09,1.49-.53,1.57-1.19m-20.64,1.92-1,0H721c.51-.1,1.48-.54,1.56-1.2,0-.24,0-.66-.47-.64l-.81,0a.43.43,0,0,0-.4.36l-.73,5.89c-.05.32.06.43.22.43l1.17-.05a.33.33,0,0,0,.31-.28l.1-.71s.23-1.91.43-3.5a.32.32,0,0,0-.35-.37m11.31-2.05a4.93,4.93,0,0,0-.9-.18,9.6,9.6,0,0,0-1.08,0,4.37,4.37,0,0,0-1,.15,2.36,2.36,0,0,0-.8.37,1.89,1.89,0,0,0-.56.6,2.24,2.24,0,0,0-.29.86,1.46,1.46,0,0,0,.25,1.11,2.47,2.47,0,0,0,1.05.69l1,.38a1.75,1.75,0,0,1,.46.26.47.47,0,0,1,.14.43.62.62,0,0,1-.31.49,1.53,1.53,0,0,1-.75.17h-1.05c-.38,0-.73,0-1-.06h0a.11.11,0,0,0-.12.1v0l-.12.93c0,.1,0,.16.13.17a9.4,9.4,0,0,0,1.12.17,8.25,8.25,0,0,0,1.23,0,3.24,3.24,0,0,0,1.84-.57,2,2,0,0,0,.83-1.43,1.58,1.58,0,0,0-.24-1.14,2.2,2.2,0,0,0-1-.72l-1-.4a2.29,2.29,0,0,1-.45-.23.4.4,0,0,1-.15-.41.56.56,0,0,1,.31-.48,1.86,1.86,0,0,1,.69-.12,8.58,8.58,0,0,1,.88,0c.29,0,.58,0,.86.07h.07a.1.1,0,0,0,.09-.09v0l.11-.93c0-.12-.07-.16-.14-.18M728-401.27c0,.06-.07.1-.1.1h-.07a8.09,8.09,0,0,0-.86-.07h-.88a1.87,1.87,0,0,0-.69.13.55.55,0,0,0-.31.47.4.4,0,0,0,.15.41,1.85,1.85,0,0,0,.45.23l1,.41a2.14,2.14,0,0,1,1,.72,1.5,1.5,0,0,1,.24,1.13,2,2,0,0,1-.82,1.44,3.3,3.3,0,0,1-1.85.57,12.24,12.24,0,0,1-1.23,0c-.39,0-.76-.1-1.12-.17a.14.14,0,0,1-.13-.18l.12-.93s0,0,0,0a.09.09,0,0,1,.11-.09h0c.31,0,.66.05,1,.06s.73,0,1,0a1.62,1.62,0,0,0,.76-.16.63.63,0,0,0,.3-.49.44.44,0,0,0-.14-.43,1.75,1.75,0,0,0-.46-.26l-1-.38a2.4,2.4,0,0,1-1-.69,1.41,1.41,0,0,1-.25-1.12,2.08,2.08,0,0,1,.28-.86,2,2,0,0,1,.56-.6,2.68,2.68,0,0,1,.8-.37,4.45,4.45,0,0,1,1-.14,6.44,6.44,0,0,1,1.08,0,3.58,3.58,0,0,1,.9.18c.07,0,.16.06.15.17l-.12.93s0,0,0,0"/></clipPath><clipPath id="clip-path-6"><path class="cls-1" d="M722.87-393.27c-.36,0-.45.13-.46.25s0,.15.17.14l.24,0Zm-.35.63c-.31,0-.46-.11-.42-.36s.27-.44.8-.51h0a.42.42,0,0,0,0-.19s-.07-.06-.15-.05a.82.82,0,0,0-.46.17l0,0,0-.3h0a1.37,1.37,0,0,1,.54-.16c.2,0,.32,0,.37.17a.61.61,0,0,1,0,.31l-.11.83H723A4.48,4.48,0,0,1,722.52-392.64Z"/></clipPath><clipPath id="clip-path-7"><path class="cls-1" d="M723.68-394.23l0-.34h.35l-.05.34Zm-.19,1.53.17-1.33H724l-.18,1.33Z"/></clipPath><clipPath id="clip-path-8"><path class="cls-1" d="M724.53-392.7a.91.91,0,0,1-.36-.06h0l0-.32,0,0a.43.43,0,0,0,.32.11c.13,0,.22-.06.24-.15a.13.13,0,0,0-.07-.12l-.17-.08c-.24-.1-.31-.2-.29-.37a.54.54,0,0,1,.57-.42.65.65,0,0,1,.34.06h0l0,.3,0,0a.43.43,0,0,0-.29-.08c-.13,0-.22.06-.23.14s0,.08.2.17a.43.43,0,0,1,.24.15.25.25,0,0,1,.08.25.55.55,0,0,1-.59.43"/></clipPath><clipPath id="clip-path-9"><path class="cls-1" d="M726.87-393.92a.51.51,0,0,0-.54.46c0,.28.09.42.37.41l.2,0,.11-.83Zm-.09,1.75.09-.67a.77.77,0,0,1-.25,0c-.44,0-.68-.22-.62-.63a.87.87,0,0,1,.94-.74,1.4,1.4,0,0,1,.4,0h0l-.26,2Z"/></clipPath><clipPath id="clip-path-10"><path class="cls-1" d="M728.17-392.86a.6.6,0,0,1-.44-.1c-.09-.08-.11-.19-.08-.39l.11-.84h.32l-.1.81c0,.22,0,.28.26.27l.23,0,.14-1.08h.33l-.17,1.29h0a3.37,3.37,0,0,1-.57.08"/></clipPath><clipPath id="clip-path-11"><path class="cls-1" d="M730.17-393.8c0-.17-.09-.24-.26-.24a.4.4,0,0,0-.36.26Zm-.38.89c-.44,0-.67-.22-.62-.64a.82.82,0,0,1,.78-.74.48.48,0,0,1,.47.22.56.56,0,0,1,.05.41v.09l-1,0v0c0,.23.12.37.38.36a.88.88,0,0,0,.46-.16l.05,0,0,.29h0A1.13,1.13,0,0,1,729.79-392.91Z"/></clipPath><clipPath id="clip-path-12"><path class="cls-1" d="M731.38-393l.14-1.05h-.22l0-.24h.22v0a.79.79,0,0,1,.26-.57.77.77,0,0,1,.43-.17h.17l0,.24h-.14a.29.29,0,0,0-.23.1.59.59,0,0,0-.12.37v0h.35l0,.24-.35,0L731.7-393Z"/></clipPath><clipPath id="clip-path-13"><path class="cls-1" d="M733-393.65c-.37,0-.45.12-.46.24s0,.15.17.15l.24,0Zm-.35.62c-.32,0-.46-.11-.42-.35s.27-.45.8-.51h0v0c0-.11,0-.16,0-.19s-.06,0-.14,0a1,1,0,0,0-.46.17l-.05,0,0-.3h0a1.21,1.21,0,0,1,.54-.17c.2,0,.32.05.37.17a.75.75,0,0,1,0,.31l-.11.83h-.07A3,3,0,0,1,732.69-393Z"/></clipPath><clipPath id="clip-path-14"><path class="cls-1" d="M733.66-393.08l.16-1.25h0a1.63,1.63,0,0,1,.57-.13.93.93,0,0,1,.24,0h0l0,.27h0a.37.37,0,0,0-.21,0,.85.85,0,0,0-.26.05l-.14,1Z"/></clipPath><clipPath id="clip-path-15"><path class="cls-1" d="M736.4-393.19l.11-.83c0-.19,0-.26-.22-.26a1.23,1.23,0,0,0-.25,0,.47.47,0,0,1,0,.2l-.11.86h-.32l.11-.83c0-.2,0-.26-.24-.25a.82.82,0,0,0-.26,0l-.14,1.06h-.32l.16-1.25h0a2.39,2.39,0,0,1,.6-.11.62.62,0,0,1,.37.07,1.26,1.26,0,0,1,.45-.1.48.48,0,0,1,.41.13.38.38,0,0,1,.07.34l-.12.86Z"/></clipPath><clipPath id="clip-path-16"><path class="cls-1" d="M721.35-392.62l.11-.83c0-.19,0-.26-.22-.25a.74.74,0,0,0-.24.05,1.72,1.72,0,0,1,0,.2l-.11.85h-.33l.11-.83c0-.19,0-.26-.24-.25a.73.73,0,0,0-.25,0l-.14,1.06-.33,0,.17-1.26h0a2.92,2.92,0,0,1,.61-.11.77.77,0,0,1,.36.07,1.52,1.52,0,0,1,.46-.1.5.5,0,0,1,.41.13.36.36,0,0,1,.06.34l-.11.86Z"/></clipPath><clipPath id="clip-path-17"><path class="cls-1" d="M737.6-394.72l.57-.58h.3l-.64.6Zm.26.88c-.36,0-.45.13-.46.25s0,.15.17.14l.24,0Zm-.35.63q-.46,0-.42-.36c0-.3.27-.44.8-.51h0a.42.42,0,0,0,0-.19s-.07-.06-.15-.05a.82.82,0,0,0-.46.17l0,0,0-.29h0a1.36,1.36,0,0,1,.55-.16c.19,0,.31,0,.36.16a.55.55,0,0,1,0,.32l-.11.83H738A4.48,4.48,0,0,1,737.51-393.21Z"/></clipPath><clipPath id="clip-path-18"><path class="cls-1" d="M739.1-393.27c-.44,0-.69-.23-.63-.64a.83.83,0,0,1,.83-.73.7.7,0,0,1,.35.06h0l0,.29,0,0a.47.47,0,0,0-.29-.08.48.48,0,0,0-.49.45c0,.28.1.43.37.42a.7.7,0,0,0,.34-.12l0,0,0,.29h0a.86.86,0,0,1-.41.1"/></clipPath><clipPath id="clip-path-19"><path class="cls-1" d="M740-394.85l0-.34h.34l-.05.34Zm-.19,1.53.18-1.33h.32l-.17,1.33Z"/></clipPath><clipPath id="clip-path-20"><path class="cls-1" d="M741.25-394c-.37.05-.45.13-.46.25s0,.15.17.14l.24,0Zm-.35.63c-.32,0-.46-.11-.43-.36s.28-.44.81-.51h0c0-.12,0-.16,0-.19s-.06-.06-.14,0a.8.8,0,0,0-.46.17l-.06,0,0-.3h0a1.32,1.32,0,0,1,.54-.16c.2,0,.32.05.37.16a.81.81,0,0,1,0,.32l-.11.83h-.08A4.11,4.11,0,0,1,740.9-393.34Z"/></clipPath><clipPath id="clip-path-21"><path class="cls-1" d="M709.68-398.25l-.55,3.11a4.35,4.35,0,0,0,2.8-3.19Z"/></clipPath><clipPath id="clip-path-22"><path class="cls-1" d="M710.06-400.25l1.67-.07a4.08,4.08,0,0,0-1.35-1.74Z"/></clipPath><clipPath id="clip-path-23"><path class="cls-1" d="M707.3-396.47c.13-.51.3-1.36,1.88-1.7.13,0,.12-.06,0-.06l-5.1.2c0-.27.19-1.1.25-1.42.1-.5.36-.6.83-.62l2.78-.1.51-2.77a5.21,5.21,0,0,0-1.49-.15c-2.68.1-4.78,2-4.69,4.35s2.14,3.93,4.67,4Z"/></clipPath><clipPath id="clip-path-24"><polygon class="cls-1" points="723.3 -312.99 692.76 -315.39 693.06 -319.14 719.53 -317.06 719.44 -364.2 723.21 -364.2 723.3 -312.99"/></clipPath><clipPath id="clip-path-25"><rect class="cls-2" x="733.45" y="-327.93" width="3.76" height="27.92" transform="translate(992.94 442.96) rotate(-85.67)"/></clipPath><clipPath id="clip-path-26"><path class="cls-1" d="M727-329.66a1.86,1.86,0,0,1-1.62-.92,1.87,1.87,0,0,1,.66-2.57l1-.62v-1.89l-1.52-1.27a1.88,1.88,0,0,1-.24-2.65,1.88,1.88,0,0,1,2.65-.24l2.19,1.83a1.89,1.89,0,0,1,.68,1.45v3.84a1.88,1.88,0,0,1-.92,1.62l-2,1.16a1.85,1.85,0,0,1-1,.26"/></clipPath><clipPath id="clip-path-27"><path class="cls-1" d="M715.23-330.19a1.92,1.92,0,0,1-1-.27l-1.95-1.16a1.88,1.88,0,0,1-.92-1.61v-3.85a1.89,1.89,0,0,1,.68-1.45l2.19-1.83a1.89,1.89,0,0,1,2.65.24,1.88,1.88,0,0,1-.24,2.65l-1.52,1.27v1.9l1,.61a1.88,1.88,0,0,1,.65,2.58,1.87,1.87,0,0,1-1.62.92"/></clipPath><clipPath id="clip-path-28"><path class="cls-2" d="M406.3,60.48H322.78l35.55-33.82a3.3,3.3,0,0,0,0-4.94,3.7,3.7,0,0,0-5.18,0l-42,39.81a3.3,3.3,0,0,0,0,4.94L353,106.28a3.71,3.71,0,0,0,5.19,0,3.3,3.3,0,0,0,0-4.94L322.78,67.52H406.3a3.52,3.52,0,1,0,0-7Z"/></clipPath><clipPath id="clip-path-29"><path class="cls-2" d="M165.7,60.48h83.52L213.67,26.66a3.3,3.3,0,0,1,0-4.94,3.7,3.7,0,0,1,5.18,0l42,39.81a3.3,3.3,0,0,1,0,4.94L219,106.28a3.71,3.71,0,0,1-5.19,0,3.3,3.3,0,0,1,0-4.94l35.37-33.82H165.7a3.52,3.52,0,1,1,0-7Z"/></clipPath></defs><title>icons</title><circle class="cls-3" cx="64" cy="64" r="64"/><path class="cls-4" d="M37.87,92.93a24,24,0,0,1-2.42-.43A8.79,8.79,0,0,1,29,84.06q0-15.21,0-30.42a8.84,8.84,0,0,1,9-8.92q3.38,0,6.75,0a.89.89,0,0,0,1-.58c1.11-2.28,2.23-4.56,3.38-6.82a7.17,7.17,0,0,1,6.79-4.25c5.35,0,10.7,0,16,0a7.09,7.09,0,0,1,6.43,3.77,2.73,2.73,0,1,1-4.73,2.7,2,2,0,0,0-1.85-1.05H55.84a2.13,2.13,0,0,0-2,1.32c-1.11,2.25-2.25,4.49-3.35,6.76a5.88,5.88,0,0,1-5.78,3.59c-2.16,0-4.31,0-6.46,0-2.43,0-3.79,1.36-3.79,3.77q0,14.89,0,29.77a3.41,3.41,0,0,0,3.71,3.7H89.72a3.44,3.44,0,0,0,3.76-3.73V53.84a3.41,3.41,0,0,0-3.67-3.67H75.22A4.87,4.87,0,0,1,73.79,50a2.71,2.71,0,0,1,.81-5.27c1.79,0,3.58,0,5.37,0H90a8.86,8.86,0,0,1,8.9,8.15c0,.24.07.47.11.71V84.07c0,.24-.1.47-.12.7a8.77,8.77,0,0,1-6.47,7.75c-.74.2-1.51.28-2.27.41Z"/><path class="cls-4" d="M48.23,66.41a15.74,15.74,0,1,1,14.91,16.2A15.77,15.77,0,0,1,48.23,66.41ZM64,56.64A10.3,10.3,0,1,0,74.27,67,10.31,10.31,0,0,0,64,56.64Z"/><path class="cls-4" d="M89.87,56.58a3.15,3.15,0,1,1-3.13-3.19A3.11,3.11,0,0,1,89.87,56.58Z"/><path class="cls-5" d="M760.43-308.47h-.16l-11-.91a1.88,1.88,0,0,1-1.72-1.88v-44.32a6.43,6.43,0,0,0-1.71-4.91,6.62,6.62,0,0,0-4.5-1.46h-.17l-47.55-.53v46.91a1.88,1.88,0,0,1-.61,1.38,1.85,1.85,0,0,1-1.42.49l-9.25-.73a1.89,1.89,0,0,1-1.74-1.89c0-.3.28-29.77.22-36.75a14.79,14.79,0,0,1,3.35-9.34h-5.9a3.56,3.56,0,0,1-3.26-2.65,1.77,1.77,0,0,1-.08-.56v-6.09c0-3.05,1.89-4.32,3-4.58a1.92,1.92,0,0,1,.41,0l67.22-.91h.26c15.86,2,16.65,15.93,16.66,16.07v.09l-.18,50.74a1.88,1.88,0,0,1-.61,1.38A1.87,1.87,0,0,1,760.43-308.47ZM751.32-313l7.23.6.18-48.64c-.05-.78-1-10.82-13.25-12.45l-66.6.91a1.56,1.56,0,0,0-.18.87v5.54h10.11a1.87,1.87,0,0,1,1.43.66l.18-.21a1.84,1.84,0,0,1,1.35-.54l49.38.54a10.37,10.37,0,0,1,7.22,2.42c2,1.79,3,4.39,3,7.71Zm-66.93-5,5.47.43v-45.12h0c-.05,0-5.32,3.68-5.27,9.63S684.45-324.53,684.39-318Z"/><g class="cls-6"><rect class="cls-2" x="-3822.84" y="-2892.4" width="6348.4" height="5052.27"/></g><path class="cls-5" d="M765.55-311.94h-3.77v-49.62c-.09-1-1.31-11.3-12-12.12l.29-3.75c11.42.87,15.13,10.62,15.5,15.66v49.83Z"/><g class="cls-7"><rect class="cls-2" x="-3822.84" y="-2892.4" width="6348.4" height="5052.27"/></g><path class="cls-5" d="M685.94-379.47a1.89,1.89,0,0,1-1.88-1.87l-.12-19.85a1.87,1.87,0,0,1,1.82-1.89l9.65-.3h.09l3.42.06a1.88,1.88,0,0,1,1.85,1.91,1.88,1.88,0,0,1-1.92,1.85l-3.37-.06-7.76.25.11,18a1.89,1.89,0,0,1-1.87,1.9Z"/><g class="cls-8"><rect class="cls-2" x="-3822.84" y="-2892.4" width="6348.4" height="5052.27"/></g><path class="cls-5" d="M701.58-386.55h-.46a5,5,0,0,1-4.15-1.76,4.52,4.52,0,0,1-.8-3.49l.83-9.68c-.07-2.54.62-4.44,2.07-5.65a6.1,6.1,0,0,1,4.7-1.2l41.84-2,.23,0c2.51.51,4.26,1.53,5.19,3a4.35,4.35,0,0,1,.64,3.09c-.11,1.42-.78,9.74-1.45,12.36a5.74,5.74,0,0,1-4.77,4.33l-.18,0c-1.59,0-37.92.92-43.69.92m1.2-18.09a2.07,2.07,0,0,0-1.31.39,3.62,3.62,0,0,0-.7,2.73v.12l-.91,10.29a.9.9,0,0,0,.08.49,1.87,1.87,0,0,0,1.24.3c3.65.07,41.35-.85,43.87-.91a2,2,0,0,0,1.53-1.52c.52-2,1.15-9.22,1.35-11.83l0-.31c0-.54-.81-1.27-2.65-1.68l-41.83,2-.23-.05a4.69,4.69,0,0,0-.48,0"/><g class="cls-9"><rect class="cls-2" x="-3822.84" y="-2892.4" width="6348.4" height="5052.27"/></g><path class="cls-5" d="M738.26-401.46a1.22,1.22,0,0,0-.93-.27,1.68,1.68,0,0,0-1,.4,2.13,2.13,0,0,0-.61,1.24s0,.1,0,.17,1.1,0,2-.06c.51,0,.79-.16.86-.6a1,1,0,0,0-.2-.88m1.83,1a1.43,1.43,0,0,1-.61,1.08,2.71,2.71,0,0,1-1.42.4,9.83,9.83,0,0,1-1.86,0c-.38-.08-.51-.65-.56-.81a3.89,3.89,0,0,0-.08,1.09,1.14,1.14,0,0,0,.5,1,2.16,2.16,0,0,0,1.22.24c.32,0,.66,0,1-.07l.81-.11h0c.06,0,.14,0,.12.12l-.1.83c0,.06,0,.1-.11.13a6.84,6.84,0,0,1-1.06.25,8.42,8.42,0,0,1-1.08.11,4.38,4.38,0,0,1-1.53-.16,2,2,0,0,1-1-.58,2.11,2.11,0,0,1-.46-1,4.69,4.69,0,0,1,0-1.36l0-.41a3.91,3.91,0,0,1,1-2.33,3.62,3.62,0,0,1,2.51-.92,2.56,2.56,0,0,1,2.07.63,2.36,2.36,0,0,1,.47,1.93m-22.44-1.74-4.45.17c-.29,0-.39.21-.43.49s-.08.58-.11.82.09.32.3.31h.38l1.4-.06c.12,0,0,0,0,.05a2.38,2.38,0,0,0-1.28,1.9c0,.21-.34,2.67-.34,2.67a.77.77,0,0,0,0,.15c0,.23.14.28.23.28l.9,0h.08c.35,0,.44-.11.49-.47s.54-4.27.57-4.56l1,0c.48,0,1.06-.07,1.33.25s.22.71.16,1.27c0,0-.38,3-.38,3s0,.11,0,.15c0,.23.14.28.23.28l.89,0h.08c.35,0,.45-.11.49-.47,0-.12.48-3.76.51-4,.22-1.7-1.4-2.09-2.08-2.07m25.06-.33c0-.24,0-.66-.48-.64l-.81,0a.42.42,0,0,0-.39.35l-.73,5.89c-.06.32.05.44.21.43l1.17,0a.35.35,0,0,0,.32-.29l.09-.7s.24-1.92.43-3.51a.3.3,0,0,0-.34-.36l-.95,0h-.11s0,0,0,0c.51-.09,1.49-.53,1.57-1.19m-20.64,1.92-1,0H721c.51-.1,1.48-.54,1.56-1.2,0-.24,0-.66-.47-.64l-.81,0a.43.43,0,0,0-.4.36l-.73,5.89c-.05.32.06.43.22.43l1.17-.05a.33.33,0,0,0,.31-.28l.1-.71s.23-1.91.43-3.5a.32.32,0,0,0-.35-.37m11.31-2.05a4.93,4.93,0,0,0-.9-.18,9.6,9.6,0,0,0-1.08,0,4.37,4.37,0,0,0-1,.15,2.36,2.36,0,0,0-.8.37,1.89,1.89,0,0,0-.56.6,2.24,2.24,0,0,0-.29.86,1.46,1.46,0,0,0,.25,1.11,2.47,2.47,0,0,0,1.05.69l1,.38a1.75,1.75,0,0,1,.46.26.47.47,0,0,1,.14.43.62.62,0,0,1-.31.49,1.53,1.53,0,0,1-.75.17h-1.05c-.38,0-.73,0-1-.06h0a.11.11,0,0,0-.12.1v0l-.12.93c0,.1,0,.16.13.17a9.4,9.4,0,0,0,1.12.17,8.25,8.25,0,0,0,1.23,0,3.24,3.24,0,0,0,1.84-.57,2,2,0,0,0,.83-1.43,1.58,1.58,0,0,0-.24-1.14,2.2,2.2,0,0,0-1-.72l-1-.4a2.29,2.29,0,0,1-.45-.23.4.4,0,0,1-.15-.41.56.56,0,0,1,.31-.48,1.86,1.86,0,0,1,.69-.12,8.58,8.58,0,0,1,.88,0c.29,0,.58,0,.86.07h.07a.1.1,0,0,0,.09-.09v0l.11-.93c0-.12-.07-.16-.14-.18M728-401.27c0,.06-.07.1-.1.1h-.07a8.09,8.09,0,0,0-.86-.07h-.88a1.87,1.87,0,0,0-.69.13.55.55,0,0,0-.31.47.4.4,0,0,0,.15.41,1.85,1.85,0,0,0,.45.23l1,.41a2.14,2.14,0,0,1,1,.72,1.5,1.5,0,0,1,.24,1.13,2,2,0,0,1-.82,1.44,3.3,3.3,0,0,1-1.85.57,12.24,12.24,0,0,1-1.23,0c-.39,0-.76-.1-1.12-.17a.14.14,0,0,1-.13-.18l.12-.93s0,0,0,0a.09.09,0,0,1,.11-.09h0c.31,0,.66.05,1,.06s.73,0,1,0a1.62,1.62,0,0,0,.76-.16.63.63,0,0,0,.3-.49.44.44,0,0,0-.14-.43,1.75,1.75,0,0,0-.46-.26l-1-.38a2.4,2.4,0,0,1-1-.69,1.41,1.41,0,0,1-.25-1.12,2.08,2.08,0,0,1,.28-.86,2,2,0,0,1,.56-.6,2.68,2.68,0,0,1,.8-.37,4.45,4.45,0,0,1,1-.14,6.44,6.44,0,0,1,1.08,0,3.58,3.58,0,0,1,.9.18c.07,0,.16.06.15.17l-.12.93s0,0,0,0"/><g class="cls-10"><rect class="cls-2" x="-3822.84" y="-2892.4" width="6348.4" height="5052.27"/></g><path class="cls-5" d="M722.87-393.27c-.36,0-.45.13-.46.25s0,.15.17.14l.24,0Zm-.35.63c-.31,0-.46-.11-.42-.36s.27-.44.8-.51h0a.42.42,0,0,0,0-.19s-.07-.06-.15-.05a.82.82,0,0,0-.46.17l0,0,0-.3h0a1.37,1.37,0,0,1,.54-.16c.2,0,.32,0,.37.17a.61.61,0,0,1,0,.31l-.11.83H723A4.48,4.48,0,0,1,722.52-392.64Z"/><g class="cls-11"><rect class="cls-2" x="-3822.84" y="-2892.4" width="6348.4" height="5052.27"/></g><path class="cls-5" d="M723.68-394.23l0-.34h.35l-.05.34Zm-.19,1.53.17-1.33H724l-.18,1.33Z"/><g class="cls-12"><rect class="cls-2" x="-3822.84" y="-2892.4" width="6348.4" height="5052.27"/></g><path class="cls-5" d="M724.53-392.7a.91.91,0,0,1-.36-.06h0l0-.32,0,0a.43.43,0,0,0,.32.11c.13,0,.22-.06.24-.15a.13.13,0,0,0-.07-.12l-.17-.08c-.24-.1-.31-.2-.29-.37a.54.54,0,0,1,.57-.42.65.65,0,0,1,.34.06h0l0,.3,0,0a.43.43,0,0,0-.29-.08c-.13,0-.22.06-.23.14s0,.08.2.17a.43.43,0,0,1,.24.15.25.25,0,0,1,.08.25.55.55,0,0,1-.59.43"/><g class="cls-13"><rect class="cls-2" x="-3822.84" y="-2892.4" width="6348.4" height="5052.27"/></g><path class="cls-5" d="M726.87-393.92a.51.51,0,0,0-.54.46c0,.28.09.42.37.41l.2,0,.11-.83Zm-.09,1.75.09-.67a.77.77,0,0,1-.25,0c-.44,0-.68-.22-.62-.63a.87.87,0,0,1,.94-.74,1.4,1.4,0,0,1,.4,0h0l-.26,2Z"/><g class="cls-14"><rect class="cls-2" x="-3822.84" y="-2892.4" width="6348.4" height="5052.27"/></g><path class="cls-5" d="M728.17-392.86a.6.6,0,0,1-.44-.1c-.09-.08-.11-.19-.08-.39l.11-.84h.32l-.1.81c0,.22,0,.28.26.27l.23,0,.14-1.08h.33l-.17,1.29h0a3.37,3.37,0,0,1-.57.08"/><g class="cls-15"><rect class="cls-2" x="-3822.84" y="-2892.4" width="6348.4" height="5052.27"/></g><path class="cls-5" d="M730.17-393.8c0-.17-.09-.24-.26-.24a.4.4,0,0,0-.36.26Zm-.38.89c-.44,0-.67-.22-.62-.64a.82.82,0,0,1,.78-.74.48.48,0,0,1,.47.22.56.56,0,0,1,.05.41v.09l-1,0v0c0,.23.12.37.38.36a.88.88,0,0,0,.46-.16l.05,0,0,.29h0A1.13,1.13,0,0,1,729.79-392.91Z"/><g class="cls-16"><rect class="cls-2" x="-3822.84" y="-2892.4" width="6348.4" height="5052.27"/></g><path class="cls-5" d="M731.38-393l.14-1.05h-.22l0-.24h.22v0a.79.79,0,0,1,.26-.57.77.77,0,0,1,.43-.17h.17l0,.24h-.14a.29.29,0,0,0-.23.1.59.59,0,0,0-.12.37v0h.35l0,.24-.35,0L731.7-393Z"/><g class="cls-17"><rect class="cls-2" x="-3822.84" y="-2892.4" width="6348.4" height="5052.27"/></g><path class="cls-5" d="M733-393.65c-.37,0-.45.12-.46.24s0,.15.17.15l.24,0Zm-.35.62c-.32,0-.46-.11-.42-.35s.27-.45.8-.51h0v0c0-.11,0-.16,0-.19s-.06,0-.14,0a1,1,0,0,0-.46.17l-.05,0,0-.3h0a1.21,1.21,0,0,1,.54-.17c.2,0,.32.05.37.17a.75.75,0,0,1,0,.31l-.11.83h-.07A3,3,0,0,1,732.69-393Z"/><g class="cls-18"><rect class="cls-2" x="-3822.84" y="-2892.4" width="6348.4" height="5052.27"/></g><path class="cls-5" d="M733.66-393.08l.16-1.25h0a1.63,1.63,0,0,1,.57-.13.93.93,0,0,1,.24,0h0l0,.27h0a.37.37,0,0,0-.21,0,.85.85,0,0,0-.26.05l-.14,1Z"/><g class="cls-19"><rect class="cls-2" x="-3822.84" y="-2892.4" width="6348.4" height="5052.27"/></g><path class="cls-5" d="M736.4-393.19l.11-.83c0-.19,0-.26-.22-.26a1.23,1.23,0,0,0-.25,0,.47.47,0,0,1,0,.2l-.11.86h-.32l.11-.83c0-.2,0-.26-.24-.25a.82.82,0,0,0-.26,0l-.14,1.06h-.32l.16-1.25h0a2.39,2.39,0,0,1,.6-.11.62.62,0,0,1,.37.07,1.26,1.26,0,0,1,.45-.1.48.48,0,0,1,.41.13.38.38,0,0,1,.07.34l-.12.86Z"/><g class="cls-20"><rect class="cls-2" x="-3822.84" y="-2892.4" width="6348.4" height="5052.27"/></g><path class="cls-5" d="M721.35-392.62l.11-.83c0-.19,0-.26-.22-.25a.74.74,0,0,0-.24.05,1.72,1.72,0,0,1,0,.2l-.11.85h-.33l.11-.83c0-.19,0-.26-.24-.25a.73.73,0,0,0-.25,0l-.14,1.06-.33,0,.17-1.26h0a2.92,2.92,0,0,1,.61-.11.77.77,0,0,1,.36.07,1.52,1.52,0,0,1,.46-.1.5.5,0,0,1,.41.13.36.36,0,0,1,.06.34l-.11.86Z"/><g class="cls-21"><rect class="cls-2" x="-3822.84" y="-2892.4" width="6348.4" height="5052.27"/></g><path class="cls-5" d="M737.6-394.72l.57-.58h.3l-.64.6Zm.26.88c-.36,0-.45.13-.46.25s0,.15.17.14l.24,0Zm-.35.63q-.46,0-.42-.36c0-.3.27-.44.8-.51h0a.42.42,0,0,0,0-.19s-.07-.06-.15-.05a.82.82,0,0,0-.46.17l0,0,0-.29h0a1.36,1.36,0,0,1,.55-.16c.19,0,.31,0,.36.16a.55.55,0,0,1,0,.32l-.11.83H738A4.48,4.48,0,0,1,737.51-393.21Z"/><g class="cls-22"><rect class="cls-2" x="-3822.84" y="-2892.4" width="6348.4" height="5052.27"/></g><path class="cls-5" d="M739.1-393.27c-.44,0-.69-.23-.63-.64a.83.83,0,0,1,.83-.73.7.7,0,0,1,.35.06h0l0,.29,0,0a.47.47,0,0,0-.29-.08.48.48,0,0,0-.49.45c0,.28.1.43.37.42a.7.7,0,0,0,.34-.12l0,0,0,.29h0a.86.86,0,0,1-.41.1"/><g class="cls-23"><rect class="cls-2" x="-3822.84" y="-2892.4" width="6348.4" height="5052.27"/></g><path class="cls-5" d="M740-394.85l0-.34h.34l-.05.34Zm-.19,1.53.18-1.33h.32l-.17,1.33Z"/><g class="cls-24"><rect class="cls-2" x="-3822.84" y="-2892.4" width="6348.4" height="5052.27"/></g><path class="cls-5" d="M741.25-394c-.37.05-.45.13-.46.25s0,.15.17.14l.24,0Zm-.35.63c-.32,0-.46-.11-.43-.36s.28-.44.81-.51h0c0-.12,0-.16,0-.19s-.06-.06-.14,0a.8.8,0,0,0-.46.17l-.06,0,0-.3h0a1.32,1.32,0,0,1,.54-.16c.2,0,.32.05.37.16a.81.81,0,0,1,0,.32l-.11.83h-.08A4.11,4.11,0,0,1,740.9-393.34Z"/><g class="cls-25"><rect class="cls-2" x="-3822.84" y="-2892.4" width="6348.4" height="5052.27"/></g><path class="cls-5" d="M709.68-398.25l-.55,3.11a4.35,4.35,0,0,0,2.8-3.19Z"/><g class="cls-26"><rect class="cls-2" x="-3822.84" y="-2892.4" width="6348.4" height="5052.27"/></g><path class="cls-5" d="M710.06-400.25l1.67-.07a4.08,4.08,0,0,0-1.35-1.74Z"/><g class="cls-27"><rect class="cls-2" x="-3822.84" y="-2892.4" width="6348.4" height="5052.27"/></g><path class="cls-5" d="M707.3-396.47c.13-.51.3-1.36,1.88-1.7.13,0,.12-.06,0-.06l-5.1.2c0-.27.19-1.1.25-1.42.1-.5.36-.6.83-.62l2.78-.1.51-2.77a5.21,5.21,0,0,0-1.49-.15c-2.68.1-4.78,2-4.69,4.35s2.14,3.93,4.67,4Z"/><g class="cls-28"><rect class="cls-2" x="-3822.84" y="-2892.4" width="6348.4" height="5052.27"/></g><polygon class="cls-5" points="723.3 -312.99 692.76 -315.39 693.06 -319.14 719.53 -317.06 719.44 -364.2 723.21 -364.2 723.3 -312.99"/><g class="cls-29"><rect class="cls-2" x="-3822.84" y="-2892.4" width="6348.4" height="5052.27"/></g><rect class="cls-2" x="733.45" y="-327.93" width="3.76" height="27.92" transform="translate(992.94 442.96) rotate(-85.67)"/><g class="cls-30"><rect class="cls-2" x="-3822.84" y="-2892.4" width="6348.4" height="5052.27"/></g><path class="cls-5" d="M727-329.66a1.86,1.86,0,0,1-1.62-.92,1.87,1.87,0,0,1,.66-2.57l1-.62v-1.89l-1.52-1.27a1.88,1.88,0,0,1-.24-2.65,1.88,1.88,0,0,1,2.65-.24l2.19,1.83a1.89,1.89,0,0,1,.68,1.45v3.84a1.88,1.88,0,0,1-.92,1.62l-2,1.16a1.85,1.85,0,0,1-1,.26"/><g class="cls-31"><rect class="cls-2" x="-3822.84" y="-2892.4" width="6348.4" height="5052.27"/></g><path class="cls-5" d="M715.23-330.19a1.92,1.92,0,0,1-1-.27l-1.95-1.16a1.88,1.88,0,0,1-.92-1.61v-3.85a1.89,1.89,0,0,1,.68-1.45l2.19-1.83a1.89,1.89,0,0,1,2.65.24,1.88,1.88,0,0,1-.24,2.65l-1.52,1.27v1.9l1,.61a1.88,1.88,0,0,1,.65,2.58,1.87,1.87,0,0,1-1.62.92"/><g class="cls-32"><rect class="cls-2" x="-3822.84" y="-2892.4" width="6348.4" height="5052.27"/></g><path class="cls-2" d="M406.3,60.48H322.78l35.55-33.82a3.3,3.3,0,0,0,0-4.94,3.7,3.7,0,0,0-5.18,0l-42,39.81a3.3,3.3,0,0,0,0,4.94L353,106.28a3.71,3.71,0,0,0,5.19,0,3.3,3.3,0,0,0,0-4.94L322.78,67.52H406.3a3.52,3.52,0,1,0,0-7Z"/><g class="cls-33"><rect class="cls-2" x="-390" y="-2672.67" width="9600" height="25640"/></g><path class="cls-2" d="M165.7,60.48h83.52L213.67,26.66a3.3,3.3,0,0,1,0-4.94,3.7,3.7,0,0,1,5.18,0l42,39.81a3.3,3.3,0,0,1,0,4.94L219,106.28a3.71,3.71,0,0,1-5.19,0,3.3,3.3,0,0,1,0-4.94l35.37-33.82H165.7a3.52,3.52,0,1,1,0-7Z"/><g class="cls-34"><rect class="cls-2" x="-8638" y="-2672.67" width="9600" height="25640"/></g></svg>