<svg id="Layer_1" data-name="Layer 1" xmlns="http://www.w3.org/2000/svg" xmlns:xlink="http://www.w3.org/1999/xlink" viewBox="0 0 128 128"><defs><style>.cls-1{fill:#8a9297;}.cls-2{clip-path:url(#clip-path);}.cls-3{clip-path:url(#clip-path-2);}</style><clipPath id="clip-path"><path class="cls-1" d="M702.3-687.61H618.78l35.55-33.83a3.29,3.29,0,0,0,0-4.93,3.7,3.7,0,0,0-5.18,0l-42,39.81a3.29,3.29,0,0,0,0,4.93L649-641.82a3.71,3.71,0,0,0,5.19,0,3.29,3.29,0,0,0,0-4.93l-35.37-33.82H702.3a3.62,3.62,0,0,0,3.7-3.52A3.62,3.62,0,0,0,702.3-687.61Z"/></clipPath><clipPath id="clip-path-2"><path class="cls-1" d="M461.7-687.61h83.52l-35.55-33.83a3.29,3.29,0,0,1,0-4.93,3.7,3.7,0,0,1,5.18,0l42,39.81a3.29,3.29,0,0,1,0,4.93L515-641.82a3.71,3.71,0,0,1-5.19,0,3.29,3.29,0,0,1,0-4.93l35.37-33.82H461.7a3.62,3.62,0,0,1-3.7-3.52A3.62,3.62,0,0,1,461.7-687.61Z"/></clipPath></defs><title>icon</title><path class="cls-1" d="M702.3-687.61H618.78l35.55-33.83a3.29,3.29,0,0,0,0-4.93,3.7,3.7,0,0,0-5.18,0l-42,39.81a3.29,3.29,0,0,0,0,4.93L649-641.82a3.71,3.71,0,0,0,5.19,0,3.29,3.29,0,0,0,0-4.93l-35.37-33.82H702.3a3.62,3.62,0,0,0,3.7-3.52A3.62,3.62,0,0,0,702.3-687.61Z"/><g class="cls-2"><rect class="cls-1" x="-94" y="-3420.76" width="9600" height="25640"/></g><path class="cls-1" d="M461.7-687.61h83.52l-35.55-33.83a3.29,3.29,0,0,1,0-4.93,3.7,3.7,0,0,1,5.18,0l42,39.81a3.29,3.29,0,0,1,0,4.93L515-641.82a3.71,3.71,0,0,1-5.19,0,3.29,3.29,0,0,1,0-4.93l35.37-33.82H461.7a3.62,3.62,0,0,1-3.7-3.52A3.62,3.62,0,0,1,461.7-687.61Z"/><g class="cls-3"><rect class="cls-1" x="-8342" y="-3420.76" width="9600" height="25640"/></g><path class="cls-1" d="M79.6,15.71a7.64,7.64,0,0,0-10.71,0,7.64,7.64,0,0,0,0,10.72l3,3L56.59,44.7a45,45,0,0,0-10.72-1.34A41.51,41.51,0,0,0,16,55.78a42.42,42.42,0,0,0,0,59.8A42.19,42.19,0,0,0,86.67,75L101.89,59.8l3,3a7.62,7.62,0,0,0,10.71,0,7.62,7.62,0,0,0,0-10.71Zm33.74,44.58a4.2,4.2,0,0,1-5.85,0l-4.14-4.15a1.86,1.86,0,0,0-2.43,0L83.74,73.2a1.81,1.81,0,0,0-.48,1.7,39,39,0,0,1-37.39,49.69,38.4,38.4,0,0,1-27.53-11.45,39.11,39.11,0,0,1,0-55A38.61,38.61,0,0,1,45.87,46.77a39.76,39.76,0,0,1,10.72,1.46,1.8,1.8,0,0,0,1.7-.49L75.46,30.57a1.76,1.76,0,0,0,0-2.44L71.32,24a4.1,4.1,0,0,1,0-5.84,4.18,4.18,0,0,1,5.85,0l36.17,36.17A4.13,4.13,0,0,1,113.34,60.29Z"/><circle class="cls-1" cx="113.95" cy="31.79" r="10.35"/><circle class="cls-1" cx="95.8" cy="18.15" r="6.82"/><circle class="cls-1" cx="106.76" cy="4.26" r="4.26"/><path class="cls-1" d="M45.87,83.3c-20,0-36.29-17.66-36.29,2.44a36.29,36.29,0,0,0,72.58,0C82.16,65.64,66,83.3,45.87,83.3ZM28,91.22A4.27,4.27,0,1,1,32.23,87,4.4,4.4,0,0,1,28,91.22ZM38.44,96a2.68,2.68,0,1,1,2.68-2.68A2.56,2.56,0,0,1,38.44,96Zm11.2-4.75a2.68,2.68,0,1,1,2.68-2.68A2.55,2.55,0,0,1,49.64,91.22Zm14.13,1.46A4.26,4.26,0,1,1,68,88.42,4.32,4.32,0,0,1,63.77,92.68Z"/></svg>