<svg id="Layer_1" data-name="Layer 1" xmlns="http://www.w3.org/2000/svg" xmlns:xlink="http://www.w3.org/1999/xlink" viewBox="0 0 127.75 127.75"><defs><style>.cls-1,.cls-2,.cls-3{fill:#8a9297;}.cls-1{clip-rule:evenodd;}.cls-3{fill-rule:evenodd;}.cls-4{clip-path:url(#clip-path);}.cls-5{clip-path:url(#clip-path-2);}.cls-6{clip-path:url(#clip-path-3);}.cls-7{clip-path:url(#clip-path-4);}.cls-8{clip-path:url(#clip-path-5);}.cls-9{clip-path:url(#clip-path-6);}.cls-10{clip-path:url(#clip-path-7);}.cls-11{clip-path:url(#clip-path-8);}.cls-12{clip-path:url(#clip-path-9);}.cls-13{clip-path:url(#clip-path-10);}.cls-14{clip-path:url(#clip-path-11);}.cls-15{clip-path:url(#clip-path-12);}.cls-16{clip-path:url(#clip-path-13);}.cls-17{clip-path:url(#clip-path-14);}.cls-18{clip-path:url(#clip-path-15);}.cls-19{clip-path:url(#clip-path-16);}.cls-20{clip-path:url(#clip-path-17);}.cls-21{clip-path:url(#clip-path-18);}.cls-22{clip-path:url(#clip-path-19);}.cls-23{clip-path:url(#clip-path-20);}.cls-24{clip-path:url(#clip-path-21);}.cls-25{clip-path:url(#clip-path-22);}.cls-26{clip-path:url(#clip-path-23);}.cls-27{clip-path:url(#clip-path-24);}.cls-28{clip-path:url(#clip-path-25);}.cls-29{clip-path:url(#clip-path-26);}.cls-30{clip-path:url(#clip-path-27);}.cls-31{clip-path:url(#clip-path-28);}.cls-32{clip-path:url(#clip-path-29);}</style><clipPath id="clip-path"><path class="cls-1" d="M-198.27,115h-.16l-11-.92a1.88,1.88,0,0,1-1.72-1.87V67.91A6.43,6.43,0,0,0-212.85,63a6.64,6.64,0,0,0-4.5-1.45,1,1,0,0,1-.17,0L-265.07,61v46.91a1.85,1.85,0,0,1-.61,1.38,1.9,1.9,0,0,1-1.42.5l-9.25-.74a1.87,1.87,0,0,1-1.73-1.89c0-.29.27-29.76.21-36.75a14.87,14.87,0,0,1,3.35-9.34h-5.9a3.56,3.56,0,0,1-3.26-2.65,2.1,2.1,0,0,1-.08-.56V51.79c0-3,1.89-4.31,3-4.57a1.33,1.33,0,0,1,.4,0l67.22-.92a1.14,1.14,0,0,1,.26,0c15.86,2,16.66,15.92,16.66,16.06v.09l-.18,50.74a1.88,1.88,0,0,1-.61,1.38A1.87,1.87,0,0,1-198.27,115Zm-9.11-4.52,7.24.6.17-48.64c-.05-.78-.94-10.83-13.24-12.45l-66.61.9a1.66,1.66,0,0,0-.18.87v5.54h10.12a1.86,1.86,0,0,1,1.42.66l.18-.21a1.86,1.86,0,0,1,1.35-.54l49.38.55a10.4,10.4,0,0,1,7.22,2.41c2,1.8,3,4.39,3,7.71Zm-66.93-5.05,5.48.44V60.77h0c-.05,0-5.32,3.68-5.27,9.62S-274.25,99-274.31,105.46Z"/></clipPath><clipPath id="clip-path-2"><path class="cls-1" d="M-193.15,111.56h-3.77V62c-.09-1-1.31-11.31-12-12.12l.28-3.76c11.42.87,15.13,10.63,15.5,15.66v49.83Z"/></clipPath><clipPath id="clip-path-3"><path class="cls-1" d="M-272.75,44a1.87,1.87,0,0,1-1.88-1.87l-.13-19.84a1.89,1.89,0,0,1,1.83-1.89l9.64-.31h.09l3.42.06a1.89,1.89,0,0,1,1.85,1.92,1.87,1.87,0,0,1-1.91,1.84l-3.38-.06-7.76.25.11,18A1.88,1.88,0,0,1-272.74,44Z"/></clipPath><clipPath id="clip-path-4"><path class="cls-1" d="M-257.12,37h-.46a5.05,5.05,0,0,1-4.15-1.76,4.52,4.52,0,0,1-.8-3.49l.84-9.69c-.08-2.53.61-4.43,2.06-5.65a6,6,0,0,1,4.7-1.19l41.85-2,.23,0c2.51.51,4.25,1.53,5.19,3a4.41,4.41,0,0,1,.63,3.1c-.11,1.41-.77,9.73-1.44,12.36A5.78,5.78,0,0,1-213.24,36h-.19c-1.59,0-37.91.92-43.69.92m1.2-18.09a2,2,0,0,0-1.31.4,3.61,3.61,0,0,0-.7,2.73v.12l-.91,10.28a.88.88,0,0,0,.09.5c.1.13.49.28,1.23.3,3.65.06,41.35-.86,43.87-.92a2,2,0,0,0,1.53-1.52c.52-2,1.15-9.22,1.35-11.82l0-.32c0-.54-.81-1.26-2.65-1.68l-41.83,2-.22-.05a2.47,2.47,0,0,0-.49,0"/></clipPath><clipPath id="clip-path-5"><path class="cls-1" d="M-220.44,22.05a1.13,1.13,0,0,0-.93-.27,1.66,1.66,0,0,0-1,.4,2.16,2.16,0,0,0-.61,1.23l0,.18,2-.06c.5,0,.79-.17.85-.61a1,1,0,0,0-.2-.87m1.83,1a1.43,1.43,0,0,1-.61,1.08,2.62,2.62,0,0,1-1.42.4,9,9,0,0,1-1.86,0c-.38-.07-.51-.65-.56-.81a4.08,4.08,0,0,0-.07,1.09,1.14,1.14,0,0,0,.49,1,2.25,2.25,0,0,0,1.22.24c.33,0,.66,0,1-.08a8,8,0,0,0,.81-.11h0c.06,0,.14,0,.13.12l-.11.82c0,.06,0,.1-.11.13a6.84,6.84,0,0,1-1.06.25,8.34,8.34,0,0,1-1.07.12,4.7,4.7,0,0,1-1.54-.16,2,2,0,0,1-.95-.59,2,2,0,0,1-.45-1,4.14,4.14,0,0,1,0-1.37l.05-.41a3.85,3.85,0,0,1,1-2.32,3.6,3.6,0,0,1,2.51-.93,2.56,2.56,0,0,1,2.07.64,2.27,2.27,0,0,1,.47,1.92M-241,21.36l-4.46.16c-.29,0-.39.21-.43.49s-.08.59-.1.83.08.31.29.3h.39l1.4-.05c.11,0,0,0,0,.05A2.35,2.35,0,0,0-245.23,25c0,.21-.34,2.67-.34,2.67a.81.81,0,0,0,0,.15c0,.24.13.29.22.28l.9,0h.08c.35,0,.44-.11.49-.46.06-.51.54-4.28.57-4.57l1,0c.48,0,1.06-.07,1.33.26s.23.71.16,1.26l-.37,3a.89.89,0,0,0,0,.15c0,.24.14.29.23.28l.89,0h.09c.34,0,.44-.11.48-.46,0-.13.48-3.76.52-4A1.87,1.87,0,0,0-241,21.36m25-.34c0-.24,0-.66-.47-.64l-.82,0a.42.42,0,0,0-.39.36l-.73,5.88c0,.32.06.44.21.44L-217,27a.33.33,0,0,0,.32-.28l.09-.71.44-3.5a.31.31,0,0,0-.35-.37l-.95,0h-.08c.5-.09,1.48-.53,1.56-1.19M-236.62,23l-1,0h-.1s0,0,0,0c.51-.09,1.48-.53,1.57-1.19,0-.24,0-.66-.48-.64l-.81,0a.43.43,0,0,0-.4.35l-.73,5.89c-.05.32.06.44.22.43l1.17,0a.34.34,0,0,0,.31-.29l.1-.7s.23-1.92.43-3.51a.3.3,0,0,0-.34-.36m11.3-2.06a4.12,4.12,0,0,0-.9-.17,6.44,6.44,0,0,0-1.08,0,4.45,4.45,0,0,0-1,.14,2.8,2.8,0,0,0-.8.37,2,2,0,0,0-.56.6,2.08,2.08,0,0,0-.28.86,1.37,1.37,0,0,0,.25,1.11,2.32,2.32,0,0,0,1,.69l1,.38a1.74,1.74,0,0,1,.46.27.44.44,0,0,1,.14.43.63.63,0,0,1-.3.49,1.62,1.62,0,0,1-.76.16c-.32,0-.67,0-1.05,0s-.73,0-1-.06h0a.09.09,0,0,0-.11.09c0,.06,0,0,0,0l-.12.93a.14.14,0,0,0,.13.18,9.43,9.43,0,0,0,1.12.16,9.79,9.79,0,0,0,1.23,0,3.38,3.38,0,0,0,1.85-.57,2,2,0,0,0,.82-1.44,1.5,1.5,0,0,0-.24-1.13,2.18,2.18,0,0,0-1-.73l-1-.4a2.62,2.62,0,0,1-.45-.23.4.4,0,0,1-.15-.41.57.57,0,0,1,.31-.47,1.69,1.69,0,0,1,.69-.13h.88c.29,0,.58,0,.86.06h.07a.12.12,0,0,0,.1-.09c0-.05,0,0,0,0l.12-.93a.18.18,0,0,0-.15-.18m-5.37,1.35a.11.11,0,0,1-.1.09h-.06c-.28,0-.58-.06-.87-.07s-.59,0-.88,0a2.11,2.11,0,0,0-.69.13.56.56,0,0,0-.3.48.38.38,0,0,0,.14.41,3.06,3.06,0,0,0,.45.23l1,.4a2.16,2.16,0,0,1,1,.72,1.53,1.53,0,0,1,.24,1.14,2,2,0,0,1-.82,1.43,3.3,3.3,0,0,1-1.85.57,8.25,8.25,0,0,1-1.23,0,9.72,9.72,0,0,1-1.12-.17c-.1,0-.14-.07-.12-.17l.11-.93s0,0,0,0a.09.09,0,0,1,.11-.1h0c.31,0,.66,0,1,.06h1.05a1.61,1.61,0,0,0,.76-.17.65.65,0,0,0,.31-.49.46.46,0,0,0-.15-.43,1.84,1.84,0,0,0-.45-.26l-1-.38a2.4,2.4,0,0,1-1-.69,1.38,1.38,0,0,1-.25-1.11A2.08,2.08,0,0,1-235,22a2,2,0,0,1,.56-.6,2.56,2.56,0,0,1,.8-.37,3.94,3.94,0,0,1,1-.15,9.49,9.49,0,0,1,1.07,0,4.76,4.76,0,0,1,.9.18c.07,0,.16.06.15.18l-.12.93s0,0,0,0"/></clipPath><clipPath id="clip-path-6"><path class="cls-1" d="M-235.83,30.24c-.36,0-.44.12-.46.24s0,.15.17.15a1.67,1.67,0,0,0,.24,0Zm-.35.62c-.31,0-.45-.1-.42-.35s.27-.45.8-.51h0v0a.55.55,0,0,0,0-.19s-.07-.05-.15-.05a1,1,0,0,0-.46.17l0,0,0-.29h0a1.11,1.11,0,0,1,.55-.16c.19,0,.31,0,.36.16a.51.51,0,0,1,0,.31l-.1.83h-.08A3,3,0,0,1-236.18,30.86Z"/></clipPath><clipPath id="clip-path-7"><path class="cls-1" d="M-235,29.27l0-.33.35,0-.05.34Zm-.19,1.54.18-1.34h.32l-.17,1.33Z"/></clipPath><clipPath id="clip-path-8"><path class="cls-1" d="M-234.17,30.8a.76.76,0,0,1-.36-.06h0l.05-.32,0,0a.49.49,0,0,0,.32.1c.13,0,.23-.06.24-.14a.16.16,0,0,0-.07-.13l-.17-.08c-.24-.1-.31-.2-.29-.37a.54.54,0,0,1,.57-.42.68.68,0,0,1,.35.06h0l0,.29,0,0a.49.49,0,0,0-.29-.08c-.13,0-.22.06-.23.14s0,.09.2.17a.6.6,0,0,1,.25.15.32.32,0,0,1,.08.26.57.57,0,0,1-.6.42"/></clipPath><clipPath id="clip-path-9"><path class="cls-1" d="M-231.82,29.59a.51.51,0,0,0-.55.45c0,.28.09.42.38.41a.58.58,0,0,0,.19,0l.11-.83A.29.29,0,0,0-231.82,29.59Zm-.1,1.74.09-.66-.25,0c-.44,0-.67-.22-.62-.63a.88.88,0,0,1,.95-.75,1.8,1.8,0,0,1,.39,0h0l-.26,2Z"/></clipPath><clipPath id="clip-path-10"><path class="cls-1" d="M-230.52,30.64a.57.57,0,0,1-.44-.1c-.09-.08-.12-.18-.09-.39l.11-.83h.33l-.11.81c0,.21,0,.28.26.27l.23,0,.15-1.07.32,0-.17,1.29h0a3.5,3.5,0,0,1-.57.07"/></clipPath><clipPath id="clip-path-11"><path class="cls-1" d="M-228.53,29.7a.21.21,0,0,0-.25-.23.4.4,0,0,0-.37.25Zm-.38.89c-.44,0-.67-.22-.62-.63a.83.83,0,0,1,.78-.75.52.52,0,0,1,.48.22.57.57,0,0,1,0,.41v.09l-1,0v0c0,.23.11.36.38.35a.77.77,0,0,0,.45-.16l.06,0,0,.29h0A.93.93,0,0,1-228.91,30.59Z"/></clipPath><clipPath id="clip-path-12"><path class="cls-1" d="M-227.32,30.51l.14-1.06h-.22l0-.24h.22v0a.84.84,0,0,1,.27-.58.67.67,0,0,1,.43-.16h.16l0,.25h-.14a.29.29,0,0,0-.24.11.67.67,0,0,0-.12.36v0l.34,0,0,.25h-.35l-.14,1Z"/></clipPath><clipPath id="clip-path-13"><path class="cls-1" d="M-225.66,29.85c-.36,0-.45.12-.46.24s0,.16.17.15a.9.9,0,0,0,.24,0Zm-.35.63c-.31,0-.46-.11-.42-.36s.27-.45.8-.51h0v0a.38.38,0,0,0,0-.18s-.07-.06-.15-.06a.93.93,0,0,0-.46.18l-.05,0,0-.29h0a1.22,1.22,0,0,1,.54-.16c.2,0,.32,0,.37.16a.62.62,0,0,1,0,.31l-.11.83-.07,0Z"/></clipPath><clipPath id="clip-path-14"><path class="cls-1" d="M-225,30.42l.16-1.24h0a1.66,1.66,0,0,1,.57-.12.63.63,0,0,1,.24,0h0l0,.27,0,0-.21,0a.7.7,0,0,0-.27.06l-.14,1.05Z"/></clipPath><clipPath id="clip-path-15"><path class="cls-1" d="M-222.3,30.31l.11-.83c0-.19,0-.26-.22-.25a.85.85,0,0,0-.25.05.65.65,0,0,1,0,.2l-.12.85-.32,0,.11-.84c0-.19,0-.26-.24-.25a.73.73,0,0,0-.25,0l-.15,1.07h-.32l.16-1.26h0a2.92,2.92,0,0,1,.61-.11.68.68,0,0,1,.36.08,1.29,1.29,0,0,1,.45-.11.52.52,0,0,1,.42.13c.07.07.08.17.06.34l-.11.86Z"/></clipPath><clipPath id="clip-path-16"><path class="cls-1" d="M-237.34,30.89l.11-.84c0-.19,0-.26-.23-.25a.74.74,0,0,0-.24.05.74.74,0,0,1,0,.2l-.11.86h-.33l.11-.84c0-.19,0-.26-.24-.25l-.25.05-.14,1.06H-239l.17-1.26h0a2.08,2.08,0,0,1,.61-.11.58.58,0,0,1,.36.07,1.09,1.09,0,0,1,.46-.1.48.48,0,0,1,.41.12.38.38,0,0,1,.06.35l-.11.86Z"/></clipPath><clipPath id="clip-path-17"><path class="cls-1" d="M-221.1,28.79l.57-.59.3,0-.64.6Zm.26.88c-.36,0-.44.12-.46.24s0,.15.17.15l.25,0Zm-.35.62c-.31,0-.45-.11-.42-.35s.27-.45.8-.51h0v0a.55.55,0,0,0,0-.19s-.07,0-.15,0a.9.9,0,0,0-.46.17l-.05,0,0-.3h0a1.17,1.17,0,0,1,.54-.17c.19,0,.32.05.36.17a.57.57,0,0,1,0,.31l-.11.83h-.08A2.86,2.86,0,0,1-221.19,30.29Z"/></clipPath><clipPath id="clip-path-18"><path class="cls-1" d="M-219.6,30.24c-.44,0-.68-.24-.63-.64a.84.84,0,0,1,.83-.74.81.81,0,0,1,.35.06h0l0,.29-.05,0a.47.47,0,0,0-.29-.08.48.48,0,0,0-.49.46.32.32,0,0,0,.37.41.54.54,0,0,0,.34-.12l.06,0,0,.29h0a1,1,0,0,1-.41.11"/></clipPath><clipPath id="clip-path-19"><path class="cls-1" d="M-218.73,28.65l0-.33.34,0,0,.34Zm-.19,1.54.18-1.34h.32l-.17,1.33Z"/></clipPath><clipPath id="clip-path-20"><path class="cls-1" d="M-217.45,29.54c-.36,0-.45.12-.46.24s0,.15.17.15l.24,0Zm-.35.62c-.31,0-.46-.1-.42-.35s.27-.45.8-.51h0v0a.43.43,0,0,0,0-.19s-.07-.05-.15-.05a1,1,0,0,0-.46.17l0,0,0-.29h0a1.25,1.25,0,0,1,.54-.17c.2,0,.32,0,.37.17a.61.61,0,0,1,0,.31l-.11.83h-.07A3,3,0,0,1-217.8,30.16Z"/></clipPath><clipPath id="clip-path-21"><path class="cls-1" d="M-249,25.26l-.55,3.1a4.39,4.39,0,0,0,2.81-3.19Z"/></clipPath><clipPath id="clip-path-22"><path class="cls-1" d="M-248.64,23.25l1.67-.06a4.17,4.17,0,0,0-1.35-1.75Z"/></clipPath><clipPath id="clip-path-23"><path class="cls-1" d="M-251.4,27c.13-.51.3-1.37,1.88-1.71.13,0,.12-.06,0,0l-5.1.19c.05-.27.19-1.1.25-1.41.1-.51.36-.61.83-.62l2.79-.11.5-2.77a5.59,5.59,0,0,0-1.49-.15c-2.68.11-4.78,2.05-4.69,4.36s2.15,3.93,4.67,4Z"/></clipPath><clipPath id="clip-path-24"><polygon class="cls-1" points="-235.4 110.52 -265.93 108.12 -265.64 104.36 -239.17 106.45 -239.25 59.31 -235.49 59.3 -235.4 110.52"/></clipPath><clipPath id="clip-path-25"><rect class="cls-2" x="-225.24" y="95.58" width="3.76" height="27.92" transform="translate(-315.74 -121.45) rotate(-85.67)"/></clipPath><clipPath id="clip-path-26"><path class="cls-1" d="M-231.73,93.85a1.89,1.89,0,0,1-1.62-.92,1.89,1.89,0,0,1,.66-2.58l1-.61v-1.9l-1.52-1.27a1.88,1.88,0,0,1-.24-2.65,1.89,1.89,0,0,1,2.65-.24l2.2,1.84A1.85,1.85,0,0,1-227.9,87v3.85a1.86,1.86,0,0,1-.92,1.61l-2,1.16a1.86,1.86,0,0,1-1,.27"/></clipPath><clipPath id="clip-path-27"><path class="cls-1" d="M-243.47,93.31a1.84,1.84,0,0,1-.95-.26l-2-1.16a1.89,1.89,0,0,1-.92-1.62V86.42a1.86,1.86,0,0,1,.68-1.44l2.2-1.83a1.88,1.88,0,0,1,2.65.24A1.89,1.89,0,0,1-242,86l-1.53,1.26v1.9l1,.61a1.88,1.88,0,0,1,.65,2.58,1.87,1.87,0,0,1-1.62.92"/></clipPath><clipPath id="clip-path-28"><path class="cls-2" d="M-552.4,484h-83.52l35.56-33.82a3.29,3.29,0,0,0,0-4.93,3.71,3.71,0,0,0-5.19,0l-42,39.81a3.29,3.29,0,0,0,0,4.93l41.85,39.81a3.71,3.71,0,0,0,5.19,0,3.29,3.29,0,0,0,0-4.93L-635.92,491h83.52a3.63,3.63,0,0,0,3.7-3.53A3.62,3.62,0,0,0-552.4,484Z"/></clipPath><clipPath id="clip-path-29"><path class="cls-2" d="M-793,484h83.51L-745,450.16a3.29,3.29,0,0,1,0-4.93,3.7,3.7,0,0,1,5.18,0l42,39.81a3.29,3.29,0,0,1,0,4.93l-41.85,39.81a3.71,3.71,0,0,1-5.19,0,3.29,3.29,0,0,1,0-4.93L-709.48,491H-793a3.64,3.64,0,0,1-3.71-3.53A3.63,3.63,0,0,1-793,484Z"/></clipPath></defs><title>icons</title><path class="cls-2" d="M56.42,93.48H18.79c-2.39,0-3.12-.72-3.12-3.08V47.76h74.9v2.4a1.5,1.5,0,0,0,1.5,1.5h4.6a1.51,1.51,0,0,0,1.5-1.5v-.52c0-2.41,0-12.66,0-20.7,0-6.06-4.25-10.3-10.33-10.32H75.27v-.13c0-1.2,0-2.34,0-3.49a3.79,3.79,0,0,0-3.71-4h-.12a3.78,3.78,0,0,0-3.82,4c0,1.19,0,2.41,0,3.63h-29c0-.2,0-.4,0-.6,0-.93,0-1.86,0-2.78,0-2.56-1.53-4.22-3.81-4.22h-.1c-2.25.06-3.71,1.72-3.71,4.24v3.36H18.63c-6.41,0-10.55,4.15-10.56,10.55V90.73c0,6.2,4.17,10.37,10.36,10.37h38a1.5,1.5,0,0,0,1.5-1.5V95A1.5,1.5,0,0,0,56.42,93.48Zm-40.71-65a2.19,2.19,0,0,1,2.46-2.19H31v1.83c0,2.52,1.56,4.28,3.79,4.28h.08c2.2,0,3.71-1.74,3.75-4.22,0-.62,0-1.24,0-1.89h29c0,.68,0,1.36,0,2.06a3.83,3.83,0,1,0,7.65,0c0-.67,0-1.34,0-2h7.2c2,0,3.92,0,5.88,0a2.07,2.07,0,0,1,2.13,2.11c0,3.16,0,6.38,0,9.49,0,.69,0,1.37,0,2.05H15.7c0-.78,0-1.55,0-2.33C15.67,34.62,15.65,31.52,15.71,28.48Z"/><path class="cls-2" d="M93.68,61.1h-.06a27.54,27.54,0,0,0-27.4,27.39,27.43,27.43,0,1,0,54.85.05A27.45,27.45,0,0,0,93.68,61.1Zm0,47.14V109h0v-.75a19.71,19.71,0,0,1,0-39.42h0a19.71,19.71,0,0,1-.06,39.42Z"/><path class="cls-2" d="M105.11,89.18c-3,0-6,0-9.11,0V87.94c0-3.81,0-7.62,0-11.43A2.35,2.35,0,0,0,94.44,74c-1.66-.6-3.13.57-3.14,2.55,0,5.5,0,11,0,16.49,0,.23,0,.46.07.78,4.91,0,9.77,0,14.62,0a2,2,0,0,0,1.78-1.93C108,90.29,106.89,89.19,105.11,89.18Z"/><path class="cls-3" d="M-198.27,115h-.16l-11-.92a1.88,1.88,0,0,1-1.72-1.87V67.91A6.43,6.43,0,0,0-212.85,63a6.64,6.64,0,0,0-4.5-1.45,1,1,0,0,1-.17,0L-265.07,61v46.91a1.85,1.85,0,0,1-.61,1.38,1.9,1.9,0,0,1-1.42.5l-9.25-.74a1.87,1.87,0,0,1-1.73-1.89c0-.29.27-29.76.21-36.75a14.87,14.87,0,0,1,3.35-9.34h-5.9a3.56,3.56,0,0,1-3.26-2.65,2.1,2.1,0,0,1-.08-.56V51.79c0-3,1.89-4.31,3-4.57a1.33,1.33,0,0,1,.4,0l67.22-.92a1.14,1.14,0,0,1,.26,0c15.86,2,16.66,15.92,16.66,16.06v.09l-.18,50.74a1.88,1.88,0,0,1-.61,1.38A1.87,1.87,0,0,1-198.27,115Zm-9.11-4.52,7.24.6.17-48.64c-.05-.78-.94-10.83-13.24-12.45l-66.61.9a1.66,1.66,0,0,0-.18.87v5.54h10.12a1.86,1.86,0,0,1,1.42.66l.18-.21a1.86,1.86,0,0,1,1.35-.54l49.38.55a10.4,10.4,0,0,1,7.22,2.41c2,1.8,3,4.39,3,7.71Zm-66.93-5.05,5.48.44V60.77h0c-.05,0-5.32,3.68-5.27,9.62S-274.25,99-274.31,105.46Z"/><g class="cls-4"><rect class="cls-2" x="-4781.54" y="-2468.9" width="6348.4" height="5052.27"/></g><path class="cls-3" d="M-193.15,111.56h-3.77V62c-.09-1-1.31-11.31-12-12.12l.28-3.76c11.42.87,15.13,10.63,15.5,15.66v49.83Z"/><g class="cls-5"><rect class="cls-2" x="-4781.54" y="-2468.9" width="6348.4" height="5052.27"/></g><path class="cls-3" d="M-272.75,44a1.87,1.87,0,0,1-1.88-1.87l-.13-19.84a1.89,1.89,0,0,1,1.83-1.89l9.64-.31h.09l3.42.06a1.89,1.89,0,0,1,1.85,1.92,1.87,1.87,0,0,1-1.91,1.84l-3.38-.06-7.76.25.11,18A1.88,1.88,0,0,1-272.74,44Z"/><g class="cls-6"><rect class="cls-2" x="-4781.54" y="-2468.9" width="6348.4" height="5052.27"/></g><path class="cls-3" d="M-257.12,37h-.46a5.05,5.05,0,0,1-4.15-1.76,4.52,4.52,0,0,1-.8-3.49l.84-9.69c-.08-2.53.61-4.43,2.06-5.65a6,6,0,0,1,4.7-1.19l41.85-2,.23,0c2.51.51,4.25,1.53,5.19,3a4.41,4.41,0,0,1,.63,3.1c-.11,1.41-.77,9.73-1.44,12.36A5.78,5.78,0,0,1-213.24,36h-.19c-1.59,0-37.91.92-43.69.92m1.2-18.09a2,2,0,0,0-1.31.4,3.61,3.61,0,0,0-.7,2.73v.12l-.91,10.28a.88.88,0,0,0,.09.5c.1.13.49.28,1.23.3,3.65.06,41.35-.86,43.87-.92a2,2,0,0,0,1.53-1.52c.52-2,1.15-9.22,1.35-11.82l0-.32c0-.54-.81-1.26-2.65-1.68l-41.83,2-.22-.05a2.47,2.47,0,0,0-.49,0"/><g class="cls-7"><rect class="cls-2" x="-4781.54" y="-2468.9" width="6348.4" height="5052.27"/></g><path class="cls-3" d="M-220.44,22.05a1.13,1.13,0,0,0-.93-.27,1.66,1.66,0,0,0-1,.4,2.16,2.16,0,0,0-.61,1.23l0,.18,2-.06c.5,0,.79-.17.85-.61a1,1,0,0,0-.2-.87m1.83,1a1.43,1.43,0,0,1-.61,1.08,2.62,2.62,0,0,1-1.42.4,9,9,0,0,1-1.86,0c-.38-.07-.51-.65-.56-.81a4.08,4.08,0,0,0-.07,1.09,1.14,1.14,0,0,0,.49,1,2.25,2.25,0,0,0,1.22.24c.33,0,.66,0,1-.08a8,8,0,0,0,.81-.11h0c.06,0,.14,0,.13.12l-.11.82c0,.06,0,.1-.11.13a6.84,6.84,0,0,1-1.06.25,8.34,8.34,0,0,1-1.07.12,4.7,4.7,0,0,1-1.54-.16,2,2,0,0,1-.95-.59,2,2,0,0,1-.45-1,4.14,4.14,0,0,1,0-1.37l.05-.41a3.85,3.85,0,0,1,1-2.32,3.6,3.6,0,0,1,2.51-.93,2.56,2.56,0,0,1,2.07.64,2.27,2.27,0,0,1,.47,1.92M-241,21.36l-4.46.16c-.29,0-.39.21-.43.49s-.08.59-.1.83.08.31.29.3h.39l1.4-.05c.11,0,0,0,0,.05A2.35,2.35,0,0,0-245.23,25c0,.21-.34,2.67-.34,2.67a.81.81,0,0,0,0,.15c0,.24.13.29.22.28l.9,0h.08c.35,0,.44-.11.49-.46.06-.51.54-4.28.57-4.57l1,0c.48,0,1.06-.07,1.33.26s.23.71.16,1.26l-.37,3a.89.89,0,0,0,0,.15c0,.24.14.29.23.28l.89,0h.09c.34,0,.44-.11.48-.46,0-.13.48-3.76.52-4A1.87,1.87,0,0,0-241,21.36m25-.34c0-.24,0-.66-.47-.64l-.82,0a.42.42,0,0,0-.39.36l-.73,5.88c0,.32.06.44.21.44L-217,27a.33.33,0,0,0,.32-.28l.09-.71.44-3.5a.31.31,0,0,0-.35-.37l-.95,0h-.08c.5-.09,1.48-.53,1.56-1.19M-236.62,23l-1,0h-.1s0,0,0,0c.51-.09,1.48-.53,1.57-1.19,0-.24,0-.66-.48-.64l-.81,0a.43.43,0,0,0-.4.35l-.73,5.89c-.05.32.06.44.22.43l1.17,0a.34.34,0,0,0,.31-.29l.1-.7s.23-1.92.43-3.51a.3.3,0,0,0-.34-.36m11.3-2.06a4.12,4.12,0,0,0-.9-.17,6.44,6.44,0,0,0-1.08,0,4.45,4.45,0,0,0-1,.14,2.8,2.8,0,0,0-.8.37,2,2,0,0,0-.56.6,2.08,2.08,0,0,0-.28.86,1.37,1.37,0,0,0,.25,1.11,2.32,2.32,0,0,0,1,.69l1,.38a1.74,1.74,0,0,1,.46.27.44.44,0,0,1,.14.43.63.63,0,0,1-.3.49,1.62,1.62,0,0,1-.76.16c-.32,0-.67,0-1.05,0s-.73,0-1-.06h0a.09.09,0,0,0-.11.09c0,.06,0,0,0,0l-.12.93a.14.14,0,0,0,.13.18,9.43,9.43,0,0,0,1.12.16,9.79,9.79,0,0,0,1.23,0,3.38,3.38,0,0,0,1.85-.57,2,2,0,0,0,.82-1.44,1.5,1.5,0,0,0-.24-1.13,2.18,2.18,0,0,0-1-.73l-1-.4a2.62,2.62,0,0,1-.45-.23.4.4,0,0,1-.15-.41.57.57,0,0,1,.31-.47,1.69,1.69,0,0,1,.69-.13h.88c.29,0,.58,0,.86.06h.07a.12.12,0,0,0,.1-.09c0-.05,0,0,0,0l.12-.93a.18.18,0,0,0-.15-.18m-5.37,1.35a.11.11,0,0,1-.1.09h-.06c-.28,0-.58-.06-.87-.07s-.59,0-.88,0a2.11,2.11,0,0,0-.69.13.56.56,0,0,0-.3.48.38.38,0,0,0,.14.41,3.06,3.06,0,0,0,.45.23l1,.4a2.16,2.16,0,0,1,1,.72,1.53,1.53,0,0,1,.24,1.14,2,2,0,0,1-.82,1.43,3.3,3.3,0,0,1-1.85.57,8.25,8.25,0,0,1-1.23,0,9.72,9.72,0,0,1-1.12-.17c-.1,0-.14-.07-.12-.17l.11-.93s0,0,0,0a.09.09,0,0,1,.11-.1h0c.31,0,.66,0,1,.06h1.05a1.61,1.61,0,0,0,.76-.17.65.65,0,0,0,.31-.49.46.46,0,0,0-.15-.43,1.84,1.84,0,0,0-.45-.26l-1-.38a2.4,2.4,0,0,1-1-.69,1.38,1.38,0,0,1-.25-1.11A2.08,2.08,0,0,1-235,22a2,2,0,0,1,.56-.6,2.56,2.56,0,0,1,.8-.37,3.94,3.94,0,0,1,1-.15,9.49,9.49,0,0,1,1.07,0,4.76,4.76,0,0,1,.9.18c.07,0,.16.06.15.18l-.12.93s0,0,0,0"/><g class="cls-8"><rect class="cls-2" x="-4781.54" y="-2468.9" width="6348.4" height="5052.27"/></g><path class="cls-3" d="M-235.83,30.24c-.36,0-.44.12-.46.24s0,.15.17.15a1.67,1.67,0,0,0,.24,0Zm-.35.62c-.31,0-.45-.1-.42-.35s.27-.45.8-.51h0v0a.55.55,0,0,0,0-.19s-.07-.05-.15-.05a1,1,0,0,0-.46.17l0,0,0-.29h0a1.11,1.11,0,0,1,.55-.16c.19,0,.31,0,.36.16a.51.51,0,0,1,0,.31l-.1.83h-.08A3,3,0,0,1-236.18,30.86Z"/><g class="cls-9"><rect class="cls-2" x="-4781.54" y="-2468.9" width="6348.4" height="5052.27"/></g><path class="cls-3" d="M-235,29.27l0-.33.35,0-.05.34Zm-.19,1.54.18-1.34h.32l-.17,1.33Z"/><g class="cls-10"><rect class="cls-2" x="-4781.54" y="-2468.9" width="6348.4" height="5052.27"/></g><path class="cls-3" d="M-234.17,30.8a.76.76,0,0,1-.36-.06h0l.05-.32,0,0a.49.49,0,0,0,.32.1c.13,0,.23-.06.24-.14a.16.16,0,0,0-.07-.13l-.17-.08c-.24-.1-.31-.2-.29-.37a.54.54,0,0,1,.57-.42.68.68,0,0,1,.35.06h0l0,.29,0,0a.49.49,0,0,0-.29-.08c-.13,0-.22.06-.23.14s0,.09.2.17a.6.6,0,0,1,.25.15.32.32,0,0,1,.08.26.57.57,0,0,1-.6.42"/><g class="cls-11"><rect class="cls-2" x="-4781.54" y="-2468.9" width="6348.4" height="5052.27"/></g><path class="cls-3" d="M-231.82,29.59a.51.51,0,0,0-.55.45c0,.28.09.42.38.41a.58.58,0,0,0,.19,0l.11-.83A.29.29,0,0,0-231.82,29.59Zm-.1,1.74.09-.66-.25,0c-.44,0-.67-.22-.62-.63a.88.88,0,0,1,.95-.75,1.8,1.8,0,0,1,.39,0h0l-.26,2Z"/><g class="cls-12"><rect class="cls-2" x="-4781.54" y="-2468.9" width="6348.4" height="5052.27"/></g><path class="cls-3" d="M-230.52,30.64a.57.57,0,0,1-.44-.1c-.09-.08-.12-.18-.09-.39l.11-.83h.33l-.11.81c0,.21,0,.28.26.27l.23,0,.15-1.07.32,0-.17,1.29h0a3.5,3.5,0,0,1-.57.07"/><g class="cls-13"><rect class="cls-2" x="-4781.54" y="-2468.9" width="6348.4" height="5052.27"/></g><path class="cls-3" d="M-228.53,29.7a.21.21,0,0,0-.25-.23.4.4,0,0,0-.37.25Zm-.38.89c-.44,0-.67-.22-.62-.63a.83.83,0,0,1,.78-.75.52.52,0,0,1,.48.22.57.57,0,0,1,0,.41v.09l-1,0v0c0,.23.11.36.38.35a.77.77,0,0,0,.45-.16l.06,0,0,.29h0A.93.93,0,0,1-228.91,30.59Z"/><g class="cls-14"><rect class="cls-2" x="-4781.54" y="-2468.9" width="6348.4" height="5052.27"/></g><path class="cls-3" d="M-227.32,30.51l.14-1.06h-.22l0-.24h.22v0a.84.84,0,0,1,.27-.58.67.67,0,0,1,.43-.16h.16l0,.25h-.14a.29.29,0,0,0-.24.11.67.67,0,0,0-.12.36v0l.34,0,0,.25h-.35l-.14,1Z"/><g class="cls-15"><rect class="cls-2" x="-4781.54" y="-2468.9" width="6348.4" height="5052.27"/></g><path class="cls-3" d="M-225.66,29.85c-.36,0-.45.12-.46.24s0,.16.17.15a.9.9,0,0,0,.24,0Zm-.35.63c-.31,0-.46-.11-.42-.36s.27-.45.8-.51h0v0a.38.38,0,0,0,0-.18s-.07-.06-.15-.06a.93.93,0,0,0-.46.18l-.05,0,0-.29h0a1.22,1.22,0,0,1,.54-.16c.2,0,.32,0,.37.16a.62.62,0,0,1,0,.31l-.11.83-.07,0Z"/><g class="cls-16"><rect class="cls-2" x="-4781.54" y="-2468.9" width="6348.4" height="5052.27"/></g><path class="cls-3" d="M-225,30.42l.16-1.24h0a1.66,1.66,0,0,1,.57-.12.63.63,0,0,1,.24,0h0l0,.27,0,0-.21,0a.7.7,0,0,0-.27.06l-.14,1.05Z"/><g class="cls-17"><rect class="cls-2" x="-4781.54" y="-2468.9" width="6348.4" height="5052.27"/></g><path class="cls-3" d="M-222.3,30.31l.11-.83c0-.19,0-.26-.22-.25a.85.85,0,0,0-.25.05.65.65,0,0,1,0,.2l-.12.85-.32,0,.11-.84c0-.19,0-.26-.24-.25a.73.73,0,0,0-.25,0l-.15,1.07h-.32l.16-1.26h0a2.92,2.92,0,0,1,.61-.11.68.68,0,0,1,.36.08,1.29,1.29,0,0,1,.45-.11.52.52,0,0,1,.42.13c.07.07.08.17.06.34l-.11.86Z"/><g class="cls-18"><rect class="cls-2" x="-4781.54" y="-2468.9" width="6348.4" height="5052.27"/></g><path class="cls-3" d="M-237.34,30.89l.11-.84c0-.19,0-.26-.23-.25a.74.74,0,0,0-.24.05.74.74,0,0,1,0,.2l-.11.86h-.33l.11-.84c0-.19,0-.26-.24-.25l-.25.05-.14,1.06H-239l.17-1.26h0a2.08,2.08,0,0,1,.61-.11.58.58,0,0,1,.36.07,1.09,1.09,0,0,1,.46-.1.48.48,0,0,1,.41.12.38.38,0,0,1,.06.35l-.11.86Z"/><g class="cls-19"><rect class="cls-2" x="-4781.54" y="-2468.9" width="6348.4" height="5052.27"/></g><path class="cls-3" d="M-221.1,28.79l.57-.59.3,0-.64.6Zm.26.88c-.36,0-.44.12-.46.24s0,.15.17.15l.25,0Zm-.35.62c-.31,0-.45-.11-.42-.35s.27-.45.8-.51h0v0a.55.55,0,0,0,0-.19s-.07,0-.15,0a.9.9,0,0,0-.46.17l-.05,0,0-.3h0a1.17,1.17,0,0,1,.54-.17c.19,0,.32.05.36.17a.57.57,0,0,1,0,.31l-.11.83h-.08A2.86,2.86,0,0,1-221.19,30.29Z"/><g class="cls-20"><rect class="cls-2" x="-4781.54" y="-2468.9" width="6348.4" height="5052.27"/></g><path class="cls-3" d="M-219.6,30.24c-.44,0-.68-.24-.63-.64a.84.84,0,0,1,.83-.74.81.81,0,0,1,.35.06h0l0,.29-.05,0a.47.47,0,0,0-.29-.08.48.48,0,0,0-.49.46.32.32,0,0,0,.37.41.54.54,0,0,0,.34-.12l.06,0,0,.29h0a1,1,0,0,1-.41.11"/><g class="cls-21"><rect class="cls-2" x="-4781.54" y="-2468.9" width="6348.4" height="5052.27"/></g><path class="cls-3" d="M-218.73,28.65l0-.33.34,0,0,.34Zm-.19,1.54.18-1.34h.32l-.17,1.33Z"/><g class="cls-22"><rect class="cls-2" x="-4781.54" y="-2468.9" width="6348.4" height="5052.27"/></g><path class="cls-3" d="M-217.45,29.54c-.36,0-.45.12-.46.24s0,.15.17.15l.24,0Zm-.35.62c-.31,0-.46-.1-.42-.35s.27-.45.8-.51h0v0a.43.43,0,0,0,0-.19s-.07-.05-.15-.05a1,1,0,0,0-.46.17l0,0,0-.29h0a1.25,1.25,0,0,1,.54-.17c.2,0,.32,0,.37.17a.61.61,0,0,1,0,.31l-.11.83h-.07A3,3,0,0,1-217.8,30.16Z"/><g class="cls-23"><rect class="cls-2" x="-4781.54" y="-2468.9" width="6348.4" height="5052.27"/></g><path class="cls-3" d="M-249,25.26l-.55,3.1a4.39,4.39,0,0,0,2.81-3.19Z"/><g class="cls-24"><rect class="cls-2" x="-4781.54" y="-2468.9" width="6348.4" height="5052.27"/></g><path class="cls-3" d="M-248.64,23.25l1.67-.06a4.17,4.17,0,0,0-1.35-1.75Z"/><g class="cls-25"><rect class="cls-2" x="-4781.54" y="-2468.9" width="6348.4" height="5052.27"/></g><path class="cls-3" d="M-251.4,27c.13-.51.3-1.37,1.88-1.71.13,0,.12-.06,0,0l-5.1.19c.05-.27.19-1.1.25-1.41.1-.51.36-.61.83-.62l2.79-.11.5-2.77a5.59,5.59,0,0,0-1.49-.15c-2.68.11-4.78,2.05-4.69,4.36s2.15,3.93,4.67,4Z"/><g class="cls-26"><rect class="cls-2" x="-4781.54" y="-2468.9" width="6348.4" height="5052.27"/></g><polygon class="cls-3" points="-235.4 110.52 -265.93 108.12 -265.64 104.36 -239.17 106.45 -239.25 59.31 -235.49 59.3 -235.4 110.52"/><g class="cls-27"><rect class="cls-2" x="-4781.54" y="-2468.9" width="6348.4" height="5052.27"/></g><rect class="cls-2" x="-225.24" y="95.58" width="3.76" height="27.92" transform="translate(-315.74 -121.45) rotate(-85.67)"/><g class="cls-28"><rect class="cls-2" x="-4781.54" y="-2468.9" width="6348.4" height="5052.27"/></g><path class="cls-3" d="M-231.73,93.85a1.89,1.89,0,0,1-1.62-.92,1.89,1.89,0,0,1,.66-2.58l1-.61v-1.9l-1.52-1.27a1.88,1.88,0,0,1-.24-2.65,1.89,1.89,0,0,1,2.65-.24l2.2,1.84A1.85,1.85,0,0,1-227.9,87v3.85a1.86,1.86,0,0,1-.92,1.61l-2,1.16a1.86,1.86,0,0,1-1,.27"/><g class="cls-29"><rect class="cls-2" x="-4781.54" y="-2468.9" width="6348.4" height="5052.27"/></g><path class="cls-3" d="M-243.47,93.31a1.84,1.84,0,0,1-.95-.26l-2-1.16a1.89,1.89,0,0,1-.92-1.62V86.42a1.86,1.86,0,0,1,.68-1.44l2.2-1.83a1.88,1.88,0,0,1,2.65.24A1.89,1.89,0,0,1-242,86l-1.53,1.26v1.9l1,.61a1.88,1.88,0,0,1,.65,2.58,1.87,1.87,0,0,1-1.62.92"/><g class="cls-30"><rect class="cls-2" x="-4781.54" y="-2468.9" width="6348.4" height="5052.27"/></g><path class="cls-2" d="M-552.4,484h-83.52l35.56-33.82a3.29,3.29,0,0,0,0-4.93,3.71,3.71,0,0,0-5.19,0l-42,39.81a3.29,3.29,0,0,0,0,4.93l41.85,39.81a3.71,3.71,0,0,0,5.19,0,3.29,3.29,0,0,0,0-4.93L-635.92,491h83.52a3.63,3.63,0,0,0,3.7-3.53A3.62,3.62,0,0,0-552.4,484Z"/><g class="cls-31"><rect class="cls-2" x="-1348.7" y="-2249.16" width="9600" height="25640"/></g><path class="cls-2" d="M-793,484h83.51L-745,450.16a3.29,3.29,0,0,1,0-4.93,3.7,3.7,0,0,1,5.18,0l42,39.81a3.29,3.29,0,0,1,0,4.93l-41.85,39.81a3.71,3.71,0,0,1-5.19,0,3.29,3.29,0,0,1,0-4.93L-709.48,491H-793a3.64,3.64,0,0,1-3.71-3.53A3.63,3.63,0,0,1-793,484Z"/><g class="cls-32"><rect class="cls-2" x="-9596.7" y="-2249.16" width="9600" height="25640"/></g></svg>