<svg id="Layer_1" data-name="Layer 1" xmlns="http://www.w3.org/2000/svg" xmlns:xlink="http://www.w3.org/1999/xlink" viewBox="0 0 128 128"><defs><style>.cls-1{fill:#8a9297;}.cls-2{clip-path:url(#clip-path);}.cls-3{clip-path:url(#clip-path-2);}.cls-4{fill:url(#linear-gradient);}.cls-5{fill:url(#linear-gradient-2);}.cls-6{fill:url(#linear-gradient-3);}.cls-7{fill:url(#linear-gradient-4);}.cls-8{fill:url(#linear-gradient-5);}.cls-9{fill:url(#linear-gradient-6);}.cls-10{fill:url(#linear-gradient-7);}.cls-11{fill:url(#linear-gradient-8);}.cls-12{fill:url(#linear-gradient-9);}.cls-13{fill:url(#linear-gradient-10);}.cls-14{fill:url(#linear-gradient-11);}.cls-15{fill:url(#linear-gradient-12);}.cls-16{fill:url(#linear-gradient-13);}.cls-17{fill:url(#linear-gradient-14);}.cls-18{fill:url(#linear-gradient-15);}.cls-19{fill:url(#linear-gradient-16);}.cls-20{fill:url(#linear-gradient-17);}</style><clipPath id="clip-path"><path class="cls-1" d="M702.3-1421.19H618.78L654.33-1455a3.29,3.29,0,0,0,0-4.93,3.7,3.7,0,0,0-5.18,0l-42,39.81a3.29,3.29,0,0,0,0,4.93L649-1375.4a3.71,3.71,0,0,0,5.19,0,3.29,3.29,0,0,0,0-4.93l-35.37-33.82H702.3a3.62,3.62,0,0,0,3.7-3.52A3.62,3.62,0,0,0,702.3-1421.19Z"/></clipPath><clipPath id="clip-path-2"><path class="cls-1" d="M461.7-1421.19h83.52L509.67-1455a3.29,3.29,0,0,1,0-4.93,3.7,3.7,0,0,1,5.18,0l42,39.81a3.29,3.29,0,0,1,0,4.93L515-1375.4a3.71,3.71,0,0,1-5.19,0,3.29,3.29,0,0,1,0-4.93l35.37-33.82H461.7a3.62,3.62,0,0,1-3.7-3.52A3.62,3.62,0,0,1,461.7-1421.19Z"/></clipPath><linearGradient id="linear-gradient" x1="15.74" y1="107.04" x2="15.74" y2="83.57" gradientUnits="userSpaceOnUse"><stop offset="0" stop-color="#083050"/><stop offset="1" stop-color="#3d85c6"/></linearGradient><linearGradient id="linear-gradient-2" x1="30.09" y1="96.61" x2="30.09" y2="31.39" xlink:href="#linear-gradient"/><linearGradient id="linear-gradient-3" x1="36.61" y1="96.61" x2="36.61" y2="31.39" xlink:href="#linear-gradient"/><linearGradient id="linear-gradient-4" x1="17.04" y1="96.61" x2="17.04" y2="31.39" xlink:href="#linear-gradient"/><linearGradient id="linear-gradient-5" x1="44.43" y1="96.61" x2="44.43" y2="31.39" xlink:href="#linear-gradient"/><linearGradient id="linear-gradient-6" x1="101.83" y1="96.61" x2="101.83" y2="31.39" xlink:href="#linear-gradient"/><linearGradient id="linear-gradient-7" x1="15.74" y1="44.43" x2="15.74" y2="20.96" xlink:href="#linear-gradient"/><linearGradient id="linear-gradient-8" x1="23.57" y1="96.61" x2="23.57" y2="31.39" xlink:href="#linear-gradient"/><linearGradient id="linear-gradient-9" x1="112.26" y1="44.43" x2="112.26" y2="20.96" xlink:href="#linear-gradient"/><linearGradient id="linear-gradient-10" x1="91.39" y1="96.61" x2="91.39" y2="31.39" xlink:href="#linear-gradient"/><linearGradient id="linear-gradient-11" x1="112.26" y1="107.04" x2="112.26" y2="83.57" xlink:href="#linear-gradient"/><linearGradient id="linear-gradient-12" x1="109.65" y1="96.61" x2="109.65" y2="31.39" xlink:href="#linear-gradient"/><linearGradient id="linear-gradient-13" x1="52.26" y1="96.61" x2="52.26" y2="31.39" xlink:href="#linear-gradient"/><linearGradient id="linear-gradient-14" x1="80.96" y1="96.61" x2="80.96" y2="31.39" xlink:href="#linear-gradient"/><linearGradient id="linear-gradient-15" x1="61.39" y1="96.61" x2="61.39" y2="31.39" xlink:href="#linear-gradient"/><linearGradient id="linear-gradient-16" x1="70.52" y1="96.61" x2="70.52" y2="31.39" xlink:href="#linear-gradient"/><linearGradient id="linear-gradient-17" x1="75.74" y1="96.61" x2="75.74" y2="31.39" xlink:href="#linear-gradient"/></defs><title>icon</title><path class="cls-1" d="M702.3-1421.19H618.78L654.33-1455a3.29,3.29,0,0,0,0-4.93,3.7,3.7,0,0,0-5.18,0l-42,39.81a3.29,3.29,0,0,0,0,4.93L649-1375.4a3.71,3.71,0,0,0,5.19,0,3.29,3.29,0,0,0,0-4.93l-35.37-33.82H702.3a3.62,3.62,0,0,0,3.7-3.52A3.62,3.62,0,0,0,702.3-1421.19Z"/><g class="cls-2"><rect class="cls-1" x="-94" y="-4154.34" width="9600" height="25640"/></g><path class="cls-1" d="M461.7-1421.19h83.52L509.67-1455a3.29,3.29,0,0,1,0-4.93,3.7,3.7,0,0,1,5.18,0l42,39.81a3.29,3.29,0,0,1,0,4.93L515-1375.4a3.71,3.71,0,0,1-5.19,0,3.29,3.29,0,0,1,0-4.93l35.37-33.82H461.7a3.62,3.62,0,0,1-3.7-3.52A3.62,3.62,0,0,1,461.7-1421.19Z"/><g class="cls-3"><rect class="cls-1" x="-8342" y="-4154.34" width="9600" height="25640"/></g><polygon class="cls-4" points="9.22 83.56 4 83.56 4 104.44 4 107.04 6.61 107.04 27.48 107.04 27.48 101.83 9.22 101.83 9.22 83.56"/><rect class="cls-5" x="27.48" y="31.39" width="5.22" height="65.22"/><rect class="cls-6" x="35.3" y="31.39" width="2.61" height="65.22"/><rect class="cls-7" x="14.43" y="31.39" width="5.22" height="65.22"/><rect class="cls-8" x="40.52" y="31.39" width="7.83" height="65.22"/><rect class="cls-9" x="100.52" y="31.39" width="2.61" height="65.22"/><polygon class="cls-10" points="9.22 26.17 27.48 26.17 27.48 20.96 6.61 20.96 4 20.96 4 23.57 4 44.44 9.22 44.44 9.22 26.17"/><rect class="cls-11" x="22.26" y="31.39" width="2.61" height="65.22"/><polygon class="cls-12" points="121.39 20.96 100.52 20.96 100.52 26.17 118.78 26.17 118.78 44.44 124 44.44 124 23.57 124 20.96 121.39 20.96"/><rect class="cls-13" x="84.87" y="31.39" width="13.04" height="65.22"/><polygon class="cls-14" points="118.78 101.83 100.52 101.83 100.52 107.04 121.39 107.04 124 107.04 124 104.44 124 83.56 118.78 83.56 118.78 101.83"/><rect class="cls-15" x="105.74" y="31.39" width="7.83" height="65.22"/><rect class="cls-16" x="50.96" y="31.39" width="2.61" height="65.22"/><rect class="cls-17" x="79.65" y="31.39" width="2.61" height="65.22"/><rect class="cls-18" x="56.17" y="31.39" width="10.43" height="65.22"/><rect class="cls-19" x="69.22" y="31.39" width="2.61" height="65.22"/><rect class="cls-20" x="74.43" y="31.39" width="2.61" height="65.22"/></svg>