<svg id="Layer_1" data-name="Layer 1" xmlns="http://www.w3.org/2000/svg" xmlns:xlink="http://www.w3.org/1999/xlink" viewBox="0 0 128 128"><defs><style>.cls-1,.cls-2,.cls-3{fill:#8a9297;}.cls-1{clip-rule:evenodd;}.cls-3{fill-rule:evenodd;}.cls-4{clip-path:url(#clip-path);}.cls-5{clip-path:url(#clip-path-2);}.cls-6{isolation:isolate;}.cls-7{clip-path:url(#clip-path-3);}.cls-8{clip-path:url(#clip-path-4);}.cls-9{clip-path:url(#clip-path-5);}.cls-10{clip-path:url(#clip-path-7);}.cls-11{clip-path:url(#clip-path-8);}.cls-12{clip-path:url(#clip-path-9);}.cls-13{clip-path:url(#clip-path-11);}.cls-14{clip-path:url(#clip-path-13);}.cls-15{clip-path:url(#clip-path-15);}.cls-16{clip-path:url(#clip-path-17);}.cls-17{clip-path:url(#clip-path-19);}.cls-18{clip-path:url(#clip-path-21);}.cls-19{clip-path:url(#clip-path-23);}.cls-20{clip-path:url(#clip-path-25);}.cls-21{clip-path:url(#clip-path-27);}.cls-22{clip-path:url(#clip-path-29);}.cls-23{clip-path:url(#clip-path-31);}.cls-24{clip-path:url(#clip-path-33);}.cls-25{clip-path:url(#clip-path-35);}.cls-26{clip-path:url(#clip-path-37);}.cls-27{clip-path:url(#clip-path-39);}.cls-28{clip-path:url(#clip-path-41);}.cls-29{clip-path:url(#clip-path-43);}.cls-30{clip-path:url(#clip-path-45);}.cls-31{clip-path:url(#clip-path-47);}.cls-32{clip-path:url(#clip-path-49);}.cls-33{clip-path:url(#clip-path-51);}.cls-34{clip-path:url(#clip-path-53);}.cls-35{clip-path:url(#clip-path-55);}.cls-36{clip-path:url(#clip-path-57);}.cls-37{clip-path:url(#clip-path-59);}.cls-38{clip-path:url(#clip-path-60);}.cls-39{font-size:20px;fill:#fff;font-family:Montserrat-Bold, Montserrat;font-weight:700;}.cls-40{letter-spacing:-0.07em;}</style><clipPath id="clip-path"><path class="cls-1" d="M97.36,115H97.2l-11-.92a1.88,1.88,0,0,1-1.72-1.87V67.91A6.43,6.43,0,0,0,82.78,63a6.64,6.64,0,0,0-4.5-1.45,1,1,0,0,1-.17,0L30.56,61v46.91a1.85,1.85,0,0,1-.61,1.38,1.9,1.9,0,0,1-1.42.5l-9.25-.74a1.87,1.87,0,0,1-1.73-1.89c0-.29.27-29.76.21-36.75a14.81,14.81,0,0,1,3.35-9.34h-5.9A3.56,3.56,0,0,1,12,58.44a2.1,2.1,0,0,1-.08-.56V51.79c0-3,1.89-4.31,3-4.57a1.33,1.33,0,0,1,.4,0l67.22-.92a1.14,1.14,0,0,1,.26,0c15.86,2,16.66,15.92,16.66,16.06v.09l-.18,50.74A1.87,1.87,0,0,1,97.36,115Zm-9.11-4.52,7.24.6.17-48.64c0-.78-.94-10.83-13.24-12.45l-66.61.9a1.66,1.66,0,0,0-.18.87v5.54H25.75a1.86,1.86,0,0,1,1.42.66l.18-.21a1.84,1.84,0,0,1,1.35-.54l49.38.55A10.4,10.4,0,0,1,85.3,60.2c2,1.8,3,4.39,3,7.71Zm-66.93-5.05,5.48.44V60.77h0c-.05,0-5.32,3.68-5.27,9.62S21.38,99,21.32,105.46Z"/></clipPath><clipPath id="clip-path-2"><rect class="cls-2" x="-4485.91" y="-2468.9" width="6348.4" height="5052.27"/></clipPath><clipPath id="clip-path-3"><path class="cls-1" d="M8.35,50.56a1.88,1.88,0,0,1-1.89-1.88V42.45a1.89,1.89,0,0,1,1.85-1.88l85.9-1.46h.22L104,40a1.87,1.87,0,0,1,1.7,1.87v6.6a1.88,1.88,0,0,1-2,1.88l-9.46-.55-85.84.73Zm1.88-6.26v2.48l84-.71h.12l7.54.43V43.61l-7.72-.74Z"/></clipPath><clipPath id="clip-path-4"><rect class="cls-2" x="6.46" y="35.19" width="101.4" height="17.63"/></clipPath><clipPath id="clip-path-5"><path class="cls-1" d="M102.48,111.56H98.71V62c-.09-1-1.31-11.31-12-12.12L87,46.07c11.42.87,15.13,10.63,15.5,15.66v49.83Z"/></clipPath><clipPath id="clip-path-7"><path class="cls-1" d="M97.36,115a1.88,1.88,0,0,1-.85-3.56l21.19-10.65V25.4l-14.3-4.77-12,.38h-.09L86.71,21a1.86,1.86,0,0,1-1.85-1.9,1.88,1.88,0,0,1,1.9-1.86l4.6.06,12.26-.4a2.05,2.05,0,0,1,.65.1l15.91,5.31a1.88,1.88,0,0,1,1.28,1.79V102a1.89,1.89,0,0,1-1,1.68L98.2,114.83a1.79,1.79,0,0,1-.84.2"/></clipPath><clipPath id="clip-path-8"><rect class="cls-2" x="81.41" y="13.15" width="44.09" height="105.81"/></clipPath><clipPath id="clip-path-9"><path class="cls-1" d="M22.88,44A1.87,1.87,0,0,1,21,42.16l-.13-19.84a1.88,1.88,0,0,1,1.82-1.89l9.65-.31h.09l3.42.06a1.88,1.88,0,1,1-.06,3.76l-3.38-.06-7.76.25.11,18A1.88,1.88,0,0,1,22.89,44Z"/></clipPath><clipPath id="clip-path-11"><path class="cls-1" d="M38.51,37h-.46a5.05,5.05,0,0,1-4.15-1.76,4.52,4.52,0,0,1-.8-3.49L33.93,22c-.07-2.53.62-4.43,2.07-5.65a6,6,0,0,1,4.7-1.19l41.85-2,.23,0c2.5.51,4.25,1.53,5.19,3a4.41,4.41,0,0,1,.63,3.1c-.11,1.41-.77,9.73-1.44,12.36A5.78,5.78,0,0,1,82.39,36H82.2c-1.59,0-37.91.92-43.69.92m1.2-18.09a2,2,0,0,0-1.31.4A3.61,3.61,0,0,0,37.7,22v.12l-.91,10.28a.88.88,0,0,0,.09.5c.1.13.49.28,1.23.3,3.65.06,41.35-.86,43.87-.92a2,2,0,0,0,1.53-1.52c.52-2,1.15-9.22,1.35-11.82l0-.32c0-.54-.81-1.26-2.65-1.68L40.42,19l-.22-.05a2.47,2.47,0,0,0-.49,0"/></clipPath><clipPath id="clip-path-13"><path class="cls-1" d="M75.19,22.05a1.15,1.15,0,0,0-.93-.27,1.66,1.66,0,0,0-1,.4,2.16,2.16,0,0,0-.61,1.23l0,.18,2-.06c.5,0,.79-.17.85-.61a1,1,0,0,0-.2-.87m1.83,1a1.43,1.43,0,0,1-.61,1.08,2.62,2.62,0,0,1-1.42.4,9,9,0,0,1-1.86,0c-.38-.07-.51-.65-.56-.81a4.08,4.08,0,0,0-.07,1.09,1.14,1.14,0,0,0,.49,1,2.25,2.25,0,0,0,1.22.24c.33,0,.66,0,1-.08a8,8,0,0,0,.81-.11h0c.06,0,.14,0,.13.12l-.11.82c0,.06,0,.1-.11.13a6.84,6.84,0,0,1-1.06.25,8.34,8.34,0,0,1-1.07.12,4.7,4.7,0,0,1-1.54-.16,2,2,0,0,1-1-.59,2,2,0,0,1-.45-1,4.14,4.14,0,0,1,0-1.37l.05-.41a3.85,3.85,0,0,1,1-2.32,3.6,3.6,0,0,1,2.51-.93,2.56,2.56,0,0,1,2.07.64A2.3,2.3,0,0,1,77,23.09M54.59,21.36l-4.46.16c-.29,0-.39.21-.43.49s-.08.59-.11.83.09.31.3.3h.39l1.4-.05c.11,0,0,0,0,.05A2.35,2.35,0,0,0,50.4,25c0,.21-.34,2.67-.34,2.67a.81.81,0,0,0,0,.15c0,.24.13.29.22.28l.9,0h.08c.35,0,.44-.11.49-.46.06-.51.54-4.28.57-4.57l1,0c.48,0,1.06-.07,1.33.26s.23.71.16,1.26l-.37,3a.89.89,0,0,0,0,.15c0,.24.14.29.23.28l.89,0h.08c.35,0,.45-.11.49-.46,0-.13.48-3.76.51-4a1.86,1.86,0,0,0-2.07-2.06m25-.34c0-.24,0-.66-.48-.64l-.81,0a.42.42,0,0,0-.39.36l-.73,5.88c-.06.32.06.44.21.44L78.61,27a.33.33,0,0,0,.32-.28l.09-.71.44-3.5a.31.31,0,0,0-.35-.37l-1,0h-.08c.5-.09,1.48-.53,1.56-1.19M59,23l-1,0H58s0,0,0,0c.51-.09,1.48-.53,1.57-1.19,0-.24,0-.66-.48-.64l-.81,0a.43.43,0,0,0-.4.35l-.73,5.89c0,.32.06.44.22.43l1.17,0a.34.34,0,0,0,.31-.29l.1-.7s.23-1.92.43-3.51A.3.3,0,0,0,59,23m11.3-2.06a4.12,4.12,0,0,0-.9-.17,6.44,6.44,0,0,0-1.08,0,4.45,4.45,0,0,0-1,.14,2.68,2.68,0,0,0-.8.37,2,2,0,0,0-.56.6,2.08,2.08,0,0,0-.28.86A1.37,1.37,0,0,0,66,23.77a2.32,2.32,0,0,0,1.05.69l.95.38a1.74,1.74,0,0,1,.46.27.44.44,0,0,1,.14.43.63.63,0,0,1-.3.49,1.62,1.62,0,0,1-.76.16c-.32,0-.67,0-1,0s-.73,0-1-.06h0a.1.1,0,0,0-.12.09v0l-.12.93a.14.14,0,0,0,.13.18,9.43,9.43,0,0,0,1.12.16,9.79,9.79,0,0,0,1.23,0A3.38,3.38,0,0,0,69.47,27a2,2,0,0,0,.82-1.44,1.5,1.5,0,0,0-.24-1.13,2.16,2.16,0,0,0-1-.73l-1-.4a2.29,2.29,0,0,1-.45-.23.4.4,0,0,1-.15-.41.55.55,0,0,1,.31-.47,1.69,1.69,0,0,1,.69-.13h.88c.29,0,.58,0,.86.06h.07a.12.12,0,0,0,.1-.09c0-.05,0,0,0,0l.12-.93a.18.18,0,0,0-.15-.18m-5.37,1.35a.11.11,0,0,1-.1.09h-.06c-.29,0-.58-.06-.87-.07s-.59,0-.88,0a2.11,2.11,0,0,0-.69.13.54.54,0,0,0-.3.48.38.38,0,0,0,.14.41,3.06,3.06,0,0,0,.45.23l1,.4a2.16,2.16,0,0,1,1,.72,1.53,1.53,0,0,1,.24,1.14,2,2,0,0,1-.82,1.43,3.3,3.3,0,0,1-1.85.57,8.25,8.25,0,0,1-1.23,0,9.72,9.72,0,0,1-1.12-.17c-.1,0-.14-.07-.12-.17l.11-.93s0,0,0,0a.09.09,0,0,1,.11-.1h0c.31,0,.66,0,1,.06H62.1a1.61,1.61,0,0,0,.76-.17.65.65,0,0,0,.31-.49.46.46,0,0,0-.15-.43,1.84,1.84,0,0,0-.45-.26l-1-.38a2.4,2.4,0,0,1-1-.69,1.38,1.38,0,0,1-.25-1.11,2.08,2.08,0,0,1,.28-.86,2,2,0,0,1,.56-.6A2.56,2.56,0,0,1,62,21a3.94,3.94,0,0,1,1-.15,9.49,9.49,0,0,1,1.07,0,4.76,4.76,0,0,1,.9.18c.07,0,.16.06.15.18l-.12.93s0,0,0,0"/></clipPath><clipPath id="clip-path-15"><path class="cls-1" d="M59.8,30.24c-.36,0-.44.12-.46.24s0,.15.17.15a1.67,1.67,0,0,0,.24,0Zm-.35.62c-.31,0-.45-.1-.42-.35s.27-.45.8-.51h0v0a.55.55,0,0,0,0-.19s-.07-.05-.15-.05a1,1,0,0,0-.46.17l0,0,0-.29h0a1.11,1.11,0,0,1,.55-.16c.19,0,.31,0,.36.16a.51.51,0,0,1,0,.31l-.11.83H60A3,3,0,0,1,59.45,30.86Z"/></clipPath><clipPath id="clip-path-17"><path class="cls-1" d="M60.61,29.27l0-.33.35,0,0,.34Zm-.19,1.54.18-1.34h.32l-.18,1.33Z"/></clipPath><clipPath id="clip-path-19"><path class="cls-1" d="M61.46,30.8a.76.76,0,0,1-.36-.06h0l0-.32.05,0a.49.49,0,0,0,.32.1c.13,0,.23-.06.24-.14a.16.16,0,0,0-.07-.13l-.17-.08c-.24-.1-.31-.2-.29-.37a.54.54,0,0,1,.57-.42.68.68,0,0,1,.35.06h0l0,.29,0,0a.49.49,0,0,0-.29-.08c-.13,0-.22.06-.23.14s0,.09.2.17a.6.6,0,0,1,.25.15.28.28,0,0,1,.07.26.55.55,0,0,1-.59.42"/></clipPath><clipPath id="clip-path-21"><path class="cls-1" d="M63.81,29.59a.51.51,0,0,0-.55.45c0,.28.09.42.37.41a.6.6,0,0,0,.2,0l.11-.83A.29.29,0,0,0,63.81,29.59Zm-.1,1.74.09-.66-.25,0c-.44,0-.67-.22-.62-.63a.87.87,0,0,1,1-.75,1.8,1.8,0,0,1,.39,0h0l-.25,2Z"/></clipPath><clipPath id="clip-path-23"><path class="cls-1" d="M65.11,30.64a.57.57,0,0,1-.44-.1c-.09-.08-.12-.18-.09-.39l.11-.83H65l-.11.81c0,.21,0,.28.26.27l.23,0,.14-1.07.33,0-.17,1.29h0a3.27,3.27,0,0,1-.56.07"/></clipPath><clipPath id="clip-path-25"><path class="cls-1" d="M67.1,29.7c0-.16-.09-.24-.25-.23a.4.4,0,0,0-.37.25Zm-.38.89c-.44,0-.67-.22-.62-.63a.83.83,0,0,1,.78-.75.52.52,0,0,1,.48.22.57.57,0,0,1,0,.41v.09l-1,0v0c0,.23.11.36.38.35a.77.77,0,0,0,.45-.16l.06,0,0,.29h0A.93.93,0,0,1,66.72,30.59Z"/></clipPath><clipPath id="clip-path-27"><path class="cls-1" d="M68.31,30.51l.14-1.06h-.22l0-.24h.22v0a.8.8,0,0,1,.27-.58.67.67,0,0,1,.43-.16h.16l0,.25h-.14a.28.28,0,0,0-.24.11.67.67,0,0,0-.12.36v0l.34,0,0,.25h-.35l-.14,1Z"/></clipPath><clipPath id="clip-path-29"><path class="cls-1" d="M70,29.85c-.37,0-.45.12-.46.24s0,.16.17.15a.9.9,0,0,0,.24,0Zm-.35.63c-.31,0-.46-.11-.42-.36s.27-.45.8-.51h0v0a.38.38,0,0,0,0-.18s-.07-.06-.15-.06a.93.93,0,0,0-.46.18l-.05,0,0-.29h0a1.22,1.22,0,0,1,.54-.16c.2,0,.32,0,.37.16a.62.62,0,0,1,0,.31l-.11.83-.07,0Z"/></clipPath><clipPath id="clip-path-31"><path class="cls-1" d="M70.59,30.42l.16-1.24h0a1.66,1.66,0,0,1,.57-.12.63.63,0,0,1,.24,0h0l0,.27,0,0a.71.71,0,0,0-.21,0,.69.69,0,0,0-.26.06l-.14,1.05Z"/></clipPath><clipPath id="clip-path-33"><path class="cls-1" d="M73.33,30.31l.11-.83c0-.19,0-.26-.22-.25a.79.79,0,0,0-.25.05.65.65,0,0,1,0,.2l-.12.85-.32,0,.11-.84c0-.19,0-.26-.24-.25a.82.82,0,0,0-.26,0L72,30.37h-.32l.16-1.26h0a2.92,2.92,0,0,1,.61-.11.68.68,0,0,1,.36.08,1.29,1.29,0,0,1,.45-.11.52.52,0,0,1,.42.13.42.42,0,0,1,.06.34l-.11.86Z"/></clipPath><clipPath id="clip-path-35"><path class="cls-1" d="M58.28,30.89l.11-.84c0-.19,0-.26-.22-.25a.74.74,0,0,0-.24.05.74.74,0,0,1,0,.2l-.11.86h-.33l.11-.84c0-.19,0-.26-.24-.25l-.25.05L57,30.94h-.33l.17-1.26h0a2.08,2.08,0,0,1,.61-.11.58.58,0,0,1,.36.07,1.09,1.09,0,0,1,.46-.1.5.5,0,0,1,.41.12.38.38,0,0,1,.06.35l-.11.86Z"/></clipPath><clipPath id="clip-path-37"><path class="cls-1" d="M74.53,28.79l.57-.59.3,0-.64.6Zm.26.88c-.36,0-.44.12-.46.24s0,.15.17.15l.25,0Zm-.35.62c-.31,0-.45-.11-.42-.35s.27-.45.8-.51h0v0a.55.55,0,0,0,0-.19s-.07,0-.15,0a.9.9,0,0,0-.46.17l0,0,0-.3h0a1.17,1.17,0,0,1,.54-.17c.19,0,.32.05.36.17a.57.57,0,0,1,0,.31l-.11.83H75A3,3,0,0,1,74.44,30.29Z"/></clipPath><clipPath id="clip-path-39"><path class="cls-1" d="M76,30.24c-.44,0-.68-.24-.63-.64a.87.87,0,0,1,1.18-.68h0l0,.29,0,0a.47.47,0,0,0-.29-.08.48.48,0,0,0-.49.46.32.32,0,0,0,.37.41.54.54,0,0,0,.34-.12l0,0,0,.29h0a1,1,0,0,1-.41.11"/></clipPath><clipPath id="clip-path-41"><path class="cls-1" d="M76.9,28.65l0-.33.34,0,0,.34Zm-.19,1.54.18-1.34h.32L77,30.17Z"/></clipPath><clipPath id="clip-path-43"><path class="cls-1" d="M78.18,29.54c-.37,0-.45.12-.46.24s0,.15.17.15l.24,0Zm-.35.62c-.31,0-.46-.1-.42-.35s.27-.45.8-.51h0v0a.43.43,0,0,0,0-.19s-.07-.05-.15-.05a1,1,0,0,0-.46.17l0,0,0-.29h0a1.25,1.25,0,0,1,.54-.17c.2,0,.32,0,.37.17a.61.61,0,0,1,0,.31l-.11.83h-.07A3,3,0,0,1,77.83,30.16Z"/></clipPath><clipPath id="clip-path-45"><path class="cls-1" d="M46.61,25.26l-.55,3.1a4.39,4.39,0,0,0,2.81-3.19Z"/></clipPath><clipPath id="clip-path-47"><path class="cls-1" d="M47,23.25l1.67-.06a4.17,4.17,0,0,0-1.35-1.75Z"/></clipPath><clipPath id="clip-path-49"><path class="cls-1" d="M44.23,27c.13-.51.3-1.37,1.88-1.71.13,0,.12-.06,0,0l-5.1.19c.05-.27.19-1.1.25-1.41.1-.51.36-.61.83-.62l2.78-.11.51-2.77a5.59,5.59,0,0,0-1.49-.15c-2.68.11-4.78,2.05-4.69,4.36s2.15,3.93,4.67,4Z"/></clipPath><clipPath id="clip-path-51"><polygon class="cls-1" points="60.23 110.52 29.7 108.12 29.99 104.36 56.46 106.45 56.37 59.31 60.14 59.3 60.23 110.52"/></clipPath><clipPath id="clip-path-53"><rect class="cls-2" x="70.39" y="95.58" width="3.76" height="27.92" transform="translate(-42.41 173.33) rotate(-85.67)"/></clipPath><clipPath id="clip-path-55"><path class="cls-1" d="M63.9,93.85a1.88,1.88,0,0,1-1-3.5l1-.61v-1.9l-1.52-1.27a1.88,1.88,0,1,1,2.41-2.89l2.2,1.84A1.85,1.85,0,0,1,67.73,87v3.85a1.86,1.86,0,0,1-.92,1.61l-2,1.16a1.86,1.86,0,0,1-1,.27"/></clipPath><clipPath id="clip-path-57"><path class="cls-1" d="M52.16,93.31a1.84,1.84,0,0,1-.95-.26l-2-1.16a1.89,1.89,0,0,1-.92-1.62V86.42A1.86,1.86,0,0,1,49,85l2.2-1.83A1.88,1.88,0,0,1,53.62,86L52.09,87.3v1.9l1,.61a1.88,1.88,0,0,1-1,3.5"/></clipPath><clipPath id="clip-path-59"><path class="cls-2" d="M-256.77,484h-83.52l35.55-33.82a3.28,3.28,0,0,0,0-4.93,3.7,3.7,0,0,0-5.18,0L-352,485a3.29,3.29,0,0,0,0,4.93l41.85,39.81a3.71,3.71,0,0,0,5.19,0,3.29,3.29,0,0,0,0-4.93L-340.29,491h83.52a3.63,3.63,0,0,0,3.7-3.53A3.63,3.63,0,0,0-256.77,484Z"/></clipPath><clipPath id="clip-path-60"><path class="cls-2" d="M-497.36,484h83.51l-35.55-33.82a3.29,3.29,0,0,1,0-4.93,3.7,3.7,0,0,1,5.18,0l42,39.81a3.29,3.29,0,0,1,0,4.93L-444,529.78a3.71,3.71,0,0,1-5.19,0,3.29,3.29,0,0,1,0-4.93L-413.85,491h-83.51a3.64,3.64,0,0,1-3.71-3.53A3.63,3.63,0,0,1-497.36,484Z"/></clipPath></defs><title>icons</title><path class="cls-3" d="M97.36,115H97.2l-11-.92a1.88,1.88,0,0,1-1.72-1.87V67.91A6.43,6.43,0,0,0,82.78,63a6.64,6.64,0,0,0-4.5-1.45,1,1,0,0,1-.17,0L30.56,61v46.91a1.85,1.85,0,0,1-.61,1.38,1.9,1.9,0,0,1-1.42.5l-9.25-.74a1.87,1.87,0,0,1-1.73-1.89c0-.29.27-29.76.21-36.75a14.81,14.81,0,0,1,3.35-9.34h-5.9A3.56,3.56,0,0,1,12,58.44a2.1,2.1,0,0,1-.08-.56V51.79c0-3,1.89-4.31,3-4.57a1.33,1.33,0,0,1,.4,0l67.22-.92a1.14,1.14,0,0,1,.26,0c15.86,2,16.66,15.92,16.66,16.06v.09l-.18,50.74A1.87,1.87,0,0,1,97.36,115Zm-9.11-4.52,7.24.6.17-48.64c0-.78-.94-10.83-13.24-12.45l-66.61.9a1.66,1.66,0,0,0-.18.87v5.54H25.75a1.86,1.86,0,0,1,1.42.66l.18-.21a1.84,1.84,0,0,1,1.35-.54l49.38.55A10.4,10.4,0,0,1,85.3,60.2c2,1.8,3,4.39,3,7.71Zm-66.93-5.05,5.48.44V60.77h0c-.05,0-5.32,3.68-5.27,9.62S21.38,99,21.32,105.46Z"/><g class="cls-4"><rect class="cls-2" x="-4485.91" y="-2468.9" width="6348.4" height="5052.27"/><g class="cls-5"><rect class="cls-2" x="-10.18" y="24.21" width="131.64" height="112.87"/></g></g><g class="cls-6"><path class="cls-3" d="M8.35,50.56a1.88,1.88,0,0,1-1.89-1.88V42.45a1.89,1.89,0,0,1,1.85-1.88l85.9-1.46h.22L104,40a1.87,1.87,0,0,1,1.7,1.87v6.6a1.88,1.88,0,0,1-2,1.88l-9.46-.55-85.84.73Zm1.88-6.26v2.48l84-.71h.12l7.54.43V43.61l-7.72-.74Z"/><g class="cls-7"><rect class="cls-2" x="6.46" y="35.19" width="101.4" height="17.63"/><g class="cls-8"><rect class="cls-2" x="-15.58" y="17.06" width="143.27" height="55.54"/></g></g></g><path class="cls-3" d="M102.48,111.56H98.71V62c-.09-1-1.31-11.31-12-12.12L87,46.07c11.42.87,15.13,10.63,15.5,15.66v49.83Z"/><g class="cls-9"><rect class="cls-2" x="-4485.91" y="-2468.9" width="6348.4" height="5052.27"/><g class="cls-5"><rect class="cls-2" x="64.64" y="24.03" width="59.88" height="109.58"/></g></g><g class="cls-6"><path class="cls-3" d="M97.36,115a1.88,1.88,0,0,1-.85-3.56l21.19-10.65V25.4l-14.3-4.77-12,.38h-.09L86.71,21a1.86,1.86,0,0,1-1.85-1.9,1.88,1.88,0,0,1,1.9-1.86l4.6.06,12.26-.4a2.05,2.05,0,0,1,.65.1l15.91,5.31a1.88,1.88,0,0,1,1.28,1.79V102a1.89,1.89,0,0,1-1,1.68L98.2,114.83a1.79,1.79,0,0,1-.84.2"/><g class="cls-10"><rect class="cls-2" x="81.41" y="13.15" width="44.09" height="105.81"/><g class="cls-11"><rect class="cls-2" x="62.81" y="-5.19" width="80.7" height="142.27"/></g></g></g><path class="cls-3" d="M22.88,44A1.87,1.87,0,0,1,21,42.16l-.13-19.84a1.88,1.88,0,0,1,1.82-1.89l9.65-.31h.09l3.42.06a1.88,1.88,0,1,1-.06,3.76l-3.38-.06-7.76.25.11,18A1.88,1.88,0,0,1,22.89,44Z"/><g class="cls-12"><rect class="cls-2" x="-4485.91" y="-2468.9" width="6348.4" height="5052.27"/><g class="cls-5"><rect class="cls-2" x="-1.17" y="-1.92" width="60.91" height="68"/></g></g><path class="cls-3" d="M38.51,37h-.46a5.05,5.05,0,0,1-4.15-1.76,4.52,4.52,0,0,1-.8-3.49L33.93,22c-.07-2.53.62-4.43,2.07-5.65a6,6,0,0,1,4.7-1.19l41.85-2,.23,0c2.5.51,4.25,1.53,5.19,3a4.41,4.41,0,0,1,.63,3.1c-.11,1.41-.77,9.73-1.44,12.36A5.78,5.78,0,0,1,82.39,36H82.2c-1.59,0-37.91.92-43.69.92m1.2-18.09a2,2,0,0,0-1.31.4A3.61,3.61,0,0,0,37.7,22v.12l-.91,10.28a.88.88,0,0,0,.09.5c.1.13.49.28,1.23.3,3.65.06,41.35-.86,43.87-.92a2,2,0,0,0,1.53-1.52c.52-2,1.15-9.22,1.35-11.82l0-.32c0-.54-.81-1.26-2.65-1.68L40.42,19l-.22-.05a2.47,2.47,0,0,0-.49,0"/><g class="cls-13"><rect class="cls-2" x="-4485.91" y="-2468.9" width="6348.4" height="5052.27"/><g class="cls-5"><rect class="cls-2" x="10.99" y="-8.89" width="99.72" height="67.89"/></g></g><path class="cls-3" d="M75.19,22.05a1.15,1.15,0,0,0-.93-.27,1.66,1.66,0,0,0-1,.4,2.16,2.16,0,0,0-.61,1.23l0,.18,2-.06c.5,0,.79-.17.85-.61a1,1,0,0,0-.2-.87m1.83,1a1.43,1.43,0,0,1-.61,1.08,2.62,2.62,0,0,1-1.42.4,9,9,0,0,1-1.86,0c-.38-.07-.51-.65-.56-.81a4.08,4.08,0,0,0-.07,1.09,1.14,1.14,0,0,0,.49,1,2.25,2.25,0,0,0,1.22.24c.33,0,.66,0,1-.08a8,8,0,0,0,.81-.11h0c.06,0,.14,0,.13.12l-.11.82c0,.06,0,.1-.11.13a6.84,6.84,0,0,1-1.06.25,8.34,8.34,0,0,1-1.07.12,4.7,4.7,0,0,1-1.54-.16,2,2,0,0,1-1-.59,2,2,0,0,1-.45-1,4.14,4.14,0,0,1,0-1.37l.05-.41a3.85,3.85,0,0,1,1-2.32,3.6,3.6,0,0,1,2.51-.93,2.56,2.56,0,0,1,2.07.64A2.3,2.3,0,0,1,77,23.09M54.59,21.36l-4.46.16c-.29,0-.39.21-.43.49s-.08.59-.11.83.09.31.3.3h.39l1.4-.05c.11,0,0,0,0,.05A2.35,2.35,0,0,0,50.4,25c0,.21-.34,2.67-.34,2.67a.81.81,0,0,0,0,.15c0,.24.13.29.22.28l.9,0h.08c.35,0,.44-.11.49-.46.06-.51.54-4.28.57-4.57l1,0c.48,0,1.06-.07,1.33.26s.23.71.16,1.26l-.37,3a.89.89,0,0,0,0,.15c0,.24.14.29.23.28l.89,0h.08c.35,0,.45-.11.49-.46,0-.13.48-3.76.51-4a1.86,1.86,0,0,0-2.07-2.06m25-.34c0-.24,0-.66-.48-.64l-.81,0a.42.42,0,0,0-.39.36l-.73,5.88c-.06.32.06.44.21.44L78.61,27a.33.33,0,0,0,.32-.28l.09-.71.44-3.5a.31.31,0,0,0-.35-.37l-1,0h-.08c.5-.09,1.48-.53,1.56-1.19M59,23l-1,0H58s0,0,0,0c.51-.09,1.48-.53,1.57-1.19,0-.24,0-.66-.48-.64l-.81,0a.43.43,0,0,0-.4.35l-.73,5.89c0,.32.06.44.22.43l1.17,0a.34.34,0,0,0,.31-.29l.1-.7s.23-1.92.43-3.51A.3.3,0,0,0,59,23m11.3-2.06a4.12,4.12,0,0,0-.9-.17,6.44,6.44,0,0,0-1.08,0,4.45,4.45,0,0,0-1,.14,2.68,2.68,0,0,0-.8.37,2,2,0,0,0-.56.6,2.08,2.08,0,0,0-.28.86A1.37,1.37,0,0,0,66,23.77a2.32,2.32,0,0,0,1.05.69l.95.38a1.74,1.74,0,0,1,.46.27.44.44,0,0,1,.14.43.63.63,0,0,1-.3.49,1.62,1.62,0,0,1-.76.16c-.32,0-.67,0-1,0s-.73,0-1-.06h0a.1.1,0,0,0-.12.09v0l-.12.93a.14.14,0,0,0,.13.18,9.43,9.43,0,0,0,1.12.16,9.79,9.79,0,0,0,1.23,0A3.38,3.38,0,0,0,69.47,27a2,2,0,0,0,.82-1.44,1.5,1.5,0,0,0-.24-1.13,2.16,2.16,0,0,0-1-.73l-1-.4a2.29,2.29,0,0,1-.45-.23.4.4,0,0,1-.15-.41.55.55,0,0,1,.31-.47,1.69,1.69,0,0,1,.69-.13h.88c.29,0,.58,0,.86.06h.07a.12.12,0,0,0,.1-.09c0-.05,0,0,0,0l.12-.93a.18.18,0,0,0-.15-.18m-5.37,1.35a.11.11,0,0,1-.1.09h-.06c-.29,0-.58-.06-.87-.07s-.59,0-.88,0a2.11,2.11,0,0,0-.69.13.54.54,0,0,0-.3.48.38.38,0,0,0,.14.41,3.06,3.06,0,0,0,.45.23l1,.4a2.16,2.16,0,0,1,1,.72,1.53,1.53,0,0,1,.24,1.14,2,2,0,0,1-.82,1.43,3.3,3.3,0,0,1-1.85.57,8.25,8.25,0,0,1-1.23,0,9.72,9.72,0,0,1-1.12-.17c-.1,0-.14-.07-.12-.17l.11-.93s0,0,0,0a.09.09,0,0,1,.11-.1h0c.31,0,.66,0,1,.06H62.1a1.61,1.61,0,0,0,.76-.17.65.65,0,0,0,.31-.49.46.46,0,0,0-.15-.43,1.84,1.84,0,0,0-.45-.26l-1-.38a2.4,2.4,0,0,1-1-.69,1.38,1.38,0,0,1-.25-1.11,2.08,2.08,0,0,1,.28-.86,2,2,0,0,1,.56-.6A2.56,2.56,0,0,1,62,21a3.94,3.94,0,0,1,1-.15,9.49,9.49,0,0,1,1.07,0,4.76,4.76,0,0,1,.9.18c.07,0,.16.06.15.18l-.12.93s0,0,0,0"/><g class="cls-14"><rect class="cls-2" x="-4485.91" y="-2468.9" width="6348.4" height="5052.27"/><g class="cls-5"><rect class="cls-2" x="27.55" y="-1.66" width="74.15" height="51.83"/></g></g><path class="cls-3" d="M59.8,30.24c-.36,0-.44.12-.46.24s0,.15.17.15a1.67,1.67,0,0,0,.24,0Zm-.35.62c-.31,0-.45-.1-.42-.35s.27-.45.8-.51h0v0a.55.55,0,0,0,0-.19s-.07-.05-.15-.05a1,1,0,0,0-.46.17l0,0,0-.29h0a1.11,1.11,0,0,1,.55-.16c.19,0,.31,0,.36.16a.51.51,0,0,1,0,.31l-.11.83H60A3,3,0,0,1,59.45,30.86Z"/><g class="cls-15"><rect class="cls-2" x="-4485.91" y="-2468.9" width="6348.4" height="5052.27"/><g class="cls-5"><rect class="cls-2" x="36.98" y="7.44" width="45.22" height="45.47"/></g></g><path class="cls-3" d="M60.61,29.27l0-.33.35,0,0,.34Zm-.19,1.54.18-1.34h.32l-.18,1.33Z"/><g class="cls-16"><rect class="cls-2" x="-4485.91" y="-2468.9" width="6348.4" height="5052.27"/><g class="cls-5"><rect class="cls-2" x="38.38" y="6.88" width="44.66" height="45.97"/></g></g><path class="cls-3" d="M61.46,30.8a.76.76,0,0,1-.36-.06h0l0-.32.05,0a.49.49,0,0,0,.32.1c.13,0,.23-.06.24-.14a.16.16,0,0,0-.07-.13l-.17-.08c-.24-.1-.31-.2-.29-.37a.54.54,0,0,1,.57-.42.68.68,0,0,1,.35.06h0l0,.29,0,0a.49.49,0,0,0-.29-.08c-.13,0-.22.06-.23.14s0,.09.2.17a.6.6,0,0,1,.25.15.28.28,0,0,1,.07.26.55.55,0,0,1-.59.42"/><g class="cls-17"><rect class="cls-2" x="-4485.91" y="-2468.9" width="6348.4" height="5052.27"/><g class="cls-5"><rect class="cls-2" x="39.04" y="7.36" width="45.14" height="45.48"/></g></g><path class="cls-3" d="M63.81,29.59a.51.51,0,0,0-.55.45c0,.28.09.42.37.41a.6.6,0,0,0,.2,0l.11-.83A.29.29,0,0,0,63.81,29.59Zm-.1,1.74.09-.66-.25,0c-.44,0-.67-.22-.62-.63a.87.87,0,0,1,1-.75,1.8,1.8,0,0,1,.39,0h0l-.25,2Z"/><g class="cls-18"><rect class="cls-2" x="-4485.91" y="-2468.9" width="6348.4" height="5052.27"/><g class="cls-5"><rect class="cls-2" x="40.88" y="7.29" width="45.46" height="46.09"/></g></g><path class="cls-3" d="M65.11,30.64a.57.57,0,0,1-.44-.1c-.09-.08-.12-.18-.09-.39l.11-.83H65l-.11.81c0,.21,0,.28.26.27l.23,0,.14-1.07.33,0-.17,1.29h0a3.27,3.27,0,0,1-.56.07"/><g class="cls-19"><rect class="cls-2" x="-4485.91" y="-2468.9" width="6348.4" height="5052.27"/><g class="cls-5"><rect class="cls-2" x="42.53" y="7.23" width="45.39" height="45.46"/></g></g><path class="cls-3" d="M67.1,29.7c0-.16-.09-.24-.25-.23a.4.4,0,0,0-.37.25Zm-.38.89c-.44,0-.67-.22-.62-.63a.83.83,0,0,1,.78-.75.52.52,0,0,1,.48.22.57.57,0,0,1,0,.41v.09l-1,0v0c0,.23.11.36.38.35a.77.77,0,0,0,.45-.16l.06,0,0,.29h0A.93.93,0,0,1,66.72,30.59Z"/><g class="cls-20"><rect class="cls-2" x="-4485.91" y="-2468.9" width="6348.4" height="5052.27"/><g class="cls-5"><rect class="cls-2" x="44.05" y="7.17" width="45.41" height="45.47"/></g></g><path class="cls-3" d="M68.31,30.51l.14-1.06h-.22l0-.24h.22v0a.8.8,0,0,1,.27-.58.67.67,0,0,1,.43-.16h.16l0,.25h-.14a.28.28,0,0,0-.24.11.67.67,0,0,0-.12.36v0l.34,0,0,.25h-.35l-.14,1Z"/><g class="cls-21"><rect class="cls-2" x="-4485.91" y="-2468.9" width="6348.4" height="5052.27"/><g class="cls-5"><rect class="cls-2" x="46.19" y="6.4" width="45.2" height="46.14"/></g></g><path class="cls-3" d="M70,29.85c-.37,0-.45.12-.46.24s0,.16.17.15a.9.9,0,0,0,.24,0Zm-.35.63c-.31,0-.46-.11-.42-.36s.27-.45.8-.51h0v0a.38.38,0,0,0,0-.18s-.07-.06-.15-.06a.93.93,0,0,0-.46.18l-.05,0,0-.29h0a1.22,1.22,0,0,1,.54-.16c.2,0,.32,0,.37.16a.62.62,0,0,1,0,.31l-.11.83-.07,0Z"/><g class="cls-22"><rect class="cls-2" x="-4485.91" y="-2468.9" width="6348.4" height="5052.27"/><g class="cls-5"><rect class="cls-2" x="47.15" y="7.05" width="45.22" height="45.47"/></g></g><path class="cls-3" d="M70.59,30.42l.16-1.24h0a1.66,1.66,0,0,1,.57-.12.63.63,0,0,1,.24,0h0l0,.27,0,0a.71.71,0,0,0-.21,0,.69.69,0,0,0-.26.06l-.14,1.05Z"/><g class="cls-23"><rect class="cls-2" x="-4485.91" y="-2468.9" width="6348.4" height="5052.27"/><g class="cls-5"><rect class="cls-2" x="48.54" y="7" width="45.1" height="45.46"/></g></g><path class="cls-3" d="M73.33,30.31l.11-.83c0-.19,0-.26-.22-.25a.79.79,0,0,0-.25.05.65.65,0,0,1,0,.2l-.12.85-.32,0,.11-.84c0-.19,0-.26-.24-.25a.82.82,0,0,0-.26,0L72,30.37h-.32l.16-1.26h0a2.92,2.92,0,0,1,.61-.11.68.68,0,0,1,.36.08,1.29,1.29,0,0,1,.45-.11.52.52,0,0,1,.42.13.42.42,0,0,1,.06.34l-.11.86Z"/><g class="cls-24"><rect class="cls-2" x="-4485.91" y="-2468.9" width="6348.4" height="5052.27"/><g class="cls-5"><rect class="cls-2" x="49.64" y="6.93" width="46.19" height="45.49"/></g></g><path class="cls-3" d="M58.28,30.89l.11-.84c0-.19,0-.26-.22-.25a.74.74,0,0,0-.24.05.74.74,0,0,1,0,.2l-.11.86h-.33l.11-.84c0-.19,0-.26-.24-.25l-.25.05L57,30.94h-.33l.17-1.26h0a2.08,2.08,0,0,1,.61-.11.58.58,0,0,1,.36.07,1.09,1.09,0,0,1,.46-.1.5.5,0,0,1,.41.12.38.38,0,0,1,.06.35l-.11.86Z"/><g class="cls-25"><rect class="cls-2" x="-4485.91" y="-2468.9" width="6348.4" height="5052.27"/><g class="cls-5"><rect class="cls-2" x="34.59" y="7.5" width="46.19" height="45.49"/></g></g><path class="cls-3" d="M74.53,28.79l.57-.59.3,0-.64.6Zm.26.88c-.36,0-.44.12-.46.24s0,.15.17.15l.25,0Zm-.35.62c-.31,0-.45-.11-.42-.35s.27-.45.8-.51h0v0a.55.55,0,0,0,0-.19s-.07,0-.15,0a.9.9,0,0,0-.46.17l0,0,0-.3h0a1.17,1.17,0,0,1,.54-.17c.19,0,.32.05.36.17a.57.57,0,0,1,0,.31l-.11.83H75A3,3,0,0,1,74.44,30.29Z"/><g class="cls-26"><rect class="cls-2" x="-4485.91" y="-2468.9" width="6348.4" height="5052.27"/><g class="cls-5"><rect class="cls-2" x="51.97" y="6.16" width="45.47" height="46.18"/></g></g><path class="cls-3" d="M76,30.24c-.44,0-.68-.24-.63-.64a.87.87,0,0,1,1.18-.68h0l0,.29,0,0a.47.47,0,0,0-.29-.08.48.48,0,0,0-.49.46.32.32,0,0,0,.37.41.54.54,0,0,0,.34-.12l0,0,0,.29h0a1,1,0,0,1-.41.11"/><g class="cls-27"><rect class="cls-2" x="-4485.91" y="-2468.9" width="6348.4" height="5052.27"/><g class="cls-5"><rect class="cls-2" x="53.35" y="6.82" width="45.29" height="45.46"/></g></g><path class="cls-3" d="M76.9,28.65l0-.33.34,0,0,.34Zm-.19,1.54.18-1.34h.32L77,30.17Z"/><g class="cls-28"><rect class="cls-2" x="-4485.91" y="-2468.9" width="6348.4" height="5052.27"/><g class="cls-5"><rect class="cls-2" x="54.67" y="6.26" width="44.66" height="45.97"/></g></g><path class="cls-3" d="M78.18,29.54c-.37,0-.45.12-.46.24s0,.15.17.15l.24,0Zm-.35.62c-.31,0-.46-.1-.42-.35s.27-.45.8-.51h0v0a.43.43,0,0,0,0-.19s-.07-.05-.15-.05a1,1,0,0,0-.46.17l0,0,0-.29h0a1.25,1.25,0,0,1,.54-.17c.2,0,.32,0,.37.17a.61.61,0,0,1,0,.31l-.11.83h-.07A3,3,0,0,1,77.83,30.16Z"/><g class="cls-29"><rect class="cls-2" x="-4485.91" y="-2468.9" width="6348.4" height="5052.27"/><g class="cls-5"><rect class="cls-2" x="55.36" y="6.74" width="45.22" height="45.47"/></g></g><path class="cls-3" d="M46.61,25.26l-.55,3.1a4.39,4.39,0,0,0,2.81-3.19Z"/><g class="cls-30"><rect class="cls-2" x="-4485.91" y="-2468.9" width="6348.4" height="5052.27"/><g class="cls-5"><rect class="cls-2" x="24.02" y="3.13" width="46.89" height="47.28"/></g></g><path class="cls-3" d="M47,23.25l1.67-.06a4.17,4.17,0,0,0-1.35-1.75Z"/><g class="cls-31"><rect class="cls-2" x="-4485.91" y="-2468.9" width="6348.4" height="5052.27"/><g class="cls-5"><rect class="cls-2" x="24.95" y="-0.6" width="45.76" height="45.89"/></g></g><path class="cls-3" d="M44.23,27c.13-.51.3-1.37,1.88-1.71.13,0,.12-.06,0,0l-5.1.19c.05-.27.19-1.1.25-1.41.1-.51.36-.61.83-.62l2.78-.11.51-2.77a5.59,5.59,0,0,0-1.49-.15c-2.68.11-4.78,2.05-4.69,4.36s2.15,3.93,4.67,4Z"/><g class="cls-32"><rect class="cls-2" x="-4485.91" y="-2468.9" width="6348.4" height="5052.27"/><g class="cls-5"><rect class="cls-2" x="17.19" y="-1.63" width="51.07" height="52.42"/></g></g><polygon class="cls-3" points="60.23 110.52 29.7 108.12 29.99 104.36 56.46 106.45 56.37 59.31 60.14 59.3 60.23 110.52"/><g class="cls-33"><rect class="cls-2" x="-4485.91" y="-2468.9" width="6348.4" height="5052.27"/><g class="cls-5"><rect class="cls-2" x="7.65" y="37.26" width="74.62" height="95.3"/></g></g><rect class="cls-2" x="70.39" y="95.58" width="3.76" height="27.92" transform="translate(-42.41 173.33) rotate(-85.67)"/><g class="cls-34"><rect class="cls-2" x="-4485.91" y="-2468.9" width="6348.4" height="5052.27"/><g class="cls-5"><rect class="cls-2" x="36.16" y="84.56" width="72.21" height="49.95"/></g></g><path class="cls-3" d="M63.9,93.85a1.88,1.88,0,0,1-1-3.5l1-.61v-1.9l-1.52-1.27a1.88,1.88,0,1,1,2.41-2.89l2.2,1.84A1.85,1.85,0,0,1,67.73,87v3.85a1.86,1.86,0,0,1-.92,1.61l-2,1.16a1.86,1.86,0,0,1-1,.27"/><g class="cls-35"><rect class="cls-2" x="-4485.91" y="-2468.9" width="6348.4" height="5052.27"/><g class="cls-5"><rect class="cls-2" x="39.73" y="61.21" width="50.05" height="54.69"/></g></g><path class="cls-3" d="M52.16,93.31a1.84,1.84,0,0,1-.95-.26l-2-1.16a1.89,1.89,0,0,1-.92-1.62V86.42A1.86,1.86,0,0,1,49,85l2.2-1.83A1.88,1.88,0,0,1,53.62,86L52.09,87.3v1.9l1,.61a1.88,1.88,0,0,1-1,3.5"/><g class="cls-36"><rect class="cls-2" x="-4485.91" y="-2468.9" width="6348.4" height="5052.27"/><g class="cls-5"><rect class="cls-2" x="26.29" y="60.67" width="50.05" height="54.69"/></g></g><path class="cls-2" d="M-256.77,484h-83.52l35.55-33.82a3.28,3.28,0,0,0,0-4.93,3.7,3.7,0,0,0-5.18,0L-352,485a3.29,3.29,0,0,0,0,4.93l41.85,39.81a3.71,3.71,0,0,0,5.19,0,3.29,3.29,0,0,0,0-4.93L-340.29,491h83.52a3.63,3.63,0,0,0,3.7-3.53A3.63,3.63,0,0,0-256.77,484Z"/><g class="cls-37"><rect class="cls-2" x="-1053.07" y="-2249.16" width="9600" height="25640"/></g><path class="cls-2" d="M-497.36,484h83.51l-35.55-33.82a3.29,3.29,0,0,1,0-4.93,3.7,3.7,0,0,1,5.18,0l42,39.81a3.29,3.29,0,0,1,0,4.93L-444,529.78a3.71,3.71,0,0,1-5.19,0,3.29,3.29,0,0,1,0-4.93L-413.85,491h-83.51a3.64,3.64,0,0,1-3.71-3.53A3.63,3.63,0,0,1-497.36,484Z"/><g class="cls-38"><rect class="cls-2" x="-9301.07" y="-2249.16" width="9600" height="25640"/></g><text class="cls-39" transform="translate(0 -4.52)">CES<tspan class="cls-40" x="40.26" y="0">T</tspan><tspan x="51.04" y="0">A</tspan></text></svg>