<svg width="29" height="27" viewBox="0 0 29 27" fill="none" xmlns="http://www.w3.org/2000/svg">
<path d="M9.93657 20.3941H7.57493C7.31076 20.3941 7.09624 20.1803 7.09624 19.9161V18.3871H5.56595C5.30241 18.3871 5.08789 18.1732 5.08789 17.909V15.5461C5.08789 15.2819 5.30241 15.0674 5.56595 15.0674H7.09624V13.5384C7.09624 13.2742 7.31076 13.0597 7.57493 13.0597H9.93657C10.2007 13.0597 10.4153 13.2742 10.4153 13.5384V15.0674H11.9446C12.2088 15.0674 12.4233 15.2819 12.4233 15.5461V17.909C12.4233 18.1732 12.2088 18.3871 11.9446 18.3871H10.4153V19.9161C10.4153 20.1803 10.2007 20.3941 9.93657 20.3941ZM8.0533 19.438H9.45851V17.9338C9.45851 17.656 9.68417 17.4309 9.96171 17.4309H11.4662V16.0242H9.96171C9.68417 16.0242 9.45851 15.7991 9.45851 15.5235V14.0168H8.0533V15.5235C8.0533 15.7991 7.82764 16.0242 7.54947 16.0242H6.04464V17.4309H7.54947C7.82764 17.4309 8.0533 17.656 8.0533 17.9338V19.438Z" fill="#787878"/>
<path d="M23.276 26.043C22.9243 26.043 22.6385 25.7575 22.6385 25.4055V17.0681C22.6385 16.3647 22.0662 15.7921 21.3625 15.7921H18.0139C17.3108 15.7921 16.7386 16.3647 16.7386 17.0681V25.4055C16.7386 25.7572 16.4531 26.043 16.1007 26.043C15.7484 26.043 15.4629 25.7575 15.4629 25.4055V17.0681C15.4629 15.6617 16.6074 14.5165 18.0139 14.5165H21.3625C22.7693 14.5165 23.9139 15.6617 23.9139 17.0681V25.4055C23.9139 25.7575 23.628 26.043 23.276 26.043Z" fill="#787878"/>
<path d="M11.146 11.9489C8.91045 11.9489 7.0918 10.2254 7.0918 8.10727C7.0918 7.75557 7.37698 7.46976 7.72963 7.46976C8.08165 7.46976 8.36746 7.75525 8.36746 8.10727C8.36746 9.52234 9.61385 10.6732 11.146 10.6732C12.6786 10.6732 13.9253 9.52266 13.9253 8.10727C13.9253 7.75557 14.2108 7.46976 14.5631 7.46976C14.9154 7.46976 15.2009 7.75525 15.2009 8.10727C15.2009 10.2254 13.3816 11.9489 11.146 11.9489Z" fill="#787878"/>
<path d="M17.9803 11.9489C15.7448 11.9489 13.9258 10.2254 13.9258 8.10727C13.9258 7.75557 14.2113 7.46976 14.5636 7.46976C14.9159 7.46976 15.2014 7.75525 15.2014 8.10727C15.2014 9.52234 16.4481 10.6732 17.9803 10.6732C19.5129 10.6732 20.7592 9.52266 20.7592 8.10727C20.7592 7.75557 21.0447 7.46976 21.3971 7.46976C21.7494 7.46976 22.0349 7.75525 22.0349 8.10727C22.0352 10.2254 20.2163 11.9489 17.9803 11.9489Z" fill="#787878"/>
<path d="M11.146 11.9489C8.91045 11.9489 7.0918 10.2254 7.0918 8.10727C7.0918 7.75557 7.37698 7.46976 7.72963 7.46976C8.08165 7.46976 8.36746 7.75525 8.36746 8.10727C8.36746 9.52234 9.61385 10.6732 11.146 10.6732C12.6786 10.6732 13.9253 9.52266 13.9253 8.10727C13.9253 7.75557 14.2108 7.46976 14.5631 7.46976C14.9154 7.46976 15.2009 7.75525 15.2009 8.10727C15.2009 10.2254 13.3816 11.9489 11.146 11.9489Z" fill="#787878"/>
<path d="M17.9803 11.9489C15.7448 11.9489 13.9258 10.2254 13.9258 8.10727C13.9258 7.75557 14.2113 7.46976 14.5636 7.46976C14.9159 7.46976 15.2014 7.75525 15.2014 8.10727C15.2014 9.52234 16.4481 10.6732 17.9803 10.6732C19.5129 10.6732 20.7592 9.52266 20.7592 8.10727C20.7592 7.75557 21.0447 7.46976 21.3971 7.46976C21.7494 7.46976 22.0349 7.75525 22.0349 8.10727C22.0352 10.2254 20.2163 11.9489 17.9803 11.9489Z" fill="#787878"/>
<path d="M26.6946 26.2995H2.43471C2.08237 26.2995 1.79688 26.014 1.79688 25.662V11.0635C1.79688 10.7111 2.08205 10.4253 2.43471 10.4253C2.78673 10.4253 3.07254 10.7108 3.07254 11.0635V25.0242H26.0568V11.0635C26.0568 10.7111 26.3423 10.4253 26.695 10.4253C27.0467 10.4253 27.3325 10.7108 27.3325 11.0635V25.662C27.3322 26.0137 27.0467 26.2995 26.6946 26.2995Z" fill="#787878"/>
<path d="M4.38269 11.9489C2.14678 11.9489 0.328125 10.2254 0.328125 8.10727C0.328125 7.75557 0.613622 7.46976 0.965958 7.46976C1.31829 7.46976 1.60379 7.75525 1.60379 8.10727C1.60379 9.52234 2.85017 10.6732 4.38269 10.6732C5.91489 10.6732 7.16159 9.52266 7.16159 8.10727C7.16159 7.75557 7.44709 7.46976 7.79943 7.46976C8.15176 7.46976 8.43726 7.75525 8.43726 8.10727C8.43726 10.2254 6.61797 11.9489 4.38269 11.9489Z" fill="#787878"/>
<path d="M24.7398 11.9489C22.5045 11.9489 20.6855 10.2254 20.6855 8.10727C20.6855 7.75557 20.9707 7.46976 21.3234 7.46976C21.6754 7.46976 21.9612 7.75525 21.9612 8.10727C21.9612 9.52234 23.2079 10.6732 24.7398 10.6732C26.2726 10.6732 27.519 9.52266 27.519 8.10727C27.519 7.75557 27.8045 7.46976 28.1568 7.46976C28.5092 7.46976 28.7947 7.75525 28.7947 8.10727C28.7947 10.2254 26.9757 11.9489 24.7398 11.9489Z" fill="#787878"/>
<path d="M26.1364 1.763C25.8821 1.21715 25.2367 0.805298 24.6338 0.805298H4.31804C3.71044 0.805298 3.06688 1.22479 2.82244 1.78178C2.82244 1.78178 0.240234 7.66232 0.240234 7.82528C0.240234 8.18175 0.531779 8.47043 0.891117 8.47043H28.2345C28.5939 8.47043 28.8854 8.18175 28.8854 7.82528C28.8851 7.67855 26.1364 1.763 26.1364 1.763ZM1.86346 7.18013L4.00453 2.3009C4.04432 2.2105 4.22001 2.09529 4.31804 2.09529H24.6342C24.7389 2.09529 24.9219 2.21241 24.9664 2.30726L27.2297 7.18013H1.86346Z" fill="#787878"/>
</svg>
