<svg id="Layer_1" data-name="Layer 1" xmlns="http://www.w3.org/2000/svg" xmlns:xlink="http://www.w3.org/1999/xlink" viewBox="0 0 128 128"><defs><style>.cls-1,.cls-2,.cls-3{fill:#8a9297;}.cls-1{clip-rule:evenodd;}.cls-3{fill-rule:evenodd;}.cls-4{clip-path:url(#clip-path);}.cls-5{clip-path:url(#clip-path-2);}.cls-6{clip-path:url(#clip-path-3);}.cls-7{clip-path:url(#clip-path-4);}.cls-8{clip-path:url(#clip-path-5);}.cls-9{clip-path:url(#clip-path-6);}.cls-10{clip-path:url(#clip-path-7);}.cls-11{clip-path:url(#clip-path-8);}.cls-12{clip-path:url(#clip-path-9);}.cls-13{clip-path:url(#clip-path-10);}.cls-14{clip-path:url(#clip-path-11);}.cls-15{clip-path:url(#clip-path-12);}.cls-16{clip-path:url(#clip-path-13);}.cls-17{clip-path:url(#clip-path-14);}.cls-18{clip-path:url(#clip-path-15);}.cls-19{clip-path:url(#clip-path-16);}.cls-20{clip-path:url(#clip-path-17);}.cls-21{clip-path:url(#clip-path-18);}.cls-22{clip-path:url(#clip-path-19);}.cls-23{clip-path:url(#clip-path-20);}.cls-24{clip-path:url(#clip-path-21);}.cls-25{clip-path:url(#clip-path-22);}.cls-26{clip-path:url(#clip-path-23);}.cls-27{clip-path:url(#clip-path-24);}.cls-28{clip-path:url(#clip-path-25);}.cls-29{clip-path:url(#clip-path-26);}.cls-30{clip-path:url(#clip-path-27);}.cls-31{clip-path:url(#clip-path-28);}.cls-32{clip-path:url(#clip-path-29);}</style><clipPath id="clip-path"><path class="cls-1" d="M1204.43,586.5h-.16l-11-.92a1.87,1.87,0,0,1-1.72-1.87V539.38a6.43,6.43,0,0,0-1.71-4.91,6.64,6.64,0,0,0-4.5-1.45h-.17l-47.55-.52v46.9a1.85,1.85,0,0,1-.61,1.38,1.9,1.9,0,0,1-1.42.5l-9.25-.73a1.9,1.9,0,0,1-1.74-1.9c0-.29.28-29.76.22-36.75a14.76,14.76,0,0,1,3.35-9.33h-5.9a3.57,3.57,0,0,1-3.26-2.66,1.75,1.75,0,0,1-.08-.55v-6.09c0-3.06,1.89-4.32,3-4.58a1.92,1.92,0,0,1,.41-.05l67.22-.92.26,0c15.86,2,16.65,15.93,16.66,16.07v.09l-.18,50.73a1.87,1.87,0,0,1-1.88,1.87Zm-9.11-4.52,7.23.6.18-48.64c0-.78-1-10.83-13.25-12.45l-66.6.9a1.61,1.61,0,0,0-.18.88v5.53h10.11a1.87,1.87,0,0,1,1.43.66l.18-.21a1.88,1.88,0,0,1,1.35-.54l49.38.55a10.37,10.37,0,0,1,7.22,2.42c2,1.79,3,4.38,3,7.7Zm-66.93-5.05,5.47.44V532.25h0s-5.32,3.68-5.27,9.62S1128.45,570.45,1128.39,576.93Z"/></clipPath><clipPath id="clip-path-2"><path class="cls-1" d="M1209.55,583h-3.77V533.42c-.09-1-1.31-11.31-12-12.12l.29-3.76c11.42.87,15.13,10.63,15.5,15.66V583Z"/></clipPath><clipPath id="clip-path-3"><path class="cls-1" d="M1129.94,515.5a1.88,1.88,0,0,1-1.88-1.87l-.12-19.84a1.87,1.87,0,0,1,1.82-1.89l9.65-.31h.09l3.42.06a1.89,1.89,0,1,1-.07,3.77l-3.37-.06-7.76.24.11,18a1.88,1.88,0,0,1-1.87,1.89Z"/></clipPath><clipPath id="clip-path-4"><path class="cls-1" d="M1145.58,508.42h-.46a5,5,0,0,1-4.15-1.76,4.52,4.52,0,0,1-.8-3.49l.83-9.68c-.07-2.54.62-4.44,2.07-5.66a6,6,0,0,1,4.7-1.19l41.84-2,.23.05c2.51.51,4.26,1.53,5.19,3a4.37,4.37,0,0,1,.64,3.1c-.11,1.41-.78,9.74-1.45,12.36a5.76,5.76,0,0,1-4.77,4.33h-.18c-1.59,0-37.92.92-43.69.92m1.2-18.09a2,2,0,0,0-1.31.4,3.61,3.61,0,0,0-.7,2.73v.12l-.91,10.28a.94.94,0,0,0,.08.5,1.93,1.93,0,0,0,1.24.3c3.65.07,41.35-.85,43.87-.92a2,2,0,0,0,1.53-1.51c.52-2,1.15-9.23,1.35-11.83l0-.31c0-.55-.81-1.27-2.65-1.69l-41.83,2-.23-.05a2.33,2.33,0,0,0-.48,0"/></clipPath><clipPath id="clip-path-5"><path class="cls-1" d="M1182.26,493.52a1.15,1.15,0,0,0-.93-.27,1.62,1.62,0,0,0-1,.4,2.1,2.1,0,0,0-.61,1.23l0,.18,1.95-.06c.51,0,.79-.17.86-.61a1,1,0,0,0-.2-.87m1.83,1.05a1.43,1.43,0,0,1-.61,1.07,2.71,2.71,0,0,1-1.42.41,9.28,9.28,0,0,1-1.86,0c-.38-.07-.51-.65-.56-.81a3.89,3.89,0,0,0-.08,1.09,1.17,1.17,0,0,0,.5,1,2.16,2.16,0,0,0,1.22.24l1-.07c.34,0,.53-.07.81-.12h0c.06,0,.14,0,.12.12l-.1.82c0,.06,0,.1-.11.14a10.3,10.3,0,0,1-1.06.25,10.69,10.69,0,0,1-1.08.11,4.64,4.64,0,0,1-1.53-.16,2,2,0,0,1-.95-.59,2.08,2.08,0,0,1-.46-1,4.76,4.76,0,0,1,0-1.37l0-.41a3.89,3.89,0,0,1,1-2.32,3.67,3.67,0,0,1,2.51-.93,2.56,2.56,0,0,1,2.07.64,2.36,2.36,0,0,1,.47,1.93m-22.44-1.74-4.45.17c-.29,0-.39.2-.43.49s-.08.58-.11.82.09.31.3.31l.38,0,1.4-.05c.12,0,0,0,0,.05a2.35,2.35,0,0,0-1.28,1.89c0,.22-.34,2.67-.34,2.67a.89.89,0,0,0,0,.15c0,.24.14.29.23.28l.9,0h.08c.35,0,.44-.11.49-.46.06-.51.54-4.28.57-4.57l1,0c.48,0,1.06-.07,1.33.26s.22.71.16,1.26c0,0-.38,3-.38,3s0,.11,0,.15c0,.24.14.29.23.29l.89,0h.08c.35,0,.45-.1.49-.46,0-.13.48-3.76.51-4a1.87,1.87,0,0,0-2.08-2.07m25.06-.34c0-.24,0-.66-.48-.64l-.81,0a.43.43,0,0,0-.39.36l-.73,5.88c-.06.33,0,.44.21.44l1.17-.05a.33.33,0,0,0,.32-.28l.09-.71s.24-1.91.43-3.5a.31.31,0,0,0-.34-.37l-1,0h-.09c.51-.1,1.49-.54,1.57-1.2m-20.64,1.93-1,0H1165c.51-.09,1.48-.53,1.56-1.19,0-.24,0-.66-.47-.64l-.81,0a.42.42,0,0,0-.4.35l-.73,5.89c0,.32.06.44.22.43l1.17,0a.35.35,0,0,0,.31-.29l.1-.7s.23-1.92.43-3.5a.31.31,0,0,0-.35-.37m11.31-2.05a3.67,3.67,0,0,0-.9-.18,6.44,6.44,0,0,0-1.08,0,4.37,4.37,0,0,0-1,.14,2.57,2.57,0,0,0-.8.37,1.89,1.89,0,0,0-.56.6,2.24,2.24,0,0,0-.29.86,1.49,1.49,0,0,0,.25,1.12,2.45,2.45,0,0,0,1,.68l1,.39a1.75,1.75,0,0,1,.46.26.46.46,0,0,1,.14.43.64.64,0,0,1-.31.49,1.55,1.55,0,0,1-.75.16c-.32,0-.67,0-1,0s-.73,0-1-.06h0a.1.1,0,0,0-.12.09v0l-.12.93a.14.14,0,0,0,.13.18c.35.07.73.13,1.12.17a12.24,12.24,0,0,0,1.23,0,3.24,3.24,0,0,0,1.84-.57,2,2,0,0,0,.83-1.44,1.55,1.55,0,0,0-.24-1.13,2.13,2.13,0,0,0-1-.72l-1-.41a2.29,2.29,0,0,1-.45-.23.4.4,0,0,1-.15-.41.55.55,0,0,1,.31-.47,1.65,1.65,0,0,1,.69-.13h.88a8.09,8.09,0,0,1,.86.07h.07a.12.12,0,0,0,.09-.1c0-.05,0,0,0,0l.11-.93c0-.11-.07-.15-.14-.17m-5.37,1.34a.12.12,0,0,1-.1.09h-.07c-.28,0-.57-.05-.86-.06a6.46,6.46,0,0,0-.88,0,1.9,1.9,0,0,0-.69.12.56.56,0,0,0-.31.48.4.4,0,0,0,.15.41,2.29,2.29,0,0,0,.45.23l1,.4a2.14,2.14,0,0,1,1,.72,1.54,1.54,0,0,1,.24,1.14,2,2,0,0,1-.82,1.43,3.3,3.3,0,0,1-1.85.57,8.25,8.25,0,0,1-1.23,0c-.39,0-.76-.09-1.12-.16a.14.14,0,0,1-.13-.18l.12-.93s0,0,0,0a.1.1,0,0,1,.11-.1h0c.31,0,.66.05,1,.06h1.05a1.61,1.61,0,0,0,.76-.17.61.61,0,0,0,.3-.49.42.42,0,0,0-.14-.42,1.51,1.51,0,0,0-.46-.27l-1-.38a2.4,2.4,0,0,1-1-.69,1.38,1.38,0,0,1-.25-1.11,2.08,2.08,0,0,1,.28-.86,2,2,0,0,1,.56-.6,2.46,2.46,0,0,1,.8-.37,5.14,5.14,0,0,1,1-.15,9.6,9.6,0,0,1,1.08,0,4.76,4.76,0,0,1,.9.18c.07,0,.16.06.15.18l-.12.93s0,0,0,0"/></clipPath><clipPath id="clip-path-6"><path class="cls-1" d="M1166.87,501.71c-.36,0-.45.12-.46.24s0,.15.17.15a.9.9,0,0,0,.24,0Zm-.35.63c-.31,0-.46-.11-.42-.36s.27-.45.8-.51h0v0a.43.43,0,0,0,0-.19s-.07-.05-.15-.05a.93.93,0,0,0-.46.18l0,0,0-.29h0a1.1,1.1,0,0,1,.54-.16c.2,0,.32,0,.37.16a.61.61,0,0,1,0,.31l-.11.83H1167Z"/></clipPath><clipPath id="clip-path-7"><path class="cls-1" d="M1167.68,500.75l0-.34h.35l0,.33Zm-.19,1.53.17-1.33.33,0-.18,1.34Z"/></clipPath><clipPath id="clip-path-8"><path class="cls-1" d="M1168.53,502.27a.76.76,0,0,1-.36-.06h0l0-.32,0,0a.43.43,0,0,0,.32.1.23.23,0,0,0,.24-.14.16.16,0,0,0-.07-.13l-.17-.08c-.24-.1-.31-.2-.29-.37a.54.54,0,0,1,.57-.42.65.65,0,0,1,.34.06h0l0,.29,0,0a.49.49,0,0,0-.29-.08c-.13,0-.22.06-.23.14s0,.09.2.17a.57.57,0,0,1,.24.15.26.26,0,0,1,.08.26.55.55,0,0,1-.59.42"/></clipPath><clipPath id="clip-path-9"><path class="cls-1" d="M1170.87,501.06a.5.5,0,0,0-.54.45c0,.28.09.42.37.41a.64.64,0,0,0,.2,0l.11-.83Zm-.09,1.74.09-.66-.25,0c-.44,0-.68-.22-.62-.63a.87.87,0,0,1,.94-.75l.4,0h0l-.26,2Z"/></clipPath><clipPath id="clip-path-10"><path class="cls-1" d="M1172.17,502.11a.6.6,0,0,1-.44-.1c-.09-.08-.11-.18-.08-.39l.11-.83h.32l-.1.81c0,.22,0,.28.26.27a.91.91,0,0,0,.23,0l.14-1.07.33,0-.17,1.29h0a2.52,2.52,0,0,1-.57.07"/></clipPath><clipPath id="clip-path-11"><path class="cls-1" d="M1174.17,501.17a.22.22,0,0,0-.26-.23.4.4,0,0,0-.36.25Zm-.38.9c-.44,0-.67-.23-.62-.64a.81.81,0,0,1,.78-.74.47.47,0,0,1,.47.21.57.57,0,0,1,0,.41v.09l-1,0v0c0,.23.12.36.38.35a.8.8,0,0,0,.46-.16l0,0,0,.29h0A1,1,0,0,1,1173.79,502.07Z"/></clipPath><clipPath id="clip-path-12"><path class="cls-1" d="M1175.38,502l.14-1.05h-.22l0-.24h.22v0a.83.83,0,0,1,.26-.58.76.76,0,0,1,.43-.16h.17l0,.25h-.14a.3.3,0,0,0-.23.11.54.54,0,0,0-.12.36v0h.35l0,.24h-.35l-.14,1.06Z"/></clipPath><clipPath id="clip-path-13"><path class="cls-1" d="M1177,501.32c-.37.05-.45.12-.46.25s0,.15.17.14l.24,0Zm-.35.63q-.48,0-.42-.36c0-.3.27-.45.8-.51h0v0c0-.11,0-.16,0-.18s-.06-.06-.14-.06a.9.9,0,0,0-.46.18l0,0,0-.29h0a1.32,1.32,0,0,1,.54-.16c.2,0,.32.05.37.16a.77.77,0,0,1,0,.31l-.11.84h-.07A4.48,4.48,0,0,1,1176.69,502Z"/></clipPath><clipPath id="clip-path-14"><path class="cls-1" d="M1177.66,501.89l.16-1.24h0a1.62,1.62,0,0,1,.57-.12.63.63,0,0,1,.24,0h0l0,.27,0,0a.71.71,0,0,0-.21,0,.65.65,0,0,0-.26.06l-.14,1.05Z"/></clipPath><clipPath id="clip-path-15"><path class="cls-1" d="M1180.4,501.79l.11-.84c0-.19,0-.26-.22-.25a.79.79,0,0,0-.25.05.47.47,0,0,1,0,.2l-.11.85-.32,0,.11-.84c0-.19,0-.26-.24-.25a1.27,1.27,0,0,0-.26,0l-.14,1.07h-.32l.16-1.26h0a2,2,0,0,1,.6-.11.62.62,0,0,1,.37.07,1.29,1.29,0,0,1,.45-.11.52.52,0,0,1,.41.13.39.39,0,0,1,.07.34l-.12.86Z"/></clipPath><clipPath id="clip-path-16"><path class="cls-1" d="M1165.35,502.36l.11-.83c0-.2,0-.26-.22-.26a1.14,1.14,0,0,0-.24.05,1.64,1.64,0,0,1,0,.2l-.11.86h-.33l.11-.83c0-.2,0-.26-.24-.26a1.11,1.11,0,0,0-.25.05l-.14,1.06h-.33l.17-1.25h0a2,2,0,0,1,.61-.11.58.58,0,0,1,.36.07,1.09,1.09,0,0,1,.46-.1.5.5,0,0,1,.41.12.38.38,0,0,1,.06.35l-.11.86Z"/></clipPath><clipPath id="clip-path-17"><path class="cls-1" d="M1181.6,500.26l.57-.59.3,0-.64.6Zm.26.88c-.36,0-.45.12-.46.24s0,.15.17.15l.24,0Zm-.35.62c-.31,0-.45-.1-.42-.35s.27-.45.8-.51h0v0a.43.43,0,0,0,0-.19s-.07-.05-.15-.05a1,1,0,0,0-.46.17l0,0,0-.29h0a1.11,1.11,0,0,1,.55-.16c.19,0,.31,0,.36.16a.51.51,0,0,1,0,.31l-.11.83H1182A3,3,0,0,1,1181.51,501.76Z"/></clipPath><clipPath id="clip-path-18"><path class="cls-1" d="M1183.1,501.71c-.44,0-.69-.24-.63-.64a.87.87,0,0,1,1.18-.68h0l0,.29-.05,0a.47.47,0,0,0-.29-.08.48.48,0,0,0-.49.46.32.32,0,0,0,.37.41.59.59,0,0,0,.34-.11l0,0,0,.29h0a1,1,0,0,1-.41.11"/></clipPath><clipPath id="clip-path-19"><path class="cls-1" d="M1184,500.13l0-.34.34,0,0,.34Zm-.19,1.53.18-1.33.32,0-.17,1.33Z"/></clipPath><clipPath id="clip-path-20"><path class="cls-1" d="M1185.25,501c-.37,0-.45.12-.46.24s0,.15.17.15a1,1,0,0,0,.24,0Zm-.35.63c-.32,0-.46-.11-.43-.36s.28-.45.81-.51h0v0c0-.11,0-.16,0-.19s-.06-.05-.14-.05a.9.9,0,0,0-.46.18l-.06,0,0-.29h0a1.07,1.07,0,0,1,.54-.16c.2,0,.32,0,.37.16a.75.75,0,0,1,0,.31l-.11.83h-.08Z"/></clipPath><clipPath id="clip-path-21"><path class="cls-1" d="M1153.68,496.73l-.55,3.11a4.37,4.37,0,0,0,2.8-3.2Z"/></clipPath><clipPath id="clip-path-22"><path class="cls-1" d="M1154.06,494.72l1.67-.06a4.08,4.08,0,0,0-1.35-1.74Z"/></clipPath><clipPath id="clip-path-23"><path class="cls-1" d="M1151.3,498.51c.13-.51.3-1.37,1.88-1.71.13,0,.12-.06,0-.05l-5.1.19c.05-.27.19-1.1.25-1.41.1-.5.36-.6.83-.62l2.78-.11.51-2.77a5.59,5.59,0,0,0-1.49-.14c-2.68.1-4.78,2.05-4.69,4.35s2.14,3.93,4.67,4Z"/></clipPath><clipPath id="clip-path-24"><polygon class="cls-1" points="1167.3 581.99 1136.77 579.59 1137.06 575.84 1163.53 577.92 1163.44 530.78 1167.21 530.77 1167.3 581.99"/></clipPath><clipPath id="clip-path-25"><rect class="cls-2" x="1177.45" y="567.05" width="3.76" height="27.92" transform="translate(511.02 1713.15) rotate(-85.67)"/></clipPath><clipPath id="clip-path-26"><path class="cls-1" d="M1171,565.32a1.88,1.88,0,0,1-1-3.5l1-.61v-1.9l-1.52-1.26a1.88,1.88,0,0,1,2.41-2.89l2.19,1.83a1.86,1.86,0,0,1,.68,1.44v3.85a1.89,1.89,0,0,1-.92,1.62l-2,1.16a1.85,1.85,0,0,1-1,.26"/></clipPath><clipPath id="clip-path-27"><path class="cls-1" d="M1159.23,564.78a1.9,1.9,0,0,1-1-.26l-2-1.16a1.89,1.89,0,0,1-.92-1.62v-3.85a1.89,1.89,0,0,1,.68-1.44l2.19-1.83a1.88,1.88,0,1,1,2.41,2.89l-1.52,1.27v1.89l1,.61a1.88,1.88,0,0,1-1,3.5"/></clipPath><clipPath id="clip-path-28"><path class="cls-2" d="M850.3,955.45H766.78l35.55-33.82a3.29,3.29,0,0,0,0-4.93,3.7,3.7,0,0,0-5.18,0l-42,39.81a3.29,3.29,0,0,0,0,4.93L797,1001.25a3.71,3.71,0,0,0,5.19,0,3.29,3.29,0,0,0,0-4.93L766.78,962.5H850.3a3.53,3.53,0,1,0,0-7Z"/></clipPath><clipPath id="clip-path-29"><path class="cls-2" d="M609.7,955.45h83.52l-35.55-33.82a3.29,3.29,0,0,1,0-4.93,3.7,3.7,0,0,1,5.18,0l42,39.81a3.29,3.29,0,0,1,0,4.93L663,1001.25a3.71,3.71,0,0,1-5.19,0,3.29,3.29,0,0,1,0-4.93l35.37-33.82H609.7a3.53,3.53,0,1,1,0-7Z"/></clipPath></defs><title>icons</title><path class="cls-2" d="M121.84,59.05l-8.61-14.88A12.41,12.41,0,0,0,102.52,38H90V36.7A12.11,12.11,0,0,0,77.87,24.6H26.21A12.11,12.11,0,0,0,14.12,36.7h7a5.1,5.1,0,0,1,5.09-5.1H77.87A5.11,5.11,0,0,1,83,36.7v45a5,5,0,0,1-.1,1c0,.11-.06.22-.09.33a5.36,5.36,0,0,1-.17.57,3.78,3.78,0,0,1-.17.35,3.67,3.67,0,0,1-.26.48,3.62,3.62,0,0,1-.22.32c-.11.15-.23.29-.35.43l-.25.26c-.15.13-.3.26-.46.38s-.17.13-.27.19a5.39,5.39,0,0,1-.58.32l-.25.12a4.61,4.61,0,0,1-.77.24l-.14,0a4.87,4.87,0,0,1-1,.1h-24c0-.11,0-.22,0-.33s0-.49-.08-.73-.07-.54-.12-.81l-.15-.7c-.06-.27-.13-.53-.2-.78L53,82.76c-.09-.25-.18-.5-.28-.75s-.17-.43-.27-.65-.22-.48-.34-.71L51.81,80c-.13-.23-.27-.45-.41-.67L51,78.78l-.48-.63-.43-.54c-.17-.2-.35-.39-.53-.59l-.47-.49L48.52,76,48,75.55l-.64-.48-.55-.39c-.23-.15-.46-.28-.7-.42l-.58-.34c-.24-.13-.49-.24-.75-.36l-.59-.28c-.27-.11-.54-.2-.81-.29l-.61-.22c-.29-.09-.59-.15-.88-.22s-.39-.11-.59-.15-.68-.11-1-.16c-.17,0-.34-.06-.51-.07-.52,0-1-.08-1.57-.08s-1,0-1.53.08c-.17,0-.33,0-.49.06-.34,0-.67.09-1,.16s-.38.08-.57.13l-.87.22-.58.2c-.27.09-.54.18-.81.29l-.57.25q-.37.17-.75.36l-.55.3c-.24.14-.48.28-.71.43l-.52.34-.67.51c-.16.12-.32.24-.47.37l-.65.59-.41.39c-.23.23-.44.48-.65.72l-.31.35c-.3.37-.59.75-.86,1.15l-.09.13c-.23.36-.46.73-.66,1.1l-.23.45c-.14.28-.28.56-.41.86s-.14.36-.21.54-.22.55-.31.83-.12.39-.17.59-.15.55-.22.84l-.12.62c0,.15-.07.3-.09.46a5.07,5.07,0,0,1-1.6-3.71V73.34h-7V81.7a12.12,12.12,0,0,0,9.54,11.82,15.65,15.65,0,0,0,29,.27H88.31a15.65,15.65,0,0,0,28.87,0,10,10,0,0,0,9.86-10v-16A10,10,0,0,0,121.84,59.05ZM38.2,96.4a8.67,8.67,0,0,1-8.47-6.87q-.07-.39-.12-.78a.36.36,0,0,0,0-.1c0-.3,0-.61,0-.91a8.66,8.66,0,0,1,6.08-8.26,8.66,8.66,0,0,1,5.14,0,8.66,8.66,0,0,1,6.08,8.26c0,.3,0,.61,0,.91a.36.36,0,0,0,0,.1q0,.39-.12.78A8.67,8.67,0,0,1,38.2,96.4ZM90,45h12.56a5.39,5.39,0,0,1,4.65,2.68L113,57.81H90ZM102.74,96.4a8.67,8.67,0,0,1-8.47-6.87q-.08-.39-.12-.78a.36.36,0,0,0,0-.1c0-.3,0-.61,0-.91a8.66,8.66,0,0,1,6.08-8.26,8.66,8.66,0,0,1,5.14,0,8.66,8.66,0,0,1,6.08,8.26c0,.3,0,.61,0,.91a.36.36,0,0,0,0,.1q0,.39-.12.78A8.67,8.67,0,0,1,102.74,96.4ZM120,83.8a3,3,0,0,1-1.7,2.7,1.11,1.11,0,0,0,0-.19c0-.23,0-.45-.09-.67s-.07-.57-.12-.85-.1-.45-.16-.67-.12-.54-.2-.8-.14-.44-.22-.65-.18-.51-.28-.76-.18-.43-.27-.63a8,8,0,0,0-.35-.72q-.15-.3-.33-.6c-.13-.23-.27-.46-.41-.68l-.38-.57c-.16-.21-.31-.42-.47-.62s-.29-.36-.44-.53-.35-.4-.53-.59l-.47-.48L113,76c-.17-.15-.34-.3-.52-.44s-.42-.32-.63-.48l-.56-.39-.69-.42L110,73.9c-.25-.13-.5-.24-.75-.36s-.39-.19-.6-.27-.53-.2-.8-.29-.4-.15-.61-.21-.58-.16-.87-.23l-.59-.14c-.33-.07-.67-.11-1-.16-.17,0-.34-.06-.51-.07-.51,0-1-.08-1.56-.08s-1,0-1.44.07l-.27,0c-.46,0-.91.11-1.35.2l-.25.06c-.42.09-.84.19-1.25.32l-.12,0c-.43.14-.85.3-1.27.47l-.26.11c-.4.17-.8.36-1.19.57l-.18.1c-.36.2-.71.42-1,.64L94,74.8c-.37.25-.72.51-1.06.79l-.21.18a11.74,11.74,0,0,0-1,.89l-.09.09q-.44.45-.84.93c0,.06-.11.12-.15.18-.23.27-.45.56-.66.85V64.81H117a3,3,0,0,1,3,3Z"/><path class="cls-2" d="M3.63,47.62H35.72a3.5,3.5,0,0,0,0-7H3.63a3.5,3.5,0,0,0,0,7Z"/><path class="cls-2" d="M8.49,55.3A3.5,3.5,0,0,0,12,58.8H44.08a3.5,3.5,0,0,0,0-7H12A3.5,3.5,0,0,0,8.49,55.3Z"/><path class="cls-2" d="M39.22,66.42a3.5,3.5,0,0,0-3.5-3.5H3.63a3.5,3.5,0,0,0,0,7H35.72A3.49,3.49,0,0,0,39.22,66.42Z"/><path class="cls-3" d="M1204.43,586.5h-.16l-11-.92a1.87,1.87,0,0,1-1.72-1.87V539.38a6.43,6.43,0,0,0-1.71-4.91,6.64,6.64,0,0,0-4.5-1.45h-.17l-47.55-.52v46.9a1.85,1.85,0,0,1-.61,1.38,1.9,1.9,0,0,1-1.42.5l-9.25-.73a1.9,1.9,0,0,1-1.74-1.9c0-.29.28-29.76.22-36.75a14.76,14.76,0,0,1,3.35-9.33h-5.9a3.57,3.57,0,0,1-3.26-2.66,1.75,1.75,0,0,1-.08-.55v-6.09c0-3.06,1.89-4.32,3-4.58a1.92,1.92,0,0,1,.41-.05l67.22-.92.26,0c15.86,2,16.65,15.93,16.66,16.07v.09l-.18,50.73a1.87,1.87,0,0,1-1.88,1.87Zm-9.11-4.52,7.23.6.18-48.64c0-.78-1-10.83-13.25-12.45l-66.6.9a1.61,1.61,0,0,0-.18.88v5.53h10.11a1.87,1.87,0,0,1,1.43.66l.18-.21a1.88,1.88,0,0,1,1.35-.54l49.38.55a10.37,10.37,0,0,1,7.22,2.42c2,1.79,3,4.38,3,7.7Zm-66.93-5.05,5.47.44V532.25h0s-5.32,3.68-5.27,9.62S1128.45,570.45,1128.39,576.93Z"/><g class="cls-4"><rect class="cls-2" x="-3378.84" y="-1997.43" width="6348.4" height="5052.27"/></g><path class="cls-3" d="M1209.55,583h-3.77V533.42c-.09-1-1.31-11.31-12-12.12l.29-3.76c11.42.87,15.13,10.63,15.5,15.66V583Z"/><g class="cls-5"><rect class="cls-2" x="-3378.84" y="-1997.43" width="6348.4" height="5052.27"/></g><path class="cls-3" d="M1129.94,515.5a1.88,1.88,0,0,1-1.88-1.87l-.12-19.84a1.87,1.87,0,0,1,1.82-1.89l9.65-.31h.09l3.42.06a1.89,1.89,0,1,1-.07,3.77l-3.37-.06-7.76.24.11,18a1.88,1.88,0,0,1-1.87,1.89Z"/><g class="cls-6"><rect class="cls-2" x="-3378.84" y="-1997.43" width="6348.4" height="5052.27"/></g><path class="cls-3" d="M1145.58,508.42h-.46a5,5,0,0,1-4.15-1.76,4.52,4.52,0,0,1-.8-3.49l.83-9.68c-.07-2.54.62-4.44,2.07-5.66a6,6,0,0,1,4.7-1.19l41.84-2,.23.05c2.51.51,4.26,1.53,5.19,3a4.37,4.37,0,0,1,.64,3.1c-.11,1.41-.78,9.74-1.45,12.36a5.76,5.76,0,0,1-4.77,4.33h-.18c-1.59,0-37.92.92-43.69.92m1.2-18.09a2,2,0,0,0-1.31.4,3.61,3.61,0,0,0-.7,2.73v.12l-.91,10.28a.94.94,0,0,0,.08.5,1.93,1.93,0,0,0,1.24.3c3.65.07,41.35-.85,43.87-.92a2,2,0,0,0,1.53-1.51c.52-2,1.15-9.23,1.35-11.83l0-.31c0-.55-.81-1.27-2.65-1.69l-41.83,2-.23-.05a2.33,2.33,0,0,0-.48,0"/><g class="cls-7"><rect class="cls-2" x="-3378.84" y="-1997.43" width="6348.4" height="5052.27"/></g><path class="cls-3" d="M1182.26,493.52a1.15,1.15,0,0,0-.93-.27,1.62,1.62,0,0,0-1,.4,2.1,2.1,0,0,0-.61,1.23l0,.18,1.95-.06c.51,0,.79-.17.86-.61a1,1,0,0,0-.2-.87m1.83,1.05a1.43,1.43,0,0,1-.61,1.07,2.71,2.71,0,0,1-1.42.41,9.28,9.28,0,0,1-1.86,0c-.38-.07-.51-.65-.56-.81a3.89,3.89,0,0,0-.08,1.09,1.17,1.17,0,0,0,.5,1,2.16,2.16,0,0,0,1.22.24l1-.07c.34,0,.53-.07.81-.12h0c.06,0,.14,0,.12.12l-.1.82c0,.06,0,.1-.11.14a10.3,10.3,0,0,1-1.06.25,10.69,10.69,0,0,1-1.08.11,4.64,4.64,0,0,1-1.53-.16,2,2,0,0,1-.95-.59,2.08,2.08,0,0,1-.46-1,4.76,4.76,0,0,1,0-1.37l0-.41a3.89,3.89,0,0,1,1-2.32,3.67,3.67,0,0,1,2.51-.93,2.56,2.56,0,0,1,2.07.64,2.36,2.36,0,0,1,.47,1.93m-22.44-1.74-4.45.17c-.29,0-.39.2-.43.49s-.08.58-.11.82.09.31.3.31l.38,0,1.4-.05c.12,0,0,0,0,.05a2.35,2.35,0,0,0-1.28,1.89c0,.22-.34,2.67-.34,2.67a.89.89,0,0,0,0,.15c0,.24.14.29.23.28l.9,0h.08c.35,0,.44-.11.49-.46.06-.51.54-4.28.57-4.57l1,0c.48,0,1.06-.07,1.33.26s.22.71.16,1.26c0,0-.38,3-.38,3s0,.11,0,.15c0,.24.14.29.23.29l.89,0h.08c.35,0,.45-.1.49-.46,0-.13.48-3.76.51-4a1.87,1.87,0,0,0-2.08-2.07m25.06-.34c0-.24,0-.66-.48-.64l-.81,0a.43.43,0,0,0-.39.36l-.73,5.88c-.06.33,0,.44.21.44l1.17-.05a.33.33,0,0,0,.32-.28l.09-.71s.24-1.91.43-3.5a.31.31,0,0,0-.34-.37l-1,0h-.09c.51-.1,1.49-.54,1.57-1.2m-20.64,1.93-1,0H1165c.51-.09,1.48-.53,1.56-1.19,0-.24,0-.66-.47-.64l-.81,0a.42.42,0,0,0-.4.35l-.73,5.89c0,.32.06.44.22.43l1.17,0a.35.35,0,0,0,.31-.29l.1-.7s.23-1.92.43-3.5a.31.31,0,0,0-.35-.37m11.31-2.05a3.67,3.67,0,0,0-.9-.18,6.44,6.44,0,0,0-1.08,0,4.37,4.37,0,0,0-1,.14,2.57,2.57,0,0,0-.8.37,1.89,1.89,0,0,0-.56.6,2.24,2.24,0,0,0-.29.86,1.49,1.49,0,0,0,.25,1.12,2.45,2.45,0,0,0,1,.68l1,.39a1.75,1.75,0,0,1,.46.26.46.46,0,0,1,.14.43.64.64,0,0,1-.31.49,1.55,1.55,0,0,1-.75.16c-.32,0-.67,0-1,0s-.73,0-1-.06h0a.1.1,0,0,0-.12.09v0l-.12.93a.14.14,0,0,0,.13.18c.35.07.73.13,1.12.17a12.24,12.24,0,0,0,1.23,0,3.24,3.24,0,0,0,1.84-.57,2,2,0,0,0,.83-1.44,1.55,1.55,0,0,0-.24-1.13,2.13,2.13,0,0,0-1-.72l-1-.41a2.29,2.29,0,0,1-.45-.23.4.4,0,0,1-.15-.41.55.55,0,0,1,.31-.47,1.65,1.65,0,0,1,.69-.13h.88a8.09,8.09,0,0,1,.86.07h.07a.12.12,0,0,0,.09-.1c0-.05,0,0,0,0l.11-.93c0-.11-.07-.15-.14-.17m-5.37,1.34a.12.12,0,0,1-.1.09h-.07c-.28,0-.57-.05-.86-.06a6.46,6.46,0,0,0-.88,0,1.9,1.9,0,0,0-.69.12.56.56,0,0,0-.31.48.4.4,0,0,0,.15.41,2.29,2.29,0,0,0,.45.23l1,.4a2.14,2.14,0,0,1,1,.72,1.54,1.54,0,0,1,.24,1.14,2,2,0,0,1-.82,1.43,3.3,3.3,0,0,1-1.85.57,8.25,8.25,0,0,1-1.23,0c-.39,0-.76-.09-1.12-.16a.14.14,0,0,1-.13-.18l.12-.93s0,0,0,0a.1.1,0,0,1,.11-.1h0c.31,0,.66.05,1,.06h1.05a1.61,1.61,0,0,0,.76-.17.61.61,0,0,0,.3-.49.42.42,0,0,0-.14-.42,1.51,1.51,0,0,0-.46-.27l-1-.38a2.4,2.4,0,0,1-1-.69,1.38,1.38,0,0,1-.25-1.11,2.08,2.08,0,0,1,.28-.86,2,2,0,0,1,.56-.6,2.46,2.46,0,0,1,.8-.37,5.14,5.14,0,0,1,1-.15,9.6,9.6,0,0,1,1.08,0,4.76,4.76,0,0,1,.9.18c.07,0,.16.06.15.18l-.12.93s0,0,0,0"/><g class="cls-8"><rect class="cls-2" x="-3378.84" y="-1997.43" width="6348.4" height="5052.27"/></g><path class="cls-3" d="M1166.87,501.71c-.36,0-.45.12-.46.24s0,.15.17.15a.9.9,0,0,0,.24,0Zm-.35.63c-.31,0-.46-.11-.42-.36s.27-.45.8-.51h0v0a.43.43,0,0,0,0-.19s-.07-.05-.15-.05a.93.93,0,0,0-.46.18l0,0,0-.29h0a1.1,1.1,0,0,1,.54-.16c.2,0,.32,0,.37.16a.61.61,0,0,1,0,.31l-.11.83H1167Z"/><g class="cls-9"><rect class="cls-2" x="-3378.84" y="-1997.43" width="6348.4" height="5052.27"/></g><path class="cls-3" d="M1167.68,500.75l0-.34h.35l0,.33Zm-.19,1.53.17-1.33.33,0-.18,1.34Z"/><g class="cls-10"><rect class="cls-2" x="-3378.84" y="-1997.43" width="6348.4" height="5052.27"/></g><path class="cls-3" d="M1168.53,502.27a.76.76,0,0,1-.36-.06h0l0-.32,0,0a.43.43,0,0,0,.32.1.23.23,0,0,0,.24-.14.16.16,0,0,0-.07-.13l-.17-.08c-.24-.1-.31-.2-.29-.37a.54.54,0,0,1,.57-.42.65.65,0,0,1,.34.06h0l0,.29,0,0a.49.49,0,0,0-.29-.08c-.13,0-.22.06-.23.14s0,.09.2.17a.57.57,0,0,1,.24.15.26.26,0,0,1,.08.26.55.55,0,0,1-.59.42"/><g class="cls-11"><rect class="cls-2" x="-3378.84" y="-1997.43" width="6348.4" height="5052.27"/></g><path class="cls-3" d="M1170.87,501.06a.5.5,0,0,0-.54.45c0,.28.09.42.37.41a.64.64,0,0,0,.2,0l.11-.83Zm-.09,1.74.09-.66-.25,0c-.44,0-.68-.22-.62-.63a.87.87,0,0,1,.94-.75l.4,0h0l-.26,2Z"/><g class="cls-12"><rect class="cls-2" x="-3378.84" y="-1997.43" width="6348.4" height="5052.27"/></g><path class="cls-3" d="M1172.17,502.11a.6.6,0,0,1-.44-.1c-.09-.08-.11-.18-.08-.39l.11-.83h.32l-.1.81c0,.22,0,.28.26.27a.91.91,0,0,0,.23,0l.14-1.07.33,0-.17,1.29h0a2.52,2.52,0,0,1-.57.07"/><g class="cls-13"><rect class="cls-2" x="-3378.84" y="-1997.43" width="6348.4" height="5052.27"/></g><path class="cls-3" d="M1174.17,501.17a.22.22,0,0,0-.26-.23.4.4,0,0,0-.36.25Zm-.38.9c-.44,0-.67-.23-.62-.64a.81.81,0,0,1,.78-.74.47.47,0,0,1,.47.21.57.57,0,0,1,0,.41v.09l-1,0v0c0,.23.12.36.38.35a.8.8,0,0,0,.46-.16l0,0,0,.29h0A1,1,0,0,1,1173.79,502.07Z"/><g class="cls-14"><rect class="cls-2" x="-3378.84" y="-1997.43" width="6348.4" height="5052.27"/></g><path class="cls-3" d="M1175.38,502l.14-1.05h-.22l0-.24h.22v0a.83.83,0,0,1,.26-.58.76.76,0,0,1,.43-.16h.17l0,.25h-.14a.3.3,0,0,0-.23.11.54.54,0,0,0-.12.36v0h.35l0,.24h-.35l-.14,1.06Z"/><g class="cls-15"><rect class="cls-2" x="-3378.84" y="-1997.43" width="6348.4" height="5052.27"/></g><path class="cls-3" d="M1177,501.32c-.37.05-.45.12-.46.25s0,.15.17.14l.24,0Zm-.35.63q-.48,0-.42-.36c0-.3.27-.45.8-.51h0v0c0-.11,0-.16,0-.18s-.06-.06-.14-.06a.9.9,0,0,0-.46.18l0,0,0-.29h0a1.32,1.32,0,0,1,.54-.16c.2,0,.32.05.37.16a.77.77,0,0,1,0,.31l-.11.84h-.07A4.48,4.48,0,0,1,1176.69,502Z"/><g class="cls-16"><rect class="cls-2" x="-3378.84" y="-1997.43" width="6348.4" height="5052.27"/></g><path class="cls-3" d="M1177.66,501.89l.16-1.24h0a1.62,1.62,0,0,1,.57-.12.63.63,0,0,1,.24,0h0l0,.27,0,0a.71.71,0,0,0-.21,0,.65.65,0,0,0-.26.06l-.14,1.05Z"/><g class="cls-17"><rect class="cls-2" x="-3378.84" y="-1997.43" width="6348.4" height="5052.27"/></g><path class="cls-3" d="M1180.4,501.79l.11-.84c0-.19,0-.26-.22-.25a.79.79,0,0,0-.25.05.47.47,0,0,1,0,.2l-.11.85-.32,0,.11-.84c0-.19,0-.26-.24-.25a1.27,1.27,0,0,0-.26,0l-.14,1.07h-.32l.16-1.26h0a2,2,0,0,1,.6-.11.62.62,0,0,1,.37.07,1.29,1.29,0,0,1,.45-.11.52.52,0,0,1,.41.13.39.39,0,0,1,.07.34l-.12.86Z"/><g class="cls-18"><rect class="cls-2" x="-3378.84" y="-1997.43" width="6348.4" height="5052.27"/></g><path class="cls-3" d="M1165.35,502.36l.11-.83c0-.2,0-.26-.22-.26a1.14,1.14,0,0,0-.24.05,1.64,1.64,0,0,1,0,.2l-.11.86h-.33l.11-.83c0-.2,0-.26-.24-.26a1.11,1.11,0,0,0-.25.05l-.14,1.06h-.33l.17-1.25h0a2,2,0,0,1,.61-.11.58.58,0,0,1,.36.07,1.09,1.09,0,0,1,.46-.1.5.5,0,0,1,.41.12.38.38,0,0,1,.06.35l-.11.86Z"/><g class="cls-19"><rect class="cls-2" x="-3378.84" y="-1997.43" width="6348.4" height="5052.27"/></g><path class="cls-3" d="M1181.6,500.26l.57-.59.3,0-.64.6Zm.26.88c-.36,0-.45.12-.46.24s0,.15.17.15l.24,0Zm-.35.62c-.31,0-.45-.1-.42-.35s.27-.45.8-.51h0v0a.43.43,0,0,0,0-.19s-.07-.05-.15-.05a1,1,0,0,0-.46.17l0,0,0-.29h0a1.11,1.11,0,0,1,.55-.16c.19,0,.31,0,.36.16a.51.51,0,0,1,0,.31l-.11.83H1182A3,3,0,0,1,1181.51,501.76Z"/><g class="cls-20"><rect class="cls-2" x="-3378.84" y="-1997.43" width="6348.4" height="5052.27"/></g><path class="cls-3" d="M1183.1,501.71c-.44,0-.69-.24-.63-.64a.87.87,0,0,1,1.18-.68h0l0,.29-.05,0a.47.47,0,0,0-.29-.08.48.48,0,0,0-.49.46.32.32,0,0,0,.37.41.59.59,0,0,0,.34-.11l0,0,0,.29h0a1,1,0,0,1-.41.11"/><g class="cls-21"><rect class="cls-2" x="-3378.84" y="-1997.43" width="6348.4" height="5052.27"/></g><path class="cls-3" d="M1184,500.13l0-.34.34,0,0,.34Zm-.19,1.53.18-1.33.32,0-.17,1.33Z"/><g class="cls-22"><rect class="cls-2" x="-3378.84" y="-1997.43" width="6348.4" height="5052.27"/></g><path class="cls-3" d="M1185.25,501c-.37,0-.45.12-.46.24s0,.15.17.15a1,1,0,0,0,.24,0Zm-.35.63c-.32,0-.46-.11-.43-.36s.28-.45.81-.51h0v0c0-.11,0-.16,0-.19s-.06-.05-.14-.05a.9.9,0,0,0-.46.18l-.06,0,0-.29h0a1.07,1.07,0,0,1,.54-.16c.2,0,.32,0,.37.16a.75.75,0,0,1,0,.31l-.11.83h-.08Z"/><g class="cls-23"><rect class="cls-2" x="-3378.84" y="-1997.43" width="6348.4" height="5052.27"/></g><path class="cls-3" d="M1153.68,496.73l-.55,3.11a4.37,4.37,0,0,0,2.8-3.2Z"/><g class="cls-24"><rect class="cls-2" x="-3378.84" y="-1997.43" width="6348.4" height="5052.27"/></g><path class="cls-3" d="M1154.06,494.72l1.67-.06a4.08,4.08,0,0,0-1.35-1.74Z"/><g class="cls-25"><rect class="cls-2" x="-3378.84" y="-1997.43" width="6348.4" height="5052.27"/></g><path class="cls-3" d="M1151.3,498.51c.13-.51.3-1.37,1.88-1.71.13,0,.12-.06,0-.05l-5.1.19c.05-.27.19-1.1.25-1.41.1-.5.36-.6.83-.62l2.78-.11.51-2.77a5.59,5.59,0,0,0-1.49-.14c-2.68.1-4.78,2.05-4.69,4.35s2.14,3.93,4.67,4Z"/><g class="cls-26"><rect class="cls-2" x="-3378.84" y="-1997.43" width="6348.4" height="5052.27"/></g><polygon class="cls-3" points="1167.3 581.99 1136.77 579.59 1137.06 575.84 1163.53 577.92 1163.44 530.78 1167.21 530.77 1167.3 581.99"/><g class="cls-27"><rect class="cls-2" x="-3378.84" y="-1997.43" width="6348.4" height="5052.27"/></g><rect class="cls-2" x="1177.45" y="567.05" width="3.76" height="27.92" transform="translate(511.02 1713.15) rotate(-85.67)"/><g class="cls-28"><rect class="cls-2" x="-3378.84" y="-1997.43" width="6348.4" height="5052.27"/></g><path class="cls-3" d="M1171,565.32a1.88,1.88,0,0,1-1-3.5l1-.61v-1.9l-1.52-1.26a1.88,1.88,0,0,1,2.41-2.89l2.19,1.83a1.86,1.86,0,0,1,.68,1.44v3.85a1.89,1.89,0,0,1-.92,1.62l-2,1.16a1.85,1.85,0,0,1-1,.26"/><g class="cls-29"><rect class="cls-2" x="-3378.84" y="-1997.43" width="6348.4" height="5052.27"/></g><path class="cls-3" d="M1159.23,564.78a1.9,1.9,0,0,1-1-.26l-2-1.16a1.89,1.89,0,0,1-.92-1.62v-3.85a1.89,1.89,0,0,1,.68-1.44l2.19-1.83a1.88,1.88,0,1,1,2.41,2.89l-1.52,1.27v1.89l1,.61a1.88,1.88,0,0,1-1,3.5"/><g class="cls-30"><rect class="cls-2" x="-3378.84" y="-1997.43" width="6348.4" height="5052.27"/></g><path class="cls-2" d="M850.3,955.45H766.78l35.55-33.82a3.29,3.29,0,0,0,0-4.93,3.7,3.7,0,0,0-5.18,0l-42,39.81a3.29,3.29,0,0,0,0,4.93L797,1001.25a3.71,3.71,0,0,0,5.19,0,3.29,3.29,0,0,0,0-4.93L766.78,962.5H850.3a3.53,3.53,0,1,0,0-7Z"/><g class="cls-31"><rect class="cls-2" x="54" y="-1777.69" width="9600" height="25640"/></g><path class="cls-2" d="M609.7,955.45h83.52l-35.55-33.82a3.29,3.29,0,0,1,0-4.93,3.7,3.7,0,0,1,5.18,0l42,39.81a3.29,3.29,0,0,1,0,4.93L663,1001.25a3.71,3.71,0,0,1-5.19,0,3.29,3.29,0,0,1,0-4.93l35.37-33.82H609.7a3.53,3.53,0,1,1,0-7Z"/><g class="cls-32"><rect class="cls-2" x="-8194" y="-1777.69" width="9600" height="25640"/></g></svg>