<svg width="29" height="27" viewBox="0 0 29 27" fill="none" xmlns="http://www.w3.org/2000/svg">
<rect x="0.873047" width="27.254" height="26.4524" rx="5" fill="#F7BF20"/>
<g clip-path="url(#clip0)">
<path d="M23.301 9.99429C23.2615 9.05727 23.1169 8.41309 22.9097 7.85489C22.696 7.26238 22.3671 6.7319 21.9363 6.29092C21.5154 5.84307 21.0057 5.49507 20.4466 5.27464C19.9107 5.05758 19.299 4.90606 18.4046 4.86474C17.5035 4.81993 17.2174 4.80957 14.932 4.80957C12.6465 4.80957 12.3605 4.81993 11.4627 4.86125C10.5683 4.90256 9.9534 5.05422 9.4207 5.27115C8.85499 5.49507 8.34863 5.83957 7.92769 6.29092C7.50019 6.7319 7.16814 7.26588 6.95761 7.85153C6.75041 8.41309 6.60577 9.05377 6.56634 9.99079C6.52356 10.9348 6.51367 11.2345 6.51367 13.6288C6.51367 16.023 6.52356 16.3227 6.563 17.2632C6.60243 18.2002 6.7472 18.8444 6.9544 19.4026C7.16814 19.9951 7.50019 20.5256 7.92769 20.9666C8.34863 21.4144 8.85833 21.7624 9.41736 21.9829C9.9534 22.1999 10.565 22.3514 11.4595 22.3928C12.3571 22.4342 12.6433 22.4444 14.9288 22.4444C17.2142 22.4444 17.5003 22.4342 18.398 22.3928C19.2925 22.3514 19.9074 22.1999 20.4401 21.9829C21.5714 21.5247 22.4658 20.5876 22.9032 19.4026C23.1102 18.8411 23.255 18.2002 23.2944 17.2632C23.3339 16.3227 23.3438 16.023 23.3438 13.6288C23.3438 11.2345 23.3404 10.9348 23.301 9.99429ZM21.7851 17.1943C21.7489 18.0556 21.6108 18.5206 21.4957 18.8307C21.2128 19.599 20.6308 20.2087 19.8975 20.505C19.6015 20.6256 19.1544 20.7703 18.3355 20.8081C17.4476 20.8495 17.1813 20.8597 14.9353 20.8597C12.6893 20.8597 12.4197 20.8495 11.535 20.8081C10.7129 20.7703 10.269 20.6256 9.97305 20.505C9.60811 20.3637 9.27593 20.1398 9.00631 19.847C8.72679 19.561 8.51305 19.2165 8.37817 18.8342C8.26308 18.5241 8.12499 18.0556 8.0889 17.1978C8.04933 16.2677 8.03957 15.9886 8.03957 13.6356C8.03957 11.2827 8.04933 11.0002 8.0889 10.0735C8.12499 9.2123 8.26308 8.74722 8.37817 8.43718C8.51305 8.05473 8.72679 7.70686 9.00965 7.42427C9.28248 7.13144 9.61132 6.90752 9.97639 6.76635C10.2723 6.64578 10.7196 6.50112 11.5384 6.46317C12.4263 6.42185 12.6927 6.41149 14.9385 6.41149C17.1879 6.41149 17.4542 6.42185 18.3388 6.46317C19.1609 6.50112 19.6049 6.64578 19.9008 6.76635C20.2658 6.90752 20.5979 7.13144 20.8676 7.42427C21.1471 7.71023 21.3608 8.05473 21.4957 8.43718C21.6108 8.74722 21.7489 9.21566 21.7851 10.0735C21.8245 11.0037 21.8344 11.2827 21.8344 13.6356C21.8344 15.9886 21.8245 16.2642 21.7851 17.1943Z" fill="white"/>
<path d="M14.932 9.09863C12.5447 9.09863 10.6078 11.1277 10.6078 13.6288C10.6078 16.1299 12.5447 18.159 14.932 18.159C17.3195 18.159 19.2563 16.1299 19.2563 13.6288C19.2563 11.1277 17.3195 9.09863 14.932 9.09863ZM14.932 16.5674C13.3833 16.5674 12.127 15.2514 12.127 13.6288C12.127 12.0062 13.3833 10.6902 14.932 10.6902C16.4809 10.6902 17.7371 12.0062 17.7371 13.6288C17.7371 15.2514 16.4809 16.5674 14.932 16.5674Z" fill="white"/>
<path d="M20.4369 8.91941C20.4369 9.50344 19.9849 9.97699 19.4272 9.97699C18.8698 9.97699 18.4177 9.50344 18.4177 8.91941C18.4177 8.33524 18.8698 7.86182 19.4272 7.86182C19.9849 7.86182 20.4369 8.33524 20.4369 8.91941Z" fill="white"/>
</g>
<defs>
<clipPath id="clip0">
<rect width="16.8333" height="17.6349" fill="white" transform="translate(6.48413 4.80957)"/>
</clipPath>
</defs>
</svg>
