<svg width="43" height="45" viewBox="0 0 43 45" fill="none" xmlns="http://www.w3.org/2000/svg">
    <mask id="iwfjwrk06a" style="mask-type:alpha" maskUnits="userSpaceOnUse" x="0" y="0" width="43" height="45">
        <path d="M21.5 44.535c11.874 0 21.5-9.97 21.5-22.268S33.374 0 21.5 0 0 9.97 0 22.267c0 12.298 9.626 22.268 21.5 22.268z" fill="#C4C4C4"/>
    </mask>
    <g mask="url(#iwfjwrk06a)" fill="#911436">
        <path fill-rule="evenodd" clip-rule="evenodd" d="M21.5 3.272c-10.026 0-18.271 8.438-18.271 18.995 0 10.558 8.245 18.995 18.27 18.995 10.027 0 18.272-8.438 18.272-18.995S31.526 3.272 21.5 3.272zM-.771 22.267c0-12.633 9.905-22.995 22.27-22.995 12.367 0 22.272 10.362 22.272 22.995 0 12.633-9.905 22.995-22.271 22.995C9.134 45.262-.771 34.9-.771 22.267z"/>
        <path d="M21.626 23.056c3.87 0 7.007-3.26 7.007-7.286 0-4.024-3.137-7.287-7.007-7.287-3.87 0-7.005 3.263-7.005 7.287 0 4.025 3.136 7.288 7.005 7.288v-.002zM6.157 38.876c.956-7.191 7.518-12.758 15.469-12.758 7.953 0 14.514 5.567 15.47 12.758.133.998-.664 1.816-1.631 1.816l-13.839 8.614-13.837-8.614c-.968 0-1.765-.818-1.632-1.816z"/>
    </g>
</svg>
