<svg xmlns="http://www.w3.org/2000/svg" xmlns:xlink="http://www.w3.org/1999/xlink" width="38" height="31" viewBox="0 0 38 31">
    <defs>
        <filter id="57u4zkd1qa">
            <feColorMatrix in="SourceGraphic" values="0 0 0 0 1.000000 0 0 0 0 1.000000 0 0 0 0 1.000000 0 0 0 1.000000 0"/>
        </filter>
        <path id="jq1ynv12ib" d="M0.06 0.001L13.199 0.001 13.199 18.735 0.06 18.735z"/>
    </defs>
    <g fill="none" fill-rule="evenodd">
        <path fill="#333" d="M7.908 0H32.14c2.455 0 4.445 1.99 4.445 4.444 0 .19-.013.38-.037.57l-2.853 22.11C33.41 29.341 31.523 31 29.288 31H5.055C2.6 31 .61 29.01.61 26.556c0-.19.013-.38.037-.57L3.5 3.877C3.786 1.659 5.673 0 7.908 0z"/>
        <g filter="url(#57u4zkd1qa)">
            <g transform="translate(11 5)">
                <mask id="go64nsdqtc" fill="#fff">
                    <use xlink:href="#jq1ynv12ib"/>
                </mask>
                <path fill="#000" d="M1.164 6.11h-.047C.5 6.11 0 6.614 0 7.227v4.863c0 .614.5 1.118 1.117 1.118h.047c.617 0 1.117-.504 1.117-1.118V7.227c0-.613-.504-1.117-1.117-1.117zM2.816 13.965c0 .567.461 1.024 1.028 1.024h1.097v2.63c0 .616.5 1.116 1.118 1.116h.046c.618 0 1.118-.504 1.118-1.117V14.99h1.535v2.63c0 .616.504 1.116 1.117 1.116h.047c.617 0 1.117-.504 1.117-1.117V14.99h1.098c.562 0 1.027-.457 1.027-1.024V6.29H2.816v7.675zM10.566 1.633l.872-1.347c.054-.082.031-.199-.055-.254-.086-.059-.199-.035-.254.055l-.906 1.39c-.676-.277-1.434-.433-2.231-.433-.801 0-1.558.156-2.234.433L4.855.087c-.054-.09-.171-.114-.257-.055-.086.055-.11.172-.055.254l.871 1.347c-1.57.77-2.633 2.223-2.633 3.887 0 .102.008.203.016.305h10.387c.007-.102.015-.203.015-.305 0-1.664-1.062-3.117-2.633-3.887zM5.582 4.04c-.277 0-.5-.223-.5-.5 0-.278.223-.496.5-.496s.5.218.5.496c0 .277-.223.5-.5.5zm4.816 0c-.277 0-.5-.223-.5-.5 0-.278.223-.496.5-.496.278 0 .5.218.5.496 0 .277-.222.5-.5.5z" mask="url(#go64nsdqtc)"/>
                <path fill="#000" d="M14.863 6.11h-.047c-.617 0-1.117.504-1.117 1.117v4.863c0 .614.504 1.118 1.117 1.118h.047c.617 0 1.117-.504 1.117-1.118V7.227c0-.613-.503-1.117-1.117-1.117z"/>
            </g>
        </g>
    </g>
</svg>
