<svg xmlns="http://www.w3.org/2000/svg" xmlns:xlink="http://www.w3.org/1999/xlink" width="38" height="31" viewBox="0 0 38 31">
    <defs>
        <filter id="kyokr8q0ka">
            <feColorMatrix in="SourceGraphic" values="0 0 0 0 1.000000 0 0 0 0 1.000000 0 0 0 0 1.000000 0 0 0 1.000000 0"/>
        </filter>
        <path id="hjitwxzrib" d="M0.06 0.866L13.621 0.866 13.621 17.999 0.06 17.999z"/>
    </defs>
    <g fill="none" fill-rule="evenodd">
        <path fill="#333" d="M7.908 0H32.14c2.455 0 4.445 1.99 4.445 4.444 0 .19-.013.38-.037.57l-2.853 22.11C33.41 29.341 31.523 31 29.288 31H5.055C2.6 31 .61 29.01.61 26.556c0-.19.013-.38.037-.57L3.5 3.877C3.786 1.659 5.673 0 7.908 0z"/>
        <g filter="url(#kyokr8q0ka)">
            <g transform="translate(12 5)">
                <mask id="ote3ysnwec" fill="#fff">
                    <use xlink:href="#hjitwxzrib"/>
                </mask>
                <path fill="#231F20" d="M10.113.866H9.66c-1.605.629-2.863 1.614-2.941 3.793 2.191.274 3.375-1.472 3.394-3.793zM3.891 17.999h.906c1.246-.937 3.449-.746 4.75 0h.68c1.304-.57 3.394-3.148 3.394-4.597-2.687-.547-2.996-5.711-.453-6.672-.715-1.059-1.695-1.739-3.227-1.739-.129 0-.257.004-.394.016-.942.066-1.879.805-2.715.805-.937 0-1.727-.774-2.602-.805-6.773-.266-4.289 10.676-.339 12.992z" mask="url(#ote3ysnwec)"/>
            </g>
        </g>
    </g>
</svg>
